<svg viewBox="0 0 330 200" xmlns="http://www.w3.org/2000/svg"><g><g><g><g><g><line x1="58" y1="178" x2="53" y2="178" style="visibility: inherit;" fill="rgb(0, 0, 0)" stroke="rgb(204, 204, 204)" stroke-width="1px"></line><line x1="58" y1="155.75000000000003" x2="53" y2="155.75000000000003" style="visibility: inherit;" fill="rgb(0, 0, 0)" stroke="rgb(204, 204, 204)" stroke-width="1px"></line><line x1="58" y1="133.5" x2="53" y2="133.5" style="visibility: inherit;" fill="rgb(0, 0, 0)" stroke="rgb(204, 204, 204)" stroke-width="1px"></line><line x1="58" y1="111.25000000000003" x2="53" y2="111.25000000000003" style="visibility: inherit;" fill="rgb(0, 0, 0)" stroke="rgb(204, 204, 204)" stroke-width="1px"></line><line x1="58" y1="89" x2="53" y2="89" style="visibility: inherit;" fill="rgb(0, 0, 0)" stroke="rgb(204, 204, 204)" stroke-width="1px"></line><line x1="58" y1="66.74999999999999" x2="53" y2="66.74999999999999" style="visibility: inherit;" fill="rgb(0, 0, 0)" stroke="rgb(204, 204, 204)" stroke-width="1px"></line><line x1="58" y1="44.5" x2="53" y2="44.5" style="visibility: inherit;" fill="rgb(0, 0, 0)" stroke="rgb(204, 204, 204)" stroke-width="1px"></line><line x1="58" y1="22.24999999999997" x2="53" y2="22.24999999999997" style="visibility: inherit;" fill="rgb(0, 0, 0)" stroke="rgb(204, 204, 204)" stroke-width="1px"></line><line x1="58" y1="0" x2="53" y2="0" style="visibility: inherit;" fill="rgb(0, 0, 0)" stroke="rgb(204, 204, 204)" stroke-width="1px"></line></g><g transform="translate(48, 0)"><text x="0" y="178" dx="0em" dy="0.3em" style="text-anchor: end; visibility: hidden; font-family: &quot;Helvetica Neue&quot;, sans-serif; font-size: 12px; font-weight: 200;" fill="rgb(50, 49, 63)" stroke="none" stroke-width="1px">0.55</text><text x="0" y="155.75000000000003" dx="0em" dy="0.3em" style="text-anchor: end; visibility: inherit; font-family: &quot;Helvetica Neue&quot;, sans-serif; font-size: 12px; font-weight: 200;" fill="rgb(50, 49, 63)" stroke="none" stroke-width="1px">0.6</text><text x="0" y="133.5" dx="0em" dy="0.3em" style="text-anchor: end; visibility: hidden; font-family: &quot;Helvetica Neue&quot;, sans-serif; font-size: 12px; font-weight: 200;" fill="rgb(50, 49, 63)" stroke="none" stroke-width="1px">0.65</text><text x="0" y="111.25000000000003" dx="0em" dy="0.3em" style="text-anchor: end; visibility: inherit; font-family: &quot;Helvetica Neue&quot;, sans-serif; font-size: 12px; font-weight: 200;" fill="rgb(50, 49, 63)" stroke="none" stroke-width="1px">0.7</text><text x="0" y="89" dx="0em" dy="0.3em" style="text-anchor: end; visibility: hidden; font-family: &quot;Helvetica Neue&quot;, sans-serif; font-size: 12px; font-weight: 200;" fill="rgb(50, 49, 63)" stroke="none" stroke-width="1px">0.75</text><text x="0" y="66.74999999999999" dx="0em" dy="0.3em" style="text-anchor: end; visibility: inherit; font-family: &quot;Helvetica Neue&quot;, sans-serif; font-size: 12px; font-weight: 200;" fill="rgb(50, 49, 63)" stroke="none" stroke-width="1px">0.8</text><text x="0" y="44.5" dx="0em" dy="0.3em" style="text-anchor: end; visibility: hidden; font-family: &quot;Helvetica Neue&quot;, sans-serif; font-size: 12px; font-weight: 200;" fill="rgb(50, 49, 63)" stroke="none" stroke-width="1px">0.85</text><text x="0" y="22.24999999999997" dx="0em" dy="0.3em" style="text-anchor: end; visibility: inherit; font-family: &quot;Helvetica Neue&quot;, sans-serif; font-size: 12px; font-weight: 200;" fill="rgb(50, 49, 63)" stroke="none" stroke-width="1px">0.9</text><text x="0" y="0" dx="0em" dy="0.3em" style="text-anchor: end; visibility: hidden; font-family: &quot;Helvetica Neue&quot;, sans-serif; font-size: 12px; font-weight: 200;" fill="rgb(50, 49, 63)" stroke="none" stroke-width="1px">0.95</text></g><line x1="58" y1="0" x2="58" y2="178" fill="rgb(0, 0, 0)" stroke="rgb(204, 204, 204)" stroke-width="1px"></line></g></g><g transform="translate(58, 0)" clip-path="url(#clip_0)"><clipPath id="clip_0"><rect width="272" height="178"></rect></clipPath><g><g><g><line x1="0" y1="0" x2="0" y2="178" fill="rgb(0, 0, 0)" stroke="rgb(60, 60, 60)" stroke-width="1px" opacity="0.25"></line><line x1="19.428571428571427" y1="0" x2="19.428571428571427" y2="178" fill="rgb(0, 0, 0)" stroke="rgb(60, 60, 60)" stroke-width="1px" opacity="0.25"></line><line x1="38.857142857142854" y1="0" x2="38.857142857142854" y2="178" fill="rgb(0, 0, 0)" stroke="rgb(60, 60, 60)" stroke-width="1px" opacity="0.25"></line><line x1="58.285714285714285" y1="0" x2="58.285714285714285" y2="178" fill="rgb(0, 0, 0)" stroke="rgb(60, 60, 60)" stroke-width="1px" opacity="0.25"></line><line x1="77.71428571428571" y1="0" x2="77.71428571428571" y2="178" fill="rgb(0, 0, 0)" stroke="rgb(60, 60, 60)" stroke-width="1px" opacity="0.25"></line><line x1="97.14285714285714" y1="0" x2="97.14285714285714" y2="178" fill="rgb(0, 0, 0)" stroke="rgb(60, 60, 60)" stroke-width="1px" opacity="0.25"></line><line x1="116.57142857142857" y1="0" x2="116.57142857142857" y2="178" fill="rgb(0, 0, 0)" stroke="rgb(60, 60, 60)" stroke-width="1px" opacity="0.25"></line><line x1="136" y1="0" x2="136" y2="178" fill="rgb(0, 0, 0)" stroke="rgb(60, 60, 60)" stroke-width="1px" opacity="0.25"></line><line x1="155.42857142857142" y1="0" x2="155.42857142857142" y2="178" fill="rgb(0, 0, 0)" stroke="rgb(60, 60, 60)" stroke-width="1px" opacity="0.25"></line><line x1="174.85714285714286" y1="0" x2="174.85714285714286" y2="178" fill="rgb(0, 0, 0)" stroke="rgb(60, 60, 60)" stroke-width="1px" opacity="0.25"></line><line x1="194.28571428571428" y1="0" x2="194.28571428571428" y2="178" fill="rgb(0, 0, 0)" stroke="rgb(60, 60, 60)" stroke-width="1px" opacity="0.25"></line><line x1="213.71428571428572" y1="0" x2="213.71428571428572" y2="178" fill="rgb(0, 0, 0)" stroke="rgb(60, 60, 60)" stroke-width="1px" opacity="0.25"></line><line x1="233.14285714285714" y1="0" x2="233.14285714285714" y2="178" fill="rgb(0, 0, 0)" stroke="rgb(60, 60, 60)" stroke-width="1px" opacity="0.25"></line><line x1="252.57142857142858" y1="0" x2="252.57142857142858" y2="178" fill="rgb(0, 0, 0)" stroke="rgb(60, 60, 60)" stroke-width="1px" opacity="0.25"></line><line x1="272" y1="0" x2="272" y2="178" fill="rgb(0, 0, 0)" stroke="rgb(60, 60, 60)" stroke-width="1px" opacity="0.25"></line></g><g><line x1="0" y1="178" x2="272" y2="178" fill="rgb(0, 0, 0)" stroke="rgb(60, 60, 60)" stroke-width="1px" opacity="0.25"></line><line x1="0" y1="155.75000000000003" x2="272" y2="155.75000000000003" fill="rgb(0, 0, 0)" stroke="rgb(60, 60, 60)" stroke-width="1px" opacity="0.25"></line><line x1="0" y1="133.5" x2="272" y2="133.5" fill="rgb(0, 0, 0)" stroke="rgb(60, 60, 60)" stroke-width="1px" opacity="0.25"></line><line x1="0" y1="111.25000000000003" x2="272" y2="111.25000000000003" fill="rgb(0, 0, 0)" stroke="rgb(60, 60, 60)" stroke-width="1px" opacity="0.25"></line><line x1="0" y1="89" x2="272" y2="89" fill="rgb(0, 0, 0)" stroke="rgb(60, 60, 60)" stroke-width="1px" opacity="0.25"></line><line x1="0" y1="66.74999999999999" x2="272" y2="66.74999999999999" fill="rgb(0, 0, 0)" stroke="rgb(60, 60, 60)" stroke-width="1px" opacity="0.25"></line><line x1="0" y1="44.5" x2="272" y2="44.5" fill="rgb(0, 0, 0)" stroke="rgb(60, 60, 60)" stroke-width="1px" opacity="0.25"></line><line x1="0" y1="22.24999999999997" x2="272" y2="22.24999999999997" fill="rgb(0, 0, 0)" stroke="rgb(60, 60, 60)" stroke-width="1px" opacity="0.25"></line><line x1="0" y1="0" x2="272" y2="0" fill="rgb(0, 0, 0)" stroke="rgb(60, 60, 60)" stroke-width="1px" opacity="0.25"></line></g></g></g><g><g><line x1="0" y1="422.7500000000001" x2="272" y2="422.7500000000001" fill="rgb(0, 0, 0)" stroke="rgb(153, 153, 153)" stroke-width="1.5px"></line></g></g><g><g><line x1="19.428571428571427" y1="0" x2="19.428571428571427" y2="178" fill="rgb(0, 0, 0)" stroke="rgb(153, 153, 153)" stroke-width="1.5px"></line></g></g><g><g><g><g><g><path stroke="rgb(255, 112, 67)" stroke-width="2px" d="M22.34285714285714,210.18804053589713L23.314285714285713,162.00904870689826L24.285714285714285,179.22445404962795L25.25714285714286,175.67243284285252L26.22857142857143,157.22440540030397L27.200000000000003,148.19959451069462L28.171428571428574,192.40354129704642L29.142857142857142,153.57568043583038L30.114285714285714,150.5774070869471L31.085714285714285,156.62588807736157L32.05714285714286,148.02004745688004L33.028571428571425,135.00326159002506L34,139.77390955559906L34.97142857142857,111.66833590570704L35.94285714285714,115.37271582352889L36.91428571428571,119.96321038245833L37.885714285714286,114.39399682844012L38.857142857142854,107.50445850901616L39.82857142857143,100.21748389462455L40.8,106.71280432305548L41.77142857142857,119.09430585219832L42.74285714285714,107.18150415183958L43.714285714285715,110.54670325371374L44.68571428571428,83.75583706898689L45.65714285714285,98.28237242167765L46.628571428571426,80.06427348854467L47.599999999999994,76.31835454292992L48.57142857142857,89.0927377676562L49.54285714285714,72.08496987726429L50.51428571428572,75.65433152951543L51.48571428571428,68.04000959958394L52.45714285714286,64.01036986541642L53.42857142857143,71.48612955236833L54.400000000000006,65.04765197120447L55.371428571428574,61.37192284569326L56.34285714285715,60.265528378914354L57.31428571428572,54.71929860431668L58.285714285714285,72.16499330961638L59.25714285714286,66.98971879539432L60.22857142857143,61.956484959774386L61.2,58.70375274199465L62.17142857142857,57.724680344442945L63.142857142857146,57.42997955277984L64.11428571428571,59.07900344774741L65.08571428571429,73.47726446748901L66.05714285714285,53.4828261268804L67.02857142857144,47.464500186357185L68,54.34166532519603L68.97142857142856,52.93621582514744L69.94285714285714,50.7754281520519L70.91428571428573,57.07598347612833L71.88571428571429,46.808293174899944L72.85714285714286,43.71771839423013L73.82857142857142,53.21388400576582L74.80000000000001,49.12127744115986L75.77142857142857,42.67619782511625L76.74285714285715,52.90038631446255L77.71428571428571,55.97786704975576L78.6857142857143,55.16644137749813L79.65714285714286,60.13542583056855L80.62857142857143,58.15561394410365L81.6,48.871009319341425L82.57142857142857,54.76502457422433L83.54285714285714,60.01459937278314L84.51428571428572,56.38149780672937L85.48571428571428,39.64830057473267L86.45714285714286,41.56256062157982L87.42857142857143,54.30291034945624L88.4,44.23586933051345L89.37142857142857,39.46794261023072L90.34285714285714,55.41017770162105L91.3142857142857,49.78236184361231L92.28571428571429,55.03934168402988L93.25714285714285,44.457535162220125L94.22857142857143,56.91204505976984L95.19999999999999,51.97215275167326L96.17142857142858,57.43619758061439L97.14285714285714,57.3431462408675L98.11428571428571,60.79061399444274L99.08571428571427,56.615078207848896L100.05714285714286,65.78467055660137L101.02857142857144,52.90508419296138L102,43.81512365740849L102.97142857142856,53.24320298998251L103.94285714285714,49.130102455409116L104.91428571428573,39.203377947566196L105.88571428571429,46.64184395090001L106.85714285714286,47.143093384645255L107.82857142857142,55.982650711138916L108.80000000000001,63.85658104683351L109.77142857142857,48.849253043682154L110.74285714285715,49.54525235483089L111.71428571428571,41.06606690055028L112.6857142857143,52.41573690616819L113.65714285714286,36.71687771040558L114.62857142857143,40.68020233941738L115.6,43.61091042633083L116.57142857142857,51.44398743384717L117.54285714285714,52.06401477985146L118.51428571428572,53.9883718442569L119.48571428571428,58.04307952748201L120.45714285714286,61.00129391371371L121.42857142857143,51.4652878234522L122.4,43.38174495018623L123.37142857142857,44.42407475217226L124.34285714285714,43.000068648989156L125.3142857142857,52.99787143244831L126.28571428571429,49.056257656591356L127.25714285714285,42.65662686996109L128.22857142857143,52.894495456960826L129.2,54.23834652806681L130.17142857142858,49.429640660372485L131.14285714285714,49.719949027454646L132.1142857142857,46.33187417943009L133.0857142857143,45.31206365017471L134.05714285714288,65.85793938158052L135.02857142857144,65.09129556305555L136,57.90958336000136L136.97142857142856,52.27241178004299L137.94285714285712,40.14921305428098L138.9142857142857,59.090716312119284L139.88571428571427,43.9392515516941L140.85714285714286,49.805089279323425L141.82857142857145,44.619754021661635L142.8,41.32123927584726L143.77142857142857,42.06611517061535L144.74285714285713,45.7657990217796L145.71428571428572,52.092608901077284L146.68571428571428,55.734726048326834L147.65714285714284,51.617779729228886L148.6285714285714,57.32953130085859L149.60000000000002,48.622358443724664L150.57142857142858,44.26375204014644L151.54285714285714,46.42728771950843L152.5142857142857,45.340783125738284L153.4857142857143,43.2759978694325L154.45714285714286,37.441292467187196L155.42857142857142,26.99634635385229L156.39999999999998,46.44300364803115L157.3714285714286,47.083242453481745L158.34285714285716,43.800478127083295L159.31428571428572,46.28784227167648L160.28571428571428,40.08558646552078L161.25714285714287,48.645136088385186L162.22857142857143,47.74608431802835L163.2,49.21319856840907L164.17142857142855,54.8680235381937L165.14285714285714,51.35690227367883L166.11428571428573,53.77553097989896L167.0857142857143,42.3393807666958L168.05714285714288,38.89709955252164L169.02857142857144,36.12324407379705L170,49.190199861734555L170.97142857142856,51.385624720645566L171.94285714285712,52.046447603177754L172.9142857142857,43.55667404388362L173.88571428571427,42.73898103579427L174.85714285714286,32.06642681984209L175.82857142857145,46.231369035035954L176.8,34.855382981194765L177.77142857142857,45.33309746602214L178.74285714285713,53.70011310637523L179.71428571428572,45.79215619360423L180.68571428571428,57.313765990216496L181.65714285714284,39.92891329796228L182.6285714285714,45.12250125811107L183.60000000000002,58.84992868789119L184.57142857142858,50.817726890479605L185.54285714285714,48.40003414945869L186.5142857142857,45.93457980115329L187.4857142857143,43.45473066873245L188.45714285714286,32.28186745935648L189.42857142857142,49.77169287436888L190.39999999999998,41.13422549693121L191.3714285714286,43.74757139674253L192.34285714285716,35.84548872532662L193.31428571428572,52.58207170868401L194.28571428571428,41.980149526060075L195.25714285714287,42.26444715592939L196.22857142857143,54.514178196295475L197.2,47.774937159251124L198.17142857142855,47.484154440358935L199.14285714285714,38.707947595036075L200.11428571428573,51.70594299520839L201.0857142857143,52.14286340382118L202.05714285714288,50.536629073232746L203.02857142857144,57.00410495340374L204,43.311181532720724L204.97142857142856,47.878292830031455L205.94285714285712,50.99074070410293L206.9142857142857,53.665316347456596L207.88571428571427,45.781682369169744L208.85714285714286,55.57286599548077L209.82857142857145,55.04453606016135L210.8,46.19682750269388L211.77142857142857,45.27141460047707L212.74285714285713,53.681546563846126L213.71428571428572,54.47524891123932L214.68571428571428,46.02547207086835L215.65714285714284,40.00661303507758L216.6285714285714,50.35909391907998L217.60000000000002,41.31103321138926L218.57142857142858,42.06304314521347L219.54285714285714,45.76487434213365L220.5142857142857,50.354601739245695L221.4857142857143,43.04742843884003L222.45714285714286,44.32344548225703L223.42857142857142,51.658460485681005L224.39999999999998,57.341776208550655L225.3714285714286,52.10150182745626L226.34285714285716,40.09776915855238L227.31428571428572,53.86200811908496L228.28571428571428,45.840886592429854L229.25714285714287,50.377481426584836L230.22857142857143,48.2675202648264L231.2,54.58337436881527L232.17142857142855,53.00897024727685L233.14285714285714,29.944488532401124L234.11428571428573,38.641713196838026L235.0857142857143,42.99732519441446L236.05714285714288,42.570617032104025L237.02857142857144,54.60633532902398L238,54.75361032955783L238.97142857142856,42.63378265094309L239.94285714285712,37.247985686421856L240.9142857142857,51.266494460715506L241.88571428571427,45.05963698126067L242.85714285714286,62.306482747398306L243.82857142857145,39.69399220861581L244.8,38.10083759653958L245.77142857142857,42.834521638724596L246.74285714285713,52.948041782358644L247.71428571428572,38.6148303113971L248.68571428571428,48.20243848599401L249.65714285714284,38.92415109277218L250.6285714285714,50.03327287444607L251.60000000000002,53.37711853072993L252.57142857142858,45.694934826334986L253.54285714285714,46.858073738151234L254.5142857142857,52.421383590705105L255.4857142857143,41.93178240254841L256.45714285714286,40.51215981849418L257.42857142857144,45.29805846079111L258.4,39.787661538444326L259.37142857142857,45.0799844784961L260.34285714285716,48.41070251670985L261.31428571428575,49.41324864621217L262.2857142857143,46.239557364676074L263.25714285714287,50.49748132903093L264.2285714285714,53.51684527555996L265.2,49.21246878336791L266.1714285714286,54.867803872896275L267.1428571428571,46.143631114327036L268.11428571428576,55.68181256777312L269.0857142857143,39.43769531780683L270.0571428571429,44.974644646084215L271.0285714285714,43.16579018705664L272,39.14584878805027L272.9714285714286,50.10000388072473" style="fill: none;" fill="none"></path></g></g></g></g><g opacity="0.2"><g><g><g><path stroke="rgb(255, 112, 67)" stroke-width="2px" d="M22.34285714285714,221.38128647208217L23.314285714285713,141.82822281122208L24.285714285714285,186.57681697607043L25.25714285714286,174.14665782451632L26.22857142857143,149.28631299734116L27.200000000000003,144.31424403190613L28.171428571428574,211.4371485412121L29.142857142857142,136.85615384578705L30.114285714285714,149.28631299734116L31.085714285714285,159.2304509282112L32.05714285714286,144.31424403190613L33.028571428571425,129.39803713560104L34,141.82822281122208L34.97142857142857,99.5656498670578L35.94285714285714,116.96787798404694L36.91428571428571,121.93994694948196L37.885714285714286,111.99580901861192L38.857142857142854,104.53771883249283L39.82857142857143,97.07960212230682L40.8,109.50978779792786L41.77142857142857,124.42596817016602L42.74285714285714,102.05167108774185L43.714285714285715,111.99580901861192L44.68571428571428,72.21928381919861L45.65714285714285,104.53771883249283L46.628571428571426,72.21928381919861L47.599999999999994,74.70530503988266L48.57142857142857,94.59358090162277L49.54285714285714,64.7611671090126L50.51428571428572,77.19135278463364L51.48571428571428,64.7611671090126L52.45714285714286,62.27514588832855L53.42857142857143,74.70530503988266L54.400000000000006,62.27514588832855L55.371428571428574,59.789098143577576L56.34285714285715,59.789098143577576L57.31428571428572,52.331007957458496L58.285714285714285,79.67737400531769L59.25714285714286,64.7611671090126L60.22857142857143,59.789098143577576L61.2,57.303076922893524L62.17142857142857,57.303076922893524L63.142857142857146,57.303076922893524L64.11428571428571,59.789098143577576L65.08571428571429,79.67737400531769L66.05714285714285,44.87291777133942L67.02857142857144,44.87291777133942L68,57.303076922893524L68.97142857142856,52.331007957458496L69.94285714285714,49.84496021270752L70.91428571428573,59.789098143577576L71.88571428571429,42.38687002658841L72.85714285714286,42.38687002658841L73.82857142857142,57.303076922893524L74.80000000000001,47.35893899202347L75.77142857142857,39.90084880590436L76.74285714285715,57.303076922893524L77.71428571428571,57.303076922893524L78.6857142857143,54.81702917814255L79.65714285714286,62.27514588832855L80.62857142857143,57.303076922893524L81.6,44.87291777133942L82.57142857142857,57.303076922893524L83.54285714285714,62.27514588832855L84.51428571428572,54.81702917814255L85.48571428571428,32.442732095718355L86.45714285714286,42.38687002658841L87.42857142857143,59.789098143577576L88.4,39.90084880590436L89.37142857142857,37.41480106115338L90.34285714285714,62.27514588832855L91.3142857142857,47.35893899202347L92.28571428571429,57.303076922893524L93.25714285714285,39.90084880590436L94.22857142857143,62.27514588832855L95.19999999999999,49.84496021270752L96.17142857142858,59.789098143577576L97.14285714285714,57.303076922893524L98.11428571428571,62.27514588832855L99.08571428571427,54.81702917814255L100.05714285714286,69.73323607444763L101.02857142857144,47.35893899202347L102,39.90084880590436L102.97142857142856,57.303076922893524L103.94285714285714,47.35893899202347L104.91428571428573,34.92877984046933L105.88571428571429,49.84496021270752L106.85714285714286,47.35893899202347L107.82857142857142,59.789098143577576L108.80000000000001,67.24721485376358L109.77142857142857,42.38687002658841L110.74285714285715,49.84496021270752L111.71428571428571,37.41480106115338L112.6857142857143,57.303076922893524L113.65714285714286,29.956710875034304L114.62857142857143,42.38687002658841L115.6,44.87291777133942L116.57142857142857,54.81702917814255L117.54285714285714,52.331007957458496L118.51428571428572,54.81702917814255L119.48571428571428,59.789098143577576L120.45714285714286,62.27514588832855L121.42857142857143,47.35893899202347L122.4,39.90084880590436L123.37142857142857,44.87291777133942L124.34285714285714,42.38687002658841L125.3142857142857,57.303076922893524L126.28571428571429,47.35893899202347L127.25714285714285,39.90084880590436L128.22857142857143,57.303076922893524L129.2,54.81702917814255L130.17142857142858,47.35893899202347L131.14285714285714,49.84496021270752L132.1142857142857,44.87291777133942L133.0857142857143,44.87291777133942L134.05714285714288,74.70530503988266L135.02857142857144,64.7611671090126L136,54.81702917814255L136.97142857142856,49.84496021270752L137.94285714285712,34.92877984046933L138.9142857142857,67.24721485376358L139.88571428571427,37.41480106115338L140.85714285714286,52.331007957458496L141.82857142857145,42.38687002658841L142.8,39.90084880590436L143.77142857142857,42.38687002658841L144.74285714285713,47.35893899202347L145.71428571428572,54.81702917814255L146.68571428571428,57.303076922893524L147.65714285714284,49.84496021270752L148.6285714285714,59.789098143577576L149.60000000000002,44.87291777133942L150.57142857142858,42.38687002658841L151.54285714285714,47.35893899202347L152.5142857142857,44.87291777133942L153.4857142857143,42.38687002658841L154.45714285714286,34.92877984046933L155.42857142857142,22.4985941648483L156.39999999999998,54.81702917814255L157.3714285714286,47.35893899202347L158.34285714285716,42.38687002658841L159.31428571428572,47.35893899202347L160.28571428571428,37.41480106115338L161.25714285714287,52.331007957458496L162.22857142857143,47.35893899202347L163.2,49.84496021270752L164.17142857142855,57.303076922893524L165.14285714285714,49.84496021270752L166.11428571428573,54.81702917814255L167.0857142857143,37.41480106115338L168.05714285714288,37.41480106115338L169.02857142857144,34.92877984046933L170,54.81702917814255L170.97142857142856,52.331007957458496L171.94285714285712,52.331007957458496L172.9142857142857,39.90084880590436L173.88571428571427,42.38687002658841L174.85714285714286,27.470663130283327L175.82857142857145,52.331007957458496L176.8,29.956710875034304L177.77142857142857,49.84496021270752L178.74285714285713,57.303076922893524L179.71428571428572,42.38687002658841L180.68571428571428,62.27514588832855L181.65714285714284,32.442732095718355L182.6285714285714,47.35893899202347L183.60000000000002,64.7611671090126L184.57142857142858,47.35893899202347L185.54285714285714,47.35893899202347L186.5142857142857,44.87291777133942L187.4857142857143,42.38687002658841L188.45714285714286,27.470663130283327L189.42857142857142,57.303076922893524L190.39999999999998,37.41480106115338L191.3714285714286,44.87291777133942L192.34285714285716,32.442732095718355L193.31428571428572,59.789098143577576L194.28571428571428,37.41480106115338L195.25714285714287,42.38687002658841L196.22857142857143,59.789098143577576L197.2,44.87291777133942L198.17142857142855,47.35893899202347L199.14285714285714,34.92877984046933L200.11428571428573,57.303076922893524L201.0857142857143,52.331007957458496L202.05714285714288,49.84496021270752L203.02857142857144,59.789098143577576L204,37.41480106115338L204.97142857142856,49.84496021270752L205.94285714285712,52.331007957458496L206.9142857142857,54.81702917814255L207.88571428571427,42.38687002658841L208.85714285714286,59.789098143577576L209.82857142857145,54.81702917814255L210.8,42.38687002658841L211.77142857142857,44.87291777133942L212.74285714285713,57.303076922893524L213.71428571428572,54.81702917814255L214.68571428571428,42.38687002658841L215.65714285714284,37.41480106115338L216.6285714285714,54.81702917814255L217.60000000000002,37.41480106115338L218.57142857142858,42.38687002658841L219.54285714285714,47.35893899202347L220.5142857142857,52.331007957458496L221.4857142857143,39.90084880590436L222.45714285714286,44.87291777133942L223.42857142857142,54.81702917814255L224.39999999999998,59.789098143577576L225.3714285714286,49.84496021270752L226.34285714285716,34.92877984046933L227.31428571428572,59.789098143577576L228.28571428571428,42.38687002658841L229.25714285714287,52.331007957458496L230.22857142857143,47.35893899202347L231.2,57.303076922893524L232.17142857142855,52.331007957458496L233.14285714285714,20.012572944164248L234.11428571428573,42.38687002658841L235.0857142857143,44.87291777133942L236.05714285714288,42.38687002658841L237.02857142857144,59.789098143577576L238,54.81702917814255L238.97142857142856,37.41480106115338L239.94285714285712,34.92877984046933L240.9142857142857,57.303076922893524L241.88571428571427,42.38687002658841L242.85714285714286,69.73323607444763L243.82857142857145,29.956710875034304L244.8,37.41480106115338L245.77142857142857,44.87291777133942L246.74285714285713,57.303076922893524L247.71428571428572,32.442732095718355L248.68571428571428,52.331007957458496L249.65714285714284,34.92877984046933L250.6285714285714,54.81702917814255L251.60000000000002,54.81702917814255L252.57142857142858,42.38687002658841L253.54285714285714,47.35893899202347L254.5142857142857,54.81702917814255L255.4857142857143,37.41480106115338L256.45714285714286,39.90084880590436L257.42857142857144,47.35893899202347L258.4,37.41480106115338L259.37142857142857,47.35893899202347L260.34285714285716,49.84496021270752L261.31428571428575,49.84496021270752L262.2857142857143,44.87291777133942L263.25714285714287,52.331007957458496L264.2285714285714,54.81702917814255L265.2,47.35893899202347L266.1714285714286,57.303076922893524L267.1428571428571,42.38687002658841L268.11428571428576,59.789098143577576L269.0857142857143,32.442732095718355L270.0571428571429,47.35893899202347L271.0285714285714,42.38687002658841L272,37.41480106115338L272.9714285714286,54.81702917814255" style="fill: none;" fill="none"></path></g></g></g></g></g></g><g transform="translate(58, 178)" clip-path="url(#clip_1)"><clipPath id="clip_1"><rect width="272" height="22"></rect></clipPath><g><g><line x1="0" y1="0" x2="0" y2="5" style="visibility: inherit;" fill="rgb(0, 0, 0)" stroke="rgb(204, 204, 204)" stroke-width="1px"></line><line x1="19.428571428571427" y1="0" x2="19.428571428571427" y2="5" style="visibility: inherit;" fill="rgb(0, 0, 0)" stroke="rgb(204, 204, 204)" stroke-width="1px"></line><line x1="38.857142857142854" y1="0" x2="38.857142857142854" y2="5" style="visibility: inherit;" fill="rgb(0, 0, 0)" stroke="rgb(204, 204, 204)" stroke-width="1px"></line><line x1="58.285714285714285" y1="0" x2="58.285714285714285" y2="5" style="visibility: inherit;" fill="rgb(0, 0, 0)" stroke="rgb(204, 204, 204)" stroke-width="1px"></line><line x1="77.71428571428571" y1="0" x2="77.71428571428571" y2="5" style="visibility: inherit;" fill="rgb(0, 0, 0)" stroke="rgb(204, 204, 204)" stroke-width="1px"></line><line x1="97.14285714285714" y1="0" x2="97.14285714285714" y2="5" style="visibility: inherit;" fill="rgb(0, 0, 0)" stroke="rgb(204, 204, 204)" stroke-width="1px"></line><line x1="116.57142857142857" y1="0" x2="116.57142857142857" y2="5" style="visibility: inherit;" fill="rgb(0, 0, 0)" stroke="rgb(204, 204, 204)" stroke-width="1px"></line><line x1="136" y1="0" x2="136" y2="5" style="visibility: inherit;" fill="rgb(0, 0, 0)" stroke="rgb(204, 204, 204)" stroke-width="1px"></line><line x1="155.42857142857142" y1="0" x2="155.42857142857142" y2="5" style="visibility: inherit;" fill="rgb(0, 0, 0)" stroke="rgb(204, 204, 204)" stroke-width="1px"></line><line x1="174.85714285714286" y1="0" x2="174.85714285714286" y2="5" style="visibility: inherit;" fill="rgb(0, 0, 0)" stroke="rgb(204, 204, 204)" stroke-width="1px"></line><line x1="194.28571428571428" y1="0" x2="194.28571428571428" y2="5" style="visibility: inherit;" fill="rgb(0, 0, 0)" stroke="rgb(204, 204, 204)" stroke-width="1px"></line><line x1="213.71428571428572" y1="0" x2="213.71428571428572" y2="5" style="visibility: inherit;" fill="rgb(0, 0, 0)" stroke="rgb(204, 204, 204)" stroke-width="1px"></line><line x1="233.14285714285714" y1="0" x2="233.14285714285714" y2="5" style="visibility: inherit;" fill="rgb(0, 0, 0)" stroke="rgb(204, 204, 204)" stroke-width="1px"></line><line x1="252.57142857142858" y1="0" x2="252.57142857142858" y2="5" style="visibility: inherit;" fill="rgb(0, 0, 0)" stroke="rgb(204, 204, 204)" stroke-width="1px"></line><line x1="272" y1="0" x2="272" y2="5" style="visibility: inherit;" fill="rgb(0, 0, 0)" stroke="rgb(204, 204, 204)" stroke-width="1px"></line></g><g transform="translate(0, 8)"><text x="0" y="0" dx="0em" dy="0.95em" style="text-anchor: middle; visibility: hidden; font-family: &quot;Helvetica Neue&quot;, sans-serif; font-size: 12px; font-weight: 200;" fill="rgb(50, 49, 63)" stroke="none" stroke-width="1px">-20</text><text x="19.428571428571427" y="0" dx="0em" dy="0.95em" style="text-anchor: middle; visibility: inherit; font-family: &quot;Helvetica Neue&quot;, sans-serif; font-size: 12px; font-weight: 200;" fill="rgb(50, 49, 63)" stroke="none" stroke-width="1px">0</text><text x="38.857142857142854" y="0" dx="0em" dy="0.95em" style="text-anchor: middle; visibility: hidden; font-family: &quot;Helvetica Neue&quot;, sans-serif; font-size: 12px; font-weight: 200;" fill="rgb(50, 49, 63)" stroke="none" stroke-width="1px">20</text><text x="58.285714285714285" y="0" dx="0em" dy="0.95em" style="text-anchor: middle; visibility: inherit; font-family: &quot;Helvetica Neue&quot;, sans-serif; font-size: 12px; font-weight: 200;" fill="rgb(50, 49, 63)" stroke="none" stroke-width="1px">40</text><text x="77.71428571428571" y="0" dx="0em" dy="0.95em" style="text-anchor: middle; visibility: hidden; font-family: &quot;Helvetica Neue&quot;, sans-serif; font-size: 12px; font-weight: 200;" fill="rgb(50, 49, 63)" stroke="none" stroke-width="1px">60</text><text x="97.14285714285714" y="0" dx="0em" dy="0.95em" style="text-anchor: middle; visibility: inherit; font-family: &quot;Helvetica Neue&quot;, sans-serif; font-size: 12px; font-weight: 200;" fill="rgb(50, 49, 63)" stroke="none" stroke-width="1px">80</text><text x="116.57142857142857" y="0" dx="0em" dy="0.95em" style="text-anchor: middle; visibility: hidden; font-family: &quot;Helvetica Neue&quot;, sans-serif; font-size: 12px; font-weight: 200;" fill="rgb(50, 49, 63)" stroke="none" stroke-width="1px">100</text><text x="136" y="0" dx="0em" dy="0.95em" style="text-anchor: middle; visibility: inherit; font-family: &quot;Helvetica Neue&quot;, sans-serif; font-size: 12px; font-weight: 200;" fill="rgb(50, 49, 63)" stroke="none" stroke-width="1px">120</text><text x="155.42857142857142" y="0" dx="0em" dy="0.95em" style="text-anchor: middle; visibility: hidden; font-family: &quot;Helvetica Neue&quot;, sans-serif; font-size: 12px; font-weight: 200;" fill="rgb(50, 49, 63)" stroke="none" stroke-width="1px">140</text><text x="174.85714285714286" y="0" dx="0em" dy="0.95em" style="text-anchor: middle; visibility: inherit; font-family: &quot;Helvetica Neue&quot;, sans-serif; font-size: 12px; font-weight: 200;" fill="rgb(50, 49, 63)" stroke="none" stroke-width="1px">160</text><text x="194.28571428571428" y="0" dx="0em" dy="0.95em" style="text-anchor: middle; visibility: hidden; font-family: &quot;Helvetica Neue&quot;, sans-serif; font-size: 12px; font-weight: 200;" fill="rgb(50, 49, 63)" stroke="none" stroke-width="1px">180</text><text x="213.71428571428572" y="0" dx="0em" dy="0.95em" style="text-anchor: middle; visibility: inherit; font-family: &quot;Helvetica Neue&quot;, sans-serif; font-size: 12px; font-weight: 200;" fill="rgb(50, 49, 63)" stroke="none" stroke-width="1px">200</text><text x="233.14285714285714" y="0" dx="0em" dy="0.95em" style="text-anchor: middle; visibility: hidden; font-family: &quot;Helvetica Neue&quot;, sans-serif; font-size: 12px; font-weight: 200;" fill="rgb(50, 49, 63)" stroke="none" stroke-width="1px">220</text><text x="252.57142857142858" y="0" dx="0em" dy="0.95em" style="text-anchor: middle; visibility: inherit; font-family: &quot;Helvetica Neue&quot;, sans-serif; font-size: 12px; font-weight: 200;" fill="rgb(50, 49, 63)" stroke="none" stroke-width="1px">240</text><text x="272" y="0" dx="0em" dy="0.95em" style="text-anchor: middle; visibility: hidden; font-family: &quot;Helvetica Neue&quot;, sans-serif; font-size: 12px; font-weight: 200;" fill="rgb(50, 49, 63)" stroke="none" stroke-width="1px">260</text></g><line x1="0" y1="0" x2="272" y2="0" fill="rgb(0, 0, 0)" stroke="rgb(204, 204, 204)" stroke-width="1px"></line></g></g></g></g></svg>