<svg viewBox="0 0 330 200" xmlns="http://www.w3.org/2000/svg"><g><g><g><g><g><line x1="58" y1="178" x2="53" y2="178" style="visibility: inherit;" fill="rgb(0, 0, 0)" stroke="rgb(204, 204, 204)" stroke-width="1px"></line><line x1="58" y1="160.2" x2="53" y2="160.2" style="visibility: inherit;" fill="rgb(0, 0, 0)" stroke="rgb(204, 204, 204)" stroke-width="1px"></line><line x1="58" y1="142.4" x2="53" y2="142.4" style="visibility: inherit;" fill="rgb(0, 0, 0)" stroke="rgb(204, 204, 204)" stroke-width="1px"></line><line x1="58" y1="124.6" x2="53" y2="124.6" style="visibility: inherit;" fill="rgb(0, 0, 0)" stroke="rgb(204, 204, 204)" stroke-width="1px"></line><line x1="58" y1="106.8" x2="53" y2="106.8" style="visibility: inherit;" fill="rgb(0, 0, 0)" stroke="rgb(204, 204, 204)" stroke-width="1px"></line><line x1="58" y1="89" x2="53" y2="89" style="visibility: inherit;" fill="rgb(0, 0, 0)" stroke="rgb(204, 204, 204)" stroke-width="1px"></line><line x1="58" y1="71.2" x2="53" y2="71.2" style="visibility: inherit;" fill="rgb(0, 0, 0)" stroke="rgb(204, 204, 204)" stroke-width="1px"></line><line x1="58" y1="53.400000000000006" x2="53" y2="53.400000000000006" style="visibility: inherit;" fill="rgb(0, 0, 0)" stroke="rgb(204, 204, 204)" stroke-width="1px"></line><line x1="58" y1="35.60000000000002" x2="53" y2="35.60000000000002" style="visibility: inherit;" fill="rgb(0, 0, 0)" stroke="rgb(204, 204, 204)" stroke-width="1px"></line><line x1="58" y1="17.799999999999983" x2="53" y2="17.799999999999983" style="visibility: inherit;" fill="rgb(0, 0, 0)" stroke="rgb(204, 204, 204)" stroke-width="1px"></line><line x1="58" y1="0" x2="53" y2="0" style="visibility: inherit;" fill="rgb(0, 0, 0)" stroke="rgb(204, 204, 204)" stroke-width="1px"></line></g><g transform="translate(48, 0)"><text x="0" y="178" dx="0em" dy="0.3em" style="text-anchor: end; visibility: hidden; font-family: &quot;Helvetica Neue&quot;, sans-serif; font-size: 12px; font-weight: 200;" fill="rgb(50, 49, 63)" stroke="none" stroke-width="1px">-0.1</text><text x="0" y="160.2" dx="0em" dy="0.3em" style="text-anchor: end; visibility: inherit; font-family: &quot;Helvetica Neue&quot;, sans-serif; font-size: 12px; font-weight: 200;" fill="rgb(50, 49, 63)" stroke="none" stroke-width="1px">0</text><text x="0" y="142.4" dx="0em" dy="0.3em" style="text-anchor: end; visibility: hidden; font-family: &quot;Helvetica Neue&quot;, sans-serif; font-size: 12px; font-weight: 200;" fill="rgb(50, 49, 63)" stroke="none" stroke-width="1px">0.1</text><text x="0" y="124.6" dx="0em" dy="0.3em" style="text-anchor: end; visibility: inherit; font-family: &quot;Helvetica Neue&quot;, sans-serif; font-size: 12px; font-weight: 200;" fill="rgb(50, 49, 63)" stroke="none" stroke-width="1px">0.2</text><text x="0" y="106.8" dx="0em" dy="0.3em" style="text-anchor: end; visibility: hidden; font-family: &quot;Helvetica Neue&quot;, sans-serif; font-size: 12px; font-weight: 200;" fill="rgb(50, 49, 63)" stroke="none" stroke-width="1px">0.3</text><text x="0" y="89" dx="0em" dy="0.3em" style="text-anchor: end; visibility: inherit; font-family: &quot;Helvetica Neue&quot;, sans-serif; font-size: 12px; font-weight: 200;" fill="rgb(50, 49, 63)" stroke="none" stroke-width="1px">0.4</text><text x="0" y="71.2" dx="0em" dy="0.3em" style="text-anchor: end; visibility: hidden; font-family: &quot;Helvetica Neue&quot;, sans-serif; font-size: 12px; font-weight: 200;" fill="rgb(50, 49, 63)" stroke="none" stroke-width="1px">0.5</text><text x="0" y="53.400000000000006" dx="0em" dy="0.3em" style="text-anchor: end; visibility: inherit; font-family: &quot;Helvetica Neue&quot;, sans-serif; font-size: 12px; font-weight: 200;" fill="rgb(50, 49, 63)" stroke="none" stroke-width="1px">0.6</text><text x="0" y="35.60000000000002" dx="0em" dy="0.3em" style="text-anchor: end; visibility: hidden; font-family: &quot;Helvetica Neue&quot;, sans-serif; font-size: 12px; font-weight: 200;" fill="rgb(50, 49, 63)" stroke="none" stroke-width="1px">0.7</text><text x="0" y="17.799999999999983" dx="0em" dy="0.3em" style="text-anchor: end; visibility: inherit; font-family: &quot;Helvetica Neue&quot;, sans-serif; font-size: 12px; font-weight: 200;" fill="rgb(50, 49, 63)" stroke="none" stroke-width="1px">0.8</text><text x="0" y="0" dx="0em" dy="0.3em" style="text-anchor: end; visibility: hidden; font-family: &quot;Helvetica Neue&quot;, sans-serif; font-size: 12px; font-weight: 200;" fill="rgb(50, 49, 63)" stroke="none" stroke-width="1px">0.9</text></g><line x1="58" y1="0" x2="58" y2="178" fill="rgb(0, 0, 0)" stroke="rgb(204, 204, 204)" stroke-width="1px"></line></g></g><g transform="translate(58, 0)" clip-path="url(#clip_0)"><clipPath id="clip_0"><rect width="272" height="178"></rect></clipPath><g><g><g><line x1="0" y1="0" x2="0" y2="178" fill="rgb(0, 0, 0)" stroke="rgb(60, 60, 60)" stroke-width="1px" opacity="0.25"></line><line x1="19.428571428571427" y1="0" x2="19.428571428571427" y2="178" fill="rgb(0, 0, 0)" stroke="rgb(60, 60, 60)" stroke-width="1px" opacity="0.25"></line><line x1="38.857142857142854" y1="0" x2="38.857142857142854" y2="178" fill="rgb(0, 0, 0)" stroke="rgb(60, 60, 60)" stroke-width="1px" opacity="0.25"></line><line x1="58.285714285714285" y1="0" x2="58.285714285714285" y2="178" fill="rgb(0, 0, 0)" stroke="rgb(60, 60, 60)" stroke-width="1px" opacity="0.25"></line><line x1="77.71428571428571" y1="0" x2="77.71428571428571" y2="178" fill="rgb(0, 0, 0)" stroke="rgb(60, 60, 60)" stroke-width="1px" opacity="0.25"></line><line x1="97.14285714285714" y1="0" x2="97.14285714285714" y2="178" fill="rgb(0, 0, 0)" stroke="rgb(60, 60, 60)" stroke-width="1px" opacity="0.25"></line><line x1="116.57142857142857" y1="0" x2="116.57142857142857" y2="178" fill="rgb(0, 0, 0)" stroke="rgb(60, 60, 60)" stroke-width="1px" opacity="0.25"></line><line x1="136" y1="0" x2="136" y2="178" fill="rgb(0, 0, 0)" stroke="rgb(60, 60, 60)" stroke-width="1px" opacity="0.25"></line><line x1="155.42857142857142" y1="0" x2="155.42857142857142" y2="178" fill="rgb(0, 0, 0)" stroke="rgb(60, 60, 60)" stroke-width="1px" opacity="0.25"></line><line x1="174.85714285714286" y1="0" x2="174.85714285714286" y2="178" fill="rgb(0, 0, 0)" stroke="rgb(60, 60, 60)" stroke-width="1px" opacity="0.25"></line><line x1="194.28571428571428" y1="0" x2="194.28571428571428" y2="178" fill="rgb(0, 0, 0)" stroke="rgb(60, 60, 60)" stroke-width="1px" opacity="0.25"></line><line x1="213.71428571428572" y1="0" x2="213.71428571428572" y2="178" fill="rgb(0, 0, 0)" stroke="rgb(60, 60, 60)" stroke-width="1px" opacity="0.25"></line><line x1="233.14285714285714" y1="0" x2="233.14285714285714" y2="178" fill="rgb(0, 0, 0)" stroke="rgb(60, 60, 60)" stroke-width="1px" opacity="0.25"></line><line x1="252.57142857142858" y1="0" x2="252.57142857142858" y2="178" fill="rgb(0, 0, 0)" stroke="rgb(60, 60, 60)" stroke-width="1px" opacity="0.25"></line><line x1="272" y1="0" x2="272" y2="178" fill="rgb(0, 0, 0)" stroke="rgb(60, 60, 60)" stroke-width="1px" opacity="0.25"></line></g><g><line x1="0" y1="178" x2="272" y2="178" fill="rgb(0, 0, 0)" stroke="rgb(60, 60, 60)" stroke-width="1px" opacity="0.25"></line><line x1="0" y1="160.2" x2="272" y2="160.2" fill="rgb(0, 0, 0)" stroke="rgb(60, 60, 60)" stroke-width="1px" opacity="0.25"></line><line x1="0" y1="142.4" x2="272" y2="142.4" fill="rgb(0, 0, 0)" stroke="rgb(60, 60, 60)" stroke-width="1px" opacity="0.25"></line><line x1="0" y1="124.6" x2="272" y2="124.6" fill="rgb(0, 0, 0)" stroke="rgb(60, 60, 60)" stroke-width="1px" opacity="0.25"></line><line x1="0" y1="106.8" x2="272" y2="106.8" fill="rgb(0, 0, 0)" stroke="rgb(60, 60, 60)" stroke-width="1px" opacity="0.25"></line><line x1="0" y1="89" x2="272" y2="89" fill="rgb(0, 0, 0)" stroke="rgb(60, 60, 60)" stroke-width="1px" opacity="0.25"></line><line x1="0" y1="71.2" x2="272" y2="71.2" fill="rgb(0, 0, 0)" stroke="rgb(60, 60, 60)" stroke-width="1px" opacity="0.25"></line><line x1="0" y1="53.400000000000006" x2="272" y2="53.400000000000006" fill="rgb(0, 0, 0)" stroke="rgb(60, 60, 60)" stroke-width="1px" opacity="0.25"></line><line x1="0" y1="35.60000000000002" x2="272" y2="35.60000000000002" fill="rgb(0, 0, 0)" stroke="rgb(60, 60, 60)" stroke-width="1px" opacity="0.25"></line><line x1="0" y1="17.799999999999983" x2="272" y2="17.799999999999983" fill="rgb(0, 0, 0)" stroke="rgb(60, 60, 60)" stroke-width="1px" opacity="0.25"></line><line x1="0" y1="0" x2="272" y2="0" fill="rgb(0, 0, 0)" stroke="rgb(60, 60, 60)" stroke-width="1px" opacity="0.25"></line></g></g></g><g><g><line x1="0" y1="160.2" x2="272" y2="160.2" fill="rgb(0, 0, 0)" stroke="rgb(153, 153, 153)" stroke-width="1.5px"></line></g></g><g><g><line x1="19.428571428571427" y1="0" x2="19.428571428571427" y2="178" fill="rgb(0, 0, 0)" stroke="rgb(153, 153, 153)" stroke-width="1.5px"></line></g></g><g><g><g><g><g><path style="fill: none;" stroke="rgb(255, 112, 67)" stroke-width="2px" d="M27.200000000000003,-56.81516104701058L28.171428571428574,10.783654776203292L29.142857142857142,5.238748499738108L30.114285714285714,32.05262301936284L31.085714285714285,45.83803364247228L32.05714285714286,27.183917244564697L33.028571428571425,58.750778837529L34,48.04162252695207L34.97142857142857,53.53682019669034L35.94285714285714,49.924584973113866L36.91428571428571,60.97143172729761L37.885714285714286,71.0156456904423L38.857142857142854,64.14516669643152L39.82857142857143,79.4910654058648L40.8,32.44636636792512L41.77142857142857,37.20350064234708L42.74285714285714,24.39713469569716L43.714285714285715,56.47966015271318L44.68571428571428,-4.117269458570576L45.65714285714285,30.802958375977028L46.628571428571426,63.46415586565416L47.599999999999994,8.168454696341684L48.57142857142857,52.843533044436484L49.54285714285714,89.7617976303568L50.51428571428572,95.72311514419485L51.48571428571428,72.25271847724171L52.45714285714286,72.12619596983447L53.42857142857143,86.71031277055246L54.400000000000006,60.286790333945405L55.371428571428574,64.57772488355478L56.34285714285715,60.69612340783786L57.31428571428572,98.61455884327658L58.285714285714285,54.91535588912764L59.25714285714286,80.54806565373532L60.22857142857143,95.29087208480385L61.2,92.5350340655525L62.17142857142857,84.7045266607657L63.142857142857146,92.94176247360663L64.11428571428571,113.0177036648308L65.08571428571429,75.64562810240186L66.05714285714285,97.40885723351415L67.02857142857144,89.21959133171252L68,89.36639385731007L68.97142857142856,70.14152754194943L69.94285714285714,92.98158320267865L70.91428571428573,106.80844916863481L71.88571428571429,91.87890936525399L72.85714285714286,100.80703229532553L73.82857142857142,66.56390981025893L74.80000000000001,82.03583623158104L75.77142857142857,65.92763186850286L76.74285714285715,95.37541865092116L77.71428571428571,64.14511667225818L78.6857142857143,31.535359684423128L79.65714285714286,75.4273964893723L80.62857142857143,58.13030525958372L81.6,66.19516250384315L82.57142857142857,91.66800539743336L83.54285714285714,99.33930244554361L84.51428571428572,111.24811741943253L85.48571428571428,116.81751610604488L86.45714285714286,82.30212897440629L87.42857142857143,52.29618644588621L88.4,90.09001494660679L89.37142857142857,93.43371103869305L90.34285714285714,56.436803217047384L91.3142857142857,74.74955971260616L92.28571428571429,94.6345581082696L93.25714285714285,63.03896049745943L94.22857142857143,96.4084437903693L95.19999999999999,111.8471338914907L96.17142857142858,108.58439771936038L97.14285714285714,95.3418471170576L98.11428571428571,98.69895299883352L99.08571428571427,95.1305494763147L100.05714285714286,76.78151426520398L101.02857142857144,110.45380202810507L102,120.28708316567383L102.97142857142856,83.98272804041042L103.94285714285714,103.81928609725057L104.91428571428573,114.44710211532892L105.88571428571429,93.4026726535226L106.85714285714286,69.82414911082495L107.82857142857142,105.60320268610143L108.80000000000001,112.15853621116327L109.77142857142857,113.67618553600376L110.74285714285715,97.24849659744959L111.71428571428571,117.47538186213933L112.6857142857143,87.7161363635696L113.65714285714286,102.30479856761549L114.62857142857143,111.91554284571517L115.6,112.90219437544496L116.57142857142857,104.07616222136964L117.54285714285714,99.07224751767673L118.51428571428572,91.65842523782653L119.48571428571428,90.61729436055988L120.45714285714286,95.95840093716569L121.42857142857143,104.46572535726825L122.4,94.13847318484697L123.37142857142857,117.16952269351769L124.34285714285714,95.57333626374367L125.3142857142857,97.23107855572555L126.28571428571429,96.62908270599574L127.25714285714285,110.67765941273252L128.22857142857143,94.00335191069222L129.2,103.12567541154853L130.17142857142858,107.84363262754422L131.14285714285714,91.05588745318079L132.1142857142857,49.219268931554865L133.0857142857143,98.59357476681842L134.05714285714288,66.34342778285705L135.02857142857144,69.51879524737069L136,98.52666397125712L136.97142857142856,70.8071312075594L137.94285714285712,99.58440024282211L138.9142857142857,88.15857110900807L139.88571428571427,102.71806008223913L140.85714285714286,106.4412836270399L141.82857142857145,94.24710020267734L142.8,121.37762433624043L143.77142857142857,98.59723035941391L144.74285714285713,79.86635261851757L145.71428571428572,65.77619236121915L146.68571428571428,90.35209983457439L147.65714285714284,87.53645555938743L148.6285714285714,99.6163461381118L149.60000000000002,104.63738497853576L150.57142857142858,75.38923942162245L151.54285714285714,105.77873502283305L152.5142857142857,101.4861840627155L153.4857142857143,98.17819243100979L154.45714285714286,104.77345872206028L155.42857142857142,108.79863671541058L156.39999999999998,75.3538689644022L157.3714285714286,54.7414288447078L158.34285714285716,84.07020626804615L159.31428571428572,66.0998893157001L160.28571428571428,100.4998744988503L161.25714285714287,99.94560020680852L162.22857142857143,67.18008537718657L163.2,107.93877591750154L164.17142857142855,99.83078194875716L165.14285714285714,93.2230267418005L166.11428571428573,80.58168693381012L167.0857142857143,104.76610497444904L168.05714285714288,94.43177790987113L169.02857142857144,114.89686788060898L170,125.55061704655813L170.97142857142856,95.5786851336324L171.94285714285712,112.21833273444562L172.9142857142857,106.18654014402301L173.88571428571427,91.09257680206134L174.85714285714286,78.11648387582518L175.82857142857145,73.18049799391724L176.8,95.97375647628822L177.77142857142857,99.82328963087559L178.74285714285713,84.48306969374988L179.71428571428572,96.0911120241239L180.68571428571428,81.54869887748873L181.65714285714284,100.76945523776784L182.6285714285714,114.03658132564635L183.60000000000002,89.69061900551215L184.57142857142858,91.33580775360964L185.54285714285714,107.60544620627475L186.5142857142857,116.58403881083694L187.4857142857143,95.75684349796892L188.45714285714286,100.57316490416108L189.42857142857142,103.21949974420187L190.39999999999998,102.97817780211842L191.3714285714286,88.16122584014154L192.34285714285716,124.1753309050647L193.31428571428572,102.15069908845362L194.28571428571428,81.58581468393533L195.25714285714287,116.33456182213394L196.22857142857143,108.5611866148915L197.2,103.98497424210056L198.17142857142855,91.85947188583977L199.14285714285714,111.1091208856805L200.11428571428573,110.67095983435041L201.0857142857143,95.84603441717233L202.05714285714288,93.57009943050507L203.02857142857144,88.22907106865675L204,80.33733115589975L204.97142857142856,118.67952727566862L205.94285714285712,108.60392286409241L206.9142857142857,99.88430014584085L207.88571428571427,91.25033383476952L208.85714285714286,79.40086783665592L209.82857142857145,86.13439579844426L210.8,92.72643813837394L211.77142857142857,106.52186675201649L212.74285714285713,112.4605247904397L213.71428571428572,97.90908251604145L214.68571428571428,39.59931154850534L215.65714285714284,92.79583418338126L216.6285714285714,104.72342645968354L217.60000000000002,112.58934906161082L218.57142857142858,105.09855334878675L219.54285714285714,78.35551707027291L220.5142857142857,82.22963419517137L221.4857142857143,88.3702344179336L222.45714285714286,84.56138718364788L223.42857142857142,81.44383199809475L224.39999999999998,82.86333197719L225.3714285714286,54.75543170345833L226.34285714285716,94.85499587060885L227.31428571428572,100.02099344916904L228.28571428571428,63.32320878516552L229.25714285714287,87.13655329501317L230.22857142857143,94.91322306839885L231.2,88.29225384127423L232.17142857142855,94.43523991907763L233.14285714285714,104.02998803461733L234.11428571428573,105.38569774441667L235.0857142857143,119.96103512631692L236.05714285714288,104.8675126020336L237.02857142857144,89.77708416975848L238,98.19269309494686L238.97142857142856,106.37001442940027L239.94285714285712,118.49622666256755L240.9142857142857,67.50454249009843L241.88571428571427,68.12856329419645L242.85714285714286,75.48609953033198L243.82857142857145,108.12935895752794L244.8,99.05294669124878L245.77142857142857,91.04581317284973L246.74285714285713,95.60689409448267L247.71428571428572,118.34837099768461L248.68571428571428,128.23416477350372L249.65714285714284,131.23990189228556L250.6285714285714,121.90444695701424L251.60000000000002,101.53406021274743L252.57142857142858,89.59217754973335L253.54285714285714,80.48387899095597L254.5142857142857,101.38625417815972L255.4857142857143,81.43436110710766L256.45714285714286,94.27910264925357L257.42857142857144,98.48655628937736L258.4,83.49653334359381L259.37142857142857,105.94608518415447L260.34285714285716,122.31531915634731L261.31428571428575,98.21668962537574L262.2857142857143,111.63857681115962L263.25714285714287,86.09728703826177L264.2285714285714,85.05372845279756L265.2,77.3980462603591L266.1714285714286,103.96792111088628L267.1428571428571,120.79428654982674L268.11428571428576,126.34499592557631L269.0857142857143,116.77778011034229L270.0571428571429,102.60154813779752L271.0285714285714,89.69543497088611L272,99.9602873231574L272.9714285714286,108.31247826698092" fill="none"></path></g></g></g></g><g opacity="0.2"><g><g><g><path style="fill: none;" stroke="rgb(255, 112, 67)" stroke-width="2px" d="M26.22857142857143,-333.58471899032594L27.200000000000003,28.23812003135683L28.171428571428574,39.89076859951021L29.142857142857142,2.8510761976242236L30.114285714285714,43.599013519287126L31.085714285714285,51.77422959804535L32.05714285714286,19.15117628574373L33.028571428571425,72.34394587278366L34,43.430097651481645L34.97142857142857,55.90313560962677L35.94285714285714,48.36910171508791L36.91428571428571,65.72837145328522L37.885714285714286,75.34083653688431L38.857142857142854,61.18663425445557L39.82857142857143,86.09924210309983L40.8,12.188205552101152L41.77142857142857,39.251994800567644L42.74285714285714,18.882519316673296L43.714285714285715,70.29488213062287L44.68571428571428,-30.21122627258302L45.65714285714285,45.8401380300522L46.628571428571426,77.52856279611588L47.599999999999994,-15.64271275997163L48.57142857142857,72.08129925727845L49.54285714285714,105.65936220884323L50.51428571428572,98.29014886617661L51.48571428571428,62.146009755134585L52.45714285714286,72.07171345949173L53.42857142857143,92.99045462608338L54.400000000000006,48.90842087268831L55.371428571428574,66.42546637058258L56.34285714285715,59.02464694976807L57.31428571428572,114.94281215667725L58.285714285714285,36.09781641960146L59.25714285714286,91.58589918613434L60.22857142857143,101.63934810161591L61.2,91.34832842350006L62.17142857142857,81.33259142637253L63.142857142857146,96.4888411283493L64.11428571428571,121.6627083837986L65.08571428571429,59.55264563560486L66.05714285714285,106.78043372631073L67.02857142857144,85.6931692481041L68,89.42960925102234L68.97142857142856,61.863008570671084L69.94285714285714,102.81685752868653L70.91428571428573,112.76250733137131L71.88571428571429,85.45002312660218L72.85714285714286,104.6516174197197L73.82857142857142,51.81830198764801L74.80000000000001,88.69828237295151L75.77142857142857,58.9911947965622L76.74285714285715,108.05608220100403L77.71428571428571,50.69687504768372L78.6857142857143,17.493103814125078L79.65714285714286,94.32797313928604L80.62857142857143,50.68191547393799L81.6,69.66801233291626L82.57142857142857,102.63699783086777L83.54285714285714,102.64267928600312L84.51428571428572,116.37623373866082L85.48571428571428,119.21578363776207L86.45714285714286,67.43927986621857L87.42857142857143,39.37517256736757L88.4,106.36461062431336L89.37142857142857,94.87355728149414L90.34285714285714,40.50537366867067L91.3142857142857,82.63531036376953L92.28571428571429,103.19733996391297L93.25714285714285,49.43341703414919L94.22857142857143,110.77784932851792L95.19999999999999,118.49526796936989L96.17142857142858,107.1794140458107L97.14285714285714,89.63940401077271L98.11428571428571,100.14457370042801L99.08571428571427,93.59394080638886L100.05714285714286,68.88014144897461L101.02857142857144,124.95359976291657L102,124.52144314050675L102.97142857142856,68.34952218532563L103.94285714285714,112.36120880842209L104.91428571428573,119.02360085844994L105.88571428571429,84.3406221985817L106.85714285714286,59.67087931632996L107.82857142857142,121.01020572781563L108.80000000000001,114.98136223554611L109.77142857142857,114.32970834970475L110.74285714285715,90.17448462247849L111.71428571428571,126.18538538813591L112.6857142857143,74.90135396718979L113.65714285714286,108.58689774274826L114.62857142857143,116.05407507419586L115.6,113.3270614862442L116.57142857142857,100.27553893327713L117.54285714285714,96.91748596429825L118.51428571428572,88.46592093706131L119.48571428571428,90.16896761655808L120.45714285714286,98.25836242437363L121.42857142857143,108.12910826206208L122.4,89.69140179157257L123.37142857142857,127.08704186677933L124.34285714285714,86.27369089126587L125.3142857142857,97.94492752552033L126.28571428571429,96.36985416412354L127.25714285714285,116.72718958258629L128.22857142857143,86.82314224243164L129.2,107.05388624668122L130.17142857142858,109.87525655031205L131.14285714285714,83.82682980298996L132.1142857142857,31.203786563873308L133.0857142857143,119.85489959716797L134.05714285714288,52.45602543354035L135.02857142857144,70.88615663051606L136,111.01789213418961L136.97142857142856,58.870680046081546L137.94285714285712,111.97632868289948L138.9142857142857,83.23843581676483L139.88571428571427,108.98759682178498L140.85714285714286,108.04456014633179L141.82857142857145,88.99609990119934L142.8,133.0604394495487L143.77142857142857,88.78764725923538L144.74285714285713,71.80055261850357L145.71428571428572,59.70875568389893L146.68571428571428,100.93485827445984L147.65714285714284,86.32399643659592L148.6285714285714,104.81813020706177L149.60000000000002,106.79952044487L150.57142857142858,62.79454441070557L151.54285714285714,118.86491267085076L152.5142857142857,99.6377465248108L153.4857142857143,96.75372107028961L154.45714285714286,107.61348040103913L155.42857142857142,110.5319393992424L156.39999999999998,60.95204479694367L157.3714285714286,45.86539955139162L158.34285714285716,96.69962258338929L159.31428571428572,58.3615983247757L160.28571428571428,115.3130297780037L161.25714285714287,99.70692129135132L162.22857142857143,53.07075781822205L163.2,125.49008615016938L164.17142857142855,96.33935679197312L165.14285714285714,90.37762714624405L166.11428571428573,75.1381343126297L167.0857142857143,115.18028212785721L168.05714285714288,89.98165996074677L169.02857142857144,123.70944596529007L170,130.13828299641608L170.97142857142856,82.67231674194336L171.94285714285712,119.38361732363701L172.9142857142857,103.58915878534317L173.88571428571427,84.59288729429245L174.85714285714286,72.52878148555756L175.82857142857145,71.05498762130738L176.8,105.78887922763825L177.77142857142857,101.48095698356629L178.74285714285713,77.87733836174012L179.71428571428572,101.08971108198166L180.68571428571428,75.28651524782181L181.65714285714284,109.04620440006256L182.6285714285714,119.7496070086956L183.60000000000002,79.20687843561173L184.57142857142858,92.04425097703934L185.54285714285714,114.61139924526215L186.5142857142857,120.45035694241524L187.4857142857143,86.7883373618126L188.45714285714286,102.6471459388733L189.42857142857142,104.35905165672303L190.39999999999998,102.87426091432572L191.3714285714286,81.78082163333893L192.34285714285716,139.6835506826639L193.31428571428572,92.66655863523484L194.28571428571428,72.73026360273361L195.25714285714287,131.29789928793906L196.22857142857143,105.21385337114334L197.2,102.01438779830933L198.17142857142855,86.63804669380188L199.14285714285714,119.39831165671349L200.11428571428573,110.48228104114533L201.0857142857143,89.46219671964646L202.05714285714288,92.59004731178284L203.02857142857144,85.92914326190949L204,76.93902827501297L204.97142857142856,135.1902583658695L205.94285714285712,104.26521481275559L206.9142857142857,96.12949837446213L207.88571428571427,87.53241701126099L208.85714285714286,74.29830808639527L209.82857142857145,89.03395504951477L210.8,95.56507153511048L211.77142857142857,112.46238751411438L212.74285714285713,115.01780099868775L213.71428571428572,91.64301080703736L214.68571428571428,14.49023993015291L215.65714285714284,115.70306352972985L216.6285714285714,109.8596285700798L217.60000000000002,115.97653461694718L218.57142857142858,101.87290312051773L219.54285714285714,66.83956010341645L220.5142857142857,83.89788777828217L221.4857142857143,91.01446999311447L222.45714285714286,82.92123980522156L223.42857142857142,80.1013654589653L224.39999999999998,83.47459019422531L225.3714285714286,42.6517436027527L226.34285714285716,112.1224762916565L227.31428571428572,102.24555034637451L228.28571428571428,47.520586204528826L229.25714285714287,97.39094055891037L230.22857142857143,98.26197500228882L231.2,85.44116408824921L232.17142857142855,97.0805028796196L233.14285714285714,108.16163207292557L234.11428571428573,105.96948690414429L235.0857142857143,126.23739643096924L236.05714285714288,98.36801291704178L237.02857142857144,83.27891684770584L238,101.81658191680908L238.97142857142856,109.89129300117493L239.94285714285712,123.71795753836632L240.9142857142857,45.54675002098085L241.88571428571427,68.39727611541748L242.85714285714286,78.6543662071228L243.82857142857145,122.18604148626328L244.8,95.1445059299469L245.77142857142857,87.59782005548477L246.74285714285713,97.57096470594406L247.71428571428572,128.1411958158016L248.68571428571428,132.49113748669623L249.65714285714284,132.5342178761959L250.6285714285714,117.8844584941864L251.60000000000002,92.7622627735138L252.57142857142858,84.44982178211212L253.54285714285714,76.561707508564L254.5142857142857,110.38713390827179L255.4857142857143,72.84277338981629L256.45714285714286,99.81024314165116L257.42857142857144,100.29834963083267L258.4,77.04160214662552L259.37142857142857,115.61320264339447L260.34285714285716,129.36415953636168L261.31428571428575,87.83945430517197L262.2857142857143,117.41824496984482L263.25714285714287,75.0988203406334L264.2285714285714,84.60435630083084L265.2,74.1013934135437L266.1714285714286,115.40931214094162L267.1428571428571,128.03997467160224L268.11428571428576,128.73521555662154L269.0857142857143,112.65799189805985L270.0571428571429,96.49704767465592L271.0285714285714,84.13786692619324L272,104.38048840761185L272.9714285714286,111.90905834436417" fill="none"></path></g></g></g></g></g></g><g transform="translate(58, 178)" clip-path="url(#clip_1)"><clipPath id="clip_1"><rect width="272" height="22"></rect></clipPath><g><g><line x1="0" y1="0" x2="0" y2="5" style="visibility: inherit;" fill="rgb(0, 0, 0)" stroke="rgb(204, 204, 204)" stroke-width="1px"></line><line x1="19.428571428571427" y1="0" x2="19.428571428571427" y2="5" style="visibility: inherit;" fill="rgb(0, 0, 0)" stroke="rgb(204, 204, 204)" stroke-width="1px"></line><line x1="38.857142857142854" y1="0" x2="38.857142857142854" y2="5" style="visibility: inherit;" fill="rgb(0, 0, 0)" stroke="rgb(204, 204, 204)" stroke-width="1px"></line><line x1="58.285714285714285" y1="0" x2="58.285714285714285" y2="5" style="visibility: inherit;" fill="rgb(0, 0, 0)" stroke="rgb(204, 204, 204)" stroke-width="1px"></line><line x1="77.71428571428571" y1="0" x2="77.71428571428571" y2="5" style="visibility: inherit;" fill="rgb(0, 0, 0)" stroke="rgb(204, 204, 204)" stroke-width="1px"></line><line x1="97.14285714285714" y1="0" x2="97.14285714285714" y2="5" style="visibility: inherit;" fill="rgb(0, 0, 0)" stroke="rgb(204, 204, 204)" stroke-width="1px"></line><line x1="116.57142857142857" y1="0" x2="116.57142857142857" y2="5" style="visibility: inherit;" fill="rgb(0, 0, 0)" stroke="rgb(204, 204, 204)" stroke-width="1px"></line><line x1="136" y1="0" x2="136" y2="5" style="visibility: inherit;" fill="rgb(0, 0, 0)" stroke="rgb(204, 204, 204)" stroke-width="1px"></line><line x1="155.42857142857142" y1="0" x2="155.42857142857142" y2="5" style="visibility: inherit;" fill="rgb(0, 0, 0)" stroke="rgb(204, 204, 204)" stroke-width="1px"></line><line x1="174.85714285714286" y1="0" x2="174.85714285714286" y2="5" style="visibility: inherit;" fill="rgb(0, 0, 0)" stroke="rgb(204, 204, 204)" stroke-width="1px"></line><line x1="194.28571428571428" y1="0" x2="194.28571428571428" y2="5" style="visibility: inherit;" fill="rgb(0, 0, 0)" stroke="rgb(204, 204, 204)" stroke-width="1px"></line><line x1="213.71428571428572" y1="0" x2="213.71428571428572" y2="5" style="visibility: inherit;" fill="rgb(0, 0, 0)" stroke="rgb(204, 204, 204)" stroke-width="1px"></line><line x1="233.14285714285714" y1="0" x2="233.14285714285714" y2="5" style="visibility: inherit;" fill="rgb(0, 0, 0)" stroke="rgb(204, 204, 204)" stroke-width="1px"></line><line x1="252.57142857142858" y1="0" x2="252.57142857142858" y2="5" style="visibility: inherit;" fill="rgb(0, 0, 0)" stroke="rgb(204, 204, 204)" stroke-width="1px"></line><line x1="272" y1="0" x2="272" y2="5" style="visibility: inherit;" fill="rgb(0, 0, 0)" stroke="rgb(204, 204, 204)" stroke-width="1px"></line></g><g transform="translate(0, 8)"><text x="0" y="0" dx="0em" dy="0.95em" style="text-anchor: middle; visibility: hidden; font-family: &quot;Helvetica Neue&quot;, sans-serif; font-size: 12px; font-weight: 200;" fill="rgb(50, 49, 63)" stroke="none" stroke-width="1px">-20</text><text x="19.428571428571427" y="0" dx="0em" dy="0.95em" style="text-anchor: middle; visibility: inherit; font-family: &quot;Helvetica Neue&quot;, sans-serif; font-size: 12px; font-weight: 200;" fill="rgb(50, 49, 63)" stroke="none" stroke-width="1px">0</text><text x="38.857142857142854" y="0" dx="0em" dy="0.95em" style="text-anchor: middle; visibility: hidden; font-family: &quot;Helvetica Neue&quot;, sans-serif; font-size: 12px; font-weight: 200;" fill="rgb(50, 49, 63)" stroke="none" stroke-width="1px">20</text><text x="58.285714285714285" y="0" dx="0em" dy="0.95em" style="text-anchor: middle; visibility: inherit; font-family: &quot;Helvetica Neue&quot;, sans-serif; font-size: 12px; font-weight: 200;" fill="rgb(50, 49, 63)" stroke="none" stroke-width="1px">40</text><text x="77.71428571428571" y="0" dx="0em" dy="0.95em" style="text-anchor: middle; visibility: hidden; font-family: &quot;Helvetica Neue&quot;, sans-serif; font-size: 12px; font-weight: 200;" fill="rgb(50, 49, 63)" stroke="none" stroke-width="1px">60</text><text x="97.14285714285714" y="0" dx="0em" dy="0.95em" style="text-anchor: middle; visibility: inherit; font-family: &quot;Helvetica Neue&quot;, sans-serif; font-size: 12px; font-weight: 200;" fill="rgb(50, 49, 63)" stroke="none" stroke-width="1px">80</text><text x="116.57142857142857" y="0" dx="0em" dy="0.95em" style="text-anchor: middle; visibility: hidden; font-family: &quot;Helvetica Neue&quot;, sans-serif; font-size: 12px; font-weight: 200;" fill="rgb(50, 49, 63)" stroke="none" stroke-width="1px">100</text><text x="136" y="0" dx="0em" dy="0.95em" style="text-anchor: middle; visibility: inherit; font-family: &quot;Helvetica Neue&quot;, sans-serif; font-size: 12px; font-weight: 200;" fill="rgb(50, 49, 63)" stroke="none" stroke-width="1px">120</text><text x="155.42857142857142" y="0" dx="0em" dy="0.95em" style="text-anchor: middle; visibility: hidden; font-family: &quot;Helvetica Neue&quot;, sans-serif; font-size: 12px; font-weight: 200;" fill="rgb(50, 49, 63)" stroke="none" stroke-width="1px">140</text><text x="174.85714285714286" y="0" dx="0em" dy="0.95em" style="text-anchor: middle; visibility: inherit; font-family: &quot;Helvetica Neue&quot;, sans-serif; font-size: 12px; font-weight: 200;" fill="rgb(50, 49, 63)" stroke="none" stroke-width="1px">160</text><text x="194.28571428571428" y="0" dx="0em" dy="0.95em" style="text-anchor: middle; visibility: hidden; font-family: &quot;Helvetica Neue&quot;, sans-serif; font-size: 12px; font-weight: 200;" fill="rgb(50, 49, 63)" stroke="none" stroke-width="1px">180</text><text x="213.71428571428572" y="0" dx="0em" dy="0.95em" style="text-anchor: middle; visibility: inherit; font-family: &quot;Helvetica Neue&quot;, sans-serif; font-size: 12px; font-weight: 200;" fill="rgb(50, 49, 63)" stroke="none" stroke-width="1px">200</text><text x="233.14285714285714" y="0" dx="0em" dy="0.95em" style="text-anchor: middle; visibility: hidden; font-family: &quot;Helvetica Neue&quot;, sans-serif; font-size: 12px; font-weight: 200;" fill="rgb(50, 49, 63)" stroke="none" stroke-width="1px">220</text><text x="252.57142857142858" y="0" dx="0em" dy="0.95em" style="text-anchor: middle; visibility: inherit; font-family: &quot;Helvetica Neue&quot;, sans-serif; font-size: 12px; font-weight: 200;" fill="rgb(50, 49, 63)" stroke="none" stroke-width="1px">240</text><text x="272" y="0" dx="0em" dy="0.95em" style="text-anchor: middle; visibility: hidden; font-family: &quot;Helvetica Neue&quot;, sans-serif; font-size: 12px; font-weight: 200;" fill="rgb(50, 49, 63)" stroke="none" stroke-width="1px">260</text></g><line x1="0" y1="0" x2="272" y2="0" fill="rgb(0, 0, 0)" stroke="rgb(204, 204, 204)" stroke-width="1px"></line></g></g></g></g></svg>