<svg viewBox="0 0 330 200" xmlns="http://www.w3.org/2000/svg"><g><g><g><g><g><line x1="58" y1="178" x2="53" y2="178" style="visibility: inherit;" fill="rgb(0, 0, 0)" stroke="rgb(204, 204, 204)" stroke-width="1px"></line><line x1="58" y1="161.8181818181818" x2="53" y2="161.8181818181818" style="visibility: inherit;" fill="rgb(0, 0, 0)" stroke="rgb(204, 204, 204)" stroke-width="1px"></line><line x1="58" y1="145.6363636363636" x2="53" y2="145.6363636363636" style="visibility: inherit;" fill="rgb(0, 0, 0)" stroke="rgb(204, 204, 204)" stroke-width="1px"></line><line x1="58" y1="129.4545454545454" x2="53" y2="129.4545454545454" style="visibility: inherit;" fill="rgb(0, 0, 0)" stroke="rgb(204, 204, 204)" stroke-width="1px"></line><line x1="58" y1="113.27272727272721" x2="53" y2="113.27272727272721" style="visibility: inherit;" fill="rgb(0, 0, 0)" stroke="rgb(204, 204, 204)" stroke-width="1px"></line><line x1="58" y1="97.09090909090901" x2="53" y2="97.09090909090901" style="visibility: inherit;" fill="rgb(0, 0, 0)" stroke="rgb(204, 204, 204)" stroke-width="1px"></line><line x1="58" y1="80.90909090909082" x2="53" y2="80.90909090909082" style="visibility: inherit;" fill="rgb(0, 0, 0)" stroke="rgb(204, 204, 204)" stroke-width="1px"></line><line x1="58" y1="64.7272727272726" x2="53" y2="64.7272727272726" style="visibility: inherit;" fill="rgb(0, 0, 0)" stroke="rgb(204, 204, 204)" stroke-width="1px"></line><line x1="58" y1="48.54545454545442" x2="53" y2="48.54545454545442" style="visibility: inherit;" fill="rgb(0, 0, 0)" stroke="rgb(204, 204, 204)" stroke-width="1px"></line><line x1="58" y1="32.3636363636362" x2="53" y2="32.3636363636362" style="visibility: inherit;" fill="rgb(0, 0, 0)" stroke="rgb(204, 204, 204)" stroke-width="1px"></line><line x1="58" y1="16.181818181818215" x2="53" y2="16.181818181818215" style="visibility: inherit;" fill="rgb(0, 0, 0)" stroke="rgb(204, 204, 204)" stroke-width="1px"></line><line x1="58" y1="0" x2="53" y2="0" style="visibility: inherit;" fill="rgb(0, 0, 0)" stroke="rgb(204, 204, 204)" stroke-width="1px"></line></g><g transform="translate(48, 0)"><text x="0" y="178" dx="0em" dy="0.3em" style="text-anchor: end; visibility: hidden; font-family: &quot;Helvetica Neue&quot;, sans-serif; font-size: 12px; font-weight: 200;" fill="rgb(50, 49, 63)" stroke="none" stroke-width="1px">0.59</text><text x="0" y="161.8181818181818" dx="0em" dy="0.3em" style="text-anchor: end; visibility: inherit; font-family: &quot;Helvetica Neue&quot;, sans-serif; font-size: 12px; font-weight: 200;" fill="rgb(50, 49, 63)" stroke="none" stroke-width="1px">0.6</text><text x="0" y="145.6363636363636" dx="0em" dy="0.3em" style="text-anchor: end; visibility: hidden; font-family: &quot;Helvetica Neue&quot;, sans-serif; font-size: 12px; font-weight: 200;" fill="rgb(50, 49, 63)" stroke="none" stroke-width="1px">0.61</text><text x="0" y="129.4545454545454" dx="0em" dy="0.3em" style="text-anchor: end; visibility: inherit; font-family: &quot;Helvetica Neue&quot;, sans-serif; font-size: 12px; font-weight: 200;" fill="rgb(50, 49, 63)" stroke="none" stroke-width="1px">0.62</text><text x="0" y="113.27272727272721" dx="0em" dy="0.3em" style="text-anchor: end; visibility: hidden; font-family: &quot;Helvetica Neue&quot;, sans-serif; font-size: 12px; font-weight: 200;" fill="rgb(50, 49, 63)" stroke="none" stroke-width="1px">0.63</text><text x="0" y="97.09090909090901" dx="0em" dy="0.3em" style="text-anchor: end; visibility: inherit; font-family: &quot;Helvetica Neue&quot;, sans-serif; font-size: 12px; font-weight: 200;" fill="rgb(50, 49, 63)" stroke="none" stroke-width="1px">0.64</text><text x="0" y="80.90909090909082" dx="0em" dy="0.3em" style="text-anchor: end; visibility: hidden; font-family: &quot;Helvetica Neue&quot;, sans-serif; font-size: 12px; font-weight: 200;" fill="rgb(50, 49, 63)" stroke="none" stroke-width="1px">0.65</text><text x="0" y="64.7272727272726" dx="0em" dy="0.3em" style="text-anchor: end; visibility: inherit; font-family: &quot;Helvetica Neue&quot;, sans-serif; font-size: 12px; font-weight: 200;" fill="rgb(50, 49, 63)" stroke="none" stroke-width="1px">0.66</text><text x="0" y="48.54545454545442" dx="0em" dy="0.3em" style="text-anchor: end; visibility: hidden; font-family: &quot;Helvetica Neue&quot;, sans-serif; font-size: 12px; font-weight: 200;" fill="rgb(50, 49, 63)" stroke="none" stroke-width="1px">0.67</text><text x="0" y="32.3636363636362" dx="0em" dy="0.3em" style="text-anchor: end; visibility: inherit; font-family: &quot;Helvetica Neue&quot;, sans-serif; font-size: 12px; font-weight: 200;" fill="rgb(50, 49, 63)" stroke="none" stroke-width="1px">0.68</text><text x="0" y="16.181818181818215" dx="0em" dy="0.3em" style="text-anchor: end; visibility: hidden; font-family: &quot;Helvetica Neue&quot;, sans-serif; font-size: 12px; font-weight: 200;" fill="rgb(50, 49, 63)" stroke="none" stroke-width="1px">0.69</text><text x="0" y="0" dx="0em" dy="0.3em" style="text-anchor: end; visibility: hidden; font-family: &quot;Helvetica Neue&quot;, sans-serif; font-size: 12px; font-weight: 200;" fill="rgb(50, 49, 63)" stroke="none" stroke-width="1px">0.7</text></g><line x1="58" y1="0" x2="58" y2="178" fill="rgb(0, 0, 0)" stroke="rgb(204, 204, 204)" stroke-width="1px"></line></g></g><g transform="translate(58, 0)" clip-path="url(#clip_0)"><clipPath id="clip_0"><rect width="272" height="178"></rect></clipPath><g><g><g><line x1="0" y1="0" x2="0" y2="178" fill="rgb(0, 0, 0)" stroke="rgb(60, 60, 60)" stroke-width="1px" opacity="0.25"></line><line x1="34" y1="0" x2="34" y2="178" fill="rgb(0, 0, 0)" stroke="rgb(60, 60, 60)" stroke-width="1px" opacity="0.25"></line><line x1="68" y1="0" x2="68" y2="178" fill="rgb(0, 0, 0)" stroke="rgb(60, 60, 60)" stroke-width="1px" opacity="0.25"></line><line x1="102" y1="0" x2="102" y2="178" fill="rgb(0, 0, 0)" stroke="rgb(60, 60, 60)" stroke-width="1px" opacity="0.25"></line><line x1="136" y1="0" x2="136" y2="178" fill="rgb(0, 0, 0)" stroke="rgb(60, 60, 60)" stroke-width="1px" opacity="0.25"></line><line x1="170" y1="0" x2="170" y2="178" fill="rgb(0, 0, 0)" stroke="rgb(60, 60, 60)" stroke-width="1px" opacity="0.25"></line><line x1="204" y1="0" x2="204" y2="178" fill="rgb(0, 0, 0)" stroke="rgb(60, 60, 60)" stroke-width="1px" opacity="0.25"></line><line x1="238" y1="0" x2="238" y2="178" fill="rgb(0, 0, 0)" stroke="rgb(60, 60, 60)" stroke-width="1px" opacity="0.25"></line><line x1="272" y1="0" x2="272" y2="178" fill="rgb(0, 0, 0)" stroke="rgb(60, 60, 60)" stroke-width="1px" opacity="0.25"></line></g><g><line x1="0" y1="178" x2="272" y2="178" fill="rgb(0, 0, 0)" stroke="rgb(60, 60, 60)" stroke-width="1px" opacity="0.25"></line><line x1="0" y1="161.8181818181818" x2="272" y2="161.8181818181818" fill="rgb(0, 0, 0)" stroke="rgb(60, 60, 60)" stroke-width="1px" opacity="0.25"></line><line x1="0" y1="145.6363636363636" x2="272" y2="145.6363636363636" fill="rgb(0, 0, 0)" stroke="rgb(60, 60, 60)" stroke-width="1px" opacity="0.25"></line><line x1="0" y1="129.4545454545454" x2="272" y2="129.4545454545454" fill="rgb(0, 0, 0)" stroke="rgb(60, 60, 60)" stroke-width="1px" opacity="0.25"></line><line x1="0" y1="113.27272727272721" x2="272" y2="113.27272727272721" fill="rgb(0, 0, 0)" stroke="rgb(60, 60, 60)" stroke-width="1px" opacity="0.25"></line><line x1="0" y1="97.09090909090901" x2="272" y2="97.09090909090901" fill="rgb(0, 0, 0)" stroke="rgb(60, 60, 60)" stroke-width="1px" opacity="0.25"></line><line x1="0" y1="80.90909090909082" x2="272" y2="80.90909090909082" fill="rgb(0, 0, 0)" stroke="rgb(60, 60, 60)" stroke-width="1px" opacity="0.25"></line><line x1="0" y1="64.7272727272726" x2="272" y2="64.7272727272726" fill="rgb(0, 0, 0)" stroke="rgb(60, 60, 60)" stroke-width="1px" opacity="0.25"></line><line x1="0" y1="48.54545454545442" x2="272" y2="48.54545454545442" fill="rgb(0, 0, 0)" stroke="rgb(60, 60, 60)" stroke-width="1px" opacity="0.25"></line><line x1="0" y1="32.3636363636362" x2="272" y2="32.3636363636362" fill="rgb(0, 0, 0)" stroke="rgb(60, 60, 60)" stroke-width="1px" opacity="0.25"></line><line x1="0" y1="16.181818181818215" x2="272" y2="16.181818181818215" fill="rgb(0, 0, 0)" stroke="rgb(60, 60, 60)" stroke-width="1px" opacity="0.25"></line><line x1="0" y1="0" x2="272" y2="0" fill="rgb(0, 0, 0)" stroke="rgb(60, 60, 60)" stroke-width="1px" opacity="0.25"></line></g></g></g><g><g><line x1="0" y1="1132.727272727273" x2="272" y2="1132.727272727273" fill="rgb(0, 0, 0)" stroke="rgb(153, 153, 153)" stroke-width="1.5px"></line></g></g><g><g><line x1="34" y1="0" x2="34" y2="178" fill="rgb(0, 0, 0)" stroke="rgb(153, 153, 153)" stroke-width="1.5px"></line></g></g><g><g><g><g><g><path stroke="rgb(255, 112, 67)" stroke-width="2px" d="M36.04,230.92899514261993L36.72,150.97669275407802L37.400000000000006,153.32637330326202L38.080000000000005,162.1995580963333L38.76,163.53067496884273L39.44,131.20469793678967L40.12,137.73015740323717L40.8,134.32703235764802L41.48,132.2983748162535L42.16,189.06888116309432L42.84,183.2234409519287L43.52,161.62665574245747L44.2,174.00366004508248L44.88,156.10666239881326L45.56,170.68831274361406L46.24,143.27154875203595L46.919999999999995,130.4395623197712L47.599999999999994,115.50850617357413L48.28,128.2469601913819L48.96,164.81863577529484L49.64,121.67195478085779L50.32,121.09661600693093L51,149.67989798528322L51.68,181.29404046387154L52.36,146.0217028622063L53.04,117.62621865124206L53.72,125.90128041769661L54.400000000000006,120.01818194815948L55.080000000000005,98.40805122694451L55.76,89.05804436345241L56.44,79.8319711020188L57.12,77.91239697763427L57.8,76.76065253820255L58.48,86.91773717891662L59.16,71.31568682194464L59.84,72.80262647010916L60.52,91.77502178892523L61.2,66.99795733802489L61.88,66.59591932700326L62.56,73.58679683743672L63.24,63.317122710647084L63.919999999999995,64.38741855108422L64.6,50.56539542700442L65.28,53.12035131442303L65.96,47.42122453314158L66.64,44.001748464509205L67.32,63.64636376375114L68,57.35286286935025L68.68,71.65703240646073L69.36,62.15926405499927L70.04,78.15690398425794L70.72,76.90735676197467L71.4,83.38972874196999L72.08,58.35075067651363L72.76,50.559464150607454L73.44,42.268622788153806L74.12,40.91018741759325L74.80000000000001,47.32722650861743L75.48,51.177449963231695L76.16000000000001,31.79128309591971L76.83999999999999,41.85588391561282L77.52,47.894644407428785L78.19999999999999,44.285800389158254L78.88,31.272362798386382L79.56,48.77663205045303L80.24,44.81499297497285L80.92,56.902210156404735L81.6,60.538471018353235L82.28,66.336296982433L82.96,48.118691620800774L83.64,33.572097537371974L84.32,28.46017195376419L85,39.85721723031955L85.68,43.07937494934225L86.36,34.16453840094644L87.04,57.74403772534893L87.72,46.579366932999875L88.4,50.72873421786093L89.08,45.98625427541768L89.76,39.52469686304096L90.44,42.87986272897513L91.12,41.27693138208602L91.80000000000001,40.31517257395254L92.48,43.354148155521926L93.16000000000001,30.71337145820462L93.83999999999999,44.82516779943347L94.52,56.908315051081246L95.19999999999999,60.54213395515919L95.88,37.410093491076395L96.56,45.227170152706776L97.24,28.22111520960499L97.92,21.633551690654514L98.6,39.37727593890335L99.28,57.25561080121251L99.96,31.822148732258967L100.64,38.25833385050592L101.32,34.88794460809399L102,58.1780814496375L102.68,68.53609410765308L103.36,60.28670107574226L104.04,37.25683376342636L104.72,48.75124518256632L105.4,48.41579172069032L106.08,19.28615697058555L106.76,23.504638480141693L107.44,26.035727385875475L108.12,34.78648104267572L108.80000000000001,40.03693323675583L109.48,25.106973060034505L110.16000000000001,30.613197580721618L110.83999999999999,44.765063472943524L111.52,46.02408269491656L112.19999999999999,64.85976430173115L112.88,50.848802878829176L113.56,67.75459641207857L114.24,56.20177159194817L114.92,56.50217701323001L115.6,38.60218877282961L116.28,45.94242732175874L116.96,46.73050100420565L117.64,58.05151497394445L118.32,43.147822415707736L119,37.821637747215135L119.68,41.858027259479485L120.36,37.04776065347812L121.04,63.09000194331739L121.72,49.78694546378091L122.4,41.80511157605903L123.08,62.32838163041667L123.76,67.41024334967108L124.44,55.99515975450353L125.12,67.2263410905727L125.80000000000001,45.03668721923506L126.48,38.954956629331434L127.16000000000001,46.15408803565995L127.83999999999999,32.39333538628742L128.51999999999998,34.98501497647334L129.2,40.156053597034486L129.88,50.4907770827312L130.56,45.843479994339674L131.24,75.59953386119443L131.92,39.21243312133757L132.6,39.076473617503524L133.28,28.146766735393555L133.96,50.517305279106694L134.64,49.475427778614545L135.32,48.85030127831914L136,48.475225378142085L136.67999999999998,37.402048658226306L137.36,59.68654387971688L138.04,65.82514069925134L138.72,62.276198477611814L139.39999999999998,45.68263251790802L140.08,39.34252380853525L140.76,57.234759522991766L141.44,49.889869458496065L142.12,49.09896628624813L142.8,52.240493829809836L143.48,57.74144122239642L144.16,46.577809031228355L144.84,50.72779947679807L145.52,49.60172429722937L146.2,38.07794800967861L146.88,45.627882863868194L147.56,42.92574346302192L148.24,41.30445982251422L148.92,51.17982081801895L149.60000000000002,64.33713772868185L150.28,43.3031652021007L150.96,52.37904404577101L151.64,36.12830899235405L152.32000000000002,51.6901997668336L153,71.87546541133078L153.67999999999998,51.44219267813948L154.36,46.41432935158468L155.04,50.629711669011826L155.72,71.23917255263771L156.39999999999998,54.67644782937313L157.08,62.81908306904501L157.76,31.544162646047937L158.44,48.93971195904996L159.12,41.296771473220446L159.8,25.862876001913236L160.48,41.914870525658586L161.16,55.162136686816325L161.84,55.87839607015093L162.52,38.22792020698208L163.2,49.33389704869967L163.88,59.61355260064083L164.56,51.3171453050855L165.24,42.72323148084175L165.92,66.49528443973571L166.60000000000002,62.678284721902486L167.28,67.62018520456255L167.96,63.35322518079856L168.64,42.71281767337055L169.32000000000002,26.712503722003333L170,20.728384798093572L170.67999999999998,27.986044623557092L171.36,35.95667138528475L172.04,11.810684769342174L172.72,22.635424606306287L173.39999999999998,29.130268508484676L174.08,22.179043669982235L174.76,32.47247081313989L175.44,38.64852709903431L176.12,56.81836149729118L176.8,38.791899463266276L177.48,31.592053109300736L178.16,38.12027647673105L178.84,56.50141112390918L179.52,56.681960732406566L180.2,60.40632136395452L180.88,51.792806563073654L181.56,68.32099862262532L182.24,71.00581354499629L182.92,43.688301244978675L183.60000000000002,38.145925044777584L184.28,45.66866908492764L184.96,57.41441582237768L185.64,49.99766323812767L186.32000000000002,49.16364255402709L187,41.4311298302068L187.67999999999998,51.255822822634585L188.36,46.30250743828174L189.04,46.94654907411956L189.72,29.252742562452624L190.39999999999998,33.10065928217247L191.08,31.793339867093948L191.76,41.85711797831732L192.44,37.04721508478076L193.12,45.00944310892942L193.8,49.78677992341866L194.48,23.724780758672182L195.16,33.39991306635372L195.84,35.588961584513214L196.52,36.902390695408826L197.2,26.842316982136822L197.88,42.50253511379262L198.56,41.05053481297662L199.24,43.79536549893638L199.92,56.29043367078299L200.60000000000002,42.091173633810826L201.28,51.65184910479701L201.96,57.3882543873888L202.64,57.21406669049429L203.32000000000002,57.1095540723576L204,53.430777054564956L204.67999999999998,54.83958029080003L205.36,52.06879278563041L206.04,57.638420595888746L206.72,60.980197282043804L207.39999999999998,41.28900093411761L208.08,47.55451461853167L208.76,33.233591336010335L209.44,42.72126885966719L210.12,30.33364388069188L210.8,22.90106889330673L211.48,43.75385570740508L212.16,45.41735803559371L212.84,50.03152887941724L213.52,38.33583075899142L214.2,45.782612513456L214.88,57.48278187949471L215.56,50.03868287239783L216.24,45.57222346813967L216.92,60.972579318754285L217.60000000000002,55.74859220240312L218.28,48.99816906614288L218.96,52.18001549774671L219.64,57.705154223158544L220.32000000000002,61.02023745840563L221,55.77718708619386L221.67999999999998,59.86345717622683L222.36,44.234987737077034L223.04,45.70603725339686L223.72,39.35656664982869L224.39999999999998,31.93085342123817L225.08,38.32355666389353L225.76,38.54314774303717L226.44,31.44280207716338L227.12,45.26282617080855L227.8,35.47460913382611L228.48,44.065879538356626L229.16,31.140410287905496L229.84,41.465360230804265L230.52,36.81216043627302L231.2,52.10051063318501L231.88,28.72908863144241L232.56,36.402497790015985L233.24,37.390512418710614L233.92,41.59935206237685L234.60000000000002,33.27652466876708L235.28,21.050727919241297L235.96,31.795481362695256L236.64,34.62630256231816L237.32000000000002,21.860594655371784L238,35.897470851284" style="fill: none;" fill="none"></path></g></g></g></g><g opacity="0.2"><g><g><g><path stroke="rgb(255, 112, 67)" stroke-width="2px" d="M35.36,255.8354473114013L36.04,174.4743670116771L36.72,56.95278514515263L37.400000000000006,156.39411622827697L38.080000000000005,174.4743670116771L38.76,165.4341933944008L39.44,84.07311309467656L40.12,147.3539426110007L40.8,129.27378827875305L41.48,129.27378827875305L42.16,273.9156980948014L42.84,174.4743670116771L43.52,129.27378827875305L44.2,192.55461779507718L44.88,129.27378827875305L45.56,192.55461779507718L46.24,102.15336387807666L46.919999999999995,111.19353749535294L47.599999999999994,93.11328671195284L48.28,147.3539426110007L48.96,219.67494574460113L49.64,56.95278514515263L50.32,120.23361466147676L51,192.55461779507718L51.68,228.71511936187738L52.36,93.11328671195284L53.04,75.03303592855275L53.72,138.31386544487688L54.400000000000006,111.19353749535294L55.080000000000005,65.99286231127645L55.76,75.03303592855275L56.44,65.99286231127645L57.12,75.03303592855275L57.8,75.03303592855275L58.48,102.15336387807666L59.16,47.91261152787635L59.84,75.03303592855275L60.52,120.23361466147676L61.2,29.83236074447626L61.88,65.99286231127645L62.56,84.07311309467656L63.24,47.91261152787635L63.919999999999995,65.99286231127645L64.6,29.83236074447626L65.28,56.95278514515263L65.96,38.87253436175254L66.64,38.87253436175254L67.32,93.11328671195284L68,47.91261152787635L68.68,93.11328671195284L69.36,47.91261152787635L70.04,102.15336387807666L70.72,75.03303592855275L71.4,93.11328671195284L72.08,20.792283578352425L72.76,38.87253436175254L73.44,29.83236074447626L74.12,38.87253436175254L74.80000000000001,56.95278514515263L75.48,56.95278514515263L76.16000000000001,2.7120327949523073L76.83999999999999,56.95278514515263L77.52,56.95278514515263L78.19999999999999,38.87253436175254L78.88,11.752206412228617L79.56,75.03303592855275L80.24,38.87253436175254L80.92,75.03303592855275L81.6,65.99286231127645L82.28,75.03303592855275L82.96,20.792283578352425L83.64,11.752206412228617L84.32,20.792283578352425L85,56.95278514515263L85.68,47.91261152787635L86.36,20.792283578352425L87.04,93.11328671195284L87.72,29.83236074447626L88.4,56.95278514515263L89.08,38.87253436175254L89.76,29.83236074447626L90.44,47.91261152787635L91.12,38.87253436175254L91.80000000000001,38.87253436175254L92.48,47.91261152787635L93.16000000000001,11.752206412228617L93.83999999999999,65.99286231127645L94.52,75.03303592855275L95.19999999999999,65.99286231127645L95.88,2.7120327949523073L96.56,56.95278514515263L97.24,2.7120327949523073L97.92,11.752206412228617L98.6,65.99286231127645L99.28,84.07311309467656L99.96,-6.328044371171501L100.64,47.91261152787635L101.32,29.83236074447626L102,93.11328671195284L102.68,84.07311309467656L103.36,47.91261152787635L104.04,2.7120327949523073L104.72,65.99286231127645L105.4,47.91261152787635L106.08,-24.40829515457162L106.76,29.83236074447626L107.44,29.83236074447626L108.12,47.91261152787635L108.80000000000001,47.91261152787635L109.48,2.7120327949523073L110.16000000000001,38.87253436175254L110.83999999999999,65.99286231127645L111.52,47.91261152787635L112.19999999999999,93.11328671195284L112.88,29.83236074447626L113.56,93.11328671195284L114.24,38.87253436175254L114.92,56.95278514515263L115.6,11.752206412228617L116.28,56.95278514515263L116.96,47.91261152787635L117.64,75.03303592855275L118.32,20.792283578352425L119,29.83236074447626L119.68,47.91261152787635L120.36,29.83236074447626L121.04,102.15336387807666L121.72,29.83236074447626L122.4,29.83236074447626L123.08,93.11328671195284L123.76,75.03303592855275L124.44,38.87253436175254L125.12,84.07311309467656L125.80000000000001,11.752206412228617L126.48,29.83236074447626L127.16000000000001,56.95278514515263L127.83999999999999,11.752206412228617L128.51999999999998,38.87253436175254L129.2,47.91261152787635L129.88,65.99286231127645L130.56,38.87253436175254L131.24,120.23361466147676L131.92,-15.368217988447782L132.6,38.87253436175254L133.28,11.752206412228617L133.96,84.07311309467656L134.64,47.91261152787635L135.32,47.91261152787635L136,47.91261152787635L136.67999999999998,20.792283578352425L137.36,93.11328671195284L138.04,75.03303592855275L138.72,56.95278514515263L139.39999999999998,20.792283578352425L140.08,29.83236074447626L140.76,84.07311309467656L141.44,38.87253436175254L142.12,47.91261152787635L142.8,56.95278514515263L143.48,65.99286231127645L144.16,29.83236074447626L144.84,56.95278514515263L145.52,47.91261152787635L146.2,20.792283578352425L146.88,56.95278514515263L147.56,38.87253436175254L148.24,38.87253436175254L148.92,65.99286231127645L149.60000000000002,84.07311309467656L150.28,11.752206412228617L150.96,65.99286231127645L151.64,11.752206412228617L152.32000000000002,75.03303592855275L153,102.15336387807666L153.67999999999998,20.792283578352425L154.36,38.87253436175254L155.04,56.95278514515263L155.72,102.15336387807666L156.39999999999998,29.83236074447626L157.08,75.03303592855275L157.76,-15.368217988447782L158.44,75.03303592855275L159.12,29.83236074447626L159.8,2.7120327949523073L160.48,65.99286231127645L161.16,75.03303592855275L161.84,56.95278514515263L162.52,11.752206412228617L163.2,65.99286231127645L163.88,75.03303592855275L164.56,38.87253436175254L165.24,29.83236074447626L165.92,102.15336387807666L166.60000000000002,56.95278514515263L167.28,75.03303592855275L167.96,56.95278514515263L168.64,11.752206412228617L169.32000000000002,2.7120327949523073L170,11.752206412228617L170.67999999999998,38.87253436175254L171.36,47.91261152787635L172.04,-24.40829515457162L172.72,38.87253436175254L173.39999999999998,38.87253436175254L174.08,11.752206412228617L174.76,47.91261152787635L175.44,47.91261152787635L176.12,84.07311309467656L176.8,11.752206412228617L177.48,20.792283578352425L178.16,47.91261152787635L178.84,84.07311309467656L179.52,56.95278514515263L180.2,65.99286231127645L180.88,38.87253436175254L181.56,93.11328671195284L182.24,75.03303592855275L182.92,2.7120327949523073L183.60000000000002,29.83236074447626L184.28,56.95278514515263L184.96,75.03303592855275L185.64,38.87253436175254L186.32000000000002,47.91261152787635L187,29.83236074447626L187.67999999999998,65.99286231127645L188.36,38.87253436175254L189.04,47.91261152787635L189.72,2.7120327949523073L190.39999999999998,38.87253436175254L191.08,29.83236074447626L191.76,56.95278514515263L192.44,29.83236074447626L193.12,56.95278514515263L193.8,56.95278514515263L194.48,-15.368217988447782L195.16,47.91261152787635L195.84,38.87253436175254L196.52,38.87253436175254L197.2,11.752206412228617L197.88,65.99286231127645L198.56,38.87253436175254L199.24,47.91261152787635L199.92,75.03303592855275L200.60000000000002,20.792283578352425L201.28,65.99286231127645L201.96,65.99286231127645L202.64,56.95278514515263L203.32000000000002,56.95278514515263L204,47.91261152787635L204.67999999999998,56.95278514515263L205.36,47.91261152787635L206.04,65.99286231127645L206.72,65.99286231127645L207.39999999999998,11.752206412228617L208.08,56.95278514515263L208.76,11.752206412228617L209.44,56.95278514515263L210.12,11.752206412228617L210.8,11.752206412228617L211.48,75.03303592855275L212.16,47.91261152787635L212.84,56.95278514515263L213.52,20.792283578352425L214.2,56.95278514515263L214.88,75.03303592855275L215.56,38.87253436175254L216.24,38.87253436175254L216.92,84.07311309467656L217.60000000000002,47.91261152787635L218.28,38.87253436175254L218.96,56.95278514515263L219.64,65.99286231127645L220.32000000000002,65.99286231127645L221,47.91261152787635L221.67999999999998,65.99286231127645L222.36,20.792283578352425L223.04,47.91261152787635L223.72,29.83236074447626L224.39999999999998,20.792283578352425L225.08,47.91261152787635L225.76,38.87253436175254L226.44,20.792283578352425L227.12,65.99286231127645L227.8,20.792283578352425L228.48,56.95278514515263L229.16,11.752206412228617L229.84,56.95278514515263L230.52,29.83236074447626L231.2,75.03303592855275L231.88,-6.328044371171501L232.56,47.91261152787635L233.24,38.87253436175254L233.92,47.91261152787635L234.60000000000002,20.792283578352425L235.28,2.7120327949523073L235.96,47.91261152787635L236.64,38.87253436175254L237.32000000000002,2.7120327949523073L238,56.95278514515263" style="fill: none;" fill="none"></path></g></g></g></g></g></g><g transform="translate(58, 178)" clip-path="url(#clip_1)"><clipPath id="clip_1"><rect width="272" height="22"></rect></clipPath><g><g><line x1="0" y1="0" x2="0" y2="5" style="visibility: inherit;" fill="rgb(0, 0, 0)" stroke="rgb(204, 204, 204)" stroke-width="1px"></line><line x1="34" y1="0" x2="34" y2="5" style="visibility: inherit;" fill="rgb(0, 0, 0)" stroke="rgb(204, 204, 204)" stroke-width="1px"></line><line x1="68" y1="0" x2="68" y2="5" style="visibility: inherit;" fill="rgb(0, 0, 0)" stroke="rgb(204, 204, 204)" stroke-width="1px"></line><line x1="102" y1="0" x2="102" y2="5" style="visibility: inherit;" fill="rgb(0, 0, 0)" stroke="rgb(204, 204, 204)" stroke-width="1px"></line><line x1="136" y1="0" x2="136" y2="5" style="visibility: inherit;" fill="rgb(0, 0, 0)" stroke="rgb(204, 204, 204)" stroke-width="1px"></line><line x1="170" y1="0" x2="170" y2="5" style="visibility: inherit;" fill="rgb(0, 0, 0)" stroke="rgb(204, 204, 204)" stroke-width="1px"></line><line x1="204" y1="0" x2="204" y2="5" style="visibility: inherit;" fill="rgb(0, 0, 0)" stroke="rgb(204, 204, 204)" stroke-width="1px"></line><line x1="238" y1="0" x2="238" y2="5" style="visibility: inherit;" fill="rgb(0, 0, 0)" stroke="rgb(204, 204, 204)" stroke-width="1px"></line><line x1="272" y1="0" x2="272" y2="5" style="visibility: inherit;" fill="rgb(0, 0, 0)" stroke="rgb(204, 204, 204)" stroke-width="1px"></line></g><g transform="translate(0, 8)"><text x="0" y="0" dx="0em" dy="0.95em" style="text-anchor: middle; visibility: hidden; font-family: &quot;Helvetica Neue&quot;, sans-serif; font-size: 12px; font-weight: 200;" fill="rgb(50, 49, 63)" stroke="none" stroke-width="1px">-50</text><text x="34" y="0" dx="0em" dy="0.95em" style="text-anchor: middle; visibility: inherit; font-family: &quot;Helvetica Neue&quot;, sans-serif; font-size: 12px; font-weight: 200;" fill="rgb(50, 49, 63)" stroke="none" stroke-width="1px">0</text><text x="68" y="0" dx="0em" dy="0.95em" style="text-anchor: middle; visibility: inherit; font-family: &quot;Helvetica Neue&quot;, sans-serif; font-size: 12px; font-weight: 200;" fill="rgb(50, 49, 63)" stroke="none" stroke-width="1px">50</text><text x="102" y="0" dx="0em" dy="0.95em" style="text-anchor: middle; visibility: inherit; font-family: &quot;Helvetica Neue&quot;, sans-serif; font-size: 12px; font-weight: 200;" fill="rgb(50, 49, 63)" stroke="none" stroke-width="1px">100</text><text x="136" y="0" dx="0em" dy="0.95em" style="text-anchor: middle; visibility: inherit; font-family: &quot;Helvetica Neue&quot;, sans-serif; font-size: 12px; font-weight: 200;" fill="rgb(50, 49, 63)" stroke="none" stroke-width="1px">150</text><text x="170" y="0" dx="0em" dy="0.95em" style="text-anchor: middle; visibility: inherit; font-family: &quot;Helvetica Neue&quot;, sans-serif; font-size: 12px; font-weight: 200;" fill="rgb(50, 49, 63)" stroke="none" stroke-width="1px">200</text><text x="204" y="0" dx="0em" dy="0.95em" style="text-anchor: middle; visibility: inherit; font-family: &quot;Helvetica Neue&quot;, sans-serif; font-size: 12px; font-weight: 200;" fill="rgb(50, 49, 63)" stroke="none" stroke-width="1px">250</text><text x="238" y="0" dx="0em" dy="0.95em" style="text-anchor: middle; visibility: inherit; font-family: &quot;Helvetica Neue&quot;, sans-serif; font-size: 12px; font-weight: 200;" fill="rgb(50, 49, 63)" stroke="none" stroke-width="1px">300</text><text x="272" y="0" dx="0em" dy="0.95em" style="text-anchor: middle; visibility: hidden; font-family: &quot;Helvetica Neue&quot;, sans-serif; font-size: 12px; font-weight: 200;" fill="rgb(50, 49, 63)" stroke="none" stroke-width="1px">350</text></g><line x1="0" y1="0" x2="272" y2="0" fill="rgb(0, 0, 0)" stroke="rgb(204, 204, 204)" stroke-width="1px"></line></g></g></g></g></svg>