<svg viewBox="0 0 330 200" xmlns="http://www.w3.org/2000/svg"><g><g><g><g><g><line x1="58" y1="178" x2="53" y2="178" style="visibility: inherit;" fill="rgb(0, 0, 0)" stroke="rgb(204, 204, 204)" stroke-width="1px"></line><line x1="58" y1="152.57142857142856" x2="53" y2="152.57142857142856" style="visibility: inherit;" fill="rgb(0, 0, 0)" stroke="rgb(204, 204, 204)" stroke-width="1px"></line><line x1="58" y1="127.14285714285715" x2="53" y2="127.14285714285715" style="visibility: inherit;" fill="rgb(0, 0, 0)" stroke="rgb(204, 204, 204)" stroke-width="1px"></line><line x1="58" y1="101.7142857142857" x2="53" y2="101.7142857142857" style="visibility: inherit;" fill="rgb(0, 0, 0)" stroke="rgb(204, 204, 204)" stroke-width="1px"></line><line x1="58" y1="76.28571428571425" x2="53" y2="76.28571428571425" style="visibility: inherit;" fill="rgb(0, 0, 0)" stroke="rgb(204, 204, 204)" stroke-width="1px"></line><line x1="58" y1="50.85714285714286" x2="53" y2="50.85714285714286" style="visibility: inherit;" fill="rgb(0, 0, 0)" stroke="rgb(204, 204, 204)" stroke-width="1px"></line><line x1="58" y1="25.428571428571388" x2="53" y2="25.428571428571388" style="visibility: inherit;" fill="rgb(0, 0, 0)" stroke="rgb(204, 204, 204)" stroke-width="1px"></line><line x1="58" y1="0" x2="53" y2="0" style="visibility: inherit;" fill="rgb(0, 0, 0)" stroke="rgb(204, 204, 204)" stroke-width="1px"></line></g><g transform="translate(48, 0)"><text x="0" y="178" dx="0em" dy="0.3em" style="text-anchor: end; visibility: hidden; font-family: &quot;Helvetica Neue&quot;, sans-serif; font-size: 12px; font-weight: 200;" fill="rgb(50, 49, 63)" stroke="none" stroke-width="1px">0.6</text><text x="0" y="152.57142857142856" dx="0em" dy="0.3em" style="text-anchor: end; visibility: inherit; font-family: &quot;Helvetica Neue&quot;, sans-serif; font-size: 12px; font-weight: 200;" fill="rgb(50, 49, 63)" stroke="none" stroke-width="1px">0.65</text><text x="0" y="127.14285714285715" dx="0em" dy="0.3em" style="text-anchor: end; visibility: inherit; font-family: &quot;Helvetica Neue&quot;, sans-serif; font-size: 12px; font-weight: 200;" fill="rgb(50, 49, 63)" stroke="none" stroke-width="1px">0.7</text><text x="0" y="101.7142857142857" dx="0em" dy="0.3em" style="text-anchor: end; visibility: inherit; font-family: &quot;Helvetica Neue&quot;, sans-serif; font-size: 12px; font-weight: 200;" fill="rgb(50, 49, 63)" stroke="none" stroke-width="1px">0.75</text><text x="0" y="76.28571428571425" dx="0em" dy="0.3em" style="text-anchor: end; visibility: inherit; font-family: &quot;Helvetica Neue&quot;, sans-serif; font-size: 12px; font-weight: 200;" fill="rgb(50, 49, 63)" stroke="none" stroke-width="1px">0.8</text><text x="0" y="50.85714285714286" dx="0em" dy="0.3em" style="text-anchor: end; visibility: inherit; font-family: &quot;Helvetica Neue&quot;, sans-serif; font-size: 12px; font-weight: 200;" fill="rgb(50, 49, 63)" stroke="none" stroke-width="1px">0.85</text><text x="0" y="25.428571428571388" dx="0em" dy="0.3em" style="text-anchor: end; visibility: inherit; font-family: &quot;Helvetica Neue&quot;, sans-serif; font-size: 12px; font-weight: 200;" fill="rgb(50, 49, 63)" stroke="none" stroke-width="1px">0.9</text><text x="0" y="0" dx="0em" dy="0.3em" style="text-anchor: end; visibility: hidden; font-family: &quot;Helvetica Neue&quot;, sans-serif; font-size: 12px; font-weight: 200;" fill="rgb(50, 49, 63)" stroke="none" stroke-width="1px">0.95</text></g><line x1="58" y1="0" x2="58" y2="178" fill="rgb(0, 0, 0)" stroke="rgb(204, 204, 204)" stroke-width="1px"></line></g></g><g transform="translate(58, 0)" clip-path="url(#clip_0)"><clipPath id="clip_0"><rect width="272" height="178"></rect></clipPath><g><g><g><line x1="0" y1="0" x2="0" y2="178" fill="rgb(0, 0, 0)" stroke="rgb(60, 60, 60)" stroke-width="1px" opacity="0.25"></line><line x1="34" y1="0" x2="34" y2="178" fill="rgb(0, 0, 0)" stroke="rgb(60, 60, 60)" stroke-width="1px" opacity="0.25"></line><line x1="68" y1="0" x2="68" y2="178" fill="rgb(0, 0, 0)" stroke="rgb(60, 60, 60)" stroke-width="1px" opacity="0.25"></line><line x1="102" y1="0" x2="102" y2="178" fill="rgb(0, 0, 0)" stroke="rgb(60, 60, 60)" stroke-width="1px" opacity="0.25"></line><line x1="136" y1="0" x2="136" y2="178" fill="rgb(0, 0, 0)" stroke="rgb(60, 60, 60)" stroke-width="1px" opacity="0.25"></line><line x1="170" y1="0" x2="170" y2="178" fill="rgb(0, 0, 0)" stroke="rgb(60, 60, 60)" stroke-width="1px" opacity="0.25"></line><line x1="204" y1="0" x2="204" y2="178" fill="rgb(0, 0, 0)" stroke="rgb(60, 60, 60)" stroke-width="1px" opacity="0.25"></line><line x1="238" y1="0" x2="238" y2="178" fill="rgb(0, 0, 0)" stroke="rgb(60, 60, 60)" stroke-width="1px" opacity="0.25"></line><line x1="272" y1="0" x2="272" y2="178" fill="rgb(0, 0, 0)" stroke="rgb(60, 60, 60)" stroke-width="1px" opacity="0.25"></line></g><g><line x1="0" y1="178" x2="272" y2="178" fill="rgb(0, 0, 0)" stroke="rgb(60, 60, 60)" stroke-width="1px" opacity="0.25"></line><line x1="0" y1="152.57142857142856" x2="272" y2="152.57142857142856" fill="rgb(0, 0, 0)" stroke="rgb(60, 60, 60)" stroke-width="1px" opacity="0.25"></line><line x1="0" y1="127.14285714285715" x2="272" y2="127.14285714285715" fill="rgb(0, 0, 0)" stroke="rgb(60, 60, 60)" stroke-width="1px" opacity="0.25"></line><line x1="0" y1="101.7142857142857" x2="272" y2="101.7142857142857" fill="rgb(0, 0, 0)" stroke="rgb(60, 60, 60)" stroke-width="1px" opacity="0.25"></line><line x1="0" y1="76.28571428571425" x2="272" y2="76.28571428571425" fill="rgb(0, 0, 0)" stroke="rgb(60, 60, 60)" stroke-width="1px" opacity="0.25"></line><line x1="0" y1="50.85714285714286" x2="272" y2="50.85714285714286" fill="rgb(0, 0, 0)" stroke="rgb(60, 60, 60)" stroke-width="1px" opacity="0.25"></line><line x1="0" y1="25.428571428571388" x2="272" y2="25.428571428571388" fill="rgb(0, 0, 0)" stroke="rgb(60, 60, 60)" stroke-width="1px" opacity="0.25"></line><line x1="0" y1="0" x2="272" y2="0" fill="rgb(0, 0, 0)" stroke="rgb(60, 60, 60)" stroke-width="1px" opacity="0.25"></line></g></g></g><g><g><line x1="0" y1="483.14285714285717" x2="272" y2="483.14285714285717" fill="rgb(0, 0, 0)" stroke="rgb(153, 153, 153)" stroke-width="1.5px"></line></g></g><g><g><line x1="34" y1="0" x2="34" y2="178" fill="rgb(0, 0, 0)" stroke="rgb(153, 153, 153)" stroke-width="1.5px"></line></g></g><g><g><g><g><g><path stroke="rgb(255, 112, 67)" stroke-width="2px" d="M37.400000000000006,187.85912431823812L38.080000000000005,167.72750659881095L38.76,166.09056318908398L39.44,158.76955599339755L40.12,173.98800747284596L40.8,172.01665574326898L41.48,154.60325060080362L42.16,162.29386785234513L42.84,155.53737989463184L43.52,154.3859926417397L44.2,158.88478977765234L44.88,169.05253223113385L45.56,168.30456218363761L46.24,134.80839336463475L46.919999999999995,140.78499746502206L47.599999999999994,128.33801898635318L48.28,116.52307434739512L48.96,114.92655837598781L49.64,102.64764576252591L50.32,102.51737831795518L51,107.44092954109253L51.68,112.80762773575452L52.36,116.69943347904842L53.04,106.70366271312417L53.72,87.61217693610327L54.400000000000006,96.26262328628972L55.080000000000005,99.86120896794057L55.76,94.72121883820907L56.44,79.30897939766146L57.12,74.55674708517958L57.8,65.94281666989798L58.48,57.381679138634155L59.16,68.75349106406951L59.84,63.52866216511657L60.52,66.33287582165906L61.2,59.20318533762928L61.88,66.19273675620673L62.56,72.4188910329796L63.24,63.39420925740083L63.919999999999995,61.299200933542394L64.6,68.72392083596887L65.28,53.56085829029281L65.96,40.61602249800231L66.64,55.14197612827731L67.32,52.88852947332016L68,53.61033725672027L68.68,52.25136770275243L69.36,53.345277960164026L70.04,57.11884551389191L70.72,55.370148729598085L71.4,51.32418998068724L72.08,59.59657380107424L72.76,61.37862617557283L73.44,60.460718371502026L74.12,55.10112624650162L74.80000000000001,47.89377574107448L75.48,54.85102059075071L76.16000000000001,61.063735334860596L76.83999999999999,63.648224668410336L77.52,54.767869571233135L78.19999999999999,61.02914451074133L78.88,61.97457559079436L79.56,60.70863332823416L80.24,50.22649868707518L80.92,54.16217404150457L81.6,47.50317162379568L82.28,44.73302661802876L82.96,51.8768896607813L83.64,53.1894950947041L84.32,48.757796476709075L85,56.869694808636936L85.68,58.58500292285662L86.36,60.957812690234306L87.04,55.3079174830943L87.72,66.23154692058246L88.4,60.82027410664365L89.08,55.25070143232054L89.76,59.570743270171306L90.44,64.68638156136187L91.12,51.881241952056314L91.80000000000001,46.55430387458517L92.48,59.27154277279803L93.16000000000001,56.26567078930307L93.83999999999999,61.65222981745839L94.52,65.55227996503329L95.19999999999999,55.55995657462827L95.88,56.3808925227267L96.56,60.04090276378025L97.24,68.20046879734784L97.92,56.66160312887112L98.6,46.883692532277905L99.28,42.81608172409514L99.96,47.76095740118035L100.64,56.455009753217L101.32,48.45699127986808L102,43.470574003092594L102.68,57.98871114625713L103.36,52.413511946017394L104.04,55.07197155722456L104.72,54.51864916362452L105.4,52.62922545602461L106.08,41.88772253372909L106.76,50.693243161712616L107.44,62.65260081102541L108.12,60.99069181985027L108.80000000000001,45.36609254108052L109.48,42.18476012775699L110.16000000000001,37.54282495716973L110.83999999999999,42.24878169949474L111.52,49.18420218280886L112.19999999999999,63.68408135566372L112.88,56.442045247912915L113.56,58.407100705595454L114.24,42.63205934276826L114.92,39.38814302247678L115.6,41.35717471988008L116.28,43.83555120078228L116.96,43.20729652205523L117.64,46.26444346234942L118.32,45.87697499764954L119,55.671273073348175L119.68,58.086459480976515L120.36,45.817173479971416L121.04,44.03165139019782L121.72,56.56287774743066L122.4,38.54636170552698L123.08,45.984753873455986L123.76,52.39760819903907L124.44,50.087613119974705L125.12,50.78591446186631L125.80000000000001,52.73564941195545L126.48,46.90973737790321L127.16000000000001,37.84915619844821L127.83999999999999,44.03545708772893L128.51999999999998,48.26821755245203L129.2,55.00678838428372L129.88,52.832291371818826L130.56,70.17944663971889L131.24,55.82561631943524L131.92,51.513664498059526L132.6,49.7198925403672L133.28,47.314441814104924L133.96,46.31377431197984L134.64,44.238237336313375L135.32,38.397071475929266L136,45.92264913794335L136.67999999999998,37.43852749062492L137.36,45.523894840056755L138.04,45.56890677077581L138.72,40.60987155252789L139.39999999999998,48.50241556167063L140.08,36.85246873103321L140.76,43.62083510128423L141.44,48.09573480609106L142.12,48.29803378850829L142.8,43.40444768668698L143.48,44.687216754973974L144.16,51.8578327577505L144.84,39.90756387646471L145.52,44.891754681783766L146.2,46.9651780567965L146.88,51.146223067446385L147.56,52.8855377918768L148.24,58.5868351957467L148.92,49.34383066396043L149.60000000000002,43.83949918687506L150.28,49.845940657559055L150.96,54.00386190122589L151.64,47.43731377343974L152.32000000000002,38.06862797899146L153,45.786016643217266L153.67999999999998,50.655691919397455L154.36,57.6592193127953L155.04,57.254185821804185L155.72,53.76720870582734L156.39999999999998,50.657366930798574L157.08,49.36367275238666L157.76,50.4847552689496L158.44,49.29186630105747L159.12,45.477123603769655L159.8,42.23094904983566L160.48,42.539782027261424L161.16,49.30525831915983L161.84,40.50495220479331L162.52,38.50326645307919L163.2,47.62606784029998L163.88,51.421153217383846L164.56,43.04440607431684L165.24,56.15218369602414L165.92,54.96801741336509L166.60000000000002,57.79390512642357L167.28,55.65097352841127L167.96,63.05575734878971L168.64,52.862161574408674L169.32000000000002,56.91786909741769L170,45.33103988041097L170.67999999999998,43.82941981278071L171.36,46.523246751291225L172.04,59.25862300950776L172.72,56.26029616777424L173.39999999999998,46.71674883646162L174.08,56.020618990294025L174.76,54.913286495781335L175.44,54.45263617806407L176.12,47.62400387260442L176.8,44.78329283353321L177.48,51.897800406431145L178.16,51.53895237303213L178.84,61.34515654815198L179.52,62.10603659835718L180.2,52.46707774222878L180.88,50.11651244994157L181.56,45.82017640170545L182.24,45.692159900421586L182.92,60.572150174328385L183.60000000000002,56.80672346833967L184.28,50.26256348014145L184.96,54.17717699542017L185.64,55.80565621777612L186.32000000000002,44.868359322480046L187,58.57018983912228L187.67999999999998,50.99616549038703L188.36,41.20836958802383L189.04,48.751390744436975L189.72,51.88928754550487L190.39999999999998,44.898409249597535L191.08,41.99020387850007L191.76,44.09889133076817L192.44,39.998345129484704L193.12,36.633276317888516L193.8,43.52965105741606L194.48,44.739301357197235L195.16,45.24251588190617L195.84,47.11109471604743L196.52,59.503167762846374L197.2,64.65827015031468L197.88,50.210306013198405L198.56,49.17769541066497L199.24,66.99987542509646L199.92,61.13989876452145L200.60000000000002,58.70214847372226L201.28,62.6658045341768L201.96,39.425937656951135L202.64,48.00989906111076L203.32000000000002,56.55856948374803L204,51.8185730144136L204.67999999999998,43.20973270988125L205.36,51.24319939499193L206.04,54.58512153599797L206.72,39.38287441635339L207.39999999999998,34.71798120644351L208.08,36.09588651776568L208.76,44.96535619534731L209.44,50.314297173083574L210.12,45.90245484653252L210.8,45.72638773346969L211.48,47.312385406297835L212.16,66.22390646327975L212.84,67.45409744969498L213.52,61.32885512675445L214.2,55.46227113668664L214.88,53.021772196818404L215.56,47.028764456406236L216.24,46.19493253117719L216.92,45.84805845028191L217.60000000000002,49.022259719274075L218.28,48.68346815239249L218.96,48.542530860569684L219.64,43.506158468664495L220.32000000000002,54.68501339729042L221,47.720672795802614L221.67999999999998,49.80126728701072L222.36,42.37053352728165L223.04,35.96084739658974L223.72,48.22766310466267L224.39999999999998,56.649159325865625L225.08,53.51551768351689L225.76,47.23416257887277L226.44,39.64337637683391L227.12,46.4411119767197L227.8,45.950469099627526L228.48,49.064862549401795L229.16,50.36045022450794L229.84,45.92165451592507L230.52,47.393616387799256L231.2,46.34671093463666L231.88,49.229699152765676L232.56,43.792020478218035L233.24,44.84844703625086L233.92,50.26566296289941L234.60000000000002,60.81546815353673L235.28,60.22644463433498L235.96,64.95915332885394L236.64,42.039212347399115L237.32000000000002,39.14151867240321L238,52.86932324204572" style="fill: none;" fill="none"></path></g></g></g></g><g opacity="0.2"><g><g><g><path stroke="rgb(255, 112, 67)" stroke-width="2px" d="M37.400000000000006,179.1364607810974L38.080000000000005,153.56583554404122L38.76,164.9305646078927L39.44,153.56583554404122L40.12,184.81882531302315L40.8,170.61292913981845L41.48,142.2011064801897L42.16,167.77176203046525L42.84,150.724668434688L43.52,153.56583554404122L44.2,162.0893974985395L44.88,176.2952936717442L45.56,167.77176203046525L46.24,110.94811671120779L46.919999999999995,145.04230390276226L47.599999999999994,119.47167866570608L48.28,108.10694960185458L48.96,113.78931413378032L49.64,93.90102311543053L50.32,102.42458506992884L51,110.94811671120779L51.68,116.63048124313352L52.36,119.47167866570608L53.04,99.58338764735629L53.72,74.0127624103001L54.400000000000006,102.42458506992884L55.080000000000005,102.42458506992884L55.76,91.05985600607734L56.44,68.33039787837437L57.12,71.1715953009469L57.8,59.806866237095406L58.48,51.283334595816456L59.16,76.85395983287266L59.84,59.806866237095406L60.52,68.33039787837437L61.2,54.12450170516966L61.88,71.1715953009469L62.56,76.85395983287266L63.24,56.96566881452287L63.919999999999995,59.806866237095406L64.6,74.0127624103001L65.28,42.759772641318165L65.96,31.39504357746668L66.64,65.48923076902116L67.32,51.283334595816456L68,54.12450170516966L68.68,51.283334595816456L69.36,54.12450170516966L70.04,59.806866237095406L70.72,54.12450170516966L71.4,48.44213717324391L72.08,65.48923076902116L72.76,62.648033346448614L73.44,59.806866237095406L74.12,51.283334595816456L74.80000000000001,42.759772641318165L75.48,59.806866237095406L76.16000000000001,65.48923076902116L76.83999999999999,65.48923076902116L77.52,48.44213717324391L78.19999999999999,65.48923076902116L78.88,62.648033346448614L79.56,59.806866237095406L80.24,42.759772641318165L80.92,56.96566881452287L81.6,42.759772641318165L82.28,42.759772641318165L82.96,56.96566881452287L83.64,54.12450170516966L84.32,45.60097006389071L85,62.648033346448614L85.68,59.806866237095406L86.36,62.648033346448614L87.04,51.283334595816456L87.72,74.0127624103001L88.4,56.96566881452287L89.08,51.283334595816456L89.76,62.648033346448614L90.44,68.33039787837437L91.12,42.759772641318165L91.80000000000001,42.759772641318165L92.48,68.33039787837437L93.16000000000001,54.12450170516966L93.83999999999999,65.48923076902116L94.52,68.33039787837437L95.19999999999999,48.44213717324391L95.88,56.96566881452287L96.56,62.648033346448614L97.24,74.0127624103001L97.92,48.44213717324391L98.6,39.91860553196497L99.28,39.91860553196497L99.96,51.283334595816456L100.64,62.648033346448614L101.32,42.759772641318165L102,39.91860553196497L102.68,68.33039787837437L103.36,48.44213717324391L104.04,56.96566881452287L104.72,54.12450170516966L105.4,51.283334595816456L106.08,34.23624100003923L106.76,56.96566881452287L107.44,71.1715953009469L108.12,59.806866237095406L108.80000000000001,34.23624100003923L109.48,39.91860553196497L110.16000000000001,34.23624100003923L110.83999999999999,45.60097006389071L111.52,54.12450170516966L112.19999999999999,74.0127624103001L112.88,51.283334595816456L113.56,59.806866237095406L114.24,31.39504357746668L114.92,37.07740810939242L115.6,42.759772641318165L116.28,45.60097006389071L116.96,42.759772641318165L117.64,48.44213717324391L118.32,45.60097006389071L119,62.648033346448614L119.68,59.806866237095406L120.36,37.07740810939242L121.04,42.759772641318165L121.72,65.48923076902116L122.4,25.712679045540938L123.08,51.283334595816456L123.76,56.96566881452287L124.44,48.44213717324391L125.12,51.283334595816456L125.80000000000001,54.12450170516966L126.48,42.759772641318165L127.16000000000001,31.39504357746668L127.83999999999999,48.44213717324391L128.51999999999998,51.283334595816456L129.2,59.806866237095406L129.88,51.283334595816456L130.56,82.53632436479839L131.24,45.60097006389071L131.92,48.44213717324391L132.6,48.44213717324391L133.28,45.60097006389071L133.96,45.60097006389071L134.64,42.759772641318165L135.32,34.23624100003923L136,51.283334595816456L136.67999999999998,31.39504357746668L137.36,51.283334595816456L138.04,45.60097006389071L138.72,37.07740810939242L139.39999999999998,54.12450170516966L140.08,28.553876468113486L140.76,48.44213717324391L141.44,51.283334595816456L142.12,48.44213717324391L142.8,39.91860553196497L143.48,45.60097006389071L144.16,56.96566881452287L144.84,31.39504357746668L145.52,48.44213717324391L146.2,48.44213717324391L146.88,54.12450170516966L147.56,54.12450170516966L148.24,62.648033346448614L148.92,42.759772641318165L149.60000000000002,39.91860553196497L150.28,54.12450170516966L150.96,56.96566881452287L151.64,42.759772641318165L152.32000000000002,31.39504357746668L153,51.283334595816456L153.67999999999998,54.12450170516966L154.36,62.648033346448614L155.04,56.96566881452287L155.72,51.283334595816456L156.39999999999998,48.44213717324391L157.08,48.44213717324391L157.76,51.283334595816456L158.44,48.44213717324391L159.12,42.759772641318165L159.8,39.91860553196497L160.48,42.759772641318165L161.16,54.12450170516966L161.84,34.23624100003923L162.52,37.07740810939242L163.2,54.12450170516966L163.88,54.12450170516966L164.56,37.07740810939242L165.24,65.48923076902116L165.92,54.12450170516966L166.60000000000002,59.806866237095406L167.28,54.12450170516966L167.96,68.33039787837437L168.64,45.60097006389071L169.32000000000002,59.806866237095406L170,37.07740810939242L170.67999999999998,42.759772641318165L171.36,48.44213717324391L172.04,68.33039787837437L172.72,54.12450170516966L173.39999999999998,39.91860553196497L174.08,62.648033346448614L174.76,54.12450170516966L175.44,54.12450170516966L176.12,42.759772641318165L176.8,42.759772641318165L177.48,56.96566881452287L178.16,51.283334595816456L178.84,68.33039787837437L179.52,62.648033346448614L180.2,45.60097006389071L180.88,48.44213717324391L181.56,42.759772641318165L182.24,45.60097006389071L182.92,71.1715953009469L183.60000000000002,54.12450170516966L184.28,45.60097006389071L184.96,56.96566881452287L185.64,56.96566881452287L186.32000000000002,37.07740810939242L187,68.33039787837437L187.67999999999998,45.60097006389071L188.36,34.23624100003923L189.04,54.12450170516966L189.72,54.12450170516966L190.39999999999998,39.91860553196497L191.08,39.91860553196497L191.76,45.60097006389071L192.44,37.07740810939242L193.12,34.23624100003923L193.8,48.44213717324391L194.48,45.60097006389071L195.16,45.60097006389071L195.84,48.44213717324391L196.52,68.33039787837437L197.2,68.33039787837437L197.88,39.91860553196497L198.56,48.44213717324391L199.24,79.69512694222584L199.92,56.96566881452287L200.60000000000002,56.96566881452287L201.28,65.48923076902116L201.96,22.871511936187716L202.64,54.12450170516966L203.32000000000002,62.648033346448614L204,48.44213717324391L204.67999999999998,37.07740810939242L205.36,56.96566881452287L206.04,56.96566881452287L206.72,28.553876468113486L207.39999999999998,31.39504357746668L208.08,37.07740810939242L208.76,51.283334595816456L209.44,54.12450170516966L210.12,42.759772641318165L210.8,45.60097006389071L211.48,48.44213717324391L212.16,79.69512694222584L212.84,68.33039787837437L213.52,56.96566881452287L214.2,51.283334595816456L214.88,51.283334595816456L215.56,42.759772641318165L216.24,45.60097006389071L216.92,45.60097006389071L217.60000000000002,51.283334595816456L218.28,48.44213717324391L218.96,48.44213717324391L219.64,39.91860553196497L220.32000000000002,62.648033346448614L221,42.759772641318165L221.67999999999998,51.283334595816456L222.36,37.07740810939242L223.04,31.39504357746668L223.72,56.96566881452287L224.39999999999998,62.648033346448614L225.08,51.283334595816456L225.76,42.759772641318165L226.44,34.23624100003923L227.12,51.283334595816456L227.8,45.60097006389071L228.48,51.283334595816456L229.16,51.283334595816456L229.84,42.759772641318165L230.52,48.44213717324391L231.2,45.60097006389071L231.88,51.283334595816456L232.56,39.91860553196497L233.24,45.60097006389071L233.92,54.12450170516966L234.60000000000002,68.33039787837437L235.28,59.806866237095406L235.96,68.33039787837437L236.64,25.712679045540938L237.32000000000002,37.07740810939242L238,62.648033346448614" style="fill: none;" fill="none"></path></g></g></g></g></g></g><g transform="translate(58, 178)" clip-path="url(#clip_1)"><clipPath id="clip_1"><rect width="272" height="22"></rect></clipPath><g><g><line x1="0" y1="0" x2="0" y2="5" style="visibility: inherit;" fill="rgb(0, 0, 0)" stroke="rgb(204, 204, 204)" stroke-width="1px"></line><line x1="34" y1="0" x2="34" y2="5" style="visibility: inherit;" fill="rgb(0, 0, 0)" stroke="rgb(204, 204, 204)" stroke-width="1px"></line><line x1="68" y1="0" x2="68" y2="5" style="visibility: inherit;" fill="rgb(0, 0, 0)" stroke="rgb(204, 204, 204)" stroke-width="1px"></line><line x1="102" y1="0" x2="102" y2="5" style="visibility: inherit;" fill="rgb(0, 0, 0)" stroke="rgb(204, 204, 204)" stroke-width="1px"></line><line x1="136" y1="0" x2="136" y2="5" style="visibility: inherit;" fill="rgb(0, 0, 0)" stroke="rgb(204, 204, 204)" stroke-width="1px"></line><line x1="170" y1="0" x2="170" y2="5" style="visibility: inherit;" fill="rgb(0, 0, 0)" stroke="rgb(204, 204, 204)" stroke-width="1px"></line><line x1="204" y1="0" x2="204" y2="5" style="visibility: inherit;" fill="rgb(0, 0, 0)" stroke="rgb(204, 204, 204)" stroke-width="1px"></line><line x1="238" y1="0" x2="238" y2="5" style="visibility: inherit;" fill="rgb(0, 0, 0)" stroke="rgb(204, 204, 204)" stroke-width="1px"></line><line x1="272" y1="0" x2="272" y2="5" style="visibility: inherit;" fill="rgb(0, 0, 0)" stroke="rgb(204, 204, 204)" stroke-width="1px"></line></g><g transform="translate(0, 8)"><text x="0" y="0" dx="0em" dy="0.95em" style="text-anchor: middle; visibility: hidden; font-family: &quot;Helvetica Neue&quot;, sans-serif; font-size: 12px; font-weight: 200;" fill="rgb(50, 49, 63)" stroke="none" stroke-width="1px">-50</text><text x="34" y="0" dx="0em" dy="0.95em" style="text-anchor: middle; visibility: inherit; font-family: &quot;Helvetica Neue&quot;, sans-serif; font-size: 12px; font-weight: 200;" fill="rgb(50, 49, 63)" stroke="none" stroke-width="1px">0</text><text x="68" y="0" dx="0em" dy="0.95em" style="text-anchor: middle; visibility: inherit; font-family: &quot;Helvetica Neue&quot;, sans-serif; font-size: 12px; font-weight: 200;" fill="rgb(50, 49, 63)" stroke="none" stroke-width="1px">50</text><text x="102" y="0" dx="0em" dy="0.95em" style="text-anchor: middle; visibility: inherit; font-family: &quot;Helvetica Neue&quot;, sans-serif; font-size: 12px; font-weight: 200;" fill="rgb(50, 49, 63)" stroke="none" stroke-width="1px">100</text><text x="136" y="0" dx="0em" dy="0.95em" style="text-anchor: middle; visibility: inherit; font-family: &quot;Helvetica Neue&quot;, sans-serif; font-size: 12px; font-weight: 200;" fill="rgb(50, 49, 63)" stroke="none" stroke-width="1px">150</text><text x="170" y="0" dx="0em" dy="0.95em" style="text-anchor: middle; visibility: inherit; font-family: &quot;Helvetica Neue&quot;, sans-serif; font-size: 12px; font-weight: 200;" fill="rgb(50, 49, 63)" stroke="none" stroke-width="1px">200</text><text x="204" y="0" dx="0em" dy="0.95em" style="text-anchor: middle; visibility: inherit; font-family: &quot;Helvetica Neue&quot;, sans-serif; font-size: 12px; font-weight: 200;" fill="rgb(50, 49, 63)" stroke="none" stroke-width="1px">250</text><text x="238" y="0" dx="0em" dy="0.95em" style="text-anchor: middle; visibility: inherit; font-family: &quot;Helvetica Neue&quot;, sans-serif; font-size: 12px; font-weight: 200;" fill="rgb(50, 49, 63)" stroke="none" stroke-width="1px">300</text><text x="272" y="0" dx="0em" dy="0.95em" style="text-anchor: middle; visibility: hidden; font-family: &quot;Helvetica Neue&quot;, sans-serif; font-size: 12px; font-weight: 200;" fill="rgb(50, 49, 63)" stroke="none" stroke-width="1px">350</text></g><line x1="0" y1="0" x2="272" y2="0" fill="rgb(0, 0, 0)" stroke="rgb(204, 204, 204)" stroke-width="1px"></line></g></g></g></g></svg>