<svg viewBox="0 0 330 200" xmlns="http://www.w3.org/2000/svg"><g><g><g><g><g><line x1="58" y1="178" x2="53" y2="178" style="visibility: inherit;" fill="rgb(0, 0, 0)" stroke="rgb(204, 204, 204)" stroke-width="1px"></line><line x1="58" y1="158.22222222222223" x2="53" y2="158.22222222222223" style="visibility: inherit;" fill="rgb(0, 0, 0)" stroke="rgb(204, 204, 204)" stroke-width="1px"></line><line x1="58" y1="138.44444444444446" x2="53" y2="138.44444444444446" style="visibility: inherit;" fill="rgb(0, 0, 0)" stroke="rgb(204, 204, 204)" stroke-width="1px"></line><line x1="58" y1="118.66666666666666" x2="53" y2="118.66666666666666" style="visibility: inherit;" fill="rgb(0, 0, 0)" stroke="rgb(204, 204, 204)" stroke-width="1px"></line><line x1="58" y1="98.88888888888889" x2="53" y2="98.88888888888889" style="visibility: inherit;" fill="rgb(0, 0, 0)" stroke="rgb(204, 204, 204)" stroke-width="1px"></line><line x1="58" y1="79.1111111111111" x2="53" y2="79.1111111111111" style="visibility: inherit;" fill="rgb(0, 0, 0)" stroke="rgb(204, 204, 204)" stroke-width="1px"></line><line x1="58" y1="59.33333333333334" x2="53" y2="59.33333333333334" style="visibility: inherit;" fill="rgb(0, 0, 0)" stroke="rgb(204, 204, 204)" stroke-width="1px"></line><line x1="58" y1="39.55555555555557" x2="53" y2="39.55555555555557" style="visibility: inherit;" fill="rgb(0, 0, 0)" stroke="rgb(204, 204, 204)" stroke-width="1px"></line><line x1="58" y1="19.7777777777778" x2="53" y2="19.7777777777778" style="visibility: inherit;" fill="rgb(0, 0, 0)" stroke="rgb(204, 204, 204)" stroke-width="1px"></line><line x1="58" y1="0" x2="53" y2="0" style="visibility: inherit;" fill="rgb(0, 0, 0)" stroke="rgb(204, 204, 204)" stroke-width="1px"></line></g><g transform="translate(48, 0)"><text x="0" y="178" dx="0em" dy="0.3em" style="text-anchor: end; visibility: hidden; font-family: &quot;Helvetica Neue&quot;, sans-serif; font-size: 12px; font-weight: 200;" fill="rgb(50, 49, 63)" stroke="none" stroke-width="1px">-0.1</text><text x="0" y="158.22222222222223" dx="0em" dy="0.3em" style="text-anchor: end; visibility: inherit; font-family: &quot;Helvetica Neue&quot;, sans-serif; font-size: 12px; font-weight: 200;" fill="rgb(50, 49, 63)" stroke="none" stroke-width="1px">0</text><text x="0" y="138.44444444444446" dx="0em" dy="0.3em" style="text-anchor: end; visibility: hidden; font-family: &quot;Helvetica Neue&quot;, sans-serif; font-size: 12px; font-weight: 200;" fill="rgb(50, 49, 63)" stroke="none" stroke-width="1px">0.1</text><text x="0" y="118.66666666666666" dx="0em" dy="0.3em" style="text-anchor: end; visibility: inherit; font-family: &quot;Helvetica Neue&quot;, sans-serif; font-size: 12px; font-weight: 200;" fill="rgb(50, 49, 63)" stroke="none" stroke-width="1px">0.2</text><text x="0" y="98.88888888888889" dx="0em" dy="0.3em" style="text-anchor: end; visibility: hidden; font-family: &quot;Helvetica Neue&quot;, sans-serif; font-size: 12px; font-weight: 200;" fill="rgb(50, 49, 63)" stroke="none" stroke-width="1px">0.3</text><text x="0" y="79.1111111111111" dx="0em" dy="0.3em" style="text-anchor: end; visibility: inherit; font-family: &quot;Helvetica Neue&quot;, sans-serif; font-size: 12px; font-weight: 200;" fill="rgb(50, 49, 63)" stroke="none" stroke-width="1px">0.4</text><text x="0" y="59.33333333333334" dx="0em" dy="0.3em" style="text-anchor: end; visibility: hidden; font-family: &quot;Helvetica Neue&quot;, sans-serif; font-size: 12px; font-weight: 200;" fill="rgb(50, 49, 63)" stroke="none" stroke-width="1px">0.5</text><text x="0" y="39.55555555555557" dx="0em" dy="0.3em" style="text-anchor: end; visibility: inherit; font-family: &quot;Helvetica Neue&quot;, sans-serif; font-size: 12px; font-weight: 200;" fill="rgb(50, 49, 63)" stroke="none" stroke-width="1px">0.6</text><text x="0" y="19.7777777777778" dx="0em" dy="0.3em" style="text-anchor: end; visibility: hidden; font-family: &quot;Helvetica Neue&quot;, sans-serif; font-size: 12px; font-weight: 200;" fill="rgb(50, 49, 63)" stroke="none" stroke-width="1px">0.7</text><text x="0" y="0" dx="0em" dy="0.3em" style="text-anchor: end; visibility: hidden; font-family: &quot;Helvetica Neue&quot;, sans-serif; font-size: 12px; font-weight: 200;" fill="rgb(50, 49, 63)" stroke="none" stroke-width="1px">0.8</text></g><line x1="58" y1="0" x2="58" y2="178" fill="rgb(0, 0, 0)" stroke="rgb(204, 204, 204)" stroke-width="1px"></line></g></g><g transform="translate(58, 0)" clip-path="url(#clip_0)"><clipPath id="clip_0"><rect width="272" height="178"></rect></clipPath><g><g><g><line x1="0" y1="0" x2="0" y2="178" fill="rgb(0, 0, 0)" stroke="rgb(60, 60, 60)" stroke-width="1px" opacity="0.25"></line><line x1="34" y1="0" x2="34" y2="178" fill="rgb(0, 0, 0)" stroke="rgb(60, 60, 60)" stroke-width="1px" opacity="0.25"></line><line x1="68" y1="0" x2="68" y2="178" fill="rgb(0, 0, 0)" stroke="rgb(60, 60, 60)" stroke-width="1px" opacity="0.25"></line><line x1="102" y1="0" x2="102" y2="178" fill="rgb(0, 0, 0)" stroke="rgb(60, 60, 60)" stroke-width="1px" opacity="0.25"></line><line x1="136" y1="0" x2="136" y2="178" fill="rgb(0, 0, 0)" stroke="rgb(60, 60, 60)" stroke-width="1px" opacity="0.25"></line><line x1="170" y1="0" x2="170" y2="178" fill="rgb(0, 0, 0)" stroke="rgb(60, 60, 60)" stroke-width="1px" opacity="0.25"></line><line x1="204" y1="0" x2="204" y2="178" fill="rgb(0, 0, 0)" stroke="rgb(60, 60, 60)" stroke-width="1px" opacity="0.25"></line><line x1="238" y1="0" x2="238" y2="178" fill="rgb(0, 0, 0)" stroke="rgb(60, 60, 60)" stroke-width="1px" opacity="0.25"></line><line x1="272" y1="0" x2="272" y2="178" fill="rgb(0, 0, 0)" stroke="rgb(60, 60, 60)" stroke-width="1px" opacity="0.25"></line></g><g><line x1="0" y1="178" x2="272" y2="178" fill="rgb(0, 0, 0)" stroke="rgb(60, 60, 60)" stroke-width="1px" opacity="0.25"></line><line x1="0" y1="158.22222222222223" x2="272" y2="158.22222222222223" fill="rgb(0, 0, 0)" stroke="rgb(60, 60, 60)" stroke-width="1px" opacity="0.25"></line><line x1="0" y1="138.44444444444446" x2="272" y2="138.44444444444446" fill="rgb(0, 0, 0)" stroke="rgb(60, 60, 60)" stroke-width="1px" opacity="0.25"></line><line x1="0" y1="118.66666666666666" x2="272" y2="118.66666666666666" fill="rgb(0, 0, 0)" stroke="rgb(60, 60, 60)" stroke-width="1px" opacity="0.25"></line><line x1="0" y1="98.88888888888889" x2="272" y2="98.88888888888889" fill="rgb(0, 0, 0)" stroke="rgb(60, 60, 60)" stroke-width="1px" opacity="0.25"></line><line x1="0" y1="79.1111111111111" x2="272" y2="79.1111111111111" fill="rgb(0, 0, 0)" stroke="rgb(60, 60, 60)" stroke-width="1px" opacity="0.25"></line><line x1="0" y1="59.33333333333334" x2="272" y2="59.33333333333334" fill="rgb(0, 0, 0)" stroke="rgb(60, 60, 60)" stroke-width="1px" opacity="0.25"></line><line x1="0" y1="39.55555555555557" x2="272" y2="39.55555555555557" fill="rgb(0, 0, 0)" stroke="rgb(60, 60, 60)" stroke-width="1px" opacity="0.25"></line><line x1="0" y1="19.7777777777778" x2="272" y2="19.7777777777778" fill="rgb(0, 0, 0)" stroke="rgb(60, 60, 60)" stroke-width="1px" opacity="0.25"></line><line x1="0" y1="0" x2="272" y2="0" fill="rgb(0, 0, 0)" stroke="rgb(60, 60, 60)" stroke-width="1px" opacity="0.25"></line></g></g></g><g><g><line x1="0" y1="158.22222222222223" x2="272" y2="158.22222222222223" fill="rgb(0, 0, 0)" stroke="rgb(153, 153, 153)" stroke-width="1.5px"></line></g></g><g><g><line x1="34" y1="0" x2="34" y2="178" fill="rgb(0, 0, 0)" stroke="rgb(153, 153, 153)" stroke-width="1.5px"></line></g></g><g><g><g><g><g><path style="fill: none;" stroke="rgb(255, 112, 67)" stroke-width="2px" d="M38.080000000000005,-0.3433233803460496L38.76,35.3183474028294L39.44,33.0738295157424L40.12,45.20362947541648L40.8,37.27224944033176L41.48,58.130196777853016L42.16,40.468157168093L42.84,21.088180306149553L43.52,42.23981502242873L44.2,48.57684717944602L44.88,33.79508107149417L45.56,21.824153912952028L46.24,27.933638582101082L46.919999999999995,45.65319402580704L47.599999999999994,45.16037854438349L48.28,52.01722842185268L48.96,11.976173085951984L49.64,26.858478029593158L50.32,22.806735144139026L51,49.07005419244837L51.68,72.28120853157665L52.36,59.555884652263146L53.04,63.59166896483478L53.72,84.77300273389845L54.400000000000006,82.25367914828715L55.080000000000005,4.420576925424655L55.76,36.02083564059467L56.44,61.10260141860839L57.12,58.57117138246768L57.8,49.26788661550509L58.48,84.81924082720823L59.16,110.63753372595039L59.84,93.6293222248763L60.52,72.19679034282701L61.2,83.82597804712375L61.88,65.75651722285349L62.56,79.76346268539372L63.24,73.61184765212852L63.919999999999995,73.32134599889243L64.6,93.32890481649952L65.28,94.42303678417899L65.96,99.78256742540606L66.64,82.80671164681759L67.32,83.34757071042799L68,89.81386582447529L68.68,98.42179259897276L69.36,104.25796298603471L70.04,84.40621579852528L70.72,100.4329357197556L71.4,98.84763486276866L72.08,102.24005896860135L72.76,91.67652754863497L73.44,97.1126278651911L74.12,102.81521640959122L74.80000000000001,111.27772852823117L75.48,91.39033338681901L76.16000000000001,94.43894432491575L76.83999999999999,75.41706000590368L77.52,99.68159385062722L78.19999999999999,87.49682896984535L78.88,72.4424611121775L79.56,85.3993089253363L80.24,96.2944543478559L80.92,70.06579880310605L81.6,49.70002350143292L82.28,55.62391198755226L82.96,79.53990710652202L83.64,82.9605878626693L84.32,83.9685436368308L85,61.65169840233331L85.68,75.20714398573719L86.36,60.81656299206249L87.04,65.91259610925597L87.72,72.6569228352128L88.4,89.58198203442862L89.08,97.05601531072578L89.76,92.5011848307038L90.44,84.09491383558803L91.12,86.5986767120918L91.80000000000001,89.23898786513294L92.48,103.77882162402716L93.16000000000001,92.2651363323164L93.83999999999999,91.92309588283035L94.52,71.38354726998007L95.19999999999999,83.18531338027867L95.88,61.35450023740327L96.56,83.13538819799021L97.24,80.61359364941052L97.92,84.20855234072143L98.6,83.63869726723733L99.28,77.09825911453945L99.96,89.4695627388352L100.64,81.90045224643575L101.32,85.55854193630813L102,70.57767070444498L102.68,65.82797835226809L103.36,96.45177232708213L104.04,87.1705687271692L104.72,102.28027742354962L105.4,74.489183997547L106.08,94.40603590225622L106.76,90.9743658874726L107.44,101.56295527314879L108.12,88.73313772821784L108.80000000000001,99.27537771846242L109.48,99.41312551759404L110.16000000000001,86.76798104193433L110.83999999999999,80.36197711943714L111.52,82.83476244002935L112.19999999999999,89.79464518536714L112.88,92.76206089272752L113.56,59.59254616963827L114.24,84.14668500638015L114.92,94.30878841605973L115.6,94.87076695085743L116.28,93.61729131471061L116.96,61.09082029691345L117.64,60.1254890539179L118.32,80.64001560109378L119,90.0129965858463L119.68,106.44570239608058L120.36,109.49886272872905L121.04,77.13735191625928L121.72,61.25637375529611L122.4,74.91399411269549L123.08,92.91851916084632L123.76,93.31676177338788L124.44,79.60176135911783L125.12,71.40685247397481L125.80000000000001,82.72366318009973L126.48,99.00937590723086L127.16000000000001,98.38398078455069L127.83999999999999,86.08536899689227L128.51999999999998,69.30410922893232L129.2,66.17776750859213L129.88,57.93512430616241L130.56,49.36468434358096L131.24,60.169137101698325L131.92,60.72052054862772L132.6,86.13182388763038L133.28,102.51777399818587L133.96,97.4530146674452L134.64,65.14910393787952L135.32,58.901945473936664L136,66.12350923300119L136.67999999999998,62.48737540538926L137.36,79.19967475172008L138.04,90.15126189272235L138.72,91.42422527128268L139.39999999999998,93.1509183383622L140.08,88.19059599826483L140.76,91.88235958440572L141.44,93.27011715432434L142.12,103.8942619832205L142.8,85.08546883932966L143.48,80.53704050581365L144.16,60.356684704317274L144.84,79.20157946552754L145.52,77.53765216666655L146.2,74.86126152544334L146.88,78.21235785038157L147.56,94.45134263387092L148.24,77.92193738946702L148.92,77.68399889425129L149.60000000000002,86.37063494280412L150.28,97.17496908540322L150.96,82.18466622061804L151.64,98.53082023654127L152.32000000000002,108.35860285649365L153,93.143110927698L153.67999999999998,86.93612342594488L154.36,79.13770271102254L155.04,102.6681336756417L155.72,109.86211923221892L156.39999999999998,91.51421652549593L157.08,93.20579305990532L157.76,96.07330846187335L158.44,87.80476251437692L159.12,89.27633803416174L159.8,97.30241180608816L160.48,79.85035166060722L161.16,80.55538423143132L161.84,84.59715751754017L162.52,94.78265805943003L163.2,99.04180839413796L163.88,105.8130904509143L164.56,86.7416199038475L165.24,79.0611746525361L165.92,84.25250097975005L166.60000000000002,64.43213140442423L167.28,36.7499503103366L167.96,29.93052737372858L168.64,55.426200827794815L169.32000000000002,81.12916012809184L170,96.25133732520365L170.67999999999998,96.17051820320026L171.36,90.45105586900958L172.04,74.79975642137858L172.72,64.31775090742664L173.39999999999998,90.02186387319497L174.08,104.0664269302184L174.76,77.21824690371818L175.44,19.23803759555102L176.12,65.533100614618L176.8,76.48863343235821L177.48,75.07650881148886L178.16,99.26037380852837L178.84,90.94762023571681L179.52,84.18200245868454L180.2,79.85979299963635L180.88,86.02141505226811L181.56,100.8382214066789L182.24,95.96549833980009L182.92,83.72305024809363L183.60000000000002,101.80651896823484L184.28,88.58947984086485L184.96,90.3323241718688L185.64,92.393705445793L186.32000000000002,97.3973426219347L187,96.71854508237243L187.67999999999998,96.16435270376543L188.36,68.33533587348026L189.04,86.71620042486941L189.72,80.4381992837264L190.39999999999998,85.05798320028356L191.08,96.48259378465798L191.76,96.80847696131798L192.44,87.77354278045091L193.12,95.76102943348467L193.8,85.84905885696153L194.48,97.17800384940571L195.16,114.39333484751307L195.84,87.68076956612383L196.52,77.07298086583434L197.2,56.98100374322391L197.88,84.44704258622795L198.56,26.108890712430792L199.24,29.86627292979196L199.92,69.96832904525218L200.60000000000002,76.35973222213288L201.28,35.521896087342895L201.96,82.947208201995L202.64,82.24251104872292L203.32000000000002,92.06705827254758L204,97.26304771018658L204.67999999999998,91.18371511088401L205.36,90.95203249241266L206.04,102.17657649260931L206.72,91.04691544023564L207.39999999999998,101.02150638432492L208.08,93.53715444169748L208.76,88.28777131811036L209.44,86.90116338450481L210.12,89.91605486331855L210.8,80.93420101584121L211.48,70.46290105214266L212.16,67.45998607694747L212.84,80.72436988132965L213.52,77.36216313174916L214.2,67.9592125776853L214.88,74.76169137210252L215.56,61.54726083331356L216.24,87.66806557717524L216.92,73.21507835057167L217.60000000000002,93.24879152711283L218.28,91.30772568260892L218.96,97.08405957513757L219.64,101.34293993429127L220.32000000000002,107.19582995685106L221,117.24326624754531L221.67999999999998,110.8685736129607L222.36,102.80228008495658L223.04,106.38559951496217L223.72,93.55854431590734L224.39999999999998,99.2810771919092L225.08,65.50227211296847L225.76,57.62107277073663L226.44,89.6344346783606L227.12,106.47554359981734L227.8,97.10322621184704L228.48,80.58895561239522L229.16,85.37347143634314L229.84,83.07492635621199L230.52,97.06860715950533L231.2,92.02138810829535L231.88,97.32291739787762L232.56,106.9697467858143L233.24,99.04811385123713L233.92,84.92760659081169L234.60000000000002,76.10793144470583L235.28,86.31936464189732L235.96,84.20404064567255L236.64,98.79955513234067L237.32000000000002,107.88261094292004L238,93.76944460088941" fill="none"></path></g></g></g></g><g opacity="0.2"><g><g><g><path style="fill: none;" stroke="rgb(255, 112, 67)" stroke-width="2px" d="M37.400000000000006,-24.121861166424225L38.080000000000005,46.42412890328302L38.76,60.58952493137785L39.44,31.478441980150023L40.12,53.83628529972502L40.8,31.624607271618316L41.48,72.98560655117035L42.16,27.887790626949737L42.84,7.283636093139648L43.52,57.306564542982315L44.2,53.09087649981183L44.88,23.265624205271422L45.56,13.29692498842877L46.24,32.285598807864716L46.919999999999995,58.275341351826995L47.599999999999994,44.809331920411864L48.28,56.90155972374811L48.96,-16.54622220993042L49.64,37.459571917851775L50.32,19.920562134848723L51,67.77817185719809L51.68,88.81518148051369L52.36,50.491270383199065L53.04,66.4664742284351L53.72,99.86107610331642L54.400000000000006,80.45909248458015L55.080000000000005,-51.02218082216052L55.76,58.530608971913665L56.44,78.96906471252441L57.12,56.767960945765196L57.8,42.640889247258514L58.48,110.1434931423929L59.16,129.02864647573895L59.84,81.51388389534422L60.52,56.92978133095636L61.2,92.10978298717076L61.88,52.88512047131857L62.56,89.74101287788815L63.24,69.22987529966566L63.919999999999995,73.11441331439549L64.6,107.58086452219221L65.28,95.20241845978632L65.96,103.60031527943082L66.64,70.71432122919295L67.32,83.73284018039703L68,94.41999385091994L68.68,104.55346646573808L69.36,108.41523504257204L70.04,70.26524519920349L70.72,111.84922936227586L71.4,97.71837945779166L72.08,104.65658024946849L72.76,84.15182023578221L73.44,100.98491850164201L74.12,106.87733427683513L74.80000000000001,117.30581935246786L75.48,77.22396972444322L76.16000000000001,96.61055759588878L76.83999999999999,61.86722460058L77.52,116.96591932906045L78.19999999999999,78.8172704246309L78.88,61.718801816304534L79.56,94.62884435388777L80.24,104.05537985430824L80.92,51.382372935613006L81.6,35.19289588928223L82.28,59.84366816944548L82.96,96.57595842414433L83.64,85.39723716841804L84.32,84.68653953075409L85,45.75476755036249L85.68,84.86307782597014L86.36,50.565738174650406L87.04,69.54264709684584L87.72,77.46110077699026L88.4,101.63818858729469L89.08,102.37998421986899L89.76,89.2566480504142L90.44,78.10688518153297L91.12,88.38217903508081L91.80000000000001,91.11975745360057L92.48,114.13596347967784L93.16000000000001,84.06360708342659L93.83999999999999,91.67945063114168L94.52,56.752635929319595L95.19999999999999,91.59205088350508L95.88,45.80378402603998L96.56,98.65054126580557L97.24,78.81724684768254L97.92,86.7693448331621L98.6,83.23277310530347L99.28,72.43931686878204L99.96,98.28199819723766L100.64,76.50875710116493L101.32,88.16430445512137L102,59.90636516941919L102.68,62.44463585482704L103.36,118.26598173379898L104.04,80.55930040942299L104.72,113.0433575908343L105.4,54.6927886803945L106.08,108.59338246451485L106.76,88.52988861666786L107.44,109.10551209582223L108.12,79.59408961402046L108.80000000000001,106.78491853343117L109.48,99.5112472375234L110.16000000000001,77.76048086749184L110.83999999999999,75.7987962431378L111.52,84.59619855880737L112.19999999999999,94.75236988067628L112.88,94.87583646509383L113.56,35.964946640862365L114.24,101.63730445173051L114.92,101.54754700925615L115.6,95.27108042769963L116.28,92.72440456019508L116.96,37.92127929793466L117.64,59.43785583972931L118.32,95.25310300456154L119,96.68964057498509L119.68,118.15119146638446L120.36,111.67371666431428L121.04,54.08531681696576L121.72,49.94389616118539L122.4,84.64270998371973L123.08,105.74366029103598L123.76,93.6004414425956L124.44,69.83217202292549L125.12,65.5693831311332L125.80000000000001,90.78495299816133L126.48,110.61015757587221L127.16000000000001,97.938493847847L127.83999999999999,77.32471402486166L128.51999999999998,57.35033514764574L129.2,63.95078436533612L129.88,52.063652435938536L130.56,43.25971341133118L131.24,67.86545961432988L131.92,61.11328683959114L132.6,104.23302626609804L133.28,114.1899576385816L133.96,93.84524089760251L134.64,42.13809903462729L135.32,54.45191478729248L136,71.26763684219786L136.67999999999998,59.897252678871155L137.36,91.10432634088728L138.04,97.95239245891572L138.72,92.33099370532567L139.39999999999998,94.38089148203532L140.08,84.65721570120918L140.76,94.51210898823209L141.44,94.25865679317052L142.12,111.46214597092735L142.8,71.68742440806496L143.48,77.29706415865157L144.16,45.98163673612805L144.84,92.62534011734857L145.52,76.35238888528612L146.2,72.95479147964055L146.88,80.59944016403624L147.56,106.01883864402772L148.24,66.14756653043959L148.92,77.51450845930312L149.60000000000002,92.55837568971846L150.28,104.8712071047889L150.96,71.50664226214093L151.64,110.1746559739113L152.32000000000002,115.35921513371997L153,82.3046783208847L153.67999999999998,82.51470767127144L154.36,73.5826632976532L155.04,119.42953655454849L155.72,114.98660209443835L156.39999999999998,78.4444776111179L157.08,94.41075168715584L157.76,98.11592217286429L158.44,81.91483937369453L159.12,90.3245836098989L159.8,103.01961504088509L160.48,67.4187471734153L161.16,81.05759921338823L161.84,87.47622889942595L162.52,102.038083102968L163.2,102.0757237010532L163.88,110.63646945026186L164.56,73.15646280182733L165.24,73.59017255571153L165.92,87.95043206214905L166.60000000000002,50.31351198090448L167.28,17.031136380301604L167.96,25.072856240802338L168.64,73.58750246630775L169.32000000000002,99.4381174378925L170,107.02329916424222L170.67999999999998,96.11294841766359L171.36,86.37691831588745L172.04,63.650885581970215L172.72,56.85111684269377L173.39999999999998,108.33164297209846L174.08,114.07077321741318L174.76,58.09351592593724L175.44,-22.06293341848587L176.12,98.5104057788849L176.8,84.2925746175978L177.48,74.0706118212806L178.16,116.48723654614555L178.84,85.02620673179626L179.52,79.36265828874376L180.2,76.78095886442397L180.88,90.41051569249895L181.56,111.39265880982082L182.24,92.49451752503714L182.92,75.00240229235756L183.60000000000002,114.68789394696554L184.28,79.17460265424516L184.96,91.57380232546065L185.64,93.86208662721846L186.32000000000002,100.96157732274797L187,96.23501806788975L187.67999999999998,95.76958552996318L188.36,48.51192662451001L189.04,99.80941900942061L189.72,75.9661984708574L190.39999999999998,88.34878818194073L191.08,104.62067255708907L191.76,97.04061292277443L192.44,81.33769925435385L193.12,101.45074595345392L193.8,78.7884770764245L194.48,105.247937268681L195.16,126.65631035301422L195.84,68.65264087253148L196.52,69.51674781905281L197.2,42.66891045040555L197.88,104.01189217302534L198.56,-15.447053088082185L199.24,32.54276437229581L199.92,98.53417723708684L200.60000000000002,80.91251256730821L201.28,6.431930621465057L201.96,116.72962231106229L202.64,81.7405349943373L203.32000000000002,99.06536588403914L204,100.96430046028561L204.67999999999998,86.8532316154904L205.36,90.78699829843309L206.04,110.17214208179051L206.72,83.11893770429823L207.39999999999998,108.12669445408716L208.08,88.20583524968889L208.76,84.54848470952776L209.44,85.91344266467625L210.12,92.06364879343245L210.8,74.53616813818616L211.48,63.00389285882315L212.16,65.32092335489061L212.84,90.17297204335532L213.52,74.9671665430069L214.2,61.26122040218779L214.88,79.60729270511204L215.56,52.134241819381714L216.24,106.27466621663835L216.92,62.91979977819655L217.60000000000002,107.51938173505995L218.28,89.92504864268834L218.96,101.19870837529501L219.64,104.37666292985281L220.32000000000002,111.36501189072928L221,124.4003441532453L221.67999999999998,106.32769666777718L222.36,97.05642716089885L223.04,108.93810102674696L223.72,84.42146390014226L224.39999999999998,103.35740198029413L225.08,41.44065753618878L225.76,52.007067759831756L226.44,112.43847329749002L227.12,118.47194995482764L227.8,90.427054921786L228.48,68.8253655963474L229.16,88.78161969449785L229.84,81.43760657310486L230.52,107.03670855363211L231.2,88.4261087841458L231.88,101.09934922059378L232.56,113.84146087037193L233.24,93.40530682934656L233.92,74.86916306283739L234.60000000000002,69.82542312145233L235.28,93.59326226181454L235.96,82.69723451137543L236.64,109.19635997215907L237.32000000000002,114.35273289018207L238,83.71623022026488" fill="none"></path></g></g></g></g></g></g><g transform="translate(58, 178)" clip-path="url(#clip_1)"><clipPath id="clip_1"><rect width="272" height="22"></rect></clipPath><g><g><line x1="0" y1="0" x2="0" y2="5" style="visibility: inherit;" fill="rgb(0, 0, 0)" stroke="rgb(204, 204, 204)" stroke-width="1px"></line><line x1="34" y1="0" x2="34" y2="5" style="visibility: inherit;" fill="rgb(0, 0, 0)" stroke="rgb(204, 204, 204)" stroke-width="1px"></line><line x1="68" y1="0" x2="68" y2="5" style="visibility: inherit;" fill="rgb(0, 0, 0)" stroke="rgb(204, 204, 204)" stroke-width="1px"></line><line x1="102" y1="0" x2="102" y2="5" style="visibility: inherit;" fill="rgb(0, 0, 0)" stroke="rgb(204, 204, 204)" stroke-width="1px"></line><line x1="136" y1="0" x2="136" y2="5" style="visibility: inherit;" fill="rgb(0, 0, 0)" stroke="rgb(204, 204, 204)" stroke-width="1px"></line><line x1="170" y1="0" x2="170" y2="5" style="visibility: inherit;" fill="rgb(0, 0, 0)" stroke="rgb(204, 204, 204)" stroke-width="1px"></line><line x1="204" y1="0" x2="204" y2="5" style="visibility: inherit;" fill="rgb(0, 0, 0)" stroke="rgb(204, 204, 204)" stroke-width="1px"></line><line x1="238" y1="0" x2="238" y2="5" style="visibility: inherit;" fill="rgb(0, 0, 0)" stroke="rgb(204, 204, 204)" stroke-width="1px"></line><line x1="272" y1="0" x2="272" y2="5" style="visibility: inherit;" fill="rgb(0, 0, 0)" stroke="rgb(204, 204, 204)" stroke-width="1px"></line></g><g transform="translate(0, 8)"><text x="0" y="0" dx="0em" dy="0.95em" style="text-anchor: middle; visibility: hidden; font-family: &quot;Helvetica Neue&quot;, sans-serif; font-size: 12px; font-weight: 200;" fill="rgb(50, 49, 63)" stroke="none" stroke-width="1px">-50</text><text x="34" y="0" dx="0em" dy="0.95em" style="text-anchor: middle; visibility: inherit; font-family: &quot;Helvetica Neue&quot;, sans-serif; font-size: 12px; font-weight: 200;" fill="rgb(50, 49, 63)" stroke="none" stroke-width="1px">0</text><text x="68" y="0" dx="0em" dy="0.95em" style="text-anchor: middle; visibility: inherit; font-family: &quot;Helvetica Neue&quot;, sans-serif; font-size: 12px; font-weight: 200;" fill="rgb(50, 49, 63)" stroke="none" stroke-width="1px">50</text><text x="102" y="0" dx="0em" dy="0.95em" style="text-anchor: middle; visibility: inherit; font-family: &quot;Helvetica Neue&quot;, sans-serif; font-size: 12px; font-weight: 200;" fill="rgb(50, 49, 63)" stroke="none" stroke-width="1px">100</text><text x="136" y="0" dx="0em" dy="0.95em" style="text-anchor: middle; visibility: inherit; font-family: &quot;Helvetica Neue&quot;, sans-serif; font-size: 12px; font-weight: 200;" fill="rgb(50, 49, 63)" stroke="none" stroke-width="1px">150</text><text x="170" y="0" dx="0em" dy="0.95em" style="text-anchor: middle; visibility: inherit; font-family: &quot;Helvetica Neue&quot;, sans-serif; font-size: 12px; font-weight: 200;" fill="rgb(50, 49, 63)" stroke="none" stroke-width="1px">200</text><text x="204" y="0" dx="0em" dy="0.95em" style="text-anchor: middle; visibility: inherit; font-family: &quot;Helvetica Neue&quot;, sans-serif; font-size: 12px; font-weight: 200;" fill="rgb(50, 49, 63)" stroke="none" stroke-width="1px">250</text><text x="238" y="0" dx="0em" dy="0.95em" style="text-anchor: middle; visibility: inherit; font-family: &quot;Helvetica Neue&quot;, sans-serif; font-size: 12px; font-weight: 200;" fill="rgb(50, 49, 63)" stroke="none" stroke-width="1px">300</text><text x="272" y="0" dx="0em" dy="0.95em" style="text-anchor: middle; visibility: hidden; font-family: &quot;Helvetica Neue&quot;, sans-serif; font-size: 12px; font-weight: 200;" fill="rgb(50, 49, 63)" stroke="none" stroke-width="1px">350</text></g><line x1="0" y1="0" x2="272" y2="0" fill="rgb(0, 0, 0)" stroke="rgb(204, 204, 204)" stroke-width="1px"></line></g></g></g></g></svg>