<svg viewBox="0 0 330 200" xmlns="http://www.w3.org/2000/svg"><g><g><g><g><g><line x1="58" y1="178" x2="53" y2="178" style="visibility: inherit;" fill="rgb(0, 0, 0)" stroke="rgb(204, 204, 204)" stroke-width="1px"></line><line x1="58" y1="165.28571428571428" x2="53" y2="165.28571428571428" style="visibility: inherit;" fill="rgb(0, 0, 0)" stroke="rgb(204, 204, 204)" stroke-width="1px"></line><line x1="58" y1="152.57142857142856" x2="53" y2="152.57142857142856" style="visibility: inherit;" fill="rgb(0, 0, 0)" stroke="rgb(204, 204, 204)" stroke-width="1px"></line><line x1="58" y1="139.85714285714283" x2="53" y2="139.85714285714283" style="visibility: inherit;" fill="rgb(0, 0, 0)" stroke="rgb(204, 204, 204)" stroke-width="1px"></line><line x1="58" y1="127.14285714285714" x2="53" y2="127.14285714285714" style="visibility: inherit;" fill="rgb(0, 0, 0)" stroke="rgb(204, 204, 204)" stroke-width="1px"></line><line x1="58" y1="114.42857142857143" x2="53" y2="114.42857142857143" style="visibility: inherit;" fill="rgb(0, 0, 0)" stroke="rgb(204, 204, 204)" stroke-width="1px"></line><line x1="58" y1="101.7142857142857" x2="53" y2="101.7142857142857" style="visibility: inherit;" fill="rgb(0, 0, 0)" stroke="rgb(204, 204, 204)" stroke-width="1px"></line><line x1="58" y1="89" x2="53" y2="89" style="visibility: inherit;" fill="rgb(0, 0, 0)" stroke="rgb(204, 204, 204)" stroke-width="1px"></line><line x1="58" y1="76.28571428571428" x2="53" y2="76.28571428571428" style="visibility: inherit;" fill="rgb(0, 0, 0)" stroke="rgb(204, 204, 204)" stroke-width="1px"></line><line x1="58" y1="63.571428571428584" x2="53" y2="63.571428571428584" style="visibility: inherit;" fill="rgb(0, 0, 0)" stroke="rgb(204, 204, 204)" stroke-width="1px"></line><line x1="58" y1="50.85714285714286" x2="53" y2="50.85714285714286" style="visibility: inherit;" fill="rgb(0, 0, 0)" stroke="rgb(204, 204, 204)" stroke-width="1px"></line><line x1="58" y1="38.14285714285714" x2="53" y2="38.14285714285714" style="visibility: inherit;" fill="rgb(0, 0, 0)" stroke="rgb(204, 204, 204)" stroke-width="1px"></line><line x1="58" y1="25.428571428571416" x2="53" y2="25.428571428571416" style="visibility: inherit;" fill="rgb(0, 0, 0)" stroke="rgb(204, 204, 204)" stroke-width="1px"></line><line x1="58" y1="12.714285714285694" x2="53" y2="12.714285714285694" style="visibility: inherit;" fill="rgb(0, 0, 0)" stroke="rgb(204, 204, 204)" stroke-width="1px"></line><line x1="58" y1="0" x2="53" y2="0" style="visibility: inherit;" fill="rgb(0, 0, 0)" stroke="rgb(204, 204, 204)" stroke-width="1px"></line></g><g transform="translate(48, 0)"><text x="0" y="178" dx="0em" dy="0.3em" style="text-anchor: end; visibility: hidden; font-family: &quot;Helvetica Neue&quot;, sans-serif; font-size: 12px; font-weight: 200;" fill="rgb(50, 49, 63)" stroke="none" stroke-width="1px">-0.2</text><text x="0" y="165.28571428571428" dx="0em" dy="0.3em" style="text-anchor: end; visibility: inherit; font-family: &quot;Helvetica Neue&quot;, sans-serif; font-size: 12px; font-weight: 200;" fill="rgb(50, 49, 63)" stroke="none" stroke-width="1px">-0.1</text><text x="0" y="152.57142857142856" dx="0em" dy="0.3em" style="text-anchor: end; visibility: hidden; font-family: &quot;Helvetica Neue&quot;, sans-serif; font-size: 12px; font-weight: 200;" fill="rgb(50, 49, 63)" stroke="none" stroke-width="1px">0</text><text x="0" y="139.85714285714283" dx="0em" dy="0.3em" style="text-anchor: end; visibility: inherit; font-family: &quot;Helvetica Neue&quot;, sans-serif; font-size: 12px; font-weight: 200;" fill="rgb(50, 49, 63)" stroke="none" stroke-width="1px">0.1</text><text x="0" y="127.14285714285714" dx="0em" dy="0.3em" style="text-anchor: end; visibility: hidden; font-family: &quot;Helvetica Neue&quot;, sans-serif; font-size: 12px; font-weight: 200;" fill="rgb(50, 49, 63)" stroke="none" stroke-width="1px">0.2</text><text x="0" y="114.42857142857143" dx="0em" dy="0.3em" style="text-anchor: end; visibility: inherit; font-family: &quot;Helvetica Neue&quot;, sans-serif; font-size: 12px; font-weight: 200;" fill="rgb(50, 49, 63)" stroke="none" stroke-width="1px">0.3</text><text x="0" y="101.7142857142857" dx="0em" dy="0.3em" style="text-anchor: end; visibility: hidden; font-family: &quot;Helvetica Neue&quot;, sans-serif; font-size: 12px; font-weight: 200;" fill="rgb(50, 49, 63)" stroke="none" stroke-width="1px">0.4</text><text x="0" y="89" dx="0em" dy="0.3em" style="text-anchor: end; visibility: inherit; font-family: &quot;Helvetica Neue&quot;, sans-serif; font-size: 12px; font-weight: 200;" fill="rgb(50, 49, 63)" stroke="none" stroke-width="1px">0.5</text><text x="0" y="76.28571428571428" dx="0em" dy="0.3em" style="text-anchor: end; visibility: hidden; font-family: &quot;Helvetica Neue&quot;, sans-serif; font-size: 12px; font-weight: 200;" fill="rgb(50, 49, 63)" stroke="none" stroke-width="1px">0.6</text><text x="0" y="63.571428571428584" dx="0em" dy="0.3em" style="text-anchor: end; visibility: inherit; font-family: &quot;Helvetica Neue&quot;, sans-serif; font-size: 12px; font-weight: 200;" fill="rgb(50, 49, 63)" stroke="none" stroke-width="1px">0.7</text><text x="0" y="50.85714285714286" dx="0em" dy="0.3em" style="text-anchor: end; visibility: hidden; font-family: &quot;Helvetica Neue&quot;, sans-serif; font-size: 12px; font-weight: 200;" fill="rgb(50, 49, 63)" stroke="none" stroke-width="1px">0.8</text><text x="0" y="38.14285714285714" dx="0em" dy="0.3em" style="text-anchor: end; visibility: inherit; font-family: &quot;Helvetica Neue&quot;, sans-serif; font-size: 12px; font-weight: 200;" fill="rgb(50, 49, 63)" stroke="none" stroke-width="1px">0.9</text><text x="0" y="25.428571428571416" dx="0em" dy="0.3em" style="text-anchor: end; visibility: hidden; font-family: &quot;Helvetica Neue&quot;, sans-serif; font-size: 12px; font-weight: 200;" fill="rgb(50, 49, 63)" stroke="none" stroke-width="1px">1</text><text x="0" y="12.714285714285694" dx="0em" dy="0.3em" style="text-anchor: end; visibility: inherit; font-family: &quot;Helvetica Neue&quot;, sans-serif; font-size: 12px; font-weight: 200;" fill="rgb(50, 49, 63)" stroke="none" stroke-width="1px">1.1</text><text x="0" y="0" dx="0em" dy="0.3em" style="text-anchor: end; visibility: hidden; font-family: &quot;Helvetica Neue&quot;, sans-serif; font-size: 12px; font-weight: 200;" fill="rgb(50, 49, 63)" stroke="none" stroke-width="1px">1.2</text></g><line x1="58" y1="0" x2="58" y2="178" fill="rgb(0, 0, 0)" stroke="rgb(204, 204, 204)" stroke-width="1px"></line></g></g><g transform="translate(58, 0)" clip-path="url(#clip_0)"><clipPath id="clip_0"><rect width="272" height="178"></rect></clipPath><g><g><g><line x1="0" y1="0" x2="0" y2="178" fill="rgb(0, 0, 0)" stroke="rgb(60, 60, 60)" stroke-width="1px" opacity="0.25"></line><line x1="34" y1="0" x2="34" y2="178" fill="rgb(0, 0, 0)" stroke="rgb(60, 60, 60)" stroke-width="1px" opacity="0.25"></line><line x1="68" y1="0" x2="68" y2="178" fill="rgb(0, 0, 0)" stroke="rgb(60, 60, 60)" stroke-width="1px" opacity="0.25"></line><line x1="102" y1="0" x2="102" y2="178" fill="rgb(0, 0, 0)" stroke="rgb(60, 60, 60)" stroke-width="1px" opacity="0.25"></line><line x1="136" y1="0" x2="136" y2="178" fill="rgb(0, 0, 0)" stroke="rgb(60, 60, 60)" stroke-width="1px" opacity="0.25"></line><line x1="170" y1="0" x2="170" y2="178" fill="rgb(0, 0, 0)" stroke="rgb(60, 60, 60)" stroke-width="1px" opacity="0.25"></line><line x1="204" y1="0" x2="204" y2="178" fill="rgb(0, 0, 0)" stroke="rgb(60, 60, 60)" stroke-width="1px" opacity="0.25"></line><line x1="238" y1="0" x2="238" y2="178" fill="rgb(0, 0, 0)" stroke="rgb(60, 60, 60)" stroke-width="1px" opacity="0.25"></line><line x1="272" y1="0" x2="272" y2="178" fill="rgb(0, 0, 0)" stroke="rgb(60, 60, 60)" stroke-width="1px" opacity="0.25"></line></g><g><line x1="0" y1="178" x2="272" y2="178" fill="rgb(0, 0, 0)" stroke="rgb(60, 60, 60)" stroke-width="1px" opacity="0.25"></line><line x1="0" y1="165.28571428571428" x2="272" y2="165.28571428571428" fill="rgb(0, 0, 0)" stroke="rgb(60, 60, 60)" stroke-width="1px" opacity="0.25"></line><line x1="0" y1="152.57142857142856" x2="272" y2="152.57142857142856" fill="rgb(0, 0, 0)" stroke="rgb(60, 60, 60)" stroke-width="1px" opacity="0.25"></line><line x1="0" y1="139.85714285714283" x2="272" y2="139.85714285714283" fill="rgb(0, 0, 0)" stroke="rgb(60, 60, 60)" stroke-width="1px" opacity="0.25"></line><line x1="0" y1="127.14285714285714" x2="272" y2="127.14285714285714" fill="rgb(0, 0, 0)" stroke="rgb(60, 60, 60)" stroke-width="1px" opacity="0.25"></line><line x1="0" y1="114.42857142857143" x2="272" y2="114.42857142857143" fill="rgb(0, 0, 0)" stroke="rgb(60, 60, 60)" stroke-width="1px" opacity="0.25"></line><line x1="0" y1="101.7142857142857" x2="272" y2="101.7142857142857" fill="rgb(0, 0, 0)" stroke="rgb(60, 60, 60)" stroke-width="1px" opacity="0.25"></line><line x1="0" y1="89" x2="272" y2="89" fill="rgb(0, 0, 0)" stroke="rgb(60, 60, 60)" stroke-width="1px" opacity="0.25"></line><line x1="0" y1="76.28571428571428" x2="272" y2="76.28571428571428" fill="rgb(0, 0, 0)" stroke="rgb(60, 60, 60)" stroke-width="1px" opacity="0.25"></line><line x1="0" y1="63.571428571428584" x2="272" y2="63.571428571428584" fill="rgb(0, 0, 0)" stroke="rgb(60, 60, 60)" stroke-width="1px" opacity="0.25"></line><line x1="0" y1="50.85714285714286" x2="272" y2="50.85714285714286" fill="rgb(0, 0, 0)" stroke="rgb(60, 60, 60)" stroke-width="1px" opacity="0.25"></line><line x1="0" y1="38.14285714285714" x2="272" y2="38.14285714285714" fill="rgb(0, 0, 0)" stroke="rgb(60, 60, 60)" stroke-width="1px" opacity="0.25"></line><line x1="0" y1="25.428571428571416" x2="272" y2="25.428571428571416" fill="rgb(0, 0, 0)" stroke="rgb(60, 60, 60)" stroke-width="1px" opacity="0.25"></line><line x1="0" y1="12.714285714285694" x2="272" y2="12.714285714285694" fill="rgb(0, 0, 0)" stroke="rgb(60, 60, 60)" stroke-width="1px" opacity="0.25"></line><line x1="0" y1="0" x2="272" y2="0" fill="rgb(0, 0, 0)" stroke="rgb(60, 60, 60)" stroke-width="1px" opacity="0.25"></line></g></g></g><g><g><line x1="0" y1="152.57142857142856" x2="272" y2="152.57142857142856" fill="rgb(0, 0, 0)" stroke="rgb(153, 153, 153)" stroke-width="1.5px"></line></g></g><g><g><line x1="34" y1="0" x2="34" y2="178" fill="rgb(0, 0, 0)" stroke="rgb(153, 153, 153)" stroke-width="1.5px"></line></g></g><g><g><g><g><g><path style="fill: none;" stroke="rgb(255, 112, 67)" stroke-width="2px" d="M42.16,-0.8898471975898303L42.84,31.7271308478646L43.52,43.622555740939816L44.2,51.07454290823674L44.88,62.858065091825L45.56,68.68103045338185L46.24,75.13469871806949L46.919999999999995,78.8707929666978L47.599999999999994,48.723327197237296L48.28,17.584073977707675L48.96,-7.15564714309312L49.64,7.928812324792915L50.32,24.86593028236888L51,46.97081604991021L51.68,34.91426876155535L52.36,51.08844555276839L53.04,69.38063132954296L53.72,72.97829701740447L54.400000000000006,70.25947326062678L55.080000000000005,59.72541000714679L55.76,70.1656443320956L56.44,77.63737217191529L57.12,84.13794897280225L57.8,79.62843620515956L58.48,83.56685889266812L59.16,88.18242113340416L59.84,88.59442215105148L60.52,90.29551751531247L61.2,83.14154974953503L61.88,92.3645574254995L62.56,91.97890870912282L63.24,80.12042949879398L63.919999999999995,86.53233722728845L64.6,92.96999654085498L65.28,82.96656322278697L65.96,91.26334125225156L66.64,89.59567881731212L67.32,82.5921545298145L68,87.93261715602695L68.68,71.87565690596725L69.36,82.12960808300444L70.04,73.0815604531303L70.72,77.18838856582344L71.4,75.55545983463549L72.08,79.33935832658142L72.76,73.92266209955697L73.44,68.188754919809L74.12,67.2961700086502L74.80000000000001,78.53248800612364L75.48,82.1411681110844L76.16000000000001,79.66904169105027L76.83999999999999,72.24844591317657L77.52,76.19136485669152L78.19999999999999,82.4513918540239L78.88,81.84942504226751L79.56,85.71415478435338L80.24,75.76450675992479L80.92,81.19183516832605L81.6,81.46314854820021L82.28,85.79690369520539L82.96,97.52047336091117L83.64,95.4595853634618L84.32,97.57314679823259L85,95.09044866614136L85.68,91.70611110582364L86.36,79.9952669167356L87.04,79.63465855604285L87.72,79.11611924392929L88.4,84.00523601324277L89.08,74.43183098559415L89.76,78.35280329182645L90.44,72.75210428524382L91.12,73.97043603660258L91.80000000000001,88.7062530670942L92.48,89.26747674499808L93.16000000000001,91.6973311690637L93.83999999999999,83.48037822005612L94.52,86.18255369382436L95.19999999999999,83.41447753533407L95.88,84.97722446217946L96.56,85.16017045895005L97.24,79.30885256719436L97.92,77.57480752616517L98.6,84.66444504009465L99.28,80.8922737617386L99.96,81.75044141202014L100.64,74.27404380348914L101.32,73.17946027649569L102,72.38299350102618L102.68,80.17001420525068L103.36,87.42619971196267L104.04,85.81803131982504L104.72,88.95019680618705L105.4,91.55043539363676L106.08,82.35525583429826L106.76,80.89464189191021L107.44,77.88806963227094L108.12,80.08017247901073L108.80000000000001,82.63251363711696L109.48,86.58890767467021L110.16000000000001,83.35842246413571L110.83999999999999,76.70213337813308L111.52,77.4383073572784L112.19999999999999,80.20591172040605L112.88,86.55222812654947L113.56,91.25722560502513L114.24,84.90391242889163L114.92,84.61606362097024L115.6,84.04839733875471L116.28,79.86519991453778L116.96,85.3185156802399L117.64,77.41159004773789L118.32,79.58943708593729L119,71.6571640959685L119.68,76.02822684508676L120.36,77.7790441809678L121.04,79.72852766590535L121.72,82.99223979246662L122.4,87.63312029116864L123.08,78.45458507786019L123.76,84.58603960594857L124.44,79.58756837525475L125.12,74.35737509808332L125.80000000000001,72.68347553437926L126.48,78.96988337055431L127.16000000000001,81.91670530669101L127.83999999999999,84.25156776174941L128.51999999999998,83.4638495789726L129.2,73.65866661095038L129.88,80.27025055218074L130.56,80.26253159667624L131.24,81.10376635856203L131.92,82.19837215088724L132.6,81.99203036325355L133.28,84.49387147314229L133.96,87.35402537414699L134.64,86.42668828215334L135.32,85.90753491088572L136,74.8934272864493L136.67999999999998,85.4878495827166L137.36,89.65453655433599L138.04,93.81265152214561L138.72,89.53458485691051L139.39999999999998,94.02610371437933L140.08,94.92783956995254L140.76,92.40601369729595L141.44,92.20325861227232L142.12,91.32808864879782L142.8,91.82516055224386L143.48,91.19309553966039L144.16,88.31377831378646L144.84,92.37457299483971L145.52,92.17704475076886L146.2,77.3365020863186L146.88,83.60944916507002L147.56,82.79100600302455L148.24,75.31263998231007L148.92,69.45504150183288L149.60000000000002,72.06713567609361L150.28,73.99485879714437L150.96,76.5381284501093L151.64,78.48124560987577L152.32000000000002,75.61022870279156L153,86.07465583916871L153.67999999999998,75.69760917242473L154.36,85.05490252146785L155.04,83.40736943771809L155.72,80.81820854121666L156.39999999999998,86.81970748903032L157.08,81.70609435627438L157.76,83.67601687595422L158.44,81.51995748809084L159.12,79.0299621528538L159.8,76.8305399617388L160.48,84.61336591759613L161.16,82.05622176139272L161.84,78.4193467162856L162.52,84.0878195646802L163.2,72.45070158399682L163.88,77.91948257574249L164.56,82.15249531849935L165.24,79.32157651500447L165.92,81.37459835275226L166.60000000000002,82.05994898766235L167.28,80.17347796885431L167.96,80.20885133819735L168.64,75.81285728772939L169.32000000000002,75.47764990016665L170,62.20206414375471L170.67999999999998,72.80028570975266L171.36,80.05309789265716L172.04,85.61585894158796L172.72,88.95612553913185L173.39999999999998,80.99832794079741L174.08,82.45390413409207L174.76,86.76890819365651L175.44,92.63225364315856L176.12,90.6602595239013L176.8,91.91563423296303L177.48,87.69498115160079L178.16,84.43185580598121L178.84,82.65649346095121L179.52,83.58663159189273L180.2,81.13182600484878L180.88,86.89640413439795L181.56,89.39055709073855L182.24,89.95212097526397L182.92,84.68092578558041L183.60000000000002,88.72660887016177L184.28,88.6973672206174L184.96,88.2450973209721L185.64,78.9043657244859L186.32000000000002,78.11857370846036L187,80.33742399742599L187.67999999999998,80.98819027126922L188.36,91.40749674223801L189.04,89.16358871143255L189.72,91.63879962663L190.39999999999998,87.82633794656908L191.08,96.43210273570728L191.76,91.37575829293759L192.44,81.70429023833361L193.12,79.99691024943674L193.8,74.2885775742117L194.48,87.9569810700441L195.16,88.90682525042268L195.84,88.91418206540604L196.52,83.31290891079817L197.2,85.72418211541942L197.88,88.57786136226704L198.56,91.77024522295847L199.24,85.10512776383227L199.92,75.79755781587468L200.60000000000002,80.1303978149172L201.28,88.22345129837761L201.96,77.58515723886762L202.64,82.20134153570339L203.32000000000002,83.78062167698931L204,90.36670167492419L204.67999999999998,86.95455785029796L205.36,94.05080553466564L206.04,92.99436488153374L206.72,91.05891450883051L207.39999999999998,91.85190267604392L208.08,84.45390808811581L208.76,81.02890967438526L209.44,81.48810116373585L210.12,87.299875419022L210.8,79.43221578638635L211.48,82.36237040544081L212.16,86.38597921958285L212.84,84.86237243840951L213.52,89.39441928200125L214.2,75.94163732403126L214.88,67.93960367672379L215.56,76.54187662024938L216.24,81.28927396905208L216.92,82.55178840007314L217.60000000000002,90.05161938439224L218.28,95.9400301435955L218.96,90.03609095314208L219.64,88.16242469386835L220.32000000000002,83.24079701155938L221,89.16446618859565L221.67999999999998,92.21439061877743L222.36,94.24813044090212L223.04,89.14533839577776L223.72,92.5996639674735L224.39999999999998,87.96427579965611L225.08,80.42936628011716L225.76,80.22217659152827L226.44,85.52310603685123L227.12,91.89945455686414L227.8,82.74450656863038L228.48,87.2045696051154L229.16,90.1421468521751L229.84,88.18271639227169L230.52,91.35725820741915L231.2,94.3658437258627L231.88,90.47090333433135L232.56,87.8508560692568L233.24,84.05412538602606L233.92,82.6000851548421L234.60000000000002,91.43775967442099L235.28,82.15407217041228L235.96,87.56283482778842L236.64,87.35483775656684L237.32000000000002,90.30380601784913L238,93.5916428205876" fill="none"></path></g></g></g></g><g opacity="0.2"><g><g><g><path style="fill: none;" stroke="rgb(255, 112, 67)" stroke-width="2px" d="M36.72,-289.7163870675224L37.400000000000006,17.034659113202764L38.080000000000005,-74.16787515367781L38.76,-86.36620259284979L39.44,18.345251151493613L40.12,28.298854385103482L40.8,-75.22341176441739L41.48,-17.793198926108232L42.16,46.322139739990234L42.84,80.54609782355172L43.52,61.44238870484489L44.2,62.24376412800379L44.88,80.52503771441323L45.56,77.41301441192627L46.24,84.81356252942767L46.919999999999995,84.4743651832853L47.599999999999994,3.5048841408320754L48.28,-29.123098100934698L48.96,-44.26441475323267L49.64,30.555203710283536L50.32,50.27140658242362L51,80.12798758915493L51.68,16.82949924468994L52.36,75.34966935430255L53.04,96.81888191189086L53.72,78.37479223523822L54.400000000000006,66.1812391281128L55.080000000000005,43.9243186201368L55.76,85.82599374226162L56.44,88.84496303967067L57.12,93.88881370850972L57.8,72.86416724749974L58.48,89.47449282237461L59.16,95.10576442309788L59.84,89.21242367369788L60.52,92.8471605522292L61.2,72.41059812477657L61.88,106.19906892095294L62.56,91.40043563502175L63.24,62.33271069186074L63.919999999999995,96.15019881725311L64.6,102.62648550953185L65.28,67.96141324724469L65.96,103.70850829567229L66.64,87.09418516499656L67.32,72.08686809880393L68,95.94331109523773L68.68,47.79021653107233L69.36,97.51053484848568L70.04,59.50948900835854L70.72,83.34863073485238L71.4,73.10606673785618L72.08,85.01520606449672L72.76,65.79761775902338L73.44,59.58789415018899L74.12,65.95729264191218L74.80000000000001,95.38696500233242L75.48,87.55418826852527L76.16000000000001,75.96085206099919L76.83999999999999,61.117552246366216L77.52,82.10574327196393L78.19999999999999,91.84143235002244L78.88,80.94647482463292L79.56,91.51124939748219L80.24,60.84003472328186L80.92,89.33282778092793L81.6,81.87011861801147L82.28,92.29753641571318L82.96,115.10582785946983L83.64,92.36825336728776L84.32,100.74348895038878L85,91.3664014680045L85.68,86.62960476534707L86.36,62.42900063310351L87.04,79.09374601500375L87.72,78.33831027575901L88.4,91.3389111672129L89.08,60.07172344412122L89.76,84.23426175117493L90.44,64.35105577536991L91.12,75.7979336636407L91.80000000000001,110.80997861283166L92.48,90.1093122618539L93.16000000000001,95.34211280516216L93.83999999999999,71.15494879654476L94.52,90.2358169044767L95.19999999999999,79.2623632975987L95.88,87.32134485244751L96.56,85.43458945410592L97.24,70.53187572956085L97.92,74.9737399646214L98.6,95.29890131098884L99.28,75.23401684420449L99.96,83.03769288744245L100.64,63.05944739069257L101.32,71.53758498600551L102,71.18829333782196L102.68,91.85054526158741L103.36,98.31047797203064L104.04,83.40577873161861L104.72,93.64844503573009L105.4,95.45079327481133L106.08,68.56248649529049L106.76,78.70372097832816L107.44,73.37821124281201L108.12,83.36832674912044L108.80000000000001,86.4610253742763L109.48,92.52349873100007L110.16000000000001,78.51269464833396L110.83999999999999,66.71769974912915L111.52,78.5425683259964L112.19999999999999,84.35731826509748L112.88,96.07170273576463L113.56,98.31472182273865L114.24,75.37394266469138L114.92,84.18429040908813L115.6,83.19689791543144L116.28,73.5904037782124L116.96,93.49848932879311L117.64,65.55120159898486L118.32,82.85620764323643L119,59.75875461101532L119.68,82.58482096876416L120.36,80.40527018478939L121.04,82.65275289331164L121.72,87.88780798230853L122.4,94.59444103922164L123.08,64.68678225789752L123.76,93.7832213980811L124.44,72.08986152921405L125.12,66.51208518232617L125.80000000000001,70.17262618882316L126.48,88.3994951248169L127.16000000000001,86.33693821089608L127.83999999999999,87.75386144433703L128.51999999999998,82.28227230480739L129.2,58.950892158917014L129.88,90.18762646402632L130.56,80.25095316341945L131.24,82.36561850139073L131.92,83.84028083937508L132.6,81.68251768180302L133.28,88.24663313797542L133.96,91.64425622565406L134.64,85.03568264416286L135.32,85.12880485398429L136,58.37226584979466L136.67999999999998,101.3794830271176L137.36,95.90456701176507L138.04,100.04982397386006L138.72,83.11748485905784L139.39999999999998,100.76338200058257L140.08,96.28044335331236L140.76,88.62327488831112L141.44,91.89912598473686L142.12,90.01533370358604L142.8,92.57076840741294L143.48,90.2449980207852L144.16,83.99480247497559L144.84,98.46576501641954L145.52,91.88075238466263L146.2,55.075688089643194L146.88,93.01886978319713L147.56,81.56334125995636L148.24,64.09509095123835L148.92,60.66864378111703L149.60000000000002,75.98527693748474L150.28,76.88644347872052L150.96,80.3530329295567L151.64,81.39592134952545L152.32000000000002,71.30370334216526L153,101.77129654373442L153.67999999999998,60.13203917230878L154.36,99.0908425450325L155.04,80.93606981209346L155.72,76.93446719646454L156.39999999999998,95.8219559107508L157.08,74.03567465714046L157.76,86.63090065547398L158.44,78.28586840629578L159.12,75.29496914999825L159.8,73.53140667506626L160.48,96.28760485138213L161.16,78.22050552708762L161.84,72.96403414862496L162.52,92.5905288372721L163.2,54.99502461297172L163.88,86.12265406336103L164.56,88.50201443263462L165.24,75.07519830976214L165.92,84.4541311093739L166.60000000000002,83.08797494002751L167.28,77.34377144064221L167.96,80.26191139221191L168.64,69.21886621202741L169.32000000000002,74.97483881882259L170,42.28868550913674L170.67999999999998,88.69761805874961L171.36,90.932316167014L172.04,93.96000051498413L172.72,93.96652543544769L173.39999999999998,69.06163154329572L174.08,84.63726842403412L174.76,93.24141428300312L175.44,101.4272718174117L176.12,87.70226834501538L176.8,93.79869629655565L177.48,81.36400152955737L178.16,79.53716778755188L178.84,79.99344994340625L179.52,84.98183878830501L180.2,77.44961762428284L180.88,95.54327132872173L181.56,93.13178652524948L182.24,90.79446680205209L182.92,76.77413300105503L183.60000000000002,94.7951334970338L184.28,88.65350474630084L184.96,87.56669247150421L185.64,64.8932683297566L186.32000000000002,76.93988568442208L187,83.66569943087441L187.67999999999998,81.96433968203408L188.36,107.03645644869124L189.04,85.79772666522435L189.72,95.35161599942616L190.39999999999998,82.1076454264777L191.08,109.34074991941452L191.76,83.79124162878308L192.44,67.19708815642765L193.12,77.43584026609149L193.8,65.72607856137412L194.48,108.45958631379264L195.16,90.33159152099064L195.84,88.92521728788104L196.52,74.91099917888641L197.2,89.3410919223513L197.88,92.8583802325385L198.56,96.55882101399558L199.24,75.107451575143L199.92,61.836202893938335L200.60000000000002,86.62965781348092L201.28,100.3630315235683L201.96,61.627716149602605L202.64,89.12561798095703L203.32000000000002,86.1495418889182L204,100.2458216718265L204.67999999999998,81.83634211335864L205.36,104.69517706121718L206.04,91.40970390183585L206.72,88.1557389497757L207.39999999999998,93.04138492686408L208.08,73.35691620622363L208.76,75.89141205378941L209.44,82.17688839776176L210.12,96.01753680195128L210.8,67.63072633743286L211.48,86.75760233402252L212.16,92.4213924407959L212.84,82.57696226664952L213.52,96.1924895473889L214.2,55.762464387076236L214.88,55.93655320576258L215.56,89.44528603553772L216.24,88.41036999225616L216.92,84.4455600466047L217.60000000000002,101.3013658608709L218.28,104.7726462824004L218.96,81.18018216746194L219.64,85.3519253049578L220.32000000000002,75.85835548809597L221,98.04996995415007L221.67999999999998,96.78927726405007L222.36,97.29874017408916L223.04,81.49115032809121L223.72,97.7811523250171L224.39999999999998,81.01119354793003L225.08,69.12700200080872L225.76,79.91139205864498L226.44,93.47450020483562L227.12,101.46397733688354L227.8,69.01208458627973L228.48,93.8946641598429L229.16,94.5485127227647L229.84,85.24357070241656L230.52,96.11907093014037L231.2,98.87872200352805L231.88,84.62849274703434L232.56,83.92078517164502L233.24,78.35902936117989L233.92,80.41902480806623L234.60000000000002,104.6942714537893L235.28,68.22854091439929L235.96,95.67597881385258L236.64,87.0428421497345L237.32000000000002,94.7272584097726L238,98.52339802469527" fill="none"></path></g></g></g></g></g></g><g transform="translate(58, 178)" clip-path="url(#clip_1)"><clipPath id="clip_1"><rect width="272" height="22"></rect></clipPath><g><g><line x1="0" y1="0" x2="0" y2="5" style="visibility: inherit;" fill="rgb(0, 0, 0)" stroke="rgb(204, 204, 204)" stroke-width="1px"></line><line x1="34" y1="0" x2="34" y2="5" style="visibility: inherit;" fill="rgb(0, 0, 0)" stroke="rgb(204, 204, 204)" stroke-width="1px"></line><line x1="68" y1="0" x2="68" y2="5" style="visibility: inherit;" fill="rgb(0, 0, 0)" stroke="rgb(204, 204, 204)" stroke-width="1px"></line><line x1="102" y1="0" x2="102" y2="5" style="visibility: inherit;" fill="rgb(0, 0, 0)" stroke="rgb(204, 204, 204)" stroke-width="1px"></line><line x1="136" y1="0" x2="136" y2="5" style="visibility: inherit;" fill="rgb(0, 0, 0)" stroke="rgb(204, 204, 204)" stroke-width="1px"></line><line x1="170" y1="0" x2="170" y2="5" style="visibility: inherit;" fill="rgb(0, 0, 0)" stroke="rgb(204, 204, 204)" stroke-width="1px"></line><line x1="204" y1="0" x2="204" y2="5" style="visibility: inherit;" fill="rgb(0, 0, 0)" stroke="rgb(204, 204, 204)" stroke-width="1px"></line><line x1="238" y1="0" x2="238" y2="5" style="visibility: inherit;" fill="rgb(0, 0, 0)" stroke="rgb(204, 204, 204)" stroke-width="1px"></line><line x1="272" y1="0" x2="272" y2="5" style="visibility: inherit;" fill="rgb(0, 0, 0)" stroke="rgb(204, 204, 204)" stroke-width="1px"></line></g><g transform="translate(0, 8)"><text x="0" y="0" dx="0em" dy="0.95em" style="text-anchor: middle; visibility: hidden; font-family: &quot;Helvetica Neue&quot;, sans-serif; font-size: 12px; font-weight: 200;" fill="rgb(50, 49, 63)" stroke="none" stroke-width="1px">-50</text><text x="34" y="0" dx="0em" dy="0.95em" style="text-anchor: middle; visibility: inherit; font-family: &quot;Helvetica Neue&quot;, sans-serif; font-size: 12px; font-weight: 200;" fill="rgb(50, 49, 63)" stroke="none" stroke-width="1px">0</text><text x="68" y="0" dx="0em" dy="0.95em" style="text-anchor: middle; visibility: inherit; font-family: &quot;Helvetica Neue&quot;, sans-serif; font-size: 12px; font-weight: 200;" fill="rgb(50, 49, 63)" stroke="none" stroke-width="1px">50</text><text x="102" y="0" dx="0em" dy="0.95em" style="text-anchor: middle; visibility: inherit; font-family: &quot;Helvetica Neue&quot;, sans-serif; font-size: 12px; font-weight: 200;" fill="rgb(50, 49, 63)" stroke="none" stroke-width="1px">100</text><text x="136" y="0" dx="0em" dy="0.95em" style="text-anchor: middle; visibility: inherit; font-family: &quot;Helvetica Neue&quot;, sans-serif; font-size: 12px; font-weight: 200;" fill="rgb(50, 49, 63)" stroke="none" stroke-width="1px">150</text><text x="170" y="0" dx="0em" dy="0.95em" style="text-anchor: middle; visibility: inherit; font-family: &quot;Helvetica Neue&quot;, sans-serif; font-size: 12px; font-weight: 200;" fill="rgb(50, 49, 63)" stroke="none" stroke-width="1px">200</text><text x="204" y="0" dx="0em" dy="0.95em" style="text-anchor: middle; visibility: inherit; font-family: &quot;Helvetica Neue&quot;, sans-serif; font-size: 12px; font-weight: 200;" fill="rgb(50, 49, 63)" stroke="none" stroke-width="1px">250</text><text x="238" y="0" dx="0em" dy="0.95em" style="text-anchor: middle; visibility: inherit; font-family: &quot;Helvetica Neue&quot;, sans-serif; font-size: 12px; font-weight: 200;" fill="rgb(50, 49, 63)" stroke="none" stroke-width="1px">300</text><text x="272" y="0" dx="0em" dy="0.95em" style="text-anchor: middle; visibility: hidden; font-family: &quot;Helvetica Neue&quot;, sans-serif; font-size: 12px; font-weight: 200;" fill="rgb(50, 49, 63)" stroke="none" stroke-width="1px">350</text></g><line x1="0" y1="0" x2="272" y2="0" fill="rgb(0, 0, 0)" stroke="rgb(204, 204, 204)" stroke-width="1px"></line></g></g></g></g></svg>