<svg viewBox="0 0 330 200" xmlns="http://www.w3.org/2000/svg"><g><g><g><g><g><line x1="58" y1="178" x2="53" y2="178" style="visibility: inherit;" fill="rgb(0, 0, 0)" stroke="rgb(204, 204, 204)" stroke-width="1px"></line><line x1="58" y1="163.16666666666666" x2="53" y2="163.16666666666666" style="visibility: inherit;" fill="rgb(0, 0, 0)" stroke="rgb(204, 204, 204)" stroke-width="1px"></line><line x1="58" y1="148.3333333333334" x2="53" y2="148.3333333333334" style="visibility: inherit;" fill="rgb(0, 0, 0)" stroke="rgb(204, 204, 204)" stroke-width="1px"></line><line x1="58" y1="133.50000000000006" x2="53" y2="133.50000000000006" style="visibility: inherit;" fill="rgb(0, 0, 0)" stroke="rgb(204, 204, 204)" stroke-width="1px"></line><line x1="58" y1="118.66666666666669" x2="53" y2="118.66666666666669" style="visibility: inherit;" fill="rgb(0, 0, 0)" stroke="rgb(204, 204, 204)" stroke-width="1px"></line><line x1="58" y1="103.83333333333334" x2="53" y2="103.83333333333334" style="visibility: inherit;" fill="rgb(0, 0, 0)" stroke="rgb(204, 204, 204)" stroke-width="1px"></line><line x1="58" y1="89" x2="53" y2="89" style="visibility: inherit;" fill="rgb(0, 0, 0)" stroke="rgb(204, 204, 204)" stroke-width="1px"></line><line x1="58" y1="74.16666666666666" x2="53" y2="74.16666666666666" style="visibility: inherit;" fill="rgb(0, 0, 0)" stroke="rgb(204, 204, 204)" stroke-width="1px"></line><line x1="58" y1="59.333333333333385" x2="53" y2="59.333333333333385" style="visibility: inherit;" fill="rgb(0, 0, 0)" stroke="rgb(204, 204, 204)" stroke-width="1px"></line><line x1="58" y1="44.50000000000003" x2="53" y2="44.50000000000003" style="visibility: inherit;" fill="rgb(0, 0, 0)" stroke="rgb(204, 204, 204)" stroke-width="1px"></line><line x1="58" y1="29.666666666666686" x2="53" y2="29.666666666666686" style="visibility: inherit;" fill="rgb(0, 0, 0)" stroke="rgb(204, 204, 204)" stroke-width="1px"></line><line x1="58" y1="14.833333333333343" x2="53" y2="14.833333333333343" style="visibility: inherit;" fill="rgb(0, 0, 0)" stroke="rgb(204, 204, 204)" stroke-width="1px"></line><line x1="58" y1="0" x2="53" y2="0" style="visibility: inherit;" fill="rgb(0, 0, 0)" stroke="rgb(204, 204, 204)" stroke-width="1px"></line></g><g transform="translate(48, 0)"><text x="0" y="178" dx="0em" dy="0.3em" style="text-anchor: end; visibility: hidden; font-family: &quot;Helvetica Neue&quot;, sans-serif; font-size: 12px; font-weight: 200;" fill="rgb(50, 49, 63)" stroke="none" stroke-width="1px">0.54</text><text x="0" y="163.16666666666666" dx="0em" dy="0.3em" style="text-anchor: end; visibility: inherit; font-family: &quot;Helvetica Neue&quot;, sans-serif; font-size: 12px; font-weight: 200;" fill="rgb(50, 49, 63)" stroke="none" stroke-width="1px">0.56</text><text x="0" y="148.3333333333334" dx="0em" dy="0.3em" style="text-anchor: end; visibility: hidden; font-family: &quot;Helvetica Neue&quot;, sans-serif; font-size: 12px; font-weight: 200;" fill="rgb(50, 49, 63)" stroke="none" stroke-width="1px">0.58</text><text x="0" y="133.50000000000006" dx="0em" dy="0.3em" style="text-anchor: end; visibility: inherit; font-family: &quot;Helvetica Neue&quot;, sans-serif; font-size: 12px; font-weight: 200;" fill="rgb(50, 49, 63)" stroke="none" stroke-width="1px">0.6</text><text x="0" y="118.66666666666669" dx="0em" dy="0.3em" style="text-anchor: end; visibility: hidden; font-family: &quot;Helvetica Neue&quot;, sans-serif; font-size: 12px; font-weight: 200;" fill="rgb(50, 49, 63)" stroke="none" stroke-width="1px">0.62</text><text x="0" y="103.83333333333334" dx="0em" dy="0.3em" style="text-anchor: end; visibility: inherit; font-family: &quot;Helvetica Neue&quot;, sans-serif; font-size: 12px; font-weight: 200;" fill="rgb(50, 49, 63)" stroke="none" stroke-width="1px">0.64</text><text x="0" y="89" dx="0em" dy="0.3em" style="text-anchor: end; visibility: hidden; font-family: &quot;Helvetica Neue&quot;, sans-serif; font-size: 12px; font-weight: 200;" fill="rgb(50, 49, 63)" stroke="none" stroke-width="1px">0.66</text><text x="0" y="74.16666666666666" dx="0em" dy="0.3em" style="text-anchor: end; visibility: inherit; font-family: &quot;Helvetica Neue&quot;, sans-serif; font-size: 12px; font-weight: 200;" fill="rgb(50, 49, 63)" stroke="none" stroke-width="1px">0.68</text><text x="0" y="59.333333333333385" dx="0em" dy="0.3em" style="text-anchor: end; visibility: hidden; font-family: &quot;Helvetica Neue&quot;, sans-serif; font-size: 12px; font-weight: 200;" fill="rgb(50, 49, 63)" stroke="none" stroke-width="1px">0.7</text><text x="0" y="44.50000000000003" dx="0em" dy="0.3em" style="text-anchor: end; visibility: inherit; font-family: &quot;Helvetica Neue&quot;, sans-serif; font-size: 12px; font-weight: 200;" fill="rgb(50, 49, 63)" stroke="none" stroke-width="1px">0.72</text><text x="0" y="29.666666666666686" dx="0em" dy="0.3em" style="text-anchor: end; visibility: hidden; font-family: &quot;Helvetica Neue&quot;, sans-serif; font-size: 12px; font-weight: 200;" fill="rgb(50, 49, 63)" stroke="none" stroke-width="1px">0.74</text><text x="0" y="14.833333333333343" dx="0em" dy="0.3em" style="text-anchor: end; visibility: inherit; font-family: &quot;Helvetica Neue&quot;, sans-serif; font-size: 12px; font-weight: 200;" fill="rgb(50, 49, 63)" stroke="none" stroke-width="1px">0.76</text><text x="0" y="0" dx="0em" dy="0.3em" style="text-anchor: end; visibility: hidden; font-family: &quot;Helvetica Neue&quot;, sans-serif; font-size: 12px; font-weight: 200;" fill="rgb(50, 49, 63)" stroke="none" stroke-width="1px">0.78</text></g><line x1="58" y1="0" x2="58" y2="178" fill="rgb(0, 0, 0)" stroke="rgb(204, 204, 204)" stroke-width="1px"></line></g></g><g transform="translate(58, 0)" clip-path="url(#clip_0)"><clipPath id="clip_0"><rect width="272" height="178"></rect></clipPath><g><g><g><line x1="0" y1="0" x2="0" y2="178" fill="rgb(0, 0, 0)" stroke="rgb(60, 60, 60)" stroke-width="1px" opacity="0.25"></line><line x1="34" y1="0" x2="34" y2="178" fill="rgb(0, 0, 0)" stroke="rgb(60, 60, 60)" stroke-width="1px" opacity="0.25"></line><line x1="68" y1="0" x2="68" y2="178" fill="rgb(0, 0, 0)" stroke="rgb(60, 60, 60)" stroke-width="1px" opacity="0.25"></line><line x1="102" y1="0" x2="102" y2="178" fill="rgb(0, 0, 0)" stroke="rgb(60, 60, 60)" stroke-width="1px" opacity="0.25"></line><line x1="136" y1="0" x2="136" y2="178" fill="rgb(0, 0, 0)" stroke="rgb(60, 60, 60)" stroke-width="1px" opacity="0.25"></line><line x1="170" y1="0" x2="170" y2="178" fill="rgb(0, 0, 0)" stroke="rgb(60, 60, 60)" stroke-width="1px" opacity="0.25"></line><line x1="204" y1="0" x2="204" y2="178" fill="rgb(0, 0, 0)" stroke="rgb(60, 60, 60)" stroke-width="1px" opacity="0.25"></line><line x1="238" y1="0" x2="238" y2="178" fill="rgb(0, 0, 0)" stroke="rgb(60, 60, 60)" stroke-width="1px" opacity="0.25"></line><line x1="272" y1="0" x2="272" y2="178" fill="rgb(0, 0, 0)" stroke="rgb(60, 60, 60)" stroke-width="1px" opacity="0.25"></line></g><g><line x1="0" y1="178" x2="272" y2="178" fill="rgb(0, 0, 0)" stroke="rgb(60, 60, 60)" stroke-width="1px" opacity="0.25"></line><line x1="0" y1="163.16666666666666" x2="272" y2="163.16666666666666" fill="rgb(0, 0, 0)" stroke="rgb(60, 60, 60)" stroke-width="1px" opacity="0.25"></line><line x1="0" y1="148.3333333333334" x2="272" y2="148.3333333333334" fill="rgb(0, 0, 0)" stroke="rgb(60, 60, 60)" stroke-width="1px" opacity="0.25"></line><line x1="0" y1="133.50000000000006" x2="272" y2="133.50000000000006" fill="rgb(0, 0, 0)" stroke="rgb(60, 60, 60)" stroke-width="1px" opacity="0.25"></line><line x1="0" y1="118.66666666666669" x2="272" y2="118.66666666666669" fill="rgb(0, 0, 0)" stroke="rgb(60, 60, 60)" stroke-width="1px" opacity="0.25"></line><line x1="0" y1="103.83333333333334" x2="272" y2="103.83333333333334" fill="rgb(0, 0, 0)" stroke="rgb(60, 60, 60)" stroke-width="1px" opacity="0.25"></line><line x1="0" y1="89" x2="272" y2="89" fill="rgb(0, 0, 0)" stroke="rgb(60, 60, 60)" stroke-width="1px" opacity="0.25"></line><line x1="0" y1="74.16666666666666" x2="272" y2="74.16666666666666" fill="rgb(0, 0, 0)" stroke="rgb(60, 60, 60)" stroke-width="1px" opacity="0.25"></line><line x1="0" y1="59.333333333333385" x2="272" y2="59.333333333333385" fill="rgb(0, 0, 0)" stroke="rgb(60, 60, 60)" stroke-width="1px" opacity="0.25"></line><line x1="0" y1="44.50000000000003" x2="272" y2="44.50000000000003" fill="rgb(0, 0, 0)" stroke="rgb(60, 60, 60)" stroke-width="1px" opacity="0.25"></line><line x1="0" y1="29.666666666666686" x2="272" y2="29.666666666666686" fill="rgb(0, 0, 0)" stroke="rgb(60, 60, 60)" stroke-width="1px" opacity="0.25"></line><line x1="0" y1="14.833333333333343" x2="272" y2="14.833333333333343" fill="rgb(0, 0, 0)" stroke="rgb(60, 60, 60)" stroke-width="1px" opacity="0.25"></line><line x1="0" y1="0" x2="272" y2="0" fill="rgb(0, 0, 0)" stroke="rgb(60, 60, 60)" stroke-width="1px" opacity="0.25"></line></g></g></g><g><g><line x1="0" y1="578.5" x2="272" y2="578.5" fill="rgb(0, 0, 0)" stroke="rgb(153, 153, 153)" stroke-width="1.5px"></line></g></g><g><g><line x1="34" y1="0" x2="34" y2="178" fill="rgb(0, 0, 0)" stroke="rgb(153, 153, 153)" stroke-width="1.5px"></line></g></g><g><g><g><g><g><path stroke="rgb(255, 112, 67)" stroke-width="2px" d="M34.68,151.7309018572172L35.36,143.96205791334313L36.04,147.92575380307474L36.72,172.52402480881594L37.400000000000006,185.07067934678943L38.76,187.33094931166437L39.44,176.21900497857933L40.12,174.69519771407414L40.8,177.12566086391539L41.48,173.58433472149477L42.16,158.18000441442666L42.84,173.8517424676569L43.52,164.99646686077332L44.2,161.3458895758938L44.88,160.81445720913504L45.56,135.63114903335992L46.24,125.49647535047728L46.919999999999995,127.70360767922872L47.599999999999994,135.65746867572813L48.28,140.4295991538585L48.96,149.92232298684115L49.64,172.19155374403348L50.32,144.11890179134798L51,120.64595161714668L51.68,126.45051632745498L52.36,139.87739692526614L53.04,111.47167270073324L53.72,102.71502515106341L54.400000000000006,100.7757520626061L55.080000000000005,96.29747540061294L55.76,91.95316217122995L56.44,72.77301044534249L57.12,64.57963273457348L57.8,69.60774436016887L58.48,61.0231257492179L59.16,57.52970213002898L59.84,58.748360628283734L60.52,61.13692089120039L61.2,75.82888995505034L61.88,76.35729860644204L62.56,75.01697863304088L63.24,70.89809168754383L63.919999999999995,55.167908944216364L64.6,49.04451194393184L65.28,51.99989903182869L65.96,55.430478764966836L66.64,47.5446886736743L67.32,46.12792726268009L68,32.01901984149515L68.68,40.127238607054295L69.36,43.334822385903806L70.04,45.25937265320752L70.72,61.33030086855277L71.4,52.74194709916483L72.08,60.8477677293226L72.76,70.68333791420719L73.44,60.01111680701737L74.12,56.92249678632808L74.80000000000001,66.67081018524135L75.48,60.91831281326263L76.16000000000001,57.46681439007543L76.83999999999999,48.76649004891638L77.52,45.20366060738837L78.19999999999999,54.667448353797724L78.88,53.716295714396466L79.56,46.51617884350907L80.24,42.19610872097667L80.92,36.289354003833864L81.6,29.43058852992479L82.28,33.60211969599348L82.96,29.475613108387904L83.64,33.62913444307122L84.32,37.77859472433735L85,48.555061343511L85.68,53.363576151847894L86.36,47.96191226914732L87.04,41.40620129590366L87.72,45.75954747966014L88.4,53.34363299670471L89.08,44.63523373243805L89.76,47.69696694158074L90.44,57.820779634769096L91.12,60.58037228977007L91.80000000000001,48.97727730827722L92.48,38.700707675758196L93.16000000000001,35.84947853987009L93.83999999999999,44.08287898920733L94.52,52.337631902433L95.19999999999999,53.97577100674506L95.88,41.69980389483888L96.56,37.64893627131849L97.24,43.505188464909L97.92,43.70422713743997L98.6,47.1383629845819L99.28,45.88413184924369L99.96,33.53010775671467L100.64,36.06183123206736L101.32,47.525003248149034L102,42.801403363760585L102.68,43.28195607675093L103.36,55.17177311587126L104.04,44.07475264077064L104.72,45.70333080612423L105.4,28.4495670067636L106.08,31.356141618929342L106.76,36.41479902985216L107.44,44.42207128319657L108.12,55.85584223973861L108.80000000000001,54.429332045961075L109.48,45.28665316199181L110.16000000000001,41.458393312066335L110.83999999999999,49.10557533298103L111.52,38.77768649058052L112.19999999999999,34.23830066559623L112.88,24.885243883358868L113.56,32.53226038850988L114.24,22.204272236651065L114.92,35.895755207275926L115.6,47.4253576332741L116.28,47.71369380162636L116.96,42.91461769584703L117.64,49.97930996324948L118.32,54.218125323690955L119,58.418779703123235L119.68,55.9670945239919L120.36,52.838735936057006L121.04,50.96172078329616L121.72,51.49285917209565L122.4,38.552691630881895L123.08,44.04744168064707L123.76,37.40015377963613L124.44,63.2441948316397L125.12,58.862343601101756L125.80000000000001,47.946460095076304L126.48,44.7116426350843L127.16000000000001,44.42809963954517L127.83999999999999,39.2859137181423L128.51999999999998,49.459452739794045L129.2,50.59149834599431L129.88,59.557498477417184L130.56,53.33561314494489L131.24,51.25984710862889L131.92,48.35702232367191L132.6,53.24475273994439L133.28,46.233253058837875L133.96,48.655778537420645L134.64,60.05343175544034L135.32,51.975825631302754L136,40.49983666957354L136.67999999999998,33.614243292535974L137.36,42.74173784080688L138.04,46.56086940660208L138.72,38.90821041520911L139.39999999999998,44.260752951243404L140.08,47.472278472863906L140.76,37.79770837451025L141.44,31.992966315497966L142.12,33.48218120416999L142.8,39.347787944163855L143.48,34.58036153774623L144.16,38.34933098114226L144.84,48.89750309759398L145.52,53.56904120429763L146.2,43.11311349382643L146.88,43.46898215479044L147.56,30.42365277687543L148.24,27.568532956917096L148.92,30.827521189021496L149.60000000000002,44.38441722232156L150.28,50.86118967913423L150.96,49.77519302914243L151.64,47.466229875980076L152.32000000000002,47.73821714724997L153,42.92933170322121L153.67999999999998,40.04400043680394L154.36,43.284879483744305L155.04,45.22940691190851L155.72,44.738758205639726L156.39999999999998,41.1296563382551L157.08,38.964195217824226L157.76,40.97963118918915L158.44,40.53154529155205L159.12,41.92004123342585L159.8,54.354624209876164L160.48,45.24182846034097L161.16,49.71828894148979L161.84,52.40416523017909L162.52,58.98775112747208L163.2,49.679052091354436L163.88,54.03797060055399L164.56,48.366548938370954L165.24,49.93575606514054L165.92,45.90522021712289L166.60000000000002,41.829533545144955L167.28,39.384121541958194L167.96,51.1757249145396L168.64,63.22274706216777L169.32000000000002,50.56270217171584L170,44.62402271790077L170.67999999999998,44.375527689235014L171.36,50.85585595928231L172.04,46.45728015360794L172.72,55.419620081529345L173.39999999999998,55.82496391420287L174.08,44.466667119769596L174.76,34.33697639948622L175.44,38.20329989818629L176.12,63.726082502769856L176.8,60.80884136694712L177.48,62.37320932907687L178.16,48.39561436869394L178.84,41.66642255563153L179.52,40.94362011141743L180.2,43.824651288512314L180.88,50.52533011884866L181.56,39.62953936210104L182.24,33.092064908052436L182.92,39.113718166493385L183.60000000000002,37.75463231476729L184.28,55.17009150230439L184.96,52.36053412304456L185.64,55.64685981956799L186.32000000000002,44.359804662988665L187,59.133194911237155L187.67999999999998,44.79425823753411L188.36,52.764459451429076L189.04,50.91715489251939L189.72,41.521981706759505L190.39999999999998,40.856955602094246L191.08,37.14322729567175L191.76,39.887050435897606L192.44,43.19070948320049L193.12,63.40381561015502L193.8,42.384552850094195L194.48,36.40242048130435L195.16,37.785218866821225L195.84,30.328107447717258L196.52,37.45534369029227L197.2,33.44489498542325L197.88,27.72391311887847L198.56,35.892827092988966L199.24,30.850037546585213L199.92,34.45378910598964L200.60000000000002,36.616040041632345L201.28,37.913390603017916L201.96,48.635938870719315L202.64,33.52382680643274L203.32000000000002,52.63160819730365L204,35.921228402383406L204.67999999999998,30.86707833222195L205.36,44.40815150824179L206.04,42.58865748298368L206.72,59.72787176640152L207.39999999999998,55.095202281502864L208.08,55.63031323418693L208.76,50.97930199900675L209.44,43.216635133819295L210.12,48.503172945576836L210.8,46.7030178258407L211.48,30.706726699049625L212.16,40.997227884715016L212.84,55.45830136381703L213.52,59.162885327198836L214.2,51.44149777435781L214.88,45.15130007948591L215.56,49.66397191297685L216.24,42.42743708220132L216.92,43.05757630781534L217.60000000000002,41.7783123627278L218.28,44.325466639298554L218.96,49.16847184886433L219.64,60.361047742306596L220.32000000000002,55.47510786704581L221,47.571466135098746L221.67999999999998,39.514568452307145L222.36,42.96722029304627L223.04,33.437308303452255L223.72,42.63557684735662L224.39999999999998,41.52511268645253L225.08,44.17354683353338L225.76,42.447894678158576L226.44,41.4125033849337L227.12,39.13390344583141L227.8,41.08145612599341L228.48,38.93527509046726L229.16,35.99021898869552L229.84,45.82467073895856L230.52,30.179718446920248L231.2,35.70894512664674L231.88,34.05442101040319L232.56,51.2926172392299L233.24,51.69139704565589L233.92,41.98652699864144L234.60000000000002,47.76510806447013L235.28,39.63075360992991L235.96,48.00899151169929L236.64,39.77708367826739L237.32000000000002,36.4953041413757L238,31.211523775617252" style="fill: none;" fill="none"></path></g></g></g></g><g opacity="0.2"><g><g><g><path stroke="rgb(255, 112, 67)" stroke-width="2px" d="M34.68,151.7309018572172L35.36,139.3007515470187L36.04,151.7309018572172L36.72,201.45159151156747L38.76,193.1648099025091L39.44,160.01768346627557L40.12,172.44787798325223L40.8,180.7346153855324L41.48,168.30446507533395L42.16,135.15733863910043L42.84,197.30817860364917L43.52,151.7309018572172L44.2,155.87431476513547L44.88,160.01768346627557L45.56,97.8668435017268L46.24,110.29703801870347L46.919999999999995,131.01396993796033L47.599999999999994,147.5875331560771L48.28,147.5875331560771L48.96,164.16109637419385L49.64,205.59496021270755L50.32,102.0102564096451L51,85.43669319152833L51.68,135.15733863910043L52.36,160.01768346627557L53.04,68.86312997341157L53.72,89.58006189266843L54.400000000000006,97.8668435017268L55.080000000000005,89.58006189266843L55.76,85.43669319152833L56.44,44.00278514623645L57.12,52.289566755294814L57.8,77.14991158246995L58.48,48.14619805415475L59.16,52.289566755294814L59.84,60.576348364353194L60.52,64.7197612722715L61.2,97.8668435017268L61.88,77.14991158246995L62.56,73.00649867455166L63.24,64.7197612722715L63.919999999999995,31.57263483603799L64.6,39.85941644509637L65.28,56.43297966321312L65.96,60.576348364353194L66.64,35.71600353717807L67.32,44.00278514623645L68,10.855658710002928L68.68,52.289566755294814L69.36,48.14619805415475L70.04,48.14619805415475L70.72,85.43669319152833L71.4,39.85941644509637L72.08,73.00649867455166L72.76,85.43669319152833L73.44,44.00278514623645L74.12,52.289566755294814L74.80000000000001,81.29328028361004L75.48,52.289566755294814L76.16000000000001,52.289566755294814L76.83999999999999,35.71600353717807L77.52,39.85941644509637L78.19999999999999,68.86312997341157L78.88,52.289566755294814L79.56,35.71600353717807L80.24,35.71600353717807L80.92,27.429221928119688L81.6,19.142440319061308L82.28,39.85941644509637L82.96,23.28585322697961L83.64,39.85941644509637L84.32,44.00278514623645L85,64.7197612722715L85.68,60.576348364353194L86.36,39.85941644509637L87.04,31.57263483603799L87.72,52.289566755294814L88.4,64.7197612722715L89.08,31.57263483603799L89.76,52.289566755294814L90.44,73.00649867455166L91.12,64.7197612722715L91.80000000000001,31.57263483603799L92.48,23.28585322697961L93.16000000000001,31.57263483603799L93.83999999999999,56.43297966321312L94.52,64.7197612722715L95.19999999999999,56.43297966321312L95.88,23.28585322697961L96.56,31.57263483603799L97.24,52.289566755294814L97.92,44.00278514623645L98.6,52.289566755294814L99.28,44.00278514623645L99.96,14.999071617921231L100.64,39.85941644509637L101.32,64.7197612722715L102,35.71600353717807L102.68,44.00278514623645L103.36,73.00649867455166L104.04,27.429221928119688L104.72,48.14619805415475L105.4,2.5689213077227464L106.08,35.71600353717807L106.76,44.00278514623645L107.44,56.43297966321312L108.12,73.00649867455166L108.80000000000001,52.289566755294814L109.48,31.57263483603799L110.16000000000001,35.71600353717807L110.83999999999999,60.576348364353194L111.52,23.28585322697961L112.19999999999999,27.429221928119688L112.88,10.855658710002928L113.56,44.00278514623645L114.24,6.712290008862851L114.92,56.43297966321312L115.6,64.7197612722715L116.28,48.14619805415475L116.96,35.71600353717807L117.64,60.576348364353194L118.32,60.576348364353194L119,64.7197612722715L119.68,52.289566755294814L120.36,48.14619805415475L121.04,48.14619805415475L121.72,52.289566755294814L122.4,19.142440319061308L123.08,52.289566755294814L123.76,27.429221928119688L124.44,102.0102564096451L125.12,52.289566755294814L125.80000000000001,31.57263483603799L126.48,39.85941644509637L127.16000000000001,44.00278514623645L127.83999999999999,31.57263483603799L128.51999999999998,64.7197612722715L129.2,52.289566755294814L129.88,73.00649867455166L130.56,44.00278514623645L131.24,48.14619805415475L131.92,44.00278514623645L132.6,60.576348364353194L133.28,35.71600353717807L133.96,52.289566755294814L134.64,77.14991158246995L135.32,39.85941644509637L136,23.28585322697961L136.67999999999998,23.28585322697961L137.36,56.43297966321312L138.04,52.289566755294814L138.72,27.429221928119688L139.39999999999998,52.289566755294814L140.08,52.289566755294814L140.76,23.28585322697961L141.44,23.28585322697961L142.12,35.71600353717807L142.8,48.14619805415475L143.48,27.429221928119688L144.16,44.00278514623645L144.84,64.7197612722715L145.52,60.576348364353194L146.2,27.429221928119688L146.88,44.00278514623645L147.56,10.855658710002928L148.24,23.28585322697961L148.92,35.71600353717807L149.60000000000002,64.7197612722715L150.28,60.576348364353194L150.96,48.14619805415475L151.64,44.00278514623645L152.32000000000002,48.14619805415475L153,35.71600353717807L153.67999999999998,35.71600353717807L154.36,48.14619805415475L155.04,48.14619805415475L155.72,44.00278514623645L156.39999999999998,35.71600353717807L157.08,35.71600353717807L157.76,44.00278514623645L158.44,39.85941644509637L159.12,44.00278514623645L159.8,73.00649867455166L160.48,31.57263483603799L161.16,56.43297966321312L161.84,56.43297966321312L162.52,68.86312997341157L163.2,35.71600353717807L163.88,60.576348364353194L164.56,39.85941644509637L165.24,52.289566755294814L165.92,39.85941644509637L166.60000000000002,35.71600353717807L167.28,35.71600353717807L167.96,68.86312997341157L168.64,81.29328028361004L169.32000000000002,31.57263483603799L170,35.71600353717807L170.67999999999998,44.00278514623645L171.36,60.576348364353194L172.04,39.85941644509637L172.72,68.86312997341157L173.39999999999998,56.43297966321312L174.08,27.429221928119688L174.76,19.142440319061308L175.44,44.00278514623645L176.12,102.0102564096451L176.8,56.43297966321312L177.48,64.7197612722715L178.16,27.429221928119688L178.84,31.57263483603799L179.52,39.85941644509637L180.2,48.14619805415475L180.88,60.576348364353194L181.56,23.28585322697961L182.24,23.28585322697961L182.92,48.14619805415475L183.60000000000002,35.71600353717807L184.28,81.29328028361004L184.96,48.14619805415475L185.64,60.576348364353194L186.32000000000002,27.429221928119688L187,81.29328028361004L187.67999999999998,23.28585322697961L188.36,64.7197612722715L189.04,48.14619805415475L189.72,27.429221928119688L190.39999999999998,39.85941644509637L191.08,31.57263483603799L191.76,44.00278514623645L192.44,48.14619805415475L193.12,93.72347480058671L193.8,10.855658710002928L194.48,27.429221928119688L195.16,39.85941644509637L195.84,19.142440319061308L196.52,48.14619805415475L197.2,27.429221928119688L197.88,19.142440319061308L198.56,48.14619805415475L199.24,23.28585322697961L199.92,39.85941644509637L200.60000000000002,39.85941644509637L201.28,39.85941644509637L201.96,64.7197612722715L202.64,10.855658710002928L203.32000000000002,81.29328028361004L204,10.855658710002928L204.67999999999998,23.28585322697961L205.36,64.7197612722715L206.04,39.85941644509637L206.72,85.43669319152833L207.39999999999998,48.14619805415475L208.08,56.43297966321312L208.76,44.00278514623645L209.44,31.57263483603799L210.12,56.43297966321312L210.8,44.00278514623645L211.48,6.712290008862851L212.16,56.43297966321312L212.84,77.14991158246995L213.52,64.7197612722715L214.2,39.85941644509637L214.88,35.71600353717807L215.56,56.43297966321312L216.24,31.57263483603799L216.92,44.00278514623645L217.60000000000002,39.85941644509637L218.28,48.14619805415475L218.96,56.43297966321312L219.64,77.14991158246995L220.32000000000002,48.14619805415475L221,35.71600353717807L221.67999999999998,27.429221928119688L222.36,48.14619805415475L223.04,19.142440319061308L223.72,56.43297966321312L224.39999999999998,39.85941644509637L225.08,48.14619805415475L225.76,39.85941644509637L226.44,39.85941644509637L227.12,35.71600353717807L227.8,44.00278514623645L228.48,35.71600353717807L229.16,31.57263483603799L229.84,60.576348364353194L230.52,6.712290008862851L231.2,44.00278514623645L231.88,31.57263483603799L232.56,77.14991158246995L233.24,52.289566755294814L233.92,27.429221928119688L234.60000000000002,56.43297966321312L235.28,27.429221928119688L235.96,60.576348364353194L236.64,27.429221928119688L237.32000000000002,31.57263483603799L238,23.28585322697961" style="fill: none;" fill="none"></path></g></g></g></g></g></g><g transform="translate(58, 178)" clip-path="url(#clip_1)"><clipPath id="clip_1"><rect width="272" height="22"></rect></clipPath><g><g><line x1="0" y1="0" x2="0" y2="5" style="visibility: inherit;" fill="rgb(0, 0, 0)" stroke="rgb(204, 204, 204)" stroke-width="1px"></line><line x1="34" y1="0" x2="34" y2="5" style="visibility: inherit;" fill="rgb(0, 0, 0)" stroke="rgb(204, 204, 204)" stroke-width="1px"></line><line x1="68" y1="0" x2="68" y2="5" style="visibility: inherit;" fill="rgb(0, 0, 0)" stroke="rgb(204, 204, 204)" stroke-width="1px"></line><line x1="102" y1="0" x2="102" y2="5" style="visibility: inherit;" fill="rgb(0, 0, 0)" stroke="rgb(204, 204, 204)" stroke-width="1px"></line><line x1="136" y1="0" x2="136" y2="5" style="visibility: inherit;" fill="rgb(0, 0, 0)" stroke="rgb(204, 204, 204)" stroke-width="1px"></line><line x1="170" y1="0" x2="170" y2="5" style="visibility: inherit;" fill="rgb(0, 0, 0)" stroke="rgb(204, 204, 204)" stroke-width="1px"></line><line x1="204" y1="0" x2="204" y2="5" style="visibility: inherit;" fill="rgb(0, 0, 0)" stroke="rgb(204, 204, 204)" stroke-width="1px"></line><line x1="238" y1="0" x2="238" y2="5" style="visibility: inherit;" fill="rgb(0, 0, 0)" stroke="rgb(204, 204, 204)" stroke-width="1px"></line><line x1="272" y1="0" x2="272" y2="5" style="visibility: inherit;" fill="rgb(0, 0, 0)" stroke="rgb(204, 204, 204)" stroke-width="1px"></line></g><g transform="translate(0, 8)"><text x="0" y="0" dx="0em" dy="0.95em" style="text-anchor: middle; visibility: hidden; font-family: &quot;Helvetica Neue&quot;, sans-serif; font-size: 12px; font-weight: 200;" fill="rgb(50, 49, 63)" stroke="none" stroke-width="1px">-50</text><text x="34" y="0" dx="0em" dy="0.95em" style="text-anchor: middle; visibility: inherit; font-family: &quot;Helvetica Neue&quot;, sans-serif; font-size: 12px; font-weight: 200;" fill="rgb(50, 49, 63)" stroke="none" stroke-width="1px">0</text><text x="68" y="0" dx="0em" dy="0.95em" style="text-anchor: middle; visibility: inherit; font-family: &quot;Helvetica Neue&quot;, sans-serif; font-size: 12px; font-weight: 200;" fill="rgb(50, 49, 63)" stroke="none" stroke-width="1px">50</text><text x="102" y="0" dx="0em" dy="0.95em" style="text-anchor: middle; visibility: inherit; font-family: &quot;Helvetica Neue&quot;, sans-serif; font-size: 12px; font-weight: 200;" fill="rgb(50, 49, 63)" stroke="none" stroke-width="1px">100</text><text x="136" y="0" dx="0em" dy="0.95em" style="text-anchor: middle; visibility: inherit; font-family: &quot;Helvetica Neue&quot;, sans-serif; font-size: 12px; font-weight: 200;" fill="rgb(50, 49, 63)" stroke="none" stroke-width="1px">150</text><text x="170" y="0" dx="0em" dy="0.95em" style="text-anchor: middle; visibility: inherit; font-family: &quot;Helvetica Neue&quot;, sans-serif; font-size: 12px; font-weight: 200;" fill="rgb(50, 49, 63)" stroke="none" stroke-width="1px">200</text><text x="204" y="0" dx="0em" dy="0.95em" style="text-anchor: middle; visibility: inherit; font-family: &quot;Helvetica Neue&quot;, sans-serif; font-size: 12px; font-weight: 200;" fill="rgb(50, 49, 63)" stroke="none" stroke-width="1px">250</text><text x="238" y="0" dx="0em" dy="0.95em" style="text-anchor: middle; visibility: inherit; font-family: &quot;Helvetica Neue&quot;, sans-serif; font-size: 12px; font-weight: 200;" fill="rgb(50, 49, 63)" stroke="none" stroke-width="1px">300</text><text x="272" y="0" dx="0em" dy="0.95em" style="text-anchor: middle; visibility: hidden; font-family: &quot;Helvetica Neue&quot;, sans-serif; font-size: 12px; font-weight: 200;" fill="rgb(50, 49, 63)" stroke="none" stroke-width="1px">350</text></g><line x1="0" y1="0" x2="272" y2="0" fill="rgb(0, 0, 0)" stroke="rgb(204, 204, 204)" stroke-width="1px"></line></g></g></g></g></svg>