<svg viewBox="0 0 330 200" xmlns="http://www.w3.org/2000/svg"><g><g><g><g><g><line x1="58" y1="178" x2="53" y2="178" style="visibility: inherit;" fill="rgb(0, 0, 0)" stroke="rgb(204, 204, 204)" stroke-width="1px"></line><line x1="58" y1="160.2" x2="53" y2="160.2" style="visibility: inherit;" fill="rgb(0, 0, 0)" stroke="rgb(204, 204, 204)" stroke-width="1px"></line><line x1="58" y1="142.39999999999998" x2="53" y2="142.39999999999998" style="visibility: inherit;" fill="rgb(0, 0, 0)" stroke="rgb(204, 204, 204)" stroke-width="1px"></line><line x1="58" y1="124.59999999999997" x2="53" y2="124.59999999999997" style="visibility: inherit;" fill="rgb(0, 0, 0)" stroke="rgb(204, 204, 204)" stroke-width="1px"></line><line x1="58" y1="106.79999999999995" x2="53" y2="106.79999999999995" style="visibility: inherit;" fill="rgb(0, 0, 0)" stroke="rgb(204, 204, 204)" stroke-width="1px"></line><line x1="58" y1="89.00000000000004" x2="53" y2="89.00000000000004" style="visibility: inherit;" fill="rgb(0, 0, 0)" stroke="rgb(204, 204, 204)" stroke-width="1px"></line><line x1="58" y1="71.20000000000005" x2="53" y2="71.20000000000005" style="visibility: inherit;" fill="rgb(0, 0, 0)" stroke="rgb(204, 204, 204)" stroke-width="1px"></line><line x1="58" y1="53.400000000000034" x2="53" y2="53.400000000000034" style="visibility: inherit;" fill="rgb(0, 0, 0)" stroke="rgb(204, 204, 204)" stroke-width="1px"></line><line x1="58" y1="35.60000000000002" x2="53" y2="35.60000000000002" style="visibility: inherit;" fill="rgb(0, 0, 0)" stroke="rgb(204, 204, 204)" stroke-width="1px"></line><line x1="58" y1="17.80000000000001" x2="53" y2="17.80000000000001" style="visibility: inherit;" fill="rgb(0, 0, 0)" stroke="rgb(204, 204, 204)" stroke-width="1px"></line><line x1="58" y1="0" x2="53" y2="0" style="visibility: inherit;" fill="rgb(0, 0, 0)" stroke="rgb(204, 204, 204)" stroke-width="1px"></line></g><g transform="translate(48, 0)"><text x="0" y="178" dx="0em" dy="0.3em" style="text-anchor: end; visibility: hidden; font-family: &quot;Helvetica Neue&quot;, sans-serif; font-size: 12px; font-weight: 200;" fill="rgb(50, 49, 63)" stroke="none" stroke-width="1px">0.48</text><text x="0" y="160.2" dx="0em" dy="0.3em" style="text-anchor: end; visibility: inherit; font-family: &quot;Helvetica Neue&quot;, sans-serif; font-size: 12px; font-weight: 200;" fill="rgb(50, 49, 63)" stroke="none" stroke-width="1px">0.5</text><text x="0" y="142.39999999999998" dx="0em" dy="0.3em" style="text-anchor: end; visibility: hidden; font-family: &quot;Helvetica Neue&quot;, sans-serif; font-size: 12px; font-weight: 200;" fill="rgb(50, 49, 63)" stroke="none" stroke-width="1px">0.52</text><text x="0" y="124.59999999999997" dx="0em" dy="0.3em" style="text-anchor: end; visibility: inherit; font-family: &quot;Helvetica Neue&quot;, sans-serif; font-size: 12px; font-weight: 200;" fill="rgb(50, 49, 63)" stroke="none" stroke-width="1px">0.54</text><text x="0" y="106.79999999999995" dx="0em" dy="0.3em" style="text-anchor: end; visibility: hidden; font-family: &quot;Helvetica Neue&quot;, sans-serif; font-size: 12px; font-weight: 200;" fill="rgb(50, 49, 63)" stroke="none" stroke-width="1px">0.56</text><text x="0" y="89.00000000000004" dx="0em" dy="0.3em" style="text-anchor: end; visibility: inherit; font-family: &quot;Helvetica Neue&quot;, sans-serif; font-size: 12px; font-weight: 200;" fill="rgb(50, 49, 63)" stroke="none" stroke-width="1px">0.58</text><text x="0" y="71.20000000000005" dx="0em" dy="0.3em" style="text-anchor: end; visibility: hidden; font-family: &quot;Helvetica Neue&quot;, sans-serif; font-size: 12px; font-weight: 200;" fill="rgb(50, 49, 63)" stroke="none" stroke-width="1px">0.6</text><text x="0" y="53.400000000000034" dx="0em" dy="0.3em" style="text-anchor: end; visibility: inherit; font-family: &quot;Helvetica Neue&quot;, sans-serif; font-size: 12px; font-weight: 200;" fill="rgb(50, 49, 63)" stroke="none" stroke-width="1px">0.62</text><text x="0" y="35.60000000000002" dx="0em" dy="0.3em" style="text-anchor: end; visibility: hidden; font-family: &quot;Helvetica Neue&quot;, sans-serif; font-size: 12px; font-weight: 200;" fill="rgb(50, 49, 63)" stroke="none" stroke-width="1px">0.64</text><text x="0" y="17.80000000000001" dx="0em" dy="0.3em" style="text-anchor: end; visibility: inherit; font-family: &quot;Helvetica Neue&quot;, sans-serif; font-size: 12px; font-weight: 200;" fill="rgb(50, 49, 63)" stroke="none" stroke-width="1px">0.66</text><text x="0" y="0" dx="0em" dy="0.3em" style="text-anchor: end; visibility: hidden; font-family: &quot;Helvetica Neue&quot;, sans-serif; font-size: 12px; font-weight: 200;" fill="rgb(50, 49, 63)" stroke="none" stroke-width="1px">0.68</text></g><line x1="58" y1="0" x2="58" y2="178" fill="rgb(0, 0, 0)" stroke="rgb(204, 204, 204)" stroke-width="1px"></line></g></g><g transform="translate(58, 0)" clip-path="url(#clip_0)"><clipPath id="clip_0"><rect width="272" height="178"></rect></clipPath><g><g><g><line x1="0" y1="0" x2="0" y2="178" fill="rgb(0, 0, 0)" stroke="rgb(60, 60, 60)" stroke-width="1px" opacity="0.25"></line><line x1="34" y1="0" x2="34" y2="178" fill="rgb(0, 0, 0)" stroke="rgb(60, 60, 60)" stroke-width="1px" opacity="0.25"></line><line x1="68" y1="0" x2="68" y2="178" fill="rgb(0, 0, 0)" stroke="rgb(60, 60, 60)" stroke-width="1px" opacity="0.25"></line><line x1="102" y1="0" x2="102" y2="178" fill="rgb(0, 0, 0)" stroke="rgb(60, 60, 60)" stroke-width="1px" opacity="0.25"></line><line x1="136" y1="0" x2="136" y2="178" fill="rgb(0, 0, 0)" stroke="rgb(60, 60, 60)" stroke-width="1px" opacity="0.25"></line><line x1="170" y1="0" x2="170" y2="178" fill="rgb(0, 0, 0)" stroke="rgb(60, 60, 60)" stroke-width="1px" opacity="0.25"></line><line x1="204" y1="0" x2="204" y2="178" fill="rgb(0, 0, 0)" stroke="rgb(60, 60, 60)" stroke-width="1px" opacity="0.25"></line><line x1="238" y1="0" x2="238" y2="178" fill="rgb(0, 0, 0)" stroke="rgb(60, 60, 60)" stroke-width="1px" opacity="0.25"></line><line x1="272" y1="0" x2="272" y2="178" fill="rgb(0, 0, 0)" stroke="rgb(60, 60, 60)" stroke-width="1px" opacity="0.25"></line></g><g><line x1="0" y1="178" x2="272" y2="178" fill="rgb(0, 0, 0)" stroke="rgb(60, 60, 60)" stroke-width="1px" opacity="0.25"></line><line x1="0" y1="160.2" x2="272" y2="160.2" fill="rgb(0, 0, 0)" stroke="rgb(60, 60, 60)" stroke-width="1px" opacity="0.25"></line><line x1="0" y1="142.39999999999998" x2="272" y2="142.39999999999998" fill="rgb(0, 0, 0)" stroke="rgb(60, 60, 60)" stroke-width="1px" opacity="0.25"></line><line x1="0" y1="124.59999999999997" x2="272" y2="124.59999999999997" fill="rgb(0, 0, 0)" stroke="rgb(60, 60, 60)" stroke-width="1px" opacity="0.25"></line><line x1="0" y1="106.79999999999995" x2="272" y2="106.79999999999995" fill="rgb(0, 0, 0)" stroke="rgb(60, 60, 60)" stroke-width="1px" opacity="0.25"></line><line x1="0" y1="89.00000000000004" x2="272" y2="89.00000000000004" fill="rgb(0, 0, 0)" stroke="rgb(60, 60, 60)" stroke-width="1px" opacity="0.25"></line><line x1="0" y1="71.20000000000005" x2="272" y2="71.20000000000005" fill="rgb(0, 0, 0)" stroke="rgb(60, 60, 60)" stroke-width="1px" opacity="0.25"></line><line x1="0" y1="53.400000000000034" x2="272" y2="53.400000000000034" fill="rgb(0, 0, 0)" stroke="rgb(60, 60, 60)" stroke-width="1px" opacity="0.25"></line><line x1="0" y1="35.60000000000002" x2="272" y2="35.60000000000002" fill="rgb(0, 0, 0)" stroke="rgb(60, 60, 60)" stroke-width="1px" opacity="0.25"></line><line x1="0" y1="17.80000000000001" x2="272" y2="17.80000000000001" fill="rgb(0, 0, 0)" stroke="rgb(60, 60, 60)" stroke-width="1px" opacity="0.25"></line><line x1="0" y1="0" x2="272" y2="0" fill="rgb(0, 0, 0)" stroke="rgb(60, 60, 60)" stroke-width="1px" opacity="0.25"></line></g></g></g><g><g><line x1="0" y1="605.1999999999998" x2="272" y2="605.1999999999998" fill="rgb(0, 0, 0)" stroke="rgb(153, 153, 153)" stroke-width="1.5px"></line></g></g><g><g><line x1="34" y1="0" x2="34" y2="178" fill="rgb(0, 0, 0)" stroke="rgb(153, 153, 153)" stroke-width="1.5px"></line></g></g><g><g><g><g><g><path style="fill: none;" stroke="rgb(255, 112, 67)" stroke-width="2px" d="M34.68,23.819507551193283L35.36,37.61182342171671L36.04,38.36390927957038L36.72,5.4320940661080215L37.400000000000006,21.687991013599856L38.080000000000005,-26.035101611366287L38.76,8.98432766954312L39.44,36.076669442596966L40.12,32.90385562765516L40.8,43.50426075327988L41.48,25.894758171204955L42.16,24.19178908592309L42.84,48.03800649162534L43.52,42.13635617711938L44.2,60.500295681434494L44.88,51.912342989962994L45.56,61.962664678813965L46.24,66.79534823945193L46.919999999999995,82.95612777184093L47.599999999999994,102.44766127520072L48.28,62.04915798434155L48.96,62.006619904005504L49.64,95.8116873269939L50.32,83.16239523093826L51,74.48751164821125L51.68,87.5744950264302L52.36,101.74396729935017L53.04,90.22827650804055L53.72,80.33361355568665L54.400000000000006,77.33250249382459L55.080000000000005,96.62205833808746L55.76,88.81357078047981L56.44,59.383390315258126L57.12,84.31911617190336L57.8,69.61550378837403L58.48,65.59499901462105L59.16,49.78594159075155L59.84,48.60801474484629L60.52,60.24838157524948L61.2,80.88439038669051L61.88,97.65829626519745L62.56,115.7820093516261L63.24,96.64412814802193L63.919999999999995,90.43601781753192L64.6,70.9626248066896L65.28,75.75005578221584L65.96,100.03804600342622L66.64,89.20602517642804L67.32,103.02146822303209L68,100.88658477596508L68.68,62.34831642210911L69.36,103.93537881327114L70.04,85.66490921465807L70.72,81.68272212676736L71.4,82.710452367858L72.08,108.50424409986259L72.76,142.39191373516334L73.44,113.15254100041717L74.12,116.91209304736358L74.80000000000001,111.49267173532412L75.48,89.8654848904828L76.16000000000001,108.8716380507604L76.83999999999999,98.57074963991963L77.52,90.38726759401035L78.19999999999999,85.42258122710628L78.88,103.66962213485388L79.56,86.78996272068588L80.24,108.30641865719187L80.92,93.27987177842158L81.6,89.4345876960354L82.28,121.92437247445567L82.96,110.5310841131829L83.64,124.12526303581127L84.32,109.79137746603338L85,130.24756730145842L85.68,141.00518675653123L86.36,133.5036219645022L87.04,140.17495958617204L87.72,170.74405539876741L88.4,124.4984550574215L89.08,140.61523870103304L89.76,123.04823260469884L90.44,103.9691679105976L91.12,121.85261521970145L91.80000000000001,84.27945069691494L92.48,90.87656822813122L93.16000000000001,122.37792849428995L93.83999999999999,130.1129294198009L94.52,90.43802821882088L95.19999999999999,75.05048952727033L95.88,30.277371734550627L96.56,15.194833790165802L97.24,51.920503284277046L97.92,73.36365439518778L98.6,84.93697423234276L99.28,77.10578770217117L99.96,76.16337170348655L100.64,106.80906750527679L101.32,117.7723137770156L102,111.12459787810207L102.68,78.68419588735318L103.36,92.36345263678204L104.04,102.33600297664634L104.72,111.30062611040488L105.4,79.07255938015592L106.08,163.60720135666256L106.76,118.28931612191991L107.44,127.12768921386244L108.12,115.41692460734274L108.80000000000001,131.89165912841935L109.48,120.71267733320697L110.16000000000001,110.7121025451726L110.83999999999999,113.49536157898348L111.52,141.1512742641702L112.19999999999999,101.61496278543093L112.88,140.3026078325439L113.56,116.33055612217947L114.24,92.25390325529318L114.92,112.29161753262838L115.6,112.21649185899348L116.28,118.39636033107908L116.96,126.31742786246579L117.64,113.1734740953329L118.32,130.37939962748786L119,155.88882142188612L119.68,88.05021397282165L120.36,128.7470449495881L121.04,107.53000895789677L121.72,97.11366208440901L122.4,144.41891577748558L123.08,145.28358197038233L123.76,144.637593201547L124.44,113.3331655858452L125.12,139.09590760937306L125.80000000000001,132.53033359569892L126.48,77.05445130182858L127.16000000000001,96.9465568799588L127.83999999999999,117.37571766488627L128.51999999999998,102.39934196062609L129.2,79.86241318456963L129.88,65.7289716629543L130.56,89.31514563014254L131.24,76.19575926452964L131.92,93.23852301591687L132.6,80.68743451687136L133.28,48.199013692453065L133.96,75.96329709906254L134.64,49.23142191063684L135.32,77.89252167398523L136,59.22609673890351L136.67999999999998,42.27824306340739L137.36,46.33988373668035L138.04,57.34454492325203L138.72,79.48066277739181L139.39999999999998,62.46739301822649L140.08,81.97733525360867L140.76,110.172061066182L141.44,110.93455151817294L142.12,94.7367141777342L142.8,134.4395099529067L143.48,121.61735080054041L144.16,140.02646383744857L144.84,118.01624959649072L145.52,95.51305364812276L146.2,44.244281077652346L146.88,98.88181314007583L147.56,104.5180745001801L148.24,106.56607391573002L148.92,92.04437336288105L149.60000000000002,84.34015878297215L150.28,96.28990948830442L150.96,118.4805724229478L151.64,69.44425192392255L152.32000000000002,42.052611706950614L153,50.399827197967994L153.67999999999998,20.80746875034515L154.36,54.557378045479894L155.04,82.39596526608494L155.72,85.09878142825147L156.39999999999998,74.17125604719752L157.08,80.01064679009218L157.76,46.888321839466755L158.44,65.65096493404812L159.12,64.07888083840437L159.8,101.21846128693235L160.48,90.57472361320865L161.16,65.80369535681376L161.84,89.156593301277L162.52,70.36678239487449L163.2,60.132469520466515L163.88,73.71895498841822L164.56,78.10551094776294L165.24,45.23419583181084L165.92,90.37779484474387L166.60000000000002,88.98105315615973L167.28,80.54469051987076L167.96,31.91739008325422L168.64,42.56636582790668L169.32000000000002,24.177710627191402L170,47.233121003313784L170.67999999999998,67.02568848943947L171.36,100.98075349817424L172.04,94.65577013784494L172.72,75.73766958888675L173.39999999999998,22.344168573476765L174.08,25.331273482953208L174.76,48.97998293323195L175.44,39.97834690143398L176.12,93.54403698760115L176.8,86.77107463549287L177.48,51.89749278468321L178.16,47.23259669925227L178.84,61.030743808659636L179.52,46.02748514360948L180.2,50.071721160094555L180.88,61.13736356000942L181.56,63.41721092165017L182.24,26.012450500133724L182.92,54.51050768602083L183.60000000000002,53.04347123568169L184.28,71.9145973841245L184.96,69.89008674620955L185.64,75.67236556052781L186.32000000000002,84.93573490524061L187,90.74371931876999L187.67999999999998,150.07097548679266L188.36,112.91165446779574L189.04,95.91554920876885L189.72,98.02878769519845L190.39999999999998,67.2148320977862L191.08,49.11254305749992L191.76,73.68301553672474L192.44,63.170037364637366L193.12,92.12035311679568L193.8,43.895464099767935L194.48,27.77910297234243L195.16,54.37490032863252L195.84,55.64613020152824L196.52,51.42949443179958L197.2,38.844812118521844L197.88,49.33227797240707L198.56,57.8079003852051L199.24,88.15307641276374L199.92,67.08786342769065L200.60000000000002,69.86978570836305L201.28,88.77156170021009L201.96,114.76534941560335L202.64,131.29569358567178L203.32000000000002,77.72372913205487L204,98.60882308866896L204.67999999999998,62.08039235822157L205.36,53.31231119961622L206.04,68.68478879649095L206.72,85.15259217094575L207.39999999999998,99.81872513098234L208.08,82.65463237168031L208.76,108.83960638643285L209.44,86.01114277244203L210.12,42.2109249651468L210.8,93.13636927008845L211.48,38.05323243737354L212.16,30.878702243567346L212.84,5.1013939192299915L213.52,32.197712295675586L214.2,37.0121296414282L214.88,42.13820179990208L215.56,96.21619888240858L216.24,120.01295781668875L216.92,141.23092919192823L217.60000000000002,119.69608689786267L218.28,133.76660250569148L218.96,115.45987841930847L219.64,116.46862656025206L220.32000000000002,110.70865108339855L221,82.15856436830089L221.67999999999998,68.40952454055146L222.36,80.84910625722884L223.04,49.215383334796854L223.72,69.52582283725816L224.39999999999998,80.79951010173849L225.08,91.27736768022946L225.76,85.25194986877302L226.44,142.00706694732582L227.12,135.51368729478406L227.8,134.36805670861182L228.48,76.56481360318531L229.16,67.6168994171755L229.84,106.261338790854L230.52,107.36351259267344L231.2,83.98758280584823L231.88,102.86602116292484L232.56,90.97357648292649L233.24,98.58595770883244L233.92,109.46063980512429L234.60000000000002,87.68664621026879L235.28,79.27529284662937L235.96,100.44928218190033L236.64,106.12085126676648L237.32000000000002,87.26634475969365L238,73.12827602734023" fill="none"></path></g></g></g></g><g opacity="0.2"><g><g><g><path style="fill: none;" stroke="rgb(255, 112, 67)" stroke-width="2px" d="M34.68,23.819507551193283L35.36,45.88721294403078L36.04,39.08591170310976L36.72,-33.29572062492363L37.400000000000006,42.91169006824495L38.080000000000005,-92.05331902503963L38.76,59.06267185211183L39.44,75.57756383419039L40.12,28.224571537971542L40.8,59.24462695121767L41.48,-0.3597788095473504L42.16,21.646602940559433L42.84,83.72947056293489L43.52,33.29544265270235L44.2,88.02461881637575L44.88,39.03647084236147L45.56,77.03389425277712L46.24,74.04314656257631L46.919999999999995,107.19483513832093L47.599999999999994,131.68317992687224L48.28,1.4536185979843594L48.96,61.942814183235186L49.64,146.51862103939055L50.32,64.18860692977907L51,61.475247931480425L51.68,107.20491428375244L52.36,122.99813945293427L53.04,72.95475800037386L53.72,65.49162824153902L54.400000000000006,72.83083755970003L55.080000000000005,125.55638570785523L55.76,77.10084099769594L56.44,15.238123130798385L57.12,121.72270317077637L57.8,47.56008584499361L58.48,59.56424195766451L59.16,26.07235569953923L59.84,46.841124486923235L60.52,77.70893175601961L61.2,111.83840353488922L61.88,122.81915504932404L62.56,142.96757895946502L63.24,67.93730635643007L63.919999999999995,81.1238523244858L64.6,41.75253529548647L65.28,82.93120224475862L65.96,136.47003133296965L66.64,72.95799393653871L67.32,123.74463279247284L68,97.68425960540773L68.68,4.540913891792343L69.36,166.3159723997116L70.04,58.259204816818254L70.72,75.70944149494173L71.4,84.2520477294922L72.08,147.19493169784545L72.76,193.22341818809508L73.44,69.29348189830782L74.12,122.5514211177826L74.80000000000001,103.36353976726534L75.48,57.42470462322237L76.16000000000001,137.38086779117583L76.83999999999999,83.11941702365877L77.52,78.1120445251465L78.19999999999999,77.9755516767502L78.88,131.0401834964752L79.56,61.470473599433916L80.24,140.58110256195067L80.92,70.74005146026613L81.6,83.66666157245638L82.28,170.65904964208602L82.96,93.44115157127382L83.64,144.51653141975402L84.32,88.29054911136629L85,160.93185205459594L85.68,157.1416159391403L86.36,122.25127477645874L87.04,150.18196601867675L87.72,216.59769911766048L88.4,55.130054545402544L89.08,164.7904141664505L89.76,96.69772346019747L90.44,75.35057086944582L91.12,148.67778618335723L91.80000000000001,27.91970391273503L92.48,100.77224452495577L93.16000000000001,169.62996889352797L93.83999999999999,141.7154308080673L94.52,30.925676417350786L95.19999999999999,51.969181489944475L95.88,-36.882304954528735L96.56,-7.428973126411364L97.24,107.00900752544403L97.92,105.52838106155396L98.6,102.29695398807527L99.28,65.35900790691377L99.96,74.74974770545961L100.64,152.77761120796202L101.32,134.2171831846237L102,101.15302402973177L102.68,30.023592901229875L103.36,112.8823377609253L104.04,117.29482848644257L104.72,124.74756081104279L105.4,30.730459284782427L106.08,290.4091643214225L106.76,50.312488269805925L107.44,140.3852488517761L108.12,97.85077769756319L108.80000000000001,156.60376091003417L109.48,103.94420464038849L110.16000000000001,95.71124036312105L110.83999999999999,117.67025012969971L111.52,182.63514329195021L112.19999999999999,42.310495567321794L112.88,198.3340754032135L113.56,80.37247855663301L114.24,56.1389239549637L114.92,142.34818894863128L115.6,112.10380334854126L116.28,127.66616303920746L116.96,138.1990291595459L117.64,93.4575434446335L118.32,156.1882879257202L119,194.15295411348342L120.36,189.7922914147377L121.04,75.70445497035982L121.72,81.48914177417757L122.4,215.37679631710049L123.08,146.58058125972747L123.76,143.66861004829406L124.44,66.3765241622925L125.12,177.74002064466475L125.80000000000001,122.68197257518769L126.48,-6.159372138976977L127.16000000000001,126.78471524715424L127.83999999999999,148.01945884227752L128.51999999999998,79.93477840423586L129.2,46.05702002048494L129.88,44.52880938053133L130.56,124.69440658092499L131.24,56.51667971611025L131.92,118.80266864299774L132.6,61.860801768302935L133.28,-0.5336175441741204L133.96,117.60972220897675L134.64,9.133609127998398L135.32,120.88417131900788L136,31.22645933628084L136.67999999999998,16.856462550163315L137.36,52.43234474658968L138.04,73.85153670310976L138.72,112.68483955860138L139.39999999999998,36.94748837947847L140.08,111.24224860668183L140.76,152.4641497850418L141.44,112.07828719615937L142.12,70.43995816707613L142.8,193.99370361566542L143.48,102.38411207199098L144.16,167.6401333928108L144.84,85.00092823505403L145.52,61.758259725570696L146.2,-32.65887777805321L146.88,180.83811123371123L147.56,112.97246654033661L148.24,109.63807303905487L148.92,70.2618225336075L149.60000000000002,72.78383691310884L150.28,114.2145355463028L150.96,151.766566824913L151.64,-4.110228824615405L152.32000000000002,0.9651513814926602L153,62.920650434494036L153.67999999999998,-23.5810689210891L154.36,105.18224198818207L155.04,124.1538460969925L155.72,89.15300567150118L156.39999999999998,57.77996797561647L157.08,88.76973290443422L157.76,-2.7951655864714837L158.44,93.79492957592012L159.12,61.72075469493868L159.8,156.92783195972441L160.48,74.609117102623L161.16,28.64715297222142L161.84,124.1859402179718L162.52,42.18206603527071L163.2,44.78100020885469L163.88,94.09868319034578L164.56,84.6853448867798L165.24,-4.072776842117236L165.92,158.09319336414336L166.60000000000002,86.8859406232834L167.28,67.89014656543733L167.96,-41.02356057167046L168.64,58.53982944488527L169.32000000000002,-3.405272173881457L170,81.81623656749727L170.67999999999998,96.71453971862795L171.36,151.91335101127623L172.04,85.16829509735109L172.72,47.36051876544954L173.39999999999998,-57.74608294963829L174.08,29.811930847167986L174.76,84.45304710865022L175.44,26.475892853736923L176.12,173.8925721168518L176.8,76.61163110733034L177.48,-0.4128799915312982L178.16,40.235252571105974L178.84,81.72796447277071L179.52,23.522597146034286L180.2,56.1380751848221L180.88,77.73582715988161L181.56,66.83698196411135L182.24,-30.09469013214104L182.92,97.2575934648514L183.60000000000002,50.84291656017305L184.28,100.22128660678865L184.96,66.85332078933718L185.64,84.34578378200533L186.32000000000002,98.83078892230989L187,99.45569593906404L187.67999999999998,239.0618597388267L188.36,57.172672939300554L189.04,70.4213913202286L189.72,101.19864542484285L190.39999999999998,20.99389870166783L191.08,21.959109497070358L191.76,110.53872425556183L192.44,47.400570106506365L193.12,135.54582674503325L193.8,-28.441869425773547L194.48,3.604561281204269L195.16,94.26859636306764L195.84,57.552975010871904L196.52,45.10454077720644L197.2,19.967788648605392L197.88,65.06347675323488L198.56,70.52133400440218L199.24,133.67084045410155L199.92,35.49004395008089L200.60000000000002,74.04266912937166L201.28,117.12422568798065L201.96,153.75603098869323L202.64,156.09120984077452L203.32000000000002,-2.6342175483702874L204,129.93646402359008L204.67999999999998,7.2877462625503995L205.36,40.160189461708086L206.04,91.743505191803L206.72,109.85429723262787L207.39999999999998,121.8179245710373L208.08,56.90849323272707L208.76,148.1170674085617L209.44,51.768447351455706L210.12,-23.48940174579613L210.8,169.5245357275009L211.48,-44.57147281169884L212.16,20.116906952858017L212.84,-33.56456856727593L213.52,72.84218986034395L214.2,44.233755660057085L214.88,49.82731003761293L215.56,177.33319450616835L216.24,155.70809621810912L216.92,173.05788625478743L217.60000000000002,87.39382345676424L218.28,154.87237591743468L218.96,87.9997922897339L219.64,117.98174877166748L220.32000000000002,102.0686878681183L221,39.333434295654314L221.67999999999998,47.785964798927324L222.36,99.50847883224489L223.04,1.7647989511490323L223.72,99.99148209095003L224.39999999999998,97.71004099845888L225.08,106.994154047966L225.76,76.21382315158846L226.44,227.139742565155L227.12,125.77361781597138L227.8,132.64961082935332L228.48,-10.140051054954455L229.16,54.19502813816072L229.84,164.22799785137175L230.52,109.01677329540253L231.2,48.92368812561037L231.88,131.18367869853972L232.56,73.13490946292879L233.24,110.00452954769135L233.92,125.77266294956208L234.60000000000002,55.02565581798555L235.28,66.65826280117037L235.96,132.2102661848068L236.64,114.62820489406586L237.32000000000002,58.98458499908449L238,51.92117292881014" fill="none"></path></g></g></g></g></g></g><g transform="translate(58, 178)" clip-path="url(#clip_1)"><clipPath id="clip_1"><rect width="272" height="22"></rect></clipPath><g><g><line x1="0" y1="0" x2="0" y2="5" style="visibility: inherit;" fill="rgb(0, 0, 0)" stroke="rgb(204, 204, 204)" stroke-width="1px"></line><line x1="34" y1="0" x2="34" y2="5" style="visibility: inherit;" fill="rgb(0, 0, 0)" stroke="rgb(204, 204, 204)" stroke-width="1px"></line><line x1="68" y1="0" x2="68" y2="5" style="visibility: inherit;" fill="rgb(0, 0, 0)" stroke="rgb(204, 204, 204)" stroke-width="1px"></line><line x1="102" y1="0" x2="102" y2="5" style="visibility: inherit;" fill="rgb(0, 0, 0)" stroke="rgb(204, 204, 204)" stroke-width="1px"></line><line x1="136" y1="0" x2="136" y2="5" style="visibility: inherit;" fill="rgb(0, 0, 0)" stroke="rgb(204, 204, 204)" stroke-width="1px"></line><line x1="170" y1="0" x2="170" y2="5" style="visibility: inherit;" fill="rgb(0, 0, 0)" stroke="rgb(204, 204, 204)" stroke-width="1px"></line><line x1="204" y1="0" x2="204" y2="5" style="visibility: inherit;" fill="rgb(0, 0, 0)" stroke="rgb(204, 204, 204)" stroke-width="1px"></line><line x1="238" y1="0" x2="238" y2="5" style="visibility: inherit;" fill="rgb(0, 0, 0)" stroke="rgb(204, 204, 204)" stroke-width="1px"></line><line x1="272" y1="0" x2="272" y2="5" style="visibility: inherit;" fill="rgb(0, 0, 0)" stroke="rgb(204, 204, 204)" stroke-width="1px"></line></g><g transform="translate(0, 8)"><text x="0" y="0" dx="0em" dy="0.95em" style="text-anchor: middle; visibility: hidden; font-family: &quot;Helvetica Neue&quot;, sans-serif; font-size: 12px; font-weight: 200;" fill="rgb(50, 49, 63)" stroke="none" stroke-width="1px">-50</text><text x="34" y="0" dx="0em" dy="0.95em" style="text-anchor: middle; visibility: inherit; font-family: &quot;Helvetica Neue&quot;, sans-serif; font-size: 12px; font-weight: 200;" fill="rgb(50, 49, 63)" stroke="none" stroke-width="1px">0</text><text x="68" y="0" dx="0em" dy="0.95em" style="text-anchor: middle; visibility: inherit; font-family: &quot;Helvetica Neue&quot;, sans-serif; font-size: 12px; font-weight: 200;" fill="rgb(50, 49, 63)" stroke="none" stroke-width="1px">50</text><text x="102" y="0" dx="0em" dy="0.95em" style="text-anchor: middle; visibility: inherit; font-family: &quot;Helvetica Neue&quot;, sans-serif; font-size: 12px; font-weight: 200;" fill="rgb(50, 49, 63)" stroke="none" stroke-width="1px">100</text><text x="136" y="0" dx="0em" dy="0.95em" style="text-anchor: middle; visibility: inherit; font-family: &quot;Helvetica Neue&quot;, sans-serif; font-size: 12px; font-weight: 200;" fill="rgb(50, 49, 63)" stroke="none" stroke-width="1px">150</text><text x="170" y="0" dx="0em" dy="0.95em" style="text-anchor: middle; visibility: inherit; font-family: &quot;Helvetica Neue&quot;, sans-serif; font-size: 12px; font-weight: 200;" fill="rgb(50, 49, 63)" stroke="none" stroke-width="1px">200</text><text x="204" y="0" dx="0em" dy="0.95em" style="text-anchor: middle; visibility: inherit; font-family: &quot;Helvetica Neue&quot;, sans-serif; font-size: 12px; font-weight: 200;" fill="rgb(50, 49, 63)" stroke="none" stroke-width="1px">250</text><text x="238" y="0" dx="0em" dy="0.95em" style="text-anchor: middle; visibility: inherit; font-family: &quot;Helvetica Neue&quot;, sans-serif; font-size: 12px; font-weight: 200;" fill="rgb(50, 49, 63)" stroke="none" stroke-width="1px">300</text><text x="272" y="0" dx="0em" dy="0.95em" style="text-anchor: middle; visibility: hidden; font-family: &quot;Helvetica Neue&quot;, sans-serif; font-size: 12px; font-weight: 200;" fill="rgb(50, 49, 63)" stroke="none" stroke-width="1px">350</text></g><line x1="0" y1="0" x2="272" y2="0" fill="rgb(0, 0, 0)" stroke="rgb(204, 204, 204)" stroke-width="1px"></line></g></g></g></g></svg>