<svg viewBox="0 0 330 200" xmlns="http://www.w3.org/2000/svg"><g><g><g><g><g><line x1="58" y1="178" x2="53" y2="178" style="visibility: inherit;" fill="rgb(0, 0, 0)" stroke="rgb(204, 204, 204)" stroke-width="1px"></line><line x1="58" y1="160.2" x2="53" y2="160.2" style="visibility: inherit;" fill="rgb(0, 0, 0)" stroke="rgb(204, 204, 204)" stroke-width="1px"></line><line x1="58" y1="142.40000000000006" x2="53" y2="142.40000000000006" style="visibility: inherit;" fill="rgb(0, 0, 0)" stroke="rgb(204, 204, 204)" stroke-width="1px"></line><line x1="58" y1="124.60000000000005" x2="53" y2="124.60000000000005" style="visibility: inherit;" fill="rgb(0, 0, 0)" stroke="rgb(204, 204, 204)" stroke-width="1px"></line><line x1="58" y1="106.80000000000001" x2="53" y2="106.80000000000001" style="visibility: inherit;" fill="rgb(0, 0, 0)" stroke="rgb(204, 204, 204)" stroke-width="1px"></line><line x1="58" y1="89" x2="53" y2="89" style="visibility: inherit;" fill="rgb(0, 0, 0)" stroke="rgb(204, 204, 204)" stroke-width="1px"></line><line x1="58" y1="71.19999999999999" x2="53" y2="71.19999999999999" style="visibility: inherit;" fill="rgb(0, 0, 0)" stroke="rgb(204, 204, 204)" stroke-width="1px"></line><line x1="58" y1="53.39999999999996" x2="53" y2="53.39999999999996" style="visibility: inherit;" fill="rgb(0, 0, 0)" stroke="rgb(204, 204, 204)" stroke-width="1px"></line><line x1="58" y1="35.60000000000002" x2="53" y2="35.60000000000002" style="visibility: inherit;" fill="rgb(0, 0, 0)" stroke="rgb(204, 204, 204)" stroke-width="1px"></line><line x1="58" y1="17.80000000000001" x2="53" y2="17.80000000000001" style="visibility: inherit;" fill="rgb(0, 0, 0)" stroke="rgb(204, 204, 204)" stroke-width="1px"></line><line x1="58" y1="0" x2="53" y2="0" style="visibility: inherit;" fill="rgb(0, 0, 0)" stroke="rgb(204, 204, 204)" stroke-width="1px"></line></g><g transform="translate(48, 0)"><text x="0" y="178" dx="0em" dy="0.3em" style="text-anchor: end; visibility: hidden; font-family: &quot;Helvetica Neue&quot;, sans-serif; font-size: 12px; font-weight: 200;" fill="rgb(50, 49, 63)" stroke="none" stroke-width="1px">0.54</text><text x="0" y="160.2" dx="0em" dy="0.3em" style="text-anchor: end; visibility: inherit; font-family: &quot;Helvetica Neue&quot;, sans-serif; font-size: 12px; font-weight: 200;" fill="rgb(50, 49, 63)" stroke="none" stroke-width="1px">0.56</text><text x="0" y="142.40000000000006" dx="0em" dy="0.3em" style="text-anchor: end; visibility: hidden; font-family: &quot;Helvetica Neue&quot;, sans-serif; font-size: 12px; font-weight: 200;" fill="rgb(50, 49, 63)" stroke="none" stroke-width="1px">0.58</text><text x="0" y="124.60000000000005" dx="0em" dy="0.3em" style="text-anchor: end; visibility: inherit; font-family: &quot;Helvetica Neue&quot;, sans-serif; font-size: 12px; font-weight: 200;" fill="rgb(50, 49, 63)" stroke="none" stroke-width="1px">0.6</text><text x="0" y="106.80000000000001" dx="0em" dy="0.3em" style="text-anchor: end; visibility: hidden; font-family: &quot;Helvetica Neue&quot;, sans-serif; font-size: 12px; font-weight: 200;" fill="rgb(50, 49, 63)" stroke="none" stroke-width="1px">0.62</text><text x="0" y="89" dx="0em" dy="0.3em" style="text-anchor: end; visibility: inherit; font-family: &quot;Helvetica Neue&quot;, sans-serif; font-size: 12px; font-weight: 200;" fill="rgb(50, 49, 63)" stroke="none" stroke-width="1px">0.64</text><text x="0" y="71.19999999999999" dx="0em" dy="0.3em" style="text-anchor: end; visibility: hidden; font-family: &quot;Helvetica Neue&quot;, sans-serif; font-size: 12px; font-weight: 200;" fill="rgb(50, 49, 63)" stroke="none" stroke-width="1px">0.66</text><text x="0" y="53.39999999999996" dx="0em" dy="0.3em" style="text-anchor: end; visibility: inherit; font-family: &quot;Helvetica Neue&quot;, sans-serif; font-size: 12px; font-weight: 200;" fill="rgb(50, 49, 63)" stroke="none" stroke-width="1px">0.68</text><text x="0" y="35.60000000000002" dx="0em" dy="0.3em" style="text-anchor: end; visibility: hidden; font-family: &quot;Helvetica Neue&quot;, sans-serif; font-size: 12px; font-weight: 200;" fill="rgb(50, 49, 63)" stroke="none" stroke-width="1px">0.7</text><text x="0" y="17.80000000000001" dx="0em" dy="0.3em" style="text-anchor: end; visibility: inherit; font-family: &quot;Helvetica Neue&quot;, sans-serif; font-size: 12px; font-weight: 200;" fill="rgb(50, 49, 63)" stroke="none" stroke-width="1px">0.72</text><text x="0" y="0" dx="0em" dy="0.3em" style="text-anchor: end; visibility: hidden; font-family: &quot;Helvetica Neue&quot;, sans-serif; font-size: 12px; font-weight: 200;" fill="rgb(50, 49, 63)" stroke="none" stroke-width="1px">0.74</text></g><line x1="58" y1="0" x2="58" y2="178" fill="rgb(0, 0, 0)" stroke="rgb(204, 204, 204)" stroke-width="1px"></line></g></g><g transform="translate(58, 0)" clip-path="url(#clip_0)"><clipPath id="clip_0"><rect width="272" height="178"></rect></clipPath><g><g><g><line x1="0" y1="0" x2="0" y2="178" fill="rgb(0, 0, 0)" stroke="rgb(60, 60, 60)" stroke-width="1px" opacity="0.25"></line><line x1="34" y1="0" x2="34" y2="178" fill="rgb(0, 0, 0)" stroke="rgb(60, 60, 60)" stroke-width="1px" opacity="0.25"></line><line x1="68" y1="0" x2="68" y2="178" fill="rgb(0, 0, 0)" stroke="rgb(60, 60, 60)" stroke-width="1px" opacity="0.25"></line><line x1="102" y1="0" x2="102" y2="178" fill="rgb(0, 0, 0)" stroke="rgb(60, 60, 60)" stroke-width="1px" opacity="0.25"></line><line x1="136" y1="0" x2="136" y2="178" fill="rgb(0, 0, 0)" stroke="rgb(60, 60, 60)" stroke-width="1px" opacity="0.25"></line><line x1="170" y1="0" x2="170" y2="178" fill="rgb(0, 0, 0)" stroke="rgb(60, 60, 60)" stroke-width="1px" opacity="0.25"></line><line x1="204" y1="0" x2="204" y2="178" fill="rgb(0, 0, 0)" stroke="rgb(60, 60, 60)" stroke-width="1px" opacity="0.25"></line><line x1="238" y1="0" x2="238" y2="178" fill="rgb(0, 0, 0)" stroke="rgb(60, 60, 60)" stroke-width="1px" opacity="0.25"></line><line x1="272" y1="0" x2="272" y2="178" fill="rgb(0, 0, 0)" stroke="rgb(60, 60, 60)" stroke-width="1px" opacity="0.25"></line></g><g><line x1="0" y1="178" x2="272" y2="178" fill="rgb(0, 0, 0)" stroke="rgb(60, 60, 60)" stroke-width="1px" opacity="0.25"></line><line x1="0" y1="160.2" x2="272" y2="160.2" fill="rgb(0, 0, 0)" stroke="rgb(60, 60, 60)" stroke-width="1px" opacity="0.25"></line><line x1="0" y1="142.40000000000006" x2="272" y2="142.40000000000006" fill="rgb(0, 0, 0)" stroke="rgb(60, 60, 60)" stroke-width="1px" opacity="0.25"></line><line x1="0" y1="124.60000000000005" x2="272" y2="124.60000000000005" fill="rgb(0, 0, 0)" stroke="rgb(60, 60, 60)" stroke-width="1px" opacity="0.25"></line><line x1="0" y1="106.80000000000001" x2="272" y2="106.80000000000001" fill="rgb(0, 0, 0)" stroke="rgb(60, 60, 60)" stroke-width="1px" opacity="0.25"></line><line x1="0" y1="89" x2="272" y2="89" fill="rgb(0, 0, 0)" stroke="rgb(60, 60, 60)" stroke-width="1px" opacity="0.25"></line><line x1="0" y1="71.19999999999999" x2="272" y2="71.19999999999999" fill="rgb(0, 0, 0)" stroke="rgb(60, 60, 60)" stroke-width="1px" opacity="0.25"></line><line x1="0" y1="53.39999999999996" x2="272" y2="53.39999999999996" fill="rgb(0, 0, 0)" stroke="rgb(60, 60, 60)" stroke-width="1px" opacity="0.25"></line><line x1="0" y1="35.60000000000002" x2="272" y2="35.60000000000002" fill="rgb(0, 0, 0)" stroke="rgb(60, 60, 60)" stroke-width="1px" opacity="0.25"></line><line x1="0" y1="17.80000000000001" x2="272" y2="17.80000000000001" fill="rgb(0, 0, 0)" stroke="rgb(60, 60, 60)" stroke-width="1px" opacity="0.25"></line><line x1="0" y1="0" x2="272" y2="0" fill="rgb(0, 0, 0)" stroke="rgb(60, 60, 60)" stroke-width="1px" opacity="0.25"></line></g></g></g><g><g><line x1="0" y1="658.6000000000001" x2="272" y2="658.6000000000001" fill="rgb(0, 0, 0)" stroke="rgb(153, 153, 153)" stroke-width="1.5px"></line></g></g><g><g><line x1="34" y1="0" x2="34" y2="178" fill="rgb(0, 0, 0)" stroke="rgb(153, 153, 153)" stroke-width="1.5px"></line></g></g><g><g><g><g><g><path stroke="rgb(255, 112, 67)" stroke-width="2px" d="M34.68,68.4237556219101L35.36,76.35079861729443L36.04,53.39010876578445L36.72,22.475277272604473L37.400000000000006,46.88967608604011L38.080000000000005,62.29780085355965L38.76,50.19861958313696L39.44,5.423939092334507L40.12,32.7648159629162L40.8,54.64009538034877L41.48,42.871532340471475L42.16,60.39160179082404L42.84,83.57907881234348L43.52,87.84373643870042L44.2,62.40622699796867L44.88,83.19643423535435L45.56,82.14548247776901L46.24,37.028210213778095L46.919999999999995,50.08781441110993L47.599999999999994,32.03775353548846L48.28,36.91976819372567L48.96,27.14352332504629L49.64,45.21486072155463L50.32,80.67626723994489L51,69.67217522748477L51.68,47.268911783059934L52.36,3.5456295145376373L53.04,26.68656514022635L53.72,38.81533984923459L54.400000000000006,46.77701967701046L55.080000000000005,41.779373844545944L55.76,35.611526966815546L56.44,77.02915728336545L57.12,62.06766956873534L57.8,48.21378747526197L58.48,60.498061030008984L59.16,54.20712176423204L59.84,71.58040287984043L60.52,89.91797116563457L61.2,81.91691896445363L61.88,107.91272151047393L62.56,111.22061996883079L63.24,122.46734000069839L63.919999999999995,136.57300332695075L64.6,146.73506166704303L65.28,131.94951962546466L65.96,110.50553335797319L66.64,133.8317676145789L67.32,119.91230257574918L68,90.78941676277218L68.68,82.14093743122797L69.36,83.85726836625135L70.04,88.20698812014166L70.72,57.59902015378772L71.4,106.18141945064838L72.08,89.32224922146156L72.76,68.49930780277046L73.44,61.766838509639356L74.12,67.31487759906251L74.80000000000001,100.31298334769262L75.48,88.98432004371388L76.16000000000001,72.572567984726L76.83999999999999,72.12479458888699L77.52,79.92759497267834L78.19999999999999,88.58030490304239L78.88,64.53131345739823L79.56,98.80588566762553L80.24,63.20559412071346L80.92,96.38380564686574L81.6,83.6427354090401L82.28,116.11798844316094L82.96,98.53109302029068L83.64,109.55882792596627L84.32,100.38232736932603L85,107.35382187621585L85.68,109.64176972488632L86.36,92.61121012668384L87.04,94.57610599638414L87.72,88.5240794875594L88.4,88.83063770889336L89.08,104.18945766699913L89.76,60.444979546273004L90.44,64.06821349522357L91.12,119.96251426292274L91.80000000000001,127.77782258282491L92.48,120.36697064404248L93.16000000000001,124.11457096145803L93.83999999999999,114.16824098660742L94.52,69.61392152234816L95.19999999999999,81.41054893491349L95.88,77.43703705638296L96.56,77.28539047608436L97.24,86.18827140219683L97.92,113.41849192473038L98.6,105.62711344220381L99.28,142.54793828136673L99.96,133.4182787484989L100.64,117.67450101488174L101.32,104.11484275011156L102,64.79661455014465L102.68,94.51247702957806L103.36,83.66901049778342L104.04,116.19457007637493L104.72,115.57259854918598L105.4,129.28562949302537L106.08,126.86356287880577L106.76,135.56124971882673L107.44,122.0765761082772L108.12,98.45552195710144L108.80000000000001,111.61059948485565L109.48,101.89307004555643L110.16000000000001,120.59699560978879L110.83999999999999,141.1710214904929L111.52,122.66654065454304L112.19999999999999,116.44454440628368L112.88,99.52457340778673L113.56,123.0682469073592L114.24,91.5898553400686L114.92,124.86842531734027L115.6,98.88663960125173L116.28,91.37889332878093L116.96,65.50614511513743L117.64,66.83873337370657L118.32,71.80170308248084L119,69.75237627639609L119.68,72.18659453514752L120.36,88.85393738852709L121.04,84.2018998813583L121.72,101.93410515155487L122.4,89.83443981630886L123.08,88.98717914837201L123.76,98.56711536621842L124.44,110.615599993187L125.12,154.53170639127785L125.80000000000001,140.89118892438907L126.48,122.11627839758756L127.16000000000001,126.2219465475648L127.83999999999999,96.40260906167003L128.51999999999998,78.77605864918836L129.2,86.6283713025264L129.88,104.60173871191505L130.56,114.0893662345047L131.24,114.88853614467337L131.92,124.99822813149724L132.6,137.3833379688383L133.28,115.39998072170113L133.96,92.56027010045986L134.64,69.63463919274913L135.32,91.67104392031477L136,96.55635697971152L136.67999999999998,77.63541673103313L137.36,85.13493361223898L138.04,105.42316538977566L138.72,89.6541338203641L139.39999999999998,75.39479099119266L140.08,87.465927470317L140.76,89.2181569123623L141.44,68.03223490519514L142.12,48.67922577774655L142.8,59.42534007731882L143.48,71.27900090592655L144.16,65.45670714963431L144.84,90.19947570692096L145.52,79.84278732613227L146.2,117.64580002703846L146.88,90.70968623960667L147.56,75.1080270088823L148.24,67.55509764894488L148.92,28.708471093385526L149.60000000000002,72.08287144813154L150.28,79.8083883412069L150.96,107.63723882330939L151.64,108.63317123735581L152.32000000000002,116.49879550215306L153,110.1393598227043L153.67999999999998,111.69950699243816L154.36,93.35891200690163L155.04,92.572709478462L155.72,91.25918683213123L156.39999999999998,94.99001899665029L157.08,67.4008079169456L157.76,50.17169855332742L158.44,87.60964168296815L159.12,102.35701187136766L159.8,128.22508614575477L160.48,124.28097210059029L161.16,130.64302236643178L161.84,105.30076511192837L162.52,130.4589562323223L163.2,132.32864700935042L163.88,152.7975663898366L164.56,119.5590878997887L165.24,106.63923505870619L165.92,80.91914308349128L166.60000000000002,79.53018936391173L167.28,91.49577260488849L167.96,113.38526879316541L168.64,116.810790542833L169.32000000000002,111.29245382150836L170,114.93832643946568L170.67999999999998,141.47092580645062L171.36,123.71236303395705L172.04,103.47143428665676L172.72,96.25782068504219L173.39999999999998,114.4637035640412L174.08,151.19338458121456L174.76,166.24408436443633L175.44,176.74334530937247L176.12,179.75463033652375L176.8,145.56317803934382L177.48,120.35939342071971L178.16,110.55717394414089L178.84,91.72035536211636L179.52,116.83596603022099L180.2,107.75643218211205L180.88,112.81495704894024L181.56,112.60126518269371L182.24,105.93261575478505L182.92,105.8962352158565L183.60000000000002,81.86159479714429L184.28,113.77275456063933L184.96,125.22625739501814L185.64,124.80104199432355L186.32000000000002,100.78471594129626L187,123.14231851307551L187.67999999999998,110.26682943816341L188.36,119.10238872396246L189.04,109.10309762790096L189.72,118.06367134889943L190.39999999999998,104.2094210213568L191.08,110.74768350922245L191.76,115.2015289836936L192.44,130.96195990753716L193.12,101.74774717926392L193.8,130.72229538606007L194.48,118.20328454567084L195.16,119.26293028703697L195.84,128.08391175236915L196.52,109.04022424914069L197.2,102.2545039833726L197.88,105.43466100753992L198.56,119.42688066881209L199.24,111.99813725013814L199.92,92.72445376938302L200.60000000000002,105.21326165119046L201.28,87.01831462114939L201.96,120.63270383154384L202.64,81.28590655533743L203.32000000000002,94.03810477085456L204,88.045804065987L204.67999999999998,88.0697976483618L205.36,92.83761803014966L206.04,88.762231613493L206.72,99.71967858257726L207.39999999999998,89.82427929749583L208.08,69.18547053374878L208.76,47.22419986464064L209.44,27.569200238626337L210.12,54.974876113710366L210.8,64.988245330279L211.48,83.67532385491995L212.16,114.46193622179288L212.84,126.65860534994204L213.52,102.2633545668049L214.2,121.99254442875115L214.88,129.26282977160244L215.56,118.92409104270348L216.24,128.62676323271745L216.92,122.53184236283462L217.60000000000002,106.87760869631062L218.28,107.65903519220313L218.96,145.09782658903L219.64,124.82382585667665L220.32000000000002,126.54653269638885L221,100.58467438125093L221.67999999999998,90.01482823045384L222.36,103.7441314466536L223.04,133.48723261693974L223.72,88.09239378344718L224.39999999999998,69.45222192868634L225.08,94.67968171375577L225.76,91.58120446958328L226.44,84.44698701433332L227.12,92.37041623827257L227.8,82.73836685528765L228.48,99.87249715890458L229.16,95.32922868103984L229.84,90.31237817250397L230.52,106.13496401771516L231.2,92.12345360206854L231.88,98.91382198566681L232.56,121.57647957743313L233.24,95.6376502471818L233.92,132.61605049852804L234.60000000000002,154.94817737794384L235.28,117.58587718969416L235.96,115.08748042677942L236.64,112.15892538300876L237.32000000000002,111.70961700193148L238,84.46434624788246" style="fill: none;" fill="none"></path></g></g></g></g><g opacity="0.2"><g><g><g><path stroke="rgb(255, 112, 67)" stroke-width="2px" d="M34.68,68.4237556219101L35.36,81.66191742420197L36.04,27.69939289093017L36.72,-21.41336514949799L37.400000000000006,86.46966979503632L38.080000000000005,89.35734496116639L38.76,27.855725741386408L39.44,-79.97266962528232L40.12,86.0209886789322L40.8,97.84520552158357L41.48,19.413327431678766L42.16,95.52822217941285L42.84,130.27146086692812L43.52,96.4548139333725L44.2,10.950081205368036L44.88,125.30297265052798L45.56,80.01525030136109L46.24,-54.47232558727265L46.919999999999995,76.58314213752747L47.599999999999994,-4.5911653280258236L48.28,46.82844386100771L48.96,7.299202537536615L49.64,81.89967916011811L50.32,152.66647324562075L51,47.33202979564669L51.68,1.7855386495590153L52.36,-85.22321476936344L53.04,73.66873071193696L53.72,63.44009563922883L54.400000000000006,62.94149622917176L55.080000000000005,31.63269982337951L55.76,23.088979578018183L56.44,161.119268989563L57.12,31.69137105941772L57.8,20.086243009567255L58.48,85.43883845806123L59.16,41.434615707397455L59.84,106.85341522693635L60.52,127.14878246784212L61.2,65.67236111164094L61.88,160.69207236766817L62.56,117.93665573596957L63.24,145.3015886306763L63.919999999999995,165.2117733716965L64.6,167.36711905002596L65.28,101.93038926124574L65.96,66.96774349212647L66.64,181.19109139442446L67.32,91.65157065391541L68,31.661133623123163L68.68,64.58190367221833L69.36,87.34194025993348L70.04,97.03823730945588L70.72,-4.5444299221038875L71.4,204.81841192245486L72.08,55.09302482604981L72.76,26.22242674827575L73.44,48.09788570404055L74.12,78.5790781736374L74.80000000000001,167.3091374397278L75.48,65.98370060920716L76.16000000000001,39.25173804759979L76.83999999999999,71.21567890644074L77.52,95.76964423656464L78.19999999999999,106.1479280948639L78.88,15.704573249816889L79.56,168.3936534881592L80.24,-9.073785686492926L80.92,163.7456290483475L81.6,57.77450189590455L82.28,182.05259308815005L82.96,62.824365949630746L83.64,131.94847152233126L84.32,81.75125048160554L85,121.50806829929354L85.68,114.2869971752167L86.36,58.03401336669923L87.04,98.56544003486634L87.72,76.23663172721864L88.4,89.45304379463197L89.08,135.37251636981966L89.76,-28.369566941261297L90.44,71.42447636127473L91.12,233.44488248825078L91.80000000000001,143.6452667474747L92.48,105.32069549560548L93.16000000000001,131.72333524227145L93.83999999999999,93.97417709827424L94.52,-20.844848299026495L95.19999999999999,105.3612773180008L95.88,69.36960384845734L96.56,76.9775019645691L97.24,104.26381752490998L97.92,168.70409116744997L98.6,89.80825409889222L99.28,217.50840083360677L99.96,114.8823033332825L100.64,85.70986137390138L101.32,76.58462748527528L102,-15.031303310394293L102.68,154.8446826696396L103.36,61.65348753929139L104.04,182.23131225109103L104.72,114.30980787277224L105.4,157.1272377729416L106.08,121.94603369235995L106.76,153.22018966674807L107.44,94.69860241413117L108.12,50.4976241350174L108.80000000000001,138.31939325332644L109.48,82.1635405778885L110.16000000000001,158.57163236141207L110.83999999999999,182.94252858161929L111.52,85.09683713912965L112.19999999999999,103.8120065689087L112.88,65.17190501689912L113.56,170.8690385580063L114.24,27.679181551933283L114.92,192.43400678634646L115.6,46.13574132919314L116.28,76.1358933210373L116.96,12.976626014709467L117.64,69.54429135322572L118.32,81.87803552150727L119,65.59162185192109L119.68,77.12879524230958L120.36,122.69369409084322L121.04,74.75685403347016L121.72,137.93585524559023L122.4,65.2684526205063L123.08,87.26698324680329L123.76,118.01728889942171L124.44,135.07767484188082L125.12,243.694710290432L125.80000000000001,113.19680497646334L126.48,83.99752066135407L127.16000000000001,134.55769703388216L127.83999999999999,35.86031780242919L128.51999999999998,42.988819932937616L129.2,102.57094547748567L129.88,141.0931210279465L130.56,133.35212514400484L131.24,116.51109323501589L131.92,145.5239664077759L132.6,162.5288640022278L133.28,70.76710388660432L133.96,46.188736414909386L134.64,23.088661289215082L135.32,136.41162321567538L136,106.4750228881836L136.67999999999998,39.22017440795898L137.36,100.36122546195985L138.04,146.6144238471985L138.72,57.63822124004365L139.39999999999998,46.444004034996055L140.08,111.97399244308474L140.76,92.77571365833283L141.44,25.018393254280085L142.12,9.386752700805658L142.8,81.24320850372315L143.48,95.34552440643311L144.16,53.63568649291993L144.84,140.43479368686678L145.52,58.815571522712716L146.2,194.39737126827242L146.88,36.02121279239654L147.56,43.43193099498748L148.24,52.220362281799325L148.92,-50.161952519416815L149.60000000000002,160.14604792594912L150.28,95.49352869987489L150.96,164.13823828697207L151.64,110.6552158355713L152.32000000000002,132.46839628219607L153,97.22777829170228L153.67999999999998,114.86707851886752L154.36,56.12194643020631L155.04,90.97648010253907L155.72,88.59233782291413L156.39999999999998,102.5647388458252L157.08,11.38634905815124L157.76,15.191385602951044L158.44,163.62001106739046L159.12,132.29864225387576L159.8,180.7451157331467L160.48,116.27322540283205L161.16,143.5599123001099L161.84,53.84830341339112L162.52,181.537707901001L163.2,136.1246858596802L163.88,194.35567543506625L164.56,52.07490429878236L165.24,80.40801868438722L165.92,28.69956240653991L166.60000000000002,76.71019241809846L167.28,115.78953251838686L167.96,157.8275792360306L168.64,123.76563773155215L169.32000000000002,100.08855805397035L170,122.34055266380312L170.67999999999998,195.34014270305636L171.36,87.65709922313691L172.04,62.37621531486512L172.72,81.61199913024903L173.39999999999998,151.42716274261477L174.08,225.76576725244527L176.12,185.86845145225527L176.8,76.14416882991792L177.48,69.18807313442231L178.16,90.65569803714753L178.84,53.475905513763436L179.52,167.82826647758486L180.2,89.32222709655763L180.88,123.08529541492464L181.56,112.1674059391022L182.24,92.39323661327363L182.92,105.82237169742585L183.60000000000002,33.063991522788996L184.28,178.56207892894747L184.96,148.48033890724184L185.64,123.93772587776186L186.32000000000002,52.024296379089364L187,168.5350267648697L187.67999999999998,84.12568495273591L188.36,137.0412515163422L189.04,88.80150661468507L189.72,136.25635132789614L190.39999999999998,76.08109459877015L191.08,124.02233765125277L191.76,124.24418494701388L192.44,162.96041057109835L193.12,42.434042549133295L193.8,189.5494084119797L194.48,92.78589890003205L195.16,121.41433224678042L195.84,145.99317715168002L196.52,70.37576780319215L197.2,88.47743556499482L197.88,111.89134345054629L198.56,147.8353266477585L199.24,96.9155369758606L199.92,53.59303579330445L200.60000000000002,130.56932613849642L201.28,50.07705852985383L201.96,188.88010010719302L202.64,1.3999848127365055L203.32000000000002,119.92893145084383L204,75.87961778640748L204.67999999999998,88.11851189136506L205.36,102.51773819923402L206.04,80.48796222209931L206.72,121.96661636829378L207.39999999999998,69.73362014293672L208.08,27.282434558868403L208.76,2.6361654758453312L209.44,-12.336405062675482L210.12,110.61670289039613L210.8,85.3184191942215L211.48,121.61575601100924L212.16,176.96808860301974L212.84,151.42153964042666L213.52,52.73360297679902L214.2,162.04877839088442L214.88,144.0237121343613L215.56,97.93331847190858L216.24,148.3261279821396L216.92,110.15730605125428L217.60000000000002,75.09477064609528L218.28,109.24556777477265L218.96,221.10991821289068L219.64,83.6614607334137L220.32000000000002,130.04414961338045L221,47.87423477172854L221.67999999999998,68.5548375606537L222.36,131.6187773704529L223.04,193.87474105358126L223.72,-4.0728850603103695L224.39999999999998,31.607024526596064L225.08,145.89906976222994L225.76,85.2903567314148L226.44,69.96236369609834L227.12,108.4573786020279L227.8,63.182387804985055L228.48,134.65997383594515L229.16,86.10501692295075L229.84,80.1266513824463L230.52,138.25960800647738L231.2,63.67584154605866L231.88,112.70032749176028L232.56,167.58854196071627L233.24,42.97396645545959L233.92,207.69340858459475L234.60000000000002,200.28916225433352L235.28,41.72908589839935L235.96,110.01497790813447L236.64,106.21307120323182L237.32000000000002,110.79738483428956L238,29.148190474510187" style="fill: none;" fill="none"></path></g></g></g></g></g></g><g transform="translate(58, 178)" clip-path="url(#clip_1)"><clipPath id="clip_1"><rect width="272" height="22"></rect></clipPath><g><g><line x1="0" y1="0" x2="0" y2="5" style="visibility: inherit;" fill="rgb(0, 0, 0)" stroke="rgb(204, 204, 204)" stroke-width="1px"></line><line x1="34" y1="0" x2="34" y2="5" style="visibility: inherit;" fill="rgb(0, 0, 0)" stroke="rgb(204, 204, 204)" stroke-width="1px"></line><line x1="68" y1="0" x2="68" y2="5" style="visibility: inherit;" fill="rgb(0, 0, 0)" stroke="rgb(204, 204, 204)" stroke-width="1px"></line><line x1="102" y1="0" x2="102" y2="5" style="visibility: inherit;" fill="rgb(0, 0, 0)" stroke="rgb(204, 204, 204)" stroke-width="1px"></line><line x1="136" y1="0" x2="136" y2="5" style="visibility: inherit;" fill="rgb(0, 0, 0)" stroke="rgb(204, 204, 204)" stroke-width="1px"></line><line x1="170" y1="0" x2="170" y2="5" style="visibility: inherit;" fill="rgb(0, 0, 0)" stroke="rgb(204, 204, 204)" stroke-width="1px"></line><line x1="204" y1="0" x2="204" y2="5" style="visibility: inherit;" fill="rgb(0, 0, 0)" stroke="rgb(204, 204, 204)" stroke-width="1px"></line><line x1="238" y1="0" x2="238" y2="5" style="visibility: inherit;" fill="rgb(0, 0, 0)" stroke="rgb(204, 204, 204)" stroke-width="1px"></line><line x1="272" y1="0" x2="272" y2="5" style="visibility: inherit;" fill="rgb(0, 0, 0)" stroke="rgb(204, 204, 204)" stroke-width="1px"></line></g><g transform="translate(0, 8)"><text x="0" y="0" dx="0em" dy="0.95em" style="text-anchor: middle; visibility: hidden; font-family: &quot;Helvetica Neue&quot;, sans-serif; font-size: 12px; font-weight: 200;" fill="rgb(50, 49, 63)" stroke="none" stroke-width="1px">-50</text><text x="34" y="0" dx="0em" dy="0.95em" style="text-anchor: middle; visibility: inherit; font-family: &quot;Helvetica Neue&quot;, sans-serif; font-size: 12px; font-weight: 200;" fill="rgb(50, 49, 63)" stroke="none" stroke-width="1px">0</text><text x="68" y="0" dx="0em" dy="0.95em" style="text-anchor: middle; visibility: inherit; font-family: &quot;Helvetica Neue&quot;, sans-serif; font-size: 12px; font-weight: 200;" fill="rgb(50, 49, 63)" stroke="none" stroke-width="1px">50</text><text x="102" y="0" dx="0em" dy="0.95em" style="text-anchor: middle; visibility: inherit; font-family: &quot;Helvetica Neue&quot;, sans-serif; font-size: 12px; font-weight: 200;" fill="rgb(50, 49, 63)" stroke="none" stroke-width="1px">100</text><text x="136" y="0" dx="0em" dy="0.95em" style="text-anchor: middle; visibility: inherit; font-family: &quot;Helvetica Neue&quot;, sans-serif; font-size: 12px; font-weight: 200;" fill="rgb(50, 49, 63)" stroke="none" stroke-width="1px">150</text><text x="170" y="0" dx="0em" dy="0.95em" style="text-anchor: middle; visibility: inherit; font-family: &quot;Helvetica Neue&quot;, sans-serif; font-size: 12px; font-weight: 200;" fill="rgb(50, 49, 63)" stroke="none" stroke-width="1px">200</text><text x="204" y="0" dx="0em" dy="0.95em" style="text-anchor: middle; visibility: inherit; font-family: &quot;Helvetica Neue&quot;, sans-serif; font-size: 12px; font-weight: 200;" fill="rgb(50, 49, 63)" stroke="none" stroke-width="1px">250</text><text x="238" y="0" dx="0em" dy="0.95em" style="text-anchor: middle; visibility: inherit; font-family: &quot;Helvetica Neue&quot;, sans-serif; font-size: 12px; font-weight: 200;" fill="rgb(50, 49, 63)" stroke="none" stroke-width="1px">300</text><text x="272" y="0" dx="0em" dy="0.95em" style="text-anchor: middle; visibility: hidden; font-family: &quot;Helvetica Neue&quot;, sans-serif; font-size: 12px; font-weight: 200;" fill="rgb(50, 49, 63)" stroke="none" stroke-width="1px">350</text></g><line x1="0" y1="0" x2="272" y2="0" fill="rgb(0, 0, 0)" stroke="rgb(204, 204, 204)" stroke-width="1px"></line></g></g></g></g></svg>