<svg viewBox="0 0 330 200" xmlns="http://www.w3.org/2000/svg"><g><g><g><g><g><line x1="58" y1="178" x2="53" y2="178" style="visibility: inherit;" fill="rgb(0, 0, 0)" stroke="rgb(204, 204, 204)" stroke-width="1px"></line><line x1="58" y1="158.2222222222222" x2="53" y2="158.2222222222222" style="visibility: inherit;" fill="rgb(0, 0, 0)" stroke="rgb(204, 204, 204)" stroke-width="1px"></line><line x1="58" y1="138.4444444444444" x2="53" y2="138.4444444444444" style="visibility: inherit;" fill="rgb(0, 0, 0)" stroke="rgb(204, 204, 204)" stroke-width="1px"></line><line x1="58" y1="118.6666666666666" x2="53" y2="118.6666666666666" style="visibility: inherit;" fill="rgb(0, 0, 0)" stroke="rgb(204, 204, 204)" stroke-width="1px"></line><line x1="58" y1="98.8888888888888" x2="53" y2="98.8888888888888" style="visibility: inherit;" fill="rgb(0, 0, 0)" stroke="rgb(204, 204, 204)" stroke-width="1px"></line><line x1="58" y1="79.11111111111099" x2="53" y2="79.11111111111099" style="visibility: inherit;" fill="rgb(0, 0, 0)" stroke="rgb(204, 204, 204)" stroke-width="1px"></line><line x1="58" y1="59.3333333333334" x2="53" y2="59.3333333333334" style="visibility: inherit;" fill="rgb(0, 0, 0)" stroke="rgb(204, 204, 204)" stroke-width="1px"></line><line x1="58" y1="39.5555555555556" x2="53" y2="39.5555555555556" style="visibility: inherit;" fill="rgb(0, 0, 0)" stroke="rgb(204, 204, 204)" stroke-width="1px"></line><line x1="58" y1="19.7777777777778" x2="53" y2="19.7777777777778" style="visibility: inherit;" fill="rgb(0, 0, 0)" stroke="rgb(204, 204, 204)" stroke-width="1px"></line><line x1="58" y1="0" x2="53" y2="0" style="visibility: inherit;" fill="rgb(0, 0, 0)" stroke="rgb(204, 204, 204)" stroke-width="1px"></line></g><g transform="translate(48, 0)"><text x="0" y="178" dx="0em" dy="0.3em" style="text-anchor: end; visibility: hidden; font-family: &quot;Helvetica Neue&quot;, sans-serif; font-size: 12px; font-weight: 200;" fill="rgb(50, 49, 63)" stroke="none" stroke-width="1px">0.63</text><text x="0" y="158.2222222222222" dx="0em" dy="0.3em" style="text-anchor: end; visibility: inherit; font-family: &quot;Helvetica Neue&quot;, sans-serif; font-size: 12px; font-weight: 200;" fill="rgb(50, 49, 63)" stroke="none" stroke-width="1px">0.64</text><text x="0" y="138.4444444444444" dx="0em" dy="0.3em" style="text-anchor: end; visibility: hidden; font-family: &quot;Helvetica Neue&quot;, sans-serif; font-size: 12px; font-weight: 200;" fill="rgb(50, 49, 63)" stroke="none" stroke-width="1px">0.65</text><text x="0" y="118.6666666666666" dx="0em" dy="0.3em" style="text-anchor: end; visibility: inherit; font-family: &quot;Helvetica Neue&quot;, sans-serif; font-size: 12px; font-weight: 200;" fill="rgb(50, 49, 63)" stroke="none" stroke-width="1px">0.66</text><text x="0" y="98.8888888888888" dx="0em" dy="0.3em" style="text-anchor: end; visibility: hidden; font-family: &quot;Helvetica Neue&quot;, sans-serif; font-size: 12px; font-weight: 200;" fill="rgb(50, 49, 63)" stroke="none" stroke-width="1px">0.67</text><text x="0" y="79.11111111111099" dx="0em" dy="0.3em" style="text-anchor: end; visibility: inherit; font-family: &quot;Helvetica Neue&quot;, sans-serif; font-size: 12px; font-weight: 200;" fill="rgb(50, 49, 63)" stroke="none" stroke-width="1px">0.68</text><text x="0" y="59.3333333333334" dx="0em" dy="0.3em" style="text-anchor: end; visibility: hidden; font-family: &quot;Helvetica Neue&quot;, sans-serif; font-size: 12px; font-weight: 200;" fill="rgb(50, 49, 63)" stroke="none" stroke-width="1px">0.69</text><text x="0" y="39.5555555555556" dx="0em" dy="0.3em" style="text-anchor: end; visibility: inherit; font-family: &quot;Helvetica Neue&quot;, sans-serif; font-size: 12px; font-weight: 200;" fill="rgb(50, 49, 63)" stroke="none" stroke-width="1px">0.7</text><text x="0" y="19.7777777777778" dx="0em" dy="0.3em" style="text-anchor: end; visibility: hidden; font-family: &quot;Helvetica Neue&quot;, sans-serif; font-size: 12px; font-weight: 200;" fill="rgb(50, 49, 63)" stroke="none" stroke-width="1px">0.71</text><text x="0" y="0" dx="0em" dy="0.3em" style="text-anchor: end; visibility: hidden; font-family: &quot;Helvetica Neue&quot;, sans-serif; font-size: 12px; font-weight: 200;" fill="rgb(50, 49, 63)" stroke="none" stroke-width="1px">0.72</text></g><line x1="58" y1="0" x2="58" y2="178" fill="rgb(0, 0, 0)" stroke="rgb(204, 204, 204)" stroke-width="1px"></line></g></g><g transform="translate(58, 0)" clip-path="url(#clip_0)"><clipPath id="clip_0"><rect width="272" height="178"></rect></clipPath><g><g><g><line x1="0" y1="0" x2="0" y2="178" fill="rgb(0, 0, 0)" stroke="rgb(60, 60, 60)" stroke-width="1px" opacity="0.25"></line><line x1="34" y1="0" x2="34" y2="178" fill="rgb(0, 0, 0)" stroke="rgb(60, 60, 60)" stroke-width="1px" opacity="0.25"></line><line x1="68" y1="0" x2="68" y2="178" fill="rgb(0, 0, 0)" stroke="rgb(60, 60, 60)" stroke-width="1px" opacity="0.25"></line><line x1="102" y1="0" x2="102" y2="178" fill="rgb(0, 0, 0)" stroke="rgb(60, 60, 60)" stroke-width="1px" opacity="0.25"></line><line x1="136" y1="0" x2="136" y2="178" fill="rgb(0, 0, 0)" stroke="rgb(60, 60, 60)" stroke-width="1px" opacity="0.25"></line><line x1="170" y1="0" x2="170" y2="178" fill="rgb(0, 0, 0)" stroke="rgb(60, 60, 60)" stroke-width="1px" opacity="0.25"></line><line x1="204" y1="0" x2="204" y2="178" fill="rgb(0, 0, 0)" stroke="rgb(60, 60, 60)" stroke-width="1px" opacity="0.25"></line><line x1="238" y1="0" x2="238" y2="178" fill="rgb(0, 0, 0)" stroke="rgb(60, 60, 60)" stroke-width="1px" opacity="0.25"></line><line x1="272" y1="0" x2="272" y2="178" fill="rgb(0, 0, 0)" stroke="rgb(60, 60, 60)" stroke-width="1px" opacity="0.25"></line></g><g><line x1="0" y1="178" x2="272" y2="178" fill="rgb(0, 0, 0)" stroke="rgb(60, 60, 60)" stroke-width="1px" opacity="0.25"></line><line x1="0" y1="158.2222222222222" x2="272" y2="158.2222222222222" fill="rgb(0, 0, 0)" stroke="rgb(60, 60, 60)" stroke-width="1px" opacity="0.25"></line><line x1="0" y1="138.4444444444444" x2="272" y2="138.4444444444444" fill="rgb(0, 0, 0)" stroke="rgb(60, 60, 60)" stroke-width="1px" opacity="0.25"></line><line x1="0" y1="118.6666666666666" x2="272" y2="118.6666666666666" fill="rgb(0, 0, 0)" stroke="rgb(60, 60, 60)" stroke-width="1px" opacity="0.25"></line><line x1="0" y1="98.8888888888888" x2="272" y2="98.8888888888888" fill="rgb(0, 0, 0)" stroke="rgb(60, 60, 60)" stroke-width="1px" opacity="0.25"></line><line x1="0" y1="79.11111111111099" x2="272" y2="79.11111111111099" fill="rgb(0, 0, 0)" stroke="rgb(60, 60, 60)" stroke-width="1px" opacity="0.25"></line><line x1="0" y1="59.3333333333334" x2="272" y2="59.3333333333334" fill="rgb(0, 0, 0)" stroke="rgb(60, 60, 60)" stroke-width="1px" opacity="0.25"></line><line x1="0" y1="39.5555555555556" x2="272" y2="39.5555555555556" fill="rgb(0, 0, 0)" stroke="rgb(60, 60, 60)" stroke-width="1px" opacity="0.25"></line><line x1="0" y1="19.7777777777778" x2="272" y2="19.7777777777778" fill="rgb(0, 0, 0)" stroke="rgb(60, 60, 60)" stroke-width="1px" opacity="0.25"></line><line x1="0" y1="0" x2="272" y2="0" fill="rgb(0, 0, 0)" stroke="rgb(60, 60, 60)" stroke-width="1px" opacity="0.25"></line></g></g></g><g><g><line x1="0" y1="1424.0000000000005" x2="272" y2="1424.0000000000005" fill="rgb(0, 0, 0)" stroke="rgb(153, 153, 153)" stroke-width="1.5px"></line></g></g><g><g><line x1="34" y1="0" x2="34" y2="178" fill="rgb(0, 0, 0)" stroke="rgb(153, 153, 153)" stroke-width="1.5px"></line></g></g><g><g><g><g><g><path stroke="rgb(255, 112, 67)" stroke-width="2px" d="M38.76,181.86775684126886L39.44,156.78475535062404L40.12,173.25962285298257L40.8,165.25162592021647L41.48,147.1707781207934L42.16,158.51065854382358L42.84,160.87334774720574L43.52,162.2889847852922L44.2,141.02920091098605L44.88,141.54229836553142L45.56,150.690794338914L46.24,125.23846402041869L46.919999999999995,136.48803741958474L47.599999999999994,147.65709759512444L48.28,119.00056183958608L48.96,150.42349163398674L49.64,138.33939890083926L50.32,104.57122469110655L51,128.50666964866076L51.68,151.70714186612918L52.36,139.1096715784675L53.04,118.29236251792587L53.72,96.96274829002567L54.400000000000006,97.42381471179591L55.080000000000005,84.44162574336902L55.76,81.07190709735882L56.44,70.21088909686979L57.12,76.95310600592899L57.8,63.31996829117078L58.48,94.91661436911245L59.16,78.51771387706968L59.84,86.35679399120043L60.52,86.64064874998732L61.2,73.55213458958599L61.88,61.279385665885115L62.56,58.3353767552037L63.24,74.24739169356731L63.919999999999995,66.11618037182113L64.6,74.49628057859839L65.28,79.52434070210718L65.96,64.86270934269251L66.64,51.64613724607938L67.32,48.13578726957718L68,41.609984002454325L68.68,50.9533290398236L69.36,38.88086862950698L70.04,58.155093532372504L70.72,52.041161041393934L71.4,83.72973641214878L72.08,85.06441420192425L72.76,59.347519726796605L73.44,61.59585047438394L74.12,62.94484892293592L74.80000000000001,63.754247992067164L75.48,55.4006537172167L76.16000000000001,41.54926343597771L76.83999999999999,50.91689669989215L77.52,30.019775509254004L78.19999999999999,43.999203943857964L78.88,47.96726772340412L79.56,41.50887227480331L80.24,50.89266200318755L80.92,43.26410884267321L81.6,21.008509513706514L82.28,34.17285106531341L82.96,28.81258184483579L83.64,38.85529446399079L84.32,58.13974903302926L85,56.45159477690699L85.68,59.85829550444976L86.36,39.80425522710152L87.04,14.512956909250846L87.72,30.275519502640094L88.4,70.67035148887655L89.08,55.130722534086715L89.76,63.48536543997372L90.44,46.40009046963212L91.12,53.82739292008485L91.80000000000001,62.70336767157265L92.48,76.86818623879418L93.16000000000001,41.17095595137923L93.83999999999999,33.0114447764754L94.52,41.374612222974804L95.19999999999999,41.97287225576159L95.88,42.33182827543371L96.56,46.96684232234978L97.24,45.32821031538671L97.92,53.18426482753763L98.6,62.3174908160442L99.28,81.05630056059015L99.96,52.523058260785845L100.64,44.24234659723203L101.32,48.11315331542869L102,37.17676319490499L102.68,26.195335841374714L103.36,32.86530642680157L104.04,54.545756210715595L104.72,58.71479236473505L105.4,74.47504105469162L106.08,52.99389583846279L106.76,40.10520870872557L107.44,50.0504638635411L108.12,56.0176169564303L108.80000000000001,59.59790881216388L109.48,52.90685020927499L110.16000000000001,66.5706824801995L110.83999999999999,65.92974812642525L111.52,78.80401451170574L112.19999999999999,33.493219198797306L112.88,41.6636768763679L113.56,42.14631104779741L114.24,42.435891550655185L114.92,60.288107285027664L115.6,57.74060972810612L116.28,42.953237042511546L116.96,29.66122014993863L117.64,34.94483701193985L118.32,33.69541384792453L119,32.94575994951552L119.68,32.49596761046985L120.36,23.386858490713763L121.04,22.340986300076082L121.72,12.87422926936452L122.4,7.194175050937446L123.08,30.30384366886804L123.76,13.232350409423645L124.44,42.76598260028874L125.12,56.06652147969503L125.80000000000001,59.62725152612266L126.48,44.08522212132138L127.16000000000001,43.59923819476961L127.83999999999999,47.727288273951416L128.51999999999998,28.106010453689635L129.2,38.431351629303464L129.88,49.046149615887686L130.56,46.57579469150937L131.24,67.19164245075639L131.92,53.04349711121455L132.6,71.07226390257932L133.28,68.63069697985324L133.96,45.06769611234364L134.64,53.027956305711726L135.32,48.96487870540375L136,37.687798428890034L136.67999999999998,26.501956981765687L137.36,37.46891954614915L138.04,52.88828364721107L138.72,22.363373961316626L139.39999999999998,52.66419001264056L140.08,62.00544592710604L140.76,67.61019947578549L141.44,53.29463132623211L142.12,49.124883717716045L142.8,33.36420815506139L143.48,41.58627025012649L144.16,42.09986707205252L144.84,55.66685216275316L145.52,50.54821621962857L146.2,73.99473580274062L146.88,79.22341383627894L147.56,47.0036857910863L148.24,49.76995683174127L148.92,51.42971945613435L149.60000000000002,61.26476359320249L150.28,58.32660351301105L150.96,60.98330074611232L151.64,49.31849208842789L152.32000000000002,55.57843389136242L153,50.49516525679431L153.67999999999998,29.766736643395376L154.36,30.58855362679779L155.04,48.76006409560051L155.72,41.98455009812096L156.39999999999998,51.17806869717826L157.08,65.53341357294147L157.76,69.72698006328655L158.44,54.56469967873272L159.12,32.20845729655849L159.8,40.89281973502466L160.48,41.683796762991506L161.16,42.1583829797716L161.84,55.701961707384726L162.52,50.5692819464074L163.2,56.32890780615001L163.88,59.7846833219956L164.56,70.69738234783182L165.24,77.24500176333369L165.92,67.9147464150897L166.60000000000002,57.89695277103043L167.28,65.14510358213982L167.96,42.97634007371562L168.64,42.933908966206076L169.32000000000002,51.74768401802933L170,57.0359490491233L170.67999999999998,55.789314786563494L171.36,37.36286679636967L172.04,43.98546543491156L172.72,39.119790901707546L173.39999999999998,45.039619898114125L174.08,30.913049863300017L174.76,22.437107842411876L175.44,26.190776346207826L176.12,32.8625707297015L176.8,50.124474357342564L177.48,42.80319625516634L178.16,38.410429393860454L178.84,75.55129742360876L179.52,75.73771037368714L180.2,75.84955814373384L180.88,62.657839808217105L181.56,50.3232155256908L182.24,56.18126795372012L182.92,59.69609941053764L183.60000000000002,52.96576456829919L184.28,44.50797038174019L184.96,48.272527586133634L185.64,46.11162147365678L186.32000000000002,18.297376657184003L187,41.385357913832166L187.67999999999998,55.238146667821L188.36,54.71063335778226L189.04,54.39412537175889L189.72,27.68651943115799L190.39999999999998,38.17965701578436L191.08,35.63630585023114L191.76,16.43182771824158L192.44,44.685668985579525L193.12,39.53991303210833L193.8,62.97011345511564L194.48,59.349813430158974L195.16,52.75799298007223L195.84,44.383307428803874L196.52,26.099621946601047L197.2,37.22751852505024L197.88,52.743443034552016L198.56,48.79417074270796L199.24,33.16578037005641L199.92,45.88680686033956L200.60000000000002,40.260595756964335L201.28,58.98292980881314L201.96,52.5378628072647L202.64,48.670822606335435L203.32000000000002,50.77023892089099L204,52.02988870962423L204.67999999999998,43.94644486653533L205.36,39.09637856068187L206.04,49.44516577471478L206.72,33.55637738926049L207.39999999999998,50.54075835307812L208.08,20.954858784836688L208.76,47.39948762553655L209.44,41.16820421608256L210.12,55.10785444917123L210.8,23.695116442492576L211.48,26.945581506256048L212.16,37.73509426084317L212.84,35.369568197266716L213.52,47.2090795566657L214.2,54.312786372305084L214.88,32.0573093127019L215.56,45.22172422592686L216.24,44.28113945753282L216.92,34.877554880167594L217.60000000000002,46.9138715664063L218.28,49.716068296933344L218.96,60.23657289768184L219.64,75.3881093744598L220.32000000000002,62.38097054665268L221,72.2551546826261L221.67999999999998,51.661964015223475L222.36,65.82375076376856L223.04,100.8385239618825L223.72,90.91004629665129L224.39999999999998,62.85489898363859L225.08,68.11987130970489L225.76,66.85926142412846L226.44,70.52248877399879L227.12,59.46159818637602L227.8,66.08389083134718L228.48,83.31614056977187L229.16,93.65549041282667L229.84,108.69833403498852L230.52,82.36710534296991L231.2,75.40760184408755L231.88,62.39266602842929L232.56,54.58370453903436L233.24,58.73756136172628L233.92,65.64946873655734L234.60000000000002,69.79661316145615L235.28,63.44571325396333L235.96,59.63517330946755L236.64,48.50961562644116L237.32000000000002,37.41464058151254L238,39.59688927088419" style="fill: none;" fill="none"></path></g></g></g></g><g opacity="0.2"><g><g><g><path stroke="rgb(255, 112, 67)" stroke-width="2px" d="M34.68,241.75290303760107L35.36,175.4587680498759L36.04,241.75290303760107L36.72,197.55685234069824L37.400000000000006,142.31158267127142L38.080000000000005,230.70391983456085L38.76,153.36068375905356L39.44,120.21349838044907L40.12,197.55685234069824L40.8,153.36068375905356L41.48,120.21349838044907L42.16,175.4587680498759L42.84,164.40966696209378L43.52,164.40966696209378L44.2,109.16451517740884L44.88,142.31158267127142L45.56,164.40966696209378L46.24,87.06643088658649L46.919999999999995,153.36068375905356L47.599999999999994,164.40966696209378L48.28,76.01732979880435L48.96,197.55685234069824L49.64,120.21349838044907L50.32,53.91936339272391L51,164.40966696209378L51.68,186.50775125291614L52.36,120.21349838044907L53.04,87.06643088658649L53.72,64.96834659576412L54.400000000000006,98.11541408962673L55.080000000000005,64.96834659576412L55.76,76.01732979880435L56.44,53.91936339272391L57.12,87.06643088658649L57.8,42.870262304941775L58.48,142.31158267127142L59.16,53.91936339272391L59.84,98.11541408962673L60.52,87.06643088658649L61.2,53.91936339272391L61.88,42.870262304941775L62.56,53.91936339272391L63.24,98.11541408962673L63.919999999999995,53.91936339272391L64.6,87.06643088658649L65.28,87.06643088658649L65.96,42.870262304941775L66.64,31.821279101901553L67.32,42.870262304941775L68,31.821279101901553L68.68,64.96834659576412L69.36,20.77217801411942L70.04,87.06643088658649L70.72,42.870262304941775L71.4,131.2625994682312L72.08,87.06643088658649L72.76,20.77217801411942L73.44,64.96834659576412L74.12,64.96834659576412L74.80000000000001,64.96834659576412L75.48,42.870262304941775L76.16000000000001,20.77217801411942L76.83999999999999,64.96834659576412L77.52,-1.3259062767029093L78.19999999999999,64.96834659576412L78.88,53.91936339272391L79.56,31.821279101901553L80.24,64.96834659576412L80.92,31.821279101901553L81.6,-12.37488947974316L82.28,53.91936339272391L82.96,20.77217801411942L83.64,53.91936339272391L84.32,87.06643088658649L85,53.91936339272391L85.68,64.96834659576412L86.36,9.723194811079196L87.04,-23.423990567525294L87.72,53.91936339272391L88.4,131.2625994682312L89.08,31.821279101901553L89.76,76.01732979880435L90.44,20.77217801411942L91.12,64.96834659576412L91.80000000000001,76.01732979880435L92.48,98.11541408962673L93.16000000000001,-12.37488947974316L93.83999999999999,20.77217801411942L94.52,53.91936339272391L95.19999999999999,42.870262304941775L95.88,42.870262304941775L96.56,53.91936339272391L97.24,42.870262304941775L97.92,64.96834659576412L98.6,76.01732979880435L99.28,109.16451517740884L99.96,9.723194811079196L100.64,31.821279101901553L101.32,53.91936339272391L102,20.77217801411942L102.68,9.723194811079196L103.36,42.870262304941775L104.04,87.06643088658649L104.72,64.96834659576412L105.4,98.11541408962673L106.08,20.77217801411942L106.76,20.77217801411942L107.44,64.96834659576412L108.12,64.96834659576412L108.80000000000001,64.96834659576412L109.48,42.870262304941775L110.16000000000001,87.06643088658649L110.83999999999999,64.96834659576412L111.52,98.11541408962673L112.19999999999999,-34.472973770565545L112.88,53.91936339272391L113.56,42.870262304941775L114.24,42.870262304941775L114.92,87.06643088658649L115.6,53.91936339272391L116.28,20.77217801411942L116.96,9.723194811079196L117.64,42.870262304941775L118.32,31.821279101901553L119,31.821279101901553L119.68,31.821279101901553L120.36,9.723194811079196L121.04,20.77217801411942L121.72,-1.3259062767029093L122.4,-1.3259062767029093L123.08,64.96834659576412L123.76,-12.37488947974316L124.44,87.06643088658649L125.12,76.01732979880435L125.80000000000001,64.96834659576412L126.48,20.77217801411942L127.16000000000001,42.870262304941775L127.83999999999999,53.91936339272391L128.51999999999998,-1.3259062767029093L129.2,53.91936339272391L129.88,64.96834659576412L130.56,42.870262304941775L131.24,98.11541408962673L131.92,31.821279101901553L132.6,98.11541408962673L133.28,64.96834659576412L133.96,9.723194811079196L134.64,64.96834659576412L135.32,42.870262304941775L136,20.77217801411942L136.67999999999998,9.723194811079196L137.36,53.91936339272391L138.04,76.01732979880435L138.72,-23.423990567525294L139.39999999999998,98.11541408962673L140.08,76.01732979880435L140.76,76.01732979880435L141.44,31.821279101901553L142.12,42.870262304941775L142.8,9.723194811079196L143.48,53.91936339272391L144.16,42.870262304941775L144.84,76.01732979880435L145.52,42.870262304941775L146.2,109.16451517740884L146.88,87.06643088658649L147.56,-1.3259062767029093L148.24,53.91936339272391L148.92,53.91936339272391L149.60000000000002,76.01732979880435L150.28,53.91936339272391L150.96,64.96834659576412L151.64,31.821279101901553L152.32000000000002,64.96834659576412L153,42.870262304941775L153.67999999999998,-1.3259062767029093L154.36,31.821279101901553L155.04,76.01732979880435L155.72,31.821279101901553L156.39999999999998,64.96834659576412L157.08,87.06643088658649L157.76,76.01732979880435L158.44,31.821279101901553L159.12,-1.3259062767029093L159.8,53.91936339272391L160.48,42.870262304941775L161.16,42.870262304941775L161.84,76.01732979880435L162.52,42.870262304941775L163.2,64.96834659576412L163.88,64.96834659576412L164.56,87.06643088658649L165.24,87.06643088658649L165.92,53.91936339272391L166.60000000000002,42.870262304941775L167.28,76.01732979880435L167.96,9.723194811079196L168.64,42.870262304941775L169.32000000000002,64.96834659576412L170,64.96834659576412L170.67999999999998,53.91936339272391L171.36,9.723194811079196L172.04,53.91936339272391L172.72,31.821279101901553L173.39999999999998,53.91936339272391L174.08,9.723194811079196L174.76,9.723194811079196L175.44,31.821279101901553L176.12,42.870262304941775L176.8,76.01732979880435L177.48,31.821279101901553L178.16,31.821279101901553L178.84,131.2625994682312L179.52,76.01732979880435L180.2,76.01732979880435L180.88,42.870262304941775L181.56,31.821279101901553L182.24,64.96834659576412L182.92,64.96834659576412L183.60000000000002,42.870262304941775L184.28,31.821279101901553L184.96,53.91936339272391L185.64,42.870262304941775L186.32000000000002,-23.423990567525294L187,76.01732979880435L187.67999999999998,76.01732979880435L188.36,53.91936339272391L189.04,53.91936339272391L189.72,-12.37488947974316L190.39999999999998,53.91936339272391L191.08,31.821279101901553L191.76,-12.37488947974316L192.44,87.06643088658649L193.12,31.821279101901553L193.8,98.11541408962673L194.48,53.91936339272391L195.16,42.870262304941775L195.84,31.821279101901553L196.52,-1.3259062767029093L197.2,53.91936339272391L197.88,76.01732979880435L198.56,42.870262304941775L199.24,9.723194811079196L199.92,64.96834659576412L200.60000000000002,31.821279101901553L201.28,87.06643088658649L201.96,42.870262304941775L202.64,42.870262304941775L203.32000000000002,53.91936339272391L204,53.91936339272391L204.67999999999998,31.821279101901553L205.36,31.821279101901553L206.04,64.96834659576412L206.72,9.723194811079196L207.39999999999998,76.01732979880435L208.08,-23.423990567525294L208.76,87.06643088658649L209.44,31.821279101901553L210.12,76.01732979880435L210.8,-23.423990567525294L211.48,31.821279101901553L212.16,53.91936339272391L212.84,31.821279101901553L213.52,64.96834659576412L214.2,64.96834659576412L214.88,-1.3259062767029093L215.56,64.96834659576412L216.24,42.870262304941775L216.92,20.77217801411942L217.60000000000002,64.96834659576412L218.28,53.91936339272391L218.96,76.01732979880435L219.64,98.11541408962673L220.32000000000002,42.870262304941775L221,87.06643088658649L221.67999999999998,20.77217801411942L222.36,87.06643088658649L223.04,153.36068375905356L223.72,76.01732979880435L224.39999999999998,20.77217801411942L225.08,76.01732979880435L225.76,64.96834659576412L226.44,76.01732979880435L227.12,42.870262304941775L227.8,76.01732979880435L228.48,109.16451517740884L229.16,109.16451517740884L229.84,131.2625994682312L230.52,42.870262304941775L231.2,64.96834659576412L231.88,42.870262304941775L232.56,42.870262304941775L233.24,64.96834659576412L233.92,76.01732979880435L234.60000000000002,76.01732979880435L235.28,53.91936339272391L235.96,53.91936339272391L236.64,31.821279101901553L237.32000000000002,20.77217801411942L238,42.870262304941775" style="fill: none;" fill="none"></path></g></g></g></g></g></g><g transform="translate(58, 178)" clip-path="url(#clip_1)"><clipPath id="clip_1"><rect width="272" height="22"></rect></clipPath><g><g><line x1="0" y1="0" x2="0" y2="5" style="visibility: inherit;" fill="rgb(0, 0, 0)" stroke="rgb(204, 204, 204)" stroke-width="1px"></line><line x1="34" y1="0" x2="34" y2="5" style="visibility: inherit;" fill="rgb(0, 0, 0)" stroke="rgb(204, 204, 204)" stroke-width="1px"></line><line x1="68" y1="0" x2="68" y2="5" style="visibility: inherit;" fill="rgb(0, 0, 0)" stroke="rgb(204, 204, 204)" stroke-width="1px"></line><line x1="102" y1="0" x2="102" y2="5" style="visibility: inherit;" fill="rgb(0, 0, 0)" stroke="rgb(204, 204, 204)" stroke-width="1px"></line><line x1="136" y1="0" x2="136" y2="5" style="visibility: inherit;" fill="rgb(0, 0, 0)" stroke="rgb(204, 204, 204)" stroke-width="1px"></line><line x1="170" y1="0" x2="170" y2="5" style="visibility: inherit;" fill="rgb(0, 0, 0)" stroke="rgb(204, 204, 204)" stroke-width="1px"></line><line x1="204" y1="0" x2="204" y2="5" style="visibility: inherit;" fill="rgb(0, 0, 0)" stroke="rgb(204, 204, 204)" stroke-width="1px"></line><line x1="238" y1="0" x2="238" y2="5" style="visibility: inherit;" fill="rgb(0, 0, 0)" stroke="rgb(204, 204, 204)" stroke-width="1px"></line><line x1="272" y1="0" x2="272" y2="5" style="visibility: inherit;" fill="rgb(0, 0, 0)" stroke="rgb(204, 204, 204)" stroke-width="1px"></line></g><g transform="translate(0, 8)"><text x="0" y="0" dx="0em" dy="0.95em" style="text-anchor: middle; visibility: hidden; font-family: &quot;Helvetica Neue&quot;, sans-serif; font-size: 12px; font-weight: 200;" fill="rgb(50, 49, 63)" stroke="none" stroke-width="1px">-50</text><text x="34" y="0" dx="0em" dy="0.95em" style="text-anchor: middle; visibility: inherit; font-family: &quot;Helvetica Neue&quot;, sans-serif; font-size: 12px; font-weight: 200;" fill="rgb(50, 49, 63)" stroke="none" stroke-width="1px">0</text><text x="68" y="0" dx="0em" dy="0.95em" style="text-anchor: middle; visibility: inherit; font-family: &quot;Helvetica Neue&quot;, sans-serif; font-size: 12px; font-weight: 200;" fill="rgb(50, 49, 63)" stroke="none" stroke-width="1px">50</text><text x="102" y="0" dx="0em" dy="0.95em" style="text-anchor: middle; visibility: inherit; font-family: &quot;Helvetica Neue&quot;, sans-serif; font-size: 12px; font-weight: 200;" fill="rgb(50, 49, 63)" stroke="none" stroke-width="1px">100</text><text x="136" y="0" dx="0em" dy="0.95em" style="text-anchor: middle; visibility: inherit; font-family: &quot;Helvetica Neue&quot;, sans-serif; font-size: 12px; font-weight: 200;" fill="rgb(50, 49, 63)" stroke="none" stroke-width="1px">150</text><text x="170" y="0" dx="0em" dy="0.95em" style="text-anchor: middle; visibility: inherit; font-family: &quot;Helvetica Neue&quot;, sans-serif; font-size: 12px; font-weight: 200;" fill="rgb(50, 49, 63)" stroke="none" stroke-width="1px">200</text><text x="204" y="0" dx="0em" dy="0.95em" style="text-anchor: middle; visibility: inherit; font-family: &quot;Helvetica Neue&quot;, sans-serif; font-size: 12px; font-weight: 200;" fill="rgb(50, 49, 63)" stroke="none" stroke-width="1px">250</text><text x="238" y="0" dx="0em" dy="0.95em" style="text-anchor: middle; visibility: inherit; font-family: &quot;Helvetica Neue&quot;, sans-serif; font-size: 12px; font-weight: 200;" fill="rgb(50, 49, 63)" stroke="none" stroke-width="1px">300</text><text x="272" y="0" dx="0em" dy="0.95em" style="text-anchor: middle; visibility: hidden; font-family: &quot;Helvetica Neue&quot;, sans-serif; font-size: 12px; font-weight: 200;" fill="rgb(50, 49, 63)" stroke="none" stroke-width="1px">350</text></g><line x1="0" y1="0" x2="272" y2="0" fill="rgb(0, 0, 0)" stroke="rgb(204, 204, 204)" stroke-width="1px"></line></g></g></g></g></svg>