<svg viewBox="0 0 330 200" xmlns="http://www.w3.org/2000/svg"><g><g><g><g><g><line x1="58" y1="178" x2="53" y2="178" style="visibility: inherit;" fill="rgb(0, 0, 0)" stroke="rgb(204, 204, 204)" stroke-width="1px"></line><line x1="58" y1="158.22222222222223" x2="53" y2="158.22222222222223" style="visibility: inherit;" fill="rgb(0, 0, 0)" stroke="rgb(204, 204, 204)" stroke-width="1px"></line><line x1="58" y1="138.44444444444446" x2="53" y2="138.44444444444446" style="visibility: inherit;" fill="rgb(0, 0, 0)" stroke="rgb(204, 204, 204)" stroke-width="1px"></line><line x1="58" y1="118.66666666666667" x2="53" y2="118.66666666666667" style="visibility: inherit;" fill="rgb(0, 0, 0)" stroke="rgb(204, 204, 204)" stroke-width="1px"></line><line x1="58" y1="98.8888888888889" x2="53" y2="98.8888888888889" style="visibility: inherit;" fill="rgb(0, 0, 0)" stroke="rgb(204, 204, 204)" stroke-width="1px"></line><line x1="58" y1="79.1111111111111" x2="53" y2="79.1111111111111" style="visibility: inherit;" fill="rgb(0, 0, 0)" stroke="rgb(204, 204, 204)" stroke-width="1px"></line><line x1="58" y1="59.33333333333334" x2="53" y2="59.33333333333334" style="visibility: inherit;" fill="rgb(0, 0, 0)" stroke="rgb(204, 204, 204)" stroke-width="1px"></line><line x1="58" y1="39.55555555555554" x2="53" y2="39.55555555555554" style="visibility: inherit;" fill="rgb(0, 0, 0)" stroke="rgb(204, 204, 204)" stroke-width="1px"></line><line x1="58" y1="19.7777777777778" x2="53" y2="19.7777777777778" style="visibility: inherit;" fill="rgb(0, 0, 0)" stroke="rgb(204, 204, 204)" stroke-width="1px"></line><line x1="58" y1="0" x2="53" y2="0" style="visibility: inherit;" fill="rgb(0, 0, 0)" stroke="rgb(204, 204, 204)" stroke-width="1px"></line></g><g transform="translate(48, 0)"><text x="0" y="178" dx="0em" dy="0.3em" style="text-anchor: end; visibility: hidden; font-family: &quot;Helvetica Neue&quot;, sans-serif; font-size: 12px; font-weight: 200;" fill="rgb(50, 49, 63)" stroke="none" stroke-width="1px">0.59</text><text x="0" y="158.22222222222223" dx="0em" dy="0.3em" style="text-anchor: end; visibility: inherit; font-family: &quot;Helvetica Neue&quot;, sans-serif; font-size: 12px; font-weight: 200;" fill="rgb(50, 49, 63)" stroke="none" stroke-width="1px">0.6</text><text x="0" y="138.44444444444446" dx="0em" dy="0.3em" style="text-anchor: end; visibility: hidden; font-family: &quot;Helvetica Neue&quot;, sans-serif; font-size: 12px; font-weight: 200;" fill="rgb(50, 49, 63)" stroke="none" stroke-width="1px">0.61</text><text x="0" y="118.66666666666667" dx="0em" dy="0.3em" style="text-anchor: end; visibility: inherit; font-family: &quot;Helvetica Neue&quot;, sans-serif; font-size: 12px; font-weight: 200;" fill="rgb(50, 49, 63)" stroke="none" stroke-width="1px">0.62</text><text x="0" y="98.8888888888889" dx="0em" dy="0.3em" style="text-anchor: end; visibility: hidden; font-family: &quot;Helvetica Neue&quot;, sans-serif; font-size: 12px; font-weight: 200;" fill="rgb(50, 49, 63)" stroke="none" stroke-width="1px">0.63</text><text x="0" y="79.1111111111111" dx="0em" dy="0.3em" style="text-anchor: end; visibility: inherit; font-family: &quot;Helvetica Neue&quot;, sans-serif; font-size: 12px; font-weight: 200;" fill="rgb(50, 49, 63)" stroke="none" stroke-width="1px">0.64</text><text x="0" y="59.33333333333334" dx="0em" dy="0.3em" style="text-anchor: end; visibility: hidden; font-family: &quot;Helvetica Neue&quot;, sans-serif; font-size: 12px; font-weight: 200;" fill="rgb(50, 49, 63)" stroke="none" stroke-width="1px">0.65</text><text x="0" y="39.55555555555554" dx="0em" dy="0.3em" style="text-anchor: end; visibility: inherit; font-family: &quot;Helvetica Neue&quot;, sans-serif; font-size: 12px; font-weight: 200;" fill="rgb(50, 49, 63)" stroke="none" stroke-width="1px">0.66</text><text x="0" y="19.7777777777778" dx="0em" dy="0.3em" style="text-anchor: end; visibility: hidden; font-family: &quot;Helvetica Neue&quot;, sans-serif; font-size: 12px; font-weight: 200;" fill="rgb(50, 49, 63)" stroke="none" stroke-width="1px">0.67</text><text x="0" y="0" dx="0em" dy="0.3em" style="text-anchor: end; visibility: hidden; font-family: &quot;Helvetica Neue&quot;, sans-serif; font-size: 12px; font-weight: 200;" fill="rgb(50, 49, 63)" stroke="none" stroke-width="1px">0.68</text></g><line x1="58" y1="0" x2="58" y2="178" fill="rgb(0, 0, 0)" stroke="rgb(204, 204, 204)" stroke-width="1px"></line></g></g><g transform="translate(58, 0)" clip-path="url(#clip_0)"><clipPath id="clip_0"><rect width="272" height="178"></rect></clipPath><g><g><g><line x1="0" y1="0" x2="0" y2="178" fill="rgb(0, 0, 0)" stroke="rgb(60, 60, 60)" stroke-width="1px" opacity="0.25"></line><line x1="34" y1="0" x2="34" y2="178" fill="rgb(0, 0, 0)" stroke="rgb(60, 60, 60)" stroke-width="1px" opacity="0.25"></line><line x1="68" y1="0" x2="68" y2="178" fill="rgb(0, 0, 0)" stroke="rgb(60, 60, 60)" stroke-width="1px" opacity="0.25"></line><line x1="102" y1="0" x2="102" y2="178" fill="rgb(0, 0, 0)" stroke="rgb(60, 60, 60)" stroke-width="1px" opacity="0.25"></line><line x1="136" y1="0" x2="136" y2="178" fill="rgb(0, 0, 0)" stroke="rgb(60, 60, 60)" stroke-width="1px" opacity="0.25"></line><line x1="170" y1="0" x2="170" y2="178" fill="rgb(0, 0, 0)" stroke="rgb(60, 60, 60)" stroke-width="1px" opacity="0.25"></line><line x1="204" y1="0" x2="204" y2="178" fill="rgb(0, 0, 0)" stroke="rgb(60, 60, 60)" stroke-width="1px" opacity="0.25"></line><line x1="238" y1="0" x2="238" y2="178" fill="rgb(0, 0, 0)" stroke="rgb(60, 60, 60)" stroke-width="1px" opacity="0.25"></line><line x1="272" y1="0" x2="272" y2="178" fill="rgb(0, 0, 0)" stroke="rgb(60, 60, 60)" stroke-width="1px" opacity="0.25"></line></g><g><line x1="0" y1="178" x2="272" y2="178" fill="rgb(0, 0, 0)" stroke="rgb(60, 60, 60)" stroke-width="1px" opacity="0.25"></line><line x1="0" y1="158.22222222222223" x2="272" y2="158.22222222222223" fill="rgb(0, 0, 0)" stroke="rgb(60, 60, 60)" stroke-width="1px" opacity="0.25"></line><line x1="0" y1="138.44444444444446" x2="272" y2="138.44444444444446" fill="rgb(0, 0, 0)" stroke="rgb(60, 60, 60)" stroke-width="1px" opacity="0.25"></line><line x1="0" y1="118.66666666666667" x2="272" y2="118.66666666666667" fill="rgb(0, 0, 0)" stroke="rgb(60, 60, 60)" stroke-width="1px" opacity="0.25"></line><line x1="0" y1="98.8888888888889" x2="272" y2="98.8888888888889" fill="rgb(0, 0, 0)" stroke="rgb(60, 60, 60)" stroke-width="1px" opacity="0.25"></line><line x1="0" y1="79.1111111111111" x2="272" y2="79.1111111111111" fill="rgb(0, 0, 0)" stroke="rgb(60, 60, 60)" stroke-width="1px" opacity="0.25"></line><line x1="0" y1="59.33333333333334" x2="272" y2="59.33333333333334" fill="rgb(0, 0, 0)" stroke="rgb(60, 60, 60)" stroke-width="1px" opacity="0.25"></line><line x1="0" y1="39.55555555555554" x2="272" y2="39.55555555555554" fill="rgb(0, 0, 0)" stroke="rgb(60, 60, 60)" stroke-width="1px" opacity="0.25"></line><line x1="0" y1="19.7777777777778" x2="272" y2="19.7777777777778" fill="rgb(0, 0, 0)" stroke="rgb(60, 60, 60)" stroke-width="1px" opacity="0.25"></line><line x1="0" y1="0" x2="272" y2="0" fill="rgb(0, 0, 0)" stroke="rgb(60, 60, 60)" stroke-width="1px" opacity="0.25"></line></g></g></g><g><g><line x1="0" y1="1344.8888888888878" x2="272" y2="1344.8888888888878" fill="rgb(0, 0, 0)" stroke="rgb(153, 153, 153)" stroke-width="1.5px"></line></g></g><g><g><line x1="34" y1="0" x2="34" y2="178" fill="rgb(0, 0, 0)" stroke="rgb(153, 153, 153)" stroke-width="1.5px"></line></g></g><g><g><g><g><g><path stroke="rgb(255, 112, 67)" stroke-width="2px" d="M35.36,206.83796050813433L36.04,175.55085263496096L36.72,202.18030196397015L38.76,187.45615997935994L39.44,163.71882535781964L40.12,155.85714750047083L40.8,176.7070795964368L41.48,146.16930855686834L42.16,129.59252032444678L42.84,122.22750172664325L43.52,113.65566668917783L44.2,126.205810205217L44.88,149.2061808798996L45.56,131.74357582720518L46.24,127.35203981473617L46.919999999999995,146.2994224218816L47.599999999999994,140.75202883206723L48.28,140.68326752937858L48.96,115.11013042938774L49.64,119.85752088403008L50.32,123.03801101079063L51,154.3396019281648L51.68,178.95716800441312L52.36,169.92674758569163L53.04,141.9990674972364L53.72,112.34909834475343L54.400000000000006,103.42236525426694L55.080000000000005,97.44148388038414L55.76,78.84953144902688L56.44,84.62392337964732L57.12,81.20038345970141L57.8,89.84515523401784L58.48,77.40623834949103L59.16,80.01070408104592L59.84,81.75569559430139L60.52,82.9248396716635L61.2,76.41579747623129L61.88,75.70094323001665L62.56,71.57578737451668L63.24,79.75050460216808L63.919999999999995,70.6428290386745L64.6,75.47921895882817L65.28,78.71960016560107L65.96,59.01355196200225L66.64,64.04143881090388L67.32,74.70249082512119L68,67.2606599957039L68.68,58.62842998436389L69.36,67.42957152829935L70.04,66.03396853796853L70.72,68.7451178953593L71.4,55.97685232829974L72.08,65.65301449254648L72.76,64.84367532476037L73.44,60.655253625096705L74.12,65.14137890288161L74.80000000000001,60.854715022623054L75.48,68.92118249618014L76.16000000000001,56.09481561410766L76.83999999999999,51.14731426027916L77.52,55.12485616926942L78.19999999999999,50.49744143226934L78.88,47.39707355849163L79.56,45.31982708306634L80.24,47.574275303507505L80.92,56.3771234271797L81.6,62.27503167003549L82.28,73.51899800872114L82.96,62.82151646472143L83.64,55.65420383024356L84.32,61.79067554008499L85,73.19447940165041L85.68,69.89645681395858L86.36,67.68678168020499L87.04,51.621563708647L87.72,44.50407102667168L88.4,50.673883202722934L89.08,40.222921728734434L89.76,55.09788098907656L90.44,54.12557142053085L91.12,49.82792065063737L91.80000000000001,57.88706580974788L92.48,48.70195743440931L93.16000000000001,57.132670454875225L93.83999999999999,62.78124817858749L94.52,59.273427437503216L95.19999999999999,42.33845190903415L95.88,52.86912175287388L96.56,52.63230273227515L97.24,37.88889835653123L97.92,46.24171751372893L98.6,40.89957407607656L99.28,37.32033797284956L99.96,42.21461759965874L100.64,56.43231722259556L101.32,55.019643696988595L102,57.71931689183526L102.68,48.589565659407924L103.36,46.118796790684854L104.04,59.0481172805831L104.72,53.12602637687219L105.4,49.15822547138589L106.08,39.20743104873861L106.76,58.063705592447235L107.44,67.05120617776379L108.12,65.78046375395465L108.80000000000001,64.92906633000251L109.48,60.712465598951425L110.16000000000001,65.17971092511861L110.83999999999999,60.8803974776791L111.52,57.99985746789473L112.19999999999999,48.77752784536776L112.88,57.18330263021751L113.56,59.16896837709865L114.24,53.20699661153763L114.92,49.21247552861175L115.6,64.76708539396218L116.28,49.665367196864764L116.96,65.07052281169182L117.64,60.80724144168313L118.32,54.30463956480942L119,42.65552849133246L119.68,49.43535970404565L120.36,32.100743168649444L121.04,53.30222471278741L121.72,45.6301138994458L122.4,51.42833192748165L123.08,62.60550582223688L123.76,73.74041569069098L124.44,77.55460194358714L125.12,80.11010673302778L125.80000000000001,70.88376266897815L126.48,75.64064441903962L127.16000000000001,53.30448728666342L127.83999999999999,49.27779428094618L128.51999999999998,46.579909967115555L129.2,63.0032664677598L129.88,44.83744405930608L130.56,50.89724313458808L131.24,65.89587968996646L131.92,46.77549491818439L132.6,48.54957275303329L133.28,53.38436935938522L133.96,45.68515081266642L134.64,47.81904220233611L135.32,38.310178258475304L136,46.523975048031446L136.67999999999998,41.08868662405925L137.36,66.61651464388343L138.04,65.48922042625475L138.72,57.441565484472434L139.39999999999998,55.6958400324461L140.08,50.88000062062031L140.76,65.88432720560796L141.44,79.58339047455291L142.12,85.11559840774282L142.8,56.006503100126395L143.48,43.795777059995004L144.16,53.84552960401754L144.84,56.932660449544684L145.52,48.06250584307318L146.2,53.05803452971203L146.88,56.405038749759925L147.56,55.00136712018873L148.24,61.35327494434742L148.92,65.6090531865338L149.60000000000002,68.46042460879877L150.28,81.30937573469078L150.96,71.68727290009247L151.64,79.82519963285434L152.32000000000002,52.46193592095128L153,70.590388313833L153.67999999999998,68.1517157851211L154.36,73.81017300685555L155.04,66.66280707244296L155.72,58.227868537418416L156.39999999999998,56.222663077920046L157.08,51.232972061088034L157.76,58.82845025474994L158.44,52.978849469564196L159.12,74.58292375037176L159.8,59.88818225462745L160.48,57.33507326844992L161.16,55.62449024771108L161.84,54.47839962381596L162.52,46.418151089834964L163.2,44.663949029070835L163.88,50.7810014643304L164.56,51.23326213895098L165.24,55.18244124795004L165.92,43.24365561903676L166.60000000000002,53.47560823857566L167.28,45.74628086172396L167.96,55.15236715117604L168.64,43.22350597419802L169.32000000000002,42.52353680159439L170,42.05455745594972L170.67999999999998,34.44797347839648L171.36,36.6439300294073L172.04,38.1152209185845L172.72,71.91662153522205L173.39999999999998,65.39412758644848L174.08,50.08548546583066L174.76,36.18253078801351L175.44,41.452286785818615L176.12,55.92155557732276L176.8,58.3235978516592L177.48,59.93296617546454L178.16,68.30361076838567L178.84,52.03483919772873L179.52,66.65806905227056L180.2,65.51706187987429L180.88,64.75258707436866L181.56,60.594224497676606L182.24,72.39285720323572L182.92,73.0055732999889L183.60000000000002,62.477521909874184L184.28,55.4237274784973L184.96,54.34388856844292L185.64,53.62039649870647L186.32000000000002,56.78182126898625L187,44.31524023313082L187.67999999999998,43.2549987550791L188.36,31.60610469180989L189.04,34.739877942394145L189.72,55.07044501119647L190.39999999999998,50.4609859563832L191.08,47.37264838965828L191.76,45.30346221995262L192.44,54.85567866118912L193.12,72.19419594979229L193.8,54.64153126927087L194.48,61.11218492423252L195.16,61.80131951408873L195.84,54.97067187332115L196.52,46.74797349700361L197.2,44.88493004187413L197.88,47.28289428590523L198.56,45.24332697043798L199.24,62.10775585998573L199.92,62.46835204104346L200.60000000000002,73.64852265729156L201.28,73.84686915420622L201.96,44.81029004325367L202.64,61.81762111877228L203.32000000000002,58.62779730742707L204,67.42914762680047L204.67999999999998,69.67988788377721L205.36,56.60314822400899L206.04,58.78026492493892L206.72,49.30040084158742L207.39999999999998,72.11836316962733L208.08,65.52929448149992L208.76,53.82225064448315L209.44,71.50179917859941L210.12,46.88525761660051L210.8,37.684542586032535L211.48,46.10479914749479L212.16,48.10020658667108L212.84,45.79092621195133L213.52,69.76701516777119L214.2,49.36915568831367L214.88,57.57969328499112L215.56,59.434550115796924L216.24,57.0311397354335L216.92,62.71322259656151L217.60000000000002,62.874014754549165L218.28,66.62794885936884L218.96,72.7892491666013L219.64,65.97878809947245L220.32000000000002,50.477208009556676L221,36.44498489230986L221.67999999999998,45.27429549270053L222.36,51.18993359496227L223.04,36.922511034531624L223.72,56.53280918292853L224.39999999999998,51.44076995144357L225.08,40.73673585037733L225.76,55.44213645057698L226.44,79.8794904846537L227.12,70.72924978256758L227.8,71.89095632814121L228.48,61.730728538736216L229.16,54.92337591983494L229.84,61.3010208401104L230.52,50.98930730475222L231.2,36.788091420090865L231.88,38.211809050342424L232.56,57.39663885352179L233.24,59.31190364671254L233.92,46.01039542620771L234.60000000000002,37.09838491846929L235.28,45.71207351022747L235.96,58.77561268267671L236.64,67.52818392821764L237.32000000000002,66.10003884675885L238,79.72791727412402" style="fill: none;" fill="none"></path></g></g></g></g><g opacity="0.2"><g><g><g><path stroke="rgb(255, 112, 67)" stroke-width="2px" d="M35.36,206.83796050813453L36.04,140.54370763566754L36.72,239.985145886739L37.400000000000006,173.690893014272L38.080000000000005,184.73987621731223L38.76,184.73987621731223L39.44,118.44574122958713L40.12,140.54370763566754L40.8,217.88706159591663L41.48,85.29855585098268L42.16,96.34765693876479L42.84,107.39664014180501L43.52,96.34765693876479L44.2,151.59280872344968L44.88,195.78897730509433L45.56,96.34765693876479L46.24,118.44574122958713L46.919999999999995,184.73987621731223L47.599999999999994,129.49472443262735L48.28,140.54370763566754L48.96,63.20047156016035L49.64,129.49472443262735L50.32,129.49472443262735L51,217.88706159591663L51.68,228.93604479895686L52.36,151.59280872344968L53.04,85.29855585098268L53.72,52.15148835712013L54.400000000000006,85.29855585098268L55.080000000000005,85.29855585098268L55.76,41.10238726933804L56.44,96.34765693876479L57.12,74.24957264794247L57.8,107.39664014180501L58.48,52.15148835712013L59.16,85.29855585098268L59.84,85.29855585098268L60.52,85.29855585098268L61.2,63.20047156016035L61.88,74.24957264794247L62.56,63.20047156016035L63.24,96.34765693876479L63.919999999999995,52.15148835712013L64.6,85.29855585098268L65.28,85.29855585098268L65.96,19.00430297851571L66.64,74.24957264794247L67.32,96.34765693876479L68,52.15148835712013L68.68,41.10238726933804L69.36,85.29855585098268L70.04,63.20047156016035L70.72,74.24957264794247L71.4,30.053404066297816L72.08,85.29855585098268L72.76,63.20047156016035L73.44,52.15148835712013L74.12,74.24957264794247L74.80000000000001,52.15148835712013L75.48,85.29855585098268L76.16000000000001,30.053404066297816L76.83999999999999,41.10238726933804L77.52,63.20047156016035L78.19999999999999,41.10238726933804L78.88,41.10238726933804L79.56,41.10238726933804L80.24,52.15148835712013L80.92,74.24957264794247L81.6,74.24957264794247L82.28,96.34765693876479L82.96,41.10238726933804L83.64,41.10238726933804L84.32,74.24957264794247L85,96.34765693876479L85.68,63.20047156016035L86.36,63.20047156016035L87.04,19.00430297851571L87.72,30.053404066297816L88.4,63.20047156016035L89.08,19.00430297851571L89.76,85.29855585098268L90.44,52.15148835712013L91.12,41.10238726933804L91.80000000000001,74.24957264794247L92.48,30.053404066297816L93.16000000000001,74.24957264794247L93.83999999999999,74.24957264794247L94.52,52.15148835712013L95.19999999999999,7.955319775475488L95.88,74.24957264794247L96.56,52.15148835712013L97.24,7.955319775475488L97.92,63.20047156016035L98.6,30.053404066297816L99.28,30.053404066297816L99.96,52.15148835712013L100.64,85.29855585098268L101.32,52.15148835712013L102,63.20047156016035L102.68,30.053404066297816L103.36,41.10238726933804L104.04,85.29855585098268L104.72,41.10238726933804L105.4,41.10238726933804L106.08,19.00430297851571L106.76,96.34765693876479L107.44,85.29855585098268L108.12,63.20047156016035L108.80000000000001,63.20047156016035L109.48,52.15148835712013L110.16000000000001,74.24957264794247L110.83999999999999,52.15148835712013L111.52,52.15148835712013L112.19999999999999,30.053404066297816L112.88,74.24957264794247L113.56,63.20047156016035L114.24,41.10238726933804L114.92,41.10238726933804L115.6,96.34765693876479L116.28,19.00430297851571L116.96,96.34765693876479L117.64,52.15148835712013L118.32,41.10238726933804L119,19.00430297851571L119.68,63.20047156016035L120.36,-3.093781312306618L121.04,96.34765693876479L121.72,30.053404066297816L122.4,63.20047156016035L123.08,85.29855585098268L123.76,96.34765693876479L124.44,85.29855585098268L125.12,85.29855585098268L125.80000000000001,52.15148835712013L126.48,85.29855585098268L127.16000000000001,7.955319775475488L127.83999999999999,41.10238726933804L128.51999999999998,41.10238726933804L129.2,96.34765693876479L129.88,7.955319775475488L130.56,63.20047156016035L131.24,96.34765693876479L131.92,7.955319775475488L132.6,52.15148835712013L133.28,63.20047156016035L133.96,30.053404066297816L134.64,52.15148835712013L135.32,19.00430297851571L136,63.20047156016035L136.67999999999998,30.053404066297816L137.36,118.44574122958713L138.04,63.20047156016035L138.72,41.10238726933804L139.39999999999998,52.15148835712013L140.08,41.10238726933804L140.76,96.34765693876479L141.44,107.39664014180501L142.12,96.34765693876479L142.8,-3.093781312306618L143.48,19.00430297851571L144.16,74.24957264794247L144.84,63.20047156016035L145.52,30.053404066297816L146.2,63.20047156016035L146.88,63.20047156016035L147.56,52.15148835712013L148.24,74.24957264794247L148.92,74.24957264794247L149.60000000000002,74.24957264794247L150.28,107.39664014180501L150.96,52.15148835712013L151.64,96.34765693876479L152.32000000000002,-3.093781312306618L153,107.39664014180501L153.67999999999998,63.20047156016035L154.36,85.29855585098268L155.04,52.15148835712013L155.72,41.10238726933804L156.39999999999998,52.15148835712013L157.08,41.10238726933804L157.76,74.24957264794247L158.44,41.10238726933804L159.12,118.44574122958713L159.8,30.053404066297816L160.48,52.15148835712013L161.16,52.15148835712013L161.84,52.15148835712013L162.52,30.053404066297816L163.2,41.10238726933804L163.88,63.20047156016035L164.56,52.15148835712013L165.24,63.20047156016035L165.92,19.00430297851571L166.60000000000002,74.24957264794247L167.28,30.053404066297816L167.96,74.24957264794247L168.64,19.00430297851571L169.32000000000002,41.10238726933804L170,41.10238726933804L170.67999999999998,19.00430297851571L171.36,41.10238726933804L172.04,41.10238726933804L172.72,140.54370763566754L173.39999999999998,52.15148835712013L174.08,19.00430297851571L174.76,7.955319775475488L175.44,52.15148835712013L176.12,85.29855585098268L176.8,63.20047156016035L177.48,63.20047156016035L178.16,85.29855585098268L178.84,19.00430297851571L179.52,96.34765693876479L180.2,63.20047156016035L180.88,63.20047156016035L181.56,52.15148835712013L182.24,96.34765693876479L182.92,74.24957264794247L183.60000000000002,41.10238726933804L184.28,41.10238726933804L184.96,52.15148835712013L185.64,52.15148835712013L186.32000000000002,63.20047156016035L187,19.00430297851571L187.67999999999998,41.10238726933804L188.36,7.955319775475488L189.04,41.10238726933804L189.72,96.34765693876479L190.39999999999998,41.10238726933804L191.08,41.10238726933804L191.76,41.10238726933804L192.44,74.24957264794247L193.12,107.39664014180501L193.8,19.00430297851571L194.48,74.24957264794247L195.16,63.20047156016035L195.84,41.10238726933804L196.52,30.053404066297816L197.2,41.10238726933804L197.88,52.15148835712013L198.56,41.10238726933804L199.24,96.34765693876479L199.92,63.20047156016035L200.60000000000002,96.34765693876479L201.28,74.24957264794247L201.96,-14.14276451534684L202.64,96.34765693876479L203.32000000000002,52.15148835712013L204,85.29855585098268L204.67999999999998,74.24957264794247L205.36,30.053404066297816L206.04,63.20047156016035L206.72,30.053404066297816L207.39999999999998,118.44574122958713L208.08,52.15148835712013L208.76,30.053404066297816L209.44,107.39664014180501L210.12,-3.093781312306618L210.8,19.00430297851571L211.48,63.20047156016035L212.16,52.15148835712013L212.84,41.10238726933804L213.52,118.44574122958713L214.2,7.955319775475488L214.88,74.24957264794247L215.56,63.20047156016035L216.24,52.15148835712013L216.92,74.24957264794247L217.60000000000002,63.20047156016035L218.28,74.24957264794247L218.96,85.29855585098268L219.64,52.15148835712013L220.32000000000002,19.00430297851571L221,7.955319775475488L221.67999999999998,63.20047156016035L222.36,63.20047156016035L223.04,7.955319775475488L223.72,96.34765693876479L224.39999999999998,41.10238726933804L225.08,19.00430297851571L225.76,85.29855585098268L226.44,129.49472443262735L227.12,52.15148835712013L227.8,74.24957264794247L228.48,41.10238726933804L229.16,41.10238726933804L229.84,74.24957264794247L230.52,30.053404066297816L231.2,7.955319775475488L231.88,41.10238726933804L232.56,96.34765693876479L233.24,63.20047156016035L233.92,19.00430297851571L234.60000000000002,19.00430297851571L235.28,63.20047156016035L235.96,85.29855585098268L236.64,85.29855585098268L237.32000000000002,63.20047156016035L238,107.39664014180501" style="fill: none;" fill="none"></path></g></g></g></g></g></g><g transform="translate(58, 178)" clip-path="url(#clip_1)"><clipPath id="clip_1"><rect width="272" height="22"></rect></clipPath><g><g><line x1="0" y1="0" x2="0" y2="5" style="visibility: inherit;" fill="rgb(0, 0, 0)" stroke="rgb(204, 204, 204)" stroke-width="1px"></line><line x1="34" y1="0" x2="34" y2="5" style="visibility: inherit;" fill="rgb(0, 0, 0)" stroke="rgb(204, 204, 204)" stroke-width="1px"></line><line x1="68" y1="0" x2="68" y2="5" style="visibility: inherit;" fill="rgb(0, 0, 0)" stroke="rgb(204, 204, 204)" stroke-width="1px"></line><line x1="102" y1="0" x2="102" y2="5" style="visibility: inherit;" fill="rgb(0, 0, 0)" stroke="rgb(204, 204, 204)" stroke-width="1px"></line><line x1="136" y1="0" x2="136" y2="5" style="visibility: inherit;" fill="rgb(0, 0, 0)" stroke="rgb(204, 204, 204)" stroke-width="1px"></line><line x1="170" y1="0" x2="170" y2="5" style="visibility: inherit;" fill="rgb(0, 0, 0)" stroke="rgb(204, 204, 204)" stroke-width="1px"></line><line x1="204" y1="0" x2="204" y2="5" style="visibility: inherit;" fill="rgb(0, 0, 0)" stroke="rgb(204, 204, 204)" stroke-width="1px"></line><line x1="238" y1="0" x2="238" y2="5" style="visibility: inherit;" fill="rgb(0, 0, 0)" stroke="rgb(204, 204, 204)" stroke-width="1px"></line><line x1="272" y1="0" x2="272" y2="5" style="visibility: inherit;" fill="rgb(0, 0, 0)" stroke="rgb(204, 204, 204)" stroke-width="1px"></line></g><g transform="translate(0, 8)"><text x="0" y="0" dx="0em" dy="0.95em" style="text-anchor: middle; visibility: hidden; font-family: &quot;Helvetica Neue&quot;, sans-serif; font-size: 12px; font-weight: 200;" fill="rgb(50, 49, 63)" stroke="none" stroke-width="1px">-50</text><text x="34" y="0" dx="0em" dy="0.95em" style="text-anchor: middle; visibility: inherit; font-family: &quot;Helvetica Neue&quot;, sans-serif; font-size: 12px; font-weight: 200;" fill="rgb(50, 49, 63)" stroke="none" stroke-width="1px">0</text><text x="68" y="0" dx="0em" dy="0.95em" style="text-anchor: middle; visibility: inherit; font-family: &quot;Helvetica Neue&quot;, sans-serif; font-size: 12px; font-weight: 200;" fill="rgb(50, 49, 63)" stroke="none" stroke-width="1px">50</text><text x="102" y="0" dx="0em" dy="0.95em" style="text-anchor: middle; visibility: inherit; font-family: &quot;Helvetica Neue&quot;, sans-serif; font-size: 12px; font-weight: 200;" fill="rgb(50, 49, 63)" stroke="none" stroke-width="1px">100</text><text x="136" y="0" dx="0em" dy="0.95em" style="text-anchor: middle; visibility: inherit; font-family: &quot;Helvetica Neue&quot;, sans-serif; font-size: 12px; font-weight: 200;" fill="rgb(50, 49, 63)" stroke="none" stroke-width="1px">150</text><text x="170" y="0" dx="0em" dy="0.95em" style="text-anchor: middle; visibility: inherit; font-family: &quot;Helvetica Neue&quot;, sans-serif; font-size: 12px; font-weight: 200;" fill="rgb(50, 49, 63)" stroke="none" stroke-width="1px">200</text><text x="204" y="0" dx="0em" dy="0.95em" style="text-anchor: middle; visibility: inherit; font-family: &quot;Helvetica Neue&quot;, sans-serif; font-size: 12px; font-weight: 200;" fill="rgb(50, 49, 63)" stroke="none" stroke-width="1px">250</text><text x="238" y="0" dx="0em" dy="0.95em" style="text-anchor: middle; visibility: inherit; font-family: &quot;Helvetica Neue&quot;, sans-serif; font-size: 12px; font-weight: 200;" fill="rgb(50, 49, 63)" stroke="none" stroke-width="1px">300</text><text x="272" y="0" dx="0em" dy="0.95em" style="text-anchor: middle; visibility: hidden; font-family: &quot;Helvetica Neue&quot;, sans-serif; font-size: 12px; font-weight: 200;" fill="rgb(50, 49, 63)" stroke="none" stroke-width="1px">350</text></g><line x1="0" y1="0" x2="272" y2="0" fill="rgb(0, 0, 0)" stroke="rgb(204, 204, 204)" stroke-width="1px"></line></g></g></g></g></svg>