<svg viewBox="0 0 330 200" xmlns="http://www.w3.org/2000/svg"><g><g><g><g><g><line x1="58" y1="160.2000000000002" x2="53" y2="160.2000000000002" style="visibility: inherit;" fill="rgb(0, 0, 0)" stroke="rgb(204, 204, 204)" stroke-width="1px"></line><line x1="58" y1="142.40000000000015" x2="53" y2="142.40000000000015" style="visibility: inherit;" fill="rgb(0, 0, 0)" stroke="rgb(204, 204, 204)" stroke-width="1px"></line><line x1="58" y1="124.60000000000014" x2="53" y2="124.60000000000014" style="visibility: inherit;" fill="rgb(0, 0, 0)" stroke="rgb(204, 204, 204)" stroke-width="1px"></line><line x1="58" y1="106.80000000000011" x2="53" y2="106.80000000000011" style="visibility: inherit;" fill="rgb(0, 0, 0)" stroke="rgb(204, 204, 204)" stroke-width="1px"></line><line x1="58" y1="89.0000000000001" x2="53" y2="89.0000000000001" style="visibility: inherit;" fill="rgb(0, 0, 0)" stroke="rgb(204, 204, 204)" stroke-width="1px"></line><line x1="58" y1="71.20000000000009" x2="53" y2="71.20000000000009" style="visibility: inherit;" fill="rgb(0, 0, 0)" stroke="rgb(204, 204, 204)" stroke-width="1px"></line><line x1="58" y1="53.40000000000006" x2="53" y2="53.40000000000006" style="visibility: inherit;" fill="rgb(0, 0, 0)" stroke="rgb(204, 204, 204)" stroke-width="1px"></line><line x1="58" y1="35.60000000000002" x2="53" y2="35.60000000000002" style="visibility: inherit;" fill="rgb(0, 0, 0)" stroke="rgb(204, 204, 204)" stroke-width="1px"></line><line x1="58" y1="17.80000000000001" x2="53" y2="17.80000000000001" style="visibility: inherit;" fill="rgb(0, 0, 0)" stroke="rgb(204, 204, 204)" stroke-width="1px"></line><line x1="58" y1="0" x2="53" y2="0" style="visibility: inherit;" fill="rgb(0, 0, 0)" stroke="rgb(204, 204, 204)" stroke-width="1px"></line></g><g transform="translate(48, 0)"><text x="0" y="160.2000000000002" dx="0em" dy="0.3em" style="text-anchor: end; visibility: inherit; font-family: &quot;Helvetica Neue&quot;, sans-serif; font-size: 12px; font-weight: 200;" fill="rgb(50, 49, 63)" stroke="none" stroke-width="1px">0.57</text><text x="0" y="142.40000000000015" dx="0em" dy="0.3em" style="text-anchor: end; visibility: hidden; font-family: &quot;Helvetica Neue&quot;, sans-serif; font-size: 12px; font-weight: 200;" fill="rgb(50, 49, 63)" stroke="none" stroke-width="1px">0.58</text><text x="0" y="124.60000000000014" dx="0em" dy="0.3em" style="text-anchor: end; visibility: inherit; font-family: &quot;Helvetica Neue&quot;, sans-serif; font-size: 12px; font-weight: 200;" fill="rgb(50, 49, 63)" stroke="none" stroke-width="1px">0.59</text><text x="0" y="106.80000000000011" dx="0em" dy="0.3em" style="text-anchor: end; visibility: hidden; font-family: &quot;Helvetica Neue&quot;, sans-serif; font-size: 12px; font-weight: 200;" fill="rgb(50, 49, 63)" stroke="none" stroke-width="1px">0.6</text><text x="0" y="89.0000000000001" dx="0em" dy="0.3em" style="text-anchor: end; visibility: inherit; font-family: &quot;Helvetica Neue&quot;, sans-serif; font-size: 12px; font-weight: 200;" fill="rgb(50, 49, 63)" stroke="none" stroke-width="1px">0.61</text><text x="0" y="71.20000000000009" dx="0em" dy="0.3em" style="text-anchor: end; visibility: hidden; font-family: &quot;Helvetica Neue&quot;, sans-serif; font-size: 12px; font-weight: 200;" fill="rgb(50, 49, 63)" stroke="none" stroke-width="1px">0.62</text><text x="0" y="53.40000000000006" dx="0em" dy="0.3em" style="text-anchor: end; visibility: inherit; font-family: &quot;Helvetica Neue&quot;, sans-serif; font-size: 12px; font-weight: 200;" fill="rgb(50, 49, 63)" stroke="none" stroke-width="1px">0.63</text><text x="0" y="35.60000000000002" dx="0em" dy="0.3em" style="text-anchor: end; visibility: hidden; font-family: &quot;Helvetica Neue&quot;, sans-serif; font-size: 12px; font-weight: 200;" fill="rgb(50, 49, 63)" stroke="none" stroke-width="1px">0.64</text><text x="0" y="17.80000000000001" dx="0em" dy="0.3em" style="text-anchor: end; visibility: inherit; font-family: &quot;Helvetica Neue&quot;, sans-serif; font-size: 12px; font-weight: 200;" fill="rgb(50, 49, 63)" stroke="none" stroke-width="1px">0.65</text><text x="0" y="0" dx="0em" dy="0.3em" style="text-anchor: end; visibility: hidden; font-family: &quot;Helvetica Neue&quot;, sans-serif; font-size: 12px; font-weight: 200;" fill="rgb(50, 49, 63)" stroke="none" stroke-width="1px">0.66</text></g><line x1="58" y1="0" x2="58" y2="178" fill="rgb(0, 0, 0)" stroke="rgb(204, 204, 204)" stroke-width="1px"></line></g></g><g transform="translate(58, 0)" clip-path="url(#clip_0)"><clipPath id="clip_0"><rect width="272" height="178"></rect></clipPath><g><g><g><line x1="0" y1="0" x2="0" y2="178" fill="rgb(0, 0, 0)" stroke="rgb(60, 60, 60)" stroke-width="1px" opacity="0.25"></line><line x1="34" y1="0" x2="34" y2="178" fill="rgb(0, 0, 0)" stroke="rgb(60, 60, 60)" stroke-width="1px" opacity="0.25"></line><line x1="68" y1="0" x2="68" y2="178" fill="rgb(0, 0, 0)" stroke="rgb(60, 60, 60)" stroke-width="1px" opacity="0.25"></line><line x1="102" y1="0" x2="102" y2="178" fill="rgb(0, 0, 0)" stroke="rgb(60, 60, 60)" stroke-width="1px" opacity="0.25"></line><line x1="136" y1="0" x2="136" y2="178" fill="rgb(0, 0, 0)" stroke="rgb(60, 60, 60)" stroke-width="1px" opacity="0.25"></line><line x1="170" y1="0" x2="170" y2="178" fill="rgb(0, 0, 0)" stroke="rgb(60, 60, 60)" stroke-width="1px" opacity="0.25"></line><line x1="204" y1="0" x2="204" y2="178" fill="rgb(0, 0, 0)" stroke="rgb(60, 60, 60)" stroke-width="1px" opacity="0.25"></line><line x1="238" y1="0" x2="238" y2="178" fill="rgb(0, 0, 0)" stroke="rgb(60, 60, 60)" stroke-width="1px" opacity="0.25"></line><line x1="272" y1="0" x2="272" y2="178" fill="rgb(0, 0, 0)" stroke="rgb(60, 60, 60)" stroke-width="1px" opacity="0.25"></line></g><g><line x1="0" y1="160.2000000000002" x2="272" y2="160.2000000000002" fill="rgb(0, 0, 0)" stroke="rgb(60, 60, 60)" stroke-width="1px" opacity="0.25"></line><line x1="0" y1="142.40000000000015" x2="272" y2="142.40000000000015" fill="rgb(0, 0, 0)" stroke="rgb(60, 60, 60)" stroke-width="1px" opacity="0.25"></line><line x1="0" y1="124.60000000000014" x2="272" y2="124.60000000000014" fill="rgb(0, 0, 0)" stroke="rgb(60, 60, 60)" stroke-width="1px" opacity="0.25"></line><line x1="0" y1="106.80000000000011" x2="272" y2="106.80000000000011" fill="rgb(0, 0, 0)" stroke="rgb(60, 60, 60)" stroke-width="1px" opacity="0.25"></line><line x1="0" y1="89.0000000000001" x2="272" y2="89.0000000000001" fill="rgb(0, 0, 0)" stroke="rgb(60, 60, 60)" stroke-width="1px" opacity="0.25"></line><line x1="0" y1="71.20000000000009" x2="272" y2="71.20000000000009" fill="rgb(0, 0, 0)" stroke="rgb(60, 60, 60)" stroke-width="1px" opacity="0.25"></line><line x1="0" y1="53.40000000000006" x2="272" y2="53.40000000000006" fill="rgb(0, 0, 0)" stroke="rgb(60, 60, 60)" stroke-width="1px" opacity="0.25"></line><line x1="0" y1="35.60000000000002" x2="272" y2="35.60000000000002" fill="rgb(0, 0, 0)" stroke="rgb(60, 60, 60)" stroke-width="1px" opacity="0.25"></line><line x1="0" y1="17.80000000000001" x2="272" y2="17.80000000000001" fill="rgb(0, 0, 0)" stroke="rgb(60, 60, 60)" stroke-width="1px" opacity="0.25"></line><line x1="0" y1="0" x2="272" y2="0" fill="rgb(0, 0, 0)" stroke="rgb(60, 60, 60)" stroke-width="1px" opacity="0.25"></line></g></g></g><g><g><line x1="0" y1="1174.8000000000002" x2="272" y2="1174.8000000000002" fill="rgb(0, 0, 0)" stroke="rgb(153, 153, 153)" stroke-width="1.5px"></line></g></g><g><g><line x1="34" y1="0" x2="34" y2="178" fill="rgb(0, 0, 0)" stroke="rgb(153, 153, 153)" stroke-width="1.5px"></line></g></g><g><g><g><g><g><path stroke="rgb(255, 112, 67)" stroke-width="2px" d="M34.68,106.79995756149299L35.36,106.79995756149319L36.04,106.79995756149319L36.72,106.79995756149319L37.400000000000006,106.79995756149319L38.080000000000005,106.79995756149319L38.76,106.79995756149319L39.44,106.79995756149299L40.12,106.79995756149299L40.8,106.79995756149299L41.48,116.3278913430423L42.16,122.02248042964928L42.84,144.44276901314345L43.52,157.8761866958222L44.2,146.93391686941337L44.88,149.8678518396238L45.56,113.64791474339782L46.24,129.89707313253518L46.919999999999995,149.13941473280843L47.599999999999994,132.20301264258754L48.28,150.52220775529113L48.96,133.03307748285943L49.64,132.03318833617837L50.32,121.93984820020964L51,87.40382091844722L51.68,76.17560786281531L52.36,97.9187367144616L53.04,72.99123690608512L53.72,77.02140237340389L54.400000000000006,69.9461743249208L55.080000000000005,65.70103849688611L55.76,101.12729994026235L56.44,112.88973026872614L57.12,119.94718810632972L57.8,124.18166267948081L58.48,126.72234737678372L59.16,118.75339140135006L59.84,113.97201784765312L60.52,111.10319372679768L61.2,118.87526598935739L61.88,123.53850934024399L62.56,126.33645534838226L63.24,118.5218562313704L63.919999999999995,104.33977248117712L64.6,95.83052223263384L65.28,90.7249720840741L65.96,87.66164199514172L66.64,85.82364394185585L67.32,84.72084510991081L68,93.55249009061502L68.68,117.83816807716144L69.36,132.40957486901394L70.04,141.1524189440982L70.72,146.39812538913907L71.4,149.5455492561599L72.08,141.94067929658257L72.76,99.40441776318161L73.44,73.88266084314733L74.12,58.56960669112895L74.80000000000001,77.86174703927556L75.48,70.45038268859199L76.16000000000001,56.510239798396796L76.83999999999999,57.63947834406481L77.52,67.81034575125108L78.19999999999999,92.89955719364005L78.88,107.95308405907335L79.56,116.98520017833373L80.24,103.41777885181227L80.92,85.78400177611441L81.6,94.19038409026568L82.28,89.74088919897149L82.96,68.08454370462458L83.64,64.58406068780164L84.32,62.48377087770791L85,70.71692127143663L85.68,66.16348722788891L86.36,72.92475108154542L87.04,57.99486083416906L87.72,49.03692668574308L88.4,43.662166196687565L89.08,40.437309903254175L89.76,38.5023961271942L90.44,27.84812358177308L91.12,30.948884334305575L91.80000000000001,32.809340785825015L92.48,24.4322903769515L93.16000000000001,28.899384411412655L93.83999999999999,31.579640832089353L94.52,33.18779468449537L95.19999999999999,24.659362716153822L95.88,29.035627814933974L96.56,31.66138687420215L97.24,42.73016658954822L97.92,58.86475869854098L98.6,78.03883824372183L99.28,61.06331313147486L99.96,41.384673784341345L100.64,39.0708144558466L101.32,37.68249885874965L102,36.84950950049151L102.68,36.34971588553674L103.36,36.049839716563724L104.04,35.869914015180086L104.72,35.76195859434981L105.4,54.68383390142189L106.08,47.05031052609479L106.76,42.47019650089862L107.44,39.72212808578092L108.12,38.073287036710326L108.80000000000001,37.08398240726788L109.48,36.49039962960248L110.16000000000001,36.134249963003185L110.83999999999999,35.92056016304372L111.52,45.28567056285317L112.19999999999999,50.90473680273878L112.88,35.289527987099774L113.56,25.920402697716526L114.24,29.79225180387158L114.92,41.60868554734992L115.6,48.69854579343695L116.28,43.45913766130397L116.96,30.822168502238952L117.64,32.73331128658518L118.32,33.879996957192816L119,34.56800835955747L119.68,44.47413948076135L120.36,40.924493873698566L121.04,57.78135506903112L121.72,58.402147506445715L122.4,49.281298689109065L123.08,53.30211367849249L123.76,36.727954112552L124.44,36.276782652772795L125.12,36.00607977690538L125.80000000000001,35.84365805138495L126.48,26.25288073628758L127.16000000000001,48.9783871865846L127.83999999999999,62.613691056762804L128.51999999999998,70.7948733788698L129.2,66.21025849234877L129.88,63.459489560436225L130.56,61.80902820128878L131.24,60.818751385800226L131.92,60.224585296507186L132.6,59.868085642931234L133.28,50.16086157100047L133.96,44.336527127842004L134.64,50.33525074173217L135.32,72.9211334696365L136,67.48601454680883L136.67999999999998,73.71826747289741L137.36,58.4709706689801L138.04,49.32259258662975L138.72,43.833565737219516L139.39999999999998,50.03347390735877L140.08,53.75341880944215L140.76,46.49206147090695L141.44,42.135247067785826L142.12,39.52115842591323L142.8,47.4460295205748L143.48,42.70762789758655L144.16,49.35791120357885L144.84,43.85475690738903L145.52,40.552864329675145L146.2,38.57172878304684L146.88,46.87637173485513L147.56,51.85915750593996L148.24,64.34215324837602L148.92,62.3386264140525L149.60000000000002,51.64318603367319L150.28,45.225921805445694L150.96,41.37556326850904L151.64,48.55867242613232L152.32000000000002,62.361862200491515L153,51.657127505536636L153.67999999999998,54.72761096834891L154.36,66.06322532582139L155.04,63.37126966051967L155.72,61.75609626133861L156.39999999999998,51.29366794204482L157.08,45.01621095046863L157.76,41.24973675552292L158.44,38.9898522385555L159.12,37.633921528375026L159.8,36.82036310226667L160.48,36.33222804660167L161.16,36.039347013202615L161.84,45.356942672948634L162.52,41.454175789010804L163.2,39.112515658648164L163.88,37.70751958043061L164.56,46.35784621328523L165.24,42.0547179132129L165.92,39.47284093316949L166.60000000000002,56.910363304713584L167.28,57.87955244785503L167.96,67.95439021352503L168.64,55.01264431335663L169.32000000000002,47.24759677325579L170,52.08189252898039L170.67999999999998,45.48914570262994L171.36,41.533497606819736L172.04,48.65343302911873L172.72,43.43207000271289L173.39999999999998,40.29925218686944L174.08,38.41956149736336L174.76,46.7850713634449L175.44,51.80437728309387L176.12,45.32263655509814L176.8,50.92691639808592L177.48,44.79616002409321L178.16,41.11770619969755L178.84,29.417309625275095L179.52,31.890395960406806L180.2,42.86757204127093L180.88,39.960553410004366L181.56,38.21634223124437L182.24,37.16981552398846L182.92,36.54189949963484L183.60000000000002,36.16514988502266L184.28,35.93910011625533L184.96,35.80347025499492L185.64,45.21541661802394L186.32000000000002,50.86258443584124L187,44.757560846746486L187.67999999999998,60.08119525285984L188.36,69.27537589652788L189.04,55.805235723158376L189.72,66.70980017870703L190.39999999999998,54.26589029246607L191.08,46.79954436072134L191.76,42.31973680167454L192.44,39.63185226624654L193.12,38.019121544989645L193.8,27.558158832450346L194.48,30.77490548471198L195.16,32.70495347606891L195.84,33.86298227088318L196.52,34.55779954777162L197.2,34.97468991390471L197.88,54.21147269315483L198.56,46.766893801134586L199.24,51.79347074570768L199.92,64.30274119223661L200.60000000000002,71.80830346015397L201.28,76.31164082090443L201.96,79.01364323735466L202.64,61.6481961276546L203.32000000000002,51.228927861834535L204,44.97736690234257L204.67999999999998,41.226430326647176L205.36,38.975868381230015L206.04,37.62553121397977L206.72,36.81532891362963L207.39999999999998,36.32920753341955L208.08,36.03753470529341L208.76,35.86253100841773L209.44,45.25085307007748L210.12,50.88384630707354L210.8,54.263642249271015L211.48,56.29151981458956L212.16,48.01492207399542L212.84,43.04896342963892L213.52,40.06938824302503L214.2,38.281643131056626L214.88,37.20899606387573L215.56,36.565407823567284L216.24,55.16590343895234L216.92,47.33955224861322L217.60000000000002,42.64374153440963L218.28,49.31957938567268L218.96,62.81840637621549L219.64,51.93105401097098L220.32000000000002,45.398642591824284L221,41.479195740336195L221.67999999999998,29.63420334965835L222.36,51.00718075460715L223.04,44.84431863800603L223.72,41.14660136804531L224.39999999999998,38.92797100606899L225.08,28.103468509097894L225.76,31.1020912907004L226.44,32.901264959662086L227.12,24.487444881253822L227.8,28.932477113994082L228.48,31.599496453638125L229.16,33.199708057424715L229.84,34.1598350196966L230.52,34.73591119705955L231.2,44.57488118326279L231.88,31.49161461541408L232.56,33.134978954490094L233.24,34.12099755793568L233.92,34.71260872000309L234.60000000000002,35.06757541724363L235.28,35.28055543558793L235.96,35.40834344659444L236.64,35.485016253198296L237.32000000000002,26.03769565737548L238,29.862627579667077" style="fill: none;" fill="none"></path></g></g></g></g><g opacity="0.2"><g><g><g><path stroke="rgb(255, 112, 67)" stroke-width="2px" d="M34.68,106.79995756149299L35.36,106.79995756149299L36.04,106.79995756149299L36.72,106.79995756149299L37.400000000000006,106.79995756149299L38.080000000000005,106.79995756149299L38.76,106.79995756149299L39.44,106.79995756149299L40.12,106.79995756149299L40.8,106.79995756149299L41.48,130.53337435722358L42.16,130.53337435722358L42.84,177.9999957561494L43.52,177.9999957561494L44.2,130.53337435722358L44.88,154.2666850566865L45.56,59.33333616256721L46.24,154.2666850566865L46.919999999999995,177.9999957561494L47.599999999999994,106.79995756149299L48.28,177.9999957561494L48.96,106.79995756149299L49.64,130.53337435722358L50.32,106.79995756149299L51,35.600025463104316L51.68,59.33333616256721L52.36,130.53337435722358L53.04,35.600025463104316L53.72,83.0666468620301L54.400000000000006,59.33333616256721L55.080000000000005,59.33333616256721L55.76,154.2666850566865L56.44,130.53337435722358L57.12,130.53337435722358L57.8,130.53337435722358L58.48,130.53337435722358L59.16,106.79995756149299L59.84,106.79995756149299L60.52,106.79995756149299L61.2,130.53337435722358L61.88,130.53337435722358L62.56,130.53337435722358L63.24,106.79995756149299L63.919999999999995,83.0666468620301L64.6,83.0666468620301L65.28,83.0666468620301L65.96,83.0666468620301L66.64,83.0666468620301L67.32,83.0666468620301L68,106.79995756149299L68.68,154.2666850566865L69.36,154.2666850566865L70.04,154.2666850566865L70.72,154.2666850566865L71.4,154.2666850566865L72.08,130.53337435722358L72.76,35.600025463104316L73.44,35.600025463104316L74.12,35.600025463104316L74.80000000000001,106.79995756149299L75.48,59.33333616256721L76.16000000000001,35.600025463104316L76.83999999999999,59.33333616256721L77.52,83.0666468620301L78.19999999999999,130.53337435722358L78.88,130.53337435722358L79.56,130.53337435722358L80.24,83.0666468620301L80.92,59.33333616256721L81.6,106.79995756149299L82.28,83.0666468620301L82.96,35.600025463104316L83.64,59.33333616256721L84.32,59.33333616256721L85,83.0666468620301L85.68,59.33333616256721L86.36,83.0666468620301L87.04,35.600025463104316L87.72,35.600025463104316L88.4,35.600025463104316L89.08,35.600025463104316L89.76,35.600025463104316L90.44,11.866714763641426L91.12,35.600025463104316L91.80000000000001,35.600025463104316L92.48,11.866714763641426L93.16000000000001,35.600025463104316L93.83999999999999,35.600025463104316L94.52,35.600025463104316L95.19999999999999,11.866714763641426L95.88,35.600025463104316L96.56,35.600025463104316L97.24,59.33333616256721L97.92,83.0666468620301L98.6,106.79995756149299L99.28,35.600025463104316L99.96,11.866714763641426L100.64,35.600025463104316L101.32,35.600025463104316L102,35.600025463104316L102.68,35.600025463104316L103.36,35.600025463104316L104.04,35.600025463104316L104.72,35.600025463104316L105.4,83.0666468620301L106.08,35.600025463104316L106.76,35.600025463104316L107.44,35.600025463104316L108.12,35.600025463104316L108.80000000000001,35.600025463104316L109.48,35.600025463104316L110.16000000000001,35.600025463104316L110.83999999999999,35.600025463104316L111.52,59.33333616256721L112.19999999999999,59.33333616256721L112.88,11.866714763641426L113.56,11.866714763641426L114.24,35.600025463104316L114.92,59.33333616256721L115.6,59.33333616256721L116.28,35.600025463104316L116.96,11.866714763641426L117.64,35.600025463104316L118.32,35.600025463104316L119,35.600025463104316L119.68,59.33333616256721L120.36,35.600025463104316L121.04,83.0666468620301L121.72,59.33333616256721L122.4,35.600025463104316L123.08,59.33333616256721L123.76,11.866714763641426L124.44,35.600025463104316L125.12,35.600025463104316L125.80000000000001,35.600025463104316L126.48,11.866714763641426L127.16000000000001,83.0666468620301L127.83999999999999,83.0666468620301L128.51999999999998,83.0666468620301L129.2,59.33333616256721L129.88,59.33333616256721L130.56,59.33333616256721L131.24,59.33333616256721L131.92,59.33333616256721L132.6,59.33333616256721L133.28,35.600025463104316L133.96,35.600025463104316L134.64,59.33333616256721L135.32,106.79995756149299L136,59.33333616256721L136.67999999999998,83.0666468620301L137.36,35.600025463104316L138.04,35.600025463104316L138.72,35.600025463104316L139.39999999999998,59.33333616256721L140.08,59.33333616256721L140.76,35.600025463104316L141.44,35.600025463104316L142.12,35.600025463104316L142.8,59.33333616256721L143.48,35.600025463104316L144.16,59.33333616256721L144.84,35.600025463104316L145.52,35.600025463104316L146.2,35.600025463104316L146.88,59.33333616256721L147.56,59.33333616256721L148.24,83.0666468620301L148.92,59.33333616256721L149.60000000000002,35.600025463104316L150.28,35.600025463104316L150.96,35.600025463104316L151.64,59.33333616256721L152.32000000000002,83.0666468620301L153,35.600025463104316L153.67999999999998,59.33333616256721L154.36,83.0666468620301L155.04,59.33333616256721L155.72,59.33333616256721L156.39999999999998,35.600025463104316L157.08,35.600025463104316L157.76,35.600025463104316L158.44,35.600025463104316L159.12,35.600025463104316L159.8,35.600025463104316L160.48,35.600025463104316L161.16,35.600025463104316L161.84,59.33333616256721L162.52,35.600025463104316L163.2,35.600025463104316L163.88,35.600025463104316L164.56,59.33333616256721L165.24,35.600025463104316L165.92,35.600025463104316L166.60000000000002,83.0666468620301L167.28,59.33333616256721L167.96,83.0666468620301L168.64,35.600025463104316L169.32000000000002,35.600025463104316L170,59.33333616256721L170.67999999999998,35.600025463104316L171.36,35.600025463104316L172.04,59.33333616256721L172.72,35.600025463104316L173.39999999999998,35.600025463104316L174.08,35.600025463104316L174.76,59.33333616256721L175.44,59.33333616256721L176.12,35.600025463104316L176.8,59.33333616256721L177.48,35.600025463104316L178.16,35.600025463104316L178.84,11.866714763641426L179.52,35.600025463104316L180.2,59.33333616256721L180.88,35.600025463104316L181.56,35.600025463104316L182.24,35.600025463104316L182.92,35.600025463104316L183.60000000000002,35.600025463104316L184.28,35.600025463104316L184.96,35.600025463104316L185.64,59.33333616256721L186.32000000000002,59.33333616256721L187,35.600025463104316L187.67999999999998,83.0666468620301L188.36,83.0666468620301L189.04,35.600025463104316L189.72,83.0666468620301L190.39999999999998,35.600025463104316L191.08,35.600025463104316L191.76,35.600025463104316L192.44,35.600025463104316L193.12,35.600025463104316L193.8,11.866714763641426L194.48,35.600025463104316L195.16,35.600025463104316L195.84,35.600025463104316L196.52,35.600025463104316L197.2,35.600025463104316L197.88,83.0666468620301L198.56,35.600025463104316L199.24,59.33333616256721L199.92,83.0666468620301L200.60000000000002,83.0666468620301L201.28,83.0666468620301L201.96,83.0666468620301L202.64,35.600025463104316L203.32000000000002,35.600025463104316L204,35.600025463104316L204.67999999999998,35.600025463104316L205.36,35.600025463104316L206.04,35.600025463104316L206.72,35.600025463104316L207.39999999999998,35.600025463104316L208.08,35.600025463104316L208.76,35.600025463104316L209.44,59.33333616256721L210.12,59.33333616256721L210.8,59.33333616256721L211.48,59.33333616256721L212.16,35.600025463104316L212.84,35.600025463104316L213.52,35.600025463104316L214.2,35.600025463104316L214.88,35.600025463104316L215.56,35.600025463104316L216.24,83.0666468620301L216.92,35.600025463104316L217.60000000000002,35.600025463104316L218.28,59.33333616256721L218.96,83.0666468620301L219.64,35.600025463104316L220.32000000000002,35.600025463104316L221,35.600025463104316L221.67999999999998,11.866714763641426L222.36,83.0666468620301L223.04,35.600025463104316L223.72,35.600025463104316L224.39999999999998,35.600025463104316L225.08,11.866714763641426L225.76,35.600025463104316L226.44,35.600025463104316L227.12,11.866714763641426L227.8,35.600025463104316L228.48,35.600025463104316L229.16,35.600025463104316L229.84,35.600025463104316L230.52,35.600025463104316L231.2,59.33333616256721L231.88,11.866714763641426L232.56,35.600025463104316L233.24,35.600025463104316L233.92,35.600025463104316L234.60000000000002,35.600025463104316L235.28,35.600025463104316L235.96,35.600025463104316L236.64,35.600025463104316L237.32000000000002,11.866714763641426L238,35.600025463104316" style="fill: none;" fill="none"></path></g></g></g></g></g></g><g transform="translate(58, 178)" clip-path="url(#clip_1)"><clipPath id="clip_1"><rect width="272" height="22"></rect></clipPath><g><g><line x1="0" y1="0" x2="0" y2="5" style="visibility: inherit;" fill="rgb(0, 0, 0)" stroke="rgb(204, 204, 204)" stroke-width="1px"></line><line x1="34" y1="0" x2="34" y2="5" style="visibility: inherit;" fill="rgb(0, 0, 0)" stroke="rgb(204, 204, 204)" stroke-width="1px"></line><line x1="68" y1="0" x2="68" y2="5" style="visibility: inherit;" fill="rgb(0, 0, 0)" stroke="rgb(204, 204, 204)" stroke-width="1px"></line><line x1="102" y1="0" x2="102" y2="5" style="visibility: inherit;" fill="rgb(0, 0, 0)" stroke="rgb(204, 204, 204)" stroke-width="1px"></line><line x1="136" y1="0" x2="136" y2="5" style="visibility: inherit;" fill="rgb(0, 0, 0)" stroke="rgb(204, 204, 204)" stroke-width="1px"></line><line x1="170" y1="0" x2="170" y2="5" style="visibility: inherit;" fill="rgb(0, 0, 0)" stroke="rgb(204, 204, 204)" stroke-width="1px"></line><line x1="204" y1="0" x2="204" y2="5" style="visibility: inherit;" fill="rgb(0, 0, 0)" stroke="rgb(204, 204, 204)" stroke-width="1px"></line><line x1="238" y1="0" x2="238" y2="5" style="visibility: inherit;" fill="rgb(0, 0, 0)" stroke="rgb(204, 204, 204)" stroke-width="1px"></line><line x1="272" y1="0" x2="272" y2="5" style="visibility: inherit;" fill="rgb(0, 0, 0)" stroke="rgb(204, 204, 204)" stroke-width="1px"></line></g><g transform="translate(0, 8)"><text x="0" y="0" dx="0em" dy="0.95em" style="text-anchor: middle; visibility: hidden; font-family: &quot;Helvetica Neue&quot;, sans-serif; font-size: 12px; font-weight: 200;" fill="rgb(50, 49, 63)" stroke="none" stroke-width="1px">-50</text><text x="34" y="0" dx="0em" dy="0.95em" style="text-anchor: middle; visibility: inherit; font-family: &quot;Helvetica Neue&quot;, sans-serif; font-size: 12px; font-weight: 200;" fill="rgb(50, 49, 63)" stroke="none" stroke-width="1px">0</text><text x="68" y="0" dx="0em" dy="0.95em" style="text-anchor: middle; visibility: inherit; font-family: &quot;Helvetica Neue&quot;, sans-serif; font-size: 12px; font-weight: 200;" fill="rgb(50, 49, 63)" stroke="none" stroke-width="1px">50</text><text x="102" y="0" dx="0em" dy="0.95em" style="text-anchor: middle; visibility: inherit; font-family: &quot;Helvetica Neue&quot;, sans-serif; font-size: 12px; font-weight: 200;" fill="rgb(50, 49, 63)" stroke="none" stroke-width="1px">100</text><text x="136" y="0" dx="0em" dy="0.95em" style="text-anchor: middle; visibility: inherit; font-family: &quot;Helvetica Neue&quot;, sans-serif; font-size: 12px; font-weight: 200;" fill="rgb(50, 49, 63)" stroke="none" stroke-width="1px">150</text><text x="170" y="0" dx="0em" dy="0.95em" style="text-anchor: middle; visibility: inherit; font-family: &quot;Helvetica Neue&quot;, sans-serif; font-size: 12px; font-weight: 200;" fill="rgb(50, 49, 63)" stroke="none" stroke-width="1px">200</text><text x="204" y="0" dx="0em" dy="0.95em" style="text-anchor: middle; visibility: inherit; font-family: &quot;Helvetica Neue&quot;, sans-serif; font-size: 12px; font-weight: 200;" fill="rgb(50, 49, 63)" stroke="none" stroke-width="1px">250</text><text x="238" y="0" dx="0em" dy="0.95em" style="text-anchor: middle; visibility: inherit; font-family: &quot;Helvetica Neue&quot;, sans-serif; font-size: 12px; font-weight: 200;" fill="rgb(50, 49, 63)" stroke="none" stroke-width="1px">300</text><text x="272" y="0" dx="0em" dy="0.95em" style="text-anchor: middle; visibility: hidden; font-family: &quot;Helvetica Neue&quot;, sans-serif; font-size: 12px; font-weight: 200;" fill="rgb(50, 49, 63)" stroke="none" stroke-width="1px">350</text></g><line x1="0" y1="0" x2="272" y2="0" fill="rgb(0, 0, 0)" stroke="rgb(204, 204, 204)" stroke-width="1px"></line></g></g></g></g></svg>