<svg viewBox="0 0 330 200" xmlns="http://www.w3.org/2000/svg"><g><g><g><g><g><line x1="58" y1="178" x2="53" y2="178" style="visibility: inherit;" fill="rgb(0, 0, 0)" stroke="rgb(204, 204, 204)" stroke-width="1px"></line><line x1="58" y1="158.2222222222222" x2="53" y2="158.2222222222222" style="visibility: inherit;" fill="rgb(0, 0, 0)" stroke="rgb(204, 204, 204)" stroke-width="1px"></line><line x1="58" y1="138.4444444444444" x2="53" y2="138.4444444444444" style="visibility: inherit;" fill="rgb(0, 0, 0)" stroke="rgb(204, 204, 204)" stroke-width="1px"></line><line x1="58" y1="118.66666666666667" x2="53" y2="118.66666666666667" style="visibility: inherit;" fill="rgb(0, 0, 0)" stroke="rgb(204, 204, 204)" stroke-width="1px"></line><line x1="58" y1="98.88888888888887" x2="53" y2="98.88888888888887" style="visibility: inherit;" fill="rgb(0, 0, 0)" stroke="rgb(204, 204, 204)" stroke-width="1px"></line><line x1="58" y1="79.11111111111107" x2="53" y2="79.11111111111107" style="visibility: inherit;" fill="rgb(0, 0, 0)" stroke="rgb(204, 204, 204)" stroke-width="1px"></line><line x1="58" y1="59.333333333333286" x2="53" y2="59.333333333333286" style="visibility: inherit;" fill="rgb(0, 0, 0)" stroke="rgb(204, 204, 204)" stroke-width="1px"></line><line x1="58" y1="39.555555555555486" x2="53" y2="39.555555555555486" style="visibility: inherit;" fill="rgb(0, 0, 0)" stroke="rgb(204, 204, 204)" stroke-width="1px"></line><line x1="58" y1="19.7777777777778" x2="53" y2="19.7777777777778" style="visibility: inherit;" fill="rgb(0, 0, 0)" stroke="rgb(204, 204, 204)" stroke-width="1px"></line><line x1="58" y1="0" x2="53" y2="0" style="visibility: inherit;" fill="rgb(0, 0, 0)" stroke="rgb(204, 204, 204)" stroke-width="1px"></line></g><g transform="translate(48, 0)"><text x="0" y="178" dx="0em" dy="0.3em" style="text-anchor: end; visibility: hidden; font-family: &quot;Helvetica Neue&quot;, sans-serif; font-size: 12px; font-weight: 200;" fill="rgb(50, 49, 63)" stroke="none" stroke-width="1px">0.42</text><text x="0" y="158.2222222222222" dx="0em" dy="0.3em" style="text-anchor: end; visibility: inherit; font-family: &quot;Helvetica Neue&quot;, sans-serif; font-size: 12px; font-weight: 200;" fill="rgb(50, 49, 63)" stroke="none" stroke-width="1px">0.44</text><text x="0" y="138.4444444444444" dx="0em" dy="0.3em" style="text-anchor: end; visibility: hidden; font-family: &quot;Helvetica Neue&quot;, sans-serif; font-size: 12px; font-weight: 200;" fill="rgb(50, 49, 63)" stroke="none" stroke-width="1px">0.46</text><text x="0" y="118.66666666666667" dx="0em" dy="0.3em" style="text-anchor: end; visibility: inherit; font-family: &quot;Helvetica Neue&quot;, sans-serif; font-size: 12px; font-weight: 200;" fill="rgb(50, 49, 63)" stroke="none" stroke-width="1px">0.48</text><text x="0" y="98.88888888888887" dx="0em" dy="0.3em" style="text-anchor: end; visibility: hidden; font-family: &quot;Helvetica Neue&quot;, sans-serif; font-size: 12px; font-weight: 200;" fill="rgb(50, 49, 63)" stroke="none" stroke-width="1px">0.5</text><text x="0" y="79.11111111111107" dx="0em" dy="0.3em" style="text-anchor: end; visibility: inherit; font-family: &quot;Helvetica Neue&quot;, sans-serif; font-size: 12px; font-weight: 200;" fill="rgb(50, 49, 63)" stroke="none" stroke-width="1px">0.52</text><text x="0" y="59.333333333333286" dx="0em" dy="0.3em" style="text-anchor: end; visibility: hidden; font-family: &quot;Helvetica Neue&quot;, sans-serif; font-size: 12px; font-weight: 200;" fill="rgb(50, 49, 63)" stroke="none" stroke-width="1px">0.54</text><text x="0" y="39.555555555555486" dx="0em" dy="0.3em" style="text-anchor: end; visibility: inherit; font-family: &quot;Helvetica Neue&quot;, sans-serif; font-size: 12px; font-weight: 200;" fill="rgb(50, 49, 63)" stroke="none" stroke-width="1px">0.56</text><text x="0" y="19.7777777777778" dx="0em" dy="0.3em" style="text-anchor: end; visibility: hidden; font-family: &quot;Helvetica Neue&quot;, sans-serif; font-size: 12px; font-weight: 200;" fill="rgb(50, 49, 63)" stroke="none" stroke-width="1px">0.58</text><text x="0" y="0" dx="0em" dy="0.3em" style="text-anchor: end; visibility: hidden; font-family: &quot;Helvetica Neue&quot;, sans-serif; font-size: 12px; font-weight: 200;" fill="rgb(50, 49, 63)" stroke="none" stroke-width="1px">0.6</text></g><line x1="58" y1="0" x2="58" y2="178" fill="rgb(0, 0, 0)" stroke="rgb(204, 204, 204)" stroke-width="1px"></line></g></g><g transform="translate(58, 0)" clip-path="url(#clip_0)"><clipPath id="clip_0"><rect width="272" height="178"></rect></clipPath><g><g><g><line x1="0" y1="0" x2="0" y2="178" fill="rgb(0, 0, 0)" stroke="rgb(60, 60, 60)" stroke-width="1px" opacity="0.25"></line><line x1="34" y1="0" x2="34" y2="178" fill="rgb(0, 0, 0)" stroke="rgb(60, 60, 60)" stroke-width="1px" opacity="0.25"></line><line x1="68" y1="0" x2="68" y2="178" fill="rgb(0, 0, 0)" stroke="rgb(60, 60, 60)" stroke-width="1px" opacity="0.25"></line><line x1="102" y1="0" x2="102" y2="178" fill="rgb(0, 0, 0)" stroke="rgb(60, 60, 60)" stroke-width="1px" opacity="0.25"></line><line x1="136" y1="0" x2="136" y2="178" fill="rgb(0, 0, 0)" stroke="rgb(60, 60, 60)" stroke-width="1px" opacity="0.25"></line><line x1="170" y1="0" x2="170" y2="178" fill="rgb(0, 0, 0)" stroke="rgb(60, 60, 60)" stroke-width="1px" opacity="0.25"></line><line x1="204" y1="0" x2="204" y2="178" fill="rgb(0, 0, 0)" stroke="rgb(60, 60, 60)" stroke-width="1px" opacity="0.25"></line><line x1="238" y1="0" x2="238" y2="178" fill="rgb(0, 0, 0)" stroke="rgb(60, 60, 60)" stroke-width="1px" opacity="0.25"></line><line x1="272" y1="0" x2="272" y2="178" fill="rgb(0, 0, 0)" stroke="rgb(60, 60, 60)" stroke-width="1px" opacity="0.25"></line></g><g><line x1="0" y1="178" x2="272" y2="178" fill="rgb(0, 0, 0)" stroke="rgb(60, 60, 60)" stroke-width="1px" opacity="0.25"></line><line x1="0" y1="158.2222222222222" x2="272" y2="158.2222222222222" fill="rgb(0, 0, 0)" stroke="rgb(60, 60, 60)" stroke-width="1px" opacity="0.25"></line><line x1="0" y1="138.4444444444444" x2="272" y2="138.4444444444444" fill="rgb(0, 0, 0)" stroke="rgb(60, 60, 60)" stroke-width="1px" opacity="0.25"></line><line x1="0" y1="118.66666666666667" x2="272" y2="118.66666666666667" fill="rgb(0, 0, 0)" stroke="rgb(60, 60, 60)" stroke-width="1px" opacity="0.25"></line><line x1="0" y1="98.88888888888887" x2="272" y2="98.88888888888887" fill="rgb(0, 0, 0)" stroke="rgb(60, 60, 60)" stroke-width="1px" opacity="0.25"></line><line x1="0" y1="79.11111111111107" x2="272" y2="79.11111111111107" fill="rgb(0, 0, 0)" stroke="rgb(60, 60, 60)" stroke-width="1px" opacity="0.25"></line><line x1="0" y1="59.333333333333286" x2="272" y2="59.333333333333286" fill="rgb(0, 0, 0)" stroke="rgb(60, 60, 60)" stroke-width="1px" opacity="0.25"></line><line x1="0" y1="39.555555555555486" x2="272" y2="39.555555555555486" fill="rgb(0, 0, 0)" stroke="rgb(60, 60, 60)" stroke-width="1px" opacity="0.25"></line><line x1="0" y1="19.7777777777778" x2="272" y2="19.7777777777778" fill="rgb(0, 0, 0)" stroke="rgb(60, 60, 60)" stroke-width="1px" opacity="0.25"></line><line x1="0" y1="0" x2="272" y2="0" fill="rgb(0, 0, 0)" stroke="rgb(60, 60, 60)" stroke-width="1px" opacity="0.25"></line></g></g></g><g><g><line x1="0" y1="593.3333333333334" x2="272" y2="593.3333333333334" fill="rgb(0, 0, 0)" stroke="rgb(153, 153, 153)" stroke-width="1.5px"></line></g></g><g><g><line x1="34" y1="0" x2="34" y2="178" fill="rgb(0, 0, 0)" stroke="rgb(153, 153, 153)" stroke-width="1.5px"></line></g></g><g><g><g><g><g><path stroke="rgb(255, 112, 67)" stroke-width="2px" d="M34.68,-13.185196187761107L35.36,118.6666588568025L36.04,159.02947162554648L36.72,85.94606390381178L37.400000000000006,54.387746794349326L38.080000000000005,31.567958608218163L38.76,24.003090462501063L39.44,14.237825900698851L40.12,13.812492348677551L40.8,-2.358431502992744L42.16,-15.645366519879019L42.84,38.14971110343049L43.52,43.990694223124336L44.2,79.15168866034438L44.88,52.757650338399884L45.56,68.57578871884712L46.24,93.88878397285191L46.919999999999995,140.72131375574395L47.599999999999994,100.25352996629812L48.28,91.79638444486294L48.96,102.54464304784617L49.64,108.99350766785804L50.32,102.31459398686788L51,108.85544589846846L51.68,86.40951957390142L52.36,72.94198828392167L53.04,59.58740604852548L53.72,99.0413479981448L54.400000000000006,117.43962186543291L55.080000000000005,117.93044409488189L55.76,97.1286241691773L56.44,74.09939468095966L57.12,65.55592688726476L57.8,65.70391550269727L58.48,65.7927086703286L59.16,60.57191549335674L59.84,62.71350867176071L60.52,74.54662626281254L61.2,86.92056585194639L61.88,94.3449295948407L62.56,104.07362867210351L63.24,115.18491716131277L63.919999999999995,121.85169025278512L64.6,125.85175410692935L65.28,122.97772337449571L65.96,126.52737397967273L66.64,123.38309529825034L67.32,110.94837821217567L68,119.30976688221543L68.68,124.32660008419603L69.36,116.78855012821383L70.04,112.26572015463846L70.72,109.55202217049838L71.4,113.1978842128187L72.08,99.56318251675398L72.76,117.75271850922408L73.44,123.3923710603777L74.12,121.50209354674384L74.80000000000001,130.91606512721435L75.48,136.56444807549624L76.16000000000001,139.95347784446543L76.83999999999999,141.98689570584685L77.52,143.20694642267566L78.19999999999999,138.66490780844788L78.88,135.93968463991118L79.56,134.3045507387892L80.24,133.323470398116L80.92,132.73482219371206L81.6,132.3816332710697L82.28,132.1697199174843L82.96,132.04257190533306L83.64,131.9662830980423L84.32,126.64644076934277L85,112.90638549499863L85.68,120.48457125184163L86.36,114.48333282882311L87.04,121.43073965213632L87.72,125.59918374612425L88.4,117.55210032539264L89.08,112.7238502729537L89.76,109.82690024149032L90.44,113.36281105541154L91.12,120.75842658808938L91.80000000000001,125.19579590769607L92.48,127.85821749946012L93.16000000000001,129.45567045451853L93.83999999999999,125.14007318322847L94.52,117.27663398765517L95.19999999999999,112.55857047031124L95.88,104.45366331557972L96.56,104.8647880670659L97.24,99.83739387363252L97.92,96.82095735757245L98.6,100.28516449226159L99.28,102.36368877307503L99.96,98.33673429723808L100.64,101.19463065606094L101.32,102.90936847135464L102,103.93821116053088L102.68,99.28144772971154L103.36,101.76145871554502L104.04,103.2494653070451L104.72,104.14226926194517L105.4,104.6779516348852L106.08,110.2734418914485L106.76,108.35665521258723L107.44,107.2065832052704L108.12,101.24247095655525L108.80000000000001,97.66400360732622L109.48,106.06507307491307L110.16000000000001,111.10571475546521L110.83999999999999,114.13009976379647L111.52,105.39658089167087L112.19999999999999,100.15646956839552L112.88,118.10869074020484L113.56,107.78373547751588L114.24,101.58876231990253L114.92,113.69399734678396L115.6,115.68306931858771L116.28,116.87651250167002L116.96,117.59257841151938L117.64,118.02221795742899L118.32,118.28000168497474L119,118.43467192150223L119.68,118.52747406341868L120.36,118.58315534856858L121.04,108.06841424253416L121.72,112.30771945603784L122.4,114.85130258414006L123.08,116.37745246100141L123.76,112.01906155431891L124.44,104.12995796598435L125.12,104.67056485730869L125.80000000000001,99.72085994777824L126.48,102.02510604638506L127.16000000000001,103.40765370554917L127.83999999999999,104.23718230104761L128.51999999999998,104.73489945834667L129.2,105.03352975272608L129.88,110.486788762153L130.56,108.4846633350099L131.24,117.83153795584843L131.92,107.61744380690203L132.6,101.4889873175342L133.28,103.0859824682386L133.96,109.31826039146053L134.64,107.78354631259444L135.32,101.58864882094964L136,108.41986020308714L136.67999999999998,107.24450619957041L137.36,106.53929379746036L138.04,106.1161663561943L138.72,105.8622898914347L139.39999999999998,105.70996401257892L140.08,105.61856848526547L140.76,105.56373116887738L141.44,100.25675973471942L142.12,102.34664591854975L142.8,108.87465846164724L143.48,107.51738515470647L144.16,106.70302117054196L144.84,106.21440278004329L145.52,105.92123174574405L146.2,116.2934790022889L146.88,122.51682735621583L147.56,120.97676732424688L148.24,114.77865047226621L148.92,111.05978036107784L149.60000000000002,103.55438925003969L150.28,104.32522362774192L150.96,104.78772425436323L151.64,105.06522463033603L152.32000000000002,105.23172485591971L153,105.33162499126995L153.67999999999998,105.39156507248006L154.36,105.42752912120613L155.04,105.44910755044178L155.72,110.7361354407824L156.39999999999998,113.90835217498682L157.08,126.35982030415961L157.76,128.55663213733823L158.44,119.32656936012106L159.12,119.06261252659002L159.8,113.63015759367211L160.48,105.09661558959625L161.16,99.97649038715073L161.84,102.17848431000857L162.52,103.49968066372323L163.2,109.5664793087513L163.88,113.20655849576815L164.56,110.11652517517896L165.24,108.26250518282548L165.92,107.15009318741338L166.60000000000002,106.48264599016613L167.28,106.0821776718178L167.96,105.84189668080879L168.64,105.69772808620337L169.32000000000002,100.33715788511502L170,107.66896564158637L170.67999999999998,112.06805029546916L171.36,109.4334202549996L172.04,107.85264223071788L172.72,106.9041754161488L173.39999999999998,106.33509532740737L174.08,105.99364727416251L174.76,105.78877844221562L175.44,105.66585714304746L176.12,105.59210436354658L176.8,100.27378365152093L177.48,102.35686026863064L178.16,98.33263719457133L178.84,101.1921723944609L179.52,102.90789351439463L180.2,109.21140701915417L180.88,107.71943428921058L181.56,106.82425065124443L182.24,106.28714046846476L182.92,105.96487435879695L183.60000000000002,105.77151469299626L184.28,110.9295797263151L184.96,119.29848779063153L185.64,119.04576358489626L186.32000000000002,108.34597918433076L187,101.92610854399143L187.67999999999998,103.34825520411295L188.36,98.92747415586075L189.04,101.54907457123454L189.72,97.84796577613366L190.39999999999998,95.62730049907316L191.08,94.29490133283686L191.76,98.76953087742017L192.44,106.72838943696945L193.12,111.50370457269902L193.8,124.91703174278696L194.48,122.41688995618955L195.16,120.91680488423111L195.84,114.74267300825674L196.52,111.03819388267215L197.2,108.8155064073214L197.88,107.48189392211093L198.56,106.68172643098467L199.24,122.02384485775829L199.92,120.68097782517233L200.60000000000002,114.60117677282147L201.28,116.22737697421023L201.96,111.92901626224423L202.64,114.6240806678639L203.32000000000002,116.2411193112357L204,111.93726166445954L204.67999999999998,114.62902790919307L205.36,116.24408765603322L206.04,111.93904267133806L206.72,109.35601568052095L207.39999999999998,107.80619948603068L208.08,101.6022407250114L208.76,103.15393451272494L209.44,104.08495078535307L210.12,104.64356054892993L210.8,104.97872640707604L211.48,110.45390675476298L212.16,119.01308400770029L212.84,118.87452131513751L213.52,118.79138369959989L214.2,118.7415011302773L214.88,113.4374907558845L215.56,115.52916536404808L216.24,122.05823917327133L216.92,120.70161441448018L217.60000000000002,119.88763955920548L218.28,124.67332369036575L218.96,122.27066512473684L219.64,120.82906998535944L220.32000000000002,119.96411290173302L221,114.1710578187579L221.67999999999998,110.69522476897282L222.36,108.60972493910177L223.04,107.35842504117916L223.72,106.6076451024256L224.39999999999998,106.15717713917346L225.08,111.16097719402146L225.76,114.16325722693026L226.44,115.96462524667552L227.12,117.04544605852269L227.8,117.69393854563099L228.48,118.08303403789596L229.16,118.31649133325494L229.84,123.7306347547954L230.52,116.43097093059532L231.2,112.05117263607532L231.88,114.69737449216254L232.56,105.73694572869049L233.24,105.63475751493242L233.92,105.57344458667755L234.60000000000002,105.53665682972465L235.28,105.51458417555287L235.96,110.7754214158491L236.64,108.65784292722759L237.32000000000002,112.66137666685391L238,115.06349691062968" style="fill: none;" fill="none"></path></g></g></g></g><g opacity="0.2"><g><g><g><path stroke="rgb(255, 112, 67)" stroke-width="2px" d="M36.72,-0.00002357694839361102L37.400000000000006,13.185207976235262L38.080000000000005,-0.00002357694839361102L38.76,13.185207976235262L39.44,-0.00002357694839361102L40.12,13.185207976235262L40.8,-26.37036879857385L42.16,-13.185196187761107L42.84,118.66667727629343L43.52,52.74072580867342L44.2,131.85184988710614L44.88,13.185207976235262L45.56,92.29630258348251L46.24,131.85184988710614L46.919999999999995,210.96297396553885L47.599999999999994,39.55555319786069L48.28,79.11112997266979L48.96,118.66667727629343L49.64,118.66667727629343L50.32,92.29630258348251L51,118.66667727629343L51.68,52.74072580867342L52.36,52.74072580867342L53.04,39.55555319786069L53.72,158.22222457991705L54.400000000000006,145.03702249791885L55.080000000000005,118.66667727629343L55.76,65.92589841948615L56.44,39.55555319786069L57.12,52.74072580867342L57.8,65.92589841948615L58.48,65.92589841948615L59.16,52.74072580867342L59.84,65.92589841948615L60.52,92.29630258348251L61.2,105.48147519429523L61.88,105.48147519429523L62.56,118.66667727629343L63.24,131.85184988710614L63.919999999999995,131.85184988710614L64.6,131.85184988710614L65.28,118.66667727629343L65.96,131.85184988710614L66.64,118.66667727629343L67.32,92.29630258348251L68,131.85184988710614L68.68,131.85184988710614L69.36,105.48147519429523L70.04,105.48147519429523L70.72,105.48147519429523L71.4,118.66667727629343L72.08,79.11112997266979L72.76,145.03702249791885L73.44,131.85184988710614L74.12,118.66667727629343L74.80000000000001,145.03702249791885L75.48,145.03702249791885L76.16000000000001,145.03702249791885L76.83999999999999,145.03702249791885L77.52,145.03702249791885L78.19999999999999,131.85184988710614L78.88,131.85184988710614L79.56,131.85184988710614L80.24,131.85184988710614L80.92,131.85184988710614L81.6,131.85184988710614L82.28,131.85184988710614L82.96,131.85184988710614L83.64,131.85184988710614L84.32,118.66667727629343L85,92.29630258348251L85.68,131.85184988710614L86.36,105.48147519429523L87.04,131.85184988710614L87.72,131.85184988710614L88.4,105.48147519429523L89.08,105.48147519429523L89.76,105.48147519429523L90.44,118.66667727629343L91.12,131.85184988710614L91.80000000000001,131.85184988710614L92.48,131.85184988710614L93.16000000000001,131.85184988710614L93.83999999999999,118.66667727629343L94.52,105.48147519429523L95.19999999999999,105.48147519429523L95.88,92.29630258348251L96.56,105.48147519429523L97.24,92.29630258348251L97.92,92.29630258348251L98.6,105.48147519429523L99.28,105.48147519429523L99.96,92.29630258348251L100.64,105.48147519429523L101.32,105.48147519429523L102,105.48147519429523L102.68,92.29630258348251L103.36,105.48147519429523L104.04,105.48147519429523L104.72,105.48147519429523L105.4,105.48147519429523L106.08,118.66667727629343L106.76,105.48147519429523L107.44,105.48147519429523L108.12,92.29630258348251L108.80000000000001,92.29630258348251L109.48,118.66667727629343L110.16000000000001,118.66667727629343L110.83999999999999,118.66667727629343L111.52,92.29630258348251L112.19999999999999,92.29630258348251L112.88,145.03702249791885L113.56,92.29630258348251L114.24,92.29630258348251L114.92,131.85184988710614L115.6,118.66667727629343L116.28,118.66667727629343L116.96,118.66667727629343L117.64,118.66667727629343L118.32,118.66667727629343L119,118.66667727629343L119.68,118.66667727629343L120.36,118.66667727629343L121.04,92.29630258348251L121.72,118.66667727629343L122.4,118.66667727629343L123.08,118.66667727629343L123.76,105.48147519429523L124.44,92.29630258348251L125.12,105.48147519429523L125.80000000000001,92.29630258348251L126.48,105.48147519429523L127.16000000000001,105.48147519429523L127.83999999999999,105.48147519429523L128.51999999999998,105.48147519429523L129.2,105.48147519429523L129.88,118.66667727629343L130.56,105.48147519429523L131.24,131.85184988710614L131.92,92.29630258348251L132.6,92.29630258348251L133.28,105.48147519429523L133.96,118.66667727629343L134.64,105.48147519429523L135.32,92.29630258348251L136,118.66667727629343L136.67999999999998,105.48147519429523L137.36,105.48147519429523L138.04,105.48147519429523L138.72,105.48147519429523L139.39999999999998,105.48147519429523L140.08,105.48147519429523L140.76,105.48147519429523L141.44,92.29630258348251L142.12,105.48147519429523L142.8,118.66667727629343L143.48,105.48147519429523L144.16,105.48147519429523L144.84,105.48147519429523L145.52,105.48147519429523L146.2,131.85184988710614L146.88,131.85184988710614L147.56,118.66667727629343L148.24,105.48147519429523L148.92,105.48147519429523L149.60000000000002,92.29630258348251L150.28,105.48147519429523L150.96,105.48147519429523L151.64,105.48147519429523L152.32000000000002,105.48147519429523L153,105.48147519429523L153.67999999999998,105.48147519429523L154.36,105.48147519429523L155.04,105.48147519429523L155.72,118.66667727629343L156.39999999999998,118.66667727629343L157.08,145.03702249791885L157.76,131.85184988710614L158.44,105.48147519429523L159.12,118.66667727629343L159.8,105.48147519429523L160.48,92.29630258348251L161.16,92.29630258348251L161.84,105.48147519429523L162.52,105.48147519429523L163.2,118.66667727629343L163.88,118.66667727629343L164.56,105.48147519429523L165.24,105.48147519429523L165.92,105.48147519429523L166.60000000000002,105.48147519429523L167.28,105.48147519429523L167.96,105.48147519429523L168.64,105.48147519429523L169.32000000000002,92.29630258348251L170,118.66667727629343L170.67999999999998,118.66667727629343L171.36,105.48147519429523L172.04,105.48147519429523L172.72,105.48147519429523L173.39999999999998,105.48147519429523L174.08,105.48147519429523L174.76,105.48147519429523L175.44,105.48147519429523L176.12,105.48147519429523L176.8,92.29630258348251L177.48,105.48147519429523L178.16,92.29630258348251L178.84,105.48147519429523L179.52,105.48147519429523L180.2,118.66667727629343L180.88,105.48147519429523L181.56,105.48147519429523L182.24,105.48147519429523L182.92,105.48147519429523L183.60000000000002,105.48147519429523L184.28,118.66667727629343L184.96,131.85184988710614L185.64,118.66667727629343L186.32000000000002,92.29630258348251L187,92.29630258348251L187.67999999999998,105.48147519429523L188.36,92.29630258348251L189.04,105.48147519429523L189.72,92.29630258348251L190.39999999999998,92.29630258348251L191.08,92.29630258348251L191.76,105.48147519429523L192.44,118.66667727629343L193.12,118.66667727629343L193.8,145.03702249791885L194.48,118.66667727629343L195.16,118.66667727629343L195.84,105.48147519429523L196.52,105.48147519429523L197.2,105.48147519429523L197.88,105.48147519429523L198.56,105.48147519429523L199.24,145.03702249791885L199.92,118.66667727629343L200.60000000000002,105.48147519429523L201.28,118.66667727629343L201.96,105.48147519429523L202.64,118.66667727629343L203.32000000000002,118.66667727629343L204,105.48147519429523L204.67999999999998,118.66667727629343L205.36,118.66667727629343L206.04,105.48147519429523L206.72,105.48147519429523L207.39999999999998,105.48147519429523L208.08,92.29630258348251L208.76,105.48147519429523L209.44,105.48147519429523L210.12,105.48147519429523L210.8,105.48147519429523L211.48,118.66667727629343L212.16,131.85184988710614L212.84,118.66667727629343L213.52,118.66667727629343L214.2,118.66667727629343L214.88,105.48147519429523L215.56,118.66667727629343L216.24,131.85184988710614L216.92,118.66667727629343L217.60000000000002,118.66667727629343L218.28,131.85184988710614L218.96,118.66667727629343L219.64,118.66667727629343L220.32000000000002,118.66667727629343L221,105.48147519429523L221.67999999999998,105.48147519429523L222.36,105.48147519429523L223.04,105.48147519429523L223.72,105.48147519429523L224.39999999999998,105.48147519429523L225.08,118.66667727629343L225.76,118.66667727629343L226.44,118.66667727629343L227.12,118.66667727629343L227.8,118.66667727629343L228.48,118.66667727629343L229.16,118.66667727629343L229.84,131.85184988710614L230.52,105.48147519429523L231.2,105.48147519429523L231.88,118.66667727629343L232.56,92.29630258348251L233.24,105.48147519429523L233.92,105.48147519429523L234.60000000000002,105.48147519429523L235.28,105.48147519429523L235.96,118.66667727629343L236.64,105.48147519429523L237.32000000000002,118.66667727629343L238,118.66667727629343" style="fill: none;" fill="none"></path></g></g></g></g></g></g><g transform="translate(58, 178)" clip-path="url(#clip_1)"><clipPath id="clip_1"><rect width="272" height="22"></rect></clipPath><g><g><line x1="0" y1="0" x2="0" y2="5" style="visibility: inherit;" fill="rgb(0, 0, 0)" stroke="rgb(204, 204, 204)" stroke-width="1px"></line><line x1="34" y1="0" x2="34" y2="5" style="visibility: inherit;" fill="rgb(0, 0, 0)" stroke="rgb(204, 204, 204)" stroke-width="1px"></line><line x1="68" y1="0" x2="68" y2="5" style="visibility: inherit;" fill="rgb(0, 0, 0)" stroke="rgb(204, 204, 204)" stroke-width="1px"></line><line x1="102" y1="0" x2="102" y2="5" style="visibility: inherit;" fill="rgb(0, 0, 0)" stroke="rgb(204, 204, 204)" stroke-width="1px"></line><line x1="136" y1="0" x2="136" y2="5" style="visibility: inherit;" fill="rgb(0, 0, 0)" stroke="rgb(204, 204, 204)" stroke-width="1px"></line><line x1="170" y1="0" x2="170" y2="5" style="visibility: inherit;" fill="rgb(0, 0, 0)" stroke="rgb(204, 204, 204)" stroke-width="1px"></line><line x1="204" y1="0" x2="204" y2="5" style="visibility: inherit;" fill="rgb(0, 0, 0)" stroke="rgb(204, 204, 204)" stroke-width="1px"></line><line x1="238" y1="0" x2="238" y2="5" style="visibility: inherit;" fill="rgb(0, 0, 0)" stroke="rgb(204, 204, 204)" stroke-width="1px"></line><line x1="272" y1="0" x2="272" y2="5" style="visibility: inherit;" fill="rgb(0, 0, 0)" stroke="rgb(204, 204, 204)" stroke-width="1px"></line></g><g transform="translate(0, 8)"><text x="0" y="0" dx="0em" dy="0.95em" style="text-anchor: middle; visibility: hidden; font-family: &quot;Helvetica Neue&quot;, sans-serif; font-size: 12px; font-weight: 200;" fill="rgb(50, 49, 63)" stroke="none" stroke-width="1px">-50</text><text x="34" y="0" dx="0em" dy="0.95em" style="text-anchor: middle; visibility: inherit; font-family: &quot;Helvetica Neue&quot;, sans-serif; font-size: 12px; font-weight: 200;" fill="rgb(50, 49, 63)" stroke="none" stroke-width="1px">0</text><text x="68" y="0" dx="0em" dy="0.95em" style="text-anchor: middle; visibility: inherit; font-family: &quot;Helvetica Neue&quot;, sans-serif; font-size: 12px; font-weight: 200;" fill="rgb(50, 49, 63)" stroke="none" stroke-width="1px">50</text><text x="102" y="0" dx="0em" dy="0.95em" style="text-anchor: middle; visibility: inherit; font-family: &quot;Helvetica Neue&quot;, sans-serif; font-size: 12px; font-weight: 200;" fill="rgb(50, 49, 63)" stroke="none" stroke-width="1px">100</text><text x="136" y="0" dx="0em" dy="0.95em" style="text-anchor: middle; visibility: inherit; font-family: &quot;Helvetica Neue&quot;, sans-serif; font-size: 12px; font-weight: 200;" fill="rgb(50, 49, 63)" stroke="none" stroke-width="1px">150</text><text x="170" y="0" dx="0em" dy="0.95em" style="text-anchor: middle; visibility: inherit; font-family: &quot;Helvetica Neue&quot;, sans-serif; font-size: 12px; font-weight: 200;" fill="rgb(50, 49, 63)" stroke="none" stroke-width="1px">200</text><text x="204" y="0" dx="0em" dy="0.95em" style="text-anchor: middle; visibility: inherit; font-family: &quot;Helvetica Neue&quot;, sans-serif; font-size: 12px; font-weight: 200;" fill="rgb(50, 49, 63)" stroke="none" stroke-width="1px">250</text><text x="238" y="0" dx="0em" dy="0.95em" style="text-anchor: middle; visibility: inherit; font-family: &quot;Helvetica Neue&quot;, sans-serif; font-size: 12px; font-weight: 200;" fill="rgb(50, 49, 63)" stroke="none" stroke-width="1px">300</text><text x="272" y="0" dx="0em" dy="0.95em" style="text-anchor: middle; visibility: hidden; font-family: &quot;Helvetica Neue&quot;, sans-serif; font-size: 12px; font-weight: 200;" fill="rgb(50, 49, 63)" stroke="none" stroke-width="1px">350</text></g><line x1="0" y1="0" x2="272" y2="0" fill="rgb(0, 0, 0)" stroke="rgb(204, 204, 204)" stroke-width="1px"></line></g></g></g></g></svg>