<svg viewBox="0 0 330 200" xmlns="http://www.w3.org/2000/svg"><g><g><g><g><g><line x1="58" y1="178" x2="53" y2="178" style="visibility: inherit;" fill="rgb(0, 0, 0)" stroke="rgb(204, 204, 204)" stroke-width="1px"></line><line x1="58" y1="164.3076923076923" x2="53" y2="164.3076923076923" style="visibility: inherit;" fill="rgb(0, 0, 0)" stroke="rgb(204, 204, 204)" stroke-width="1px"></line><line x1="58" y1="150.61538461538458" x2="53" y2="150.61538461538458" style="visibility: inherit;" fill="rgb(0, 0, 0)" stroke="rgb(204, 204, 204)" stroke-width="1px"></line><line x1="58" y1="136.92307692307688" x2="53" y2="136.92307692307688" style="visibility: inherit;" fill="rgb(0, 0, 0)" stroke="rgb(204, 204, 204)" stroke-width="1px"></line><line x1="58" y1="123.2307692307692" x2="53" y2="123.2307692307692" style="visibility: inherit;" fill="rgb(0, 0, 0)" stroke="rgb(204, 204, 204)" stroke-width="1px"></line><line x1="58" y1="109.53846153846148" x2="53" y2="109.53846153846148" style="visibility: inherit;" fill="rgb(0, 0, 0)" stroke="rgb(204, 204, 204)" stroke-width="1px"></line><line x1="58" y1="95.84615384615377" x2="53" y2="95.84615384615377" style="visibility: inherit;" fill="rgb(0, 0, 0)" stroke="rgb(204, 204, 204)" stroke-width="1px"></line><line x1="58" y1="82.15384615384608" x2="53" y2="82.15384615384608" style="visibility: inherit;" fill="rgb(0, 0, 0)" stroke="rgb(204, 204, 204)" stroke-width="1px"></line><line x1="58" y1="68.46153846153851" x2="53" y2="68.46153846153851" style="visibility: inherit;" fill="rgb(0, 0, 0)" stroke="rgb(204, 204, 204)" stroke-width="1px"></line><line x1="58" y1="54.769230769230816" x2="53" y2="54.769230769230816" style="visibility: inherit;" fill="rgb(0, 0, 0)" stroke="rgb(204, 204, 204)" stroke-width="1px"></line><line x1="58" y1="41.07692307692312" x2="53" y2="41.07692307692312" style="visibility: inherit;" fill="rgb(0, 0, 0)" stroke="rgb(204, 204, 204)" stroke-width="1px"></line><line x1="58" y1="27.384615384615415" x2="53" y2="27.384615384615415" style="visibility: inherit;" fill="rgb(0, 0, 0)" stroke="rgb(204, 204, 204)" stroke-width="1px"></line><line x1="58" y1="13.692307692307708" x2="53" y2="13.692307692307708" style="visibility: inherit;" fill="rgb(0, 0, 0)" stroke="rgb(204, 204, 204)" stroke-width="1px"></line><line x1="58" y1="0" x2="53" y2="0" style="visibility: inherit;" fill="rgb(0, 0, 0)" stroke="rgb(204, 204, 204)" stroke-width="1px"></line></g><g transform="translate(48, 0)"><text x="0" y="178" dx="0em" dy="0.3em" style="text-anchor: end; visibility: hidden; font-family: &quot;Helvetica Neue&quot;, sans-serif; font-size: 12px; font-weight: 200;" fill="rgb(50, 49, 63)" stroke="none" stroke-width="1px">0.49</text><text x="0" y="164.3076923076923" dx="0em" dy="0.3em" style="text-anchor: end; visibility: inherit; font-family: &quot;Helvetica Neue&quot;, sans-serif; font-size: 12px; font-weight: 200;" fill="rgb(50, 49, 63)" stroke="none" stroke-width="1px">0.5</text><text x="0" y="150.61538461538458" dx="0em" dy="0.3em" style="text-anchor: end; visibility: hidden; font-family: &quot;Helvetica Neue&quot;, sans-serif; font-size: 12px; font-weight: 200;" fill="rgb(50, 49, 63)" stroke="none" stroke-width="1px">0.51</text><text x="0" y="136.92307692307688" dx="0em" dy="0.3em" style="text-anchor: end; visibility: inherit; font-family: &quot;Helvetica Neue&quot;, sans-serif; font-size: 12px; font-weight: 200;" fill="rgb(50, 49, 63)" stroke="none" stroke-width="1px">0.52</text><text x="0" y="123.2307692307692" dx="0em" dy="0.3em" style="text-anchor: end; visibility: hidden; font-family: &quot;Helvetica Neue&quot;, sans-serif; font-size: 12px; font-weight: 200;" fill="rgb(50, 49, 63)" stroke="none" stroke-width="1px">0.53</text><text x="0" y="109.53846153846148" dx="0em" dy="0.3em" style="text-anchor: end; visibility: inherit; font-family: &quot;Helvetica Neue&quot;, sans-serif; font-size: 12px; font-weight: 200;" fill="rgb(50, 49, 63)" stroke="none" stroke-width="1px">0.54</text><text x="0" y="95.84615384615377" dx="0em" dy="0.3em" style="text-anchor: end; visibility: hidden; font-family: &quot;Helvetica Neue&quot;, sans-serif; font-size: 12px; font-weight: 200;" fill="rgb(50, 49, 63)" stroke="none" stroke-width="1px">0.55</text><text x="0" y="82.15384615384608" dx="0em" dy="0.3em" style="text-anchor: end; visibility: inherit; font-family: &quot;Helvetica Neue&quot;, sans-serif; font-size: 12px; font-weight: 200;" fill="rgb(50, 49, 63)" stroke="none" stroke-width="1px">0.56</text><text x="0" y="68.46153846153851" dx="0em" dy="0.3em" style="text-anchor: end; visibility: hidden; font-family: &quot;Helvetica Neue&quot;, sans-serif; font-size: 12px; font-weight: 200;" fill="rgb(50, 49, 63)" stroke="none" stroke-width="1px">0.57</text><text x="0" y="54.769230769230816" dx="0em" dy="0.3em" style="text-anchor: end; visibility: inherit; font-family: &quot;Helvetica Neue&quot;, sans-serif; font-size: 12px; font-weight: 200;" fill="rgb(50, 49, 63)" stroke="none" stroke-width="1px">0.58</text><text x="0" y="41.07692307692312" dx="0em" dy="0.3em" style="text-anchor: end; visibility: hidden; font-family: &quot;Helvetica Neue&quot;, sans-serif; font-size: 12px; font-weight: 200;" fill="rgb(50, 49, 63)" stroke="none" stroke-width="1px">0.59</text><text x="0" y="27.384615384615415" dx="0em" dy="0.3em" style="text-anchor: end; visibility: inherit; font-family: &quot;Helvetica Neue&quot;, sans-serif; font-size: 12px; font-weight: 200;" fill="rgb(50, 49, 63)" stroke="none" stroke-width="1px">0.6</text><text x="0" y="13.692307692307708" dx="0em" dy="0.3em" style="text-anchor: end; visibility: hidden; font-family: &quot;Helvetica Neue&quot;, sans-serif; font-size: 12px; font-weight: 200;" fill="rgb(50, 49, 63)" stroke="none" stroke-width="1px">0.61</text><text x="0" y="0" dx="0em" dy="0.3em" style="text-anchor: end; visibility: hidden; font-family: &quot;Helvetica Neue&quot;, sans-serif; font-size: 12px; font-weight: 200;" fill="rgb(50, 49, 63)" stroke="none" stroke-width="1px">0.62</text></g><line x1="58" y1="0" x2="58" y2="178" fill="rgb(0, 0, 0)" stroke="rgb(204, 204, 204)" stroke-width="1px"></line></g></g><g transform="translate(58, 0)" clip-path="url(#clip_0)"><clipPath id="clip_0"><rect width="272" height="178"></rect></clipPath><g><g><g><line x1="0" y1="0" x2="0" y2="178" fill="rgb(0, 0, 0)" stroke="rgb(60, 60, 60)" stroke-width="1px" opacity="0.25"></line><line x1="34" y1="0" x2="34" y2="178" fill="rgb(0, 0, 0)" stroke="rgb(60, 60, 60)" stroke-width="1px" opacity="0.25"></line><line x1="68" y1="0" x2="68" y2="178" fill="rgb(0, 0, 0)" stroke="rgb(60, 60, 60)" stroke-width="1px" opacity="0.25"></line><line x1="102" y1="0" x2="102" y2="178" fill="rgb(0, 0, 0)" stroke="rgb(60, 60, 60)" stroke-width="1px" opacity="0.25"></line><line x1="136" y1="0" x2="136" y2="178" fill="rgb(0, 0, 0)" stroke="rgb(60, 60, 60)" stroke-width="1px" opacity="0.25"></line><line x1="170" y1="0" x2="170" y2="178" fill="rgb(0, 0, 0)" stroke="rgb(60, 60, 60)" stroke-width="1px" opacity="0.25"></line><line x1="204" y1="0" x2="204" y2="178" fill="rgb(0, 0, 0)" stroke="rgb(60, 60, 60)" stroke-width="1px" opacity="0.25"></line><line x1="238" y1="0" x2="238" y2="178" fill="rgb(0, 0, 0)" stroke="rgb(60, 60, 60)" stroke-width="1px" opacity="0.25"></line><line x1="272" y1="0" x2="272" y2="178" fill="rgb(0, 0, 0)" stroke="rgb(60, 60, 60)" stroke-width="1px" opacity="0.25"></line></g><g><line x1="0" y1="178" x2="272" y2="178" fill="rgb(0, 0, 0)" stroke="rgb(60, 60, 60)" stroke-width="1px" opacity="0.25"></line><line x1="0" y1="164.3076923076923" x2="272" y2="164.3076923076923" fill="rgb(0, 0, 0)" stroke="rgb(60, 60, 60)" stroke-width="1px" opacity="0.25"></line><line x1="0" y1="150.61538461538458" x2="272" y2="150.61538461538458" fill="rgb(0, 0, 0)" stroke="rgb(60, 60, 60)" stroke-width="1px" opacity="0.25"></line><line x1="0" y1="136.92307692307688" x2="272" y2="136.92307692307688" fill="rgb(0, 0, 0)" stroke="rgb(60, 60, 60)" stroke-width="1px" opacity="0.25"></line><line x1="0" y1="123.2307692307692" x2="272" y2="123.2307692307692" fill="rgb(0, 0, 0)" stroke="rgb(60, 60, 60)" stroke-width="1px" opacity="0.25"></line><line x1="0" y1="109.53846153846148" x2="272" y2="109.53846153846148" fill="rgb(0, 0, 0)" stroke="rgb(60, 60, 60)" stroke-width="1px" opacity="0.25"></line><line x1="0" y1="95.84615384615377" x2="272" y2="95.84615384615377" fill="rgb(0, 0, 0)" stroke="rgb(60, 60, 60)" stroke-width="1px" opacity="0.25"></line><line x1="0" y1="82.15384615384608" x2="272" y2="82.15384615384608" fill="rgb(0, 0, 0)" stroke="rgb(60, 60, 60)" stroke-width="1px" opacity="0.25"></line><line x1="0" y1="68.46153846153851" x2="272" y2="68.46153846153851" fill="rgb(0, 0, 0)" stroke="rgb(60, 60, 60)" stroke-width="1px" opacity="0.25"></line><line x1="0" y1="54.769230769230816" x2="272" y2="54.769230769230816" fill="rgb(0, 0, 0)" stroke="rgb(60, 60, 60)" stroke-width="1px" opacity="0.25"></line><line x1="0" y1="41.07692307692312" x2="272" y2="41.07692307692312" fill="rgb(0, 0, 0)" stroke="rgb(60, 60, 60)" stroke-width="1px" opacity="0.25"></line><line x1="0" y1="27.384615384615415" x2="272" y2="27.384615384615415" fill="rgb(0, 0, 0)" stroke="rgb(60, 60, 60)" stroke-width="1px" opacity="0.25"></line><line x1="0" y1="13.692307692307708" x2="272" y2="13.692307692307708" fill="rgb(0, 0, 0)" stroke="rgb(60, 60, 60)" stroke-width="1px" opacity="0.25"></line><line x1="0" y1="0" x2="272" y2="0" fill="rgb(0, 0, 0)" stroke="rgb(60, 60, 60)" stroke-width="1px" opacity="0.25"></line></g></g></g><g><g><line x1="0" y1="848.9230769230769" x2="272" y2="848.9230769230769" fill="rgb(0, 0, 0)" stroke="rgb(153, 153, 153)" stroke-width="1.5px"></line></g></g><g><g><line x1="34" y1="0" x2="34" y2="178" fill="rgb(0, 0, 0)" stroke="rgb(153, 153, 153)" stroke-width="1.5px"></line></g></g><g><g><g><g><g><path stroke="rgb(255, 112, 67)" stroke-width="2px" d="M34.68,155.17949588482196L35.36,75.30767516906444L36.04,144.00208336255247L36.72,216.25790951465058L37.400000000000006,134.33852767259629L38.080000000000005,89.46324868285639L38.76,86.45528256513933L39.44,84.7053139418298L40.12,164.82031023226494L40.8,109.51158854521653L41.48,76.5411705170167L42.16,71.47264926011023L42.84,112.31128313840281L43.52,114.85541500304173L44.2,94.46264064296918L44.88,74.9284964681606L45.56,150.8571238897928L46.24,94.15979211286499L46.919999999999995,155.08420444654058L47.599999999999994,118.60816906372014L48.28,89.42068403295936L48.96,71.90860280192445L49.64,39.49362450952589L50.32,20.044801369026317L51,132.51950501804495L51.68,126.97834499095131L52.36,196.67938276071877L53.04,223.894820197986L53.72,145.29069625243267L54.400000000000006,200.3641772162808L55.080000000000005,174.98774417936042L55.76,130.55162298853793L56.44,111.19251002442527L57.12,99.57704283759645L57.8,70.7000583019861L58.48,60.6764577569497L59.16,76.5699690465637L59.84,78.8035185919701L60.52,72.84109115934024L61.2,69.26363470826387L61.88,67.1171608406787L62.56,51.22412959260291L63.24,41.68831084865235L63.919999999999995,43.269409388610995L64.6,58.82318279052167L65.28,68.15544683063328L65.96,73.75480525432772L66.64,69.81186316994997L67.32,82.0512121961693L68,67.48715019672953L68.68,51.44612321380387L69.36,49.124096807421296L70.04,55.03343810190502L70.72,65.8816000168926L71.4,65.08794002757699L72.08,64.61174403398799L72.76,57.02346929953684L73.44,52.470504458867296L74.12,42.436135771163606L74.80000000000001,43.718104341843855L75.48,59.092399760845154L76.16000000000001,68.31697701224546L76.83999999999999,59.246609086492825L77.52,61.10694546933766L78.19999999999999,47.61800037744652L78.88,46.82722310561357L79.56,39.050166959212135L80.24,34.38393327137135L80.92,38.886782841968625L81.6,41.588492584326815L82.28,35.90692864644012L82.96,32.49799028370796L83.64,30.452627266068617L84.32,29.22540945548522L85,21.186521630838712L85.68,23.665746074347197L86.36,32.45587052375399L87.04,37.729945193398095L87.72,33.59180021188283L88.4,31.10891322297371L89.08,29.61918102962821L89.76,28.725341713620907L90.44,35.49162790731825L91.12,32.24880984023494L91.80000000000001,37.60570878328667L92.48,33.51725836581596L93.16000000000001,31.064188115333565L93.83999999999999,29.59234596504416L94.52,36.011830458172255L95.19999999999999,32.560931370747255L95.88,37.7929817015941L96.56,40.93221190010209L97.24,35.5131602359053L97.92,39.564319020688885L98.6,41.99501429155899L99.28,43.453431454081084L99.96,44.32848175159435L100.64,37.550922146800644L101.32,33.484386383924345L102,31.04446492619863L102.68,29.580512051563176L103.36,36.00473011008353L104.04,32.5566711618942L104.72,30.48783579298052L105.4,29.246534571632367L106.08,35.80434362212509L106.76,32.436439269119006L107.44,30.41569665731538L108.12,29.203251090233124L108.80000000000001,35.7783735332855L109.48,39.72344699911693L110.16000000000001,34.78790129531407L110.83999999999999,31.826573873032487L111.52,30.04977741966357L112.19999999999999,28.98369954764223L112.88,28.34405282442944L113.56,35.26285457380337L114.24,32.1115458401261L114.92,30.220760599919572L115.6,29.08628945579565L116.28,35.70819655262312L116.96,32.37875102741782L117.64,30.38108371229461L118.32,36.48507310652252L119,32.84487695975761L119.68,30.660759271698566L120.36,29.350288658863064L121.04,28.56400629116183L121.72,28.092236870541058L122.4,27.80917521816866L123.08,27.639338226745195L123.76,34.840025815192774L124.44,39.160438368261254L125.12,41.75268590010245L125.80000000000001,36.00544463590549L126.48,32.557099877387316L127.16000000000001,30.488093022276274L127.83999999999999,29.246688909209837L128.51999999999998,28.50184644136982L129.2,28.054940960665817L129.88,27.78679767224358L130.56,27.625911699190056L131.24,34.83196989865979L131.92,39.1556048183416L132.6,34.447195986848925L133.28,31.622150687953308L133.96,29.927123508615892L134.64,28.910107201013517L135.32,28.299897416452126L136,27.933771545715246L136.67999999999998,27.714096023273243L137.36,34.88488049310965L138.04,31.884761391709873L138.72,30.084689930870013L139.39999999999998,36.30723683766769L140.08,40.040764981746264L140.76,42.28088186819349L141.44,36.32236221676001L142.12,40.04984020920165L142.8,34.98373722136492L143.48,31.94407542866304L144.16,30.120278353041925L144.84,29.02600010766912L145.52,28.369433160445567L146.2,35.278082775413026L146.88,39.42327254439357L147.56,41.91038640578185L148.24,43.402654722614784L148.92,36.99542592941279L149.60000000000002,33.151088653491655L150.28,30.844486287938906L150.96,29.460524868607365L151.64,28.630148017008338L152.32000000000002,28.131921906048973L153,27.8329862394734L153.67999999999998,27.653624839527907L154.36,27.54600799956083L155.04,34.784027678882154L155.72,39.126839486475035L156.39999999999998,34.42993678772902L157.08,31.611795168481336L157.76,29.92091019693285L158.44,28.90637921400375L159.12,28.29766062424622L159.8,27.93242947039184L160.48,27.713290778079113L161.16,27.581807562691438L161.84,27.50291763345885L162.52,34.75817345922101L163.2,39.11132695467836L163.88,41.72321905195275L164.56,35.98776452701563L165.24,32.546491812053404L165.92,30.48172818307603L166.60000000000002,29.242870005689667L167.28,28.49955509925789L167.96,28.053566155398727L168.64,27.785972789083218L169.32000000000002,34.92800655259563L170,39.213226810703105L170.67999999999998,41.78435896556758L171.36,43.32703825848628L172.04,44.25264583423743L172.72,37.5054205963865L173.39999999999998,33.4570854536758L174.08,38.33067415135113L174.76,33.952237586654775L175.44,31.32517564783697L176.12,29.748938484546215L176.8,36.10578596987344L177.48,39.919894461069845L178.16,34.905769772485996L178.84,31.897294959335625L179.52,30.092210071445294L180.2,29.009159138711283L180.88,28.359328579070734L181.56,27.96943024328641L182.24,35.03808102511755L182.92,39.279271494216175L183.60000000000002,41.82398577567537L184.28,43.35081434455091L184.96,44.26691148587622L185.64,44.81656977067132L186.32000000000002,45.146364741548496L187,45.34424172407472L187.67999999999998,38.16037813028893L188.36,33.8500599740174L189.04,31.263869080254437L189.72,29.71215454399666L190.39999999999998,28.781125822242018L191.08,28.222508589189147L191.76,27.887338249357384L192.44,27.6862360454584L193.12,27.56557472311914L193.8,27.493177929715387L194.48,27.44973985367315L195.16,27.423677008047918L195.84,27.40803930067267L196.52,34.70124645954931L197.2,39.0771707548752L197.88,41.702725332070855L198.56,35.97546829508647L199.24,39.84170385619768L199.92,34.85885540956269L200.60000000000002,53.7768504014758L201.28,43.219943336729386L201.96,36.88579909788163L202.64,40.387902337874664L203.32000000000002,35.18657449856869L204,32.065777794985195L204.67999999999998,30.193299772835104L205.36,36.372402742846674L206.04,40.07986452485375L206.72,35.00175181075625L207.39999999999998,31.954884182297832L208.08,30.126763605222806L208.76,29.029891258977585L209.44,28.37176785123063L210.12,35.27948358988411L210.8,32.12152324977444L211.48,30.22674704570872L212.16,43.69502824486722L212.84,37.17085004276424L213.52,33.25634312150254L214.2,30.90763896874546L214.88,29.498416477091325L215.56,28.652882982098816L216.24,28.145562885103317L216.92,27.841170826905994L217.60000000000002,27.65853559198746L218.28,27.54895445103645L218.96,27.48320576646583L219.64,27.443756555723496L220.32000000000002,27.42008702927805L221,27.40588531341092L221.67999999999998,27.397364283890653L222.36,27.392251666178424L223.04,27.389184095550974L223.72,27.387343553174674L224.39999999999998,27.38623922774886L225.08,27.385576632493212L225.76,34.68776885864159L226.44,39.06908419433074L227.12,34.39528361244248L227.8,38.89359304661116L228.48,41.592578707112324L229.16,43.21197010341311L229.84,36.88101515789177L230.52,33.08244219057909L231.2,38.105888193493115L231.88,41.11995579524165L232.56,42.92839635629062L233.24,36.710870909618336L233.92,40.28294542491676L234.60000000000002,35.123600350793964L235.28,32.02799330632047L235.96,30.17062907963637L236.64,29.056210543625724L237.32000000000002,28.387559422019535L238,27.98636874905563" style="fill: none;" fill="none"></path></g></g></g></g><g opacity="0.2"><g><g><g><path stroke="rgb(255, 112, 67)" stroke-width="2px" d="M34.68,155.17949588482196L35.36,27.384582739609925L36.04,209.9487152283008L36.72,301.2307610695178L37.400000000000006,27.384582739609925L38.080000000000005,27.384582739609925L38.76,82.1538428893456L39.44,82.1538428893456L40.12,282.97436822377716L40.8,27.384582739609925L41.48,27.384582739609925L42.16,63.89745004360492L42.84,173.43588873056262L43.52,118.66662858082697L44.2,63.89745004360492L44.88,45.64105719786423L45.56,264.71793457177967L46.24,9.128189893869234L46.919999999999995,246.461541726039L47.599999999999994,63.89745004360492L48.28,45.64105719786423L48.96,45.64105719786423L49.64,-9.128202951871458L51,301.2307610695178L51.68,118.66662858082697L52.36,301.2307610695178L53.04,264.71793457177967L53.72,27.384582739609925L54.400000000000006,282.97436822377716L55.080000000000005,136.92310303908127L55.76,63.89745004360492L56.44,82.1538428893456L57.12,82.1538428893456L57.8,27.384582739609925L58.48,45.64105719786423L59.16,100.41023573508627L59.84,82.1538428893456L60.52,63.89745004360492L61.2,63.89745004360492L61.88,63.89745004360492L62.56,27.384582739609925L63.24,27.384582739609925L63.919999999999995,45.64105719786423L64.6,82.1538428893456L65.28,82.1538428893456L65.96,82.1538428893456L66.64,63.89745004360492L67.32,100.41023573508627L68,45.64105719786423L68.68,27.384582739609925L69.36,45.64105719786423L70.04,63.89745004360492L70.72,82.1538428893456L71.4,63.89745004360492L72.08,63.89745004360492L72.76,45.64105719786423L73.44,45.64105719786423L74.12,27.384582739609925L74.80000000000001,45.64105719786423L75.48,82.1538428893456L76.16000000000001,82.1538428893456L76.83999999999999,45.64105719786423L77.52,63.89745004360492L78.19999999999999,27.384582739609925L78.88,45.64105719786423L79.56,27.384582739609925L80.24,27.384582739609925L80.92,45.64105719786423L81.6,45.64105719786423L82.28,27.384582739609925L82.96,27.384582739609925L83.64,27.384582739609925L84.32,27.384582739609925L85,9.128189893869234L85.68,27.384582739609925L86.36,45.64105719786423L87.04,45.64105719786423L87.72,27.384582739609925L88.4,27.384582739609925L89.08,27.384582739609925L89.76,27.384582739609925L90.44,45.64105719786423L91.12,27.384582739609925L91.80000000000001,45.64105719786423L92.48,27.384582739609925L93.16000000000001,27.384582739609925L93.83999999999999,27.384582739609925L94.52,45.64105719786423L95.19999999999999,27.384582739609925L95.88,45.64105719786423L96.56,45.64105719786423L97.24,27.384582739609925L97.92,45.64105719786423L98.6,45.64105719786423L99.28,45.64105719786423L99.96,45.64105719786423L100.64,27.384582739609925L101.32,27.384582739609925L102,27.384582739609925L102.68,27.384582739609925L103.36,45.64105719786423L104.04,27.384582739609925L104.72,27.384582739609925L105.4,27.384582739609925L106.08,45.64105719786423L106.76,27.384582739609925L107.44,27.384582739609925L108.12,27.384582739609925L108.80000000000001,45.64105719786423L109.48,45.64105719786423L110.16000000000001,27.384582739609925L110.83999999999999,27.384582739609925L111.52,27.384582739609925L112.19999999999999,27.384582739609925L112.88,27.384582739609925L113.56,45.64105719786423L114.24,27.384582739609925L114.92,27.384582739609925L115.6,27.384582739609925L116.28,45.64105719786423L116.96,27.384582739609925L117.64,27.384582739609925L118.32,45.64105719786423L119,27.384582739609925L119.68,27.384582739609925L120.36,27.384582739609925L121.04,27.384582739609925L121.72,27.384582739609925L122.4,27.384582739609925L123.08,27.384582739609925L123.76,45.64105719786423L124.44,45.64105719786423L125.12,45.64105719786423L125.80000000000001,27.384582739609925L126.48,27.384582739609925L127.16000000000001,27.384582739609925L127.83999999999999,27.384582739609925L128.51999999999998,27.384582739609925L129.2,27.384582739609925L129.88,27.384582739609925L130.56,27.384582739609925L131.24,45.64105719786423L131.92,45.64105719786423L132.6,27.384582739609925L133.28,27.384582739609925L133.96,27.384582739609925L134.64,27.384582739609925L135.32,27.384582739609925L136,27.384582739609925L136.67999999999998,27.384582739609925L137.36,45.64105719786423L138.04,27.384582739609925L138.72,27.384582739609925L139.39999999999998,45.64105719786423L140.08,45.64105719786423L140.76,45.64105719786423L141.44,27.384582739609925L142.12,45.64105719786423L142.8,27.384582739609925L143.48,27.384582739609925L144.16,27.384582739609925L144.84,27.384582739609925L145.52,27.384582739609925L146.2,45.64105719786423L146.88,45.64105719786423L147.56,45.64105719786423L148.24,45.64105719786423L148.92,27.384582739609925L149.60000000000002,27.384582739609925L150.28,27.384582739609925L150.96,27.384582739609925L151.64,27.384582739609925L152.32000000000002,27.384582739609925L153,27.384582739609925L153.67999999999998,27.384582739609925L154.36,27.384582739609925L155.04,45.64105719786423L155.72,45.64105719786423L156.39999999999998,27.384582739609925L157.08,27.384582739609925L157.76,27.384582739609925L158.44,27.384582739609925L159.12,27.384582739609925L159.8,27.384582739609925L160.48,27.384582739609925L161.16,27.384582739609925L161.84,27.384582739609925L162.52,45.64105719786423L163.2,45.64105719786423L163.88,45.64105719786423L164.56,27.384582739609925L165.24,27.384582739609925L165.92,27.384582739609925L166.60000000000002,27.384582739609925L167.28,27.384582739609925L167.96,27.384582739609925L168.64,27.384582739609925L169.32000000000002,45.64105719786423L170,45.64105719786423L170.67999999999998,45.64105719786423L171.36,45.64105719786423L172.04,45.64105719786423L172.72,27.384582739609925L173.39999999999998,27.384582739609925L174.08,45.64105719786423L174.76,27.384582739609925L175.44,27.384582739609925L176.12,27.384582739609925L176.8,45.64105719786423L177.48,45.64105719786423L178.16,27.384582739609925L178.84,27.384582739609925L179.52,27.384582739609925L180.2,27.384582739609925L180.88,27.384582739609925L181.56,27.384582739609925L182.24,45.64105719786423L182.92,45.64105719786423L183.60000000000002,45.64105719786423L184.28,45.64105719786423L184.96,45.64105719786423L185.64,45.64105719786423L186.32000000000002,45.64105719786423L187,45.64105719786423L187.67999999999998,27.384582739609925L188.36,27.384582739609925L189.04,27.384582739609925L189.72,27.384582739609925L190.39999999999998,27.384582739609925L191.08,27.384582739609925L191.76,27.384582739609925L192.44,27.384582739609925L193.12,27.384582739609925L193.8,27.384582739609925L194.48,27.384582739609925L195.16,27.384582739609925L195.84,27.384582739609925L196.52,45.64105719786423L197.2,45.64105719786423L197.88,45.64105719786423L198.56,27.384582739609925L199.24,45.64105719786423L199.92,27.384582739609925L200.60000000000002,82.1538428893456L201.28,27.384582739609925L201.96,27.384582739609925L202.64,45.64105719786423L203.32000000000002,27.384582739609925L204,27.384582739609925L204.67999999999998,27.384582739609925L205.36,45.64105719786423L206.04,45.64105719786423L206.72,27.384582739609925L207.39999999999998,27.384582739609925L208.08,27.384582739609925L208.76,27.384582739609925L209.44,27.384582739609925L210.12,45.64105719786423L210.8,27.384582739609925L211.48,27.384582739609925L212.16,63.89745004360492L212.84,27.384582739609925L213.52,27.384582739609925L214.2,27.384582739609925L214.88,27.384582739609925L215.56,27.384582739609925L216.24,27.384582739609925L216.92,27.384582739609925L217.60000000000002,27.384582739609925L218.28,27.384582739609925L218.96,27.384582739609925L219.64,27.384582739609925L220.32000000000002,27.384582739609925L221,27.384582739609925L221.67999999999998,27.384582739609925L222.36,27.384582739609925L223.04,27.384582739609925L223.72,27.384582739609925L224.39999999999998,27.384582739609925L225.08,27.384582739609925L225.76,45.64105719786423L226.44,45.64105719786423L227.12,27.384582739609925L227.8,45.64105719786423L228.48,45.64105719786423L229.16,45.64105719786423L229.84,27.384582739609925L230.52,27.384582739609925L231.2,45.64105719786423L231.88,45.64105719786423L232.56,45.64105719786423L233.24,27.384582739609925L233.92,45.64105719786423L234.60000000000002,27.384582739609925L235.28,27.384582739609925L235.96,27.384582739609925L236.64,27.384582739609925L237.32000000000002,27.384582739609925L238,27.384582739609925" style="fill: none;" fill="none"></path></g></g></g></g></g></g><g transform="translate(58, 178)" clip-path="url(#clip_1)"><clipPath id="clip_1"><rect width="272" height="22"></rect></clipPath><g><g><line x1="0" y1="0" x2="0" y2="5" style="visibility: inherit;" fill="rgb(0, 0, 0)" stroke="rgb(204, 204, 204)" stroke-width="1px"></line><line x1="34" y1="0" x2="34" y2="5" style="visibility: inherit;" fill="rgb(0, 0, 0)" stroke="rgb(204, 204, 204)" stroke-width="1px"></line><line x1="68" y1="0" x2="68" y2="5" style="visibility: inherit;" fill="rgb(0, 0, 0)" stroke="rgb(204, 204, 204)" stroke-width="1px"></line><line x1="102" y1="0" x2="102" y2="5" style="visibility: inherit;" fill="rgb(0, 0, 0)" stroke="rgb(204, 204, 204)" stroke-width="1px"></line><line x1="136" y1="0" x2="136" y2="5" style="visibility: inherit;" fill="rgb(0, 0, 0)" stroke="rgb(204, 204, 204)" stroke-width="1px"></line><line x1="170" y1="0" x2="170" y2="5" style="visibility: inherit;" fill="rgb(0, 0, 0)" stroke="rgb(204, 204, 204)" stroke-width="1px"></line><line x1="204" y1="0" x2="204" y2="5" style="visibility: inherit;" fill="rgb(0, 0, 0)" stroke="rgb(204, 204, 204)" stroke-width="1px"></line><line x1="238" y1="0" x2="238" y2="5" style="visibility: inherit;" fill="rgb(0, 0, 0)" stroke="rgb(204, 204, 204)" stroke-width="1px"></line><line x1="272" y1="0" x2="272" y2="5" style="visibility: inherit;" fill="rgb(0, 0, 0)" stroke="rgb(204, 204, 204)" stroke-width="1px"></line></g><g transform="translate(0, 8)"><text x="0" y="0" dx="0em" dy="0.95em" style="text-anchor: middle; visibility: hidden; font-family: &quot;Helvetica Neue&quot;, sans-serif; font-size: 12px; font-weight: 200;" fill="rgb(50, 49, 63)" stroke="none" stroke-width="1px">-50</text><text x="34" y="0" dx="0em" dy="0.95em" style="text-anchor: middle; visibility: inherit; font-family: &quot;Helvetica Neue&quot;, sans-serif; font-size: 12px; font-weight: 200;" fill="rgb(50, 49, 63)" stroke="none" stroke-width="1px">0</text><text x="68" y="0" dx="0em" dy="0.95em" style="text-anchor: middle; visibility: inherit; font-family: &quot;Helvetica Neue&quot;, sans-serif; font-size: 12px; font-weight: 200;" fill="rgb(50, 49, 63)" stroke="none" stroke-width="1px">50</text><text x="102" y="0" dx="0em" dy="0.95em" style="text-anchor: middle; visibility: inherit; font-family: &quot;Helvetica Neue&quot;, sans-serif; font-size: 12px; font-weight: 200;" fill="rgb(50, 49, 63)" stroke="none" stroke-width="1px">100</text><text x="136" y="0" dx="0em" dy="0.95em" style="text-anchor: middle; visibility: inherit; font-family: &quot;Helvetica Neue&quot;, sans-serif; font-size: 12px; font-weight: 200;" fill="rgb(50, 49, 63)" stroke="none" stroke-width="1px">150</text><text x="170" y="0" dx="0em" dy="0.95em" style="text-anchor: middle; visibility: inherit; font-family: &quot;Helvetica Neue&quot;, sans-serif; font-size: 12px; font-weight: 200;" fill="rgb(50, 49, 63)" stroke="none" stroke-width="1px">200</text><text x="204" y="0" dx="0em" dy="0.95em" style="text-anchor: middle; visibility: inherit; font-family: &quot;Helvetica Neue&quot;, sans-serif; font-size: 12px; font-weight: 200;" fill="rgb(50, 49, 63)" stroke="none" stroke-width="1px">250</text><text x="238" y="0" dx="0em" dy="0.95em" style="text-anchor: middle; visibility: inherit; font-family: &quot;Helvetica Neue&quot;, sans-serif; font-size: 12px; font-weight: 200;" fill="rgb(50, 49, 63)" stroke="none" stroke-width="1px">300</text><text x="272" y="0" dx="0em" dy="0.95em" style="text-anchor: middle; visibility: hidden; font-family: &quot;Helvetica Neue&quot;, sans-serif; font-size: 12px; font-weight: 200;" fill="rgb(50, 49, 63)" stroke="none" stroke-width="1px">350</text></g><line x1="0" y1="0" x2="272" y2="0" fill="rgb(0, 0, 0)" stroke="rgb(204, 204, 204)" stroke-width="1px"></line></g></g></g></g></svg>