<svg viewBox="0 0 330 200" xmlns="http://www.w3.org/2000/svg"><g><g><g><g><g><line x1="58" y1="178" x2="53" y2="178" style="visibility: inherit;" fill="rgb(0, 0, 0)" stroke="rgb(204, 204, 204)" stroke-width="1px"></line><line x1="58" y1="160.2" x2="53" y2="160.2" style="visibility: inherit;" fill="rgb(0, 0, 0)" stroke="rgb(204, 204, 204)" stroke-width="1px"></line><line x1="58" y1="142.39999999999995" x2="53" y2="142.39999999999995" style="visibility: inherit;" fill="rgb(0, 0, 0)" stroke="rgb(204, 204, 204)" stroke-width="1px"></line><line x1="58" y1="124.59999999999994" x2="53" y2="124.59999999999994" style="visibility: inherit;" fill="rgb(0, 0, 0)" stroke="rgb(204, 204, 204)" stroke-width="1px"></line><line x1="58" y1="106.79999999999991" x2="53" y2="106.79999999999991" style="visibility: inherit;" fill="rgb(0, 0, 0)" stroke="rgb(204, 204, 204)" stroke-width="1px"></line><line x1="58" y1="88.9999999999999" x2="53" y2="88.9999999999999" style="visibility: inherit;" fill="rgb(0, 0, 0)" stroke="rgb(204, 204, 204)" stroke-width="1px"></line><line x1="58" y1="71.20000000000009" x2="53" y2="71.20000000000009" style="visibility: inherit;" fill="rgb(0, 0, 0)" stroke="rgb(204, 204, 204)" stroke-width="1px"></line><line x1="58" y1="53.40000000000006" x2="53" y2="53.40000000000006" style="visibility: inherit;" fill="rgb(0, 0, 0)" stroke="rgb(204, 204, 204)" stroke-width="1px"></line><line x1="58" y1="35.60000000000002" x2="53" y2="35.60000000000002" style="visibility: inherit;" fill="rgb(0, 0, 0)" stroke="rgb(204, 204, 204)" stroke-width="1px"></line><line x1="58" y1="17.80000000000001" x2="53" y2="17.80000000000001" style="visibility: inherit;" fill="rgb(0, 0, 0)" stroke="rgb(204, 204, 204)" stroke-width="1px"></line><line x1="58" y1="0" x2="53" y2="0" style="visibility: inherit;" fill="rgb(0, 0, 0)" stroke="rgb(204, 204, 204)" stroke-width="1px"></line></g><g transform="translate(48, 0)"><text x="0" y="178" dx="0em" dy="0.3em" style="text-anchor: end; visibility: hidden; font-family: &quot;Helvetica Neue&quot;, sans-serif; font-size: 12px; font-weight: 200;" fill="rgb(50, 49, 63)" stroke="none" stroke-width="1px">0.51</text><text x="0" y="160.2" dx="0em" dy="0.3em" style="text-anchor: end; visibility: inherit; font-family: &quot;Helvetica Neue&quot;, sans-serif; font-size: 12px; font-weight: 200;" fill="rgb(50, 49, 63)" stroke="none" stroke-width="1px">0.52</text><text x="0" y="142.39999999999995" dx="0em" dy="0.3em" style="text-anchor: end; visibility: hidden; font-family: &quot;Helvetica Neue&quot;, sans-serif; font-size: 12px; font-weight: 200;" fill="rgb(50, 49, 63)" stroke="none" stroke-width="1px">0.53</text><text x="0" y="124.59999999999994" dx="0em" dy="0.3em" style="text-anchor: end; visibility: inherit; font-family: &quot;Helvetica Neue&quot;, sans-serif; font-size: 12px; font-weight: 200;" fill="rgb(50, 49, 63)" stroke="none" stroke-width="1px">0.54</text><text x="0" y="106.79999999999991" dx="0em" dy="0.3em" style="text-anchor: end; visibility: hidden; font-family: &quot;Helvetica Neue&quot;, sans-serif; font-size: 12px; font-weight: 200;" fill="rgb(50, 49, 63)" stroke="none" stroke-width="1px">0.55</text><text x="0" y="88.9999999999999" dx="0em" dy="0.3em" style="text-anchor: end; visibility: inherit; font-family: &quot;Helvetica Neue&quot;, sans-serif; font-size: 12px; font-weight: 200;" fill="rgb(50, 49, 63)" stroke="none" stroke-width="1px">0.56</text><text x="0" y="71.20000000000009" dx="0em" dy="0.3em" style="text-anchor: end; visibility: hidden; font-family: &quot;Helvetica Neue&quot;, sans-serif; font-size: 12px; font-weight: 200;" fill="rgb(50, 49, 63)" stroke="none" stroke-width="1px">0.57</text><text x="0" y="53.40000000000006" dx="0em" dy="0.3em" style="text-anchor: end; visibility: inherit; font-family: &quot;Helvetica Neue&quot;, sans-serif; font-size: 12px; font-weight: 200;" fill="rgb(50, 49, 63)" stroke="none" stroke-width="1px">0.58</text><text x="0" y="35.60000000000002" dx="0em" dy="0.3em" style="text-anchor: end; visibility: hidden; font-family: &quot;Helvetica Neue&quot;, sans-serif; font-size: 12px; font-weight: 200;" fill="rgb(50, 49, 63)" stroke="none" stroke-width="1px">0.59</text><text x="0" y="17.80000000000001" dx="0em" dy="0.3em" style="text-anchor: end; visibility: inherit; font-family: &quot;Helvetica Neue&quot;, sans-serif; font-size: 12px; font-weight: 200;" fill="rgb(50, 49, 63)" stroke="none" stroke-width="1px">0.6</text><text x="0" y="0" dx="0em" dy="0.3em" style="text-anchor: end; visibility: hidden; font-family: &quot;Helvetica Neue&quot;, sans-serif; font-size: 12px; font-weight: 200;" fill="rgb(50, 49, 63)" stroke="none" stroke-width="1px">0.61</text></g><line x1="58" y1="0" x2="58" y2="178" fill="rgb(0, 0, 0)" stroke="rgb(204, 204, 204)" stroke-width="1px"></line></g></g><g transform="translate(58, 0)" clip-path="url(#clip_0)"><clipPath id="clip_0"><rect width="272" height="178"></rect></clipPath><g><g><g><line x1="0" y1="0" x2="0" y2="178" fill="rgb(0, 0, 0)" stroke="rgb(60, 60, 60)" stroke-width="1px" opacity="0.25"></line><line x1="20.923076923076923" y1="0" x2="20.923076923076923" y2="178" fill="rgb(0, 0, 0)" stroke="rgb(60, 60, 60)" stroke-width="1px" opacity="0.25"></line><line x1="41.84615384615385" y1="0" x2="41.84615384615385" y2="178" fill="rgb(0, 0, 0)" stroke="rgb(60, 60, 60)" stroke-width="1px" opacity="0.25"></line><line x1="62.769230769230774" y1="0" x2="62.769230769230774" y2="178" fill="rgb(0, 0, 0)" stroke="rgb(60, 60, 60)" stroke-width="1px" opacity="0.25"></line><line x1="83.6923076923077" y1="0" x2="83.6923076923077" y2="178" fill="rgb(0, 0, 0)" stroke="rgb(60, 60, 60)" stroke-width="1px" opacity="0.25"></line><line x1="104.61538461538463" y1="0" x2="104.61538461538463" y2="178" fill="rgb(0, 0, 0)" stroke="rgb(60, 60, 60)" stroke-width="1px" opacity="0.25"></line><line x1="125.53846153846155" y1="0" x2="125.53846153846155" y2="178" fill="rgb(0, 0, 0)" stroke="rgb(60, 60, 60)" stroke-width="1px" opacity="0.25"></line><line x1="146.46153846153845" y1="0" x2="146.46153846153845" y2="178" fill="rgb(0, 0, 0)" stroke="rgb(60, 60, 60)" stroke-width="1px" opacity="0.25"></line><line x1="167.3846153846154" y1="0" x2="167.3846153846154" y2="178" fill="rgb(0, 0, 0)" stroke="rgb(60, 60, 60)" stroke-width="1px" opacity="0.25"></line><line x1="188.3076923076923" y1="0" x2="188.3076923076923" y2="178" fill="rgb(0, 0, 0)" stroke="rgb(60, 60, 60)" stroke-width="1px" opacity="0.25"></line><line x1="209.23076923076925" y1="0" x2="209.23076923076925" y2="178" fill="rgb(0, 0, 0)" stroke="rgb(60, 60, 60)" stroke-width="1px" opacity="0.25"></line><line x1="230.15384615384616" y1="0" x2="230.15384615384616" y2="178" fill="rgb(0, 0, 0)" stroke="rgb(60, 60, 60)" stroke-width="1px" opacity="0.25"></line><line x1="251.0769230769231" y1="0" x2="251.0769230769231" y2="178" fill="rgb(0, 0, 0)" stroke="rgb(60, 60, 60)" stroke-width="1px" opacity="0.25"></line><line x1="272" y1="0" x2="272" y2="178" fill="rgb(0, 0, 0)" stroke="rgb(60, 60, 60)" stroke-width="1px" opacity="0.25"></line></g><g><line x1="0" y1="178" x2="272" y2="178" fill="rgb(0, 0, 0)" stroke="rgb(60, 60, 60)" stroke-width="1px" opacity="0.25"></line><line x1="0" y1="160.2" x2="272" y2="160.2" fill="rgb(0, 0, 0)" stroke="rgb(60, 60, 60)" stroke-width="1px" opacity="0.25"></line><line x1="0" y1="142.39999999999995" x2="272" y2="142.39999999999995" fill="rgb(0, 0, 0)" stroke="rgb(60, 60, 60)" stroke-width="1px" opacity="0.25"></line><line x1="0" y1="124.59999999999994" x2="272" y2="124.59999999999994" fill="rgb(0, 0, 0)" stroke="rgb(60, 60, 60)" stroke-width="1px" opacity="0.25"></line><line x1="0" y1="106.79999999999991" x2="272" y2="106.79999999999991" fill="rgb(0, 0, 0)" stroke="rgb(60, 60, 60)" stroke-width="1px" opacity="0.25"></line><line x1="0" y1="88.9999999999999" x2="272" y2="88.9999999999999" fill="rgb(0, 0, 0)" stroke="rgb(60, 60, 60)" stroke-width="1px" opacity="0.25"></line><line x1="0" y1="71.20000000000009" x2="272" y2="71.20000000000009" fill="rgb(0, 0, 0)" stroke="rgb(60, 60, 60)" stroke-width="1px" opacity="0.25"></line><line x1="0" y1="53.40000000000006" x2="272" y2="53.40000000000006" fill="rgb(0, 0, 0)" stroke="rgb(60, 60, 60)" stroke-width="1px" opacity="0.25"></line><line x1="0" y1="35.60000000000002" x2="272" y2="35.60000000000002" fill="rgb(0, 0, 0)" stroke="rgb(60, 60, 60)" stroke-width="1px" opacity="0.25"></line><line x1="0" y1="17.80000000000001" x2="272" y2="17.80000000000001" fill="rgb(0, 0, 0)" stroke="rgb(60, 60, 60)" stroke-width="1px" opacity="0.25"></line><line x1="0" y1="0" x2="272" y2="0" fill="rgb(0, 0, 0)" stroke="rgb(60, 60, 60)" stroke-width="1px" opacity="0.25"></line></g></g></g><g><g><line x1="0" y1="1085.8000000000002" x2="272" y2="1085.8000000000002" fill="rgb(0, 0, 0)" stroke="rgb(153, 153, 153)" stroke-width="1.5px"></line></g></g><g><g><line x1="20.923076923076923" y1="0" x2="20.923076923076923" y2="178" fill="rgb(0, 0, 0)" stroke="rgb(153, 153, 153)" stroke-width="1.5px"></line></g></g><g><g><g><g><g><path style="fill: none;" stroke="rgb(255, 112, 67)" stroke-width="2px" d="M21.96923076923077,112.7333064556122L23.015384615384615,275.8999832898379L29.292307692307695,194.13562954427198L30.33846153846154,122.88330144932712L31.384615384615387,118.79860485351406L32.43076923076923,125.89154274398925L33.47692307692308,130.1308004497151L34.52307692307692,123.16270203194313L35.56923076923077,128.4884415524533L36.61538461538461,84.19222053807475L37.66153846153846,67.12386689557778L38.707692307692305,66.38086839519536L39.753846153846155,84.92372683126149L40.8,67.5665281638395L41.84615384615385,85.63390005229091L42.89230769230769,58.499727814974605L43.93846153846154,61.20654633926594L44.98461538461538,72.32401390402052L46.03076923076923,50.51428802421162L47.07692307692307,103.88206240075391L48.12307692307692,59.95582125512307L49.169230769230765,90.56017093836098L50.21538461538462,203.85616789358278L53.353846153846156,188.23665542358165L54.400000000000006,158.03531343277135L55.44615384615385,149.40783450971364L56.4923076923077,153.72471440983426L57.53846153846154,99.35481073584069L58.58461538461539,85.71956032353924L59.63076923076923,58.551719050588275L60.67692307692308,42.25101439442247L61.723076923076924,32.47059163946071L62.769230769230774,17.10901370795395L63.815384615384616,7.892066962192104L64.86153846153846,30.841914211033867L65.9076923076923,25.625131549711057L66.95384615384616,22.495061953881674L68,30.1103869160101L69.04615384615384,15.69289089351875L70.09230769230768,35.522408559527776L71.13846153846154,56.913443438656614L72.18461538461538,60.25474008591354L73.23076923076923,62.25951807423877L74.27692307692307,72.95570914705472L75.32307692307693,98.36007235033692L76.36923076923077,85.12271743285343L77.41538461538461,86.67362876217344L78.46153846153845,59.12416028188383L79.50769230769231,52.0878459120169L80.55384615384615,47.86605729009858L81.6,64.31963267652101L82.64615384615384,36.218438350722266L83.6923076923077,66.82438559267995L84.73846153846154,75.694629658068L85.78461538461538,100.00342465687122L86.83076923076922,95.60205309658232L87.87692307692308,102.45455444019458L88.92307692307692,106.5660552463617L89.96923076923076,99.53963145027662L91.0153846153846,95.32377717262573L92.06153846153846,92.79426460603516L93.1076923076923,81.78323278629581L94.15384615384615,75.17661369445185L95.19999999999999,71.21264223934563L96.24615384615385,78.3275836460671L97.29230769230769,82.59654849009998L98.33846153846153,66.17127883694954L99.38461538461537,65.80944132484433L100.43076923076924,56.09901453779604L101.47692307692307,88.24605558470765L102.52307692307693,88.54763165328418L103.56923076923076,69.74192873485991L104.61538461538463,86.93847982316075L105.66153846153847,68.77643763678584L106.70769230769231,67.3725366047461L107.75384615384615,57.03687170573711L108.80000000000001,60.328797046116904L109.84615384615385,62.303952250344665L110.8923076923077,53.99572109309608L111.93846153846154,58.504106678532125L112.9846153846154,61.20913802979376L114.03076923076924,62.832156840550894L115.07692307692308,73.29929240679024L116.12307692307692,79.57957374653394L117.16923076923078,83.34774255037992L118.21538461538462,66.62199527311728L119.26153846153846,56.58654690675981L120.3076923076923,69.55192644651572L121.35384615384616,77.3311541703691L122.4,63.01204224511075L123.44615384615385,44.92720837166377L124.49230769230769,43.56967476588764L125.53846153846155,80.72845172156259L126.58461538461539,55.55705405753484L127.63076923076923,68.9342307369807L128.67692307692306,48.48052146678563L129.72307692307692,55.19498690274601L130.76923076923077,49.73034188453701L131.8153846153846,46.4515548736116L132.86153846153846,44.48428266705622L133.90769230769232,43.3039193431232L134.95384615384614,33.102334630471006L136,55.46139908074217L137.04615384615386,49.89018919133474L138.09230769230768,46.54746325769037L139.1384615384615,54.03515197728882L140.18461538461537,87.00773804840328L141.23076923076925,97.29796541128684L142.27692307692308,84.48545326944674L143.32307692307694,76.79794598434265L144.36923076923077,62.692117333495105L145.41538461538462,54.22862014298643L146.46153846153845,68.13717038825145L147.5076923076923,76.48230053541054L148.55384615384614,71.99605434392089L149.60000000000002,69.30430662902701L150.64615384615385,58.195933720305604L151.6923076923077,42.037543256780395L152.73846153846154,32.34250897866548L153.7846153846154,45.51217940987377L154.83076923076922,43.92065738881365L155.87692307692308,42.96574417617751L156.9230769230769,51.88612052838103L157.9692307692308,76.22499489927345L159.01538461538462,71.84167096223862L160.06153846153848,59.71835232023254L161.1076923076923,61.93768541481417L162.15384615384616,63.269285271563135L163.2,64.06824518561248L164.24615384615385,55.054296854256975L165.29230769230767,78.1259006947991L166.33846153846156,72.9822144395541L167.3846153846154,69.89600268640706L168.43076923076924,68.04427563451883L169.47692307692307,76.42656368317105L170.52307692307693,100.4425850719327L171.56923076923076,105.35887362540461L172.6153846153846,98.81532247770232L173.66153846153844,75.90254322951075L174.70769230769233,62.15487568059598L175.75384615384615,53.90627515124707L176.8,58.450439113422874L177.84615384615384,42.190246492650886L178.8923076923077,41.92749763847999L179.93846153846152,51.263172605762534L180.98461538461538,47.371253306346915L182.0307692307692,54.529426006482794L183.0769230769231,58.824329626564236L184.12307692307692,51.90794751882807L185.16923076923078,47.758118254186286L186.2153846153846,54.76154497518628L187.26153846153846,58.96360100778641L188.3076923076923,51.9915103475612L189.35384615384615,47.80825595142613L190.39999999999998,45.29830331374521L191.44615384615386,34.29896501284435L192.4923076923077,56.17937731016633L193.53846153846155,50.3209761289892L194.58461538461538,56.29925970006812L195.63076923076923,59.88622984271551L196.67692307692306,62.0384119283039L197.72307692307692,63.32972117965694L198.76923076923075,64.10450673046869L199.81538461538463,45.582687062878534L200.8615384615385,43.96296198061651L201.90769230769232,42.99112693125923L202.95384615384614,51.901350181430146L204,47.7541598517476L205.04615384615386,54.7591699337232L206.09230769230768,58.96217598290848L207.1384615384615,80.47062817198996L208.18461538461537,93.375699485439L209.23076923076925,82.13209371393805L210.27692307692308,65.89260597125227L211.32307692307694,46.65554660734841L212.36923076923077,35.11331098900612L213.41538461538462,37.681336336292986L214.46153846153845,48.71547582445041L215.5076923076923,36.34926851926727L216.55384615384614,19.43621985637236L217.60000000000002,37.768405936498L218.64615384615385,58.26104186435842L219.6923076923077,42.076608143212354L220.73846153846154,41.85931462881683L221.7846153846154,60.715587079749795L222.83076923076922,72.02935055030943L223.87692307692308,69.32428435286026L224.9230769230769,77.19456891417599L225.9692307692308,62.930091091394914L227.01538461538462,92.34470151686698L228.06153846153848,81.51349493279479L229.1076923076923,65.5214467025664L230.15384615384616,55.92621776442928L231.2,40.67571368325474L232.24615384615385,41.018777952842214L233.29230769230767,41.22461651459477L234.33846153846156,69.82809249100174L235.3846153846154,58.51020523749037L236.43076923076924,61.21279716516874L237.47692307692307,72.32767660156092L238.52307692307693,88.48992854318135L239.56923076923076,79.20063114858344L240.6153846153846,54.640361713747154L241.66153846153844,49.39756677113769L242.70769230769233,36.75852308727991L243.75384615384615,29.175096876965256L244.8,43.61173214885375L245.84615384615384,71.26036187155701L246.8923076923077,59.36956686582357L247.93846153846152,52.23508986238343L248.98461538461538,57.44772794010461L250.0307692307692,60.57531078673733L251.0769230769231,52.95853621493184L252.12307692307692,48.388471471848504L253.16923076923078,45.646432625998614L254.2153846153846,53.49453359827369L255.26153846153846,48.7100699018535L256.3076923076923,36.34602496570923L257.3538461538461,28.927598004022627L258.4,62.44988138465838L259.44615384615383,54.08327857368435L260.4923076923077,49.06331688709997L261.53846153846155,46.051339875149495L262.5846153846154,82.21745078711965L263.6307692307692,94.42379305451671L264.67692307692306,92.25427413516962L265.7230769230769,90.95256278356133L266.7692307692308,90.17153597259647L267.81538461538463,80.20959560623248L268.8615384615385,83.72575566619905L269.9076923076923,66.84880314260887L270.95384615384614,66.21595590823992L272,56.34292328783336L273.04615384615386,69.40575227515968" fill="none"></path></g></g></g></g><g opacity="0.2"><g><g><g><path style="fill: none;" stroke="rgb(255, 112, 67)" stroke-width="2px" d="M21.96923076923077,112.7333064556122L23.015384615384615,373.7999893903733L27.200000000000003,183.93334465026857L28.24615384615385,160.20003395080568L29.292307692307695,160.20003395080568L30.33846153846154,17.799957561492903L31.384615384615387,112.7333064556122L32.43076923076923,136.46661715507508L33.47692307692308,136.46661715507508L34.52307692307692,112.7333064556122L35.56923076923077,136.46661715507508L36.61538461538461,17.799957561492903L37.66153846153846,41.533374357223494L38.707692307692305,65.2666850566864L39.753846153846155,112.7333064556122L40.8,41.533374357223494L41.84615384615385,112.7333064556122L42.89230769230769,17.799957561492903L43.93846153846154,65.2666850566864L44.98461538461538,88.99999575614929L46.03076923076923,17.799957561492903L47.07692307692307,183.93334465026857L48.12307692307692,-5.933353137969988L49.169230769230765,136.46661715507508L50.21538461538462,373.7999893903733L52.307692307692314,302.6000042438508L53.353846153846156,112.7333064556122L54.400000000000006,112.7333064556122L55.44615384615385,136.46661715507508L56.4923076923077,160.20003395080568L57.53846153846154,17.799957561492903L58.58461538461539,65.2666850566864L59.63076923076923,17.799957561492903L60.67692307692308,17.799957561492903L61.723076923076924,17.799957561492903L62.769230769230774,-5.933353137969988L63.815384615384616,-5.933353137969988L64.86153846153846,65.2666850566864L65.9076923076923,17.799957561492903L66.95384615384616,17.799957561492903L68,41.533374357223494L69.04615384615384,-5.933353137969988L70.09230769230768,65.2666850566864L71.13846153846154,88.99999575614929L72.18461538461538,65.2666850566864L73.23076923076923,65.2666850566864L74.27692307692307,88.99999575614929L75.32307692307693,136.46661715507508L76.36923076923077,65.2666850566864L77.41538461538461,88.99999575614929L78.46153846153845,17.799957561492903L79.50769230769231,41.533374357223494L80.55384615384615,41.533374357223494L81.6,88.99999575614929L82.64615384615384,-5.933353137969988L83.6923076923077,112.7333064556122L84.73846153846154,88.99999575614929L85.78461538461538,136.46661715507508L86.83076923076922,88.99999575614929L87.87692307692308,112.7333064556122L88.92307692307692,112.7333064556122L89.96923076923076,88.99999575614929L91.0153846153846,88.99999575614929L92.06153846153846,88.99999575614929L93.1076923076923,65.2666850566864L94.15384615384615,65.2666850566864L95.19999999999999,65.2666850566864L96.24615384615385,88.99999575614929L97.29230769230769,88.99999575614929L98.33846153846153,41.533374357223494L99.38461538461537,65.2666850566864L100.43076923076924,41.533374357223494L101.47692307692307,136.46661715507508L102.52307692307693,88.99999575614929L103.56923076923076,41.533374357223494L104.61538461538463,112.7333064556122L105.66153846153847,41.533374357223494L106.70769230769231,65.2666850566864L107.75384615384615,41.533374357223494L108.80000000000001,65.2666850566864L109.84615384615385,65.2666850566864L110.8923076923077,41.533374357223494L111.93846153846154,65.2666850566864L112.9846153846154,65.2666850566864L114.03076923076924,65.2666850566864L115.07692307692308,88.99999575614929L116.12307692307692,88.99999575614929L117.16923076923078,88.99999575614929L118.21538461538462,41.533374357223494L119.26153846153846,41.533374357223494L120.3076923076923,88.99999575614929L121.35384615384616,88.99999575614929L122.4,41.533374357223494L123.44615384615385,17.799957561492903L124.49230769230769,41.533374357223494L125.53846153846155,136.46661715507508L126.58461538461539,17.799957561492903L127.63076923076923,88.99999575614929L128.67692307692306,17.799957561492903L129.72307692307692,65.2666850566864L130.76923076923077,41.533374357223494L131.8153846153846,41.533374357223494L132.86153846153846,41.533374357223494L133.90769230769232,41.533374357223494L134.95384615384614,17.799957561492903L136,88.99999575614929L137.04615384615386,41.533374357223494L138.09230769230768,41.533374357223494L139.1384615384615,65.2666850566864L140.18461538461537,136.46661715507508L141.23076923076925,112.7333064556122L142.27692307692308,65.2666850566864L143.32307692307694,65.2666850566864L144.36923076923077,41.533374357223494L145.41538461538462,41.533374357223494L146.46153846153845,88.99999575614929L147.5076923076923,88.99999575614929L148.55384615384614,65.2666850566864L149.60000000000002,65.2666850566864L150.64615384615385,41.533374357223494L151.6923076923077,17.799957561492903L152.73846153846154,17.799957561492903L153.7846153846154,65.2666850566864L154.83076923076922,41.533374357223494L155.87692307692308,41.533374357223494L156.9230769230769,65.2666850566864L157.9692307692308,112.7333064556122L159.01538461538462,65.2666850566864L160.06153846153848,41.533374357223494L161.1076923076923,65.2666850566864L162.15384615384616,65.2666850566864L163.2,65.2666850566864L164.24615384615385,41.533374357223494L165.29230769230767,112.7333064556122L166.33846153846156,65.2666850566864L167.3846153846154,65.2666850566864L168.43076923076924,65.2666850566864L169.47692307692307,88.99999575614929L170.52307692307693,136.46661715507508L171.56923076923076,112.7333064556122L172.6153846153846,88.99999575614929L173.66153846153844,41.533374357223494L174.70769230769233,41.533374357223494L175.75384615384615,41.533374357223494L176.8,65.2666850566864L177.84615384615384,17.799957561492903L178.8923076923077,41.533374357223494L179.93846153846152,65.2666850566864L180.98461538461538,41.533374357223494L182.0307692307692,65.2666850566864L183.0769230769231,65.2666850566864L184.12307692307692,41.533374357223494L185.16923076923078,41.533374357223494L186.2153846153846,65.2666850566864L187.26153846153846,65.2666850566864L188.3076923076923,41.533374357223494L189.35384615384615,41.533374357223494L190.39999999999998,41.533374357223494L191.44615384615386,17.799957561492903L192.4923076923077,88.99999575614929L193.53846153846155,41.533374357223494L194.58461538461538,65.2666850566864L195.63076923076923,65.2666850566864L196.67692307692306,65.2666850566864L197.72307692307692,65.2666850566864L198.76923076923075,65.2666850566864L199.81538461538463,17.799957561492903L200.8615384615385,41.533374357223494L201.90769230769232,41.533374357223494L202.95384615384614,65.2666850566864L204,41.533374357223494L205.04615384615386,65.2666850566864L206.09230769230768,65.2666850566864L207.1384615384615,112.7333064556122L208.18461538461537,112.7333064556122L209.23076923076925,65.2666850566864L210.27692307692308,41.533374357223494L211.32307692307694,17.799957561492903L212.36923076923077,17.799957561492903L213.41538461538462,41.533374357223494L214.46153846153845,65.2666850566864L215.5076923076923,17.799957561492903L216.55384615384614,-5.933353137969988L217.60000000000002,65.2666850566864L218.64615384615385,88.99999575614929L219.6923076923077,17.799957561492903L220.73846153846154,41.533374357223494L221.7846153846154,88.99999575614929L222.83076923076922,88.99999575614929L223.87692307692308,65.2666850566864L224.9230769230769,88.99999575614929L225.9692307692308,41.533374357223494L227.01538461538462,136.46661715507508L228.06153846153848,65.2666850566864L229.1076923076923,41.533374357223494L230.15384615384616,41.533374357223494L231.2,17.799957561492903L232.24615384615385,41.533374357223494L233.29230769230767,41.533374357223494L234.33846153846156,112.7333064556122L235.3846153846154,41.533374357223494L236.43076923076924,65.2666850566864L237.47692307692307,88.99999575614929L238.52307692307693,112.7333064556122L239.56923076923076,65.2666850566864L240.6153846153846,17.799957561492903L241.66153846153844,41.533374357223494L242.70769230769233,17.799957561492903L243.75384615384615,17.799957561492903L244.8,65.2666850566864L245.84615384615384,112.7333064556122L246.8923076923077,41.533374357223494L247.93846153846152,41.533374357223494L248.98461538461538,65.2666850566864L250.0307692307692,65.2666850566864L251.0769230769231,41.533374357223494L252.12307692307692,41.533374357223494L253.16923076923078,41.533374357223494L254.2153846153846,65.2666850566864L255.26153846153846,41.533374357223494L256.3076923076923,17.799957561492903L257.3538461538461,17.799957561492903L258.4,112.7333064556122L259.44615384615383,41.533374357223494L260.4923076923077,41.533374357223494L261.53846153846155,41.533374357223494L262.5846153846154,136.46661715507508L263.6307692307692,112.7333064556122L264.67692307692306,88.99999575614929L265.7230769230769,88.99999575614929L266.7692307692308,88.99999575614929L267.81538461538463,65.2666850566864L268.8615384615385,88.99999575614929L269.9076923076923,41.533374357223494L270.95384615384614,65.2666850566864L272,41.533374357223494L273.04615384615386,88.99999575614929" fill="none"></path></g></g></g></g></g></g><g transform="translate(58, 178)" clip-path="url(#clip_1)"><clipPath id="clip_1"><rect width="272" height="22"></rect></clipPath><g><g><line x1="0" y1="0" x2="0" y2="5" style="visibility: inherit;" fill="rgb(0, 0, 0)" stroke="rgb(204, 204, 204)" stroke-width="1px"></line><line x1="20.923076923076923" y1="0" x2="20.923076923076923" y2="5" style="visibility: inherit;" fill="rgb(0, 0, 0)" stroke="rgb(204, 204, 204)" stroke-width="1px"></line><line x1="41.84615384615385" y1="0" x2="41.84615384615385" y2="5" style="visibility: inherit;" fill="rgb(0, 0, 0)" stroke="rgb(204, 204, 204)" stroke-width="1px"></line><line x1="62.769230769230774" y1="0" x2="62.769230769230774" y2="5" style="visibility: inherit;" fill="rgb(0, 0, 0)" stroke="rgb(204, 204, 204)" stroke-width="1px"></line><line x1="83.6923076923077" y1="0" x2="83.6923076923077" y2="5" style="visibility: inherit;" fill="rgb(0, 0, 0)" stroke="rgb(204, 204, 204)" stroke-width="1px"></line><line x1="104.61538461538463" y1="0" x2="104.61538461538463" y2="5" style="visibility: inherit;" fill="rgb(0, 0, 0)" stroke="rgb(204, 204, 204)" stroke-width="1px"></line><line x1="125.53846153846155" y1="0" x2="125.53846153846155" y2="5" style="visibility: inherit;" fill="rgb(0, 0, 0)" stroke="rgb(204, 204, 204)" stroke-width="1px"></line><line x1="146.46153846153845" y1="0" x2="146.46153846153845" y2="5" style="visibility: inherit;" fill="rgb(0, 0, 0)" stroke="rgb(204, 204, 204)" stroke-width="1px"></line><line x1="167.3846153846154" y1="0" x2="167.3846153846154" y2="5" style="visibility: inherit;" fill="rgb(0, 0, 0)" stroke="rgb(204, 204, 204)" stroke-width="1px"></line><line x1="188.3076923076923" y1="0" x2="188.3076923076923" y2="5" style="visibility: inherit;" fill="rgb(0, 0, 0)" stroke="rgb(204, 204, 204)" stroke-width="1px"></line><line x1="209.23076923076925" y1="0" x2="209.23076923076925" y2="5" style="visibility: inherit;" fill="rgb(0, 0, 0)" stroke="rgb(204, 204, 204)" stroke-width="1px"></line><line x1="230.15384615384616" y1="0" x2="230.15384615384616" y2="5" style="visibility: inherit;" fill="rgb(0, 0, 0)" stroke="rgb(204, 204, 204)" stroke-width="1px"></line><line x1="251.0769230769231" y1="0" x2="251.0769230769231" y2="5" style="visibility: inherit;" fill="rgb(0, 0, 0)" stroke="rgb(204, 204, 204)" stroke-width="1px"></line><line x1="272" y1="0" x2="272" y2="5" style="visibility: inherit;" fill="rgb(0, 0, 0)" stroke="rgb(204, 204, 204)" stroke-width="1px"></line></g><g transform="translate(0, 8)"><text x="0" y="0" dx="0em" dy="0.95em" style="text-anchor: middle; visibility: hidden; font-family: &quot;Helvetica Neue&quot;, sans-serif; font-size: 12px; font-weight: 200;" fill="rgb(50, 49, 63)" stroke="none" stroke-width="1px">-20</text><text x="20.923076923076923" y="0" dx="0em" dy="0.95em" style="text-anchor: middle; visibility: inherit; font-family: &quot;Helvetica Neue&quot;, sans-serif; font-size: 12px; font-weight: 200;" fill="rgb(50, 49, 63)" stroke="none" stroke-width="1px">0</text><text x="41.84615384615385" y="0" dx="0em" dy="0.95em" style="text-anchor: middle; visibility: hidden; font-family: &quot;Helvetica Neue&quot;, sans-serif; font-size: 12px; font-weight: 200;" fill="rgb(50, 49, 63)" stroke="none" stroke-width="1px">20</text><text x="62.769230769230774" y="0" dx="0em" dy="0.95em" style="text-anchor: middle; visibility: inherit; font-family: &quot;Helvetica Neue&quot;, sans-serif; font-size: 12px; font-weight: 200;" fill="rgb(50, 49, 63)" stroke="none" stroke-width="1px">40</text><text x="83.6923076923077" y="0" dx="0em" dy="0.95em" style="text-anchor: middle; visibility: hidden; font-family: &quot;Helvetica Neue&quot;, sans-serif; font-size: 12px; font-weight: 200;" fill="rgb(50, 49, 63)" stroke="none" stroke-width="1px">60</text><text x="104.61538461538463" y="0" dx="0em" dy="0.95em" style="text-anchor: middle; visibility: inherit; font-family: &quot;Helvetica Neue&quot;, sans-serif; font-size: 12px; font-weight: 200;" fill="rgb(50, 49, 63)" stroke="none" stroke-width="1px">80</text><text x="125.53846153846155" y="0" dx="0em" dy="0.95em" style="text-anchor: middle; visibility: hidden; font-family: &quot;Helvetica Neue&quot;, sans-serif; font-size: 12px; font-weight: 200;" fill="rgb(50, 49, 63)" stroke="none" stroke-width="1px">100</text><text x="146.46153846153845" y="0" dx="0em" dy="0.95em" style="text-anchor: middle; visibility: inherit; font-family: &quot;Helvetica Neue&quot;, sans-serif; font-size: 12px; font-weight: 200;" fill="rgb(50, 49, 63)" stroke="none" stroke-width="1px">120</text><text x="167.3846153846154" y="0" dx="0em" dy="0.95em" style="text-anchor: middle; visibility: hidden; font-family: &quot;Helvetica Neue&quot;, sans-serif; font-size: 12px; font-weight: 200;" fill="rgb(50, 49, 63)" stroke="none" stroke-width="1px">140</text><text x="188.3076923076923" y="0" dx="0em" dy="0.95em" style="text-anchor: middle; visibility: inherit; font-family: &quot;Helvetica Neue&quot;, sans-serif; font-size: 12px; font-weight: 200;" fill="rgb(50, 49, 63)" stroke="none" stroke-width="1px">160</text><text x="209.23076923076925" y="0" dx="0em" dy="0.95em" style="text-anchor: middle; visibility: hidden; font-family: &quot;Helvetica Neue&quot;, sans-serif; font-size: 12px; font-weight: 200;" fill="rgb(50, 49, 63)" stroke="none" stroke-width="1px">180</text><text x="230.15384615384616" y="0" dx="0em" dy="0.95em" style="text-anchor: middle; visibility: inherit; font-family: &quot;Helvetica Neue&quot;, sans-serif; font-size: 12px; font-weight: 200;" fill="rgb(50, 49, 63)" stroke="none" stroke-width="1px">200</text><text x="251.0769230769231" y="0" dx="0em" dy="0.95em" style="text-anchor: middle; visibility: hidden; font-family: &quot;Helvetica Neue&quot;, sans-serif; font-size: 12px; font-weight: 200;" fill="rgb(50, 49, 63)" stroke="none" stroke-width="1px">220</text><text x="272" y="0" dx="0em" dy="0.95em" style="text-anchor: middle; visibility: hidden; font-family: &quot;Helvetica Neue&quot;, sans-serif; font-size: 12px; font-weight: 200;" fill="rgb(50, 49, 63)" stroke="none" stroke-width="1px">240</text></g><line x1="0" y1="0" x2="272" y2="0" fill="rgb(0, 0, 0)" stroke="rgb(204, 204, 204)" stroke-width="1px"></line></g></g></g></g></svg>