<svg viewBox="0 0 330 200" xmlns="http://www.w3.org/2000/svg"><g><g><g><g><g><line x1="58" y1="178" x2="53" y2="178" style="visibility: inherit;" fill="rgb(0, 0, 0)" stroke="rgb(204, 204, 204)" stroke-width="1px"></line><line x1="58" y1="165.28571428571428" x2="53" y2="165.28571428571428" style="visibility: inherit;" fill="rgb(0, 0, 0)" stroke="rgb(204, 204, 204)" stroke-width="1px"></line><line x1="58" y1="152.57142857142856" x2="53" y2="152.57142857142856" style="visibility: inherit;" fill="rgb(0, 0, 0)" stroke="rgb(204, 204, 204)" stroke-width="1px"></line><line x1="58" y1="139.85714285714283" x2="53" y2="139.85714285714283" style="visibility: inherit;" fill="rgb(0, 0, 0)" stroke="rgb(204, 204, 204)" stroke-width="1px"></line><line x1="58" y1="127.14285714285711" x2="53" y2="127.14285714285711" style="visibility: inherit;" fill="rgb(0, 0, 0)" stroke="rgb(204, 204, 204)" stroke-width="1px"></line><line x1="58" y1="114.42857142857139" x2="53" y2="114.42857142857139" style="visibility: inherit;" fill="rgb(0, 0, 0)" stroke="rgb(204, 204, 204)" stroke-width="1px"></line><line x1="58" y1="101.71428571428565" x2="53" y2="101.71428571428565" style="visibility: inherit;" fill="rgb(0, 0, 0)" stroke="rgb(204, 204, 204)" stroke-width="1px"></line><line x1="58" y1="89.00000000000007" x2="53" y2="89.00000000000007" style="visibility: inherit;" fill="rgb(0, 0, 0)" stroke="rgb(204, 204, 204)" stroke-width="1px"></line><line x1="58" y1="76.28571428571435" x2="53" y2="76.28571428571435" style="visibility: inherit;" fill="rgb(0, 0, 0)" stroke="rgb(204, 204, 204)" stroke-width="1px"></line><line x1="58" y1="63.571428571428626" x2="53" y2="63.571428571428626" style="visibility: inherit;" fill="rgb(0, 0, 0)" stroke="rgb(204, 204, 204)" stroke-width="1px"></line><line x1="58" y1="50.85714285714289" x2="53" y2="50.85714285714289" style="visibility: inherit;" fill="rgb(0, 0, 0)" stroke="rgb(204, 204, 204)" stroke-width="1px"></line><line x1="58" y1="38.14285714285717" x2="53" y2="38.14285714285717" style="visibility: inherit;" fill="rgb(0, 0, 0)" stroke="rgb(204, 204, 204)" stroke-width="1px"></line><line x1="58" y1="25.428571428571445" x2="53" y2="25.428571428571445" style="visibility: inherit;" fill="rgb(0, 0, 0)" stroke="rgb(204, 204, 204)" stroke-width="1px"></line><line x1="58" y1="12.714285714285722" x2="53" y2="12.714285714285722" style="visibility: inherit;" fill="rgb(0, 0, 0)" stroke="rgb(204, 204, 204)" stroke-width="1px"></line><line x1="58" y1="0" x2="53" y2="0" style="visibility: inherit;" fill="rgb(0, 0, 0)" stroke="rgb(204, 204, 204)" stroke-width="1px"></line></g><g transform="translate(48, 0)"><text x="0" y="178" dx="0em" dy="0.3em" style="text-anchor: end; visibility: hidden; font-family: &quot;Helvetica Neue&quot;, sans-serif; font-size: 12px; font-weight: 200;" fill="rgb(50, 49, 63)" stroke="none" stroke-width="1px">0.5</text><text x="0" y="165.28571428571428" dx="0em" dy="0.3em" style="text-anchor: end; visibility: inherit; font-family: &quot;Helvetica Neue&quot;, sans-serif; font-size: 12px; font-weight: 200;" fill="rgb(50, 49, 63)" stroke="none" stroke-width="1px">0.51</text><text x="0" y="152.57142857142856" dx="0em" dy="0.3em" style="text-anchor: end; visibility: hidden; font-family: &quot;Helvetica Neue&quot;, sans-serif; font-size: 12px; font-weight: 200;" fill="rgb(50, 49, 63)" stroke="none" stroke-width="1px">0.52</text><text x="0" y="139.85714285714283" dx="0em" dy="0.3em" style="text-anchor: end; visibility: inherit; font-family: &quot;Helvetica Neue&quot;, sans-serif; font-size: 12px; font-weight: 200;" fill="rgb(50, 49, 63)" stroke="none" stroke-width="1px">0.53</text><text x="0" y="127.14285714285711" dx="0em" dy="0.3em" style="text-anchor: end; visibility: hidden; font-family: &quot;Helvetica Neue&quot;, sans-serif; font-size: 12px; font-weight: 200;" fill="rgb(50, 49, 63)" stroke="none" stroke-width="1px">0.54</text><text x="0" y="114.42857142857139" dx="0em" dy="0.3em" style="text-anchor: end; visibility: inherit; font-family: &quot;Helvetica Neue&quot;, sans-serif; font-size: 12px; font-weight: 200;" fill="rgb(50, 49, 63)" stroke="none" stroke-width="1px">0.55</text><text x="0" y="101.71428571428565" dx="0em" dy="0.3em" style="text-anchor: end; visibility: hidden; font-family: &quot;Helvetica Neue&quot;, sans-serif; font-size: 12px; font-weight: 200;" fill="rgb(50, 49, 63)" stroke="none" stroke-width="1px">0.56</text><text x="0" y="89.00000000000007" dx="0em" dy="0.3em" style="text-anchor: end; visibility: inherit; font-family: &quot;Helvetica Neue&quot;, sans-serif; font-size: 12px; font-weight: 200;" fill="rgb(50, 49, 63)" stroke="none" stroke-width="1px">0.57</text><text x="0" y="76.28571428571435" dx="0em" dy="0.3em" style="text-anchor: end; visibility: hidden; font-family: &quot;Helvetica Neue&quot;, sans-serif; font-size: 12px; font-weight: 200;" fill="rgb(50, 49, 63)" stroke="none" stroke-width="1px">0.58</text><text x="0" y="63.571428571428626" dx="0em" dy="0.3em" style="text-anchor: end; visibility: inherit; font-family: &quot;Helvetica Neue&quot;, sans-serif; font-size: 12px; font-weight: 200;" fill="rgb(50, 49, 63)" stroke="none" stroke-width="1px">0.59</text><text x="0" y="50.85714285714289" dx="0em" dy="0.3em" style="text-anchor: end; visibility: hidden; font-family: &quot;Helvetica Neue&quot;, sans-serif; font-size: 12px; font-weight: 200;" fill="rgb(50, 49, 63)" stroke="none" stroke-width="1px">0.6</text><text x="0" y="38.14285714285717" dx="0em" dy="0.3em" style="text-anchor: end; visibility: inherit; font-family: &quot;Helvetica Neue&quot;, sans-serif; font-size: 12px; font-weight: 200;" fill="rgb(50, 49, 63)" stroke="none" stroke-width="1px">0.61</text><text x="0" y="25.428571428571445" dx="0em" dy="0.3em" style="text-anchor: end; visibility: hidden; font-family: &quot;Helvetica Neue&quot;, sans-serif; font-size: 12px; font-weight: 200;" fill="rgb(50, 49, 63)" stroke="none" stroke-width="1px">0.62</text><text x="0" y="12.714285714285722" dx="0em" dy="0.3em" style="text-anchor: end; visibility: inherit; font-family: &quot;Helvetica Neue&quot;, sans-serif; font-size: 12px; font-weight: 200;" fill="rgb(50, 49, 63)" stroke="none" stroke-width="1px">0.63</text><text x="0" y="0" dx="0em" dy="0.3em" style="text-anchor: end; visibility: hidden; font-family: &quot;Helvetica Neue&quot;, sans-serif; font-size: 12px; font-weight: 200;" fill="rgb(50, 49, 63)" stroke="none" stroke-width="1px">0.64</text></g><line x1="58" y1="0" x2="58" y2="178" fill="rgb(0, 0, 0)" stroke="rgb(204, 204, 204)" stroke-width="1px"></line></g></g><g transform="translate(58, 0)" clip-path="url(#clip_0)"><clipPath id="clip_0"><rect width="272" height="178"></rect></clipPath><g><g><g><line x1="0" y1="0" x2="0" y2="178" fill="rgb(0, 0, 0)" stroke="rgb(60, 60, 60)" stroke-width="1px" opacity="0.25"></line><line x1="34" y1="0" x2="34" y2="178" fill="rgb(0, 0, 0)" stroke="rgb(60, 60, 60)" stroke-width="1px" opacity="0.25"></line><line x1="68" y1="0" x2="68" y2="178" fill="rgb(0, 0, 0)" stroke="rgb(60, 60, 60)" stroke-width="1px" opacity="0.25"></line><line x1="102" y1="0" x2="102" y2="178" fill="rgb(0, 0, 0)" stroke="rgb(60, 60, 60)" stroke-width="1px" opacity="0.25"></line><line x1="136" y1="0" x2="136" y2="178" fill="rgb(0, 0, 0)" stroke="rgb(60, 60, 60)" stroke-width="1px" opacity="0.25"></line><line x1="170" y1="0" x2="170" y2="178" fill="rgb(0, 0, 0)" stroke="rgb(60, 60, 60)" stroke-width="1px" opacity="0.25"></line><line x1="204" y1="0" x2="204" y2="178" fill="rgb(0, 0, 0)" stroke="rgb(60, 60, 60)" stroke-width="1px" opacity="0.25"></line><line x1="238" y1="0" x2="238" y2="178" fill="rgb(0, 0, 0)" stroke="rgb(60, 60, 60)" stroke-width="1px" opacity="0.25"></line><line x1="272" y1="0" x2="272" y2="178" fill="rgb(0, 0, 0)" stroke="rgb(60, 60, 60)" stroke-width="1px" opacity="0.25"></line></g><g><line x1="0" y1="178" x2="272" y2="178" fill="rgb(0, 0, 0)" stroke="rgb(60, 60, 60)" stroke-width="1px" opacity="0.25"></line><line x1="0" y1="165.28571428571428" x2="272" y2="165.28571428571428" fill="rgb(0, 0, 0)" stroke="rgb(60, 60, 60)" stroke-width="1px" opacity="0.25"></line><line x1="0" y1="152.57142857142856" x2="272" y2="152.57142857142856" fill="rgb(0, 0, 0)" stroke="rgb(60, 60, 60)" stroke-width="1px" opacity="0.25"></line><line x1="0" y1="139.85714285714283" x2="272" y2="139.85714285714283" fill="rgb(0, 0, 0)" stroke="rgb(60, 60, 60)" stroke-width="1px" opacity="0.25"></line><line x1="0" y1="127.14285714285711" x2="272" y2="127.14285714285711" fill="rgb(0, 0, 0)" stroke="rgb(60, 60, 60)" stroke-width="1px" opacity="0.25"></line><line x1="0" y1="114.42857142857139" x2="272" y2="114.42857142857139" fill="rgb(0, 0, 0)" stroke="rgb(60, 60, 60)" stroke-width="1px" opacity="0.25"></line><line x1="0" y1="101.71428571428565" x2="272" y2="101.71428571428565" fill="rgb(0, 0, 0)" stroke="rgb(60, 60, 60)" stroke-width="1px" opacity="0.25"></line><line x1="0" y1="89.00000000000007" x2="272" y2="89.00000000000007" fill="rgb(0, 0, 0)" stroke="rgb(60, 60, 60)" stroke-width="1px" opacity="0.25"></line><line x1="0" y1="76.28571428571435" x2="272" y2="76.28571428571435" fill="rgb(0, 0, 0)" stroke="rgb(60, 60, 60)" stroke-width="1px" opacity="0.25"></line><line x1="0" y1="63.571428571428626" x2="272" y2="63.571428571428626" fill="rgb(0, 0, 0)" stroke="rgb(60, 60, 60)" stroke-width="1px" opacity="0.25"></line><line x1="0" y1="50.85714285714289" x2="272" y2="50.85714285714289" fill="rgb(0, 0, 0)" stroke="rgb(60, 60, 60)" stroke-width="1px" opacity="0.25"></line><line x1="0" y1="38.14285714285717" x2="272" y2="38.14285714285717" fill="rgb(0, 0, 0)" stroke="rgb(60, 60, 60)" stroke-width="1px" opacity="0.25"></line><line x1="0" y1="25.428571428571445" x2="272" y2="25.428571428571445" fill="rgb(0, 0, 0)" stroke="rgb(60, 60, 60)" stroke-width="1px" opacity="0.25"></line><line x1="0" y1="12.714285714285722" x2="272" y2="12.714285714285722" fill="rgb(0, 0, 0)" stroke="rgb(60, 60, 60)" stroke-width="1px" opacity="0.25"></line><line x1="0" y1="0" x2="272" y2="0" fill="rgb(0, 0, 0)" stroke="rgb(60, 60, 60)" stroke-width="1px" opacity="0.25"></line></g></g></g><g><g><line x1="0" y1="813.7142857142857" x2="272" y2="813.7142857142857" fill="rgb(0, 0, 0)" stroke="rgb(153, 153, 153)" stroke-width="1.5px"></line></g></g><g><g><line x1="34" y1="0" x2="34" y2="178" fill="rgb(0, 0, 0)" stroke="rgb(153, 153, 153)" stroke-width="1.5px"></line></g></g><g><g><g><g><g><path stroke="rgb(255, 112, 67)" stroke-width="2px" d="M34.68,305.1428495645523L35.36,146.21426392665933L36.04,97.56265607832474L36.72,76.09871143935364L37.400000000000006,65.15075910788677L38.080000000000005,59.15349198753434L38.76,62.71563360502505L39.44,57.89119310605331L40.12,61.898925820498576L40.8,57.455331796032795L41.48,41.195160845415245L42.16,38.27263390566736L42.84,50.10285267507027L43.52,36.83226540956579L44.2,35.660707500239056L44.88,28.175265964120456L45.56,23.685352775462377L46.24,34.555160620060605L46.919999999999995,41.076338763947774L47.599999999999994,38.20759747607892L48.28,36.48641983169537L48.96,49.01583805827573L49.64,36.1903547375523L50.32,42.05708565890913L51,72.70099750418723L51.68,63.96342861538581L52.36,58.720896821120206L53.04,48.79443110032386L53.72,36.05760715653335L54.400000000000006,55.539335759875385L55.080000000000005,53.66644622506641L55.76,66.10463588400646L56.44,60.005626256733535L57.12,56.346220666763486L57.8,54.150577379882975L58.48,59.61416772920458L59.16,62.89232190273111L59.84,64.85921439386306L60.52,66.03934988386808L61.2,66.74743117618837L61.88,67.17227995097497L62.56,67.4271892156287L63.24,67.58013477434235L63.919999999999995,67.67190210954236L64.6,67.72696251065203L65.28,67.75999875131427L65.96,67.77982049571028L66.64,67.79171354234742L67.32,67.79884937032953L68,67.80313086711875L68.68,74.58664567935747L69.36,78.65675456667964L70.04,81.09881989906516L70.72,75.78311318435462L71.4,72.59368915553169L72.08,70.68003473823927L72.76,76.31278800199806L73.44,79.6924399602525L74.12,81.72023113520483L74.80000000000001,82.93690584017634L75.48,83.66691066315899L76.16000000000001,77.32396764281637L76.83999999999999,73.51820183061088L77.52,71.23474234328762L78.19999999999999,76.64561256502584L78.88,73.11118878393641L79.56,77.77148042941518L80.24,80.56765541670241L80.92,82.24536040907475L81.6,76.4710374903657L82.28,73.0064437391404L82.96,70.92768748840514L83.64,76.46137965209623L84.32,73.0006490361788L85,77.70515658076054L85.68,73.74691519337733L86.36,71.3719703609474L87.04,63.16602723413786L87.72,58.242461358052154L88.4,62.06929805975227L89.08,64.36540008077235L89.76,72.52400720751672L90.44,77.41917148356332L91.12,73.57532413505903L91.80000000000001,78.04996164008865L92.48,80.73474414310638L93.16000000000001,82.34561364491714L93.83999999999999,83.31213534600353L94.52,83.89204836665532L95.19999999999999,84.23999617904651L95.88,77.66781895234888L96.56,80.50545853046265L97.24,82.20804227733088L97.92,76.44864661131953L98.6,72.99300921171269L99.28,64.13865054459694L99.96,65.60701157167917L100.64,66.48802818792858L101.32,73.79758407181046L102,71.40237168800735L102.68,69.96524425772546L103.36,69.10296779955635L104.04,68.58560192465481L104.72,68.27518239971384L105.4,74.86987659888156L106.08,72.04574720424992L106.76,63.57029334011932L107.44,65.26599724899262L108.12,59.502443366965096L108.80000000000001,62.8252872651001L109.48,64.81899360398104L110.16000000000001,72.79616332144182L110.83999999999999,70.80151923778608L111.52,69.60473278759262L112.19999999999999,68.8866609174766L112.88,68.45581779540692L113.56,74.97825783629739L114.24,78.89172186083171L114.92,74.45885436142005L115.6,71.799133861773L116.28,70.20330156198472L116.96,69.24580218211182L117.64,68.67130255418817L118.32,68.32660277743392L119,68.11978291138139L119.68,74.7766369058821L120.36,78.77074930258246L121.04,74.38627082647056L121.72,71.75558374080342L122.4,63.39619526205158L123.08,65.16153840215196L123.76,66.2207442862121L124.44,66.85626781664824L125.12,67.23758193490987L125.80000000000001,67.46637040586697L126.48,67.60364348844116L127.16000000000001,67.68600733798576L127.83999999999999,67.7354256477124L128.51999999999998,67.76507663354839L129.2,67.78286722505011L129.88,74.57448749408327L130.56,78.64945965550322L131.24,74.31349703822288L131.92,71.71191946785471L132.6,76.93191883976606L133.28,80.06391846291288L133.96,75.16217232266877L134.64,72.2211246385222L135.32,70.4564960280343L136,69.3977188617415L136.67999999999998,68.7624525619659L137.36,68.38129278210062L138.04,68.15259691418132L138.72,68.01537939342974L139.39999999999998,67.9330488809788L140.08,67.88365057350835L140.76,67.854011589026L141.44,67.83622819833667L142.12,67.82555816392298L142.8,67.8191561432748L143.48,67.81531493088586L144.16,74.59395611758474L144.84,71.88019491547186L145.52,70.25193819420416L146.2,69.27498416144353L146.88,75.46975765591938L147.56,72.4056758384726L148.24,70.56722674800464L148.92,76.24510320785599L149.60000000000002,72.87088316963462L150.28,70.84635114670179L150.96,69.6316319329421L151.64,68.90280040468622L152.32000000000002,68.46550148773275L153,68.20312213756075L153.67999999999998,68.0456945274574L154.36,67.95123796139542L155.04,74.67550993589057L155.72,71.92912720645528L156.39999999999998,70.28129756879423L157.08,76.07354570032979L157.76,79.54889457925111L158.44,74.85315799247171L159.12,72.03571604040407L159.8,70.34525086916342L160.48,69.33097176641907L161.16,68.72240430477238L161.84,75.13820974191671L162.52,78.98769300420335L163.2,74.5164370474431L163.88,71.83368347338691L164.56,70.22403132895316L165.24,69.25824004229291L165.92,68.67876527029681L166.60000000000002,68.3310804070991L167.28,61.34149326182889L167.96,57.14774097466676L168.64,68.19341174385332L169.32000000000002,68.03986829123296L170,74.72868813379307L170.67999999999998,65.18005789784524L171.36,59.450879756276635L172.04,56.013372871335434L172.72,60.73184496772225L173.39999999999998,63.562928225554344L174.08,65.26157818025355L174.76,66.2807681530731L175.44,66.89228213676488L176.12,67.25919052697992L176.8,67.47933556110895L177.48,67.61142258158635L178.16,67.6906747938728L178.84,74.51917203537697L179.52,71.83532446614713L180.2,70.22501592460925L180.88,69.25883079968646L181.56,68.67911972473286L182.24,68.33129307976064L182.92,68.12259709277737L183.60000000000002,67.9973795005874L184.28,74.7031948594057L184.96,78.72668407469673L185.64,81.14077760387136L186.32000000000002,75.80828780724384L187,65.8278177019158L187.67999999999998,59.83953563871894L188.36,56.246566400800845L189.04,60.87176108540156L189.72,63.64687789616197L190.39999999999998,65.31194798261824L191.08,66.31099003449197L191.76,66.91041526561628L192.44,67.27007040429072L193.12,67.48586348749544L193.8,67.61533933741823L194.48,67.69302484737193L195.16,74.52058206747648L195.84,71.83617048540694L196.52,77.00646945029736L197.2,80.10864882923165L197.88,81.9699564565922L198.56,83.08674103300856L199.24,76.97586586472619L199.92,73.30934076375671L200.60000000000002,71.10942570317502L201.28,69.78947666682602L201.96,62.21653101766499L202.64,57.672763628168354L203.32000000000002,54.94650319447048L204,60.09172316160334L204.67999999999998,69.95980105601532L205.36,75.88064779266244L206.04,72.65220992051846L206.72,70.71514719723208L207.39999999999998,69.55290956326034L208.08,75.63651289700944L208.76,72.50572898312664L209.44,63.84628240744546L210.12,65.43159068938834L210.8,66.38277565855401L211.48,66.95348664005344L212.16,67.29591322895308L212.84,67.50136918229283L213.52,74.40558866842892L214.2,78.5481203601106L214.88,74.2526934609874L215.56,71.67543732151336L216.24,70.12908363782898L216.92,62.42029520026672L217.60000000000002,57.79502213772956L218.28,61.800834527558706L218.96,64.20432196145626L219.64,58.865438194443286L220.32000000000002,62.443084161587024L221,64.58967174187316L221.67999999999998,65.87762429004486L222.36,66.6503958189479L223.04,67.11405873628972L223.72,74.17320240082704L224.39999999999998,78.40868859954942L225.08,74.16903440465067L225.76,71.62524188771145L226.44,70.09896637754788L227.12,69.1832010714498L227.8,68.63374188779085L228.48,68.3040663775956L229.16,68.10626107147837L229.84,67.98757788780806L230.52,67.91636797760584L231.2,67.87364203148452L231.88,67.84800646381171L232.56,67.83262512320805L233.24,61.04242009149422L233.92,56.96829707246597L234.60000000000002,54.5238232610491L235.28,53.05713897419882L235.96,58.95810462944033L236.64,62.49868402258524L237.32000000000002,71.40397757260435L238,69.96620778848359" style="fill: none;" fill="none"></path></g></g></g></g><g opacity="0.2"><g><g><g><path stroke="rgb(255, 112, 67)" stroke-width="2px" d="M34.68,305.1428495645523L35.36,50.85711254392352L36.04,50.85711254392352L36.72,50.85711254392352L37.400000000000006,50.85711254392352L38.080000000000005,50.85711254392352L38.76,67.80955311230251L39.44,50.85711254392352L40.12,67.80955311230251L40.8,50.85711254392352L41.48,16.952382973262246L42.16,33.90474775859289L42.84,67.80955311230251L43.52,16.952382973262246L44.2,33.90474775859289L44.88,16.952382973262246L45.56,16.952382973262246L46.24,50.85711254392352L46.919999999999995,50.85711254392352L47.599999999999994,33.90474775859289L48.28,33.90474775859289L48.96,67.80955311230251L49.64,16.952382973262246L50.32,50.85711254392352L51,118.66664746829441L51.68,50.85711254392352L52.36,50.85711254392352L53.04,33.90474775859289L53.72,16.952382973262246L54.400000000000006,84.76191789763314L55.080000000000005,50.85711254392352L55.76,84.76191789763314L56.44,50.85711254392352L57.12,50.85711254392352L57.8,50.85711254392352L58.48,67.80955311230251L59.16,67.80955311230251L59.84,67.80955311230251L60.52,67.80955311230251L61.2,67.80955311230251L61.88,67.80955311230251L62.56,67.80955311230251L63.24,67.80955311230251L63.919999999999995,67.80955311230251L64.6,67.80955311230251L65.28,67.80955311230251L65.96,67.80955311230251L66.64,67.80955311230251L67.32,67.80955311230251L68,67.80955311230251L68.68,84.76191789763314L69.36,84.76191789763314L70.04,84.76191789763314L70.72,67.80955311230251L71.4,67.80955311230251L72.08,67.80955311230251L72.76,84.76191789763314L73.44,84.76191789763314L74.12,84.76191789763314L74.80000000000001,84.76191789763314L75.48,84.76191789763314L76.16000000000001,67.80955311230251L76.83999999999999,67.80955311230251L77.52,67.80955311230251L78.19999999999999,84.76191789763314L78.88,67.80955311230251L79.56,84.76191789763314L80.24,84.76191789763314L80.92,84.76191789763314L81.6,67.80955311230251L82.28,67.80955311230251L82.96,67.80955311230251L83.64,84.76191789763314L84.32,67.80955311230251L85,84.76191789763314L85.68,67.80955311230251L86.36,67.80955311230251L87.04,50.85711254392352L87.72,50.85711254392352L88.4,67.80955311230251L89.08,67.80955311230251L89.76,84.76191789763314L90.44,84.76191789763314L91.12,67.80955311230251L91.80000000000001,84.76191789763314L92.48,84.76191789763314L93.16000000000001,84.76191789763314L93.83999999999999,84.76191789763314L94.52,84.76191789763314L95.19999999999999,84.76191789763314L95.88,67.80955311230251L96.56,84.76191789763314L97.24,84.76191789763314L97.92,67.80955311230251L98.6,67.80955311230251L99.28,50.85711254392352L99.96,67.80955311230251L100.64,67.80955311230251L101.32,84.76191789763314L102,67.80955311230251L102.68,67.80955311230251L103.36,67.80955311230251L104.04,67.80955311230251L104.72,67.80955311230251L105.4,84.76191789763314L106.08,67.80955311230251L106.76,50.85711254392352L107.44,67.80955311230251L108.12,50.85711254392352L108.80000000000001,67.80955311230251L109.48,67.80955311230251L110.16000000000001,84.76191789763314L110.83999999999999,67.80955311230251L111.52,67.80955311230251L112.19999999999999,67.80955311230251L112.88,67.80955311230251L113.56,84.76191789763314L114.24,84.76191789763314L114.92,67.80955311230251L115.6,67.80955311230251L116.28,67.80955311230251L116.96,67.80955311230251L117.64,67.80955311230251L118.32,67.80955311230251L119,67.80955311230251L119.68,84.76191789763314L120.36,84.76191789763314L121.04,67.80955311230251L121.72,67.80955311230251L122.4,50.85711254392352L123.08,67.80955311230251L123.76,67.80955311230251L124.44,67.80955311230251L125.12,67.80955311230251L125.80000000000001,67.80955311230251L126.48,67.80955311230251L127.16000000000001,67.80955311230251L127.83999999999999,67.80955311230251L128.51999999999998,67.80955311230251L129.2,67.80955311230251L129.88,84.76191789763314L130.56,84.76191789763314L131.24,67.80955311230251L131.92,67.80955311230251L132.6,84.76191789763314L133.28,84.76191789763314L133.96,67.80955311230251L134.64,67.80955311230251L135.32,67.80955311230251L136,67.80955311230251L136.67999999999998,67.80955311230251L137.36,67.80955311230251L138.04,67.80955311230251L138.72,67.80955311230251L139.39999999999998,67.80955311230251L140.08,67.80955311230251L140.76,67.80955311230251L141.44,67.80955311230251L142.12,67.80955311230251L142.8,67.80955311230251L143.48,67.80955311230251L144.16,84.76191789763314L144.84,67.80955311230251L145.52,67.80955311230251L146.2,67.80955311230251L146.88,84.76191789763314L147.56,67.80955311230251L148.24,67.80955311230251L148.92,84.76191789763314L149.60000000000002,67.80955311230251L150.28,67.80955311230251L150.96,67.80955311230251L151.64,67.80955311230251L152.32000000000002,67.80955311230251L153,67.80955311230251L153.67999999999998,67.80955311230251L154.36,67.80955311230251L155.04,84.76191789763314L155.72,67.80955311230251L156.39999999999998,67.80955311230251L157.08,84.76191789763314L157.76,84.76191789763314L158.44,67.80955311230251L159.12,67.80955311230251L159.8,67.80955311230251L160.48,67.80955311230251L161.16,67.80955311230251L161.84,84.76191789763314L162.52,84.76191789763314L163.2,67.80955311230251L163.88,67.80955311230251L164.56,67.80955311230251L165.24,67.80955311230251L165.92,67.80955311230251L166.60000000000002,67.80955311230251L167.28,50.85711254392352L167.96,50.85711254392352L168.64,84.76191789763314L169.32000000000002,67.80955311230251L170,84.76191789763314L170.67999999999998,50.85711254392352L171.36,50.85711254392352L172.04,50.85711254392352L172.72,67.80955311230251L173.39999999999998,67.80955311230251L174.08,67.80955311230251L174.76,67.80955311230251L175.44,67.80955311230251L176.12,67.80955311230251L176.8,67.80955311230251L177.48,67.80955311230251L178.16,67.80955311230251L178.84,84.76191789763314L179.52,67.80955311230251L180.2,67.80955311230251L180.88,67.80955311230251L181.56,67.80955311230251L182.24,67.80955311230251L182.92,67.80955311230251L183.60000000000002,67.80955311230251L184.28,84.76191789763314L184.96,84.76191789763314L185.64,84.76191789763314L186.32000000000002,67.80955311230251L187,50.85711254392352L187.67999999999998,50.85711254392352L188.36,50.85711254392352L189.04,67.80955311230251L189.72,67.80955311230251L190.39999999999998,67.80955311230251L191.08,67.80955311230251L191.76,67.80955311230251L192.44,67.80955311230251L193.12,67.80955311230251L193.8,67.80955311230251L194.48,67.80955311230251L195.16,84.76191789763314L195.84,67.80955311230251L196.52,84.76191789763314L197.2,84.76191789763314L197.88,84.76191789763314L198.56,84.76191789763314L199.24,67.80955311230251L199.92,67.80955311230251L200.60000000000002,67.80955311230251L201.28,67.80955311230251L201.96,50.85711254392352L202.64,50.85711254392352L203.32000000000002,50.85711254392352L204,67.80955311230251L204.67999999999998,84.76191789763314L205.36,84.76191789763314L206.04,67.80955311230251L206.72,67.80955311230251L207.39999999999998,67.80955311230251L208.08,84.76191789763314L208.76,67.80955311230251L209.44,50.85711254392352L210.12,67.80955311230251L210.8,67.80955311230251L211.48,67.80955311230251L212.16,67.80955311230251L212.84,67.80955311230251L213.52,84.76191789763314L214.2,84.76191789763314L214.88,67.80955311230251L215.56,67.80955311230251L216.24,67.80955311230251L216.92,50.85711254392352L217.60000000000002,50.85711254392352L218.28,67.80955311230251L218.96,67.80955311230251L219.64,50.85711254392352L220.32000000000002,67.80955311230251L221,67.80955311230251L221.67999999999998,67.80955311230251L222.36,67.80955311230251L223.04,67.80955311230251L223.72,84.76191789763314L224.39999999999998,84.76191789763314L225.08,67.80955311230251L225.76,67.80955311230251L226.44,67.80955311230251L227.12,67.80955311230251L227.8,67.80955311230251L228.48,67.80955311230251L229.16,67.80955311230251L229.84,67.80955311230251L230.52,67.80955311230251L231.2,67.80955311230251L231.88,67.80955311230251L232.56,67.80955311230251L233.24,50.85711254392352L233.92,50.85711254392352L234.60000000000002,50.85711254392352L235.28,50.85711254392352L235.96,67.80955311230251L236.64,67.80955311230251L237.32000000000002,84.76191789763314L238,67.80955311230251" style="fill: none;" fill="none"></path></g></g></g></g></g></g><g transform="translate(58, 178)" clip-path="url(#clip_1)"><clipPath id="clip_1"><rect width="272" height="22"></rect></clipPath><g><g><line x1="0" y1="0" x2="0" y2="5" style="visibility: inherit;" fill="rgb(0, 0, 0)" stroke="rgb(204, 204, 204)" stroke-width="1px"></line><line x1="34" y1="0" x2="34" y2="5" style="visibility: inherit;" fill="rgb(0, 0, 0)" stroke="rgb(204, 204, 204)" stroke-width="1px"></line><line x1="68" y1="0" x2="68" y2="5" style="visibility: inherit;" fill="rgb(0, 0, 0)" stroke="rgb(204, 204, 204)" stroke-width="1px"></line><line x1="102" y1="0" x2="102" y2="5" style="visibility: inherit;" fill="rgb(0, 0, 0)" stroke="rgb(204, 204, 204)" stroke-width="1px"></line><line x1="136" y1="0" x2="136" y2="5" style="visibility: inherit;" fill="rgb(0, 0, 0)" stroke="rgb(204, 204, 204)" stroke-width="1px"></line><line x1="170" y1="0" x2="170" y2="5" style="visibility: inherit;" fill="rgb(0, 0, 0)" stroke="rgb(204, 204, 204)" stroke-width="1px"></line><line x1="204" y1="0" x2="204" y2="5" style="visibility: inherit;" fill="rgb(0, 0, 0)" stroke="rgb(204, 204, 204)" stroke-width="1px"></line><line x1="238" y1="0" x2="238" y2="5" style="visibility: inherit;" fill="rgb(0, 0, 0)" stroke="rgb(204, 204, 204)" stroke-width="1px"></line><line x1="272" y1="0" x2="272" y2="5" style="visibility: inherit;" fill="rgb(0, 0, 0)" stroke="rgb(204, 204, 204)" stroke-width="1px"></line></g><g transform="translate(0, 8)"><text x="0" y="0" dx="0em" dy="0.95em" style="text-anchor: middle; visibility: hidden; font-family: &quot;Helvetica Neue&quot;, sans-serif; font-size: 12px; font-weight: 200;" fill="rgb(50, 49, 63)" stroke="none" stroke-width="1px">-50</text><text x="34" y="0" dx="0em" dy="0.95em" style="text-anchor: middle; visibility: inherit; font-family: &quot;Helvetica Neue&quot;, sans-serif; font-size: 12px; font-weight: 200;" fill="rgb(50, 49, 63)" stroke="none" stroke-width="1px">0</text><text x="68" y="0" dx="0em" dy="0.95em" style="text-anchor: middle; visibility: inherit; font-family: &quot;Helvetica Neue&quot;, sans-serif; font-size: 12px; font-weight: 200;" fill="rgb(50, 49, 63)" stroke="none" stroke-width="1px">50</text><text x="102" y="0" dx="0em" dy="0.95em" style="text-anchor: middle; visibility: inherit; font-family: &quot;Helvetica Neue&quot;, sans-serif; font-size: 12px; font-weight: 200;" fill="rgb(50, 49, 63)" stroke="none" stroke-width="1px">100</text><text x="136" y="0" dx="0em" dy="0.95em" style="text-anchor: middle; visibility: inherit; font-family: &quot;Helvetica Neue&quot;, sans-serif; font-size: 12px; font-weight: 200;" fill="rgb(50, 49, 63)" stroke="none" stroke-width="1px">150</text><text x="170" y="0" dx="0em" dy="0.95em" style="text-anchor: middle; visibility: inherit; font-family: &quot;Helvetica Neue&quot;, sans-serif; font-size: 12px; font-weight: 200;" fill="rgb(50, 49, 63)" stroke="none" stroke-width="1px">200</text><text x="204" y="0" dx="0em" dy="0.95em" style="text-anchor: middle; visibility: inherit; font-family: &quot;Helvetica Neue&quot;, sans-serif; font-size: 12px; font-weight: 200;" fill="rgb(50, 49, 63)" stroke="none" stroke-width="1px">250</text><text x="238" y="0" dx="0em" dy="0.95em" style="text-anchor: middle; visibility: inherit; font-family: &quot;Helvetica Neue&quot;, sans-serif; font-size: 12px; font-weight: 200;" fill="rgb(50, 49, 63)" stroke="none" stroke-width="1px">300</text><text x="272" y="0" dx="0em" dy="0.95em" style="text-anchor: middle; visibility: hidden; font-family: &quot;Helvetica Neue&quot;, sans-serif; font-size: 12px; font-weight: 200;" fill="rgb(50, 49, 63)" stroke="none" stroke-width="1px">350</text></g><line x1="0" y1="0" x2="272" y2="0" fill="rgb(0, 0, 0)" stroke="rgb(204, 204, 204)" stroke-width="1px"></line></g></g></g></g></svg>