<svg viewBox="0 0 330 200" xmlns="http://www.w3.org/2000/svg"><g><g><g><g><g><line x1="70" y1="163.16666666666663" x2="65" y2="163.16666666666663" style="visibility: inherit;" fill="rgb(0, 0, 0)" stroke="rgb(204, 204, 204)" stroke-width="1px"></line><line x1="70" y1="148.3333333333333" x2="65" y2="148.3333333333333" style="visibility: inherit;" fill="rgb(0, 0, 0)" stroke="rgb(204, 204, 204)" stroke-width="1px"></line><line x1="70" y1="133.50000000000026" x2="65" y2="133.50000000000026" style="visibility: inherit;" fill="rgb(0, 0, 0)" stroke="rgb(204, 204, 204)" stroke-width="1px"></line><line x1="70" y1="118.66666666666688" x2="65" y2="118.66666666666688" style="visibility: inherit;" fill="rgb(0, 0, 0)" stroke="rgb(204, 204, 204)" stroke-width="1px"></line><line x1="70" y1="103.83333333333353" x2="65" y2="103.83333333333353" style="visibility: inherit;" fill="rgb(0, 0, 0)" stroke="rgb(204, 204, 204)" stroke-width="1px"></line><line x1="70" y1="89.00000000000017" x2="65" y2="89.00000000000017" style="visibility: inherit;" fill="rgb(0, 0, 0)" stroke="rgb(204, 204, 204)" stroke-width="1px"></line><line x1="70" y1="74.1666666666668" x2="65" y2="74.1666666666668" style="visibility: inherit;" fill="rgb(0, 0, 0)" stroke="rgb(204, 204, 204)" stroke-width="1px"></line><line x1="70" y1="59.33333333333344" x2="65" y2="59.33333333333344" style="visibility: inherit;" fill="rgb(0, 0, 0)" stroke="rgb(204, 204, 204)" stroke-width="1px"></line><line x1="70" y1="44.500000000000085" x2="65" y2="44.500000000000085" style="visibility: inherit;" fill="rgb(0, 0, 0)" stroke="rgb(204, 204, 204)" stroke-width="1px"></line><line x1="70" y1="29.666666666666714" x2="65" y2="29.666666666666714" style="visibility: inherit;" fill="rgb(0, 0, 0)" stroke="rgb(204, 204, 204)" stroke-width="1px"></line><line x1="70" y1="14.833333333333371" x2="65" y2="14.833333333333371" style="visibility: inherit;" fill="rgb(0, 0, 0)" stroke="rgb(204, 204, 204)" stroke-width="1px"></line><line x1="70" y1="0" x2="65" y2="0" style="visibility: inherit;" fill="rgb(0, 0, 0)" stroke="rgb(204, 204, 204)" stroke-width="1px"></line></g><g transform="translate(60, 0)"><text x="0" y="163.16666666666663" dx="0em" dy="0.3em" style="text-anchor: end; visibility: inherit; font-family: &quot;Helvetica Neue&quot;, sans-serif; font-size: 12px; font-weight: 200;" fill="rgb(50, 49, 63)" stroke="none" stroke-width="1px">0.555</text><text x="0" y="148.3333333333333" dx="0em" dy="0.3em" style="text-anchor: end; visibility: hidden; font-family: &quot;Helvetica Neue&quot;, sans-serif; font-size: 12px; font-weight: 200;" fill="rgb(50, 49, 63)" stroke="none" stroke-width="1px">0.56</text><text x="0" y="133.50000000000026" dx="0em" dy="0.3em" style="text-anchor: end; visibility: inherit; font-family: &quot;Helvetica Neue&quot;, sans-serif; font-size: 12px; font-weight: 200;" fill="rgb(50, 49, 63)" stroke="none" stroke-width="1px">0.565</text><text x="0" y="118.66666666666688" dx="0em" dy="0.3em" style="text-anchor: end; visibility: hidden; font-family: &quot;Helvetica Neue&quot;, sans-serif; font-size: 12px; font-weight: 200;" fill="rgb(50, 49, 63)" stroke="none" stroke-width="1px">0.57</text><text x="0" y="103.83333333333353" dx="0em" dy="0.3em" style="text-anchor: end; visibility: inherit; font-family: &quot;Helvetica Neue&quot;, sans-serif; font-size: 12px; font-weight: 200;" fill="rgb(50, 49, 63)" stroke="none" stroke-width="1px">0.575</text><text x="0" y="89.00000000000017" dx="0em" dy="0.3em" style="text-anchor: end; visibility: hidden; font-family: &quot;Helvetica Neue&quot;, sans-serif; font-size: 12px; font-weight: 200;" fill="rgb(50, 49, 63)" stroke="none" stroke-width="1px">0.58</text><text x="0" y="74.1666666666668" dx="0em" dy="0.3em" style="text-anchor: end; visibility: inherit; font-family: &quot;Helvetica Neue&quot;, sans-serif; font-size: 12px; font-weight: 200;" fill="rgb(50, 49, 63)" stroke="none" stroke-width="1px">0.585</text><text x="0" y="59.33333333333344" dx="0em" dy="0.3em" style="text-anchor: end; visibility: hidden; font-family: &quot;Helvetica Neue&quot;, sans-serif; font-size: 12px; font-weight: 200;" fill="rgb(50, 49, 63)" stroke="none" stroke-width="1px">0.59</text><text x="0" y="44.500000000000085" dx="0em" dy="0.3em" style="text-anchor: end; visibility: inherit; font-family: &quot;Helvetica Neue&quot;, sans-serif; font-size: 12px; font-weight: 200;" fill="rgb(50, 49, 63)" stroke="none" stroke-width="1px">0.595</text><text x="0" y="29.666666666666714" dx="0em" dy="0.3em" style="text-anchor: end; visibility: hidden; font-family: &quot;Helvetica Neue&quot;, sans-serif; font-size: 12px; font-weight: 200;" fill="rgb(50, 49, 63)" stroke="none" stroke-width="1px">0.6</text><text x="0" y="14.833333333333371" dx="0em" dy="0.3em" style="text-anchor: end; visibility: inherit; font-family: &quot;Helvetica Neue&quot;, sans-serif; font-size: 12px; font-weight: 200;" fill="rgb(50, 49, 63)" stroke="none" stroke-width="1px">0.605</text><text x="0" y="0" dx="0em" dy="0.3em" style="text-anchor: end; visibility: hidden; font-family: &quot;Helvetica Neue&quot;, sans-serif; font-size: 12px; font-weight: 200;" fill="rgb(50, 49, 63)" stroke="none" stroke-width="1px">0.61</text></g><line x1="70" y1="0" x2="70" y2="178" fill="rgb(0, 0, 0)" stroke="rgb(204, 204, 204)" stroke-width="1px"></line></g></g><g transform="translate(70, 0)" clip-path="url(#clip_0)"><clipPath id="clip_0"><rect width="260" height="178"></rect></clipPath><g><g><g><line x1="0" y1="0" x2="0" y2="178" fill="rgb(0, 0, 0)" stroke="rgb(60, 60, 60)" stroke-width="1px" opacity="0.25"></line><line x1="32.5" y1="0" x2="32.5" y2="178" fill="rgb(0, 0, 0)" stroke="rgb(60, 60, 60)" stroke-width="1px" opacity="0.25"></line><line x1="65" y1="0" x2="65" y2="178" fill="rgb(0, 0, 0)" stroke="rgb(60, 60, 60)" stroke-width="1px" opacity="0.25"></line><line x1="97.5" y1="0" x2="97.5" y2="178" fill="rgb(0, 0, 0)" stroke="rgb(60, 60, 60)" stroke-width="1px" opacity="0.25"></line><line x1="130" y1="0" x2="130" y2="178" fill="rgb(0, 0, 0)" stroke="rgb(60, 60, 60)" stroke-width="1px" opacity="0.25"></line><line x1="162.5" y1="0" x2="162.5" y2="178" fill="rgb(0, 0, 0)" stroke="rgb(60, 60, 60)" stroke-width="1px" opacity="0.25"></line><line x1="195" y1="0" x2="195" y2="178" fill="rgb(0, 0, 0)" stroke="rgb(60, 60, 60)" stroke-width="1px" opacity="0.25"></line><line x1="227.5" y1="0" x2="227.5" y2="178" fill="rgb(0, 0, 0)" stroke="rgb(60, 60, 60)" stroke-width="1px" opacity="0.25"></line><line x1="260" y1="0" x2="260" y2="178" fill="rgb(0, 0, 0)" stroke="rgb(60, 60, 60)" stroke-width="1px" opacity="0.25"></line></g><g><line x1="0" y1="163.16666666666663" x2="260" y2="163.16666666666663" fill="rgb(0, 0, 0)" stroke="rgb(60, 60, 60)" stroke-width="1px" opacity="0.25"></line><line x1="0" y1="148.3333333333333" x2="260" y2="148.3333333333333" fill="rgb(0, 0, 0)" stroke="rgb(60, 60, 60)" stroke-width="1px" opacity="0.25"></line><line x1="0" y1="133.50000000000026" x2="260" y2="133.50000000000026" fill="rgb(0, 0, 0)" stroke="rgb(60, 60, 60)" stroke-width="1px" opacity="0.25"></line><line x1="0" y1="118.66666666666688" x2="260" y2="118.66666666666688" fill="rgb(0, 0, 0)" stroke="rgb(60, 60, 60)" stroke-width="1px" opacity="0.25"></line><line x1="0" y1="103.83333333333353" x2="260" y2="103.83333333333353" fill="rgb(0, 0, 0)" stroke="rgb(60, 60, 60)" stroke-width="1px" opacity="0.25"></line><line x1="0" y1="89.00000000000017" x2="260" y2="89.00000000000017" fill="rgb(0, 0, 0)" stroke="rgb(60, 60, 60)" stroke-width="1px" opacity="0.25"></line><line x1="0" y1="74.1666666666668" x2="260" y2="74.1666666666668" fill="rgb(0, 0, 0)" stroke="rgb(60, 60, 60)" stroke-width="1px" opacity="0.25"></line><line x1="0" y1="59.33333333333344" x2="260" y2="59.33333333333344" fill="rgb(0, 0, 0)" stroke="rgb(60, 60, 60)" stroke-width="1px" opacity="0.25"></line><line x1="0" y1="44.500000000000085" x2="260" y2="44.500000000000085" fill="rgb(0, 0, 0)" stroke="rgb(60, 60, 60)" stroke-width="1px" opacity="0.25"></line><line x1="0" y1="29.666666666666714" x2="260" y2="29.666666666666714" fill="rgb(0, 0, 0)" stroke="rgb(60, 60, 60)" stroke-width="1px" opacity="0.25"></line><line x1="0" y1="14.833333333333371" x2="260" y2="14.833333333333371" fill="rgb(0, 0, 0)" stroke="rgb(60, 60, 60)" stroke-width="1px" opacity="0.25"></line><line x1="0" y1="0" x2="260" y2="0" fill="rgb(0, 0, 0)" stroke="rgb(60, 60, 60)" stroke-width="1px" opacity="0.25"></line></g></g></g><g><g><line x1="0" y1="1809.6666666666686" x2="260" y2="1809.6666666666686" fill="rgb(0, 0, 0)" stroke="rgb(153, 153, 153)" stroke-width="1.5px"></line></g></g><g><g><line x1="32.5" y1="0" x2="32.5" y2="178" fill="rgb(0, 0, 0)" stroke="rgb(153, 153, 153)" stroke-width="1.5px"></line></g></g><g><g><g><g><g><path stroke="rgb(255, 112, 67)" stroke-width="2px" d="M33.15,29.666595935821505L33.800000000000004,29.666595935821846L34.45,29.666595935821846L35.1,29.666595935821846L35.75,29.666595935821846L36.400000000000006,29.666595935821846L37.05,29.666595935821846L37.699999999999996,29.666595935821505L38.35,45.649949174643325L39,39.21771461642771L39.65,67.14306448819332L40.3,83.83329305877639L40.95,62.13827901558557L41.6,33.30480353866707L42.25,47.67855668425025L42.9,56.298482024376966L43.550000000000004,61.468880628538855L44.2,48.746674684767925L44.849999999999994,56.93742016006311L45.5,125.14269055883818L46.15,166.0642567997316L46.8,127.32696045109324L47.449999999999996,88.26250614118256L48.1,80.64638383476697L48.75,44.43215858412776L49.4,244.21517923934863L50.7,192.34408575877103L51.35,174.73977547293913L52,227.46610670702577L52.650000000000006,164.16857186630398L53.3,157.83447311977216L53.949999999999996,138.2118063059668L54.6,63.14930574132924L55.25,33.93401418391912L55.9,63.87153219026405L56.55,66.01183556555297L57.2,19.82932527622515L57.85,-7.880180787621015L58.5,7.13852992183206L59.15,16.149756334655393L59.800000000000004,21.55649217772384L60.45,24.800533681899424L61.099999999999994,42.56923645036693L61.75,53.23045810947737L62.4,59.62719110423424L63.05,47.64295303642115L63.699999999999996,56.27468806019536L64.35,61.453729074335925L65,64.56115368277568L65.65,66.42560844782346L66.3,35.89979630995879L66.95,17.584309027296484L67.60000000000001,38.23950165454852L68.25,66.45482436387145L68.9,115.02843225541616L69.55,96.70597559139449L70.2,149.00133012489385L70.85000000000001,101.26743644926124L71.5,135.91599950663363L72.15,172.52734447403117L72.80000000000001,194.4941514544692L74.75,205.13779761580753L75.39999999999999,166.59380194060827L76.05,111.82291953869385L76.7,94.78266796136526L77.35,100.38072414794371L78,87.91735072691505L78.64999999999999,112.08374094024873L79.3,110.76136793527354L79.95,94.14573699931287L80.6,84.17635843773706L81.25,62.372453436970915L81.9,65.11238830033152L82.55,66.75634921834798L83.2,67.74272576915774L83.85000000000001,68.33455169964373L84.5,68.68964725793525L85.15,100.54711885886078L85.8,103.83939468644077L86.45,105.81476018298889L87.10000000000001,106.99997948091769L87.75,91.88890392669943L88.4,82.8222585941686L89.05000000000001,61.55999353082997L89.69999999999999,64.62491235664713L90.35,66.46386365213736L91,67.56723442943124L91.64999999999999,68.22925689580777L92.3,52.804192511813525L92.95,27.726946748441463L93.6,44.32508428721394L94.25,70.10617394345266L94.89999999999999,85.57482773719603L95.55,94.85602001344185L96.2,116.24694251216461L96.85,97.43708174544759L97.5,101.97337241839297L98.15,104.69514682216008L98.8,90.50600433144514L99.45,66.17024097319549L100.10000000000001,83.21326795504164L100.75,93.43908414414942L101.4,115.39678099058915L102.05,96.92698483250257L102.7,101.66731427062584L103.35000000000001,104.51151193349973L104,106.218030531224L104.65,123.06414882283391L105.30000000000001,117.3496126648245L105.94999999999999,113.92089097001886L106.6,111.86365795313554L107.25,94.80711101003041L107.89999999999999,84.57318284416733L108.55,78.4328259446493L109.2,106.39302607088888L109.85,107.34693901365762L110.5,107.91928677931892L111.14999999999999,124.08490257169113L111.8,117.96206491413884L112.45,114.28836231960747L113.1,112.08414076288865L113.75,126.58381496183289L114.4,119.46141234822409L115.05,99.36576364708327L115.7,118.95278869234947L116.35000000000001,130.7050037195093L117,106.11191846985467L117.65,107.17827445303696L118.3,76.1736030461506L118.95,89.21528519881478L119.60000000000001,112.8625016233883L120.25,111.22862434515714L120.9,94.42609084524317L121.55000000000001,131.81119214422063L122.19999999999999,90.95335366086098L122.85,98.08313556764101L123.5,86.53879757873356L124.14999999999999,79.61219478538936L124.8,75.45623310938257L125.45,88.7848632367539L126.1,96.7820413131765L126.75,85.75814102605499L127.39999999999999,79.14380085378208L128.05,90.9974038833936L128.7,113.9317728341358L129.35,127.69239420458078L130,104.30435276089736L130.64999999999998,121.91594216063771L131.3,116.66068866750686L131.95,113.50753657162828L132.6,127.43785244707661L133.25,104.15162770639505L133.9,106.00209999496131L134.54999999999998,107.11238336810108L135.20000000000002,91.95634625900973L135.85,114.50713825950515L136.5,128.03761345980257L137.15,151.9781057129564L137.8,134.69798679889826L138.45,76.86322332069248L139.1,73.80685023056465L139.75,87.79523350946302L140.4,96.18826347680216L141.04999999999998,101.22408145720547L141.70000000000002,104.24557224544758L142.35,90.23625958541756L143,81.83067198939948L143.65,108.43173369773946L144.3,92.74795645679264L144.95,83.33769011222479L145.60000000000002,77.69153030548402L146.25,74.3038344214393L146.89999999999998,72.27121689101273L147.55,71.05164637275679L148.2,70.31990406180323L148.85,54.058580811410806L149.5,75.94627185797079L150.15,89.07888648590662L150.79999999999998,81.13624812969312L151.45000000000002,76.37066511596497L152.1,105.15572957367861L152.75,106.60456111533152L153.4,107.47386004032315L154.05,107.99543939531824L154.7,92.48617987533996L155.35,67.35834629953258L156,68.10392401786838L156.65,68.5512706488699L157.29999999999998,52.99740076365056L157.95000000000002,75.3095638293145L158.6,88.69686166871307L159.25,80.90703323937666L159.9,60.410858317954464L160.55,63.93543122892163L161.2,50.227897111681585L161.85000000000002,42.00337664133775L162.5,52.89094222295161L163.14999999999998,75.24568870489526L163.8,72.83632946108625L164.45,71.39071391480076L165.1,86.34555172000462L165.75,95.31845440312706L166.4,116.52440314597574L167.04999999999998,129.2479723916852L167.70000000000002,121.05990680613536L168.35,116.14706745480564L169,97.3771567110326L169.65,101.93741739774399L170.3,104.67357380977056L170.95,74.67078266019107L171.6,72.4913858342636L172.25,55.36146987488658L172.9,92.55021242903165L173.54999999999998,99.04125082854314L174.20000000000002,102.93587386825018L174.85,105.27264769207434L175.5,138.3191262523195L176.15,142.324806255491L176.8,128.90600712441878L177.45,120.85472764577555L178.10000000000002,116.02395995858976L178.75,97.30329221330288L179.39999999999998,86.0708915661308L180.05,63.50917331400716L180.7,65.79442022655317L181.35,51.34329051026059L182,74.31709767728077L182.65,72.27917484451756L183.29999999999998,86.87862827783489L183.95000000000002,79.81609320484976L184.6,91.40077929403408L185.25,82.52938381456947L185.9,93.02875365986584L186.55,99.3283755670438L187.2,103.10814871135051L187.85,89.5538054649594L188.5,97.24340665009998L189.15,101.85716736118435L189.79999999999998,104.62542378783478L190.45000000000002,106.28637764382529L191.1,123.10515709039456L191.75,69.90752549558992L192.4,85.45563866847819L193.05,94.7845065722112L193.7,100.38182731445114L194.35000000000002,87.91801262681965L195,96.26193094721602L195.64999999999998,101.26828193945383L196.3,88.44988540182132L196.95,96.58105461221714L197.6,117.28196327142966L198.25,113.88030133398209L198.9,127.6615113044887L199.54999999999998,120.10803015381737L200.20000000000002,99.75373433043951L200.85,103.363363969388L201.5,105.52914175275723L202.15,91.00640128980329L202.8,98.11496414500633L203.45,102.38010185812796L204.1,89.11697735302573L204.75,81.15910264996452L205.4,76.38437782812792L206.04999999999998,89.34175006800099L206.70000000000002,97.11617341192475L207.35,133.42524168422977L208,139.38847551463743L208.65,127.14420867990682L209.3,119.79764857906832L209.95,115.38971251856535L210.60000000000002,112.74495088226351L211.25,95.33588676750718L211.89999999999998,84.89044829865345L212.55,78.62318521734116L213.2,74.86282736855378L213.85,88.42881979225643L214.5,96.56841524647803L215.15,101.4521725190111L215.79999999999998,104.38242688253082L216.45000000000002,106.14057950064266L217.1,107.19547107150989L217.75,76.18392101723455L218.4,105.0436831144403L219.05,122.35954037276349L219.7,101.10464046180725L220.35,104.17390764820857L221,106.01546796004958L221.65,107.12040414715398L222.29999999999998,107.78336585941655L222.95000000000002,108.18114288677435L223.6,108.41980910318904L224.25,92.74080170006238L224.9,114.97781152413707L225.55,112.49781028560646L226.2,111.0098095424881L226.85000000000002,125.93921622959256L227.5,103.25244597590455" style="fill: none;" fill="none"></path></g></g></g></g><g opacity="0.2"><g><g><g><path stroke="rgb(255, 112, 67)" stroke-width="2px" d="M33.15,29.666595935821505L33.800000000000004,29.666595935821505L34.45,29.666595935821505L35.1,29.666595935821505L35.75,29.666595935821505L36.400000000000006,29.666595935821505L37.05,29.666595935821505L37.699999999999996,29.666595935821505L38.35,69.22229059537254L39,29.666595935821505L39.65,108.77780842781074L40.3,108.77780842781074L40.95,29.666595935821505L41.6,-9.888921896616665L42.25,69.22229059537254L42.9,69.22229059537254L43.550000000000004,69.22229059537254L44.2,29.666595935821505L44.849999999999994,69.22229059537254L45.5,227.4443619251253L46.15,227.4443619251253L46.8,69.22229059537254L47.449999999999996,29.666595935821505L48.1,69.22229059537254L48.75,-9.888921896616665L50.050000000000004,187.88884409268712L50.7,148.33332626024892L51.35,148.33332626024892L52,306.5555744171145L52.650000000000006,69.22229059537254L53.3,148.33332626024892L53.949999999999996,108.77780842781074L54.6,-49.444439729054864L55.25,-9.888921896616665L55.9,108.77780842781074L56.55,69.22229059537254L57.2,-49.444439729054864L57.85,-49.444439729054864L58.5,29.666595935821505L59.15,29.666595935821505L59.800000000000004,29.666595935821505L60.45,29.666595935821505L61.099999999999994,69.22229059537254L61.75,69.22229059537254L62.4,69.22229059537254L63.05,29.666595935821505L63.699999999999996,69.22229059537254L64.35,69.22229059537254L65,69.22229059537254L65.65,69.22229059537254L66.3,-9.888921896616665L66.95,-9.888921896616665L67.60000000000001,69.22229059537254L68.25,108.77780842781074L68.9,187.88884409268712L69.55,69.22229059537254L70.2,227.4443619251253L70.85000000000001,29.666595935821505L71.5,187.88884409268712L74.75,227.4443619251253L75.39999999999999,108.77780842781074L76.05,29.666595935821505L76.7,69.22229059537254L77.35,108.77780842781074L78,69.22229059537254L78.64999999999999,148.33332626024892L79.3,108.77780842781074L79.95,69.22229059537254L80.6,69.22229059537254L81.25,29.666595935821505L81.9,69.22229059537254L82.55,69.22229059537254L83.2,69.22229059537254L83.85000000000001,69.22229059537254L84.5,69.22229059537254L85.15,148.33332626024892L85.8,108.77780842781074L86.45,108.77780842781074L87.10000000000001,108.77780842781074L87.75,69.22229059537254L88.4,69.22229059537254L89.05000000000001,29.666595935821505L89.69999999999999,69.22229059537254L90.35,69.22229059537254L91,69.22229059537254L91.64999999999999,69.22229059537254L92.3,29.666595935821505L92.95,-9.888921896616665L93.6,69.22229059537254L94.25,108.77780842781074L94.89999999999999,108.77780842781074L95.55,108.77780842781074L96.2,148.33332626024892L96.85,69.22229059537254L97.5,108.77780842781074L98.15,108.77780842781074L98.8,69.22229059537254L99.45,29.666595935821505L100.10000000000001,108.77780842781074L100.75,108.77780842781074L101.4,148.33332626024892L102.05,69.22229059537254L102.7,108.77780842781074L103.35000000000001,108.77780842781074L104,108.77780842781074L104.65,148.33332626024892L105.30000000000001,108.77780842781074L105.94999999999999,108.77780842781074L106.6,108.77780842781074L107.25,69.22229059537254L107.89999999999999,69.22229059537254L108.55,69.22229059537254L109.2,148.33332626024892L109.85,108.77780842781074L110.5,108.77780842781074L111.14999999999999,148.33332626024892L111.8,108.77780842781074L112.45,108.77780842781074L113.1,108.77780842781074L113.75,148.33332626024892L114.4,108.77780842781074L115.05,69.22229059537254L115.7,148.33332626024892L116.35000000000001,148.33332626024892L117,69.22229059537254L117.65,108.77780842781074L118.3,29.666595935821505L118.95,108.77780842781074L119.60000000000001,148.33332626024892L120.25,108.77780842781074L120.9,69.22229059537254L121.55000000000001,187.88884409268712L122.19999999999999,29.666595935821505L122.85,108.77780842781074L123.5,69.22229059537254L124.14999999999999,69.22229059537254L124.8,69.22229059537254L125.45,108.77780842781074L126.1,108.77780842781074L126.75,69.22229059537254L127.39999999999999,69.22229059537254L128.05,108.77780842781074L128.7,148.33332626024892L129.35,148.33332626024892L130,69.22229059537254L130.64999999999998,148.33332626024892L131.3,108.77780842781074L131.95,108.77780842781074L132.6,148.33332626024892L133.25,69.22229059537254L133.9,108.77780842781074L134.54999999999998,108.77780842781074L135.20000000000002,69.22229059537254L135.85,148.33332626024892L136.5,148.33332626024892L137.15,187.88884409268712L137.8,108.77780842781074L138.45,-9.888921896616665L139.1,69.22229059537254L139.75,108.77780842781074L140.4,108.77780842781074L141.04999999999998,108.77780842781074L141.70000000000002,108.77780842781074L142.35,69.22229059537254L143,69.22229059537254L143.65,148.33332626024892L144.3,69.22229059537254L144.95,69.22229059537254L145.60000000000002,69.22229059537254L146.25,69.22229059537254L146.89999999999998,69.22229059537254L147.55,69.22229059537254L148.2,69.22229059537254L148.85,29.666595935821505L149.5,108.77780842781074L150.15,108.77780842781074L150.79999999999998,69.22229059537254L151.45000000000002,69.22229059537254L152.1,148.33332626024892L152.75,108.77780842781074L153.4,108.77780842781074L154.05,108.77780842781074L154.7,69.22229059537254L155.35,29.666595935821505L156,69.22229059537254L156.65,69.22229059537254L157.29999999999998,29.666595935821505L157.95000000000002,108.77780842781074L158.6,108.77780842781074L159.25,69.22229059537254L159.9,29.666595935821505L160.55,69.22229059537254L161.2,29.666595935821505L161.85000000000002,29.666595935821505L162.5,69.22229059537254L163.14999999999998,108.77780842781074L163.8,69.22229059537254L164.45,69.22229059537254L165.1,108.77780842781074L165.75,108.77780842781074L166.4,148.33332626024892L167.04999999999998,148.33332626024892L167.70000000000002,108.77780842781074L168.35,108.77780842781074L169,69.22229059537254L169.65,108.77780842781074L170.3,108.77780842781074L170.95,29.666595935821505L171.6,69.22229059537254L172.25,29.666595935821505L172.9,148.33332626024892L173.54999999999998,108.77780842781074L174.20000000000002,108.77780842781074L174.85,108.77780842781074L175.5,187.88884409268712L176.15,148.33332626024892L176.8,108.77780842781074L177.45,108.77780842781074L178.10000000000002,108.77780842781074L178.75,69.22229059537254L179.39999999999998,69.22229059537254L180.05,29.666595935821505L180.7,69.22229059537254L181.35,29.666595935821505L182,108.77780842781074L182.65,69.22229059537254L183.29999999999998,108.77780842781074L183.95000000000002,69.22229059537254L184.6,108.77780842781074L185.25,69.22229059537254L185.9,108.77780842781074L186.55,108.77780842781074L187.2,108.77780842781074L187.85,69.22229059537254L188.5,108.77780842781074L189.15,108.77780842781074L189.79999999999998,108.77780842781074L190.45000000000002,108.77780842781074L191.1,148.33332626024892L191.75,-9.888921896616665L192.4,108.77780842781074L193.05,108.77780842781074L193.7,108.77780842781074L194.35000000000002,69.22229059537254L195,108.77780842781074L195.64999999999998,108.77780842781074L196.3,69.22229059537254L196.95,108.77780842781074L197.6,148.33332626024892L198.25,108.77780842781074L198.9,148.33332626024892L199.54999999999998,108.77780842781074L200.20000000000002,69.22229059537254L200.85,108.77780842781074L201.5,108.77780842781074L202.15,69.22229059537254L202.8,108.77780842781074L203.45,108.77780842781074L204.1,69.22229059537254L204.75,69.22229059537254L205.4,69.22229059537254L206.04999999999998,108.77780842781074L206.70000000000002,108.77780842781074L207.35,187.88884409268712L208,148.33332626024892L208.65,108.77780842781074L209.3,108.77780842781074L209.95,108.77780842781074L210.60000000000002,108.77780842781074L211.25,69.22229059537254L211.89999999999998,69.22229059537254L212.55,69.22229059537254L213.2,69.22229059537254L213.85,108.77780842781074L214.5,108.77780842781074L215.15,108.77780842781074L215.79999999999998,108.77780842781074L216.45000000000002,108.77780842781074L217.1,108.77780842781074L217.75,29.666595935821505L218.4,148.33332626024892L219.05,148.33332626024892L219.7,69.22229059537254L220.35,108.77780842781074L221,108.77780842781074L221.65,108.77780842781074L222.29999999999998,108.77780842781074L222.95000000000002,108.77780842781074L223.6,108.77780842781074L224.25,69.22229059537254L224.9,148.33332626024892L225.55,108.77780842781074L226.2,108.77780842781074L226.85000000000002,148.33332626024892L227.5,69.22229059537254" style="fill: none;" fill="none"></path></g></g></g></g></g></g><g transform="translate(70, 178)" clip-path="url(#clip_1)"><clipPath id="clip_1"><rect width="260" height="22"></rect></clipPath><g><g><line x1="0" y1="0" x2="0" y2="5" style="visibility: inherit;" fill="rgb(0, 0, 0)" stroke="rgb(204, 204, 204)" stroke-width="1px"></line><line x1="32.5" y1="0" x2="32.5" y2="5" style="visibility: inherit;" fill="rgb(0, 0, 0)" stroke="rgb(204, 204, 204)" stroke-width="1px"></line><line x1="65" y1="0" x2="65" y2="5" style="visibility: inherit;" fill="rgb(0, 0, 0)" stroke="rgb(204, 204, 204)" stroke-width="1px"></line><line x1="97.5" y1="0" x2="97.5" y2="5" style="visibility: inherit;" fill="rgb(0, 0, 0)" stroke="rgb(204, 204, 204)" stroke-width="1px"></line><line x1="130" y1="0" x2="130" y2="5" style="visibility: inherit;" fill="rgb(0, 0, 0)" stroke="rgb(204, 204, 204)" stroke-width="1px"></line><line x1="162.5" y1="0" x2="162.5" y2="5" style="visibility: inherit;" fill="rgb(0, 0, 0)" stroke="rgb(204, 204, 204)" stroke-width="1px"></line><line x1="195" y1="0" x2="195" y2="5" style="visibility: inherit;" fill="rgb(0, 0, 0)" stroke="rgb(204, 204, 204)" stroke-width="1px"></line><line x1="227.5" y1="0" x2="227.5" y2="5" style="visibility: inherit;" fill="rgb(0, 0, 0)" stroke="rgb(204, 204, 204)" stroke-width="1px"></line><line x1="260" y1="0" x2="260" y2="5" style="visibility: inherit;" fill="rgb(0, 0, 0)" stroke="rgb(204, 204, 204)" stroke-width="1px"></line></g><g transform="translate(0, 8)"><text x="0" y="0" dx="0em" dy="0.95em" style="text-anchor: middle; visibility: hidden; font-family: &quot;Helvetica Neue&quot;, sans-serif; font-size: 12px; font-weight: 200;" fill="rgb(50, 49, 63)" stroke="none" stroke-width="1px">-50</text><text x="32.5" y="0" dx="0em" dy="0.95em" style="text-anchor: middle; visibility: inherit; font-family: &quot;Helvetica Neue&quot;, sans-serif; font-size: 12px; font-weight: 200;" fill="rgb(50, 49, 63)" stroke="none" stroke-width="1px">0</text><text x="65" y="0" dx="0em" dy="0.95em" style="text-anchor: middle; visibility: inherit; font-family: &quot;Helvetica Neue&quot;, sans-serif; font-size: 12px; font-weight: 200;" fill="rgb(50, 49, 63)" stroke="none" stroke-width="1px">50</text><text x="97.5" y="0" dx="0em" dy="0.95em" style="text-anchor: middle; visibility: inherit; font-family: &quot;Helvetica Neue&quot;, sans-serif; font-size: 12px; font-weight: 200;" fill="rgb(50, 49, 63)" stroke="none" stroke-width="1px">100</text><text x="130" y="0" dx="0em" dy="0.95em" style="text-anchor: middle; visibility: inherit; font-family: &quot;Helvetica Neue&quot;, sans-serif; font-size: 12px; font-weight: 200;" fill="rgb(50, 49, 63)" stroke="none" stroke-width="1px">150</text><text x="162.5" y="0" dx="0em" dy="0.95em" style="text-anchor: middle; visibility: inherit; font-family: &quot;Helvetica Neue&quot;, sans-serif; font-size: 12px; font-weight: 200;" fill="rgb(50, 49, 63)" stroke="none" stroke-width="1px">200</text><text x="195" y="0" dx="0em" dy="0.95em" style="text-anchor: middle; visibility: inherit; font-family: &quot;Helvetica Neue&quot;, sans-serif; font-size: 12px; font-weight: 200;" fill="rgb(50, 49, 63)" stroke="none" stroke-width="1px">250</text><text x="227.5" y="0" dx="0em" dy="0.95em" style="text-anchor: middle; visibility: inherit; font-family: &quot;Helvetica Neue&quot;, sans-serif; font-size: 12px; font-weight: 200;" fill="rgb(50, 49, 63)" stroke="none" stroke-width="1px">300</text><text x="260" y="0" dx="0em" dy="0.95em" style="text-anchor: middle; visibility: hidden; font-family: &quot;Helvetica Neue&quot;, sans-serif; font-size: 12px; font-weight: 200;" fill="rgb(50, 49, 63)" stroke="none" stroke-width="1px">350</text></g><line x1="0" y1="0" x2="260" y2="0" fill="rgb(0, 0, 0)" stroke="rgb(204, 204, 204)" stroke-width="1px"></line></g></g></g></g></svg>