<svg viewBox="0 0 330 200" xmlns="http://www.w3.org/2000/svg"><g><g><g><g><g><line x1="70" y1="163.16666666666663" x2="65" y2="163.16666666666663" style="visibility: inherit;" fill="rgb(0, 0, 0)" stroke="rgb(204, 204, 204)" stroke-width="1px"></line><line x1="70" y1="148.3333333333336" x2="65" y2="148.3333333333336" style="visibility: inherit;" fill="rgb(0, 0, 0)" stroke="rgb(204, 204, 204)" stroke-width="1px"></line><line x1="70" y1="133.50000000000026" x2="65" y2="133.50000000000026" style="visibility: inherit;" fill="rgb(0, 0, 0)" stroke="rgb(204, 204, 204)" stroke-width="1px"></line><line x1="70" y1="118.66666666666688" x2="65" y2="118.66666666666688" style="visibility: inherit;" fill="rgb(0, 0, 0)" stroke="rgb(204, 204, 204)" stroke-width="1px"></line><line x1="70" y1="103.83333333333353" x2="65" y2="103.83333333333353" style="visibility: inherit;" fill="rgb(0, 0, 0)" stroke="rgb(204, 204, 204)" stroke-width="1px"></line><line x1="70" y1="89.00000000000017" x2="65" y2="89.00000000000017" style="visibility: inherit;" fill="rgb(0, 0, 0)" stroke="rgb(204, 204, 204)" stroke-width="1px"></line><line x1="70" y1="74.1666666666668" x2="65" y2="74.1666666666668" style="visibility: inherit;" fill="rgb(0, 0, 0)" stroke="rgb(204, 204, 204)" stroke-width="1px"></line><line x1="70" y1="59.33333333333344" x2="65" y2="59.33333333333344" style="visibility: inherit;" fill="rgb(0, 0, 0)" stroke="rgb(204, 204, 204)" stroke-width="1px"></line><line x1="70" y1="44.500000000000085" x2="65" y2="44.500000000000085" style="visibility: inherit;" fill="rgb(0, 0, 0)" stroke="rgb(204, 204, 204)" stroke-width="1px"></line><line x1="70" y1="29.666666666666714" x2="65" y2="29.666666666666714" style="visibility: inherit;" fill="rgb(0, 0, 0)" stroke="rgb(204, 204, 204)" stroke-width="1px"></line><line x1="70" y1="14.833333333333371" x2="65" y2="14.833333333333371" style="visibility: inherit;" fill="rgb(0, 0, 0)" stroke="rgb(204, 204, 204)" stroke-width="1px"></line><line x1="70" y1="0" x2="65" y2="0" style="visibility: inherit;" fill="rgb(0, 0, 0)" stroke="rgb(204, 204, 204)" stroke-width="1px"></line></g><g transform="translate(60, 0)"><text x="0" y="163.16666666666663" dx="0em" dy="0.3em" style="text-anchor: end; visibility: inherit; font-family: &quot;Helvetica Neue&quot;, sans-serif; font-size: 12px; font-weight: 200;" fill="rgb(50, 49, 63)" stroke="none" stroke-width="1px">0.56</text><text x="0" y="148.3333333333336" dx="0em" dy="0.3em" style="text-anchor: end; visibility: hidden; font-family: &quot;Helvetica Neue&quot;, sans-serif; font-size: 12px; font-weight: 200;" fill="rgb(50, 49, 63)" stroke="none" stroke-width="1px">0.565</text><text x="0" y="133.50000000000026" dx="0em" dy="0.3em" style="text-anchor: end; visibility: inherit; font-family: &quot;Helvetica Neue&quot;, sans-serif; font-size: 12px; font-weight: 200;" fill="rgb(50, 49, 63)" stroke="none" stroke-width="1px">0.57</text><text x="0" y="118.66666666666688" dx="0em" dy="0.3em" style="text-anchor: end; visibility: hidden; font-family: &quot;Helvetica Neue&quot;, sans-serif; font-size: 12px; font-weight: 200;" fill="rgb(50, 49, 63)" stroke="none" stroke-width="1px">0.575</text><text x="0" y="103.83333333333353" dx="0em" dy="0.3em" style="text-anchor: end; visibility: inherit; font-family: &quot;Helvetica Neue&quot;, sans-serif; font-size: 12px; font-weight: 200;" fill="rgb(50, 49, 63)" stroke="none" stroke-width="1px">0.58</text><text x="0" y="89.00000000000017" dx="0em" dy="0.3em" style="text-anchor: end; visibility: hidden; font-family: &quot;Helvetica Neue&quot;, sans-serif; font-size: 12px; font-weight: 200;" fill="rgb(50, 49, 63)" stroke="none" stroke-width="1px">0.585</text><text x="0" y="74.1666666666668" dx="0em" dy="0.3em" style="text-anchor: end; visibility: inherit; font-family: &quot;Helvetica Neue&quot;, sans-serif; font-size: 12px; font-weight: 200;" fill="rgb(50, 49, 63)" stroke="none" stroke-width="1px">0.59</text><text x="0" y="59.33333333333344" dx="0em" dy="0.3em" style="text-anchor: end; visibility: hidden; font-family: &quot;Helvetica Neue&quot;, sans-serif; font-size: 12px; font-weight: 200;" fill="rgb(50, 49, 63)" stroke="none" stroke-width="1px">0.595</text><text x="0" y="44.500000000000085" dx="0em" dy="0.3em" style="text-anchor: end; visibility: inherit; font-family: &quot;Helvetica Neue&quot;, sans-serif; font-size: 12px; font-weight: 200;" fill="rgb(50, 49, 63)" stroke="none" stroke-width="1px">0.6</text><text x="0" y="29.666666666666714" dx="0em" dy="0.3em" style="text-anchor: end; visibility: hidden; font-family: &quot;Helvetica Neue&quot;, sans-serif; font-size: 12px; font-weight: 200;" fill="rgb(50, 49, 63)" stroke="none" stroke-width="1px">0.605</text><text x="0" y="14.833333333333371" dx="0em" dy="0.3em" style="text-anchor: end; visibility: inherit; font-family: &quot;Helvetica Neue&quot;, sans-serif; font-size: 12px; font-weight: 200;" fill="rgb(50, 49, 63)" stroke="none" stroke-width="1px">0.61</text><text x="0" y="0" dx="0em" dy="0.3em" style="text-anchor: end; visibility: hidden; font-family: &quot;Helvetica Neue&quot;, sans-serif; font-size: 12px; font-weight: 200;" fill="rgb(50, 49, 63)" stroke="none" stroke-width="1px">0.615</text></g><line x1="70" y1="0" x2="70" y2="178" fill="rgb(0, 0, 0)" stroke="rgb(204, 204, 204)" stroke-width="1px"></line></g></g><g transform="translate(70, 0)" clip-path="url(#clip_0)"><clipPath id="clip_0"><rect width="260" height="178"></rect></clipPath><g><g><g><line x1="0" y1="0" x2="0" y2="178" fill="rgb(0, 0, 0)" stroke="rgb(60, 60, 60)" stroke-width="1px" opacity="0.25"></line><line x1="18.57142857142857" y1="0" x2="18.57142857142857" y2="178" fill="rgb(0, 0, 0)" stroke="rgb(60, 60, 60)" stroke-width="1px" opacity="0.25"></line><line x1="37.14285714285714" y1="0" x2="37.14285714285714" y2="178" fill="rgb(0, 0, 0)" stroke="rgb(60, 60, 60)" stroke-width="1px" opacity="0.25"></line><line x1="55.71428571428571" y1="0" x2="55.71428571428571" y2="178" fill="rgb(0, 0, 0)" stroke="rgb(60, 60, 60)" stroke-width="1px" opacity="0.25"></line><line x1="74.28571428571428" y1="0" x2="74.28571428571428" y2="178" fill="rgb(0, 0, 0)" stroke="rgb(60, 60, 60)" stroke-width="1px" opacity="0.25"></line><line x1="92.85714285714286" y1="0" x2="92.85714285714286" y2="178" fill="rgb(0, 0, 0)" stroke="rgb(60, 60, 60)" stroke-width="1px" opacity="0.25"></line><line x1="111.42857142857142" y1="0" x2="111.42857142857142" y2="178" fill="rgb(0, 0, 0)" stroke="rgb(60, 60, 60)" stroke-width="1px" opacity="0.25"></line><line x1="130" y1="0" x2="130" y2="178" fill="rgb(0, 0, 0)" stroke="rgb(60, 60, 60)" stroke-width="1px" opacity="0.25"></line><line x1="148.57142857142856" y1="0" x2="148.57142857142856" y2="178" fill="rgb(0, 0, 0)" stroke="rgb(60, 60, 60)" stroke-width="1px" opacity="0.25"></line><line x1="167.14285714285717" y1="0" x2="167.14285714285717" y2="178" fill="rgb(0, 0, 0)" stroke="rgb(60, 60, 60)" stroke-width="1px" opacity="0.25"></line><line x1="185.71428571428572" y1="0" x2="185.71428571428572" y2="178" fill="rgb(0, 0, 0)" stroke="rgb(60, 60, 60)" stroke-width="1px" opacity="0.25"></line><line x1="204.28571428571428" y1="0" x2="204.28571428571428" y2="178" fill="rgb(0, 0, 0)" stroke="rgb(60, 60, 60)" stroke-width="1px" opacity="0.25"></line><line x1="222.85714285714283" y1="0" x2="222.85714285714283" y2="178" fill="rgb(0, 0, 0)" stroke="rgb(60, 60, 60)" stroke-width="1px" opacity="0.25"></line><line x1="241.42857142857144" y1="0" x2="241.42857142857144" y2="178" fill="rgb(0, 0, 0)" stroke="rgb(60, 60, 60)" stroke-width="1px" opacity="0.25"></line><line x1="260" y1="0" x2="260" y2="178" fill="rgb(0, 0, 0)" stroke="rgb(60, 60, 60)" stroke-width="1px" opacity="0.25"></line></g><g><line x1="0" y1="163.16666666666663" x2="260" y2="163.16666666666663" fill="rgb(0, 0, 0)" stroke="rgb(60, 60, 60)" stroke-width="1px" opacity="0.25"></line><line x1="0" y1="148.3333333333336" x2="260" y2="148.3333333333336" fill="rgb(0, 0, 0)" stroke="rgb(60, 60, 60)" stroke-width="1px" opacity="0.25"></line><line x1="0" y1="133.50000000000026" x2="260" y2="133.50000000000026" fill="rgb(0, 0, 0)" stroke="rgb(60, 60, 60)" stroke-width="1px" opacity="0.25"></line><line x1="0" y1="118.66666666666688" x2="260" y2="118.66666666666688" fill="rgb(0, 0, 0)" stroke="rgb(60, 60, 60)" stroke-width="1px" opacity="0.25"></line><line x1="0" y1="103.83333333333353" x2="260" y2="103.83333333333353" fill="rgb(0, 0, 0)" stroke="rgb(60, 60, 60)" stroke-width="1px" opacity="0.25"></line><line x1="0" y1="89.00000000000017" x2="260" y2="89.00000000000017" fill="rgb(0, 0, 0)" stroke="rgb(60, 60, 60)" stroke-width="1px" opacity="0.25"></line><line x1="0" y1="74.1666666666668" x2="260" y2="74.1666666666668" fill="rgb(0, 0, 0)" stroke="rgb(60, 60, 60)" stroke-width="1px" opacity="0.25"></line><line x1="0" y1="59.33333333333344" x2="260" y2="59.33333333333344" fill="rgb(0, 0, 0)" stroke="rgb(60, 60, 60)" stroke-width="1px" opacity="0.25"></line><line x1="0" y1="44.500000000000085" x2="260" y2="44.500000000000085" fill="rgb(0, 0, 0)" stroke="rgb(60, 60, 60)" stroke-width="1px" opacity="0.25"></line><line x1="0" y1="29.666666666666714" x2="260" y2="29.666666666666714" fill="rgb(0, 0, 0)" stroke="rgb(60, 60, 60)" stroke-width="1px" opacity="0.25"></line><line x1="0" y1="14.833333333333371" x2="260" y2="14.833333333333371" fill="rgb(0, 0, 0)" stroke="rgb(60, 60, 60)" stroke-width="1px" opacity="0.25"></line><line x1="0" y1="0" x2="260" y2="0" fill="rgb(0, 0, 0)" stroke="rgb(60, 60, 60)" stroke-width="1px" opacity="0.25"></line></g></g></g><g><g><line x1="0" y1="1824.5000000000016" x2="260" y2="1824.5000000000016" fill="rgb(0, 0, 0)" stroke="rgb(153, 153, 153)" stroke-width="1.5px"></line></g></g><g><g><line x1="18.57142857142857" y1="0" x2="18.57142857142857" y2="178" fill="rgb(0, 0, 0)" stroke="rgb(153, 153, 153)" stroke-width="1.5px"></line></g></g><g><g><g><g><g><path style="fill: none;" stroke="rgb(255, 112, 67)" stroke-width="2px" d="M20.428571428571427,56.79701717694603L22.285714285714285,61.60063621401791L24.142857142857142,349.3228767899433L27.857142857142854,197.65644301007052L29.71428571428571,112.757523608483L31.57142857142857,73.91467178377889L33.42857142857142,23.175670290003552L35.285714285714285,8.811096701366665L37.14285714285714,229.1651599721161L39,116.77041877818516L40.857142857142854,68.08096671374838L42.714285714285715,45.0918180272287L44.57142857142857,74.391033588059L46.42857142857143,122.71291905466788L48.285714285714285,68.66295967837172L50.142857142857146,45.4671129476898L52,136.08771659139677L53.85714285714286,92.07170212453471L55.71428571428571,19.54815931090559L57.57142857142857,-5.518321235656373L59.42857142857142,142.3804276832935L61.285714285714285,101.99825366475979L63.14285714285714,37.80349017377151L65,17.732493375001184L66.85714285714285,33.35832955060053L68.71428571428572,70.40226378371166L70.57142857142857,34.21747619879238L72.42857142857143,64.76916347887867L74.28571428571428,46.20900285968858L76.14285714285715,31.99866325353989L78,48.06656773829948L79.85714285714286,54.63306401104701L81.71428571428571,49.35015422028323L83.57142857142858,58.47746119646024L85.42857142857143,48.58247639710575L87.28571428571428,36.49699463899955L89.14285714285714,59.98837246750101L91,52.56333942897528L92.85714285714286,78.85098637888589L94.71428571428571,63.880907780341374L96.57142857142857,45.67605353497325L98.42857142857143,37.827386447127424L100.28571428571429,45.415238740369546L102.14285714285714,59.19075720592002L104,88.97592791753208L105.85714285714286,63.80731107798715L107.71428571428572,79.44880769689698L109.57142857142857,67.31384603587237L111.42857142857142,38.51300940733188L113.28571428571429,76.56927923670608L115.14285714285714,84.03174313891823L117,54.692309305947674L118.85714285714285,43.23713991196652L120.71428571428572,76.32951208644224L122.57142857142857,90.03637375450519L124.42857142857143,110.55754329771149L126.28571428571428,95.20189448601005L128.14285714285714,147.4738386416835L130,157.31714550322764L131.85714285714286,147.85176089405863L133.7142857142857,123.72691594958144L135.57142857142858,109.25200898289599L137.42857142857144,100.56706480288446L139.28571428571428,92.28185284199681L141.14285714285714,84.23648021258342L143,79.40925663493546L144.85714285714286,85.7357295778344L146.71428571428572,95.68010424933536L148.57142857142856,89.34967650986708L150.42857142857144,88.62566531906731L152.2857142857143,88.19125860458712L154.14285714285714,87.93061457589921L156,90.84854434241278L157.85714285714283,89.52498601859453L159.71428571428572,107.17646520327915L161.57142857142858,99.32173853511476L163.42857142857142,100.7574641708227L165.28571428571428,110.84170664173526L167.14285714285717,113.8180066714018L169,115.60378668920193L170.85714285714286,110.52669306327515L172.7142857142857,101.33187525111235L174.57142857142856,101.96354620042126L176.42857142857144,96.19398713339962L178.28571428571428,111.17786587216207L180.14285714285714,117.09394766253888L182,108.34654419439613L183.85714285714286,103.09810211351079L185.71428571428572,106.09752777074134L187.57142857142856,101.74869225931786L189.42857142857142,92.99082931585684L191.2857142857143,96.95891863926815L193.14285714285714,105.4883338699216L195,116.75447391407539L196.85714285714286,117.36566703480602L198.7142857142857,114.6580667235182L200.57142857142858,109.95926108386458L202.42857142857144,107.13997770007273L204.28571428571428,111.59696930640422L206.14285714285714,98.89979554410854L208,97.43005292333811L209.85714285714286,111.9195053461253L211.71428571428572,105.24187880454816L213.57142857142856,95.08674124299498L215.42857142857144,92.06790415894417L217.2857142857143,99.47940899800135L219.14285714285714,97.77782099567406L221,105.97967528376509L222.85714285714283,101.67798076713184L224.71428571428572,102.1712095100329L226.57142857142858,111.68995384526112L228.42857142857142,123.54969135216004L230.28571428571428,112.21999040816921L232.14285714285717,108.49641529465532L234,118.55932276891576L235.85714285714286,115.37426016398425L237.7142857142857,110.38897714814414L239.57142857142856,110.47205279152132L241.42857142857144,104.37340727178591" fill="none"></path></g></g></g></g><g opacity="0.2"><g><g><g><path style="fill: none;" stroke="rgb(255, 112, 67)" stroke-width="2px" d="M20.428571428571427,56.79701717694603L22.285714285714285,64.48280763626103L24.142857142857142,625.5362277428314L29.71428571428571,-4.688245534896879L31.57142857142857,18.36877218882242L33.42857142857142,-50.802280982335475L40.857142857142854,-4.688245534896879L42.714285714285715,10.68315855662027L44.57142857142857,118.28245671590179L46.42857142857143,195.138946692149L48.285714285714285,-12.373859167099027L50.142857142857146,10.68315855662027L52,271.9956134955091L53.85714285714286,26.054385821024567L55.71428571428571,-89.2305259704591L59.42857142857142,364.2236843903863L61.285714285714285,41.42578991254172L63.14285714285714,-58.48789461453762L65,-12.373859167099027L66.85714285714285,56.79701717694603L68.71428571428572,125.96807034810394L70.57142857142857,-20.05964962641403L72.42857142857143,110.59666625658679L74.28571428571428,18.36877218882242L76.14285714285715,10.68315855662027L78,72.16842126846318L79.85714285714286,64.48280763626103L81.71428571428571,41.42578991254172L83.57142857142858,72.16842126846318L85.42857142857143,33.739999453226744L87.28571428571428,18.36877218882242L89.14285714285714,95.22543899218248L91,41.42578991254172L92.85714285714286,118.28245671590179L94.71428571428571,41.42578991254172L96.57142857142857,18.36877218882242L98.42857142857143,26.054385821024567L100.28571428571429,56.79701717694603L102.14285714285714,79.85403490066534L104,133.65368398030608L105.85714285714286,26.054385821024567L107.71428571428572,102.91105262438464L109.57142857142857,49.111403544743894L111.42857142857142,-4.688245534896879L113.28571428571429,133.65368398030608L115.14285714285714,95.22543899218248L117,10.68315855662027L118.85714285714285,26.054385821024567L120.71428571428572,125.96807034810394L122.57142857142857,110.59666625658679L124.42857142857143,141.33929761250823L126.28571428571428,72.16842126846318L128.14285714285714,225.88175487518328L130,172.08210579554253L131.85714285714286,133.65368398030608L133.7142857142857,87.53964853286749L135.57142857142858,87.53964853286749L137.42857142857144,87.53964853286749L139.28571428571428,79.85403490066534L141.14285714285714,72.16842126846318L143,72.16842126846318L144.85714285714286,95.22543899218248L146.71428571428572,110.59666625658679L148.57142857142856,79.85403490066534L150.42857142857144,87.53964853286749L152.2857142857143,87.53964853286749L154.14285714285714,87.53964853286749L156,95.22543899218248L157.85714285714283,87.53964853286749L159.71428571428572,133.65368398030608L161.57142857142858,87.53964853286749L163.42857142857142,102.91105262438464L165.28571428571428,125.96807034810394L167.14285714285717,118.28245671590179L169,118.28245671590179L170.85714285714286,102.91105262438464L172.7142857142857,87.53964853286749L174.57142857142856,102.91105262438464L176.42857142857144,87.53964853286749L178.28571428571428,133.65368398030608L180.14285714285714,125.96807034810394L182,95.22543899218248L183.85714285714286,95.22543899218248L185.71428571428572,110.59666625658679L187.57142857142856,95.22543899218248L189.42857142857142,79.85403490066534L191.2857142857143,102.91105262438464L193.14285714285714,118.28245671590179L195,133.65368398030608L196.85714285714286,118.28245671590179L198.7142857142857,110.59666625658679L200.57142857142858,102.91105262438464L202.42857142857144,102.91105262438464L204.28571428571428,118.28245671590179L206.14285714285714,79.85403490066534L208,95.22543899218248L209.85714285714286,133.65368398030608L211.71428571428572,95.22543899218248L213.57142857142856,79.85403490066534L215.42857142857144,87.53964853286749L217.2857142857143,110.59666625658679L219.14285714285714,95.22543899218248L221,118.28245671590179L222.85714285714283,95.22543899218248L224.71428571428572,102.91105262438464L226.57142857142858,125.96807034810394L228.42857142857142,141.33929761250823L230.28571428571428,95.22543899218248L232.14285714285717,102.91105262438464L234,133.65368398030608L235.85714285714286,110.59666625658679L237.7142857142857,102.91105262438464L239.57142857142856,110.59666625658679L241.42857142857144,95.22543899218248" fill="none"></path></g></g></g></g></g></g><g transform="translate(70, 178)" clip-path="url(#clip_1)"><clipPath id="clip_1"><rect width="260" height="22"></rect></clipPath><g><g><line x1="0" y1="0" x2="0" y2="5" style="visibility: inherit;" fill="rgb(0, 0, 0)" stroke="rgb(204, 204, 204)" stroke-width="1px"></line><line x1="18.57142857142857" y1="0" x2="18.57142857142857" y2="5" style="visibility: inherit;" fill="rgb(0, 0, 0)" stroke="rgb(204, 204, 204)" stroke-width="1px"></line><line x1="37.14285714285714" y1="0" x2="37.14285714285714" y2="5" style="visibility: inherit;" fill="rgb(0, 0, 0)" stroke="rgb(204, 204, 204)" stroke-width="1px"></line><line x1="55.71428571428571" y1="0" x2="55.71428571428571" y2="5" style="visibility: inherit;" fill="rgb(0, 0, 0)" stroke="rgb(204, 204, 204)" stroke-width="1px"></line><line x1="74.28571428571428" y1="0" x2="74.28571428571428" y2="5" style="visibility: inherit;" fill="rgb(0, 0, 0)" stroke="rgb(204, 204, 204)" stroke-width="1px"></line><line x1="92.85714285714286" y1="0" x2="92.85714285714286" y2="5" style="visibility: inherit;" fill="rgb(0, 0, 0)" stroke="rgb(204, 204, 204)" stroke-width="1px"></line><line x1="111.42857142857142" y1="0" x2="111.42857142857142" y2="5" style="visibility: inherit;" fill="rgb(0, 0, 0)" stroke="rgb(204, 204, 204)" stroke-width="1px"></line><line x1="130" y1="0" x2="130" y2="5" style="visibility: inherit;" fill="rgb(0, 0, 0)" stroke="rgb(204, 204, 204)" stroke-width="1px"></line><line x1="148.57142857142856" y1="0" x2="148.57142857142856" y2="5" style="visibility: inherit;" fill="rgb(0, 0, 0)" stroke="rgb(204, 204, 204)" stroke-width="1px"></line><line x1="167.14285714285717" y1="0" x2="167.14285714285717" y2="5" style="visibility: inherit;" fill="rgb(0, 0, 0)" stroke="rgb(204, 204, 204)" stroke-width="1px"></line><line x1="185.71428571428572" y1="0" x2="185.71428571428572" y2="5" style="visibility: inherit;" fill="rgb(0, 0, 0)" stroke="rgb(204, 204, 204)" stroke-width="1px"></line><line x1="204.28571428571428" y1="0" x2="204.28571428571428" y2="5" style="visibility: inherit;" fill="rgb(0, 0, 0)" stroke="rgb(204, 204, 204)" stroke-width="1px"></line><line x1="222.85714285714283" y1="0" x2="222.85714285714283" y2="5" style="visibility: inherit;" fill="rgb(0, 0, 0)" stroke="rgb(204, 204, 204)" stroke-width="1px"></line><line x1="241.42857142857144" y1="0" x2="241.42857142857144" y2="5" style="visibility: inherit;" fill="rgb(0, 0, 0)" stroke="rgb(204, 204, 204)" stroke-width="1px"></line><line x1="260" y1="0" x2="260" y2="5" style="visibility: inherit;" fill="rgb(0, 0, 0)" stroke="rgb(204, 204, 204)" stroke-width="1px"></line></g><g transform="translate(0, 8)"><text x="0" y="0" dx="0em" dy="0.95em" style="text-anchor: middle; visibility: hidden; font-family: &quot;Helvetica Neue&quot;, sans-serif; font-size: 12px; font-weight: 200;" fill="rgb(50, 49, 63)" stroke="none" stroke-width="1px">-10</text><text x="18.57142857142857" y="0" dx="0em" dy="0.95em" style="text-anchor: middle; visibility: inherit; font-family: &quot;Helvetica Neue&quot;, sans-serif; font-size: 12px; font-weight: 200;" fill="rgb(50, 49, 63)" stroke="none" stroke-width="1px">0</text><text x="37.14285714285714" y="0" dx="0em" dy="0.95em" style="text-anchor: middle; visibility: hidden; font-family: &quot;Helvetica Neue&quot;, sans-serif; font-size: 12px; font-weight: 200;" fill="rgb(50, 49, 63)" stroke="none" stroke-width="1px">10</text><text x="55.71428571428571" y="0" dx="0em" dy="0.95em" style="text-anchor: middle; visibility: inherit; font-family: &quot;Helvetica Neue&quot;, sans-serif; font-size: 12px; font-weight: 200;" fill="rgb(50, 49, 63)" stroke="none" stroke-width="1px">20</text><text x="74.28571428571428" y="0" dx="0em" dy="0.95em" style="text-anchor: middle; visibility: hidden; font-family: &quot;Helvetica Neue&quot;, sans-serif; font-size: 12px; font-weight: 200;" fill="rgb(50, 49, 63)" stroke="none" stroke-width="1px">30</text><text x="92.85714285714286" y="0" dx="0em" dy="0.95em" style="text-anchor: middle; visibility: inherit; font-family: &quot;Helvetica Neue&quot;, sans-serif; font-size: 12px; font-weight: 200;" fill="rgb(50, 49, 63)" stroke="none" stroke-width="1px">40</text><text x="111.42857142857142" y="0" dx="0em" dy="0.95em" style="text-anchor: middle; visibility: hidden; font-family: &quot;Helvetica Neue&quot;, sans-serif; font-size: 12px; font-weight: 200;" fill="rgb(50, 49, 63)" stroke="none" stroke-width="1px">50</text><text x="130" y="0" dx="0em" dy="0.95em" style="text-anchor: middle; visibility: inherit; font-family: &quot;Helvetica Neue&quot;, sans-serif; font-size: 12px; font-weight: 200;" fill="rgb(50, 49, 63)" stroke="none" stroke-width="1px">60</text><text x="148.57142857142856" y="0" dx="0em" dy="0.95em" style="text-anchor: middle; visibility: hidden; font-family: &quot;Helvetica Neue&quot;, sans-serif; font-size: 12px; font-weight: 200;" fill="rgb(50, 49, 63)" stroke="none" stroke-width="1px">70</text><text x="167.14285714285717" y="0" dx="0em" dy="0.95em" style="text-anchor: middle; visibility: inherit; font-family: &quot;Helvetica Neue&quot;, sans-serif; font-size: 12px; font-weight: 200;" fill="rgb(50, 49, 63)" stroke="none" stroke-width="1px">80</text><text x="185.71428571428572" y="0" dx="0em" dy="0.95em" style="text-anchor: middle; visibility: hidden; font-family: &quot;Helvetica Neue&quot;, sans-serif; font-size: 12px; font-weight: 200;" fill="rgb(50, 49, 63)" stroke="none" stroke-width="1px">90</text><text x="204.28571428571428" y="0" dx="0em" dy="0.95em" style="text-anchor: middle; visibility: inherit; font-family: &quot;Helvetica Neue&quot;, sans-serif; font-size: 12px; font-weight: 200;" fill="rgb(50, 49, 63)" stroke="none" stroke-width="1px">100</text><text x="222.85714285714283" y="0" dx="0em" dy="0.95em" style="text-anchor: middle; visibility: hidden; font-family: &quot;Helvetica Neue&quot;, sans-serif; font-size: 12px; font-weight: 200;" fill="rgb(50, 49, 63)" stroke="none" stroke-width="1px">110</text><text x="241.42857142857144" y="0" dx="0em" dy="0.95em" style="text-anchor: middle; visibility: inherit; font-family: &quot;Helvetica Neue&quot;, sans-serif; font-size: 12px; font-weight: 200;" fill="rgb(50, 49, 63)" stroke="none" stroke-width="1px">120</text><text x="260" y="0" dx="0em" dy="0.95em" style="text-anchor: middle; visibility: hidden; font-family: &quot;Helvetica Neue&quot;, sans-serif; font-size: 12px; font-weight: 200;" fill="rgb(50, 49, 63)" stroke="none" stroke-width="1px">130</text></g><line x1="0" y1="0" x2="260" y2="0" fill="rgb(0, 0, 0)" stroke="rgb(204, 204, 204)" stroke-width="1px"></line></g></g></g></g></svg>