<svg viewBox="0 0 330 200" xmlns="http://www.w3.org/2000/svg"><g><g><g><g><g><line x1="58" y1="178" x2="53" y2="178" style="visibility: inherit;" fill="rgb(0, 0, 0)" stroke="rgb(204, 204, 204)" stroke-width="1px"></line><line x1="58" y1="155.74999999999997" x2="53" y2="155.74999999999997" style="visibility: inherit;" fill="rgb(0, 0, 0)" stroke="rgb(204, 204, 204)" stroke-width="1px"></line><line x1="58" y1="133.49999999999994" x2="53" y2="133.49999999999994" style="visibility: inherit;" fill="rgb(0, 0, 0)" stroke="rgb(204, 204, 204)" stroke-width="1px"></line><line x1="58" y1="111.25000000000016" x2="53" y2="111.25000000000016" style="visibility: inherit;" fill="rgb(0, 0, 0)" stroke="rgb(204, 204, 204)" stroke-width="1px"></line><line x1="58" y1="89.00000000000013" x2="53" y2="89.00000000000013" style="visibility: inherit;" fill="rgb(0, 0, 0)" stroke="rgb(204, 204, 204)" stroke-width="1px"></line><line x1="58" y1="66.7500000000001" x2="53" y2="66.7500000000001" style="visibility: inherit;" fill="rgb(0, 0, 0)" stroke="rgb(204, 204, 204)" stroke-width="1px"></line><line x1="58" y1="44.50000000000006" x2="53" y2="44.50000000000006" style="visibility: inherit;" fill="rgb(0, 0, 0)" stroke="rgb(204, 204, 204)" stroke-width="1px"></line><line x1="58" y1="22.25000000000003" x2="53" y2="22.25000000000003" style="visibility: inherit;" fill="rgb(0, 0, 0)" stroke="rgb(204, 204, 204)" stroke-width="1px"></line><line x1="58" y1="0" x2="53" y2="0" style="visibility: inherit;" fill="rgb(0, 0, 0)" stroke="rgb(204, 204, 204)" stroke-width="1px"></line></g><g transform="translate(48, 0)"><text x="0" y="178" dx="0em" dy="0.3em" style="text-anchor: end; visibility: hidden; font-family: &quot;Helvetica Neue&quot;, sans-serif; font-size: 12px; font-weight: 200;" fill="rgb(50, 49, 63)" stroke="none" stroke-width="1px">0.54</text><text x="0" y="155.74999999999997" dx="0em" dy="0.3em" style="text-anchor: end; visibility: inherit; font-family: &quot;Helvetica Neue&quot;, sans-serif; font-size: 12px; font-weight: 200;" fill="rgb(50, 49, 63)" stroke="none" stroke-width="1px">0.55</text><text x="0" y="133.49999999999994" dx="0em" dy="0.3em" style="text-anchor: end; visibility: hidden; font-family: &quot;Helvetica Neue&quot;, sans-serif; font-size: 12px; font-weight: 200;" fill="rgb(50, 49, 63)" stroke="none" stroke-width="1px">0.56</text><text x="0" y="111.25000000000016" dx="0em" dy="0.3em" style="text-anchor: end; visibility: inherit; font-family: &quot;Helvetica Neue&quot;, sans-serif; font-size: 12px; font-weight: 200;" fill="rgb(50, 49, 63)" stroke="none" stroke-width="1px">0.57</text><text x="0" y="89.00000000000013" dx="0em" dy="0.3em" style="text-anchor: end; visibility: hidden; font-family: &quot;Helvetica Neue&quot;, sans-serif; font-size: 12px; font-weight: 200;" fill="rgb(50, 49, 63)" stroke="none" stroke-width="1px">0.58</text><text x="0" y="66.7500000000001" dx="0em" dy="0.3em" style="text-anchor: end; visibility: inherit; font-family: &quot;Helvetica Neue&quot;, sans-serif; font-size: 12px; font-weight: 200;" fill="rgb(50, 49, 63)" stroke="none" stroke-width="1px">0.59</text><text x="0" y="44.50000000000006" dx="0em" dy="0.3em" style="text-anchor: end; visibility: hidden; font-family: &quot;Helvetica Neue&quot;, sans-serif; font-size: 12px; font-weight: 200;" fill="rgb(50, 49, 63)" stroke="none" stroke-width="1px">0.6</text><text x="0" y="22.25000000000003" dx="0em" dy="0.3em" style="text-anchor: end; visibility: inherit; font-family: &quot;Helvetica Neue&quot;, sans-serif; font-size: 12px; font-weight: 200;" fill="rgb(50, 49, 63)" stroke="none" stroke-width="1px">0.61</text><text x="0" y="0" dx="0em" dy="0.3em" style="text-anchor: end; visibility: hidden; font-family: &quot;Helvetica Neue&quot;, sans-serif; font-size: 12px; font-weight: 200;" fill="rgb(50, 49, 63)" stroke="none" stroke-width="1px">0.62</text></g><line x1="58" y1="0" x2="58" y2="178" fill="rgb(0, 0, 0)" stroke="rgb(204, 204, 204)" stroke-width="1px"></line></g></g><g transform="translate(58, 0)" clip-path="url(#clip_0)"><clipPath id="clip_0"><rect width="272" height="178"></rect></clipPath><g><g><g><line x1="0" y1="0" x2="0" y2="178" fill="rgb(0, 0, 0)" stroke="rgb(60, 60, 60)" stroke-width="1px" opacity="0.25"></line><line x1="34" y1="0" x2="34" y2="178" fill="rgb(0, 0, 0)" stroke="rgb(60, 60, 60)" stroke-width="1px" opacity="0.25"></line><line x1="68" y1="0" x2="68" y2="178" fill="rgb(0, 0, 0)" stroke="rgb(60, 60, 60)" stroke-width="1px" opacity="0.25"></line><line x1="102" y1="0" x2="102" y2="178" fill="rgb(0, 0, 0)" stroke="rgb(60, 60, 60)" stroke-width="1px" opacity="0.25"></line><line x1="136" y1="0" x2="136" y2="178" fill="rgb(0, 0, 0)" stroke="rgb(60, 60, 60)" stroke-width="1px" opacity="0.25"></line><line x1="170" y1="0" x2="170" y2="178" fill="rgb(0, 0, 0)" stroke="rgb(60, 60, 60)" stroke-width="1px" opacity="0.25"></line><line x1="204" y1="0" x2="204" y2="178" fill="rgb(0, 0, 0)" stroke="rgb(60, 60, 60)" stroke-width="1px" opacity="0.25"></line><line x1="238" y1="0" x2="238" y2="178" fill="rgb(0, 0, 0)" stroke="rgb(60, 60, 60)" stroke-width="1px" opacity="0.25"></line><line x1="272" y1="0" x2="272" y2="178" fill="rgb(0, 0, 0)" stroke="rgb(60, 60, 60)" stroke-width="1px" opacity="0.25"></line></g><g><line x1="0" y1="178" x2="272" y2="178" fill="rgb(0, 0, 0)" stroke="rgb(60, 60, 60)" stroke-width="1px" opacity="0.25"></line><line x1="0" y1="155.74999999999997" x2="272" y2="155.74999999999997" fill="rgb(0, 0, 0)" stroke="rgb(60, 60, 60)" stroke-width="1px" opacity="0.25"></line><line x1="0" y1="133.49999999999994" x2="272" y2="133.49999999999994" fill="rgb(0, 0, 0)" stroke="rgb(60, 60, 60)" stroke-width="1px" opacity="0.25"></line><line x1="0" y1="111.25000000000016" x2="272" y2="111.25000000000016" fill="rgb(0, 0, 0)" stroke="rgb(60, 60, 60)" stroke-width="1px" opacity="0.25"></line><line x1="0" y1="89.00000000000013" x2="272" y2="89.00000000000013" fill="rgb(0, 0, 0)" stroke="rgb(60, 60, 60)" stroke-width="1px" opacity="0.25"></line><line x1="0" y1="66.7500000000001" x2="272" y2="66.7500000000001" fill="rgb(0, 0, 0)" stroke="rgb(60, 60, 60)" stroke-width="1px" opacity="0.25"></line><line x1="0" y1="44.50000000000006" x2="272" y2="44.50000000000006" fill="rgb(0, 0, 0)" stroke="rgb(60, 60, 60)" stroke-width="1px" opacity="0.25"></line><line x1="0" y1="22.25000000000003" x2="272" y2="22.25000000000003" fill="rgb(0, 0, 0)" stroke="rgb(60, 60, 60)" stroke-width="1px" opacity="0.25"></line><line x1="0" y1="0" x2="272" y2="0" fill="rgb(0, 0, 0)" stroke="rgb(60, 60, 60)" stroke-width="1px" opacity="0.25"></line></g></g></g><g><g><line x1="0" y1="1379.5000000000007" x2="272" y2="1379.5000000000007" fill="rgb(0, 0, 0)" stroke="rgb(153, 153, 153)" stroke-width="1.5px"></line></g></g><g><g><line x1="34" y1="0" x2="34" y2="178" fill="rgb(0, 0, 0)" stroke="rgb(153, 153, 153)" stroke-width="1.5px"></line></g></g><g><g><g><g><g><path stroke="rgb(255, 112, 67)" stroke-width="2px" d="M35.36,251.88451447337877L36.04,111.52636691988748L36.72,271.8902980462815L37.400000000000006,154.38386010612857L38.080000000000005,150.89813226010472L38.76,248.4389517250243L39.44,118.24175471583571L40.12,256.52999206626305L40.8,134.2175258995112L41.48,226.36045030491252L42.16,155.39660069528355L42.84,141.97696902463832L43.52,46.802884935651804L44.2,18.78157386909365L44.88,-7.6994188872696725L45.56,92.52340230622981L46.24,84.92198348767084L46.919999999999995,31.98907194445752L47.599999999999994,19.579971362881906L48.28,-26.561743494490997L48.96,-54.24612458693417L49.64,103.27530145326202L50.32,43.00400265393631L51,-12.50647032921077L53.04,-62.695207305193634L53.72,1.4655240980609676L54.400000000000006,194.7445803452012L55.080000000000005,165.60327991946608L55.76,80.40106854110108L56.44,38.953657252879424L57.12,4.411300732425019L57.8,-6.640201643114068L58.48,-3.5971390618952057L59.16,17.576520060560256L59.84,39.95462622312908L60.52,63.055400626080655L61.2,57.56804373497417L61.88,73.6234510945983L62.56,83.256695502131L63.24,69.68882066402217L63.919999999999995,80.89591724109131L64.6,116.64190740021988L65.28,80.04603706747308L65.96,58.088514869285746L66.64,54.58791228815383L67.32,42.813640002357175L68,55.096898105212006L68.68,81.81467444103082L69.36,68.82360803124178L70.04,22.333272189040457L70.72,62.15649889124015L71.4,47.35479196435833L72.08,77.16941075640027L72.76,114.40600350569801L73.44,98.05231620711527L74.12,97.91401456500552L74.80000000000001,117.17885505381602L75.48,128.7377593471019L76.16000000000001,145.34701266011083L76.83999999999999,145.63865391087808L77.52,155.48754939837653L78.19999999999999,142.04906521679993L78.88,143.65988544489156L79.56,134.9524668447091L80.24,129.72801568459968L80.92,126.59334498853387L81.6,124.7125425708941L82.28,113.91015038327296L82.96,97.75480433366236L83.64,97.73550744093383L84.32,88.05001856825913L85,91.91263598169193L85.68,94.23020642975148L86.36,95.62074869858749L87.04,86.78116332285124L87.72,81.47741209740958L88.4,87.96907209918216L89.08,82.19015736320804L89.76,98.07062999569894L90.44,107.59891357519332L91.12,103.64197298585245L91.80000000000001,101.26780863224778L92.48,90.16939928304737L93.16000000000001,83.5103536735273L93.83999999999999,89.18883704485285L94.52,82.9220163306105L95.19999999999999,98.50974537614036L95.88,98.18847206642067L96.56,107.66961881762657L97.24,123.03221760538753L97.92,112.90195540396883L98.6,116.49770882015545L99.28,128.32907160690505L99.96,116.08006780487949L100.64,128.07848699773947L101.32,96.58189556530466L102,106.70567291695696L102.68,103.10602859091043L103.36,100.94624199528272L104.04,118.9981915119813L104.72,120.1554504849629L105.4,120.84980586875186L106.08,121.26641909902514L106.76,131.19029777422685L107.44,108.12289276823485L108.12,113.63027123871488L108.80000000000001,97.58687684692748L109.48,97.63475094889294L110.16000000000001,107.33738614710978L110.83999999999999,103.48505652900246L111.52,120.52148023221321L112.19999999999999,121.06942371710196L112.88,121.39818980803528L113.56,121.5954494625953L114.24,121.71380525533124L114.92,112.11090799393516L115.6,106.34916963709735L116.28,102.89212662299501L116.96,91.14399007749556L117.64,84.09510815019603L118.32,99.21360046789158L119,88.93687438443355L119.68,102.11866020843424L120.36,100.353820965797L121.04,89.62100668317674L121.72,92.85522885064245L122.4,85.12185141408432L123.08,80.48182495214944L123.76,77.69780907498838L124.44,85.70131028572935L125.12,100.17732174921157L125.80000000000001,99.18901789026334L126.48,98.59603557489432L127.16000000000001,107.91415692271056L127.83999999999999,113.50502973140036L128.51999999999998,107.18564267957676L129.2,93.72009971144476L129.88,85.64077393056574L130.56,90.46708919907586L131.24,103.03678909721967L131.92,100.90469829906822L132.6,99.62544382017732L133.28,108.53180186988051L133.96,104.20170596266476L134.64,82.25582694426004L135.32,88.43612100729243L136,92.14429744511186L136.67999999999998,94.36920330780357L137.36,95.7041468254186L138.04,86.83120219894991L138.72,91.18134616010624L139.39999999999998,113.13925401087543L140.08,106.96617724726161L140.76,93.58842045205571L141.44,95.23567711196984L142.12,96.2240311079184L142.8,87.14313276844959L143.48,91.36850450180606L144.16,84.22981680478229L144.84,79.94660418656802L145.52,106.39840882675259L146.2,112.59558087382572L146.88,125.98779483910711L147.56,114.67530174420057L148.24,107.88780588725665L148.92,103.81530837309045L149.60000000000002,72.35007765347783L150.28,82.49267143282331L150.96,88.57822770043043L151.64,82.55565072395696L152.32000000000002,88.61601527511078L153,72.90441253172753L153.67999999999998,82.82527235977314L154.36,79.1038775195625L155.04,86.54495135247392L155.72,110.35741712629614L156.39999999999998,105.29707511651412L157.08,102.26086991064489L157.76,90.76523605008568L158.44,83.86785573374995L159.12,89.40333828098643L159.8,112.07244928340374L160.48,96.65218367374078L161.16,97.07393504498077L161.84,97.32698586772487L162.52,87.80490562433357L163.2,91.76556821533644L163.88,113.4897872440135L164.56,107.1764971871445L165.24,103.388523153023L165.92,91.44182799551255L166.60000000000002,84.27381090100627L167.28,89.64691138134037L167.96,83.19686093250307L168.64,98.67465213727596L169.32000000000002,107.9613268601396L170,94.1855102197823L170.67999999999998,95.59393097260569L171.36,106.11289416133748L172.04,102.75036133753899L172.72,100.7328416432598L173.39999999999998,109.19624056372996L174.08,114.27427991601195L174.76,117.32110352738113L175.44,99.80137622012732L176.12,89.28953983577495L176.8,82.98243800516352L177.48,79.19817690679686L178.16,76.92762024777684L178.84,75.56528625236474L179.52,84.4217965921553L180.2,80.06179205899188L180.88,87.11970007613144L181.56,91.35444488641527L182.24,93.89529177258561L182.92,95.41979990428773L183.60000000000002,96.33450478330894L184.28,96.88332771072177L184.96,135.90826441531993L185.64,110.9536727528907L186.32000000000002,125.0026499665461L187,123.75812555770182L187.67999999999998,113.33750017535745L188.36,107.08512494595092L189.04,113.00761054534462L189.72,106.88719116794303L190.39999999999998,112.88885027853999L191.08,126.16375648193572L191.76,114.78087872989784L192.44,107.95115207867521L193.12,103.85331608794172L193.8,101.39461449350149L194.48,90.24548279979969L195.16,102.90382525765388L195.84,91.15100925829097L196.52,93.7732303957109L197.2,75.99874160408766L197.88,84.681869803189L198.56,89.89174672264986L199.24,83.3437621372886L199.92,79.4149713860719L200.60000000000002,77.05769693534202L201.28,85.31724300194163L201.96,90.27297064190158L202.64,112.59422869995258L203.32000000000002,125.98698353478318L204,114.67481496160632L204.67999999999998,107.8875138177001L205.36,103.81513313135636L206.04,91.69779398251256L206.72,84.42739049320609L207.39999999999998,89.73905913666006L208.08,92.92606032273264L208.76,85.16435029733833L209.44,90.18123501913941L210.12,83.51745511518219L210.8,79.51918717280796L211.48,67.44631567034574L212.16,79.55041424294386L212.84,77.13896264946484L213.52,114.38773464152831L214.2,107.71526562565339L214.88,103.71178421612854L215.56,101.30969537041372L216.24,90.19453132594678L216.92,73.85152216222913L217.60000000000002,93.06744887511161L218.28,114.27091563987875L218.96,107.64517422466385L219.64,103.66972937553481L220.32000000000002,91.61055172901973L221,94.04895587814829L221.67999999999998,105.18590910466314L222.36,92.52025956649668L223.04,94.5947805806346L223.72,95.83949318911708L224.39999999999998,86.9124100171688L225.08,91.23007085103788L225.76,93.82066735135933L226.44,95.3750252515522L227.12,115.6554614657431L227.8,108.47590172018226L228.48,104.1681658728458L229.16,91.90961362740619L229.84,94.22839301718017L230.52,105.29357138808211L231.2,92.58485693654816L231.88,94.6335390026652L232.56,95.86274824233557L233.24,86.92636304909995L233.92,100.91235340723394L234.60000000000002,99.63003688507676L235.28,127.8823791828955L235.96,144.83378456158658L236.64,116.30898484065071L237.32000000000002,99.19410500808917L238,108.27299858262757" style="fill: none;" fill="none"></path></g></g></g></g><g opacity="0.2"><g><g><g><path stroke="rgb(255, 112, 67)" stroke-width="2px" d="M36.72,460.4782810509207L37.400000000000006,0.967454731464386L38.080000000000005,146.07611578702932L38.76,387.92388421297096L41.48,363.73910737037676L42.16,49.33700841665271L42.84,121.89133894443518L43.52,-95.77178525924688L45.56,242.81522315740597L46.24,73.52178525924684L46.919999999999995,-47.40223157405856L47.599999999999994,0.967454731464386L48.28,-95.77178525924688L53.04,-95.77178525924688L53.72,97.70656210184102L54.400000000000006,484.66305789351486L55.080000000000005,121.89133894443518L55.76,-47.40223157405856L57.8,-23.217454731464414L58.48,0.967454731464386L59.16,49.33700841665271L59.84,73.52178525924684L60.52,97.70656210184102L61.2,49.33700841665271L61.88,97.70656210184102L62.56,97.70656210184102L63.24,49.33700841665271L63.919999999999995,97.70656210184102L64.6,170.2608926296235L65.28,25.152231574058533L65.96,25.152231574058533L66.64,49.33700841665271L67.32,25.152231574058533L68,73.52178525924684L68.68,121.89133894443518L69.36,49.33700841665271L70.04,-47.40223157405856L70.72,121.89133894443518L71.4,25.152231574058533L72.08,121.89133894443518L72.76,170.2608926296235L73.44,73.52178525924684L74.12,97.70656210184102L74.80000000000001,146.07611578702932L75.48,146.07611578702932L76.16000000000001,170.2608926296235L76.83999999999999,146.07611578702932L77.52,170.2608926296235L78.19999999999999,121.89133894443518L78.88,146.07611578702932L79.56,121.89133894443518L80.24,121.89133894443518L80.92,121.89133894443518L81.6,121.89133894443518L82.28,97.70656210184102L82.96,73.52178525924684L83.64,97.70656210184102L84.32,73.52178525924684L85,97.70656210184102L85.68,97.70656210184102L86.36,97.70656210184102L87.04,73.52178525924684L87.72,73.52178525924684L88.4,97.70656210184102L89.08,73.52178525924684L89.76,121.89133894443518L90.44,121.89133894443518L91.12,97.70656210184102L91.80000000000001,97.70656210184102L92.48,73.52178525924684L93.16000000000001,73.52178525924684L93.83999999999999,97.70656210184102L94.52,73.52178525924684L95.19999999999999,121.89133894443518L95.88,97.70656210184102L96.56,121.89133894443518L97.24,146.07611578702932L97.92,97.70656210184102L98.6,121.89133894443518L99.28,146.07611578702932L99.96,97.70656210184102L100.64,146.07611578702932L101.32,49.33700841665271L102,121.89133894443518L102.68,97.70656210184102L103.36,97.70656210184102L104.04,146.07611578702932L104.72,121.89133894443518L105.4,121.89133894443518L106.08,121.89133894443518L106.76,146.07611578702932L107.44,73.52178525924684L108.12,121.89133894443518L108.80000000000001,73.52178525924684L109.48,97.70656210184102L110.16000000000001,121.89133894443518L110.83999999999999,97.70656210184102L111.52,146.07611578702932L112.19999999999999,121.89133894443518L112.88,121.89133894443518L113.56,121.89133894443518L114.24,121.89133894443518L114.92,97.70656210184102L115.6,97.70656210184102L116.28,97.70656210184102L116.96,73.52178525924684L117.64,73.52178525924684L118.32,121.89133894443518L119,73.52178525924684L119.68,121.89133894443518L120.36,97.70656210184102L121.04,73.52178525924684L121.72,97.70656210184102L122.4,73.52178525924684L123.08,73.52178525924684L123.76,73.52178525924684L124.44,97.70656210184102L125.12,121.89133894443518L125.80000000000001,97.70656210184102L126.48,97.70656210184102L127.16000000000001,121.89133894443518L127.83999999999999,121.89133894443518L128.51999999999998,97.70656210184102L129.2,73.52178525924684L129.88,73.52178525924684L130.56,97.70656210184102L131.24,121.89133894443518L131.92,97.70656210184102L132.6,97.70656210184102L133.28,121.89133894443518L133.96,97.70656210184102L134.64,49.33700841665271L135.32,97.70656210184102L136,97.70656210184102L136.67999999999998,97.70656210184102L137.36,97.70656210184102L138.04,73.52178525924684L138.72,97.70656210184102L139.39999999999998,146.07611578702932L140.08,97.70656210184102L140.76,73.52178525924684L141.44,97.70656210184102L142.12,97.70656210184102L142.8,73.52178525924684L143.48,97.70656210184102L144.16,73.52178525924684L144.84,73.52178525924684L145.52,146.07611578702932L146.2,121.89133894443518L146.88,146.07611578702932L147.56,97.70656210184102L148.24,97.70656210184102L148.92,97.70656210184102L149.60000000000002,25.152231574058533L150.28,97.70656210184102L150.96,97.70656210184102L151.64,73.52178525924684L152.32000000000002,97.70656210184102L153,49.33700841665271L153.67999999999998,97.70656210184102L154.36,73.52178525924684L155.04,97.70656210184102L155.72,146.07611578702932L156.39999999999998,97.70656210184102L157.08,97.70656210184102L157.76,73.52178525924684L158.44,73.52178525924684L159.12,97.70656210184102L159.8,146.07611578702932L160.48,73.52178525924684L161.16,97.70656210184102L161.84,97.70656210184102L162.52,73.52178525924684L163.2,97.70656210184102L163.88,146.07611578702932L164.56,97.70656210184102L165.24,97.70656210184102L165.92,73.52178525924684L166.60000000000002,73.52178525924684L167.28,97.70656210184102L167.96,73.52178525924684L168.64,121.89133894443518L169.32000000000002,121.89133894443518L170,73.52178525924684L170.67999999999998,97.70656210184102L171.36,121.89133894443518L172.04,97.70656210184102L172.72,97.70656210184102L173.39999999999998,121.89133894443518L174.08,121.89133894443518L174.76,121.89133894443518L175.44,73.52178525924684L176.12,73.52178525924684L176.8,73.52178525924684L177.48,73.52178525924684L178.16,73.52178525924684L178.84,73.52178525924684L179.52,97.70656210184102L180.2,73.52178525924684L180.88,97.70656210184102L181.56,97.70656210184102L182.24,97.70656210184102L182.92,97.70656210184102L183.60000000000002,97.70656210184102L184.28,97.70656210184102L184.96,194.44566947221765L185.64,73.52178525924684L186.32000000000002,146.07611578702932L187,121.89133894443518L187.67999999999998,97.70656210184102L188.36,97.70656210184102L189.04,121.89133894443518L189.72,97.70656210184102L190.39999999999998,121.89133894443518L191.08,146.07611578702932L191.76,97.70656210184102L192.44,97.70656210184102L193.12,97.70656210184102L193.8,97.70656210184102L194.48,73.52178525924684L195.16,121.89133894443518L195.84,73.52178525924684L196.52,97.70656210184102L197.2,49.33700841665271L197.88,97.70656210184102L198.56,97.70656210184102L199.24,73.52178525924684L199.92,73.52178525924684L200.60000000000002,73.52178525924684L201.28,97.70656210184102L201.96,97.70656210184102L202.64,146.07611578702932L203.32000000000002,146.07611578702932L204,97.70656210184102L204.67999999999998,97.70656210184102L205.36,97.70656210184102L206.04,73.52178525924684L206.72,73.52178525924684L207.39999999999998,97.70656210184102L208.08,97.70656210184102L208.76,73.52178525924684L209.44,97.70656210184102L210.12,73.52178525924684L210.8,73.52178525924684L211.48,49.33700841665271L212.16,97.70656210184102L212.84,73.52178525924684L213.52,170.2608926296235L214.2,97.70656210184102L214.88,97.70656210184102L215.56,97.70656210184102L216.24,73.52178525924684L216.92,49.33700841665271L217.60000000000002,121.89133894443518L218.28,146.07611578702932L218.96,97.70656210184102L219.64,97.70656210184102L220.32000000000002,73.52178525924684L221,97.70656210184102L221.67999999999998,121.89133894443518L222.36,73.52178525924684L223.04,97.70656210184102L223.72,97.70656210184102L224.39999999999998,73.52178525924684L225.08,97.70656210184102L225.76,97.70656210184102L226.44,97.70656210184102L227.12,146.07611578702932L227.8,97.70656210184102L228.48,97.70656210184102L229.16,73.52178525924684L229.84,97.70656210184102L230.52,121.89133894443518L231.2,73.52178525924684L231.88,97.70656210184102L232.56,97.70656210184102L233.24,73.52178525924684L233.92,121.89133894443518L234.60000000000002,97.70656210184102L235.28,170.2608926296235L235.96,170.2608926296235L236.64,73.52178525924684L237.32000000000002,73.52178525924684L238,121.89133894443518" style="fill: none;" fill="none"></path></g></g></g></g></g></g><g transform="translate(58, 178)" clip-path="url(#clip_1)"><clipPath id="clip_1"><rect width="272" height="22"></rect></clipPath><g><g><line x1="0" y1="0" x2="0" y2="5" style="visibility: inherit;" fill="rgb(0, 0, 0)" stroke="rgb(204, 204, 204)" stroke-width="1px"></line><line x1="34" y1="0" x2="34" y2="5" style="visibility: inherit;" fill="rgb(0, 0, 0)" stroke="rgb(204, 204, 204)" stroke-width="1px"></line><line x1="68" y1="0" x2="68" y2="5" style="visibility: inherit;" fill="rgb(0, 0, 0)" stroke="rgb(204, 204, 204)" stroke-width="1px"></line><line x1="102" y1="0" x2="102" y2="5" style="visibility: inherit;" fill="rgb(0, 0, 0)" stroke="rgb(204, 204, 204)" stroke-width="1px"></line><line x1="136" y1="0" x2="136" y2="5" style="visibility: inherit;" fill="rgb(0, 0, 0)" stroke="rgb(204, 204, 204)" stroke-width="1px"></line><line x1="170" y1="0" x2="170" y2="5" style="visibility: inherit;" fill="rgb(0, 0, 0)" stroke="rgb(204, 204, 204)" stroke-width="1px"></line><line x1="204" y1="0" x2="204" y2="5" style="visibility: inherit;" fill="rgb(0, 0, 0)" stroke="rgb(204, 204, 204)" stroke-width="1px"></line><line x1="238" y1="0" x2="238" y2="5" style="visibility: inherit;" fill="rgb(0, 0, 0)" stroke="rgb(204, 204, 204)" stroke-width="1px"></line><line x1="272" y1="0" x2="272" y2="5" style="visibility: inherit;" fill="rgb(0, 0, 0)" stroke="rgb(204, 204, 204)" stroke-width="1px"></line></g><g transform="translate(0, 8)"><text x="0" y="0" dx="0em" dy="0.95em" style="text-anchor: middle; visibility: hidden; font-family: &quot;Helvetica Neue&quot;, sans-serif; font-size: 12px; font-weight: 200;" fill="rgb(50, 49, 63)" stroke="none" stroke-width="1px">-50</text><text x="34" y="0" dx="0em" dy="0.95em" style="text-anchor: middle; visibility: inherit; font-family: &quot;Helvetica Neue&quot;, sans-serif; font-size: 12px; font-weight: 200;" fill="rgb(50, 49, 63)" stroke="none" stroke-width="1px">0</text><text x="68" y="0" dx="0em" dy="0.95em" style="text-anchor: middle; visibility: inherit; font-family: &quot;Helvetica Neue&quot;, sans-serif; font-size: 12px; font-weight: 200;" fill="rgb(50, 49, 63)" stroke="none" stroke-width="1px">50</text><text x="102" y="0" dx="0em" dy="0.95em" style="text-anchor: middle; visibility: inherit; font-family: &quot;Helvetica Neue&quot;, sans-serif; font-size: 12px; font-weight: 200;" fill="rgb(50, 49, 63)" stroke="none" stroke-width="1px">100</text><text x="136" y="0" dx="0em" dy="0.95em" style="text-anchor: middle; visibility: inherit; font-family: &quot;Helvetica Neue&quot;, sans-serif; font-size: 12px; font-weight: 200;" fill="rgb(50, 49, 63)" stroke="none" stroke-width="1px">150</text><text x="170" y="0" dx="0em" dy="0.95em" style="text-anchor: middle; visibility: inherit; font-family: &quot;Helvetica Neue&quot;, sans-serif; font-size: 12px; font-weight: 200;" fill="rgb(50, 49, 63)" stroke="none" stroke-width="1px">200</text><text x="204" y="0" dx="0em" dy="0.95em" style="text-anchor: middle; visibility: inherit; font-family: &quot;Helvetica Neue&quot;, sans-serif; font-size: 12px; font-weight: 200;" fill="rgb(50, 49, 63)" stroke="none" stroke-width="1px">250</text><text x="238" y="0" dx="0em" dy="0.95em" style="text-anchor: middle; visibility: inherit; font-family: &quot;Helvetica Neue&quot;, sans-serif; font-size: 12px; font-weight: 200;" fill="rgb(50, 49, 63)" stroke="none" stroke-width="1px">300</text><text x="272" y="0" dx="0em" dy="0.95em" style="text-anchor: middle; visibility: hidden; font-family: &quot;Helvetica Neue&quot;, sans-serif; font-size: 12px; font-weight: 200;" fill="rgb(50, 49, 63)" stroke="none" stroke-width="1px">350</text></g><line x1="0" y1="0" x2="272" y2="0" fill="rgb(0, 0, 0)" stroke="rgb(204, 204, 204)" stroke-width="1px"></line></g></g></g></g></svg>