<svg viewBox="0 0 330 200" xmlns="http://www.w3.org/2000/svg"><g><g><g><g><g><line x1="58" y1="178" x2="53" y2="178" style="visibility: inherit;" fill="rgb(0, 0, 0)" stroke="rgb(204, 204, 204)" stroke-width="1px"></line><line x1="58" y1="161.8181818181818" x2="53" y2="161.8181818181818" style="visibility: inherit;" fill="rgb(0, 0, 0)" stroke="rgb(204, 204, 204)" stroke-width="1px"></line><line x1="58" y1="145.6363636363636" x2="53" y2="145.6363636363636" style="visibility: inherit;" fill="rgb(0, 0, 0)" stroke="rgb(204, 204, 204)" stroke-width="1px"></line><line x1="58" y1="129.4545454545454" x2="53" y2="129.4545454545454" style="visibility: inherit;" fill="rgb(0, 0, 0)" stroke="rgb(204, 204, 204)" stroke-width="1px"></line><line x1="58" y1="113.27272727272721" x2="53" y2="113.27272727272721" style="visibility: inherit;" fill="rgb(0, 0, 0)" stroke="rgb(204, 204, 204)" stroke-width="1px"></line><line x1="58" y1="97.09090909090901" x2="53" y2="97.09090909090901" style="visibility: inherit;" fill="rgb(0, 0, 0)" stroke="rgb(204, 204, 204)" stroke-width="1px"></line><line x1="58" y1="80.90909090909082" x2="53" y2="80.90909090909082" style="visibility: inherit;" fill="rgb(0, 0, 0)" stroke="rgb(204, 204, 204)" stroke-width="1px"></line><line x1="58" y1="64.7272727272726" x2="53" y2="64.7272727272726" style="visibility: inherit;" fill="rgb(0, 0, 0)" stroke="rgb(204, 204, 204)" stroke-width="1px"></line><line x1="58" y1="48.54545454545459" x2="53" y2="48.54545454545459" style="visibility: inherit;" fill="rgb(0, 0, 0)" stroke="rgb(204, 204, 204)" stroke-width="1px"></line><line x1="58" y1="32.3636363636364" x2="53" y2="32.3636363636364" style="visibility: inherit;" fill="rgb(0, 0, 0)" stroke="rgb(204, 204, 204)" stroke-width="1px"></line><line x1="58" y1="16.181818181818215" x2="53" y2="16.181818181818215" style="visibility: inherit;" fill="rgb(0, 0, 0)" stroke="rgb(204, 204, 204)" stroke-width="1px"></line><line x1="58" y1="0" x2="53" y2="0" style="visibility: inherit;" fill="rgb(0, 0, 0)" stroke="rgb(204, 204, 204)" stroke-width="1px"></line></g><g transform="translate(48, 0)"><text x="0" y="178" dx="0em" dy="0.3em" style="text-anchor: end; visibility: hidden; font-family: &quot;Helvetica Neue&quot;, sans-serif; font-size: 12px; font-weight: 200;" fill="rgb(50, 49, 63)" stroke="none" stroke-width="1px">0.49</text><text x="0" y="161.8181818181818" dx="0em" dy="0.3em" style="text-anchor: end; visibility: inherit; font-family: &quot;Helvetica Neue&quot;, sans-serif; font-size: 12px; font-weight: 200;" fill="rgb(50, 49, 63)" stroke="none" stroke-width="1px">0.5</text><text x="0" y="145.6363636363636" dx="0em" dy="0.3em" style="text-anchor: end; visibility: hidden; font-family: &quot;Helvetica Neue&quot;, sans-serif; font-size: 12px; font-weight: 200;" fill="rgb(50, 49, 63)" stroke="none" stroke-width="1px">0.51</text><text x="0" y="129.4545454545454" dx="0em" dy="0.3em" style="text-anchor: end; visibility: inherit; font-family: &quot;Helvetica Neue&quot;, sans-serif; font-size: 12px; font-weight: 200;" fill="rgb(50, 49, 63)" stroke="none" stroke-width="1px">0.52</text><text x="0" y="113.27272727272721" dx="0em" dy="0.3em" style="text-anchor: end; visibility: hidden; font-family: &quot;Helvetica Neue&quot;, sans-serif; font-size: 12px; font-weight: 200;" fill="rgb(50, 49, 63)" stroke="none" stroke-width="1px">0.53</text><text x="0" y="97.09090909090901" dx="0em" dy="0.3em" style="text-anchor: end; visibility: inherit; font-family: &quot;Helvetica Neue&quot;, sans-serif; font-size: 12px; font-weight: 200;" fill="rgb(50, 49, 63)" stroke="none" stroke-width="1px">0.54</text><text x="0" y="80.90909090909082" dx="0em" dy="0.3em" style="text-anchor: end; visibility: hidden; font-family: &quot;Helvetica Neue&quot;, sans-serif; font-size: 12px; font-weight: 200;" fill="rgb(50, 49, 63)" stroke="none" stroke-width="1px">0.55</text><text x="0" y="64.7272727272726" dx="0em" dy="0.3em" style="text-anchor: end; visibility: inherit; font-family: &quot;Helvetica Neue&quot;, sans-serif; font-size: 12px; font-weight: 200;" fill="rgb(50, 49, 63)" stroke="none" stroke-width="1px">0.56</text><text x="0" y="48.54545454545459" dx="0em" dy="0.3em" style="text-anchor: end; visibility: hidden; font-family: &quot;Helvetica Neue&quot;, sans-serif; font-size: 12px; font-weight: 200;" fill="rgb(50, 49, 63)" stroke="none" stroke-width="1px">0.57</text><text x="0" y="32.3636363636364" dx="0em" dy="0.3em" style="text-anchor: end; visibility: inherit; font-family: &quot;Helvetica Neue&quot;, sans-serif; font-size: 12px; font-weight: 200;" fill="rgb(50, 49, 63)" stroke="none" stroke-width="1px">0.58</text><text x="0" y="16.181818181818215" dx="0em" dy="0.3em" style="text-anchor: end; visibility: hidden; font-family: &quot;Helvetica Neue&quot;, sans-serif; font-size: 12px; font-weight: 200;" fill="rgb(50, 49, 63)" stroke="none" stroke-width="1px">0.59</text><text x="0" y="0" dx="0em" dy="0.3em" style="text-anchor: end; visibility: hidden; font-family: &quot;Helvetica Neue&quot;, sans-serif; font-size: 12px; font-weight: 200;" fill="rgb(50, 49, 63)" stroke="none" stroke-width="1px">0.6</text></g><line x1="58" y1="0" x2="58" y2="178" fill="rgb(0, 0, 0)" stroke="rgb(204, 204, 204)" stroke-width="1px"></line></g></g><g transform="translate(58, 0)" clip-path="url(#clip_0)"><clipPath id="clip_0"><rect width="272" height="178"></rect></clipPath><g><g><g><line x1="0" y1="0" x2="0" y2="178" fill="rgb(0, 0, 0)" stroke="rgb(60, 60, 60)" stroke-width="1px" opacity="0.25"></line><line x1="34" y1="0" x2="34" y2="178" fill="rgb(0, 0, 0)" stroke="rgb(60, 60, 60)" stroke-width="1px" opacity="0.25"></line><line x1="68" y1="0" x2="68" y2="178" fill="rgb(0, 0, 0)" stroke="rgb(60, 60, 60)" stroke-width="1px" opacity="0.25"></line><line x1="102" y1="0" x2="102" y2="178" fill="rgb(0, 0, 0)" stroke="rgb(60, 60, 60)" stroke-width="1px" opacity="0.25"></line><line x1="136" y1="0" x2="136" y2="178" fill="rgb(0, 0, 0)" stroke="rgb(60, 60, 60)" stroke-width="1px" opacity="0.25"></line><line x1="170" y1="0" x2="170" y2="178" fill="rgb(0, 0, 0)" stroke="rgb(60, 60, 60)" stroke-width="1px" opacity="0.25"></line><line x1="204" y1="0" x2="204" y2="178" fill="rgb(0, 0, 0)" stroke="rgb(60, 60, 60)" stroke-width="1px" opacity="0.25"></line><line x1="238" y1="0" x2="238" y2="178" fill="rgb(0, 0, 0)" stroke="rgb(60, 60, 60)" stroke-width="1px" opacity="0.25"></line><line x1="272" y1="0" x2="272" y2="178" fill="rgb(0, 0, 0)" stroke="rgb(60, 60, 60)" stroke-width="1px" opacity="0.25"></line></g><g><line x1="0" y1="178" x2="272" y2="178" fill="rgb(0, 0, 0)" stroke="rgb(60, 60, 60)" stroke-width="1px" opacity="0.25"></line><line x1="0" y1="161.8181818181818" x2="272" y2="161.8181818181818" fill="rgb(0, 0, 0)" stroke="rgb(60, 60, 60)" stroke-width="1px" opacity="0.25"></line><line x1="0" y1="145.6363636363636" x2="272" y2="145.6363636363636" fill="rgb(0, 0, 0)" stroke="rgb(60, 60, 60)" stroke-width="1px" opacity="0.25"></line><line x1="0" y1="129.4545454545454" x2="272" y2="129.4545454545454" fill="rgb(0, 0, 0)" stroke="rgb(60, 60, 60)" stroke-width="1px" opacity="0.25"></line><line x1="0" y1="113.27272727272721" x2="272" y2="113.27272727272721" fill="rgb(0, 0, 0)" stroke="rgb(60, 60, 60)" stroke-width="1px" opacity="0.25"></line><line x1="0" y1="97.09090909090901" x2="272" y2="97.09090909090901" fill="rgb(0, 0, 0)" stroke="rgb(60, 60, 60)" stroke-width="1px" opacity="0.25"></line><line x1="0" y1="80.90909090909082" x2="272" y2="80.90909090909082" fill="rgb(0, 0, 0)" stroke="rgb(60, 60, 60)" stroke-width="1px" opacity="0.25"></line><line x1="0" y1="64.7272727272726" x2="272" y2="64.7272727272726" fill="rgb(0, 0, 0)" stroke="rgb(60, 60, 60)" stroke-width="1px" opacity="0.25"></line><line x1="0" y1="48.54545454545459" x2="272" y2="48.54545454545459" fill="rgb(0, 0, 0)" stroke="rgb(60, 60, 60)" stroke-width="1px" opacity="0.25"></line><line x1="0" y1="32.3636363636364" x2="272" y2="32.3636363636364" fill="rgb(0, 0, 0)" stroke="rgb(60, 60, 60)" stroke-width="1px" opacity="0.25"></line><line x1="0" y1="16.181818181818215" x2="272" y2="16.181818181818215" fill="rgb(0, 0, 0)" stroke="rgb(60, 60, 60)" stroke-width="1px" opacity="0.25"></line><line x1="0" y1="0" x2="272" y2="0" fill="rgb(0, 0, 0)" stroke="rgb(60, 60, 60)" stroke-width="1px" opacity="0.25"></line></g></g></g><g><g><line x1="0" y1="970.909090909091" x2="272" y2="970.909090909091" fill="rgb(0, 0, 0)" stroke="rgb(153, 153, 153)" stroke-width="1.5px"></line></g></g><g><g><line x1="34" y1="0" x2="34" y2="178" fill="rgb(0, 0, 0)" stroke="rgb(153, 153, 153)" stroke-width="1.5px"></line></g></g><g><g><g><g><g><path stroke="rgb(255, 112, 67)" stroke-width="2px" d="M36.72,-14.879847223108328L37.400000000000006,57.725163390377546L38.080000000000005,35.06590189743795L38.76,14.51223100780328L39.44,153.89482933767403L40.12,85.69768866155789L40.8,172.4699288724658L41.48,246.5972875085296L44.88,261.38993449912317L45.56,143.42215913043074L46.24,206.5863475511778L46.919999999999995,110.55412314812526L47.599999999999994,209.1824782080307L48.28,208.83654662461979L48.96,104.46878744642139L49.64,205.52846887692846L50.32,266.16376694954977L51,146.30608584543828L51.68,74.39169526900075L52.36,157.72182560322756L53.04,125.88072604168326L53.72,69.57647599009789L54.400000000000006,125.07296515137051L55.080000000000005,83.9716626826012L55.76,51.870989422202896L56.44,40.0504821325039L57.12,47.83800647913665L57.8,67.39038771345281L58.48,41.922226732808355L59.16,41.521158337507046L59.84,48.72041200574901L60.52,53.03996418958563L61.2,92.83128466588025L61.88,42.30693719355341L62.56,41.75198461616901L63.24,48.85890774826592L63.919999999999995,75.44282281962509L64.6,46.75368805621912L65.28,59.29986306769601L65.96,44.50780688369866L66.64,35.63257317365455L67.32,45.187260880833975L68,36.040245572060826L68.68,45.43186431979453L69.36,58.506768825096955L70.04,51.47188359534994L70.72,32.37112452461622L71.4,20.91066908218866L72.08,36.354118425831416L72.76,30.74036009913209L73.44,42.2519330359934L74.12,26.839154189020803L74.80000000000001,32.471314813716845L75.48,35.85061118853412L76.16000000000001,30.438255756754927L76.83999999999999,19.750947821478746L77.52,28.218390993191463L78.19999999999999,25.85892363954946L78.88,24.44324322736429L79.56,31.033768236722608L80.24,34.98808324233761L80.92,44.800566921915106L81.6,50.68805712966143L82.28,54.220551254309484L82.96,41.46021979622034L83.64,41.24395417803618L84.32,41.11419480712584L85,41.03633918457956L85.68,40.989625811051894L86.36,48.40149246314368L87.04,60.28854571106838L87.72,52.540949726945115L88.4,40.45245887980161L89.08,33.19936437151546L89.76,51.16726885609124L90.44,54.50807829016733L91.12,63.95249720728246L91.80000000000001,62.17921530088195L92.48,61.115246157041696L93.16000000000001,60.47686467073761L93.83999999999999,52.653941102746614L94.52,55.400081638160586L95.19999999999999,57.04776595940888L95.88,58.03637655215783L96.56,58.62954290780722L97.24,66.42537597786647L97.92,71.10287581990204L98.6,73.90937572512325L99.28,75.59327566825603L99.96,76.60361563413575L100.64,77.20981961366351L101.32,77.57354200138013L102,77.79177543401008L102.68,70.48278223691852L103.36,66.0973863186636L104.04,63.466148767710635L104.72,69.32733949380841L105.4,80.28398718613659L106.08,71.97810928819447L106.76,66.99458254942915L107.44,64.00446650617002L108.12,69.650330136884L108.80000000000001,73.03784831531243L109.48,67.63042596570004L110.16000000000001,71.82590581260217L110.83999999999999,74.34319372074334L111.52,68.41363320895861L112.19999999999999,64.85589690188769L112.88,62.72125511764513L113.56,61.440470047099666L114.24,75.55186551811126L114.92,69.13883628737926L115.6,57.85112407273152L116.28,58.51839142015153L116.96,51.47885715239504L117.64,69.57489778128854L118.32,65.55265564528567L119,63.139310363683876L119.68,61.69130319472285L120.36,60.82249889334629L121.04,60.30121631252037L121.72,59.98844676402484L122.4,52.360890358719004L123.08,55.224251191743875L123.76,56.94226769155888L124.44,50.53318291523938L125.12,54.12762672565614L125.80000000000001,56.28429301190616L126.48,57.57829278365621L127.16000000000001,58.35469264670621L127.83999999999999,58.82053256453621L128.51999999999998,59.10003651523424L129.2,59.26773888565309L129.88,59.36836030790434L130.56,59.42873316125508L131.24,52.02506219705714L131.92,55.022754294746875L132.6,56.8213695533607L133.28,50.46064403232056L133.96,54.08410339590482L134.64,56.2581790140554L135.32,57.56262438494586L136,58.345291607480135L136.67999999999998,58.81489194100055L137.36,44.216824208234925L138.04,50.337811501453416L138.72,61.45033713405405L139.39999999999998,53.238024580736564L140.08,55.750531724954456L140.76,64.69796926815474L141.44,62.626498537405354L142.12,68.82354935562525L142.8,72.5417798465572L143.48,67.33278488444697L144.16,64.20738790718075L144.84,62.332149720820965L145.52,61.20700680900511L146.2,60.53192106191554L146.88,52.68697493745337L147.56,55.41990193898454L148.24,49.61976346369474L148.92,61.019508311398766L149.60000000000002,60.419421963351766L150.28,60.05937015452365L150.96,59.843339069226786L151.64,59.71372041804858L152.32000000000002,59.6359492273417L153,67.02921976958704L153.67999999999998,71.46518209493419L154.36,66.68682623347313L155.04,63.81981271659636L155.72,62.099604606470365L156.39999999999998,68.50741299706424L157.08,64.91216477475115L157.76,62.755015841363274L158.44,61.46072648133047L159.12,53.24425818910234L159.8,48.31437721376557L160.48,52.79634330477185L161.16,55.48552295937559L161.84,64.53896400880734L162.52,62.53109538179689L163.2,68.76630746226009L163.88,57.627606777660105L164.56,65.82421429977809L165.24,63.302245556379404L165.92,54.349169634131655L166.60000000000002,56.4172187569915L167.28,57.65804823070741L167.96,58.40254591493694L168.64,58.8492445254747L169.32000000000002,59.11726369179743L170,59.27807519159103L170.67999999999998,59.374562091467226L171.36,59.432454231392825L172.04,59.46718951534817L172.72,59.48803068572141L173.39999999999998,59.50053538794546L174.08,59.5080382092799L174.76,52.07264522587201L175.44,55.051304112035666L176.12,56.83849944373391L176.8,57.91081664275286L177.48,58.55420696216427L178.16,58.94024115381107L178.84,59.17186166879927L179.52,59.31083397779217L180.2,51.95432268697948L180.88,47.540415912491795L181.56,52.33196652400771L182.24,55.20689689091718L182.92,56.931855111062774L183.60000000000002,57.96683004315028L184.28,58.587815002402664L184.96,58.960405977954224L185.64,59.183960563285126L186.32000000000002,51.878198638275094L187,54.934636159477535L187.67999999999998,64.20843192886869L188.36,62.332776133833704L189.04,61.20738265681284L189.72,53.09225189439172L190.39999999999998,55.66306811314759L191.08,57.20555784440113L191.76,58.131051683153274L192.44,51.24645331019606L193.12,54.555588962630154L193.8,56.541070354090635L194.48,57.73235918896691L195.16,58.447132489892724L195.84,58.875996470448186L196.52,59.1333148587815L197.2,59.28770589178146L197.88,59.38034051158145L198.56,59.43592128346138L199.24,59.46926974658939L199.92,59.489278824466155L200.60000000000002,66.94121752786182L201.28,63.97244749322961L201.96,69.6311187291198L202.64,65.58638821398435L203.32000000000002,63.1595499049032L204,61.703446919454464L204.67999999999998,60.82978512818531L205.36,67.74552131009315L206.04,64.4550297625684L206.72,62.480734834053635L207.39999999999998,61.29615787694476L208.08,60.58541170267941L208.76,52.71906932191166L209.44,55.43915856965948L210.12,64.5111453749777L210.8,55.074509525290765L211.48,56.85242269168697L212.16,57.91917059152476L212.84,58.55921933142744L213.52,58.94324857536901L214.2,59.17366612173396L214.88,66.7518499062224L215.56,63.85882692024596L216.24,62.123013128660205L216.92,61.0815248537087L217.60000000000002,60.456631888737704L218.28,60.0816961097552L218.96,59.856734642365666L219.64,67.16169101860143L220.32000000000002,64.10473158767334L221,62.27055592911658L221.67999999999998,61.17005053398256L222.36,53.06985262069357L223.04,48.20973387272019L223.72,52.7335573001446L224.39999999999998,55.447851356599244L225.08,57.07642779047217L225.76,58.05357365079581L226.44,58.63986116698996L227.12,58.99163367670657L227.8,59.202697182536525L228.48,59.32933528603451L229.16,59.40531814813326L229.84,59.45090786539254L230.52,59.478261695748074L231.2,59.49467399396136L231.88,66.94445462955898L232.56,63.97438975424794L233.24,62.19235082906127L233.92,61.12312747394935L234.60000000000002,75.36145997422105L235.28,69.02459296104514L235.96,65.22247275313964L236.64,62.94120062839636L237.32000000000002,61.57243735355044L238,53.3112847124344" style="fill: none;" fill="none"></path></g></g></g></g><g opacity="0.2"><g><g><g><path stroke="rgb(255, 112, 67)" stroke-width="2px" d="M36.72,-14.879847223108499L37.400000000000006,152.51826524734494L38.080000000000005,3.719985918565186L38.76,-14.879847223108499L43.52,357.11599577556956L44.2,40.91955575076014L44.88,357.11599577556956L52.36,282.7168078856035L53.04,78.11912558295508L53.72,-14.879847223108499L54.400000000000006,208.31766822121358L55.080000000000005,22.319722609086426L55.76,3.719985918565186L56.44,22.319722609086426L57.12,59.51929244128138L57.8,96.71895872462876L58.48,3.719985918565186L59.16,40.91955575076014L59.84,59.51929244128138L60.52,59.51929244128138L61.2,152.51826524734494L61.88,-33.47958391362974L62.56,40.91955575076014L63.24,59.51929244128138L63.919999999999995,115.31869541515002L64.6,3.719985918565186L65.28,78.11912558295508L65.96,22.319722609086426L66.64,22.319722609086426L67.32,59.51929244128138L68,22.319722609086426L68.68,59.51929244128138L69.36,78.11912558295508L70.04,40.91955575076014L70.72,3.719985918565186L71.4,3.719985918565186L72.08,59.51929244128138L72.76,22.319722609086426L73.44,59.51929244128138L74.12,3.719985918565186L74.80000000000001,40.91955575076014L75.48,40.91955575076014L76.16000000000001,22.319722609086426L76.83999999999999,3.719985918565186L77.52,40.91955575076014L78.19999999999999,22.319722609086426L78.88,22.319722609086426L79.56,40.91955575076014L80.24,40.91955575076014L80.92,59.51929244128138L81.6,59.51929244128138L82.28,59.51929244128138L82.96,22.319722609086426L83.64,40.91955575076014L84.32,40.91955575076014L85,40.91955575076014L85.68,40.91955575076014L86.36,59.51929244128138L87.04,78.11912558295508L87.72,40.91955575076014L88.4,22.319722609086426L89.08,22.319722609086426L89.76,78.11912558295508L90.44,59.51929244128138L91.12,78.11912558295508L91.80000000000001,59.51929244128138L92.48,59.51929244128138L93.16000000000001,59.51929244128138L93.83999999999999,40.91955575076014L94.52,59.51929244128138L95.19999999999999,59.51929244128138L95.88,59.51929244128138L96.56,59.51929244128138L97.24,78.11912558295508L97.92,78.11912558295508L98.6,78.11912558295508L99.28,78.11912558295508L99.96,78.11912558295508L100.64,78.11912558295508L101.32,78.11912558295508L102,78.11912558295508L102.68,59.51929244128138L103.36,59.51929244128138L104.04,59.51929244128138L104.72,78.11912558295508L105.4,96.71895872462876L106.08,59.51929244128138L106.76,59.51929244128138L107.44,59.51929244128138L108.12,78.11912558295508L108.80000000000001,78.11912558295508L109.48,59.51929244128138L110.16000000000001,78.11912558295508L110.83999999999999,78.11912558295508L111.52,59.51929244128138L112.19999999999999,59.51929244128138L112.88,59.51929244128138L113.56,59.51929244128138L114.24,96.71895872462876L114.92,59.51929244128138L115.6,40.91955575076014L116.28,59.51929244128138L116.96,40.91955575076014L117.64,96.71895872462876L118.32,59.51929244128138L119,59.51929244128138L119.68,59.51929244128138L120.36,59.51929244128138L121.04,59.51929244128138L121.72,59.51929244128138L122.4,40.91955575076014L123.08,59.51929244128138L123.76,59.51929244128138L124.44,40.91955575076014L125.12,59.51929244128138L125.80000000000001,59.51929244128138L126.48,59.51929244128138L127.16000000000001,59.51929244128138L127.83999999999999,59.51929244128138L128.51999999999998,59.51929244128138L129.2,59.51929244128138L129.88,59.51929244128138L130.56,59.51929244128138L131.24,40.91955575076014L131.92,59.51929244128138L132.6,59.51929244128138L133.28,40.91955575076014L133.96,59.51929244128138L134.64,59.51929244128138L135.32,59.51929244128138L136,59.51929244128138L136.67999999999998,59.51929244128138L137.36,22.319722609086426L138.04,59.51929244128138L138.72,78.11912558295508L139.39999999999998,40.91955575076014L140.08,59.51929244128138L140.76,78.11912558295508L141.44,59.51929244128138L142.12,78.11912558295508L142.8,78.11912558295508L143.48,59.51929244128138L144.16,59.51929244128138L144.84,59.51929244128138L145.52,59.51929244128138L146.2,59.51929244128138L146.88,40.91955575076014L147.56,59.51929244128138L148.24,40.91955575076014L148.92,78.11912558295508L149.60000000000002,59.51929244128138L150.28,59.51929244128138L150.96,59.51929244128138L151.64,59.51929244128138L152.32000000000002,59.51929244128138L153,78.11912558295508L153.67999999999998,78.11912558295508L154.36,59.51929244128138L155.04,59.51929244128138L155.72,59.51929244128138L156.39999999999998,78.11912558295508L157.08,59.51929244128138L157.76,59.51929244128138L158.44,59.51929244128138L159.12,40.91955575076014L159.8,40.91955575076014L160.48,59.51929244128138L161.16,59.51929244128138L161.84,78.11912558295508L162.52,59.51929244128138L163.2,78.11912558295508L163.88,40.91955575076014L164.56,78.11912558295508L165.24,59.51929244128138L165.92,40.91955575076014L166.60000000000002,59.51929244128138L167.28,59.51929244128138L167.96,59.51929244128138L168.64,59.51929244128138L169.32000000000002,59.51929244128138L170,59.51929244128138L170.67999999999998,59.51929244128138L171.36,59.51929244128138L172.04,59.51929244128138L172.72,59.51929244128138L173.39999999999998,59.51929244128138L174.08,59.51929244128138L174.76,40.91955575076014L175.44,59.51929244128138L176.12,59.51929244128138L176.8,59.51929244128138L177.48,59.51929244128138L178.16,59.51929244128138L178.84,59.51929244128138L179.52,59.51929244128138L180.2,40.91955575076014L180.88,40.91955575076014L181.56,59.51929244128138L182.24,59.51929244128138L182.92,59.51929244128138L183.60000000000002,59.51929244128138L184.28,59.51929244128138L184.96,59.51929244128138L185.64,59.51929244128138L186.32000000000002,40.91955575076014L187,59.51929244128138L187.67999999999998,78.11912558295508L188.36,59.51929244128138L189.04,59.51929244128138L189.72,40.91955575076014L190.39999999999998,59.51929244128138L191.08,59.51929244128138L191.76,59.51929244128138L192.44,40.91955575076014L193.12,59.51929244128138L193.8,59.51929244128138L194.48,59.51929244128138L195.16,59.51929244128138L195.84,59.51929244128138L196.52,59.51929244128138L197.2,59.51929244128138L197.88,59.51929244128138L198.56,59.51929244128138L199.24,59.51929244128138L199.92,59.51929244128138L200.60000000000002,78.11912558295508L201.28,59.51929244128138L201.96,78.11912558295508L202.64,59.51929244128138L203.32000000000002,59.51929244128138L204,59.51929244128138L204.67999999999998,59.51929244128138L205.36,78.11912558295508L206.04,59.51929244128138L206.72,59.51929244128138L207.39999999999998,59.51929244128138L208.08,59.51929244128138L208.76,40.91955575076014L209.44,59.51929244128138L210.12,78.11912558295508L210.8,40.91955575076014L211.48,59.51929244128138L212.16,59.51929244128138L212.84,59.51929244128138L213.52,59.51929244128138L214.2,59.51929244128138L214.88,78.11912558295508L215.56,59.51929244128138L216.24,59.51929244128138L216.92,59.51929244128138L217.60000000000002,59.51929244128138L218.28,59.51929244128138L218.96,59.51929244128138L219.64,78.11912558295508L220.32000000000002,59.51929244128138L221,59.51929244128138L221.67999999999998,59.51929244128138L222.36,40.91955575076014L223.04,40.91955575076014L223.72,59.51929244128138L224.39999999999998,59.51929244128138L225.08,59.51929244128138L225.76,59.51929244128138L226.44,59.51929244128138L227.12,59.51929244128138L227.8,59.51929244128138L228.48,59.51929244128138L229.16,59.51929244128138L229.84,59.51929244128138L230.52,59.51929244128138L231.2,59.51929244128138L231.88,78.11912558295508L232.56,59.51929244128138L233.24,59.51929244128138L233.92,59.51929244128138L234.60000000000002,96.71895872462876L235.28,59.51929244128138L235.96,59.51929244128138L236.64,59.51929244128138L237.32000000000002,59.51929244128138L238,40.91955575076014" style="fill: none;" fill="none"></path></g></g></g></g></g></g><g transform="translate(58, 178)" clip-path="url(#clip_1)"><clipPath id="clip_1"><rect width="272" height="22"></rect></clipPath><g><g><line x1="0" y1="0" x2="0" y2="5" style="visibility: inherit;" fill="rgb(0, 0, 0)" stroke="rgb(204, 204, 204)" stroke-width="1px"></line><line x1="34" y1="0" x2="34" y2="5" style="visibility: inherit;" fill="rgb(0, 0, 0)" stroke="rgb(204, 204, 204)" stroke-width="1px"></line><line x1="68" y1="0" x2="68" y2="5" style="visibility: inherit;" fill="rgb(0, 0, 0)" stroke="rgb(204, 204, 204)" stroke-width="1px"></line><line x1="102" y1="0" x2="102" y2="5" style="visibility: inherit;" fill="rgb(0, 0, 0)" stroke="rgb(204, 204, 204)" stroke-width="1px"></line><line x1="136" y1="0" x2="136" y2="5" style="visibility: inherit;" fill="rgb(0, 0, 0)" stroke="rgb(204, 204, 204)" stroke-width="1px"></line><line x1="170" y1="0" x2="170" y2="5" style="visibility: inherit;" fill="rgb(0, 0, 0)" stroke="rgb(204, 204, 204)" stroke-width="1px"></line><line x1="204" y1="0" x2="204" y2="5" style="visibility: inherit;" fill="rgb(0, 0, 0)" stroke="rgb(204, 204, 204)" stroke-width="1px"></line><line x1="238" y1="0" x2="238" y2="5" style="visibility: inherit;" fill="rgb(0, 0, 0)" stroke="rgb(204, 204, 204)" stroke-width="1px"></line><line x1="272" y1="0" x2="272" y2="5" style="visibility: inherit;" fill="rgb(0, 0, 0)" stroke="rgb(204, 204, 204)" stroke-width="1px"></line></g><g transform="translate(0, 8)"><text x="0" y="0" dx="0em" dy="0.95em" style="text-anchor: middle; visibility: hidden; font-family: &quot;Helvetica Neue&quot;, sans-serif; font-size: 12px; font-weight: 200;" fill="rgb(50, 49, 63)" stroke="none" stroke-width="1px">-50</text><text x="34" y="0" dx="0em" dy="0.95em" style="text-anchor: middle; visibility: inherit; font-family: &quot;Helvetica Neue&quot;, sans-serif; font-size: 12px; font-weight: 200;" fill="rgb(50, 49, 63)" stroke="none" stroke-width="1px">0</text><text x="68" y="0" dx="0em" dy="0.95em" style="text-anchor: middle; visibility: inherit; font-family: &quot;Helvetica Neue&quot;, sans-serif; font-size: 12px; font-weight: 200;" fill="rgb(50, 49, 63)" stroke="none" stroke-width="1px">50</text><text x="102" y="0" dx="0em" dy="0.95em" style="text-anchor: middle; visibility: inherit; font-family: &quot;Helvetica Neue&quot;, sans-serif; font-size: 12px; font-weight: 200;" fill="rgb(50, 49, 63)" stroke="none" stroke-width="1px">100</text><text x="136" y="0" dx="0em" dy="0.95em" style="text-anchor: middle; visibility: inherit; font-family: &quot;Helvetica Neue&quot;, sans-serif; font-size: 12px; font-weight: 200;" fill="rgb(50, 49, 63)" stroke="none" stroke-width="1px">150</text><text x="170" y="0" dx="0em" dy="0.95em" style="text-anchor: middle; visibility: inherit; font-family: &quot;Helvetica Neue&quot;, sans-serif; font-size: 12px; font-weight: 200;" fill="rgb(50, 49, 63)" stroke="none" stroke-width="1px">200</text><text x="204" y="0" dx="0em" dy="0.95em" style="text-anchor: middle; visibility: inherit; font-family: &quot;Helvetica Neue&quot;, sans-serif; font-size: 12px; font-weight: 200;" fill="rgb(50, 49, 63)" stroke="none" stroke-width="1px">250</text><text x="238" y="0" dx="0em" dy="0.95em" style="text-anchor: middle; visibility: inherit; font-family: &quot;Helvetica Neue&quot;, sans-serif; font-size: 12px; font-weight: 200;" fill="rgb(50, 49, 63)" stroke="none" stroke-width="1px">300</text><text x="272" y="0" dx="0em" dy="0.95em" style="text-anchor: middle; visibility: hidden; font-family: &quot;Helvetica Neue&quot;, sans-serif; font-size: 12px; font-weight: 200;" fill="rgb(50, 49, 63)" stroke="none" stroke-width="1px">350</text></g><line x1="0" y1="0" x2="272" y2="0" fill="rgb(0, 0, 0)" stroke="rgb(204, 204, 204)" stroke-width="1px"></line></g></g></g></g></svg>