<svg viewBox="0 0 330 200" xmlns="http://www.w3.org/2000/svg"><g><g><g><g><g><line x1="70" y1="178" x2="65" y2="178" style="visibility: inherit;" fill="rgb(0, 0, 0)" stroke="rgb(204, 204, 204)" stroke-width="1px"></line><line x1="70" y1="158.22222222222223" x2="65" y2="158.22222222222223" style="visibility: inherit;" fill="rgb(0, 0, 0)" stroke="rgb(204, 204, 204)" stroke-width="1px"></line><line x1="70" y1="138.44444444444446" x2="65" y2="138.44444444444446" style="visibility: inherit;" fill="rgb(0, 0, 0)" stroke="rgb(204, 204, 204)" stroke-width="1px"></line><line x1="70" y1="118.66666666666667" x2="65" y2="118.66666666666667" style="visibility: inherit;" fill="rgb(0, 0, 0)" stroke="rgb(204, 204, 204)" stroke-width="1px"></line><line x1="70" y1="98.8888888888889" x2="65" y2="98.8888888888889" style="visibility: inherit;" fill="rgb(0, 0, 0)" stroke="rgb(204, 204, 204)" stroke-width="1px"></line><line x1="70" y1="79.1111111111111" x2="65" y2="79.1111111111111" style="visibility: inherit;" fill="rgb(0, 0, 0)" stroke="rgb(204, 204, 204)" stroke-width="1px"></line><line x1="70" y1="59.33333333333334" x2="65" y2="59.33333333333334" style="visibility: inherit;" fill="rgb(0, 0, 0)" stroke="rgb(204, 204, 204)" stroke-width="1px"></line><line x1="70" y1="39.55555555555554" x2="65" y2="39.55555555555554" style="visibility: inherit;" fill="rgb(0, 0, 0)" stroke="rgb(204, 204, 204)" stroke-width="1px"></line><line x1="70" y1="19.7777777777778" x2="65" y2="19.7777777777778" style="visibility: inherit;" fill="rgb(0, 0, 0)" stroke="rgb(204, 204, 204)" stroke-width="1px"></line><line x1="70" y1="0" x2="65" y2="0" style="visibility: inherit;" fill="rgb(0, 0, 0)" stroke="rgb(204, 204, 204)" stroke-width="1px"></line></g><g transform="translate(60, 0)"><text x="0" y="178" dx="0em" dy="0.3em" style="text-anchor: end; visibility: hidden; font-family: &quot;Helvetica Neue&quot;, sans-serif; font-size: 12px; font-weight: 200;" fill="rgb(50, 49, 63)" stroke="none" stroke-width="1px">0.585</text><text x="0" y="158.22222222222223" dx="0em" dy="0.3em" style="text-anchor: end; visibility: inherit; font-family: &quot;Helvetica Neue&quot;, sans-serif; font-size: 12px; font-weight: 200;" fill="rgb(50, 49, 63)" stroke="none" stroke-width="1px">0.59</text><text x="0" y="138.44444444444446" dx="0em" dy="0.3em" style="text-anchor: end; visibility: hidden; font-family: &quot;Helvetica Neue&quot;, sans-serif; font-size: 12px; font-weight: 200;" fill="rgb(50, 49, 63)" stroke="none" stroke-width="1px">0.595</text><text x="0" y="118.66666666666667" dx="0em" dy="0.3em" style="text-anchor: end; visibility: inherit; font-family: &quot;Helvetica Neue&quot;, sans-serif; font-size: 12px; font-weight: 200;" fill="rgb(50, 49, 63)" stroke="none" stroke-width="1px">0.6</text><text x="0" y="98.8888888888889" dx="0em" dy="0.3em" style="text-anchor: end; visibility: hidden; font-family: &quot;Helvetica Neue&quot;, sans-serif; font-size: 12px; font-weight: 200;" fill="rgb(50, 49, 63)" stroke="none" stroke-width="1px">0.605</text><text x="0" y="79.1111111111111" dx="0em" dy="0.3em" style="text-anchor: end; visibility: inherit; font-family: &quot;Helvetica Neue&quot;, sans-serif; font-size: 12px; font-weight: 200;" fill="rgb(50, 49, 63)" stroke="none" stroke-width="1px">0.61</text><text x="0" y="59.33333333333334" dx="0em" dy="0.3em" style="text-anchor: end; visibility: hidden; font-family: &quot;Helvetica Neue&quot;, sans-serif; font-size: 12px; font-weight: 200;" fill="rgb(50, 49, 63)" stroke="none" stroke-width="1px">0.615</text><text x="0" y="39.55555555555554" dx="0em" dy="0.3em" style="text-anchor: end; visibility: inherit; font-family: &quot;Helvetica Neue&quot;, sans-serif; font-size: 12px; font-weight: 200;" fill="rgb(50, 49, 63)" stroke="none" stroke-width="1px">0.62</text><text x="0" y="19.7777777777778" dx="0em" dy="0.3em" style="text-anchor: end; visibility: hidden; font-family: &quot;Helvetica Neue&quot;, sans-serif; font-size: 12px; font-weight: 200;" fill="rgb(50, 49, 63)" stroke="none" stroke-width="1px">0.625</text><text x="0" y="0" dx="0em" dy="0.3em" style="text-anchor: end; visibility: hidden; font-family: &quot;Helvetica Neue&quot;, sans-serif; font-size: 12px; font-weight: 200;" fill="rgb(50, 49, 63)" stroke="none" stroke-width="1px">0.63</text></g><line x1="70" y1="0" x2="70" y2="178" fill="rgb(0, 0, 0)" stroke="rgb(204, 204, 204)" stroke-width="1px"></line></g></g><g transform="translate(70, 0)" clip-path="url(#clip_0)"><clipPath id="clip_0"><rect width="260" height="178"></rect></clipPath><g><g><g><line x1="0" y1="0" x2="0" y2="178" fill="rgb(0, 0, 0)" stroke="rgb(60, 60, 60)" stroke-width="1px" opacity="0.25"></line><line x1="32.5" y1="0" x2="32.5" y2="178" fill="rgb(0, 0, 0)" stroke="rgb(60, 60, 60)" stroke-width="1px" opacity="0.25"></line><line x1="65" y1="0" x2="65" y2="178" fill="rgb(0, 0, 0)" stroke="rgb(60, 60, 60)" stroke-width="1px" opacity="0.25"></line><line x1="97.5" y1="0" x2="97.5" y2="178" fill="rgb(0, 0, 0)" stroke="rgb(60, 60, 60)" stroke-width="1px" opacity="0.25"></line><line x1="130" y1="0" x2="130" y2="178" fill="rgb(0, 0, 0)" stroke="rgb(60, 60, 60)" stroke-width="1px" opacity="0.25"></line><line x1="162.5" y1="0" x2="162.5" y2="178" fill="rgb(0, 0, 0)" stroke="rgb(60, 60, 60)" stroke-width="1px" opacity="0.25"></line><line x1="195" y1="0" x2="195" y2="178" fill="rgb(0, 0, 0)" stroke="rgb(60, 60, 60)" stroke-width="1px" opacity="0.25"></line><line x1="227.5" y1="0" x2="227.5" y2="178" fill="rgb(0, 0, 0)" stroke="rgb(60, 60, 60)" stroke-width="1px" opacity="0.25"></line><line x1="260" y1="0" x2="260" y2="178" fill="rgb(0, 0, 0)" stroke="rgb(60, 60, 60)" stroke-width="1px" opacity="0.25"></line></g><g><line x1="0" y1="178" x2="260" y2="178" fill="rgb(0, 0, 0)" stroke="rgb(60, 60, 60)" stroke-width="1px" opacity="0.25"></line><line x1="0" y1="158.22222222222223" x2="260" y2="158.22222222222223" fill="rgb(0, 0, 0)" stroke="rgb(60, 60, 60)" stroke-width="1px" opacity="0.25"></line><line x1="0" y1="138.44444444444446" x2="260" y2="138.44444444444446" fill="rgb(0, 0, 0)" stroke="rgb(60, 60, 60)" stroke-width="1px" opacity="0.25"></line><line x1="0" y1="118.66666666666667" x2="260" y2="118.66666666666667" fill="rgb(0, 0, 0)" stroke="rgb(60, 60, 60)" stroke-width="1px" opacity="0.25"></line><line x1="0" y1="98.8888888888889" x2="260" y2="98.8888888888889" fill="rgb(0, 0, 0)" stroke="rgb(60, 60, 60)" stroke-width="1px" opacity="0.25"></line><line x1="0" y1="79.1111111111111" x2="260" y2="79.1111111111111" fill="rgb(0, 0, 0)" stroke="rgb(60, 60, 60)" stroke-width="1px" opacity="0.25"></line><line x1="0" y1="59.33333333333334" x2="260" y2="59.33333333333334" fill="rgb(0, 0, 0)" stroke="rgb(60, 60, 60)" stroke-width="1px" opacity="0.25"></line><line x1="0" y1="39.55555555555554" x2="260" y2="39.55555555555554" fill="rgb(0, 0, 0)" stroke="rgb(60, 60, 60)" stroke-width="1px" opacity="0.25"></line><line x1="0" y1="19.7777777777778" x2="260" y2="19.7777777777778" fill="rgb(0, 0, 0)" stroke="rgb(60, 60, 60)" stroke-width="1px" opacity="0.25"></line><line x1="0" y1="0" x2="260" y2="0" fill="rgb(0, 0, 0)" stroke="rgb(60, 60, 60)" stroke-width="1px" opacity="0.25"></line></g></g></g><g><g><line x1="0" y1="2491.9999999999977" x2="260" y2="2491.9999999999977" fill="rgb(0, 0, 0)" stroke="rgb(153, 153, 153)" stroke-width="1.5px"></line></g></g><g><g><line x1="32.5" y1="0" x2="32.5" y2="178" fill="rgb(0, 0, 0)" stroke="rgb(153, 153, 153)" stroke-width="1.5px"></line></g></g><g><g><g><g><g><path stroke="rgb(255, 112, 67)" stroke-width="2px" d="M33.15,127.26579274071577L33.800000000000004,449.7294839753041L35.75,243.48103921670224L36.400000000000006,158.6404930388093L37.05,92.64898822509066L37.699999999999996,71.74853562029574L38.35,94.18151117649462L39,55.58757612994995L39.65,308.7521623625911L40.3,149.82124452890568L40.95,123.56671003696508L41.6,90.62440108840111L42.25,139.70015949906136L42.9,65.91324825925047L43.550000000000004,38.85540115687675L44.2,315.0204945604911L44.849999999999994,153.9183849482677L45.5,143.25695826659546L46.15,85.2649349827636L46.8,446.03134435901774L47.449999999999996,266.92942438437746L48.1,107.87474256231451L48.75,98.43307225822267L49.4,58.37180720869412L50.050000000000004,68.73134849188204L50.7,23.35274988684165L51.35,-21.07246131071807L52,-13.331442884134844L52.650000000000006,60.10552463931572L53.3,52.57350421540508L53.949999999999996,82.45042105221059L54.6,14.386155807140796L55.25,59.53801135676345L55.9,86.62912418977362L56.55,51.289506486118L57.2,133.2742118899163L57.85,130.8708442248814L58.5,181.0230142957904L59.15,159.52012565651415L59.800000000000004,146.61839248398613L60.45,138.8773525844426L61.099999999999994,117.03466511065648L61.75,103.92905262880664L62.4,147.65987574132092L63.05,139.5022425407738L63.699999999999996,203.39991675223075L64.35,172.94626714721485L65,137.476013851817L65.65,98.99579834216746L66.3,127.50185963418126L66.95,75.81314797137695L67.60000000000001,61.99807881407541L68.25,36.510879479387825L68.9,72.81284478393219L69.55,25.80167552879624L70.2,-36.8011530893061L70.85000000000001,11.627561710195238L71.5,40.684790589893396L72.15,75.3171914502234L72.80000000000001,44.50234706109211L73.44999999999999,43.21159826791873L74.1,42.437148992014784L74.75,24.774321586167616L75.39999999999999,48.572846515475504L76.05,11.257676567732858L76.7,6.066638131598921L77.35,-31.44411199510509L78,-19.554435006104768L78.64999999999999,21.97559256011209L79.3,12.497387727025739L79.95,92.80087679752434L80.6,37.794494736962065L81.25,56.38495040595217L81.9,50.34116027483495L82.55,29.516728355859897L83.2,85.8144176423138L83.85000000000001,102.39496768167469L84.5,77.94717064026855L85.15,97.6746194804476L85.8,92.3130252520435L86.45,89.09606871500077L87.10000000000001,35.57160988744812L87.75,55.05121949624389L88.4,32.34276388870492L89.05000000000001,53.11391189699769L89.69999999999999,13.982315796645906L90.35,24.89957950925111L91,48.648001269325675L91.64999999999999,45.69899079285878L92.3,26.731426666674025L92.95,66.94517309629055L93.6,73.87535742154918L94.25,78.0334680167047L94.89999999999999,63.33027084128628L95.55,54.50835253603542L96.2,66.41326508539628L96.85,73.55621261501243L97.5,95.04004466529368L98.15,90.73228036295106L98.8,88.14762178154574L99.45,86.59682663270247L100.10000000000001,68.46828601088504L100.75,74.78922517030568L101.4,78.58178866595834L102.05,98.0553902958615L102.7,92.541487741292L103.35000000000001,89.23314620854997L104,87.24814128890499L104.65,86.05713833711802L105.30000000000001,85.34253656604582L105.94999999999999,84.91377550340252L106.6,101.85458239832765L107.25,112.01906653528307L107.89999999999999,100.91969348494496L108.55,111.45813318725347L109.2,117.78119700863849L109.85,121.57503530146948L110.5,106.65327474465663L111.14999999999999,97.70021841056891L111.8,75.13032107760507L112.45,78.78644621033799L113.1,98.17818482248929L113.75,92.61516445726868L114.4,106.47541577064734L115.05,97.59350302616325L115.7,109.46241891198434L116.35000000000001,82.18764137845417L117,83.02083839084743L117.65,66.3226930657721L118.3,56.30380587072682L118.95,67.49053708621128L119.60000000000001,74.20257581550179L120.25,78.22979905307626L120.9,97.84419652813226L121.55000000000001,75.2167079481431L122.19999999999999,78.83827833266079L122.85,98.20928409588278L123.5,92.63382402130443L124.14999999999999,106.48661150906896L124.8,97.60022046921623L125.45,75.0703223127933L126.1,95.94851048396228L126.75,91.2773598541524L127.39999999999999,88.47466947626627L128.05,86.79305524953462L128.7,102.98215024600708L129.35,112.6956072438904L130,118.52368144262071L130.64999999999998,87.62439889683598L131.3,86.28289290187635L131.95,85.47798930490065L132.6,84.99504714671542L133.25,101.90334538431574L133.9,112.04832432687566L134.54999999999998,118.13531169241188L135.20000000000002,87.39137704671086L135.85,86.14307979180144L136.5,102.5921649713671L137.15,95.26355254659501L137.8,108.06444862424341L138.45,98.54692273832124L139.1,110.03447073927889L139.75,116.92699953985347L140.4,121.06251682019848L141.04999999999998,123.5438271884054L141.70000000000002,107.83454987681792L142.35,98.40898348986576L143,109.95170719020568L143.65,116.87734141040973L144.3,103.8346584100206L144.95,113.20711214229848L145.60000000000002,101.6325208491542L146.25,94.68776607326764L146.89999999999998,73.32284967522413L147.55,94.9000269014207L148.2,107.84633323713865L148.85,115.61411703856942L149.5,103.07672378691657L150.15,95.55428783592488L150.79999999999998,108.23888979784132L151.45000000000002,115.84965097499102L152.1,68.82182277595328L152.75,75.00134722934665L153.4,95.90712543389412L154.05,91.25252882411141L154.7,88.4597708582416L155.35,86.7841160787199L156,102.97678674351833L156.65,95.49432560988603L157.29999999999998,91.00484892970672L157.95000000000002,105.50922645411052L158.6,97.01378943624134L159.25,74.71846369300836L159.9,95.73739531209115L160.55,108.34875428354118L161.2,98.71750613389965L161.85000000000002,92.93875724411473L162.5,89.47150791024386L163.14999999999998,87.39115830992132L163.8,86.14294854972763L164.45,85.39402269361152L165.1,102.14273071245321L165.75,94.99389199124704L166.4,107.90265229103446L167.04999999999998,98.44984493839586L167.70000000000002,109.97622405932393L168.35,116.89205153188058L169,86.64542095039172L169.65,85.69550613401005L170.3,102.32362077669235L170.95,112.30048956230155L171.6,83.89048376864449L172.25,101.24060735747291L172.9,94.45261797825886L173.54999999999998,55.98360297791389L174.20000000000002,84.49647888303474L174.85,101.60420442610697L175.5,111.8688397519504L176.15,83.63149388243397L176.8,83.88714989323533L177.45,101.2386070322275L178.10000000000002,94.4514177831117L178.75,90.37910423364178L179.39999999999998,105.13377963647146L180.05,113.98658487816911L180.7,102.10020449067639L181.35,112.16643979069232L182,101.00811743819034L182.65,94.31312402668931L183.29999999999998,90.29612797978834L183.95000000000002,105.08399388415933L184.6,113.95671342678199L185.25,102.08228161984385L185.9,112.15568606819255L186.55,118.19972873720175L187.2,104.6280908060959L187.85,96.48510804743238L188.5,108.79738192474582L189.15,116.18474625113399L189.79999999999998,137.815228379478L190.45000000000002,82.00116921864537L191.1,82.90895509496224L191.75,83.4536266207521L192.4,83.7804295362262L193.05,83.97651128551075L193.7,101.29222386759275L194.35000000000002,111.68165141684179L195,117.91530794639138L195.64999999999998,121.65550186412096L196.3,106.70155468224752L196.95,80.53112284061224L197.6,82.02692726814229L198.25,82.92440992466004L198.9,83.46289951857088L199.54999999999998,100.98405680742891L200.20000000000002,111.49675118074384L200.85,117.80436780473262L201.5,104.3908742466145L202.15,113.5408416442551L202.8,84.63469501781671L203.45,84.48907057446513L204.1,101.5997594409653L204.75,94.66810922835384L205.4,90.50911910078716L206.04999999999998,70.81566149173575L206.70000000000002,93.39571399132777L207.35,106.94374549108298L208,97.87450085842462L208.65,92.4329540788298L209.3,106.36608954358418L209.95,114.72597082243666L210.60000000000002,119.74189958974813L211.25,122.7514568501351L211.89999999999998,124.5571912063672L212.55,108.44256828759517L213.2,115.9718580688435L213.85,103.29136840508095L214.5,112.88113813933496L215.15,101.43693644737566L215.79999999999998,111.76847896471187L216.45000000000002,100.76934094260197L217.1,94.16985812933586L217.75,90.21016844137645L218.4,87.83435462860098L219.05,69.21080280842432L219.7,75.23473524882952L220.35,96.04715824558403L221,91.33654851112553L221.65,71.31211913793888L222.29999999999998,76.49552504653816L222.95000000000002,96.80363212420913L223.6,108.98849637081196L224.25,81.90328785375073L224.9,82.8502262760252L225.55,83.41838932939005L226.2,100.95735069392018L226.85000000000002,94.28266398012694" style="fill: none;" fill="none"></path></g></g></g></g><g opacity="0.2"><g><g><g><path stroke="rgb(255, 112, 67)" stroke-width="2px" d="M33.15,127.26579274071577L33.800000000000004,643.2076987160572L34.45,944.173928419748L35.1,41.275475078158905L35.75,41.275475078158905L36.400000000000006,41.275475078158905L37.05,-1.719919522603334L37.699999999999996,41.275475078158905L38.35,127.26579274071577L39,-1.719919522603334L40.3,-87.71023718516022L40.95,84.27063390943734L41.6,41.275475078158905L42.25,213.25611040327266L44.849999999999994,-87.71023718516022L45.5,127.26579274071577L46.15,-1.719919522603334L48.1,-130.70539601643867L48.75,84.27063390943734L49.4,-1.719919522603334L50.050000000000004,84.27063390943734L50.7,-44.71507835388181L52,-1.719919522603334L52.650000000000006,170.2609515719942L53.3,41.275475078158905L53.949999999999996,127.26579274071577L54.6,-87.71023718516022L55.25,127.26579274071577L55.9,127.26579274071577L56.55,-1.719919522603334L57.2,256.2512692345511L57.85,127.26579274071577L58.5,256.2512692345511L59.15,127.26579274071577L59.800000000000004,127.26579274071577L60.45,127.26579274071577L61.099999999999994,84.27063390943734L61.75,84.27063390943734L62.4,213.25611040327266L63.05,127.26579274071577L63.699999999999996,299.24642806582955L64.35,127.26579274071577L65,84.27063390943734L65.65,41.275475078158905L66.3,170.2609515719942L66.95,-1.719919522603334L67.60000000000001,41.275475078158905L68.25,-1.719919522603334L68.9,127.26579274071577L69.55,-44.71507835388181L70.2,-130.70539601643867L70.85000000000001,84.27063390943734L71.5,84.27063390943734L72.15,127.26579274071577L72.80000000000001,-1.719919522603334L73.44999999999999,41.275475078158905L74.1,41.275475078158905L74.75,-1.719919522603334L75.39999999999999,84.27063390943734L76.05,-44.71507835388181L78,-1.719919522603334L78.64999999999999,84.27063390943734L79.3,-1.719919522603334L80.6,-44.71507835388181L81.25,84.27063390943734L81.9,41.275475078158905L82.55,-1.719919522603334L83.2,170.2609515719942L83.85000000000001,127.26579274071577L84.5,41.275475078158905L85.15,127.26579274071577L85.8,84.27063390943734L86.45,84.27063390943734L87.10000000000001,-44.71507835388181L87.75,84.27063390943734L88.4,-1.719919522603334L89.05000000000001,84.27063390943734L89.69999999999999,-44.71507835388181L90.35,41.275475078158905L91,84.27063390943734L91.64999999999999,41.275475078158905L92.3,-1.719919522603334L92.95,127.26579274071577L93.6,84.27063390943734L94.25,84.27063390943734L94.89999999999999,41.275475078158905L95.55,41.275475078158905L96.2,84.27063390943734L96.85,84.27063390943734L97.5,127.26579274071577L98.15,84.27063390943734L98.8,84.27063390943734L99.45,84.27063390943734L100.10000000000001,41.275475078158905L100.75,84.27063390943734L101.4,84.27063390943734L102.05,127.26579274071577L102.7,84.27063390943734L103.35000000000001,84.27063390943734L104,84.27063390943734L104.65,84.27063390943734L105.30000000000001,84.27063390943734L105.94999999999999,84.27063390943734L106.6,127.26579274071577L107.25,127.26579274071577L107.89999999999999,84.27063390943734L108.55,127.26579274071577L109.2,127.26579274071577L109.85,127.26579274071577L110.5,84.27063390943734L111.14999999999999,84.27063390943734L111.8,41.275475078158905L112.45,84.27063390943734L113.1,127.26579274071577L113.75,84.27063390943734L114.4,127.26579274071577L115.05,84.27063390943734L115.7,127.26579274071577L116.35000000000001,41.275475078158905L117,84.27063390943734L117.65,41.275475078158905L118.3,41.275475078158905L118.95,84.27063390943734L119.60000000000001,84.27063390943734L120.25,84.27063390943734L120.9,127.26579274071577L121.55000000000001,41.275475078158905L122.19999999999999,84.27063390943734L122.85,127.26579274071577L123.5,84.27063390943734L124.14999999999999,127.26579274071577L124.8,84.27063390943734L125.45,41.275475078158905L126.1,127.26579274071577L126.75,84.27063390943734L127.39999999999999,84.27063390943734L128.05,84.27063390943734L128.7,127.26579274071577L129.35,127.26579274071577L130,127.26579274071577L130.64999999999998,41.275475078158905L131.3,84.27063390943734L131.95,84.27063390943734L132.6,84.27063390943734L133.25,127.26579274071577L133.9,127.26579274071577L134.54999999999998,127.26579274071577L135.20000000000002,41.275475078158905L135.85,84.27063390943734L136.5,127.26579274071577L137.15,84.27063390943734L137.8,127.26579274071577L138.45,84.27063390943734L139.1,127.26579274071577L139.75,127.26579274071577L140.4,127.26579274071577L141.04999999999998,127.26579274071577L141.70000000000002,84.27063390943734L142.35,84.27063390943734L143,127.26579274071577L143.65,127.26579274071577L144.3,84.27063390943734L144.95,127.26579274071577L145.60000000000002,84.27063390943734L146.25,84.27063390943734L146.89999999999998,41.275475078158905L147.55,127.26579274071577L148.2,127.26579274071577L148.85,127.26579274071577L149.5,84.27063390943734L150.15,84.27063390943734L150.79999999999998,127.26579274071577L151.45000000000002,127.26579274071577L152.1,-1.719919522603334L152.75,84.27063390943734L153.4,127.26579274071577L154.05,84.27063390943734L154.7,84.27063390943734L155.35,84.27063390943734L156,127.26579274071577L156.65,84.27063390943734L157.29999999999998,84.27063390943734L157.95000000000002,127.26579274071577L158.6,84.27063390943734L159.25,41.275475078158905L159.9,127.26579274071577L160.55,127.26579274071577L161.2,84.27063390943734L161.85000000000002,84.27063390943734L162.5,84.27063390943734L163.14999999999998,84.27063390943734L163.8,84.27063390943734L164.45,84.27063390943734L165.1,127.26579274071577L165.75,84.27063390943734L166.4,127.26579274071577L167.04999999999998,84.27063390943734L167.70000000000002,127.26579274071577L168.35,127.26579274071577L169,41.275475078158905L169.65,84.27063390943734L170.3,127.26579274071577L170.95,127.26579274071577L171.6,41.275475078158905L172.25,127.26579274071577L172.9,84.27063390943734L173.54999999999998,-1.719919522603334L174.20000000000002,127.26579274071577L174.85,127.26579274071577L175.5,127.26579274071577L176.15,41.275475078158905L176.8,84.27063390943734L177.45,127.26579274071577L178.10000000000002,84.27063390943734L178.75,84.27063390943734L179.39999999999998,127.26579274071577L180.05,127.26579274071577L180.7,84.27063390943734L181.35,127.26579274071577L182,84.27063390943734L182.65,84.27063390943734L183.29999999999998,84.27063390943734L183.95000000000002,127.26579274071577L184.6,127.26579274071577L185.25,84.27063390943734L185.9,127.26579274071577L186.55,127.26579274071577L187.2,84.27063390943734L187.85,84.27063390943734L188.5,127.26579274071577L189.15,127.26579274071577L189.79999999999998,170.2609515719942L190.45000000000002,-1.719919522603334L191.1,84.27063390943734L191.75,84.27063390943734L192.4,84.27063390943734L193.05,84.27063390943734L193.7,127.26579274071577L194.35000000000002,127.26579274071577L195,127.26579274071577L195.64999999999998,127.26579274071577L196.3,84.27063390943734L196.95,41.275475078158905L197.6,84.27063390943734L198.25,84.27063390943734L198.9,84.27063390943734L199.54999999999998,127.26579274071577L200.20000000000002,127.26579274071577L200.85,127.26579274071577L201.5,84.27063390943734L202.15,127.26579274071577L202.8,41.275475078158905L203.45,84.27063390943734L204.1,127.26579274071577L204.75,84.27063390943734L205.4,84.27063390943734L206.04999999999998,41.275475078158905L206.70000000000002,127.26579274071577L207.35,127.26579274071577L208,84.27063390943734L208.65,84.27063390943734L209.3,127.26579274071577L209.95,127.26579274071577L210.60000000000002,127.26579274071577L211.25,127.26579274071577L211.89999999999998,127.26579274071577L212.55,84.27063390943734L213.2,127.26579274071577L213.85,84.27063390943734L214.5,127.26579274071577L215.15,84.27063390943734L215.79999999999998,127.26579274071577L216.45000000000002,84.27063390943734L217.1,84.27063390943734L217.75,84.27063390943734L218.4,84.27063390943734L219.05,41.275475078158905L219.7,84.27063390943734L220.35,127.26579274071577L221,84.27063390943734L221.65,41.275475078158905L222.29999999999998,84.27063390943734L222.95000000000002,127.26579274071577L223.6,127.26579274071577L224.25,41.275475078158905L224.9,84.27063390943734L225.55,84.27063390943734L226.2,127.26579274071577L226.85000000000002,84.27063390943734" style="fill: none;" fill="none"></path></g></g></g></g></g></g><g transform="translate(70, 178)" clip-path="url(#clip_1)"><clipPath id="clip_1"><rect width="260" height="22"></rect></clipPath><g><g><line x1="0" y1="0" x2="0" y2="5" style="visibility: inherit;" fill="rgb(0, 0, 0)" stroke="rgb(204, 204, 204)" stroke-width="1px"></line><line x1="32.5" y1="0" x2="32.5" y2="5" style="visibility: inherit;" fill="rgb(0, 0, 0)" stroke="rgb(204, 204, 204)" stroke-width="1px"></line><line x1="65" y1="0" x2="65" y2="5" style="visibility: inherit;" fill="rgb(0, 0, 0)" stroke="rgb(204, 204, 204)" stroke-width="1px"></line><line x1="97.5" y1="0" x2="97.5" y2="5" style="visibility: inherit;" fill="rgb(0, 0, 0)" stroke="rgb(204, 204, 204)" stroke-width="1px"></line><line x1="130" y1="0" x2="130" y2="5" style="visibility: inherit;" fill="rgb(0, 0, 0)" stroke="rgb(204, 204, 204)" stroke-width="1px"></line><line x1="162.5" y1="0" x2="162.5" y2="5" style="visibility: inherit;" fill="rgb(0, 0, 0)" stroke="rgb(204, 204, 204)" stroke-width="1px"></line><line x1="195" y1="0" x2="195" y2="5" style="visibility: inherit;" fill="rgb(0, 0, 0)" stroke="rgb(204, 204, 204)" stroke-width="1px"></line><line x1="227.5" y1="0" x2="227.5" y2="5" style="visibility: inherit;" fill="rgb(0, 0, 0)" stroke="rgb(204, 204, 204)" stroke-width="1px"></line><line x1="260" y1="0" x2="260" y2="5" style="visibility: inherit;" fill="rgb(0, 0, 0)" stroke="rgb(204, 204, 204)" stroke-width="1px"></line></g><g transform="translate(0, 8)"><text x="0" y="0" dx="0em" dy="0.95em" style="text-anchor: middle; visibility: hidden; font-family: &quot;Helvetica Neue&quot;, sans-serif; font-size: 12px; font-weight: 200;" fill="rgb(50, 49, 63)" stroke="none" stroke-width="1px">-50</text><text x="32.5" y="0" dx="0em" dy="0.95em" style="text-anchor: middle; visibility: inherit; font-family: &quot;Helvetica Neue&quot;, sans-serif; font-size: 12px; font-weight: 200;" fill="rgb(50, 49, 63)" stroke="none" stroke-width="1px">0</text><text x="65" y="0" dx="0em" dy="0.95em" style="text-anchor: middle; visibility: inherit; font-family: &quot;Helvetica Neue&quot;, sans-serif; font-size: 12px; font-weight: 200;" fill="rgb(50, 49, 63)" stroke="none" stroke-width="1px">50</text><text x="97.5" y="0" dx="0em" dy="0.95em" style="text-anchor: middle; visibility: inherit; font-family: &quot;Helvetica Neue&quot;, sans-serif; font-size: 12px; font-weight: 200;" fill="rgb(50, 49, 63)" stroke="none" stroke-width="1px">100</text><text x="130" y="0" dx="0em" dy="0.95em" style="text-anchor: middle; visibility: inherit; font-family: &quot;Helvetica Neue&quot;, sans-serif; font-size: 12px; font-weight: 200;" fill="rgb(50, 49, 63)" stroke="none" stroke-width="1px">150</text><text x="162.5" y="0" dx="0em" dy="0.95em" style="text-anchor: middle; visibility: inherit; font-family: &quot;Helvetica Neue&quot;, sans-serif; font-size: 12px; font-weight: 200;" fill="rgb(50, 49, 63)" stroke="none" stroke-width="1px">200</text><text x="195" y="0" dx="0em" dy="0.95em" style="text-anchor: middle; visibility: inherit; font-family: &quot;Helvetica Neue&quot;, sans-serif; font-size: 12px; font-weight: 200;" fill="rgb(50, 49, 63)" stroke="none" stroke-width="1px">250</text><text x="227.5" y="0" dx="0em" dy="0.95em" style="text-anchor: middle; visibility: inherit; font-family: &quot;Helvetica Neue&quot;, sans-serif; font-size: 12px; font-weight: 200;" fill="rgb(50, 49, 63)" stroke="none" stroke-width="1px">300</text><text x="260" y="0" dx="0em" dy="0.95em" style="text-anchor: middle; visibility: hidden; font-family: &quot;Helvetica Neue&quot;, sans-serif; font-size: 12px; font-weight: 200;" fill="rgb(50, 49, 63)" stroke="none" stroke-width="1px">350</text></g><line x1="0" y1="0" x2="260" y2="0" fill="rgb(0, 0, 0)" stroke="rgb(204, 204, 204)" stroke-width="1px"></line></g></g></g></g></svg>