<svg viewBox="0 0 330 200" xmlns="http://www.w3.org/2000/svg"><g><g><g><g><g><line x1="70" y1="178" x2="65" y2="178" style="visibility: inherit;" fill="rgb(0, 0, 0)" stroke="rgb(204, 204, 204)" stroke-width="1px"></line><line x1="70" y1="152.57142857142858" x2="65" y2="152.57142857142858" style="visibility: inherit;" fill="rgb(0, 0, 0)" stroke="rgb(204, 204, 204)" stroke-width="1px"></line><line x1="70" y1="127.14285714285714" x2="65" y2="127.14285714285714" style="visibility: inherit;" fill="rgb(0, 0, 0)" stroke="rgb(204, 204, 204)" stroke-width="1px"></line><line x1="70" y1="101.71428571428572" x2="65" y2="101.71428571428572" style="visibility: inherit;" fill="rgb(0, 0, 0)" stroke="rgb(204, 204, 204)" stroke-width="1px"></line><line x1="70" y1="76.28571428571429" x2="65" y2="76.28571428571429" style="visibility: inherit;" fill="rgb(0, 0, 0)" stroke="rgb(204, 204, 204)" stroke-width="1px"></line><line x1="70" y1="50.85714285714286" x2="65" y2="50.85714285714286" style="visibility: inherit;" fill="rgb(0, 0, 0)" stroke="rgb(204, 204, 204)" stroke-width="1px"></line><line x1="70" y1="25.428571428571445" x2="65" y2="25.428571428571445" style="visibility: inherit;" fill="rgb(0, 0, 0)" stroke="rgb(204, 204, 204)" stroke-width="1px"></line><line x1="70" y1="0" x2="65" y2="0" style="visibility: inherit;" fill="rgb(0, 0, 0)" stroke="rgb(204, 204, 204)" stroke-width="1px"></line></g><g transform="translate(60, 0)"><text x="0" y="178" dx="0em" dy="0.3em" style="text-anchor: end; visibility: hidden; font-family: &quot;Helvetica Neue&quot;, sans-serif; font-size: 12px; font-weight: 200;" fill="rgb(50, 49, 63)" stroke="none" stroke-width="1px">0.62</text><text x="0" y="152.57142857142858" dx="0em" dy="0.3em" style="text-anchor: end; visibility: inherit; font-family: &quot;Helvetica Neue&quot;, sans-serif; font-size: 12px; font-weight: 200;" fill="rgb(50, 49, 63)" stroke="none" stroke-width="1px">0.625</text><text x="0" y="127.14285714285714" dx="0em" dy="0.3em" style="text-anchor: end; visibility: inherit; font-family: &quot;Helvetica Neue&quot;, sans-serif; font-size: 12px; font-weight: 200;" fill="rgb(50, 49, 63)" stroke="none" stroke-width="1px">0.63</text><text x="0" y="101.71428571428572" dx="0em" dy="0.3em" style="text-anchor: end; visibility: inherit; font-family: &quot;Helvetica Neue&quot;, sans-serif; font-size: 12px; font-weight: 200;" fill="rgb(50, 49, 63)" stroke="none" stroke-width="1px">0.635</text><text x="0" y="76.28571428571429" dx="0em" dy="0.3em" style="text-anchor: end; visibility: inherit; font-family: &quot;Helvetica Neue&quot;, sans-serif; font-size: 12px; font-weight: 200;" fill="rgb(50, 49, 63)" stroke="none" stroke-width="1px">0.64</text><text x="0" y="50.85714285714286" dx="0em" dy="0.3em" style="text-anchor: end; visibility: inherit; font-family: &quot;Helvetica Neue&quot;, sans-serif; font-size: 12px; font-weight: 200;" fill="rgb(50, 49, 63)" stroke="none" stroke-width="1px">0.645</text><text x="0" y="25.428571428571445" dx="0em" dy="0.3em" style="text-anchor: end; visibility: inherit; font-family: &quot;Helvetica Neue&quot;, sans-serif; font-size: 12px; font-weight: 200;" fill="rgb(50, 49, 63)" stroke="none" stroke-width="1px">0.65</text><text x="0" y="0" dx="0em" dy="0.3em" style="text-anchor: end; visibility: hidden; font-family: &quot;Helvetica Neue&quot;, sans-serif; font-size: 12px; font-weight: 200;" fill="rgb(50, 49, 63)" stroke="none" stroke-width="1px">0.655</text></g><line x1="70" y1="0" x2="70" y2="178" fill="rgb(0, 0, 0)" stroke="rgb(204, 204, 204)" stroke-width="1px"></line></g></g><g transform="translate(70, 0)" clip-path="url(#clip_0)"><clipPath id="clip_0"><rect width="260" height="178"></rect></clipPath><g><g><g><line x1="0" y1="0" x2="0" y2="178" fill="rgb(0, 0, 0)" stroke="rgb(60, 60, 60)" stroke-width="1px" opacity="0.25"></line><line x1="32.5" y1="0" x2="32.5" y2="178" fill="rgb(0, 0, 0)" stroke="rgb(60, 60, 60)" stroke-width="1px" opacity="0.25"></line><line x1="65" y1="0" x2="65" y2="178" fill="rgb(0, 0, 0)" stroke="rgb(60, 60, 60)" stroke-width="1px" opacity="0.25"></line><line x1="97.5" y1="0" x2="97.5" y2="178" fill="rgb(0, 0, 0)" stroke="rgb(60, 60, 60)" stroke-width="1px" opacity="0.25"></line><line x1="130" y1="0" x2="130" y2="178" fill="rgb(0, 0, 0)" stroke="rgb(60, 60, 60)" stroke-width="1px" opacity="0.25"></line><line x1="162.5" y1="0" x2="162.5" y2="178" fill="rgb(0, 0, 0)" stroke="rgb(60, 60, 60)" stroke-width="1px" opacity="0.25"></line><line x1="195" y1="0" x2="195" y2="178" fill="rgb(0, 0, 0)" stroke="rgb(60, 60, 60)" stroke-width="1px" opacity="0.25"></line><line x1="227.5" y1="0" x2="227.5" y2="178" fill="rgb(0, 0, 0)" stroke="rgb(60, 60, 60)" stroke-width="1px" opacity="0.25"></line><line x1="260" y1="0" x2="260" y2="178" fill="rgb(0, 0, 0)" stroke="rgb(60, 60, 60)" stroke-width="1px" opacity="0.25"></line></g><g><line x1="0" y1="178" x2="260" y2="178" fill="rgb(0, 0, 0)" stroke="rgb(60, 60, 60)" stroke-width="1px" opacity="0.25"></line><line x1="0" y1="152.57142857142858" x2="260" y2="152.57142857142858" fill="rgb(0, 0, 0)" stroke="rgb(60, 60, 60)" stroke-width="1px" opacity="0.25"></line><line x1="0" y1="127.14285714285714" x2="260" y2="127.14285714285714" fill="rgb(0, 0, 0)" stroke="rgb(60, 60, 60)" stroke-width="1px" opacity="0.25"></line><line x1="0" y1="101.71428571428572" x2="260" y2="101.71428571428572" fill="rgb(0, 0, 0)" stroke="rgb(60, 60, 60)" stroke-width="1px" opacity="0.25"></line><line x1="0" y1="76.28571428571429" x2="260" y2="76.28571428571429" fill="rgb(0, 0, 0)" stroke="rgb(60, 60, 60)" stroke-width="1px" opacity="0.25"></line><line x1="0" y1="50.85714285714286" x2="260" y2="50.85714285714286" fill="rgb(0, 0, 0)" stroke="rgb(60, 60, 60)" stroke-width="1px" opacity="0.25"></line><line x1="0" y1="25.428571428571445" x2="260" y2="25.428571428571445" fill="rgb(0, 0, 0)" stroke="rgb(60, 60, 60)" stroke-width="1px" opacity="0.25"></line><line x1="0" y1="0" x2="260" y2="0" fill="rgb(0, 0, 0)" stroke="rgb(60, 60, 60)" stroke-width="1px" opacity="0.25"></line></g></g></g><g><g><line x1="0" y1="3331.142857142854" x2="260" y2="3331.142857142854" fill="rgb(0, 0, 0)" stroke="rgb(153, 153, 153)" stroke-width="1.5px"></line></g></g><g><g><line x1="32.5" y1="0" x2="32.5" y2="178" fill="rgb(0, 0, 0)" stroke="rgb(153, 153, 153)" stroke-width="1.5px"></line></g></g><g><g><g><g><g><path stroke="rgb(255, 112, 67)" stroke-width="2px" d="M35.75,207.59499393658666L36.400000000000006,169.17911210992267L37.05,147.3097111332491L37.699999999999996,134.5865739628083L38.35,127.09085189991032L39,99.11716470297594L39.65,58.97393398971964L40.3,-11.885785668440064L40.95,15.936666404637435L41.6,32.60686305541273L42.25,-27.5800810403193L49.4,-57.36919143388576L50.050000000000004,35.375674571725256L50.7,67.6398716867679L51.35,40.233186541033604L52,47.17171321091945L52.650000000000006,74.71747871081722L53.3,114.62758491138004L53.949999999999996,91.80834960953598L54.6,101.49945717385933L55.25,107.3141215347493L55.9,87.42027246802799L56.55,75.48396315931902L57.2,68.32217762136993L57.85,87.40775374581857L58.5,98.85909939327394L59.15,129.11255416880914L59.800000000000004,123.88197962924355L60.45,120.7436349071152L61.099999999999994,118.86062807441883L61.75,117.73082397500971L62.4,117.05294151543956L63.05,116.646212039724L63.699999999999996,116.40217435430449L64.35,139.63839912147563L65,153.58013398157752L65.65,138.56252751934966L66.3,152.93461102023147L66.95,161.5578611207337L67.60000000000001,166.73181118102542L68.25,169.8361812171971L68.9,148.31615586078607L69.55,158.78678802505394L70.2,141.68651994550572L70.85000000000001,131.42635909777806L71.5,148.65290996724787L72.15,158.9888404889285L72.80000000000001,165.19039880193756L73.44999999999999,145.52868641163715L74.1,133.73165897745793L74.75,150.0360898950549L75.39999999999999,136.43610106750856L76.05,128.27610777098099L76.7,123.38011179306433L77.35,120.44251420631421L78,118.67995565426394L78.64999999999999,117.62242052303444L79.3,116.98789944429572L79.95,116.60718679705283L80.6,116.37875920870789L81.25,116.24170265570037L81.9,116.15946872389563L82.55,116.11012836481265L83.2,116.08052414936333L83.85000000000001,116.06276162009397L84.5,116.05210410253211L85.15,116.04570959199455L85.8,116.04187288567223L86.45,116.03957086187933L87.10000000000001,116.03818964760288L87.75,116.03736091903735L88.4,116.03686368189827L89.05000000000001,116.03656533961447L89.69999999999999,139.41903371234824L90.35,153.44851473598862L91,138.48355597206893L91.64999999999999,129.50458071371708L92.3,124.1171955587061L92.95,120.88476446569929L93.6,118.94530580989542L94.25,117.781630616413L94.89999999999999,117.08342550032341L95.55,116.6645024306699L96.2,116.41314858887768L96.85,116.26233628380257L97.5,116.17184890075751L98.15,116.1175564709298L98.8,116.08498101303316L99.45,116.06543573829552L100.10000000000001,116.05370857345294L100.75,116.04667227454705L101.4,116.04245049520398L102.05,116.039917427598L102.7,116.03839758703467L103.35000000000001,116.03748568269654L104,116.0369385400932L104.65,116.03661025453144L105.30000000000001,116.03641328319449L105.94999999999999,116.0362951003921L106.6,116.036224190711L107.25,116.03618164490189L107.89999999999999,116.03615611741687L108.55,116.03614080092586L109.2,116.03613161103115L109.85,116.03612609709431L110.5,116.0361227887322L111.14999999999999,116.03612080371519L111.8,116.03611961270474L112.45,116.03611889809892L113.1,116.03611846933532L113.75,116.03611821207681L114.4,116.03611805772171L115.05,116.03611796510864L115.7,116.03611790954082L116.35000000000001,116.03611787620011L117,139.41876523429963L117.65,130.06570627105552L118.3,124.45387089310915L118.95,121.08676966634147L119.60000000000001,119.06650893028016L120.25,117.85435248864384L120.9,117.12705862366181L121.55000000000001,116.69068230467283L122.19999999999999,116.42885651327921L122.85,116.27176103844303L123.5,116.17750375354179L124.14999999999999,116.12094938260059L124.8,116.08701676003564L125.45,116.06665718649712L126.1,116.0544414423739L126.75,116.04711199589974L127.39999999999999,116.0427143280158L128.05,116.040075727285L128.7,116.03849256684697L129.35,116.03754267058369L130,116.03697273282594L130.64999999999998,139.41927814827514L131.3,130.0660140194407L131.95,124.45405554214028L132.6,121.08688045576014L133.25,119.06657540393205L133.9,117.85439237283518L134.54999999999998,117.12708255417641L135.20000000000002,116.69069666298158L135.85,116.4288651282649L136.5,116.2717662074347L137.15,116.17750685493678L137.8,116.12095124343735L138.45,116.08701787653838L139.1,116.06665785639854L139.75,116.05444184431485L140.4,139.42975961516893L141.04999999999998,130.0723028995771L141.70000000000002,124.45782887022176L142.35,121.08914445260858L143,119.0679338020409L143.65,117.85520741169982L144.3,117.12757157749552L144.95,116.69099007697338L145.60000000000002,116.42904117665978L146.25,116.27187183647115L146.89999999999998,116.17757023235832L147.55,116.12098926989063L148.2,116.08704069241011L148.85,116.06667154592158L149.5,116.05445005802869L150.15,116.04711716529283L150.79999999999998,116.04271742965133L151.45000000000002,116.04007758826631L152.1,116.03849368343552L152.75,116.03754334053704L153.4,116.03697313479796L154.05,116.0366310113544L154.7,92.65377835918467L155.35,102.0067141459861L156,107.6184756180674L156.65,110.98553250131572L157.29999999999998,113.00576663126506L157.95000000000002,114.21790710923466L158.6,114.94519139601675L159.25,115.38156196808602L159.9,115.64338431132758L160.55,115.80047771727183L161.2,115.89473376083906L161.85000000000002,115.95128738697872L162.5,115.98521956266286L163.14999999999998,116.0055788680738L163.8,116.0177944513199L164.45,116.02512380126757L165.1,116.0295214112365L165.75,116.03215997721787L166.4,116.03374311680646L167.04999999999998,116.03469300055983L167.70000000000002,116.03526293081143L168.35,116.03560488896247L169,116.03581006385335L169.65,116.03593316878764L170.3,116.03600703174831L170.95,116.03605134952461L171.6,116.03607794019005L172.25,116.03609389458956L172.9,116.03610346722901L173.54999999999998,116.03610921081292L174.20000000000002,116.03611265696338L174.85,116.03611472465377L175.5,116.03611596526788L176.15,116.03611670963636L176.8,116.03611715625743L177.45,116.03611742422976L178.10000000000002,116.03611758501313L178.75,116.03611768148318L179.39999999999998,139.4187651174697L180.05,130.06570620095755L180.7,124.45387085105006L181.35,121.086769641106L182,119.06650891513911L182.65,117.85435247955897L183.29999999999998,117.1270586182109L183.95000000000002,116.6906823014025L184.6,116.42885651131712L185.25,116.27176103726634L185.9,116.17750375283543L186.55,116.12094938217712L187.2,116.08701675978156L187.85,116.06665718634467L188.5,116.05444144228242L189.15,116.04711199584554L189.79999999999998,116.04271432798306L190.45000000000002,116.04007572726579L191.1,116.0384925668351L191.75,116.03754267057693L192.4,116.03697273282144L193.05,116.03663077016861L193.7,116.03642559257713L194.35000000000002,116.03630248602178L195,116.0362286220888L195.64999999999998,116.03618430372924L196.3,116.03615771271318L196.95,116.03614175810364L197.6,116.03613218533826L198.25,116.0361264416787L198.9,116.0361229954825L199.54999999999998,116.03612092776501L200.20000000000002,116.03611968713452L200.85,116.03611894275645L201.5,116.03611849612915L202.15,116.03611822815347L202.8,116.03611806736782L203.45,116.03611797089665L204.1,116.03611791301329L204.75,116.03611787828359L205.4,116.036117857446L206.04999999999998,139.41876522304716L206.70000000000002,130.06570626430425L207.35,124.45387088905852L208,121.08676966391074L208.65,119.06650892882229L209.3,117.85435248776867L209.95,117.1270586231367L210.60000000000002,116.69068230435776L211.25,139.81150389119435L211.89999999999998,130.301349465192L212.55,124.59525680959084L213.2,121.17160121623013L213.85,119.11740786021359L214.5,117.88489184660389L215.15,117.14538223843762L215.79999999999998,116.70167647353854L216.45000000000002,116.43545301459864L217.1,116.27571893923492L217.75,116.17987849401646L218.4,116.1223742268854L219.05,92.70522428850303L219.7,102.03758170357722L220.35,107.6369961526223L221,110.99664482204899L221.65,113.01243402370514L222.29999999999998,114.22190754469894L222.95000000000002,114.94759165729465L223.6,115.38300212485242L224.25,115.64424840538753L224.9,115.80099617370803L225.55,115.89504483470078L226.2,115.95147403129576L226.85000000000002,115.98533154925319L227.5,116.00564606002754" style="fill: none;" fill="none"></path></g></g></g></g><g opacity="0.2"><g><g><g><path stroke="rgb(255, 112, 67)" stroke-width="2px" d="M35.1,232.94905158451618L35.75,174.49273627144947L36.400000000000006,116.03611782618935L37.05,116.03611782618935L37.699999999999996,116.03611782618935L38.35,116.03611782618935L39,57.57949938092922L39.65,-0.8768159321374753L40.3,-117.7897496904643L40.95,57.57949938092922L41.6,57.57949938092922L42.25,-117.7897496904643L43.550000000000004,-117.7897496904643L44.2,57.57949938092922L44.849999999999994,-117.7897496904643L49.4,-117.7897496904643L50.050000000000004,174.49273627144947L50.7,116.03611782618935L51.35,-0.8768159321374753L52,57.57949938092922L52.650000000000006,116.03611782618935L53.3,174.49273627144947L53.949999999999996,57.57949938092922L54.6,116.03611782618935L55.25,116.03611782618935L55.9,57.57949938092922L56.55,57.57949938092922L57.2,57.57949938092922L57.85,116.03611782618935L58.5,116.03611782618935L59.15,174.49273627144947L59.800000000000004,116.03611782618935L60.45,116.03611782618935L61.099999999999994,116.03611782618935L61.75,116.03611782618935L62.4,116.03611782618935L63.05,116.03611782618935L63.699999999999996,116.03611782618935L64.35,174.49273627144947L65,174.49273627144947L65.65,116.03611782618935L66.3,174.49273627144947L66.95,174.49273627144947L67.60000000000001,174.49273627144947L68.25,174.49273627144947L68.9,116.03611782618935L69.55,174.49273627144947L70.2,116.03611782618935L70.85000000000001,116.03611782618935L71.5,174.49273627144947L72.15,174.49273627144947L72.80000000000001,174.49273627144947L73.44999999999999,116.03611782618935L74.1,116.03611782618935L74.75,174.49273627144947L75.39999999999999,116.03611782618935L76.05,116.03611782618935L76.7,116.03611782618935L77.35,116.03611782618935L78,116.03611782618935L78.64999999999999,116.03611782618935L79.3,116.03611782618935L79.95,116.03611782618935L80.6,116.03611782618935L81.25,116.03611782618935L81.9,116.03611782618935L82.55,116.03611782618935L83.2,116.03611782618935L83.85000000000001,116.03611782618935L84.5,116.03611782618935L85.15,116.03611782618935L85.8,116.03611782618935L86.45,116.03611782618935L87.10000000000001,116.03611782618935L87.75,116.03611782618935L88.4,116.03611782618935L89.05000000000001,116.03611782618935L89.69999999999999,174.49273627144947L90.35,174.49273627144947L91,116.03611782618935L91.64999999999999,116.03611782618935L92.3,116.03611782618935L92.95,116.03611782618935L93.6,116.03611782618935L94.25,116.03611782618935L94.89999999999999,116.03611782618935L95.55,116.03611782618935L96.2,116.03611782618935L96.85,116.03611782618935L97.5,116.03611782618935L98.15,116.03611782618935L98.8,116.03611782618935L99.45,116.03611782618935L100.10000000000001,116.03611782618935L100.75,116.03611782618935L101.4,116.03611782618935L102.05,116.03611782618935L102.7,116.03611782618935L103.35000000000001,116.03611782618935L104,116.03611782618935L104.65,116.03611782618935L105.30000000000001,116.03611782618935L105.94999999999999,116.03611782618935L106.6,116.03611782618935L107.25,116.03611782618935L107.89999999999999,116.03611782618935L108.55,116.03611782618935L109.2,116.03611782618935L109.85,116.03611782618935L110.5,116.03611782618935L111.14999999999999,116.03611782618935L111.8,116.03611782618935L112.45,116.03611782618935L113.1,116.03611782618935L113.75,116.03611782618935L114.4,116.03611782618935L115.05,116.03611782618935L115.7,116.03611782618935L116.35000000000001,116.03611782618935L117,174.49273627144947L117.65,116.03611782618935L118.3,116.03611782618935L118.95,116.03611782618935L119.60000000000001,116.03611782618935L120.25,116.03611782618935L120.9,116.03611782618935L121.55000000000001,116.03611782618935L122.19999999999999,116.03611782618935L122.85,116.03611782618935L123.5,116.03611782618935L124.14999999999999,116.03611782618935L124.8,116.03611782618935L125.45,116.03611782618935L126.1,116.03611782618935L126.75,116.03611782618935L127.39999999999999,116.03611782618935L128.05,116.03611782618935L128.7,116.03611782618935L129.35,116.03611782618935L130,116.03611782618935L130.64999999999998,174.49273627144947L131.3,116.03611782618935L131.95,116.03611782618935L132.6,116.03611782618935L133.25,116.03611782618935L133.9,116.03611782618935L134.54999999999998,116.03611782618935L135.20000000000002,116.03611782618935L135.85,116.03611782618935L136.5,116.03611782618935L137.15,116.03611782618935L137.8,116.03611782618935L138.45,116.03611782618935L139.1,116.03611782618935L139.75,116.03611782618935L140.4,174.49273627144947L141.04999999999998,116.03611782618935L141.70000000000002,116.03611782618935L142.35,116.03611782618935L143,116.03611782618935L143.65,116.03611782618935L144.3,116.03611782618935L144.95,116.03611782618935L145.60000000000002,116.03611782618935L146.25,116.03611782618935L146.89999999999998,116.03611782618935L147.55,116.03611782618935L148.2,116.03611782618935L148.85,116.03611782618935L149.5,116.03611782618935L150.15,116.03611782618935L150.79999999999998,116.03611782618935L151.45000000000002,116.03611782618935L152.1,116.03611782618935L152.75,116.03611782618935L153.4,116.03611782618935L154.05,116.03611782618935L154.7,57.57949938092922L155.35,116.03611782618935L156,116.03611782618935L156.65,116.03611782618935L157.29999999999998,116.03611782618935L157.95000000000002,116.03611782618935L158.6,116.03611782618935L159.25,116.03611782618935L159.9,116.03611782618935L160.55,116.03611782618935L161.2,116.03611782618935L161.85000000000002,116.03611782618935L162.5,116.03611782618935L163.14999999999998,116.03611782618935L163.8,116.03611782618935L164.45,116.03611782618935L165.1,116.03611782618935L165.75,116.03611782618935L166.4,116.03611782618935L167.04999999999998,116.03611782618935L167.70000000000002,116.03611782618935L168.35,116.03611782618935L169,116.03611782618935L169.65,116.03611782618935L170.3,116.03611782618935L170.95,116.03611782618935L171.6,116.03611782618935L172.25,116.03611782618935L172.9,116.03611782618935L173.54999999999998,116.03611782618935L174.20000000000002,116.03611782618935L174.85,116.03611782618935L175.5,116.03611782618935L176.15,116.03611782618935L176.8,116.03611782618935L177.45,116.03611782618935L178.10000000000002,116.03611782618935L178.75,116.03611782618935L179.39999999999998,174.49273627144947L180.05,116.03611782618935L180.7,116.03611782618935L181.35,116.03611782618935L182,116.03611782618935L182.65,116.03611782618935L183.29999999999998,116.03611782618935L183.95000000000002,116.03611782618935L184.6,116.03611782618935L185.25,116.03611782618935L185.9,116.03611782618935L186.55,116.03611782618935L187.2,116.03611782618935L187.85,116.03611782618935L188.5,116.03611782618935L189.15,116.03611782618935L189.79999999999998,116.03611782618935L190.45000000000002,116.03611782618935L191.1,116.03611782618935L191.75,116.03611782618935L192.4,116.03611782618935L193.05,116.03611782618935L193.7,116.03611782618935L194.35000000000002,116.03611782618935L195,116.03611782618935L195.64999999999998,116.03611782618935L196.3,116.03611782618935L196.95,116.03611782618935L197.6,116.03611782618935L198.25,116.03611782618935L198.9,116.03611782618935L199.54999999999998,116.03611782618935L200.20000000000002,116.03611782618935L200.85,116.03611782618935L201.5,116.03611782618935L202.15,116.03611782618935L202.8,116.03611782618935L203.45,116.03611782618935L204.1,116.03611782618935L204.75,116.03611782618935L205.4,116.03611782618935L206.04999999999998,174.49273627144947L206.70000000000002,116.03611782618935L207.35,116.03611782618935L208,116.03611782618935L208.65,116.03611782618935L209.3,116.03611782618935L209.95,116.03611782618935L210.60000000000002,116.03611782618935L211.25,174.49273627144947L211.89999999999998,116.03611782618935L212.55,116.03611782618935L213.2,116.03611782618935L213.85,116.03611782618935L214.5,116.03611782618935L215.15,116.03611782618935L215.79999999999998,116.03611782618935L216.45000000000002,116.03611782618935L217.1,116.03611782618935L217.75,116.03611782618935L218.4,116.03611782618935L219.05,57.57949938092922L219.7,116.03611782618935L220.35,116.03611782618935L221,116.03611782618935L221.65,116.03611782618935L222.29999999999998,116.03611782618935L222.95000000000002,116.03611782618935L223.6,116.03611782618935L224.25,116.03611782618935L224.9,116.03611782618935L225.55,116.03611782618935L226.2,116.03611782618935L226.85000000000002,116.03611782618935L227.5,116.03611782618935" style="fill: none;" fill="none"></path></g></g></g></g></g></g><g transform="translate(70, 178)" clip-path="url(#clip_1)"><clipPath id="clip_1"><rect width="260" height="22"></rect></clipPath><g><g><line x1="0" y1="0" x2="0" y2="5" style="visibility: inherit;" fill="rgb(0, 0, 0)" stroke="rgb(204, 204, 204)" stroke-width="1px"></line><line x1="32.5" y1="0" x2="32.5" y2="5" style="visibility: inherit;" fill="rgb(0, 0, 0)" stroke="rgb(204, 204, 204)" stroke-width="1px"></line><line x1="65" y1="0" x2="65" y2="5" style="visibility: inherit;" fill="rgb(0, 0, 0)" stroke="rgb(204, 204, 204)" stroke-width="1px"></line><line x1="97.5" y1="0" x2="97.5" y2="5" style="visibility: inherit;" fill="rgb(0, 0, 0)" stroke="rgb(204, 204, 204)" stroke-width="1px"></line><line x1="130" y1="0" x2="130" y2="5" style="visibility: inherit;" fill="rgb(0, 0, 0)" stroke="rgb(204, 204, 204)" stroke-width="1px"></line><line x1="162.5" y1="0" x2="162.5" y2="5" style="visibility: inherit;" fill="rgb(0, 0, 0)" stroke="rgb(204, 204, 204)" stroke-width="1px"></line><line x1="195" y1="0" x2="195" y2="5" style="visibility: inherit;" fill="rgb(0, 0, 0)" stroke="rgb(204, 204, 204)" stroke-width="1px"></line><line x1="227.5" y1="0" x2="227.5" y2="5" style="visibility: inherit;" fill="rgb(0, 0, 0)" stroke="rgb(204, 204, 204)" stroke-width="1px"></line><line x1="260" y1="0" x2="260" y2="5" style="visibility: inherit;" fill="rgb(0, 0, 0)" stroke="rgb(204, 204, 204)" stroke-width="1px"></line></g><g transform="translate(0, 8)"><text x="0" y="0" dx="0em" dy="0.95em" style="text-anchor: middle; visibility: hidden; font-family: &quot;Helvetica Neue&quot;, sans-serif; font-size: 12px; font-weight: 200;" fill="rgb(50, 49, 63)" stroke="none" stroke-width="1px">-50</text><text x="32.5" y="0" dx="0em" dy="0.95em" style="text-anchor: middle; visibility: inherit; font-family: &quot;Helvetica Neue&quot;, sans-serif; font-size: 12px; font-weight: 200;" fill="rgb(50, 49, 63)" stroke="none" stroke-width="1px">0</text><text x="65" y="0" dx="0em" dy="0.95em" style="text-anchor: middle; visibility: inherit; font-family: &quot;Helvetica Neue&quot;, sans-serif; font-size: 12px; font-weight: 200;" fill="rgb(50, 49, 63)" stroke="none" stroke-width="1px">50</text><text x="97.5" y="0" dx="0em" dy="0.95em" style="text-anchor: middle; visibility: inherit; font-family: &quot;Helvetica Neue&quot;, sans-serif; font-size: 12px; font-weight: 200;" fill="rgb(50, 49, 63)" stroke="none" stroke-width="1px">100</text><text x="130" y="0" dx="0em" dy="0.95em" style="text-anchor: middle; visibility: inherit; font-family: &quot;Helvetica Neue&quot;, sans-serif; font-size: 12px; font-weight: 200;" fill="rgb(50, 49, 63)" stroke="none" stroke-width="1px">150</text><text x="162.5" y="0" dx="0em" dy="0.95em" style="text-anchor: middle; visibility: inherit; font-family: &quot;Helvetica Neue&quot;, sans-serif; font-size: 12px; font-weight: 200;" fill="rgb(50, 49, 63)" stroke="none" stroke-width="1px">200</text><text x="195" y="0" dx="0em" dy="0.95em" style="text-anchor: middle; visibility: inherit; font-family: &quot;Helvetica Neue&quot;, sans-serif; font-size: 12px; font-weight: 200;" fill="rgb(50, 49, 63)" stroke="none" stroke-width="1px">250</text><text x="227.5" y="0" dx="0em" dy="0.95em" style="text-anchor: middle; visibility: inherit; font-family: &quot;Helvetica Neue&quot;, sans-serif; font-size: 12px; font-weight: 200;" fill="rgb(50, 49, 63)" stroke="none" stroke-width="1px">300</text><text x="260" y="0" dx="0em" dy="0.95em" style="text-anchor: middle; visibility: hidden; font-family: &quot;Helvetica Neue&quot;, sans-serif; font-size: 12px; font-weight: 200;" fill="rgb(50, 49, 63)" stroke="none" stroke-width="1px">350</text></g><line x1="0" y1="0" x2="260" y2="0" fill="rgb(0, 0, 0)" stroke="rgb(204, 204, 204)" stroke-width="1px"></line></g></g></g></g></svg>