<svg viewBox="0 0 330 200" xmlns="http://www.w3.org/2000/svg"><g><g><g><g><g><line x1="70" y1="178" x2="65" y2="178" style="visibility: inherit;" fill="rgb(0, 0, 0)" stroke="rgb(204, 204, 204)" stroke-width="1px"></line><line x1="70" y1="163.16666666666666" x2="65" y2="163.16666666666666" style="visibility: inherit;" fill="rgb(0, 0, 0)" stroke="rgb(204, 204, 204)" stroke-width="1px"></line><line x1="70" y1="148.33333333333334" x2="65" y2="148.33333333333334" style="visibility: inherit;" fill="rgb(0, 0, 0)" stroke="rgb(204, 204, 204)" stroke-width="1px"></line><line x1="70" y1="133.5" x2="65" y2="133.5" style="visibility: inherit;" fill="rgb(0, 0, 0)" stroke="rgb(204, 204, 204)" stroke-width="1px"></line><line x1="70" y1="118.66666666666667" x2="65" y2="118.66666666666667" style="visibility: inherit;" fill="rgb(0, 0, 0)" stroke="rgb(204, 204, 204)" stroke-width="1px"></line><line x1="70" y1="103.83333333333333" x2="65" y2="103.83333333333333" style="visibility: inherit;" fill="rgb(0, 0, 0)" stroke="rgb(204, 204, 204)" stroke-width="1px"></line><line x1="70" y1="89" x2="65" y2="89" style="visibility: inherit;" fill="rgb(0, 0, 0)" stroke="rgb(204, 204, 204)" stroke-width="1px"></line><line x1="70" y1="74.16666666666666" x2="65" y2="74.16666666666666" style="visibility: inherit;" fill="rgb(0, 0, 0)" stroke="rgb(204, 204, 204)" stroke-width="1px"></line><line x1="70" y1="59.33333333333334" x2="65" y2="59.33333333333334" style="visibility: inherit;" fill="rgb(0, 0, 0)" stroke="rgb(204, 204, 204)" stroke-width="1px"></line><line x1="70" y1="44.5" x2="65" y2="44.5" style="visibility: inherit;" fill="rgb(0, 0, 0)" stroke="rgb(204, 204, 204)" stroke-width="1px"></line><line x1="70" y1="29.666666666666657" x2="65" y2="29.666666666666657" style="visibility: inherit;" fill="rgb(0, 0, 0)" stroke="rgb(204, 204, 204)" stroke-width="1px"></line><line x1="70" y1="14.833333333333343" x2="65" y2="14.833333333333343" style="visibility: inherit;" fill="rgb(0, 0, 0)" stroke="rgb(204, 204, 204)" stroke-width="1px"></line><line x1="70" y1="0" x2="65" y2="0" style="visibility: inherit;" fill="rgb(0, 0, 0)" stroke="rgb(204, 204, 204)" stroke-width="1px"></line></g><g transform="translate(60, 0)"><text x="0" y="178" dx="0em" dy="0.3em" style="text-anchor: end; visibility: hidden; font-family: &quot;Helvetica Neue&quot;, sans-serif; font-size: 12px; font-weight: 200;" fill="rgb(50, 49, 63)" stroke="none" stroke-width="1px">0.62</text><text x="0" y="163.16666666666666" dx="0em" dy="0.3em" style="text-anchor: end; visibility: inherit; font-family: &quot;Helvetica Neue&quot;, sans-serif; font-size: 12px; font-weight: 200;" fill="rgb(50, 49, 63)" stroke="none" stroke-width="1px">0.625</text><text x="0" y="148.33333333333334" dx="0em" dy="0.3em" style="text-anchor: end; visibility: hidden; font-family: &quot;Helvetica Neue&quot;, sans-serif; font-size: 12px; font-weight: 200;" fill="rgb(50, 49, 63)" stroke="none" stroke-width="1px">0.63</text><text x="0" y="133.5" dx="0em" dy="0.3em" style="text-anchor: end; visibility: inherit; font-family: &quot;Helvetica Neue&quot;, sans-serif; font-size: 12px; font-weight: 200;" fill="rgb(50, 49, 63)" stroke="none" stroke-width="1px">0.635</text><text x="0" y="118.66666666666667" dx="0em" dy="0.3em" style="text-anchor: end; visibility: hidden; font-family: &quot;Helvetica Neue&quot;, sans-serif; font-size: 12px; font-weight: 200;" fill="rgb(50, 49, 63)" stroke="none" stroke-width="1px">0.64</text><text x="0" y="103.83333333333333" dx="0em" dy="0.3em" style="text-anchor: end; visibility: inherit; font-family: &quot;Helvetica Neue&quot;, sans-serif; font-size: 12px; font-weight: 200;" fill="rgb(50, 49, 63)" stroke="none" stroke-width="1px">0.645</text><text x="0" y="89" dx="0em" dy="0.3em" style="text-anchor: end; visibility: hidden; font-family: &quot;Helvetica Neue&quot;, sans-serif; font-size: 12px; font-weight: 200;" fill="rgb(50, 49, 63)" stroke="none" stroke-width="1px">0.65</text><text x="0" y="74.16666666666666" dx="0em" dy="0.3em" style="text-anchor: end; visibility: inherit; font-family: &quot;Helvetica Neue&quot;, sans-serif; font-size: 12px; font-weight: 200;" fill="rgb(50, 49, 63)" stroke="none" stroke-width="1px">0.655</text><text x="0" y="59.33333333333334" dx="0em" dy="0.3em" style="text-anchor: end; visibility: hidden; font-family: &quot;Helvetica Neue&quot;, sans-serif; font-size: 12px; font-weight: 200;" fill="rgb(50, 49, 63)" stroke="none" stroke-width="1px">0.66</text><text x="0" y="44.5" dx="0em" dy="0.3em" style="text-anchor: end; visibility: inherit; font-family: &quot;Helvetica Neue&quot;, sans-serif; font-size: 12px; font-weight: 200;" fill="rgb(50, 49, 63)" stroke="none" stroke-width="1px">0.665</text><text x="0" y="29.666666666666657" dx="0em" dy="0.3em" style="text-anchor: end; visibility: hidden; font-family: &quot;Helvetica Neue&quot;, sans-serif; font-size: 12px; font-weight: 200;" fill="rgb(50, 49, 63)" stroke="none" stroke-width="1px">0.67</text><text x="0" y="14.833333333333343" dx="0em" dy="0.3em" style="text-anchor: end; visibility: inherit; font-family: &quot;Helvetica Neue&quot;, sans-serif; font-size: 12px; font-weight: 200;" fill="rgb(50, 49, 63)" stroke="none" stroke-width="1px">0.675</text><text x="0" y="0" dx="0em" dy="0.3em" style="text-anchor: end; visibility: hidden; font-family: &quot;Helvetica Neue&quot;, sans-serif; font-size: 12px; font-weight: 200;" fill="rgb(50, 49, 63)" stroke="none" stroke-width="1px">0.68</text></g><line x1="70" y1="0" x2="70" y2="178" fill="rgb(0, 0, 0)" stroke="rgb(204, 204, 204)" stroke-width="1px"></line></g></g><g transform="translate(70, 0)" clip-path="url(#clip_0)"><clipPath id="clip_0"><rect width="260" height="178"></rect></clipPath><g><g><g><line x1="0" y1="0" x2="0" y2="178" fill="rgb(0, 0, 0)" stroke="rgb(60, 60, 60)" stroke-width="1px" opacity="0.25"></line><line x1="32.5" y1="0" x2="32.5" y2="178" fill="rgb(0, 0, 0)" stroke="rgb(60, 60, 60)" stroke-width="1px" opacity="0.25"></line><line x1="65" y1="0" x2="65" y2="178" fill="rgb(0, 0, 0)" stroke="rgb(60, 60, 60)" stroke-width="1px" opacity="0.25"></line><line x1="97.5" y1="0" x2="97.5" y2="178" fill="rgb(0, 0, 0)" stroke="rgb(60, 60, 60)" stroke-width="1px" opacity="0.25"></line><line x1="130" y1="0" x2="130" y2="178" fill="rgb(0, 0, 0)" stroke="rgb(60, 60, 60)" stroke-width="1px" opacity="0.25"></line><line x1="162.5" y1="0" x2="162.5" y2="178" fill="rgb(0, 0, 0)" stroke="rgb(60, 60, 60)" stroke-width="1px" opacity="0.25"></line><line x1="195" y1="0" x2="195" y2="178" fill="rgb(0, 0, 0)" stroke="rgb(60, 60, 60)" stroke-width="1px" opacity="0.25"></line><line x1="227.5" y1="0" x2="227.5" y2="178" fill="rgb(0, 0, 0)" stroke="rgb(60, 60, 60)" stroke-width="1px" opacity="0.25"></line><line x1="260" y1="0" x2="260" y2="178" fill="rgb(0, 0, 0)" stroke="rgb(60, 60, 60)" stroke-width="1px" opacity="0.25"></line></g><g><line x1="0" y1="178" x2="260" y2="178" fill="rgb(0, 0, 0)" stroke="rgb(60, 60, 60)" stroke-width="1px" opacity="0.25"></line><line x1="0" y1="163.16666666666666" x2="260" y2="163.16666666666666" fill="rgb(0, 0, 0)" stroke="rgb(60, 60, 60)" stroke-width="1px" opacity="0.25"></line><line x1="0" y1="148.33333333333334" x2="260" y2="148.33333333333334" fill="rgb(0, 0, 0)" stroke="rgb(60, 60, 60)" stroke-width="1px" opacity="0.25"></line><line x1="0" y1="133.5" x2="260" y2="133.5" fill="rgb(0, 0, 0)" stroke="rgb(60, 60, 60)" stroke-width="1px" opacity="0.25"></line><line x1="0" y1="118.66666666666667" x2="260" y2="118.66666666666667" fill="rgb(0, 0, 0)" stroke="rgb(60, 60, 60)" stroke-width="1px" opacity="0.25"></line><line x1="0" y1="103.83333333333333" x2="260" y2="103.83333333333333" fill="rgb(0, 0, 0)" stroke="rgb(60, 60, 60)" stroke-width="1px" opacity="0.25"></line><line x1="0" y1="89" x2="260" y2="89" fill="rgb(0, 0, 0)" stroke="rgb(60, 60, 60)" stroke-width="1px" opacity="0.25"></line><line x1="0" y1="74.16666666666666" x2="260" y2="74.16666666666666" fill="rgb(0, 0, 0)" stroke="rgb(60, 60, 60)" stroke-width="1px" opacity="0.25"></line><line x1="0" y1="59.33333333333334" x2="260" y2="59.33333333333334" fill="rgb(0, 0, 0)" stroke="rgb(60, 60, 60)" stroke-width="1px" opacity="0.25"></line><line x1="0" y1="44.5" x2="260" y2="44.5" fill="rgb(0, 0, 0)" stroke="rgb(60, 60, 60)" stroke-width="1px" opacity="0.25"></line><line x1="0" y1="29.666666666666657" x2="260" y2="29.666666666666657" fill="rgb(0, 0, 0)" stroke="rgb(60, 60, 60)" stroke-width="1px" opacity="0.25"></line><line x1="0" y1="14.833333333333343" x2="260" y2="14.833333333333343" fill="rgb(0, 0, 0)" stroke="rgb(60, 60, 60)" stroke-width="1px" opacity="0.25"></line><line x1="0" y1="0" x2="260" y2="0" fill="rgb(0, 0, 0)" stroke="rgb(60, 60, 60)" stroke-width="1px" opacity="0.25"></line></g></g></g><g><g><line x1="0" y1="2017.3333333333314" x2="260" y2="2017.3333333333314" fill="rgb(0, 0, 0)" stroke="rgb(153, 153, 153)" stroke-width="1.5px"></line></g></g><g><g><line x1="32.5" y1="0" x2="32.5" y2="178" fill="rgb(0, 0, 0)" stroke="rgb(153, 153, 153)" stroke-width="1.5px"></line></g></g><g><g><g><g><g><path stroke="rgb(255, 112, 67)" stroke-width="2px" d="M39,213.30028634091934L39.65,157.72775591315076L40.3,166.98694056255562L40.95,158.3841300181722L41.6,153.22964028637L42.25,206.67404761771823L42.9,182.2007259258599L43.550000000000004,139.26236713868815L44.2,141.76087557988046L44.849999999999994,86.74844152013425L45.5,96.12560833675337L46.15,101.75168900170293L46.8,133.38156150386772L47.449999999999996,81.72379735380223L48.1,78.98346504047718L48.75,77.33927396273934L49.4,76.35276230777029L50.050000000000004,47.50689626965382L50.7,58.453344096877885L51.35,79.14821466388415L52,91.5651321239842L52.650000000000006,99.01528084320736L53.3,103.48536944228043L53.949999999999996,120.29442401629194L54.6,116.25285487457671L55.25,85.57391104262702L55.9,95.42054730773538L56.55,101.32852900180059L57.2,90.74631697472212L57.85,98.52399078275843L58.5,117.31759604303606L59.15,114.46675820413205L59.800000000000004,112.7562555022529L60.45,125.85695485339292L61.099999999999994,147.8443047009198L61.75,118.6557824304533L62.4,115.269670038658L63.05,113.2380026037156L63.699999999999996,112.01900214279877L64.35,97.16060089841461L65,88.24556015191212L65.65,68.76953473632682L66.3,85.33792142244126L66.95,81.15195246639273L67.60000000000001,78.64037109276842L68.25,77.13342226859555L68.9,76.22925297409242L69.55,75.68675139739106L70.2,89.48825141903329L70.85000000000001,111.89615239968022L71.5,111.21389202040494L72.15,96.67753482517806L72.80000000000001,87.9557205080421L73.44999999999999,82.72263191776068L74.1,79.58277876359196L74.75,63.571865903429185L75.39999999999999,53.96531818733108L76.05,62.32839052533433L76.7,67.34623392813587L77.35,84.48394093747848L78,66.51256320776064L78.64999999999999,41.602806333114074L79.3,40.78388244514221L79.95,26.165597875542602L80.6,31.521557370599737L81.25,34.735133067633654L81.9,50.79027945351581L82.55,60.423367285044975L83.2,52.076219016300854L83.85000000000001,47.0679300550546L84.5,72.31695861362971L85.15,87.46637574877464L85.8,82.42902506220007L86.45,93.53361561791692L87.10000000000001,71.94236801602403L87.75,58.987619454888375L88.4,51.21477031820665L89.05000000000001,60.678061803859535L89.69999999999999,66.35603669525113L90.35,41.508890425607916L91,54.854533868300294L91.64999999999999,62.86191993391567L92.3,81.79335254094634L92.95,79.02521113750315L93.6,63.23732532777578L94.25,53.76459384193929L94.89999999999999,48.08095495043753L95.55,44.670771615536324L96.2,28.49773137777936L96.85,32.92083747194144L97.5,35.57470112843856L98.15,51.29402028999881L98.8,60.72561178693478L99.45,52.25756571743483L100.10000000000001,47.1767380757349L100.75,30.001311253898166L101.4,33.822985397612655L102.05,36.11598988384142L102.7,65.74579451090186L103.35000000000001,55.26967535181494L104,34.857073619546384L104.65,36.736442817001574L105.30000000000001,23.73713409865846L105.94999999999999,15.937548867652708L106.6,25.38472796586524L107.25,31.05303542479291L107.89999999999999,20.32708966333297L108.55,13.89152220645741L109.2,38.284112936810146L109.85,38.79266640735983L110.5,39.09779848968992L111.14999999999999,53.40787870674923L111.8,61.993926836985096L112.45,53.018554747464876L113.1,47.63333149375262L113.75,30.27526730470919L114.4,33.987359028099405L115.05,50.34161502979518L115.7,46.027167663151005L116.35000000000001,43.43849924316436L117,41.88529819117244L117.65,69.20737949530049L118.3,85.60062827777716L118.95,67.18257561194025L119.60000000000001,84.38574594776117L120.25,80.5806471815923L120.9,50.043656717412816L121.55000000000001,59.9753936433831L122.19999999999999,51.80743483130374L122.85,75.16066147937939L123.5,75.04559650056305L124.14999999999999,60.84955654561146L124.8,52.331932572640696L125.45,61.348359156519905L126.1,52.631214139185815L126.75,47.40092712878538L127.39999999999999,58.389755890206516L128.05,64.98305314705938L128.7,83.0660324688325L129.35,93.91582006189631L130,86.29869165007327L130.64999999999998,53.47448339850153L131.3,47.90688868437482L131.95,44.566331855898625L132.6,56.688998726474594L133.25,49.83559788115858L133.9,45.723557373969044L134.54999999999998,71.51033500497842L135.20000000000002,101.1094025512454L135.85,90.61484114368265L136.5,98.44510526680666L137.15,89.01626277301942L137.8,83.35895727674693L138.45,65.83757301132198L139.1,55.32474245206687L139.75,34.890113879697765L140.4,36.75626697309255L141.04999999999998,52.002959796791004L141.70000000000002,61.150975491010016L142.35,52.512783939880094L143,61.456869976863345L143.65,52.69632063139203L144.3,61.566991991770706L144.95,38.63546360351978L145.60000000000002,39.003476807385766L146.25,53.35128569736693L146.89999999999998,47.83297006369378L147.55,44.52198068349017L148.2,56.662388023029635L148.85,49.8196314590914L149.5,59.84097848839039L150.15,51.72678573830805L150.79999999999998,46.858270088258735L151.45000000000002,43.93716069822918L152.1,56.31149603187281L152.75,49.60909626439744L153.4,31.46072616709594L154.05,48.82563531319306L154.7,73.37158176851258L155.35,59.84514770638138L156,37.60235703228636L156.65,52.51061383230751L157.29999999999998,61.45556791231992L157.95000000000002,66.82254036032762L158.6,55.91572286147033L159.25,35.24470212533984L159.9,51.096020888139435L160.55,46.47981117815749L161.2,71.96408728749144L161.85000000000002,87.25465295309174L162.5,82.30199138479034L163.14999999999998,51.07646323933156L163.8,46.46807658887255L164.45,57.830045566258946L165.1,64.64722695269084L165.75,40.48360458007207L166.4,54.23936236097853L167.04999999999998,62.49281702952241L167.70000000000002,67.44488983064872L168.35,70.41613351132472L169,43.94494851525212L169.65,56.31616872208696L170.3,63.73890084618765L170.95,54.06553915298667L171.6,62.38852310472741L172.25,67.38231347577172L172.9,84.50558866605992L173.54999999999998,66.52555184490984L174.20000000000002,69.86453071988151L174.85,57.74091707720274L175.5,50.46674889159546L176.15,31.975317743414507L176.8,35.00738929132254L177.45,65.08063415539026L178.10000000000002,54.87057913850798L178.75,62.8715470960402L179.39999999999998,67.67212787055973L180.05,70.55247633527127L180.7,72.28068541409817L181.35,73.31761086139439L182,73.93976612977205L182.65,60.18605832313732L183.29999999999998,66.06083460681793L183.95000000000002,69.58570037702619L184.6,85.82762080681263L185.25,81.44577209702308L185.9,78.81666287114933L186.55,91.36619830328667L187.2,84.76891859490755L187.85,80.81055076988008L188.5,64.30852910720193L189.15,68.53431707725645L189.79999999999998,56.9427888916275L190.45000000000002,64.11487294791216L191.1,54.291122414021075L191.75,62.523873061348326L192.4,67.46352344974454L193.05,70.42731368278214L193.7,86.3325887902661L194.35000000000002,95.87575385475652L195,87.47465192578947L195.64999999999998,68.30698980074777L196.3,70.93339349338414L196.95,72.50923570896583L197.6,59.32774007065339L198.25,51.41884268766566L198.9,46.67350425787322L199.54999999999998,43.82630119999763L200.20000000000002,27.991049128455813L200.85,32.6168281223473L201.5,49.51929648634393L202.15,45.53377653708017L202.8,57.2694655351834L203.45,50.18387796638392L204.1,74.18652736042716L204.75,60.334115061530326L205.4,52.02266768219182L206.04999999999998,75.28980118991217L206.70000000000002,60.996079359221184L207.35,80.67384819612958L208,78.35350853061335L208.65,76.96130473130344L209.3,76.12598245171749L209.95,61.497788116304235L210.60000000000002,52.72087151505637L211.25,61.58172252196917L211.89999999999998,66.89823312611706L212.55,70.0881394886055L213.2,57.87508233843714L213.85,64.67424901599783L214.5,68.75374902253411L215.15,42.94751782197804L215.79999999999998,41.59070933846044L216.45000000000002,69.03062618367328L217.1,71.36757532313938L217.75,44.51581360234104L218.4,42.53168680667824L219.05,27.214280492464383L219.7,32.150766940752504L220.35,35.11265880972533L221,51.016794898770684L221.65,60.55927655219776L222.29999999999998,66.28476554425421L222.95000000000002,83.84705990714947L223.6,80.25743555722508L224.25,92.230661914932L224.9,85.2875967618946L225.55,66.99475670241053L226.2,56.01905266672034L226.85000000000002,49.43363024530609L227.5,45.48237679245747" style="fill: none;" fill="none"></path></g></g></g></g><g opacity="0.2"><g><g><g><path stroke="rgb(255, 112, 67)" stroke-width="2px" d="M37.699999999999996,216.14283188184098L38.35,145.50800387064618L39,251.4603343009948L39.65,74.87299903233854L40.3,180.82532946268717L40.95,145.50800387064618L41.6,145.50800387064618L42.25,286.7778367201486L42.9,145.50800387064618L43.550000000000004,74.87299903233854L44.2,145.50800387064618L44.849999999999994,4.238171021143728L45.5,110.19050145149235L46.15,110.19050145149235L46.8,180.82532946268717L47.449999999999996,4.238171021143728L48.1,74.87299903233854L48.75,74.87299903233854L49.4,74.87299903233854L50.050000000000004,4.238171021143728L50.7,74.87299903233854L51.35,110.19050145149235L52,110.19050145149235L52.650000000000006,110.19050145149235L53.3,110.19050145149235L53.949999999999996,145.50800387064618L54.6,110.19050145149235L55.25,39.555496613184715L55.9,110.19050145149235L56.55,110.19050145149235L57.2,74.87299903233854L57.85,110.19050145149235L58.5,145.50800387064618L59.15,110.19050145149235L59.800000000000004,110.19050145149235L60.45,145.50800387064618L61.099999999999994,180.82532946268717L61.75,74.87299903233854L62.4,110.19050145149235L63.05,110.19050145149235L63.699999999999996,110.19050145149235L64.35,74.87299903233854L65,74.87299903233854L65.65,39.555496613184715L66.3,110.19050145149235L66.95,74.87299903233854L67.60000000000001,74.87299903233854L68.25,74.87299903233854L68.9,74.87299903233854L69.55,74.87299903233854L70.2,110.19050145149235L70.85000000000001,145.50800387064618L71.5,110.19050145149235L72.15,74.87299903233854L72.80000000000001,74.87299903233854L73.44999999999999,74.87299903233854L74.1,74.87299903233854L74.75,39.555496613184715L75.39999999999999,39.555496613184715L76.05,74.87299903233854L76.7,74.87299903233854L77.35,110.19050145149235L78,39.555496613184715L78.64999999999999,4.238171021143728L79.3,39.555496613184715L79.95,4.238171021143728L80.6,39.555496613184715L81.25,39.555496613184715L81.9,74.87299903233854L82.55,74.87299903233854L83.2,39.555496613184715L83.85000000000001,39.555496613184715L84.5,110.19050145149235L85.15,110.19050145149235L85.8,74.87299903233854L86.45,110.19050145149235L87.10000000000001,39.555496613184715L87.75,39.555496613184715L88.4,39.555496613184715L89.05000000000001,74.87299903233854L89.69999999999999,74.87299903233854L90.35,4.238171021143728L91,74.87299903233854L91.64999999999999,74.87299903233854L92.3,110.19050145149235L92.95,74.87299903233854L93.6,39.555496613184715L94.25,39.555496613184715L94.89999999999999,39.555496613184715L95.55,39.555496613184715L96.2,4.238171021143728L96.85,39.555496613184715L97.5,39.555496613184715L98.15,74.87299903233854L98.8,74.87299903233854L99.45,39.555496613184715L100.10000000000001,39.555496613184715L100.75,4.238171021143728L101.4,39.555496613184715L102.05,39.555496613184715L102.7,110.19050145149235L103.35000000000001,39.555496613184715L104,4.238171021143728L104.65,39.555496613184715L105.30000000000001,4.238171021143728L105.94999999999999,4.238171021143728L106.6,39.555496613184715L107.25,39.555496613184715L107.89999999999999,4.238171021143728L108.55,4.238171021143728L109.2,74.87299903233854L109.85,39.555496613184715L110.5,39.555496613184715L111.14999999999999,74.87299903233854L111.8,74.87299903233854L112.45,39.555496613184715L113.1,39.555496613184715L113.75,4.238171021143728L114.4,39.555496613184715L115.05,74.87299903233854L115.7,39.555496613184715L116.35000000000001,39.555496613184715L117,39.555496613184715L117.65,110.19050145149235L118.3,110.19050145149235L118.95,39.555496613184715L119.60000000000001,110.19050145149235L120.25,74.87299903233854L120.9,4.238171021143728L121.55000000000001,74.87299903233854L122.19999999999999,39.555496613184715L122.85,110.19050145149235L123.5,74.87299903233854L124.14999999999999,39.555496613184715L124.8,39.555496613184715L125.45,74.87299903233854L126.1,39.555496613184715L126.75,39.555496613184715L127.39999999999999,74.87299903233854L128.05,74.87299903233854L128.7,110.19050145149235L129.35,110.19050145149235L130,74.87299903233854L130.64999999999998,4.238171021143728L131.3,39.555496613184715L131.95,39.555496613184715L132.6,74.87299903233854L133.25,39.555496613184715L133.9,39.555496613184715L134.54999999999998,110.19050145149235L135.20000000000002,145.50800387064618L135.85,74.87299903233854L136.5,110.19050145149235L137.15,74.87299903233854L137.8,74.87299903233854L138.45,39.555496613184715L139.1,39.555496613184715L139.75,4.238171021143728L140.4,39.555496613184715L141.04999999999998,74.87299903233854L141.70000000000002,74.87299903233854L142.35,39.555496613184715L143,74.87299903233854L143.65,39.555496613184715L144.3,74.87299903233854L144.95,4.238171021143728L145.60000000000002,39.555496613184715L146.25,74.87299903233854L146.89999999999998,39.555496613184715L147.55,39.555496613184715L148.2,74.87299903233854L148.85,39.555496613184715L149.5,74.87299903233854L150.15,39.555496613184715L150.79999999999998,39.555496613184715L151.45000000000002,39.555496613184715L152.1,74.87299903233854L152.75,39.555496613184715L153.4,4.238171021143728L154.05,74.87299903233854L154.7,110.19050145149235L155.35,39.555496613184715L156,4.238171021143728L156.65,74.87299903233854L157.29999999999998,74.87299903233854L157.95000000000002,74.87299903233854L158.6,39.555496613184715L159.25,4.238171021143728L159.9,74.87299903233854L160.55,39.555496613184715L161.2,110.19050145149235L161.85000000000002,110.19050145149235L162.5,74.87299903233854L163.14999999999998,4.238171021143728L163.8,39.555496613184715L164.45,74.87299903233854L165.1,74.87299903233854L165.75,4.238171021143728L166.4,74.87299903233854L167.04999999999998,74.87299903233854L167.70000000000002,74.87299903233854L168.35,74.87299903233854L169,4.238171021143728L169.65,74.87299903233854L170.3,74.87299903233854L170.95,39.555496613184715L171.6,74.87299903233854L172.25,74.87299903233854L172.9,110.19050145149235L173.54999999999998,39.555496613184715L174.20000000000002,74.87299903233854L174.85,39.555496613184715L175.5,39.555496613184715L176.15,4.238171021143728L176.8,39.555496613184715L177.45,110.19050145149235L178.10000000000002,39.555496613184715L178.75,74.87299903233854L179.39999999999998,74.87299903233854L180.05,74.87299903233854L180.7,74.87299903233854L181.35,74.87299903233854L182,74.87299903233854L182.65,39.555496613184715L183.29999999999998,74.87299903233854L183.95000000000002,74.87299903233854L184.6,110.19050145149235L185.25,74.87299903233854L185.9,74.87299903233854L186.55,110.19050145149235L187.2,74.87299903233854L187.85,74.87299903233854L188.5,39.555496613184715L189.15,74.87299903233854L189.79999999999998,39.555496613184715L190.45000000000002,74.87299903233854L191.1,39.555496613184715L191.75,74.87299903233854L192.4,74.87299903233854L193.05,74.87299903233854L193.7,110.19050145149235L194.35000000000002,110.19050145149235L195,74.87299903233854L195.64999999999998,39.555496613184715L196.3,74.87299903233854L196.95,74.87299903233854L197.6,39.555496613184715L198.25,39.555496613184715L198.9,39.555496613184715L199.54999999999998,39.555496613184715L200.20000000000002,4.238171021143728L200.85,39.555496613184715L201.5,74.87299903233854L202.15,39.555496613184715L202.8,74.87299903233854L203.45,39.555496613184715L204.1,110.19050145149235L204.75,39.555496613184715L205.4,39.555496613184715L206.04999999999998,110.19050145149235L206.70000000000002,39.555496613184715L207.35,110.19050145149235L208,74.87299903233854L208.65,74.87299903233854L209.3,74.87299903233854L209.95,39.555496613184715L210.60000000000002,39.555496613184715L211.25,74.87299903233854L211.89999999999998,74.87299903233854L212.55,74.87299903233854L213.2,39.555496613184715L213.85,74.87299903233854L214.5,74.87299903233854L215.15,4.238171021143728L215.79999999999998,39.555496613184715L216.45000000000002,110.19050145149235L217.1,74.87299903233854L217.75,4.238171021143728L218.4,39.555496613184715L219.05,4.238171021143728L219.7,39.555496613184715L220.35,39.555496613184715L221,74.87299903233854L221.65,74.87299903233854L222.29999999999998,74.87299903233854L222.95000000000002,110.19050145149235L223.6,74.87299903233854L224.25,110.19050145149235L224.9,74.87299903233854L225.55,39.555496613184715L226.2,39.555496613184715L226.85000000000002,39.555496613184715L227.5,39.555496613184715" style="fill: none;" fill="none"></path></g></g></g></g></g></g><g transform="translate(70, 178)" clip-path="url(#clip_1)"><clipPath id="clip_1"><rect width="260" height="22"></rect></clipPath><g><g><line x1="0" y1="0" x2="0" y2="5" style="visibility: inherit;" fill="rgb(0, 0, 0)" stroke="rgb(204, 204, 204)" stroke-width="1px"></line><line x1="32.5" y1="0" x2="32.5" y2="5" style="visibility: inherit;" fill="rgb(0, 0, 0)" stroke="rgb(204, 204, 204)" stroke-width="1px"></line><line x1="65" y1="0" x2="65" y2="5" style="visibility: inherit;" fill="rgb(0, 0, 0)" stroke="rgb(204, 204, 204)" stroke-width="1px"></line><line x1="97.5" y1="0" x2="97.5" y2="5" style="visibility: inherit;" fill="rgb(0, 0, 0)" stroke="rgb(204, 204, 204)" stroke-width="1px"></line><line x1="130" y1="0" x2="130" y2="5" style="visibility: inherit;" fill="rgb(0, 0, 0)" stroke="rgb(204, 204, 204)" stroke-width="1px"></line><line x1="162.5" y1="0" x2="162.5" y2="5" style="visibility: inherit;" fill="rgb(0, 0, 0)" stroke="rgb(204, 204, 204)" stroke-width="1px"></line><line x1="195" y1="0" x2="195" y2="5" style="visibility: inherit;" fill="rgb(0, 0, 0)" stroke="rgb(204, 204, 204)" stroke-width="1px"></line><line x1="227.5" y1="0" x2="227.5" y2="5" style="visibility: inherit;" fill="rgb(0, 0, 0)" stroke="rgb(204, 204, 204)" stroke-width="1px"></line><line x1="260" y1="0" x2="260" y2="5" style="visibility: inherit;" fill="rgb(0, 0, 0)" stroke="rgb(204, 204, 204)" stroke-width="1px"></line></g><g transform="translate(0, 8)"><text x="0" y="0" dx="0em" dy="0.95em" style="text-anchor: middle; visibility: hidden; font-family: &quot;Helvetica Neue&quot;, sans-serif; font-size: 12px; font-weight: 200;" fill="rgb(50, 49, 63)" stroke="none" stroke-width="1px">-50</text><text x="32.5" y="0" dx="0em" dy="0.95em" style="text-anchor: middle; visibility: inherit; font-family: &quot;Helvetica Neue&quot;, sans-serif; font-size: 12px; font-weight: 200;" fill="rgb(50, 49, 63)" stroke="none" stroke-width="1px">0</text><text x="65" y="0" dx="0em" dy="0.95em" style="text-anchor: middle; visibility: inherit; font-family: &quot;Helvetica Neue&quot;, sans-serif; font-size: 12px; font-weight: 200;" fill="rgb(50, 49, 63)" stroke="none" stroke-width="1px">50</text><text x="97.5" y="0" dx="0em" dy="0.95em" style="text-anchor: middle; visibility: inherit; font-family: &quot;Helvetica Neue&quot;, sans-serif; font-size: 12px; font-weight: 200;" fill="rgb(50, 49, 63)" stroke="none" stroke-width="1px">100</text><text x="130" y="0" dx="0em" dy="0.95em" style="text-anchor: middle; visibility: inherit; font-family: &quot;Helvetica Neue&quot;, sans-serif; font-size: 12px; font-weight: 200;" fill="rgb(50, 49, 63)" stroke="none" stroke-width="1px">150</text><text x="162.5" y="0" dx="0em" dy="0.95em" style="text-anchor: middle; visibility: inherit; font-family: &quot;Helvetica Neue&quot;, sans-serif; font-size: 12px; font-weight: 200;" fill="rgb(50, 49, 63)" stroke="none" stroke-width="1px">200</text><text x="195" y="0" dx="0em" dy="0.95em" style="text-anchor: middle; visibility: inherit; font-family: &quot;Helvetica Neue&quot;, sans-serif; font-size: 12px; font-weight: 200;" fill="rgb(50, 49, 63)" stroke="none" stroke-width="1px">250</text><text x="227.5" y="0" dx="0em" dy="0.95em" style="text-anchor: middle; visibility: inherit; font-family: &quot;Helvetica Neue&quot;, sans-serif; font-size: 12px; font-weight: 200;" fill="rgb(50, 49, 63)" stroke="none" stroke-width="1px">300</text><text x="260" y="0" dx="0em" dy="0.95em" style="text-anchor: middle; visibility: hidden; font-family: &quot;Helvetica Neue&quot;, sans-serif; font-size: 12px; font-weight: 200;" fill="rgb(50, 49, 63)" stroke="none" stroke-width="1px">350</text></g><line x1="0" y1="0" x2="260" y2="0" fill="rgb(0, 0, 0)" stroke="rgb(204, 204, 204)" stroke-width="1px"></line></g></g></g></g></svg>