<svg viewBox="0 0 330 200" xmlns="http://www.w3.org/2000/svg"><g><g><g><g><g><line x1="58" y1="178" x2="53" y2="178" style="visibility: inherit;" fill="rgb(0, 0, 0)" stroke="rgb(204, 204, 204)" stroke-width="1px"></line><line x1="58" y1="158.22222222222226" x2="53" y2="158.22222222222226" style="visibility: inherit;" fill="rgb(0, 0, 0)" stroke="rgb(204, 204, 204)" stroke-width="1px"></line><line x1="58" y1="138.44444444444446" x2="53" y2="138.44444444444446" style="visibility: inherit;" fill="rgb(0, 0, 0)" stroke="rgb(204, 204, 204)" stroke-width="1px"></line><line x1="58" y1="118.66666666666667" x2="53" y2="118.66666666666667" style="visibility: inherit;" fill="rgb(0, 0, 0)" stroke="rgb(204, 204, 204)" stroke-width="1px"></line><line x1="58" y1="98.88888888888887" x2="53" y2="98.88888888888887" style="visibility: inherit;" fill="rgb(0, 0, 0)" stroke="rgb(204, 204, 204)" stroke-width="1px"></line><line x1="58" y1="79.11111111111107" x2="53" y2="79.11111111111107" style="visibility: inherit;" fill="rgb(0, 0, 0)" stroke="rgb(204, 204, 204)" stroke-width="1px"></line><line x1="58" y1="59.333333333333385" x2="53" y2="59.333333333333385" style="visibility: inherit;" fill="rgb(0, 0, 0)" stroke="rgb(204, 204, 204)" stroke-width="1px"></line><line x1="58" y1="39.5555555555556" x2="53" y2="39.5555555555556" style="visibility: inherit;" fill="rgb(0, 0, 0)" stroke="rgb(204, 204, 204)" stroke-width="1px"></line><line x1="58" y1="19.7777777777778" x2="53" y2="19.7777777777778" style="visibility: inherit;" fill="rgb(0, 0, 0)" stroke="rgb(204, 204, 204)" stroke-width="1px"></line><line x1="58" y1="0" x2="53" y2="0" style="visibility: inherit;" fill="rgb(0, 0, 0)" stroke="rgb(204, 204, 204)" stroke-width="1px"></line></g><g transform="translate(48, 0)"><text x="0" y="178" dx="0em" dy="0.3em" style="text-anchor: end; visibility: hidden; font-family: &quot;Helvetica Neue&quot;, sans-serif; font-size: 12px; font-weight: 200;" fill="rgb(50, 49, 63)" stroke="none" stroke-width="1px">0.46</text><text x="0" y="158.22222222222226" dx="0em" dy="0.3em" style="text-anchor: end; visibility: inherit; font-family: &quot;Helvetica Neue&quot;, sans-serif; font-size: 12px; font-weight: 200;" fill="rgb(50, 49, 63)" stroke="none" stroke-width="1px">0.48</text><text x="0" y="138.44444444444446" dx="0em" dy="0.3em" style="text-anchor: end; visibility: hidden; font-family: &quot;Helvetica Neue&quot;, sans-serif; font-size: 12px; font-weight: 200;" fill="rgb(50, 49, 63)" stroke="none" stroke-width="1px">0.5</text><text x="0" y="118.66666666666667" dx="0em" dy="0.3em" style="text-anchor: end; visibility: inherit; font-family: &quot;Helvetica Neue&quot;, sans-serif; font-size: 12px; font-weight: 200;" fill="rgb(50, 49, 63)" stroke="none" stroke-width="1px">0.52</text><text x="0" y="98.88888888888887" dx="0em" dy="0.3em" style="text-anchor: end; visibility: hidden; font-family: &quot;Helvetica Neue&quot;, sans-serif; font-size: 12px; font-weight: 200;" fill="rgb(50, 49, 63)" stroke="none" stroke-width="1px">0.54</text><text x="0" y="79.11111111111107" dx="0em" dy="0.3em" style="text-anchor: end; visibility: inherit; font-family: &quot;Helvetica Neue&quot;, sans-serif; font-size: 12px; font-weight: 200;" fill="rgb(50, 49, 63)" stroke="none" stroke-width="1px">0.56</text><text x="0" y="59.333333333333385" dx="0em" dy="0.3em" style="text-anchor: end; visibility: hidden; font-family: &quot;Helvetica Neue&quot;, sans-serif; font-size: 12px; font-weight: 200;" fill="rgb(50, 49, 63)" stroke="none" stroke-width="1px">0.58</text><text x="0" y="39.5555555555556" dx="0em" dy="0.3em" style="text-anchor: end; visibility: inherit; font-family: &quot;Helvetica Neue&quot;, sans-serif; font-size: 12px; font-weight: 200;" fill="rgb(50, 49, 63)" stroke="none" stroke-width="1px">0.6</text><text x="0" y="19.7777777777778" dx="0em" dy="0.3em" style="text-anchor: end; visibility: hidden; font-family: &quot;Helvetica Neue&quot;, sans-serif; font-size: 12px; font-weight: 200;" fill="rgb(50, 49, 63)" stroke="none" stroke-width="1px">0.62</text><text x="0" y="0" dx="0em" dy="0.3em" style="text-anchor: end; visibility: hidden; font-family: &quot;Helvetica Neue&quot;, sans-serif; font-size: 12px; font-weight: 200;" fill="rgb(50, 49, 63)" stroke="none" stroke-width="1px">0.64</text></g><line x1="58" y1="0" x2="58" y2="178" fill="rgb(0, 0, 0)" stroke="rgb(204, 204, 204)" stroke-width="1px"></line></g></g><g transform="translate(58, 0)" clip-path="url(#clip_0)"><clipPath id="clip_0"><rect width="272" height="178"></rect></clipPath><g><g><g><line x1="0" y1="0" x2="0" y2="178" fill="rgb(0, 0, 0)" stroke="rgb(60, 60, 60)" stroke-width="1px" opacity="0.25"></line><line x1="19.428571428571427" y1="0" x2="19.428571428571427" y2="178" fill="rgb(0, 0, 0)" stroke="rgb(60, 60, 60)" stroke-width="1px" opacity="0.25"></line><line x1="38.857142857142854" y1="0" x2="38.857142857142854" y2="178" fill="rgb(0, 0, 0)" stroke="rgb(60, 60, 60)" stroke-width="1px" opacity="0.25"></line><line x1="58.285714285714285" y1="0" x2="58.285714285714285" y2="178" fill="rgb(0, 0, 0)" stroke="rgb(60, 60, 60)" stroke-width="1px" opacity="0.25"></line><line x1="77.71428571428571" y1="0" x2="77.71428571428571" y2="178" fill="rgb(0, 0, 0)" stroke="rgb(60, 60, 60)" stroke-width="1px" opacity="0.25"></line><line x1="97.14285714285714" y1="0" x2="97.14285714285714" y2="178" fill="rgb(0, 0, 0)" stroke="rgb(60, 60, 60)" stroke-width="1px" opacity="0.25"></line><line x1="116.57142857142857" y1="0" x2="116.57142857142857" y2="178" fill="rgb(0, 0, 0)" stroke="rgb(60, 60, 60)" stroke-width="1px" opacity="0.25"></line><line x1="136" y1="0" x2="136" y2="178" fill="rgb(0, 0, 0)" stroke="rgb(60, 60, 60)" stroke-width="1px" opacity="0.25"></line><line x1="155.42857142857142" y1="0" x2="155.42857142857142" y2="178" fill="rgb(0, 0, 0)" stroke="rgb(60, 60, 60)" stroke-width="1px" opacity="0.25"></line><line x1="174.85714285714286" y1="0" x2="174.85714285714286" y2="178" fill="rgb(0, 0, 0)" stroke="rgb(60, 60, 60)" stroke-width="1px" opacity="0.25"></line><line x1="194.28571428571428" y1="0" x2="194.28571428571428" y2="178" fill="rgb(0, 0, 0)" stroke="rgb(60, 60, 60)" stroke-width="1px" opacity="0.25"></line><line x1="213.71428571428572" y1="0" x2="213.71428571428572" y2="178" fill="rgb(0, 0, 0)" stroke="rgb(60, 60, 60)" stroke-width="1px" opacity="0.25"></line><line x1="233.14285714285714" y1="0" x2="233.14285714285714" y2="178" fill="rgb(0, 0, 0)" stroke="rgb(60, 60, 60)" stroke-width="1px" opacity="0.25"></line><line x1="252.57142857142858" y1="0" x2="252.57142857142858" y2="178" fill="rgb(0, 0, 0)" stroke="rgb(60, 60, 60)" stroke-width="1px" opacity="0.25"></line><line x1="272" y1="0" x2="272" y2="178" fill="rgb(0, 0, 0)" stroke="rgb(60, 60, 60)" stroke-width="1px" opacity="0.25"></line></g><g><line x1="0" y1="178" x2="272" y2="178" fill="rgb(0, 0, 0)" stroke="rgb(60, 60, 60)" stroke-width="1px" opacity="0.25"></line><line x1="0" y1="158.22222222222226" x2="272" y2="158.22222222222226" fill="rgb(0, 0, 0)" stroke="rgb(60, 60, 60)" stroke-width="1px" opacity="0.25"></line><line x1="0" y1="138.44444444444446" x2="272" y2="138.44444444444446" fill="rgb(0, 0, 0)" stroke="rgb(60, 60, 60)" stroke-width="1px" opacity="0.25"></line><line x1="0" y1="118.66666666666667" x2="272" y2="118.66666666666667" fill="rgb(0, 0, 0)" stroke="rgb(60, 60, 60)" stroke-width="1px" opacity="0.25"></line><line x1="0" y1="98.88888888888887" x2="272" y2="98.88888888888887" fill="rgb(0, 0, 0)" stroke="rgb(60, 60, 60)" stroke-width="1px" opacity="0.25"></line><line x1="0" y1="79.11111111111107" x2="272" y2="79.11111111111107" fill="rgb(0, 0, 0)" stroke="rgb(60, 60, 60)" stroke-width="1px" opacity="0.25"></line><line x1="0" y1="59.333333333333385" x2="272" y2="59.333333333333385" fill="rgb(0, 0, 0)" stroke="rgb(60, 60, 60)" stroke-width="1px" opacity="0.25"></line><line x1="0" y1="39.5555555555556" x2="272" y2="39.5555555555556" fill="rgb(0, 0, 0)" stroke="rgb(60, 60, 60)" stroke-width="1px" opacity="0.25"></line><line x1="0" y1="19.7777777777778" x2="272" y2="19.7777777777778" fill="rgb(0, 0, 0)" stroke="rgb(60, 60, 60)" stroke-width="1px" opacity="0.25"></line><line x1="0" y1="0" x2="272" y2="0" fill="rgb(0, 0, 0)" stroke="rgb(60, 60, 60)" stroke-width="1px" opacity="0.25"></line></g></g></g><g><g><line x1="0" y1="632.8888888888889" x2="272" y2="632.8888888888889" fill="rgb(0, 0, 0)" stroke="rgb(153, 153, 153)" stroke-width="1.5px"></line></g></g><g><g><line x1="19.428571428571427" y1="0" x2="19.428571428571427" y2="178" fill="rgb(0, 0, 0)" stroke="rgb(153, 153, 153)" stroke-width="1.5px"></line></g></g><g><g><g><g><g><path stroke="rgb(255, 112, 67)" stroke-width="2px" d="M21.37142857142857,54.02712183528479L23.314285714285713,38.952573627233534L25.25714285714286,34.33791601252395L27.200000000000003,32.30203765309338L29.142857142857142,26.033039541562317L31.085714285714285,27.65881372625975L33.028571428571425,58.360975559781465L34.97142857142857,81.12909277712349L36.91428571428571,104.28862820156057L38.857142857142854,137.4468479029021L40.8,113.64027520718514L42.74285714285714,118.74922032547573L44.68571428571428,155.61854928103125L46.628571428571426,163.2264118871142L48.57142857142857,148.4828490700884L50.51428571428572,154.1167756771263L52.45714285714286,138.1974612997185L54.400000000000006,99.70154865567442L56.34285714285715,115.19965136316607L58.285714285714285,95.55376490537988L60.22857142857143,107.88646362470662L62.17142857142857,91.16635047406193L64.11428571428571,71.48663638685068L66.05714285714285,64.50279747413228L68,74.78408736290316L69.94285714285714,105.07212549948083L71.88571428571429,123.24491531524374L73.82857142857142,153.44398727945907L75.77142857142857,132.9726081113849L77.71428571428571,91.7466936338174L79.65714285714286,67.0111507802215L81.6,56.993671189938894L83.54285714285714,60.630895259864076L85.48571428571428,77.28476091959413L87.42857142857143,82.4532362890268L89.37142857142857,85.55432145382257L91.3142857142857,72.94344152836302L93.25714285714285,75.02460093506383L95.19999999999999,66.62560927643993L97.14285714285714,61.5862142932414L99.08571428571427,53.73871008871414L101.02857142857144,58.67791842782144L102.97142857142856,76.11297434824976L104.91428571428573,76.92632061940918L106.85714285714286,77.4143283820145L108.80000000000001,68.05944576273919L110.74285714285715,67.27035982983021L112.6857142857143,61.97306463189307L114.62857142857143,58.79468751320691L116.57142857142857,61.71150488016383L118.51428571428572,63.461595300322955L120.45714285714286,74.15933682864546L122.4,80.57798174561896L124.34285714285714,89.25301233390321L126.28571428571429,84.8103434106574L128.22857142857143,86.96858569481581L130.17142857142858,88.26353106531042L132.1142857142857,89.04049828760681L134.05714285714288,89.5066786209847L136,89.78638682101135L137.94285714285712,94.77805537912971L139.88571428571427,92.94921287589844L141.82857142857145,96.67575101206177L143.77142857142857,98.91167389375987L145.71428571428572,90.60554034657424L147.65714285714284,90.44570385636501L149.60000000000002,90.34980196223958L151.54285714285714,90.29226082576434L153.4857142857143,85.43389250577697L155.42857142857142,92.16655878998881L157.3714285714286,96.20615856051613L159.31428571428572,98.62991842283245L161.25714285714287,104.90804155527285L163.2,103.85104821968659L165.14285714285714,103.21685221833467L167.0857142857143,102.83633461752355L169.02857142857144,107.43189127208743L170.97142857142856,110.18922526482585L172.9142857142857,102.19591480731604L174.85714285714286,107.04763938596295L176.8,105.13480691810052L178.74285714285713,99.16326379928084L180.68571428571428,105.22804878114184L182.6285714285714,99.21920891710563L184.57142857142858,105.2616158518367L186.5142857142857,104.0631927976248L188.45714285714286,98.52029532699547L190.39999999999998,104.8422676977706L192.34285714285716,108.63545112023576L194.28571428571428,110.91136117371485L196.22857142857143,107.45303999075172L198.17142857142855,110.2019144960244L200.11428571428573,102.20352834603521L202.05714285714288,102.22834029414385L204,92.59554018680463L205.94285714285712,101.28741461365618L207.88571428571427,101.67867205471651L209.82857142857145,106.73729373440322L211.77142857142857,104.9485995271647L213.71428571428572,103.87538300282156L215.65714285714284,103.23145308821574L217.60000000000002,107.66896235450284L219.54285714285714,105.50760069922441L221.4857142857143,104.21078370605737L223.42857142857142,103.43269351015715L225.3714285714286,107.78970660766761L227.31428571428572,100.75620361302107L229.25714285714287,96.53610181623314L231.2,103.6517515913133L233.14285714285714,107.92114145636135L235.0857142857143,105.65890816033962L237.02857142857144,113.94927903587933L238.97142857142856,104.4519470699481L240.9142857142857,108.40125874354227L242.85714285714286,101.12313489454593L244.8,101.58010422325034L246.74285714285713,106.67815303552356L248.68571428571428,100.08927146973464L250.6285714285714,96.13594253026136L252.57142857142858,98.58778880467956" style="fill: none;" fill="none"></path></g></g></g></g><g opacity="0.2"><g><g><g><path stroke="rgb(255, 112, 67)" stroke-width="2px" d="M21.37142857142857,54.02712183528479L23.314285714285713,29.90784470240277L25.25714285714286,29.90784470240277L27.200000000000003,29.90784470240277L29.142857142857142,17.848235607147245L31.085714285714285,29.90784470240277L33.028571428571425,102.26555821630691L34.97142857142857,114.3252262539334L36.91428571428571,138.44444444444446L38.857142857142854,186.68293976783755L40.8,78.14634002579584L42.74285714285714,126.38483534918893L44.68571428571428,210.80215795834863L46.628571428571426,174.62330120139654L48.57142857142857,126.38483534918893L50.51428571428572,162.563692106141L52.45714285714286,114.3252262539334L54.400000000000006,41.967453797658294L56.34285714285715,138.44444444444446L58.285714285714285,66.08673093054031L60.22857142857143,126.38483534918893L62.17142857142857,66.08673093054031L64.11428571428571,41.967453797658294L66.05714285714285,54.02712183528479L68,90.20594912105138L69.94285714285714,150.5040535397L71.88571428571429,150.5040535397L73.82857142857142,198.74254886309308L75.77142857142857,102.26555821630691L77.71428571428571,29.90784470240277L79.65714285714286,29.90784470240277L81.6,41.967453797658294L83.54285714285714,66.08673093054031L85.48571428571428,102.26555821630691L87.42857142857143,90.20594912105138L89.37142857142857,90.20594912105138L91.3142857142857,54.02712183528479L93.25714285714285,78.14634002579584L95.19999999999999,54.02712183528479L97.14285714285714,54.02712183528479L99.08571428571427,41.967453797658294L101.02857142857144,66.08673093054031L102.97142857142856,102.26555821630691L104.91428571428573,78.14634002579584L106.85714285714286,78.14634002579584L108.80000000000001,54.02712183528479L110.74285714285715,66.08673093054031L112.6857142857143,54.02712183528479L114.62857142857143,54.02712183528479L116.57142857142857,66.08673093054031L118.51428571428572,66.08673093054031L120.45714285714286,90.20594912105138L122.4,90.20594912105138L124.34285714285714,102.26555821630691L126.28571428571429,78.14634002579584L128.22857142857143,90.20594912105138L130.17142857142858,90.20594912105138L132.1142857142857,90.20594912105138L134.05714285714288,90.20594912105138L136,90.20594912105138L137.94285714285712,102.26555821630691L139.88571428571427,90.20594912105138L141.82857142857145,102.26555821630691L143.77142857142857,102.26555821630691L145.71428571428572,78.14634002579584L147.65714285714284,90.20594912105138L149.60000000000002,90.20594912105138L151.54285714285714,90.20594912105138L153.4857142857143,78.14634002579584L155.42857142857142,102.26555821630691L157.3714285714286,102.26555821630691L159.31428571428572,102.26555821630691L161.25714285714287,114.3252262539334L163.2,102.26555821630691L165.14285714285714,102.26555821630691L167.0857142857143,102.26555821630691L169.02857142857144,114.3252262539334L170.97142857142856,114.3252262539334L172.9142857142857,90.20594912105138L174.85714285714286,114.3252262539334L176.8,102.26555821630691L178.74285714285713,90.20594912105138L180.68571428571428,114.3252262539334L182.6285714285714,90.20594912105138L184.57142857142858,114.3252262539334L186.5142857142857,102.26555821630691L188.45714285714286,90.20594912105138L190.39999999999998,114.3252262539334L192.34285714285716,114.3252262539334L194.28571428571428,114.3252262539334L196.22857142857143,102.26555821630691L198.17142857142855,114.3252262539334L200.11428571428573,90.20594912105138L202.05714285714288,102.26555821630691L204,78.14634002579584L205.94285714285712,114.3252262539334L207.88571428571427,102.26555821630691L209.82857142857145,114.3252262539334L211.77142857142857,102.26555821630691L213.71428571428572,102.26555821630691L215.65714285714284,102.26555821630691L217.60000000000002,114.3252262539334L219.54285714285714,102.26555821630691L221.4857142857143,102.26555821630691L223.42857142857142,102.26555821630691L225.3714285714286,114.3252262539334L227.31428571428572,90.20594912105138L229.25714285714287,90.20594912105138L231.2,114.3252262539334L233.14285714285714,114.3252262539334L235.0857142857143,102.26555821630691L237.02857142857144,126.38483534918893L238.97142857142856,90.20594912105138L240.9142857142857,114.3252262539334L242.85714285714286,90.20594912105138L244.8,102.26555821630691L246.74285714285713,114.3252262539334L248.68571428571428,90.20594912105138L250.6285714285714,90.20594912105138L252.57142857142858,102.26555821630691" style="fill: none;" fill="none"></path></g></g></g></g></g></g><g transform="translate(58, 178)" clip-path="url(#clip_1)"><clipPath id="clip_1"><rect width="272" height="22"></rect></clipPath><g><g><line x1="0" y1="0" x2="0" y2="5" style="visibility: inherit;" fill="rgb(0, 0, 0)" stroke="rgb(204, 204, 204)" stroke-width="1px"></line><line x1="19.428571428571427" y1="0" x2="19.428571428571427" y2="5" style="visibility: inherit;" fill="rgb(0, 0, 0)" stroke="rgb(204, 204, 204)" stroke-width="1px"></line><line x1="38.857142857142854" y1="0" x2="38.857142857142854" y2="5" style="visibility: inherit;" fill="rgb(0, 0, 0)" stroke="rgb(204, 204, 204)" stroke-width="1px"></line><line x1="58.285714285714285" y1="0" x2="58.285714285714285" y2="5" style="visibility: inherit;" fill="rgb(0, 0, 0)" stroke="rgb(204, 204, 204)" stroke-width="1px"></line><line x1="77.71428571428571" y1="0" x2="77.71428571428571" y2="5" style="visibility: inherit;" fill="rgb(0, 0, 0)" stroke="rgb(204, 204, 204)" stroke-width="1px"></line><line x1="97.14285714285714" y1="0" x2="97.14285714285714" y2="5" style="visibility: inherit;" fill="rgb(0, 0, 0)" stroke="rgb(204, 204, 204)" stroke-width="1px"></line><line x1="116.57142857142857" y1="0" x2="116.57142857142857" y2="5" style="visibility: inherit;" fill="rgb(0, 0, 0)" stroke="rgb(204, 204, 204)" stroke-width="1px"></line><line x1="136" y1="0" x2="136" y2="5" style="visibility: inherit;" fill="rgb(0, 0, 0)" stroke="rgb(204, 204, 204)" stroke-width="1px"></line><line x1="155.42857142857142" y1="0" x2="155.42857142857142" y2="5" style="visibility: inherit;" fill="rgb(0, 0, 0)" stroke="rgb(204, 204, 204)" stroke-width="1px"></line><line x1="174.85714285714286" y1="0" x2="174.85714285714286" y2="5" style="visibility: inherit;" fill="rgb(0, 0, 0)" stroke="rgb(204, 204, 204)" stroke-width="1px"></line><line x1="194.28571428571428" y1="0" x2="194.28571428571428" y2="5" style="visibility: inherit;" fill="rgb(0, 0, 0)" stroke="rgb(204, 204, 204)" stroke-width="1px"></line><line x1="213.71428571428572" y1="0" x2="213.71428571428572" y2="5" style="visibility: inherit;" fill="rgb(0, 0, 0)" stroke="rgb(204, 204, 204)" stroke-width="1px"></line><line x1="233.14285714285714" y1="0" x2="233.14285714285714" y2="5" style="visibility: inherit;" fill="rgb(0, 0, 0)" stroke="rgb(204, 204, 204)" stroke-width="1px"></line><line x1="252.57142857142858" y1="0" x2="252.57142857142858" y2="5" style="visibility: inherit;" fill="rgb(0, 0, 0)" stroke="rgb(204, 204, 204)" stroke-width="1px"></line><line x1="272" y1="0" x2="272" y2="5" style="visibility: inherit;" fill="rgb(0, 0, 0)" stroke="rgb(204, 204, 204)" stroke-width="1px"></line></g><g transform="translate(0, 8)"><text x="0" y="0" dx="0em" dy="0.95em" style="text-anchor: middle; visibility: hidden; font-family: &quot;Helvetica Neue&quot;, sans-serif; font-size: 12px; font-weight: 200;" fill="rgb(50, 49, 63)" stroke="none" stroke-width="1px">-10</text><text x="19.428571428571427" y="0" dx="0em" dy="0.95em" style="text-anchor: middle; visibility: inherit; font-family: &quot;Helvetica Neue&quot;, sans-serif; font-size: 12px; font-weight: 200;" fill="rgb(50, 49, 63)" stroke="none" stroke-width="1px">0</text><text x="38.857142857142854" y="0" dx="0em" dy="0.95em" style="text-anchor: middle; visibility: hidden; font-family: &quot;Helvetica Neue&quot;, sans-serif; font-size: 12px; font-weight: 200;" fill="rgb(50, 49, 63)" stroke="none" stroke-width="1px">10</text><text x="58.285714285714285" y="0" dx="0em" dy="0.95em" style="text-anchor: middle; visibility: inherit; font-family: &quot;Helvetica Neue&quot;, sans-serif; font-size: 12px; font-weight: 200;" fill="rgb(50, 49, 63)" stroke="none" stroke-width="1px">20</text><text x="77.71428571428571" y="0" dx="0em" dy="0.95em" style="text-anchor: middle; visibility: hidden; font-family: &quot;Helvetica Neue&quot;, sans-serif; font-size: 12px; font-weight: 200;" fill="rgb(50, 49, 63)" stroke="none" stroke-width="1px">30</text><text x="97.14285714285714" y="0" dx="0em" dy="0.95em" style="text-anchor: middle; visibility: inherit; font-family: &quot;Helvetica Neue&quot;, sans-serif; font-size: 12px; font-weight: 200;" fill="rgb(50, 49, 63)" stroke="none" stroke-width="1px">40</text><text x="116.57142857142857" y="0" dx="0em" dy="0.95em" style="text-anchor: middle; visibility: hidden; font-family: &quot;Helvetica Neue&quot;, sans-serif; font-size: 12px; font-weight: 200;" fill="rgb(50, 49, 63)" stroke="none" stroke-width="1px">50</text><text x="136" y="0" dx="0em" dy="0.95em" style="text-anchor: middle; visibility: inherit; font-family: &quot;Helvetica Neue&quot;, sans-serif; font-size: 12px; font-weight: 200;" fill="rgb(50, 49, 63)" stroke="none" stroke-width="1px">60</text><text x="155.42857142857142" y="0" dx="0em" dy="0.95em" style="text-anchor: middle; visibility: hidden; font-family: &quot;Helvetica Neue&quot;, sans-serif; font-size: 12px; font-weight: 200;" fill="rgb(50, 49, 63)" stroke="none" stroke-width="1px">70</text><text x="174.85714285714286" y="0" dx="0em" dy="0.95em" style="text-anchor: middle; visibility: inherit; font-family: &quot;Helvetica Neue&quot;, sans-serif; font-size: 12px; font-weight: 200;" fill="rgb(50, 49, 63)" stroke="none" stroke-width="1px">80</text><text x="194.28571428571428" y="0" dx="0em" dy="0.95em" style="text-anchor: middle; visibility: hidden; font-family: &quot;Helvetica Neue&quot;, sans-serif; font-size: 12px; font-weight: 200;" fill="rgb(50, 49, 63)" stroke="none" stroke-width="1px">90</text><text x="213.71428571428572" y="0" dx="0em" dy="0.95em" style="text-anchor: middle; visibility: inherit; font-family: &quot;Helvetica Neue&quot;, sans-serif; font-size: 12px; font-weight: 200;" fill="rgb(50, 49, 63)" stroke="none" stroke-width="1px">100</text><text x="233.14285714285714" y="0" dx="0em" dy="0.95em" style="text-anchor: middle; visibility: hidden; font-family: &quot;Helvetica Neue&quot;, sans-serif; font-size: 12px; font-weight: 200;" fill="rgb(50, 49, 63)" stroke="none" stroke-width="1px">110</text><text x="252.57142857142858" y="0" dx="0em" dy="0.95em" style="text-anchor: middle; visibility: inherit; font-family: &quot;Helvetica Neue&quot;, sans-serif; font-size: 12px; font-weight: 200;" fill="rgb(50, 49, 63)" stroke="none" stroke-width="1px">120</text><text x="272" y="0" dx="0em" dy="0.95em" style="text-anchor: middle; visibility: hidden; font-family: &quot;Helvetica Neue&quot;, sans-serif; font-size: 12px; font-weight: 200;" fill="rgb(50, 49, 63)" stroke="none" stroke-width="1px">130</text></g><line x1="0" y1="0" x2="272" y2="0" fill="rgb(0, 0, 0)" stroke="rgb(204, 204, 204)" stroke-width="1px"></line></g></g></g></g></svg>