<svg viewBox="0 0 330 200" xmlns="http://www.w3.org/2000/svg"><g><g><g><g><g><line x1="58" y1="178" x2="53" y2="178" style="visibility: inherit;" fill="rgb(0, 0, 0)" stroke="rgb(204, 204, 204)" stroke-width="1px"></line><line x1="58" y1="155.75000000000003" x2="53" y2="155.75000000000003" style="visibility: inherit;" fill="rgb(0, 0, 0)" stroke="rgb(204, 204, 204)" stroke-width="1px"></line><line x1="58" y1="133.5" x2="53" y2="133.5" style="visibility: inherit;" fill="rgb(0, 0, 0)" stroke="rgb(204, 204, 204)" stroke-width="1px"></line><line x1="58" y1="111.24999999999999" x2="53" y2="111.24999999999999" style="visibility: inherit;" fill="rgb(0, 0, 0)" stroke="rgb(204, 204, 204)" stroke-width="1px"></line><line x1="58" y1="88.99999999999996" x2="53" y2="88.99999999999996" style="visibility: inherit;" fill="rgb(0, 0, 0)" stroke="rgb(204, 204, 204)" stroke-width="1px"></line><line x1="58" y1="66.74999999999994" x2="53" y2="66.74999999999994" style="visibility: inherit;" fill="rgb(0, 0, 0)" stroke="rgb(204, 204, 204)" stroke-width="1px"></line><line x1="58" y1="44.50000000000003" x2="53" y2="44.50000000000003" style="visibility: inherit;" fill="rgb(0, 0, 0)" stroke="rgb(204, 204, 204)" stroke-width="1px"></line><line x1="58" y1="22.25000000000003" x2="53" y2="22.25000000000003" style="visibility: inherit;" fill="rgb(0, 0, 0)" stroke="rgb(204, 204, 204)" stroke-width="1px"></line><line x1="58" y1="0" x2="53" y2="0" style="visibility: inherit;" fill="rgb(0, 0, 0)" stroke="rgb(204, 204, 204)" stroke-width="1px"></line></g><g transform="translate(48, 0)"><text x="0" y="178" dx="0em" dy="0.3em" style="text-anchor: end; visibility: hidden; font-family: &quot;Helvetica Neue&quot;, sans-serif; font-size: 12px; font-weight: 200;" fill="rgb(50, 49, 63)" stroke="none" stroke-width="1px">0.46</text><text x="0" y="155.75000000000003" dx="0em" dy="0.3em" style="text-anchor: end; visibility: inherit; font-family: &quot;Helvetica Neue&quot;, sans-serif; font-size: 12px; font-weight: 200;" fill="rgb(50, 49, 63)" stroke="none" stroke-width="1px">0.48</text><text x="0" y="133.5" dx="0em" dy="0.3em" style="text-anchor: end; visibility: hidden; font-family: &quot;Helvetica Neue&quot;, sans-serif; font-size: 12px; font-weight: 200;" fill="rgb(50, 49, 63)" stroke="none" stroke-width="1px">0.5</text><text x="0" y="111.24999999999999" dx="0em" dy="0.3em" style="text-anchor: end; visibility: inherit; font-family: &quot;Helvetica Neue&quot;, sans-serif; font-size: 12px; font-weight: 200;" fill="rgb(50, 49, 63)" stroke="none" stroke-width="1px">0.52</text><text x="0" y="88.99999999999996" dx="0em" dy="0.3em" style="text-anchor: end; visibility: hidden; font-family: &quot;Helvetica Neue&quot;, sans-serif; font-size: 12px; font-weight: 200;" fill="rgb(50, 49, 63)" stroke="none" stroke-width="1px">0.54</text><text x="0" y="66.74999999999994" dx="0em" dy="0.3em" style="text-anchor: end; visibility: inherit; font-family: &quot;Helvetica Neue&quot;, sans-serif; font-size: 12px; font-weight: 200;" fill="rgb(50, 49, 63)" stroke="none" stroke-width="1px">0.56</text><text x="0" y="44.50000000000003" dx="0em" dy="0.3em" style="text-anchor: end; visibility: hidden; font-family: &quot;Helvetica Neue&quot;, sans-serif; font-size: 12px; font-weight: 200;" fill="rgb(50, 49, 63)" stroke="none" stroke-width="1px">0.58</text><text x="0" y="22.25000000000003" dx="0em" dy="0.3em" style="text-anchor: end; visibility: inherit; font-family: &quot;Helvetica Neue&quot;, sans-serif; font-size: 12px; font-weight: 200;" fill="rgb(50, 49, 63)" stroke="none" stroke-width="1px">0.6</text><text x="0" y="0" dx="0em" dy="0.3em" style="text-anchor: end; visibility: hidden; font-family: &quot;Helvetica Neue&quot;, sans-serif; font-size: 12px; font-weight: 200;" fill="rgb(50, 49, 63)" stroke="none" stroke-width="1px">0.62</text></g><line x1="58" y1="0" x2="58" y2="178" fill="rgb(0, 0, 0)" stroke="rgb(204, 204, 204)" stroke-width="1px"></line></g></g><g transform="translate(58, 0)" clip-path="url(#clip_0)"><clipPath id="clip_0"><rect width="272" height="178"></rect></clipPath><g><g><g><line x1="0" y1="0" x2="0" y2="178" fill="rgb(0, 0, 0)" stroke="rgb(60, 60, 60)" stroke-width="1px" opacity="0.25"></line><line x1="27.200000000000003" y1="0" x2="27.200000000000003" y2="178" fill="rgb(0, 0, 0)" stroke="rgb(60, 60, 60)" stroke-width="1px" opacity="0.25"></line><line x1="54.400000000000006" y1="0" x2="54.400000000000006" y2="178" fill="rgb(0, 0, 0)" stroke="rgb(60, 60, 60)" stroke-width="1px" opacity="0.25"></line><line x1="81.6" y1="0" x2="81.6" y2="178" fill="rgb(0, 0, 0)" stroke="rgb(60, 60, 60)" stroke-width="1px" opacity="0.25"></line><line x1="108.80000000000001" y1="0" x2="108.80000000000001" y2="178" fill="rgb(0, 0, 0)" stroke="rgb(60, 60, 60)" stroke-width="1px" opacity="0.25"></line><line x1="136" y1="0" x2="136" y2="178" fill="rgb(0, 0, 0)" stroke="rgb(60, 60, 60)" stroke-width="1px" opacity="0.25"></line><line x1="163.2" y1="0" x2="163.2" y2="178" fill="rgb(0, 0, 0)" stroke="rgb(60, 60, 60)" stroke-width="1px" opacity="0.25"></line><line x1="190.39999999999998" y1="0" x2="190.39999999999998" y2="178" fill="rgb(0, 0, 0)" stroke="rgb(60, 60, 60)" stroke-width="1px" opacity="0.25"></line><line x1="217.60000000000002" y1="0" x2="217.60000000000002" y2="178" fill="rgb(0, 0, 0)" stroke="rgb(60, 60, 60)" stroke-width="1px" opacity="0.25"></line><line x1="244.8" y1="0" x2="244.8" y2="178" fill="rgb(0, 0, 0)" stroke="rgb(60, 60, 60)" stroke-width="1px" opacity="0.25"></line><line x1="272" y1="0" x2="272" y2="178" fill="rgb(0, 0, 0)" stroke="rgb(60, 60, 60)" stroke-width="1px" opacity="0.25"></line></g><g><line x1="0" y1="178" x2="272" y2="178" fill="rgb(0, 0, 0)" stroke="rgb(60, 60, 60)" stroke-width="1px" opacity="0.25"></line><line x1="0" y1="155.75000000000003" x2="272" y2="155.75000000000003" fill="rgb(0, 0, 0)" stroke="rgb(60, 60, 60)" stroke-width="1px" opacity="0.25"></line><line x1="0" y1="133.5" x2="272" y2="133.5" fill="rgb(0, 0, 0)" stroke="rgb(60, 60, 60)" stroke-width="1px" opacity="0.25"></line><line x1="0" y1="111.24999999999999" x2="272" y2="111.24999999999999" fill="rgb(0, 0, 0)" stroke="rgb(60, 60, 60)" stroke-width="1px" opacity="0.25"></line><line x1="0" y1="88.99999999999996" x2="272" y2="88.99999999999996" fill="rgb(0, 0, 0)" stroke="rgb(60, 60, 60)" stroke-width="1px" opacity="0.25"></line><line x1="0" y1="66.74999999999994" x2="272" y2="66.74999999999994" fill="rgb(0, 0, 0)" stroke="rgb(60, 60, 60)" stroke-width="1px" opacity="0.25"></line><line x1="0" y1="44.50000000000003" x2="272" y2="44.50000000000003" fill="rgb(0, 0, 0)" stroke="rgb(60, 60, 60)" stroke-width="1px" opacity="0.25"></line><line x1="0" y1="22.25000000000003" x2="272" y2="22.25000000000003" fill="rgb(0, 0, 0)" stroke="rgb(60, 60, 60)" stroke-width="1px" opacity="0.25"></line><line x1="0" y1="0" x2="272" y2="0" fill="rgb(0, 0, 0)" stroke="rgb(60, 60, 60)" stroke-width="1px" opacity="0.25"></line></g></g></g><g><g><line x1="0" y1="689.75" x2="272" y2="689.75" fill="rgb(0, 0, 0)" stroke="rgb(153, 153, 153)" stroke-width="1.5px"></line></g></g><g><g><line x1="27.200000000000003" y1="0" x2="27.200000000000003" y2="178" fill="rgb(0, 0, 0)" stroke="rgb(153, 153, 153)" stroke-width="1.5px"></line></g></g><g><g><g><g><g><path stroke="rgb(255, 112, 67)" stroke-width="2px" d="M32.64,234.63636665046218L35.36,118.53594152173218L38.080000000000005,67.31516572964551L40.8,41.18937099877536L43.52,26.877711156945253L46.24,18.73036654736498L48.96,106.56810326861182L51.68,66.36754632855508L54.400000000000006,134.084533181844L57.12,78.02232787873808L59.84,49.5833045228091L62.56,37.622988429323414L65.28,25.3960248590586L68,18.065981798512354L70.72,104.71858139001371L73.44,156.69449327979194L76.16000000000001,177.759742033256L78.88,104.4263765799029L81.6,136.2842574216167L84.32,69.43046116602038L87.04,120.34304014002112L89.76,95.26471935330368L92.48,54.9336405079509L95.19999999999999,71.18976391954904L97.92,50.6024499520546L100.64,103.98879131071465L103.36,44.997771958536106L106.08,80.39867621881612L108.80000000000001,61.184668085422174L111.52,74.94033607401632L114.24,68.02329441427558L116.96,84.10035069775518L119.68,98.80339748065221L122.4,62.113851216932645L125.12,50.213777209265785L127.83999999999999,98.69871996543115L130.56,82.2783252386564L133.28,67.3692750710869L136,58.423844991803435L138.72,103.62476037115067L141.44,70.06348292506082L144.16,65.09718307397219L146.88,36.83330983948676L149.60000000000002,50.21589258471337L152.32000000000002,32.961348909012656L155.04,47.89271602559651L157.76,26.51062961487773L160.48,33.908657730135445L163.2,28.23382135655646L165.92,24.828919532438448L168.64,27.842818321320408L171.36,34.707970953913474L174.08,38.82706253346157L176.8,46.355330840451415L179.52,45.815478465379755L182.24,50.5483803995987L184.96,93.8426682203197L187.67999999999998,74.30788089329937L190.39999999999998,72.7006352156098L193.12,86.90675441084511L195.84,75.2031459668767L198.56,73.23779425975621L201.28,77.11539659474465L204,69.32833127721646L206.72,69.71290544596008L209.44,69.94364994720631L212.16,65.02528328869353L214.88,62.074263293585844L217.60000000000002,60.30365129652111L220.32000000000002,59.241284098282435L223.04,48.49023706081795L225.76,52.15323555686044L228.48,54.35103465448607L231.2,50.612900753800815L233.92,53.42683377265023L236.64,55.11519358395981L239.36,40.957742868896986L242.08,47.633739041707855L244.8,51.63933674539439" style="fill: none;" fill="none"></path></g></g></g></g><g opacity="0.2"><g><g><g><path stroke="rgb(255, 112, 67)" stroke-width="2px" d="M32.64,234.63636665046218L35.36,7.079533398151398L38.080000000000005,7.079533398151398L40.8,7.079533398151398L43.52,7.079533398151398L46.24,7.079533398151398L48.96,234.63636665046218L51.68,7.079533398151398L54.400000000000006,234.63636665046218L57.12,-5.5625L59.84,7.079533398151398L62.56,19.721566796302795L65.28,7.079533398151398L68,7.079533398151398L70.72,234.63636665046218L87.04,196.71023330092433L89.76,57.6477333009243L92.48,-5.5625L95.19999999999999,95.57383349537851L97.92,19.721566796302795L100.64,184.06816674768928L103.36,-43.488666504621506L106.08,133.5L108.80000000000001,32.363666504621506L111.52,95.57383349537851L114.24,57.6477333009243L116.96,108.21593320369722L119.68,120.8579666018486L122.4,7.079533398151398L125.12,32.363666504621506L127.83999999999999,171.42613334953788L130.56,57.6477333009243L133.28,45.0056999027729L136,45.0056999027729L138.72,171.42613334953788L141.44,19.721566796302795L144.16,57.6477333009243L146.88,-5.5625L149.60000000000002,70.2897666990757L152.32000000000002,7.079533398151398L155.04,70.2897666990757L157.76,-5.5625L160.48,45.0056999027729L163.2,19.721566796302795L165.92,19.721566796302795L168.64,32.363666504621506L171.36,45.0056999027729L174.08,45.0056999027729L176.8,57.6477333009243L179.52,45.0056999027729L182.24,57.6477333009243L184.96,158.78409995138648L187.67999999999998,45.0056999027729L190.39999999999998,70.2897666990757L193.12,108.21593320369722L195.84,57.6477333009243L198.56,70.2897666990757L201.28,82.9318000972271L204,57.6477333009243L206.72,70.2897666990757L209.44,70.2897666990757L212.16,57.6477333009243L214.88,57.6477333009243L217.60000000000002,57.6477333009243L220.32000000000002,57.6477333009243L223.04,32.363666504621506L225.76,57.6477333009243L228.48,57.6477333009243L231.2,45.0056999027729L233.92,57.6477333009243L236.64,57.6477333009243L239.36,19.721566796302795L242.08,57.6477333009243L244.8,57.6477333009243" style="fill: none;" fill="none"></path></g></g></g></g></g></g><g transform="translate(58, 178)" clip-path="url(#clip_1)"><clipPath id="clip_1"><rect width="272" height="22"></rect></clipPath><g><g><line x1="0" y1="0" x2="0" y2="5" style="visibility: inherit;" fill="rgb(0, 0, 0)" stroke="rgb(204, 204, 204)" stroke-width="1px"></line><line x1="27.200000000000003" y1="0" x2="27.200000000000003" y2="5" style="visibility: inherit;" fill="rgb(0, 0, 0)" stroke="rgb(204, 204, 204)" stroke-width="1px"></line><line x1="54.400000000000006" y1="0" x2="54.400000000000006" y2="5" style="visibility: inherit;" fill="rgb(0, 0, 0)" stroke="rgb(204, 204, 204)" stroke-width="1px"></line><line x1="81.6" y1="0" x2="81.6" y2="5" style="visibility: inherit;" fill="rgb(0, 0, 0)" stroke="rgb(204, 204, 204)" stroke-width="1px"></line><line x1="108.80000000000001" y1="0" x2="108.80000000000001" y2="5" style="visibility: inherit;" fill="rgb(0, 0, 0)" stroke="rgb(204, 204, 204)" stroke-width="1px"></line><line x1="136" y1="0" x2="136" y2="5" style="visibility: inherit;" fill="rgb(0, 0, 0)" stroke="rgb(204, 204, 204)" stroke-width="1px"></line><line x1="163.2" y1="0" x2="163.2" y2="5" style="visibility: inherit;" fill="rgb(0, 0, 0)" stroke="rgb(204, 204, 204)" stroke-width="1px"></line><line x1="190.39999999999998" y1="0" x2="190.39999999999998" y2="5" style="visibility: inherit;" fill="rgb(0, 0, 0)" stroke="rgb(204, 204, 204)" stroke-width="1px"></line><line x1="217.60000000000002" y1="0" x2="217.60000000000002" y2="5" style="visibility: inherit;" fill="rgb(0, 0, 0)" stroke="rgb(204, 204, 204)" stroke-width="1px"></line><line x1="244.8" y1="0" x2="244.8" y2="5" style="visibility: inherit;" fill="rgb(0, 0, 0)" stroke="rgb(204, 204, 204)" stroke-width="1px"></line><line x1="272" y1="0" x2="272" y2="5" style="visibility: inherit;" fill="rgb(0, 0, 0)" stroke="rgb(204, 204, 204)" stroke-width="1px"></line></g><g transform="translate(0, 8)"><text x="0" y="0" dx="0em" dy="0.95em" style="text-anchor: middle; visibility: hidden; font-family: &quot;Helvetica Neue&quot;, sans-serif; font-size: 12px; font-weight: 200;" fill="rgb(50, 49, 63)" stroke="none" stroke-width="1px">-10</text><text x="27.200000000000003" y="0" dx="0em" dy="0.95em" style="text-anchor: middle; visibility: inherit; font-family: &quot;Helvetica Neue&quot;, sans-serif; font-size: 12px; font-weight: 200;" fill="rgb(50, 49, 63)" stroke="none" stroke-width="1px">0</text><text x="54.400000000000006" y="0" dx="0em" dy="0.95em" style="text-anchor: middle; visibility: inherit; font-family: &quot;Helvetica Neue&quot;, sans-serif; font-size: 12px; font-weight: 200;" fill="rgb(50, 49, 63)" stroke="none" stroke-width="1px">10</text><text x="81.6" y="0" dx="0em" dy="0.95em" style="text-anchor: middle; visibility: inherit; font-family: &quot;Helvetica Neue&quot;, sans-serif; font-size: 12px; font-weight: 200;" fill="rgb(50, 49, 63)" stroke="none" stroke-width="1px">20</text><text x="108.80000000000001" y="0" dx="0em" dy="0.95em" style="text-anchor: middle; visibility: inherit; font-family: &quot;Helvetica Neue&quot;, sans-serif; font-size: 12px; font-weight: 200;" fill="rgb(50, 49, 63)" stroke="none" stroke-width="1px">30</text><text x="136" y="0" dx="0em" dy="0.95em" style="text-anchor: middle; visibility: inherit; font-family: &quot;Helvetica Neue&quot;, sans-serif; font-size: 12px; font-weight: 200;" fill="rgb(50, 49, 63)" stroke="none" stroke-width="1px">40</text><text x="163.2" y="0" dx="0em" dy="0.95em" style="text-anchor: middle; visibility: inherit; font-family: &quot;Helvetica Neue&quot;, sans-serif; font-size: 12px; font-weight: 200;" fill="rgb(50, 49, 63)" stroke="none" stroke-width="1px">50</text><text x="190.39999999999998" y="0" dx="0em" dy="0.95em" style="text-anchor: middle; visibility: inherit; font-family: &quot;Helvetica Neue&quot;, sans-serif; font-size: 12px; font-weight: 200;" fill="rgb(50, 49, 63)" stroke="none" stroke-width="1px">60</text><text x="217.60000000000002" y="0" dx="0em" dy="0.95em" style="text-anchor: middle; visibility: inherit; font-family: &quot;Helvetica Neue&quot;, sans-serif; font-size: 12px; font-weight: 200;" fill="rgb(50, 49, 63)" stroke="none" stroke-width="1px">70</text><text x="244.8" y="0" dx="0em" dy="0.95em" style="text-anchor: middle; visibility: inherit; font-family: &quot;Helvetica Neue&quot;, sans-serif; font-size: 12px; font-weight: 200;" fill="rgb(50, 49, 63)" stroke="none" stroke-width="1px">80</text><text x="272" y="0" dx="0em" dy="0.95em" style="text-anchor: middle; visibility: hidden; font-family: &quot;Helvetica Neue&quot;, sans-serif; font-size: 12px; font-weight: 200;" fill="rgb(50, 49, 63)" stroke="none" stroke-width="1px">90</text></g><line x1="0" y1="0" x2="272" y2="0" fill="rgb(0, 0, 0)" stroke="rgb(204, 204, 204)" stroke-width="1px"></line></g></g></g></g></svg>