<svg viewBox="0 0 330 200" xmlns="http://www.w3.org/2000/svg"><g><g><g><g><g><line x1="58" y1="178" x2="53" y2="178" style="visibility: inherit;" fill="rgb(0, 0, 0)" stroke="rgb(204, 204, 204)" stroke-width="1px"></line><line x1="58" y1="165.28571428571428" x2="53" y2="165.28571428571428" style="visibility: inherit;" fill="rgb(0, 0, 0)" stroke="rgb(204, 204, 204)" stroke-width="1px"></line><line x1="58" y1="152.57142857142856" x2="53" y2="152.57142857142856" style="visibility: inherit;" fill="rgb(0, 0, 0)" stroke="rgb(204, 204, 204)" stroke-width="1px"></line><line x1="58" y1="139.85714285714283" x2="53" y2="139.85714285714283" style="visibility: inherit;" fill="rgb(0, 0, 0)" stroke="rgb(204, 204, 204)" stroke-width="1px"></line><line x1="58" y1="127.14285714285711" x2="53" y2="127.14285714285711" style="visibility: inherit;" fill="rgb(0, 0, 0)" stroke="rgb(204, 204, 204)" stroke-width="1px"></line><line x1="58" y1="114.42857142857139" x2="53" y2="114.42857142857139" style="visibility: inherit;" fill="rgb(0, 0, 0)" stroke="rgb(204, 204, 204)" stroke-width="1px"></line><line x1="58" y1="101.7142857142858" x2="53" y2="101.7142857142858" style="visibility: inherit;" fill="rgb(0, 0, 0)" stroke="rgb(204, 204, 204)" stroke-width="1px"></line><line x1="58" y1="89.00000000000007" x2="53" y2="89.00000000000007" style="visibility: inherit;" fill="rgb(0, 0, 0)" stroke="rgb(204, 204, 204)" stroke-width="1px"></line><line x1="58" y1="76.28571428571435" x2="53" y2="76.28571428571435" style="visibility: inherit;" fill="rgb(0, 0, 0)" stroke="rgb(204, 204, 204)" stroke-width="1px"></line><line x1="58" y1="63.571428571428626" x2="53" y2="63.571428571428626" style="visibility: inherit;" fill="rgb(0, 0, 0)" stroke="rgb(204, 204, 204)" stroke-width="1px"></line><line x1="58" y1="50.85714285714289" x2="53" y2="50.85714285714289" style="visibility: inherit;" fill="rgb(0, 0, 0)" stroke="rgb(204, 204, 204)" stroke-width="1px"></line><line x1="58" y1="38.14285714285717" x2="53" y2="38.14285714285717" style="visibility: inherit;" fill="rgb(0, 0, 0)" stroke="rgb(204, 204, 204)" stroke-width="1px"></line><line x1="58" y1="25.428571428571445" x2="53" y2="25.428571428571445" style="visibility: inherit;" fill="rgb(0, 0, 0)" stroke="rgb(204, 204, 204)" stroke-width="1px"></line><line x1="58" y1="12.714285714285722" x2="53" y2="12.714285714285722" style="visibility: inherit;" fill="rgb(0, 0, 0)" stroke="rgb(204, 204, 204)" stroke-width="1px"></line><line x1="58" y1="0" x2="53" y2="0" style="visibility: inherit;" fill="rgb(0, 0, 0)" stroke="rgb(204, 204, 204)" stroke-width="1px"></line></g><g transform="translate(48, 0)"><text x="0" y="178" dx="0em" dy="0.3em" style="text-anchor: end; visibility: hidden; font-family: &quot;Helvetica Neue&quot;, sans-serif; font-size: 12px; font-weight: 200;" fill="rgb(50, 49, 63)" stroke="none" stroke-width="1px">0.51</text><text x="0" y="165.28571428571428" dx="0em" dy="0.3em" style="text-anchor: end; visibility: inherit; font-family: &quot;Helvetica Neue&quot;, sans-serif; font-size: 12px; font-weight: 200;" fill="rgb(50, 49, 63)" stroke="none" stroke-width="1px">0.52</text><text x="0" y="152.57142857142856" dx="0em" dy="0.3em" style="text-anchor: end; visibility: hidden; font-family: &quot;Helvetica Neue&quot;, sans-serif; font-size: 12px; font-weight: 200;" fill="rgb(50, 49, 63)" stroke="none" stroke-width="1px">0.53</text><text x="0" y="139.85714285714283" dx="0em" dy="0.3em" style="text-anchor: end; visibility: inherit; font-family: &quot;Helvetica Neue&quot;, sans-serif; font-size: 12px; font-weight: 200;" fill="rgb(50, 49, 63)" stroke="none" stroke-width="1px">0.54</text><text x="0" y="127.14285714285711" dx="0em" dy="0.3em" style="text-anchor: end; visibility: hidden; font-family: &quot;Helvetica Neue&quot;, sans-serif; font-size: 12px; font-weight: 200;" fill="rgb(50, 49, 63)" stroke="none" stroke-width="1px">0.55</text><text x="0" y="114.42857142857139" dx="0em" dy="0.3em" style="text-anchor: end; visibility: inherit; font-family: &quot;Helvetica Neue&quot;, sans-serif; font-size: 12px; font-weight: 200;" fill="rgb(50, 49, 63)" stroke="none" stroke-width="1px">0.56</text><text x="0" y="101.7142857142858" dx="0em" dy="0.3em" style="text-anchor: end; visibility: hidden; font-family: &quot;Helvetica Neue&quot;, sans-serif; font-size: 12px; font-weight: 200;" fill="rgb(50, 49, 63)" stroke="none" stroke-width="1px">0.57</text><text x="0" y="89.00000000000007" dx="0em" dy="0.3em" style="text-anchor: end; visibility: inherit; font-family: &quot;Helvetica Neue&quot;, sans-serif; font-size: 12px; font-weight: 200;" fill="rgb(50, 49, 63)" stroke="none" stroke-width="1px">0.58</text><text x="0" y="76.28571428571435" dx="0em" dy="0.3em" style="text-anchor: end; visibility: hidden; font-family: &quot;Helvetica Neue&quot;, sans-serif; font-size: 12px; font-weight: 200;" fill="rgb(50, 49, 63)" stroke="none" stroke-width="1px">0.59</text><text x="0" y="63.571428571428626" dx="0em" dy="0.3em" style="text-anchor: end; visibility: inherit; font-family: &quot;Helvetica Neue&quot;, sans-serif; font-size: 12px; font-weight: 200;" fill="rgb(50, 49, 63)" stroke="none" stroke-width="1px">0.6</text><text x="0" y="50.85714285714289" dx="0em" dy="0.3em" style="text-anchor: end; visibility: hidden; font-family: &quot;Helvetica Neue&quot;, sans-serif; font-size: 12px; font-weight: 200;" fill="rgb(50, 49, 63)" stroke="none" stroke-width="1px">0.61</text><text x="0" y="38.14285714285717" dx="0em" dy="0.3em" style="text-anchor: end; visibility: inherit; font-family: &quot;Helvetica Neue&quot;, sans-serif; font-size: 12px; font-weight: 200;" fill="rgb(50, 49, 63)" stroke="none" stroke-width="1px">0.62</text><text x="0" y="25.428571428571445" dx="0em" dy="0.3em" style="text-anchor: end; visibility: hidden; font-family: &quot;Helvetica Neue&quot;, sans-serif; font-size: 12px; font-weight: 200;" fill="rgb(50, 49, 63)" stroke="none" stroke-width="1px">0.63</text><text x="0" y="12.714285714285722" dx="0em" dy="0.3em" style="text-anchor: end; visibility: inherit; font-family: &quot;Helvetica Neue&quot;, sans-serif; font-size: 12px; font-weight: 200;" fill="rgb(50, 49, 63)" stroke="none" stroke-width="1px">0.64</text><text x="0" y="0" dx="0em" dy="0.3em" style="text-anchor: end; visibility: hidden; font-family: &quot;Helvetica Neue&quot;, sans-serif; font-size: 12px; font-weight: 200;" fill="rgb(50, 49, 63)" stroke="none" stroke-width="1px">0.65</text></g><line x1="58" y1="0" x2="58" y2="178" fill="rgb(0, 0, 0)" stroke="rgb(204, 204, 204)" stroke-width="1px"></line></g></g><g transform="translate(58, 0)" clip-path="url(#clip_0)"><clipPath id="clip_0"><rect width="272" height="178"></rect></clipPath><g><g><g><line x1="0" y1="0" x2="0" y2="178" fill="rgb(0, 0, 0)" stroke="rgb(60, 60, 60)" stroke-width="1px" opacity="0.25"></line><line x1="22.666666666666664" y1="0" x2="22.666666666666664" y2="178" fill="rgb(0, 0, 0)" stroke="rgb(60, 60, 60)" stroke-width="1px" opacity="0.25"></line><line x1="45.33333333333333" y1="0" x2="45.33333333333333" y2="178" fill="rgb(0, 0, 0)" stroke="rgb(60, 60, 60)" stroke-width="1px" opacity="0.25"></line><line x1="68" y1="0" x2="68" y2="178" fill="rgb(0, 0, 0)" stroke="rgb(60, 60, 60)" stroke-width="1px" opacity="0.25"></line><line x1="90.66666666666666" y1="0" x2="90.66666666666666" y2="178" fill="rgb(0, 0, 0)" stroke="rgb(60, 60, 60)" stroke-width="1px" opacity="0.25"></line><line x1="113.33333333333334" y1="0" x2="113.33333333333334" y2="178" fill="rgb(0, 0, 0)" stroke="rgb(60, 60, 60)" stroke-width="1px" opacity="0.25"></line><line x1="136" y1="0" x2="136" y2="178" fill="rgb(0, 0, 0)" stroke="rgb(60, 60, 60)" stroke-width="1px" opacity="0.25"></line><line x1="158.66666666666669" y1="0" x2="158.66666666666669" y2="178" fill="rgb(0, 0, 0)" stroke="rgb(60, 60, 60)" stroke-width="1px" opacity="0.25"></line><line x1="181.33333333333331" y1="0" x2="181.33333333333331" y2="178" fill="rgb(0, 0, 0)" stroke="rgb(60, 60, 60)" stroke-width="1px" opacity="0.25"></line><line x1="204" y1="0" x2="204" y2="178" fill="rgb(0, 0, 0)" stroke="rgb(60, 60, 60)" stroke-width="1px" opacity="0.25"></line><line x1="226.66666666666669" y1="0" x2="226.66666666666669" y2="178" fill="rgb(0, 0, 0)" stroke="rgb(60, 60, 60)" stroke-width="1px" opacity="0.25"></line><line x1="249.33333333333331" y1="0" x2="249.33333333333331" y2="178" fill="rgb(0, 0, 0)" stroke="rgb(60, 60, 60)" stroke-width="1px" opacity="0.25"></line><line x1="272" y1="0" x2="272" y2="178" fill="rgb(0, 0, 0)" stroke="rgb(60, 60, 60)" stroke-width="1px" opacity="0.25"></line></g><g><line x1="0" y1="178" x2="272" y2="178" fill="rgb(0, 0, 0)" stroke="rgb(60, 60, 60)" stroke-width="1px" opacity="0.25"></line><line x1="0" y1="165.28571428571428" x2="272" y2="165.28571428571428" fill="rgb(0, 0, 0)" stroke="rgb(60, 60, 60)" stroke-width="1px" opacity="0.25"></line><line x1="0" y1="152.57142857142856" x2="272" y2="152.57142857142856" fill="rgb(0, 0, 0)" stroke="rgb(60, 60, 60)" stroke-width="1px" opacity="0.25"></line><line x1="0" y1="139.85714285714283" x2="272" y2="139.85714285714283" fill="rgb(0, 0, 0)" stroke="rgb(60, 60, 60)" stroke-width="1px" opacity="0.25"></line><line x1="0" y1="127.14285714285711" x2="272" y2="127.14285714285711" fill="rgb(0, 0, 0)" stroke="rgb(60, 60, 60)" stroke-width="1px" opacity="0.25"></line><line x1="0" y1="114.42857142857139" x2="272" y2="114.42857142857139" fill="rgb(0, 0, 0)" stroke="rgb(60, 60, 60)" stroke-width="1px" opacity="0.25"></line><line x1="0" y1="101.7142857142858" x2="272" y2="101.7142857142858" fill="rgb(0, 0, 0)" stroke="rgb(60, 60, 60)" stroke-width="1px" opacity="0.25"></line><line x1="0" y1="89.00000000000007" x2="272" y2="89.00000000000007" fill="rgb(0, 0, 0)" stroke="rgb(60, 60, 60)" stroke-width="1px" opacity="0.25"></line><line x1="0" y1="76.28571428571435" x2="272" y2="76.28571428571435" fill="rgb(0, 0, 0)" stroke="rgb(60, 60, 60)" stroke-width="1px" opacity="0.25"></line><line x1="0" y1="63.571428571428626" x2="272" y2="63.571428571428626" fill="rgb(0, 0, 0)" stroke="rgb(60, 60, 60)" stroke-width="1px" opacity="0.25"></line><line x1="0" y1="50.85714285714289" x2="272" y2="50.85714285714289" fill="rgb(0, 0, 0)" stroke="rgb(60, 60, 60)" stroke-width="1px" opacity="0.25"></line><line x1="0" y1="38.14285714285717" x2="272" y2="38.14285714285717" fill="rgb(0, 0, 0)" stroke="rgb(60, 60, 60)" stroke-width="1px" opacity="0.25"></line><line x1="0" y1="25.428571428571445" x2="272" y2="25.428571428571445" fill="rgb(0, 0, 0)" stroke="rgb(60, 60, 60)" stroke-width="1px" opacity="0.25"></line><line x1="0" y1="12.714285714285722" x2="272" y2="12.714285714285722" fill="rgb(0, 0, 0)" stroke="rgb(60, 60, 60)" stroke-width="1px" opacity="0.25"></line><line x1="0" y1="0" x2="272" y2="0" fill="rgb(0, 0, 0)" stroke="rgb(60, 60, 60)" stroke-width="1px" opacity="0.25"></line></g></g></g><g><g><line x1="0" y1="826.4285714285714" x2="272" y2="826.4285714285714" fill="rgb(0, 0, 0)" stroke="rgb(153, 153, 153)" stroke-width="1.5px"></line></g></g><g><g><line x1="22.666666666666664" y1="0" x2="22.666666666666664" y2="178" fill="rgb(0, 0, 0)" stroke="rgb(153, 153, 153)" stroke-width="1.5px"></line></g></g><g><g><g><g><g><path stroke="rgb(255, 112, 67)" stroke-width="2px" d="M23.799999999999997,46.233752455030185L24.93333333333333,37.20372859920778L26.06666666666667,19.696539490980655L27.200000000000003,11.972779590292248L28.333333333333336,-4.499849558254823L29.46666666666667,10.724692199586684L30.6,13.446066839429363L31.733333333333334,15.029302835321772L32.86666666666667,10.124002757048544L34,1.3982499616905955L35.13333333333334,19.39775262478284L36.266666666666666,30.155569983682398L37.400000000000006,71.31592316965417L38.53333333333333,55.49143889125095L39.66666666666667,80.6963219261548L40.8,113.15423363958539L41.93333333333334,69.04092845364565L43.06666666666666,65.69693370596431L44.2,34.79288665325814L45.33333333333333,68.26656347647828L46.46666666666667,105.68804274929228L47.599999999999994,87.68530494421148L48.733333333333334,53.76677028044044L49.86666666666666,68.09130714179285L51,88.24444921490222L52.13333333333334,135.01167885873045L53.266666666666666,139.95505054404742L54.400000000000006,160.25875708053167L55.53333333333333,160.88253822841693L56.66666666666667,138.1399102753851L57.8,141.83198482427983L58.93333333333334,138.26801351251308L60.06666666666666,130.3504153632901L61.2,85.14531836935427L62.33333333333333,110.03522961880367L63.46666666666667,107.63153011262635L64.6,111.9685257282791L65.73333333333333,120.34993836967868L66.86666666666666,113.82035537339678L68,86.78571416991153L69.13333333333333,82.1233903288916L70.26666666666668,96.66364183819537L71.4,88.05014693111416L72.53333333333333,94.44048052591249L73.66666666666666,98.27468068208292L74.80000000000001,100.57520077553005L75.93333333333334,125.07240421649638L77.06666666666666,110.8746196279896L78.19999999999999,102.35594887508948L79.33333333333334,120.36160749451503L80.46666666666667,125.38578739832312L81.6,128.40029534059218L82.73333333333332,118.65056957047508L83.86666666666667,112.80073410841567L85,126.62847863437403L86.13333333333333,100.24980343035288L87.26666666666668,124.87716580847882L88.4,116.53669185122303L89.53333333333333,128.87005328005068L90.66666666666666,113.15320906644013L91.80000000000001,121.06074834145386L92.93333333333334,120.02605663873541L94.06666666666666,119.40524161710441L95.19999999999999,124.81196787185235L96.33333333333334,122.27678835697458L97.46666666666667,103.4180348448688L98.6,109.4404285407845L99.73333333333332,124.61229529378662L100.86666666666667,127.93620007786151L102,135.70975821603275L103.13333333333333,134.59467783120925L104.26666666666668,133.925629600315L105.4,127.74498539405214L106.53333333333333,118.25738360256823L107.66666666666666,106.78560725995148L108.80000000000001,111.46097198983412L109.93333333333334,108.48697556003727L111.06666666666666,106.70257770215913L112.19999999999999,105.6319389874323L113.33333333333334,128.10644714272098L114.46666666666667,135.81190645494854L115.6,146.21442762323073L116.73333333333332,152.45594032419996L117.86666666666667,150.4216023638359L119,160.7594604362895L120.13333333333333,143.84528389563687L121.26666666666668,127.91756270351893L122.4,135.69857579142723L123.53333333333333,134.58796837644582L124.66666666666666,133.92160392745706L125.80000000000001,139.30100052579007L126.93333333333334,136.74942321706357L128.06666666666666,135.2184768318277L129.2,134.29990900068623L130.33333333333334,133.74876830200122L131.46666666666667,133.4180838827903L132.6,138.99888849899006L133.73333333333332,136.56815600098352L134.86666666666667,135.10971650217965L136,140.01386807062363L137.13333333333333,142.9563590116901L138.26666666666665,144.72185357632998L139.39999999999998,140.00193504738746L140.53333333333336,137.16998393002206L141.66666666666669,141.25002852732916L142.8,137.918840017987L143.93333333333334,135.92012691238173L145.06666666666666,128.94168378129226L146.2,130.53383317036494L147.33333333333331,137.2683380715349L148.46666666666664,135.5298257445105L149.60000000000002,134.48671834829588L150.73333333333335,133.86085391056713L151.86666666666667,133.4853352479298L153,133.26002405034745L154.13333333333333,138.90405259952442L155.26666666666665,153.84893057770262L156.39999999999998,151.25739651593744L157.53333333333336,149.7024760788784L158.66666666666669,148.76952381664296L159.8,148.2097524593016L160.93333333333334,147.87388964489685L162.06666666666666,141.89315668852765L163.2,132.52550164697973L164.33333333333331,138.4633391575038L165.46666666666664,136.24682639609176L166.60000000000002,134.91691873924455L167.73333333333335,139.89818941286256L168.86666666666667,137.10773654930702L170,135.43346483117372L171.13333333333333,145.98736264896584L172.26666666666665,152.31970133964114L173.39999999999998,144.56064370537425L174.53333333333336,134.1259938570878L175.66666666666669,133.64441921584225L176.8,133.35547443109488L177.93333333333334,133.18210756024646L179.06666666666666,138.85730270546372L180.2,136.48320452486774L181.33333333333331,146.61720646518222L182.46666666666664,141.13914678069884L183.60000000000002,137.8523109700088L184.73333333333335,135.8802094835948L185.86666666666667,134.69694859174638L187,133.9869920566374L188.13333333333333,133.56101813557203L189.26666666666665,139.0846490506591L190.39999999999998,136.61961233198505L191.53333333333336,140.9198055685069L192.66666666666669,143.49992151041997L193.8,139.26877580784156L194.93333333333334,136.73008838629448L196.06666666666666,135.20687593336623L197.2,134.29294846160923L198.33333333333331,145.30305282722713L199.46666666666664,146.12986986565215L200.60000000000002,140.84674482098086L201.73333333333335,143.45608506190445L202.86666666666667,145.02168920645852L204,140.1818364254646L205.13333333333333,131.4987094891419L206.26666666666665,132.06804859507474L207.39999999999998,132.40965205863435L208.53333333333336,132.61461413677011L209.66666666666669,132.7375913836516L210.8,132.81137773178045L211.93333333333334,144.41411038932984L213.06666666666666,139.81728913518742L214.2,137.05919638270205L215.33333333333331,135.40434073121082L216.46666666666664,134.4114273403161L217.60000000000002,139.5948945735056L218.73333333333335,142.70497491341922L219.86666666666667,144.57102311736747L221,139.91143677201L222.13333333333333,131.33646969706922L223.26666666666665,126.19148945210466L224.39999999999998,128.88371657285234L225.53333333333336,130.49905284530098L226.66666666666669,131.4682546087701L227.8,137.828990934578L228.93333333333334,130.08700219460994L230.06666666666666,137.0002394860818L231.2,135.36896659323855L232.33333333333331,134.3902028575327L233.46666666666664,145.36140546478117L234.60000000000002,140.38566618045817L235.73333333333335,137.40022260986444L236.86666666666667,135.60895646750816L238,134.53419678209437L239.13333333333333,133.88934097084615L240.26666666666665,139.2816427518236L241.39999999999998,136.73780855268365L242.53333333333336,135.21150803319972L243.66666666666669,128.51651245378295L244.8,130.27873037385928L245.93333333333334,137.11527639363152L247.06666666666666,146.9964495864404L248.2,141.36669265345384L249.33333333333331,137.9888384936619" style="fill: none;" fill="none"></path></g></g></g></g><g opacity="0.2"><g><g><g><path stroke="rgb(255, 112, 67)" stroke-width="2px" d="M23.799999999999997,46.233752455030185L24.93333333333333,31.785714285714306L26.06666666666667,2.889637947082548L27.200000000000003,2.889637947082548L28.333333333333336,-26.006514174597555L29.46666666666667,31.785714285714306L30.6,17.337676116398427L31.733333333333334,17.337676116398427L32.86666666666667,2.889637947082548L34,-11.558476005281705L35.13333333333334,46.233752455030185L36.266666666666666,46.233752455030185L37.400000000000006,132.92205725397383L38.53333333333333,31.785714285714306L39.66666666666667,118.47401908465795L40.8,161.81820937565396L41.93333333333334,2.889637947082548L43.06666666666666,60.68179062434608L44.2,-11.558476005281705L45.33333333333333,118.47401908465795L46.46666666666667,161.81820937565396L47.599999999999994,60.68179062434608L48.733333333333334,2.889637947082548L49.86666666666666,89.5779427460262L51,118.47401908465795L52.13333333333334,205.1623238836016L53.266666666666666,147.3700954232897L54.400000000000006,190.71428571428572L55.53333333333333,161.81820937565396L56.66666666666667,104.02598091534207L57.8,147.3700954232897L58.93333333333334,132.92205725397383L60.06666666666666,118.47401908465795L61.2,17.337676116398427L62.33333333333333,147.3700954232897L63.46666666666667,104.02598091534207L64.6,118.47401908465795L65.73333333333333,132.92205725397383L66.86666666666666,104.02598091534207L68,46.233752455030185L69.13333333333333,75.12990457671032L70.26666666666668,118.47401908465795L71.4,75.12990457671032L72.53333333333333,104.02598091534207L73.66666666666666,104.02598091534207L74.80000000000001,104.02598091534207L75.93333333333334,161.81820937565396L77.06666666666666,89.5779427460262L78.19999999999999,89.5779427460262L79.33333333333334,147.3700954232897L80.46666666666667,132.92205725397383L81.6,132.92205725397383L82.73333333333332,104.02598091534207L83.86666666666667,104.02598091534207L85,147.3700954232897L86.13333333333333,60.68179062434608L87.26666666666668,161.81820937565396L88.4,104.02598091534207L89.53333333333333,147.3700954232897L90.66666666666666,89.5779427460262L91.80000000000001,132.92205725397383L92.93333333333334,118.47401908465795L94.06666666666666,118.47401908465795L95.19999999999999,132.92205725397383L96.33333333333334,118.47401908465795L97.46666666666667,75.12990457671032L98.6,118.47401908465795L99.73333333333332,147.3700954232897L100.86666666666667,132.92205725397383L102,147.3700954232897L103.13333333333333,132.92205725397383L104.26666666666668,132.92205725397383L105.4,118.47401908465795L106.53333333333333,104.02598091534207L107.66666666666666,89.5779427460262L108.80000000000001,118.47401908465795L109.93333333333334,104.02598091534207L111.06666666666666,104.02598091534207L112.19999999999999,104.02598091534207L113.33333333333334,161.81820937565396L114.46666666666667,147.3700954232897L115.6,161.81820937565396L116.73333333333332,161.81820937565396L117.86666666666667,147.3700954232897L119,176.26624754496984L120.13333333333333,118.47401908465795L121.26666666666668,104.02598091534207L122.4,147.3700954232897L123.53333333333333,132.92205725397383L124.66666666666666,132.92205725397383L125.80000000000001,147.3700954232897L126.93333333333334,132.92205725397383L128.06666666666666,132.92205725397383L129.2,132.92205725397383L130.33333333333334,132.92205725397383L131.46666666666667,132.92205725397383L132.6,147.3700954232897L133.73333333333332,132.92205725397383L134.86666666666667,132.92205725397383L136,147.3700954232897L137.13333333333333,147.3700954232897L138.26666666666665,147.3700954232897L139.39999999999998,132.92205725397383L140.53333333333336,132.92205725397383L141.66666666666669,147.3700954232897L142.8,132.92205725397383L143.93333333333334,132.92205725397383L145.06666666666666,118.47401908465795L146.2,132.92205725397383L147.33333333333331,147.3700954232897L148.46666666666664,132.92205725397383L149.60000000000002,132.92205725397383L150.73333333333335,132.92205725397383L151.86666666666667,132.92205725397383L153,132.92205725397383L154.13333333333333,147.3700954232897L155.26666666666665,176.26624754496984L156.39999999999998,147.3700954232897L157.53333333333336,147.3700954232897L158.66666666666669,147.3700954232897L159.8,147.3700954232897L160.93333333333334,147.3700954232897L162.06666666666666,132.92205725397383L163.2,118.47401908465795L164.33333333333331,147.3700954232897L165.46666666666664,132.92205725397383L166.60000000000002,132.92205725397383L167.73333333333335,147.3700954232897L168.86666666666667,132.92205725397383L170,132.92205725397383L171.13333333333333,161.81820937565396L172.26666666666665,161.81820937565396L173.39999999999998,132.92205725397383L174.53333333333336,118.47401908465795L175.66666666666669,132.92205725397383L176.8,132.92205725397383L177.93333333333334,132.92205725397383L179.06666666666666,147.3700954232897L180.2,132.92205725397383L181.33333333333331,161.81820937565396L182.46666666666664,132.92205725397383L183.60000000000002,132.92205725397383L184.73333333333335,132.92205725397383L185.86666666666667,132.92205725397383L187,132.92205725397383L188.13333333333333,132.92205725397383L189.26666666666665,147.3700954232897L190.39999999999998,132.92205725397383L191.53333333333336,147.3700954232897L192.66666666666669,147.3700954232897L193.8,132.92205725397383L194.93333333333334,132.92205725397383L196.06666666666666,132.92205725397383L197.2,132.92205725397383L198.33333333333331,161.81820937565396L199.46666666666664,147.3700954232897L200.60000000000002,132.92205725397383L201.73333333333335,147.3700954232897L202.86666666666667,147.3700954232897L204,132.92205725397383L205.13333333333333,118.47401908465795L206.26666666666665,132.92205725397383L207.39999999999998,132.92205725397383L208.53333333333336,132.92205725397383L209.66666666666669,132.92205725397383L210.8,132.92205725397383L211.93333333333334,161.81820937565396L213.06666666666666,132.92205725397383L214.2,132.92205725397383L215.33333333333331,132.92205725397383L216.46666666666664,132.92205725397383L217.60000000000002,147.3700954232897L218.73333333333335,147.3700954232897L219.86666666666667,147.3700954232897L221,132.92205725397383L222.13333333333333,118.47401908465795L223.26666666666665,118.47401908465795L224.39999999999998,132.92205725397383L225.53333333333336,132.92205725397383L226.66666666666669,132.92205725397383L227.8,147.3700954232897L228.93333333333334,118.47401908465795L230.06666666666666,147.3700954232897L231.2,132.92205725397383L232.33333333333331,132.92205725397383L233.46666666666664,161.81820937565396L234.60000000000002,132.92205725397383L235.73333333333335,132.92205725397383L236.86666666666667,132.92205725397383L238,132.92205725397383L239.13333333333333,132.92205725397383L240.26666666666665,147.3700954232897L241.39999999999998,132.92205725397383L242.53333333333336,132.92205725397383L243.66666666666669,118.47401908465795L244.8,132.92205725397383L245.93333333333334,147.3700954232897L247.06666666666666,161.81820937565396L248.2,132.92205725397383L249.33333333333331,132.92205725397383" style="fill: none;" fill="none"></path></g></g></g></g></g></g><g transform="translate(58, 178)" clip-path="url(#clip_1)"><clipPath id="clip_1"><rect width="272" height="22"></rect></clipPath><g><g><line x1="0" y1="0" x2="0" y2="5" style="visibility: inherit;" fill="rgb(0, 0, 0)" stroke="rgb(204, 204, 204)" stroke-width="1px"></line><line x1="22.666666666666664" y1="0" x2="22.666666666666664" y2="5" style="visibility: inherit;" fill="rgb(0, 0, 0)" stroke="rgb(204, 204, 204)" stroke-width="1px"></line><line x1="45.33333333333333" y1="0" x2="45.33333333333333" y2="5" style="visibility: inherit;" fill="rgb(0, 0, 0)" stroke="rgb(204, 204, 204)" stroke-width="1px"></line><line x1="68" y1="0" x2="68" y2="5" style="visibility: inherit;" fill="rgb(0, 0, 0)" stroke="rgb(204, 204, 204)" stroke-width="1px"></line><line x1="90.66666666666666" y1="0" x2="90.66666666666666" y2="5" style="visibility: inherit;" fill="rgb(0, 0, 0)" stroke="rgb(204, 204, 204)" stroke-width="1px"></line><line x1="113.33333333333334" y1="0" x2="113.33333333333334" y2="5" style="visibility: inherit;" fill="rgb(0, 0, 0)" stroke="rgb(204, 204, 204)" stroke-width="1px"></line><line x1="136" y1="0" x2="136" y2="5" style="visibility: inherit;" fill="rgb(0, 0, 0)" stroke="rgb(204, 204, 204)" stroke-width="1px"></line><line x1="158.66666666666669" y1="0" x2="158.66666666666669" y2="5" style="visibility: inherit;" fill="rgb(0, 0, 0)" stroke="rgb(204, 204, 204)" stroke-width="1px"></line><line x1="181.33333333333331" y1="0" x2="181.33333333333331" y2="5" style="visibility: inherit;" fill="rgb(0, 0, 0)" stroke="rgb(204, 204, 204)" stroke-width="1px"></line><line x1="204" y1="0" x2="204" y2="5" style="visibility: inherit;" fill="rgb(0, 0, 0)" stroke="rgb(204, 204, 204)" stroke-width="1px"></line><line x1="226.66666666666669" y1="0" x2="226.66666666666669" y2="5" style="visibility: inherit;" fill="rgb(0, 0, 0)" stroke="rgb(204, 204, 204)" stroke-width="1px"></line><line x1="249.33333333333331" y1="0" x2="249.33333333333331" y2="5" style="visibility: inherit;" fill="rgb(0, 0, 0)" stroke="rgb(204, 204, 204)" stroke-width="1px"></line><line x1="272" y1="0" x2="272" y2="5" style="visibility: inherit;" fill="rgb(0, 0, 0)" stroke="rgb(204, 204, 204)" stroke-width="1px"></line></g><g transform="translate(0, 8)"><text x="0" y="0" dx="0em" dy="0.95em" style="text-anchor: middle; visibility: hidden; font-family: &quot;Helvetica Neue&quot;, sans-serif; font-size: 12px; font-weight: 200;" fill="rgb(50, 49, 63)" stroke="none" stroke-width="1px">-20</text><text x="22.666666666666664" y="0" dx="0em" dy="0.95em" style="text-anchor: middle; visibility: inherit; font-family: &quot;Helvetica Neue&quot;, sans-serif; font-size: 12px; font-weight: 200;" fill="rgb(50, 49, 63)" stroke="none" stroke-width="1px">0</text><text x="45.33333333333333" y="0" dx="0em" dy="0.95em" style="text-anchor: middle; visibility: hidden; font-family: &quot;Helvetica Neue&quot;, sans-serif; font-size: 12px; font-weight: 200;" fill="rgb(50, 49, 63)" stroke="none" stroke-width="1px">20</text><text x="68" y="0" dx="0em" dy="0.95em" style="text-anchor: middle; visibility: inherit; font-family: &quot;Helvetica Neue&quot;, sans-serif; font-size: 12px; font-weight: 200;" fill="rgb(50, 49, 63)" stroke="none" stroke-width="1px">40</text><text x="90.66666666666666" y="0" dx="0em" dy="0.95em" style="text-anchor: middle; visibility: hidden; font-family: &quot;Helvetica Neue&quot;, sans-serif; font-size: 12px; font-weight: 200;" fill="rgb(50, 49, 63)" stroke="none" stroke-width="1px">60</text><text x="113.33333333333334" y="0" dx="0em" dy="0.95em" style="text-anchor: middle; visibility: inherit; font-family: &quot;Helvetica Neue&quot;, sans-serif; font-size: 12px; font-weight: 200;" fill="rgb(50, 49, 63)" stroke="none" stroke-width="1px">80</text><text x="136" y="0" dx="0em" dy="0.95em" style="text-anchor: middle; visibility: hidden; font-family: &quot;Helvetica Neue&quot;, sans-serif; font-size: 12px; font-weight: 200;" fill="rgb(50, 49, 63)" stroke="none" stroke-width="1px">100</text><text x="158.66666666666669" y="0" dx="0em" dy="0.95em" style="text-anchor: middle; visibility: inherit; font-family: &quot;Helvetica Neue&quot;, sans-serif; font-size: 12px; font-weight: 200;" fill="rgb(50, 49, 63)" stroke="none" stroke-width="1px">120</text><text x="181.33333333333331" y="0" dx="0em" dy="0.95em" style="text-anchor: middle; visibility: hidden; font-family: &quot;Helvetica Neue&quot;, sans-serif; font-size: 12px; font-weight: 200;" fill="rgb(50, 49, 63)" stroke="none" stroke-width="1px">140</text><text x="204" y="0" dx="0em" dy="0.95em" style="text-anchor: middle; visibility: inherit; font-family: &quot;Helvetica Neue&quot;, sans-serif; font-size: 12px; font-weight: 200;" fill="rgb(50, 49, 63)" stroke="none" stroke-width="1px">160</text><text x="226.66666666666669" y="0" dx="0em" dy="0.95em" style="text-anchor: middle; visibility: hidden; font-family: &quot;Helvetica Neue&quot;, sans-serif; font-size: 12px; font-weight: 200;" fill="rgb(50, 49, 63)" stroke="none" stroke-width="1px">180</text><text x="249.33333333333331" y="0" dx="0em" dy="0.95em" style="text-anchor: middle; visibility: inherit; font-family: &quot;Helvetica Neue&quot;, sans-serif; font-size: 12px; font-weight: 200;" fill="rgb(50, 49, 63)" stroke="none" stroke-width="1px">200</text><text x="272" y="0" dx="0em" dy="0.95em" style="text-anchor: middle; visibility: hidden; font-family: &quot;Helvetica Neue&quot;, sans-serif; font-size: 12px; font-weight: 200;" fill="rgb(50, 49, 63)" stroke="none" stroke-width="1px">220</text></g><line x1="0" y1="0" x2="272" y2="0" fill="rgb(0, 0, 0)" stroke="rgb(204, 204, 204)" stroke-width="1px"></line></g></g></g></g></svg>