<svg viewBox="0 0 330 200" xmlns="http://www.w3.org/2000/svg"><g><g><g><g><g><line x1="58" y1="178" x2="53" y2="178" style="visibility: inherit;" fill="rgb(0, 0, 0)" stroke="rgb(204, 204, 204)" stroke-width="1px"></line><line x1="58" y1="161.8181818181818" x2="53" y2="161.8181818181818" style="visibility: inherit;" fill="rgb(0, 0, 0)" stroke="rgb(204, 204, 204)" stroke-width="1px"></line><line x1="58" y1="145.6363636363636" x2="53" y2="145.6363636363636" style="visibility: inherit;" fill="rgb(0, 0, 0)" stroke="rgb(204, 204, 204)" stroke-width="1px"></line><line x1="58" y1="129.4545454545454" x2="53" y2="129.4545454545454" style="visibility: inherit;" fill="rgb(0, 0, 0)" stroke="rgb(204, 204, 204)" stroke-width="1px"></line><line x1="58" y1="113.27272727272721" x2="53" y2="113.27272727272721" style="visibility: inherit;" fill="rgb(0, 0, 0)" stroke="rgb(204, 204, 204)" stroke-width="1px"></line><line x1="58" y1="97.0909090909092" x2="53" y2="97.0909090909092" style="visibility: inherit;" fill="rgb(0, 0, 0)" stroke="rgb(204, 204, 204)" stroke-width="1px"></line><line x1="58" y1="80.90909090909099" x2="53" y2="80.90909090909099" style="visibility: inherit;" fill="rgb(0, 0, 0)" stroke="rgb(204, 204, 204)" stroke-width="1px"></line><line x1="58" y1="64.72727272727279" x2="53" y2="64.72727272727279" style="visibility: inherit;" fill="rgb(0, 0, 0)" stroke="rgb(204, 204, 204)" stroke-width="1px"></line><line x1="58" y1="48.54545454545459" x2="53" y2="48.54545454545459" style="visibility: inherit;" fill="rgb(0, 0, 0)" stroke="rgb(204, 204, 204)" stroke-width="1px"></line><line x1="58" y1="32.3636363636364" x2="53" y2="32.3636363636364" style="visibility: inherit;" fill="rgb(0, 0, 0)" stroke="rgb(204, 204, 204)" stroke-width="1px"></line><line x1="58" y1="16.181818181818215" x2="53" y2="16.181818181818215" style="visibility: inherit;" fill="rgb(0, 0, 0)" stroke="rgb(204, 204, 204)" stroke-width="1px"></line><line x1="58" y1="0" x2="53" y2="0" style="visibility: inherit;" fill="rgb(0, 0, 0)" stroke="rgb(204, 204, 204)" stroke-width="1px"></line></g><g transform="translate(48, 0)"><text x="0" y="178" dx="0em" dy="0.3em" style="text-anchor: end; visibility: hidden; font-family: &quot;Helvetica Neue&quot;, sans-serif; font-size: 12px; font-weight: 200;" fill="rgb(50, 49, 63)" stroke="none" stroke-width="1px">0.52</text><text x="0" y="161.8181818181818" dx="0em" dy="0.3em" style="text-anchor: end; visibility: inherit; font-family: &quot;Helvetica Neue&quot;, sans-serif; font-size: 12px; font-weight: 200;" fill="rgb(50, 49, 63)" stroke="none" stroke-width="1px">0.53</text><text x="0" y="145.6363636363636" dx="0em" dy="0.3em" style="text-anchor: end; visibility: hidden; font-family: &quot;Helvetica Neue&quot;, sans-serif; font-size: 12px; font-weight: 200;" fill="rgb(50, 49, 63)" stroke="none" stroke-width="1px">0.54</text><text x="0" y="129.4545454545454" dx="0em" dy="0.3em" style="text-anchor: end; visibility: inherit; font-family: &quot;Helvetica Neue&quot;, sans-serif; font-size: 12px; font-weight: 200;" fill="rgb(50, 49, 63)" stroke="none" stroke-width="1px">0.55</text><text x="0" y="113.27272727272721" dx="0em" dy="0.3em" style="text-anchor: end; visibility: hidden; font-family: &quot;Helvetica Neue&quot;, sans-serif; font-size: 12px; font-weight: 200;" fill="rgb(50, 49, 63)" stroke="none" stroke-width="1px">0.56</text><text x="0" y="97.0909090909092" dx="0em" dy="0.3em" style="text-anchor: end; visibility: inherit; font-family: &quot;Helvetica Neue&quot;, sans-serif; font-size: 12px; font-weight: 200;" fill="rgb(50, 49, 63)" stroke="none" stroke-width="1px">0.57</text><text x="0" y="80.90909090909099" dx="0em" dy="0.3em" style="text-anchor: end; visibility: hidden; font-family: &quot;Helvetica Neue&quot;, sans-serif; font-size: 12px; font-weight: 200;" fill="rgb(50, 49, 63)" stroke="none" stroke-width="1px">0.58</text><text x="0" y="64.72727272727279" dx="0em" dy="0.3em" style="text-anchor: end; visibility: inherit; font-family: &quot;Helvetica Neue&quot;, sans-serif; font-size: 12px; font-weight: 200;" fill="rgb(50, 49, 63)" stroke="none" stroke-width="1px">0.59</text><text x="0" y="48.54545454545459" dx="0em" dy="0.3em" style="text-anchor: end; visibility: hidden; font-family: &quot;Helvetica Neue&quot;, sans-serif; font-size: 12px; font-weight: 200;" fill="rgb(50, 49, 63)" stroke="none" stroke-width="1px">0.6</text><text x="0" y="32.3636363636364" dx="0em" dy="0.3em" style="text-anchor: end; visibility: inherit; font-family: &quot;Helvetica Neue&quot;, sans-serif; font-size: 12px; font-weight: 200;" fill="rgb(50, 49, 63)" stroke="none" stroke-width="1px">0.61</text><text x="0" y="16.181818181818215" dx="0em" dy="0.3em" style="text-anchor: end; visibility: hidden; font-family: &quot;Helvetica Neue&quot;, sans-serif; font-size: 12px; font-weight: 200;" fill="rgb(50, 49, 63)" stroke="none" stroke-width="1px">0.62</text><text x="0" y="0" dx="0em" dy="0.3em" style="text-anchor: end; visibility: hidden; font-family: &quot;Helvetica Neue&quot;, sans-serif; font-size: 12px; font-weight: 200;" fill="rgb(50, 49, 63)" stroke="none" stroke-width="1px">0.63</text></g><line x1="58" y1="0" x2="58" y2="178" fill="rgb(0, 0, 0)" stroke="rgb(204, 204, 204)" stroke-width="1px"></line></g></g><g transform="translate(58, 0)" clip-path="url(#clip_0)"><clipPath id="clip_0"><rect width="272" height="178"></rect></clipPath><g><g><g><line x1="0" y1="0" x2="0" y2="178" fill="rgb(0, 0, 0)" stroke="rgb(60, 60, 60)" stroke-width="1px" opacity="0.25"></line><line x1="19.428571428571427" y1="0" x2="19.428571428571427" y2="178" fill="rgb(0, 0, 0)" stroke="rgb(60, 60, 60)" stroke-width="1px" opacity="0.25"></line><line x1="38.857142857142854" y1="0" x2="38.857142857142854" y2="178" fill="rgb(0, 0, 0)" stroke="rgb(60, 60, 60)" stroke-width="1px" opacity="0.25"></line><line x1="58.285714285714285" y1="0" x2="58.285714285714285" y2="178" fill="rgb(0, 0, 0)" stroke="rgb(60, 60, 60)" stroke-width="1px" opacity="0.25"></line><line x1="77.71428571428571" y1="0" x2="77.71428571428571" y2="178" fill="rgb(0, 0, 0)" stroke="rgb(60, 60, 60)" stroke-width="1px" opacity="0.25"></line><line x1="97.14285714285714" y1="0" x2="97.14285714285714" y2="178" fill="rgb(0, 0, 0)" stroke="rgb(60, 60, 60)" stroke-width="1px" opacity="0.25"></line><line x1="116.57142857142857" y1="0" x2="116.57142857142857" y2="178" fill="rgb(0, 0, 0)" stroke="rgb(60, 60, 60)" stroke-width="1px" opacity="0.25"></line><line x1="136" y1="0" x2="136" y2="178" fill="rgb(0, 0, 0)" stroke="rgb(60, 60, 60)" stroke-width="1px" opacity="0.25"></line><line x1="155.42857142857142" y1="0" x2="155.42857142857142" y2="178" fill="rgb(0, 0, 0)" stroke="rgb(60, 60, 60)" stroke-width="1px" opacity="0.25"></line><line x1="174.85714285714286" y1="0" x2="174.85714285714286" y2="178" fill="rgb(0, 0, 0)" stroke="rgb(60, 60, 60)" stroke-width="1px" opacity="0.25"></line><line x1="194.28571428571428" y1="0" x2="194.28571428571428" y2="178" fill="rgb(0, 0, 0)" stroke="rgb(60, 60, 60)" stroke-width="1px" opacity="0.25"></line><line x1="213.71428571428572" y1="0" x2="213.71428571428572" y2="178" fill="rgb(0, 0, 0)" stroke="rgb(60, 60, 60)" stroke-width="1px" opacity="0.25"></line><line x1="233.14285714285714" y1="0" x2="233.14285714285714" y2="178" fill="rgb(0, 0, 0)" stroke="rgb(60, 60, 60)" stroke-width="1px" opacity="0.25"></line><line x1="252.57142857142858" y1="0" x2="252.57142857142858" y2="178" fill="rgb(0, 0, 0)" stroke="rgb(60, 60, 60)" stroke-width="1px" opacity="0.25"></line><line x1="272" y1="0" x2="272" y2="178" fill="rgb(0, 0, 0)" stroke="rgb(60, 60, 60)" stroke-width="1px" opacity="0.25"></line></g><g><line x1="0" y1="178" x2="272" y2="178" fill="rgb(0, 0, 0)" stroke="rgb(60, 60, 60)" stroke-width="1px" opacity="0.25"></line><line x1="0" y1="161.8181818181818" x2="272" y2="161.8181818181818" fill="rgb(0, 0, 0)" stroke="rgb(60, 60, 60)" stroke-width="1px" opacity="0.25"></line><line x1="0" y1="145.6363636363636" x2="272" y2="145.6363636363636" fill="rgb(0, 0, 0)" stroke="rgb(60, 60, 60)" stroke-width="1px" opacity="0.25"></line><line x1="0" y1="129.4545454545454" x2="272" y2="129.4545454545454" fill="rgb(0, 0, 0)" stroke="rgb(60, 60, 60)" stroke-width="1px" opacity="0.25"></line><line x1="0" y1="113.27272727272721" x2="272" y2="113.27272727272721" fill="rgb(0, 0, 0)" stroke="rgb(60, 60, 60)" stroke-width="1px" opacity="0.25"></line><line x1="0" y1="97.0909090909092" x2="272" y2="97.0909090909092" fill="rgb(0, 0, 0)" stroke="rgb(60, 60, 60)" stroke-width="1px" opacity="0.25"></line><line x1="0" y1="80.90909090909099" x2="272" y2="80.90909090909099" fill="rgb(0, 0, 0)" stroke="rgb(60, 60, 60)" stroke-width="1px" opacity="0.25"></line><line x1="0" y1="64.72727272727279" x2="272" y2="64.72727272727279" fill="rgb(0, 0, 0)" stroke="rgb(60, 60, 60)" stroke-width="1px" opacity="0.25"></line><line x1="0" y1="48.54545454545459" x2="272" y2="48.54545454545459" fill="rgb(0, 0, 0)" stroke="rgb(60, 60, 60)" stroke-width="1px" opacity="0.25"></line><line x1="0" y1="32.3636363636364" x2="272" y2="32.3636363636364" fill="rgb(0, 0, 0)" stroke="rgb(60, 60, 60)" stroke-width="1px" opacity="0.25"></line><line x1="0" y1="16.181818181818215" x2="272" y2="16.181818181818215" fill="rgb(0, 0, 0)" stroke="rgb(60, 60, 60)" stroke-width="1px" opacity="0.25"></line><line x1="0" y1="0" x2="272" y2="0" fill="rgb(0, 0, 0)" stroke="rgb(60, 60, 60)" stroke-width="1px" opacity="0.25"></line></g></g></g><g><g><line x1="0" y1="1019.4545454545456" x2="272" y2="1019.4545454545456" fill="rgb(0, 0, 0)" stroke="rgb(153, 153, 153)" stroke-width="1.5px"></line></g></g><g><g><line x1="19.428571428571427" y1="0" x2="19.428571428571427" y2="178" fill="rgb(0, 0, 0)" stroke="rgb(153, 153, 153)" stroke-width="1.5px"></line></g></g><g><g><g><g><g><path stroke="rgb(255, 112, 67)" stroke-width="2px" d="M21.37142857142857,34.47435023567894L23.314285714285713,-9.498031578280688L25.25714285714286,111.65023197004216L27.200000000000003,108.51596391711024L29.142857142857142,23.00060547585673L31.085714285714285,123.75324742930331L33.028571428571425,130.44236983967028L34.97142857142857,77.08782912480261L36.91428571428571,152.26245336570494L38.857142857142854,104.86059117952676L40.8,48.35878354637359L42.74285714285714,127.40393164564424L44.68571428571428,69.04913074595066L46.628571428571426,34.08506632921191L48.57142857142857,69.43525824683188L50.51428571428572,104.70984650724093L52.45714285714286,83.64765431819107L54.400000000000006,35.83115208235702L56.34285714285715,14.180359115712548L58.285714285714285,8.226556412541385L60.22857142857143,25.761630052959646L62.17142857142857,1.104069218096157L64.11428571428571,77.77293010836004L66.05714285714285,74.52462565781899L68,79.61124428572101L69.94285714285714,181.16139374894587L71.88571428571429,115.45093764450183L73.82857142857142,118.23816161818232L75.77142857142857,70.66143806452881L77.71428571428571,63.222172733479695L79.65714285714286,58.758614587411856L81.6,49.04490807363791L83.54285714285714,92.46568712770994L85.48571428571428,76.30472335298508L87.42857142857143,101.78600321481376L89.37142857142857,110.03919933387832L91.3142857142857,129.06225992815365L93.25714285714285,119.36938179564542L95.19999999999999,127.62479786076113L97.14285714285714,118.50690457901294L99.08571428571427,134.14288297004828L101.02857142857144,115.38218420262726L102.97142857142856,118.19690784225222L104.91428571428573,133.95688491818112L106.85714285714286,122.30615682444247L108.80000000000001,122.35129141453139L110.74285714285715,122.3783721685828L112.6857142857143,122.39462062101308L114.62857142857143,108.33322680204503L116.57142857142857,113.96753340113554L118.51428571428572,138.45483169601815L120.45714285714286,117.96935344717787L122.4,119.74920938817276L124.34285714285714,120.81712295276785L126.28571428571429,121.45787109152408L128.22857142857143,107.77117708453589L130.17142857142858,92.52358923522638L132.1142857142857,83.37503652564271L134.05714285714288,113.06376212548761L136,116.80585459515603L137.94285714285712,112.01553863183825L139.88571428571427,116.17692049896604L141.82857142857145,118.6737496192427L143.77142857142857,120.17184709140867L145.71428571428572,121.07070557470828L147.65714285714284,121.61002066468798L149.60000000000002,114.89803827355752L151.54285714285714,124.94199172911584L153.4857142857143,138.00393524756922L155.42857142857142,131.76995846840435L157.3714285714286,128.02957240090564L159.31428571428572,125.78534076040641L161.25714285714287,124.43880177610696L163.2,151.77316416600053L165.14285714285714,140.03149581946332L167.0857142857143,140.0220662566594L169.02857142857144,132.98083707385874L170.97142857142856,128.75609956417824L172.9142857142857,126.22125705836997L174.85714285714286,138.77149444512162L176.8,132.23049398693607L178.74285714285713,149.41260804737965L180.68571428571428,159.7218764836459L182.6285714285714,158.87186610028712L184.57142857142858,151.32628842515365L186.5142857142857,146.7989418200735L188.45714285714286,137.04696241190715L190.39999999999998,138.23134621212571L192.34285714285716,145.97754793737496L194.28571428571428,150.62526897252457L196.22857142857143,139.3427587033778L198.17142857142855,139.608823987008L200.11428571428573,139.76846315718615L202.05714285714288,153.93538954952965L204,155.39997393981741L205.94285714285712,149.24315312887185L207.88571428571427,138.51348919718612L209.82857142857145,132.0756908381748L211.77142857142857,128.21301182276792L213.71428571428572,125.8954044135238L215.65714285714284,145.61155430333235L217.60000000000002,143.37010134698082L219.54285714285714,142.02522957316992L221.4857142857143,148.25387795400172L223.42857142857142,144.95549553738243L225.3714285714286,150.01203753252923L227.31428571428572,160.08153417473557L229.25714285714287,145.0165178247044L231.2,150.0486509049223L233.14285714285714,138.99678786281652L235.0857142857143,132.36567003755306L237.02857142857144,128.38699934239486L238.97142857142856,125.9997969253001L240.9142857142857,131.60304692016138L242.85714285714286,156.07171125243318L244.8,142.61062407132306L246.74285714285713,141.56954320777515L248.68571428571428,140.9448946896465L250.6285714285714,133.53453413365085L252.57142857142858,129.08831780005366" style="fill: none;" fill="none"></path></g></g></g></g><g opacity="0.2"><g><g><g><path stroke="rgb(255, 112, 67)" stroke-width="2px" d="M21.37142857142857,34.47435023567894L23.314285714285713,-35.881460666656494L25.25714285714286,227.95256497643214L27.200000000000003,104.83006468686192L29.142857142857142,-88.64824650504374L31.085714285714285,263.1304222020236L33.028571428571425,140.0079219124534L34.97142857142857,-0.7036034410649847L36.91428571428571,263.1304222020236L38.857142857142854,34.47435023567894L40.8,-35.881460666656494L46.628571428571426,-18.292532053860754L48.57142857142857,122.41899329965767L50.51428571428572,157.59685052524915L52.45714285714286,52.06327884847468L54.400000000000006,-35.881460666656494L58.285714285714285,-0.7036034410649847L60.22857142857143,52.06327884847468L62.17142857142857,-35.881460666656494L64.11428571428571,192.77470775084066L66.05714285714285,69.65220746127044L68,87.24113607406618L69.94285714285714,333.48618487878286L71.88571428571429,16.8854216228832L73.82857142857142,122.41899329965767L75.77142857142857,-0.7036034410649847L77.71428571428571,52.06327884847468L79.65714285714286,52.06327884847468L81.6,34.47435023567894L83.54285714285714,157.59685052524915L85.48571428571428,52.06327884847468L87.42857142857143,140.0079219124534L89.37142857142857,122.41899329965767L91.3142857142857,157.59685052524915L93.25714285714285,104.83006468686192L95.19999999999999,140.0079219124534L97.14285714285714,104.83006468686192L99.08571428571427,157.59685052524915L101.02857142857144,87.24113607406618L102.97142857142856,122.41899329965767L104.91428571428573,157.59685052524915L106.85714285714286,104.83006468686192L108.80000000000001,122.41899329965767L110.74285714285715,122.41899329965767L112.6857142857143,122.41899329965767L114.62857142857143,87.24113607406618L116.57142857142857,122.41899329965767L118.51428571428572,175.1857791380449L120.45714285714286,87.24113607406618L122.4,122.41899329965767L124.34285714285714,122.41899329965767L126.28571428571429,122.41899329965767L128.22857142857143,87.24113607406618L130.17142857142858,69.65220746127044L132.1142857142857,69.65220746127044L134.05714285714288,157.59685052524915L136,122.41899329965767L137.94285714285712,104.83006468686192L139.88571428571427,122.41899329965767L141.82857142857145,122.41899329965767L143.77142857142857,122.41899329965767L145.71428571428572,122.41899329965767L147.65714285714284,122.41899329965767L149.60000000000002,104.83006468686192L151.54285714285714,140.0079219124534L153.4857142857143,157.59685052524915L155.42857142857142,122.41899329965767L157.3714285714286,122.41899329965767L159.31428571428572,122.41899329965767L161.25714285714287,122.41899329965767L163.2,192.77470775084066L165.14285714285714,122.41899329965767L167.0857142857143,140.0079219124534L169.02857142857144,122.41899329965767L170.97142857142856,122.41899329965767L172.9142857142857,122.41899329965767L174.85714285714286,157.59685052524915L176.8,122.41899329965767L178.74285714285713,175.1857791380449L180.68571428571428,175.1857791380449L182.6285714285714,157.59685052524915L184.57142857142858,140.0079219124534L186.5142857142857,140.0079219124534L188.45714285714286,122.41899329965767L190.39999999999998,140.0079219124534L192.34285714285716,157.59685052524915L194.28571428571428,157.59685052524915L196.22857142857143,122.41899329965767L198.17142857142855,140.0079219124534L200.11428571428573,140.0079219124534L202.05714285714288,175.1857791380449L204,157.59685052524915L205.94285714285712,140.0079219124534L207.88571428571427,122.41899329965767L209.82857142857145,122.41899329965767L211.77142857142857,122.41899329965767L213.71428571428572,122.41899329965767L215.65714285714284,175.1857791380449L217.60000000000002,140.0079219124534L219.54285714285714,140.0079219124534L221.4857142857143,157.59685052524915L223.42857142857142,140.0079219124534L225.3714285714286,157.59685052524915L227.31428571428572,175.1857791380449L229.25714285714287,122.41899329965767L231.2,157.59685052524915L233.14285714285714,122.41899329965767L235.0857142857143,122.41899329965767L237.02857142857144,122.41899329965767L238.97142857142856,122.41899329965767L240.9142857142857,140.0079219124534L242.85714285714286,192.77470775084066L244.8,122.41899329965767L246.74285714285713,140.0079219124534L248.68571428571428,140.0079219124534L250.6285714285714,122.41899329965767L252.57142857142858,122.41899329965767" style="fill: none;" fill="none"></path></g></g></g></g></g></g><g transform="translate(58, 178)" clip-path="url(#clip_1)"><clipPath id="clip_1"><rect width="272" height="22"></rect></clipPath><g><g><line x1="0" y1="0" x2="0" y2="5" style="visibility: inherit;" fill="rgb(0, 0, 0)" stroke="rgb(204, 204, 204)" stroke-width="1px"></line><line x1="19.428571428571427" y1="0" x2="19.428571428571427" y2="5" style="visibility: inherit;" fill="rgb(0, 0, 0)" stroke="rgb(204, 204, 204)" stroke-width="1px"></line><line x1="38.857142857142854" y1="0" x2="38.857142857142854" y2="5" style="visibility: inherit;" fill="rgb(0, 0, 0)" stroke="rgb(204, 204, 204)" stroke-width="1px"></line><line x1="58.285714285714285" y1="0" x2="58.285714285714285" y2="5" style="visibility: inherit;" fill="rgb(0, 0, 0)" stroke="rgb(204, 204, 204)" stroke-width="1px"></line><line x1="77.71428571428571" y1="0" x2="77.71428571428571" y2="5" style="visibility: inherit;" fill="rgb(0, 0, 0)" stroke="rgb(204, 204, 204)" stroke-width="1px"></line><line x1="97.14285714285714" y1="0" x2="97.14285714285714" y2="5" style="visibility: inherit;" fill="rgb(0, 0, 0)" stroke="rgb(204, 204, 204)" stroke-width="1px"></line><line x1="116.57142857142857" y1="0" x2="116.57142857142857" y2="5" style="visibility: inherit;" fill="rgb(0, 0, 0)" stroke="rgb(204, 204, 204)" stroke-width="1px"></line><line x1="136" y1="0" x2="136" y2="5" style="visibility: inherit;" fill="rgb(0, 0, 0)" stroke="rgb(204, 204, 204)" stroke-width="1px"></line><line x1="155.42857142857142" y1="0" x2="155.42857142857142" y2="5" style="visibility: inherit;" fill="rgb(0, 0, 0)" stroke="rgb(204, 204, 204)" stroke-width="1px"></line><line x1="174.85714285714286" y1="0" x2="174.85714285714286" y2="5" style="visibility: inherit;" fill="rgb(0, 0, 0)" stroke="rgb(204, 204, 204)" stroke-width="1px"></line><line x1="194.28571428571428" y1="0" x2="194.28571428571428" y2="5" style="visibility: inherit;" fill="rgb(0, 0, 0)" stroke="rgb(204, 204, 204)" stroke-width="1px"></line><line x1="213.71428571428572" y1="0" x2="213.71428571428572" y2="5" style="visibility: inherit;" fill="rgb(0, 0, 0)" stroke="rgb(204, 204, 204)" stroke-width="1px"></line><line x1="233.14285714285714" y1="0" x2="233.14285714285714" y2="5" style="visibility: inherit;" fill="rgb(0, 0, 0)" stroke="rgb(204, 204, 204)" stroke-width="1px"></line><line x1="252.57142857142858" y1="0" x2="252.57142857142858" y2="5" style="visibility: inherit;" fill="rgb(0, 0, 0)" stroke="rgb(204, 204, 204)" stroke-width="1px"></line><line x1="272" y1="0" x2="272" y2="5" style="visibility: inherit;" fill="rgb(0, 0, 0)" stroke="rgb(204, 204, 204)" stroke-width="1px"></line></g><g transform="translate(0, 8)"><text x="0" y="0" dx="0em" dy="0.95em" style="text-anchor: middle; visibility: hidden; font-family: &quot;Helvetica Neue&quot;, sans-serif; font-size: 12px; font-weight: 200;" fill="rgb(50, 49, 63)" stroke="none" stroke-width="1px">-10</text><text x="19.428571428571427" y="0" dx="0em" dy="0.95em" style="text-anchor: middle; visibility: inherit; font-family: &quot;Helvetica Neue&quot;, sans-serif; font-size: 12px; font-weight: 200;" fill="rgb(50, 49, 63)" stroke="none" stroke-width="1px">0</text><text x="38.857142857142854" y="0" dx="0em" dy="0.95em" style="text-anchor: middle; visibility: hidden; font-family: &quot;Helvetica Neue&quot;, sans-serif; font-size: 12px; font-weight: 200;" fill="rgb(50, 49, 63)" stroke="none" stroke-width="1px">10</text><text x="58.285714285714285" y="0" dx="0em" dy="0.95em" style="text-anchor: middle; visibility: inherit; font-family: &quot;Helvetica Neue&quot;, sans-serif; font-size: 12px; font-weight: 200;" fill="rgb(50, 49, 63)" stroke="none" stroke-width="1px">20</text><text x="77.71428571428571" y="0" dx="0em" dy="0.95em" style="text-anchor: middle; visibility: hidden; font-family: &quot;Helvetica Neue&quot;, sans-serif; font-size: 12px; font-weight: 200;" fill="rgb(50, 49, 63)" stroke="none" stroke-width="1px">30</text><text x="97.14285714285714" y="0" dx="0em" dy="0.95em" style="text-anchor: middle; visibility: inherit; font-family: &quot;Helvetica Neue&quot;, sans-serif; font-size: 12px; font-weight: 200;" fill="rgb(50, 49, 63)" stroke="none" stroke-width="1px">40</text><text x="116.57142857142857" y="0" dx="0em" dy="0.95em" style="text-anchor: middle; visibility: hidden; font-family: &quot;Helvetica Neue&quot;, sans-serif; font-size: 12px; font-weight: 200;" fill="rgb(50, 49, 63)" stroke="none" stroke-width="1px">50</text><text x="136" y="0" dx="0em" dy="0.95em" style="text-anchor: middle; visibility: inherit; font-family: &quot;Helvetica Neue&quot;, sans-serif; font-size: 12px; font-weight: 200;" fill="rgb(50, 49, 63)" stroke="none" stroke-width="1px">60</text><text x="155.42857142857142" y="0" dx="0em" dy="0.95em" style="text-anchor: middle; visibility: hidden; font-family: &quot;Helvetica Neue&quot;, sans-serif; font-size: 12px; font-weight: 200;" fill="rgb(50, 49, 63)" stroke="none" stroke-width="1px">70</text><text x="174.85714285714286" y="0" dx="0em" dy="0.95em" style="text-anchor: middle; visibility: inherit; font-family: &quot;Helvetica Neue&quot;, sans-serif; font-size: 12px; font-weight: 200;" fill="rgb(50, 49, 63)" stroke="none" stroke-width="1px">80</text><text x="194.28571428571428" y="0" dx="0em" dy="0.95em" style="text-anchor: middle; visibility: hidden; font-family: &quot;Helvetica Neue&quot;, sans-serif; font-size: 12px; font-weight: 200;" fill="rgb(50, 49, 63)" stroke="none" stroke-width="1px">90</text><text x="213.71428571428572" y="0" dx="0em" dy="0.95em" style="text-anchor: middle; visibility: inherit; font-family: &quot;Helvetica Neue&quot;, sans-serif; font-size: 12px; font-weight: 200;" fill="rgb(50, 49, 63)" stroke="none" stroke-width="1px">100</text><text x="233.14285714285714" y="0" dx="0em" dy="0.95em" style="text-anchor: middle; visibility: hidden; font-family: &quot;Helvetica Neue&quot;, sans-serif; font-size: 12px; font-weight: 200;" fill="rgb(50, 49, 63)" stroke="none" stroke-width="1px">110</text><text x="252.57142857142858" y="0" dx="0em" dy="0.95em" style="text-anchor: middle; visibility: inherit; font-family: &quot;Helvetica Neue&quot;, sans-serif; font-size: 12px; font-weight: 200;" fill="rgb(50, 49, 63)" stroke="none" stroke-width="1px">120</text><text x="272" y="0" dx="0em" dy="0.95em" style="text-anchor: middle; visibility: hidden; font-family: &quot;Helvetica Neue&quot;, sans-serif; font-size: 12px; font-weight: 200;" fill="rgb(50, 49, 63)" stroke="none" stroke-width="1px">130</text></g><line x1="0" y1="0" x2="272" y2="0" fill="rgb(0, 0, 0)" stroke="rgb(204, 204, 204)" stroke-width="1px"></line></g></g></g></g></svg>