<svg viewBox="0 0 330 200" xmlns="http://www.w3.org/2000/svg"><g><g><g><g><g><line x1="58" y1="178" x2="53" y2="178" style="visibility: inherit;" fill="rgb(0, 0, 0)" stroke="rgb(204, 204, 204)" stroke-width="1px"></line><line x1="58" y1="160.2" x2="53" y2="160.2" style="visibility: inherit;" fill="rgb(0, 0, 0)" stroke="rgb(204, 204, 204)" stroke-width="1px"></line><line x1="58" y1="142.39999999999998" x2="53" y2="142.39999999999998" style="visibility: inherit;" fill="rgb(0, 0, 0)" stroke="rgb(204, 204, 204)" stroke-width="1px"></line><line x1="58" y1="124.59999999999997" x2="53" y2="124.59999999999997" style="visibility: inherit;" fill="rgb(0, 0, 0)" stroke="rgb(204, 204, 204)" stroke-width="1px"></line><line x1="58" y1="106.79999999999995" x2="53" y2="106.79999999999995" style="visibility: inherit;" fill="rgb(0, 0, 0)" stroke="rgb(204, 204, 204)" stroke-width="1px"></line><line x1="58" y1="89.00000000000004" x2="53" y2="89.00000000000004" style="visibility: inherit;" fill="rgb(0, 0, 0)" stroke="rgb(204, 204, 204)" stroke-width="1px"></line><line x1="58" y1="71.20000000000005" x2="53" y2="71.20000000000005" style="visibility: inherit;" fill="rgb(0, 0, 0)" stroke="rgb(204, 204, 204)" stroke-width="1px"></line><line x1="58" y1="53.400000000000034" x2="53" y2="53.400000000000034" style="visibility: inherit;" fill="rgb(0, 0, 0)" stroke="rgb(204, 204, 204)" stroke-width="1px"></line><line x1="58" y1="35.60000000000002" x2="53" y2="35.60000000000002" style="visibility: inherit;" fill="rgb(0, 0, 0)" stroke="rgb(204, 204, 204)" stroke-width="1px"></line><line x1="58" y1="17.80000000000001" x2="53" y2="17.80000000000001" style="visibility: inherit;" fill="rgb(0, 0, 0)" stroke="rgb(204, 204, 204)" stroke-width="1px"></line><line x1="58" y1="0" x2="53" y2="0" style="visibility: inherit;" fill="rgb(0, 0, 0)" stroke="rgb(204, 204, 204)" stroke-width="1px"></line></g><g transform="translate(48, 0)"><text x="0" y="178" dx="0em" dy="0.3em" style="text-anchor: end; visibility: hidden; font-family: &quot;Helvetica Neue&quot;, sans-serif; font-size: 12px; font-weight: 200;" fill="rgb(50, 49, 63)" stroke="none" stroke-width="1px">0.48</text><text x="0" y="160.2" dx="0em" dy="0.3em" style="text-anchor: end; visibility: inherit; font-family: &quot;Helvetica Neue&quot;, sans-serif; font-size: 12px; font-weight: 200;" fill="rgb(50, 49, 63)" stroke="none" stroke-width="1px">0.5</text><text x="0" y="142.39999999999998" dx="0em" dy="0.3em" style="text-anchor: end; visibility: hidden; font-family: &quot;Helvetica Neue&quot;, sans-serif; font-size: 12px; font-weight: 200;" fill="rgb(50, 49, 63)" stroke="none" stroke-width="1px">0.52</text><text x="0" y="124.59999999999997" dx="0em" dy="0.3em" style="text-anchor: end; visibility: inherit; font-family: &quot;Helvetica Neue&quot;, sans-serif; font-size: 12px; font-weight: 200;" fill="rgb(50, 49, 63)" stroke="none" stroke-width="1px">0.54</text><text x="0" y="106.79999999999995" dx="0em" dy="0.3em" style="text-anchor: end; visibility: hidden; font-family: &quot;Helvetica Neue&quot;, sans-serif; font-size: 12px; font-weight: 200;" fill="rgb(50, 49, 63)" stroke="none" stroke-width="1px">0.56</text><text x="0" y="89.00000000000004" dx="0em" dy="0.3em" style="text-anchor: end; visibility: inherit; font-family: &quot;Helvetica Neue&quot;, sans-serif; font-size: 12px; font-weight: 200;" fill="rgb(50, 49, 63)" stroke="none" stroke-width="1px">0.58</text><text x="0" y="71.20000000000005" dx="0em" dy="0.3em" style="text-anchor: end; visibility: hidden; font-family: &quot;Helvetica Neue&quot;, sans-serif; font-size: 12px; font-weight: 200;" fill="rgb(50, 49, 63)" stroke="none" stroke-width="1px">0.6</text><text x="0" y="53.400000000000034" dx="0em" dy="0.3em" style="text-anchor: end; visibility: inherit; font-family: &quot;Helvetica Neue&quot;, sans-serif; font-size: 12px; font-weight: 200;" fill="rgb(50, 49, 63)" stroke="none" stroke-width="1px">0.62</text><text x="0" y="35.60000000000002" dx="0em" dy="0.3em" style="text-anchor: end; visibility: hidden; font-family: &quot;Helvetica Neue&quot;, sans-serif; font-size: 12px; font-weight: 200;" fill="rgb(50, 49, 63)" stroke="none" stroke-width="1px">0.64</text><text x="0" y="17.80000000000001" dx="0em" dy="0.3em" style="text-anchor: end; visibility: inherit; font-family: &quot;Helvetica Neue&quot;, sans-serif; font-size: 12px; font-weight: 200;" fill="rgb(50, 49, 63)" stroke="none" stroke-width="1px">0.66</text><text x="0" y="0" dx="0em" dy="0.3em" style="text-anchor: end; visibility: hidden; font-family: &quot;Helvetica Neue&quot;, sans-serif; font-size: 12px; font-weight: 200;" fill="rgb(50, 49, 63)" stroke="none" stroke-width="1px">0.68</text></g><line x1="58" y1="0" x2="58" y2="178" fill="rgb(0, 0, 0)" stroke="rgb(204, 204, 204)" stroke-width="1px"></line></g></g><g transform="translate(58, 0)" clip-path="url(#clip_0)"><clipPath id="clip_0"><rect width="272" height="178"></rect></clipPath><g><g><g><line x1="0" y1="0" x2="0" y2="178" fill="rgb(0, 0, 0)" stroke="rgb(60, 60, 60)" stroke-width="1px" opacity="0.25"></line><line x1="19.428571428571427" y1="0" x2="19.428571428571427" y2="178" fill="rgb(0, 0, 0)" stroke="rgb(60, 60, 60)" stroke-width="1px" opacity="0.25"></line><line x1="38.857142857142854" y1="0" x2="38.857142857142854" y2="178" fill="rgb(0, 0, 0)" stroke="rgb(60, 60, 60)" stroke-width="1px" opacity="0.25"></line><line x1="58.285714285714285" y1="0" x2="58.285714285714285" y2="178" fill="rgb(0, 0, 0)" stroke="rgb(60, 60, 60)" stroke-width="1px" opacity="0.25"></line><line x1="77.71428571428571" y1="0" x2="77.71428571428571" y2="178" fill="rgb(0, 0, 0)" stroke="rgb(60, 60, 60)" stroke-width="1px" opacity="0.25"></line><line x1="97.14285714285714" y1="0" x2="97.14285714285714" y2="178" fill="rgb(0, 0, 0)" stroke="rgb(60, 60, 60)" stroke-width="1px" opacity="0.25"></line><line x1="116.57142857142857" y1="0" x2="116.57142857142857" y2="178" fill="rgb(0, 0, 0)" stroke="rgb(60, 60, 60)" stroke-width="1px" opacity="0.25"></line><line x1="136" y1="0" x2="136" y2="178" fill="rgb(0, 0, 0)" stroke="rgb(60, 60, 60)" stroke-width="1px" opacity="0.25"></line><line x1="155.42857142857142" y1="0" x2="155.42857142857142" y2="178" fill="rgb(0, 0, 0)" stroke="rgb(60, 60, 60)" stroke-width="1px" opacity="0.25"></line><line x1="174.85714285714286" y1="0" x2="174.85714285714286" y2="178" fill="rgb(0, 0, 0)" stroke="rgb(60, 60, 60)" stroke-width="1px" opacity="0.25"></line><line x1="194.28571428571428" y1="0" x2="194.28571428571428" y2="178" fill="rgb(0, 0, 0)" stroke="rgb(60, 60, 60)" stroke-width="1px" opacity="0.25"></line><line x1="213.71428571428572" y1="0" x2="213.71428571428572" y2="178" fill="rgb(0, 0, 0)" stroke="rgb(60, 60, 60)" stroke-width="1px" opacity="0.25"></line><line x1="233.14285714285714" y1="0" x2="233.14285714285714" y2="178" fill="rgb(0, 0, 0)" stroke="rgb(60, 60, 60)" stroke-width="1px" opacity="0.25"></line><line x1="252.57142857142858" y1="0" x2="252.57142857142858" y2="178" fill="rgb(0, 0, 0)" stroke="rgb(60, 60, 60)" stroke-width="1px" opacity="0.25"></line><line x1="272" y1="0" x2="272" y2="178" fill="rgb(0, 0, 0)" stroke="rgb(60, 60, 60)" stroke-width="1px" opacity="0.25"></line></g><g><line x1="0" y1="178" x2="272" y2="178" fill="rgb(0, 0, 0)" stroke="rgb(60, 60, 60)" stroke-width="1px" opacity="0.25"></line><line x1="0" y1="160.2" x2="272" y2="160.2" fill="rgb(0, 0, 0)" stroke="rgb(60, 60, 60)" stroke-width="1px" opacity="0.25"></line><line x1="0" y1="142.39999999999998" x2="272" y2="142.39999999999998" fill="rgb(0, 0, 0)" stroke="rgb(60, 60, 60)" stroke-width="1px" opacity="0.25"></line><line x1="0" y1="124.59999999999997" x2="272" y2="124.59999999999997" fill="rgb(0, 0, 0)" stroke="rgb(60, 60, 60)" stroke-width="1px" opacity="0.25"></line><line x1="0" y1="106.79999999999995" x2="272" y2="106.79999999999995" fill="rgb(0, 0, 0)" stroke="rgb(60, 60, 60)" stroke-width="1px" opacity="0.25"></line><line x1="0" y1="89.00000000000004" x2="272" y2="89.00000000000004" fill="rgb(0, 0, 0)" stroke="rgb(60, 60, 60)" stroke-width="1px" opacity="0.25"></line><line x1="0" y1="71.20000000000005" x2="272" y2="71.20000000000005" fill="rgb(0, 0, 0)" stroke="rgb(60, 60, 60)" stroke-width="1px" opacity="0.25"></line><line x1="0" y1="53.400000000000034" x2="272" y2="53.400000000000034" fill="rgb(0, 0, 0)" stroke="rgb(60, 60, 60)" stroke-width="1px" opacity="0.25"></line><line x1="0" y1="35.60000000000002" x2="272" y2="35.60000000000002" fill="rgb(0, 0, 0)" stroke="rgb(60, 60, 60)" stroke-width="1px" opacity="0.25"></line><line x1="0" y1="17.80000000000001" x2="272" y2="17.80000000000001" fill="rgb(0, 0, 0)" stroke="rgb(60, 60, 60)" stroke-width="1px" opacity="0.25"></line><line x1="0" y1="0" x2="272" y2="0" fill="rgb(0, 0, 0)" stroke="rgb(60, 60, 60)" stroke-width="1px" opacity="0.25"></line></g></g></g><g><g><line x1="0" y1="605.1999999999998" x2="272" y2="605.1999999999998" fill="rgb(0, 0, 0)" stroke="rgb(153, 153, 153)" stroke-width="1.5px"></line></g></g><g><g><line x1="19.428571428571427" y1="0" x2="19.428571428571427" y2="178" fill="rgb(0, 0, 0)" stroke="rgb(153, 153, 153)" stroke-width="1.5px"></line></g></g><g><g><g><g><g><path stroke="rgb(255, 112, 67)" stroke-width="2px" d="M23.314285714285713,221.8566324979067L25.25714285714286,143.89682095488718L27.200000000000003,114.43060703146108L29.142857142857142,76.14697444079907L31.085714285714285,28.180879946791038L33.028571428571425,18.52547632478229L34.97142857142857,17.270600375501516L36.91428571428571,29.529757403852756L38.857142857142854,41.12094887981482L40.8,35.11633024041345L42.74285714285714,35.826042339497064L44.68571428571428,27.661353431197995L46.628571428571426,35.646923004366926L48.57142857142857,61.8901363791324L50.51428571428572,77.62816510999349L52.45714285714286,82.77826040240792L54.400000000000006,77.2885594570901L56.34285714285715,69.70568053926104L58.285714285714285,65.15624892424832L60.22857142857143,66.71594431894539L62.17142857142857,84.80860195596183L64.11428571428571,91.37485644090977L66.05714285714285,95.31457594407556L68,89.10006368141272L69.94285714285714,76.79302415040652L71.88571428571429,82.27630969965438L73.82857142857142,89.8554338857253L75.77142857142857,90.11375002393395L77.71428571428571,90.26873964594506L79.65714285714286,86.07257901397483L81.6,87.84403714668983L83.54285714285714,88.90691193608869L85.48571428571428,93.83379071445054L87.42857142857143,96.78991789112459L89.37142857142857,98.56359416460552L91.3142857142857,103.91695375784546L93.25714285714285,107.1289694925863L95.19999999999999,104.76702510192584L97.14285714285714,107.63901229094677L99.08571428571427,105.0730507841464L101.02857142857144,103.53347388138332L102.97142857142856,102.60972774019962L104.91428571428573,102.05548005566017L106.85714285714286,106.01208525975949L108.80000000000001,99.80774075278929L110.74285714285715,87.5068052006487L112.6857142857143,80.12624386965886L114.62857142857143,75.69790707117109L116.57142857142857,73.04090499211652L118.51428571428572,75.73587877828776L120.45714285714286,81.6420168643104L122.4,89.47485353023622L124.34285714285714,89.88540171546282L126.28571428571429,90.13173062659844L128.22857142857143,90.27952797327968L130.17142857142858,98.94651400992198L132.1142857142857,104.14670563190595L134.05714285714288,107.26682060509589L136,113.42804340332584L137.94285714285712,117.12477708226356L139.88571428571427,119.34281728962614L141.82857142857145,116.38448759972772L143.77142857142857,114.60948978578881L145.71428571428572,109.2553372831096L147.65714285714284,106.04284578150201L149.60000000000002,112.69365850916921L151.54285714285714,116.68414614576949L153.4857142857143,119.0784387277296L155.42857142857142,116.22586046258975L157.3714285714286,114.51431350350595L159.31428571428572,113.4873853280556L161.25714285714287,117.1603822371013L163.2,119.36418038252879L165.14285714285714,116.39730545546934L167.0857142857143,118.90633431354951L169.02857142857144,116.12259781408186L170.97142857142856,118.74150972871709L172.9142857142857,116.02370306318241L174.85714285714286,114.39301906386163L176.8,113.41460866426912L178.74285714285713,112.82756242451359L180.68571428571428,112.47533468066034L182.6285714285714,112.26399803434833L184.57142857142858,112.13719604656121L186.5142857142857,112.06111485388891L188.45714285714286,116.30461995260134L190.39999999999998,114.561569197513L192.34285714285716,113.51573874445992L194.28571428571428,112.88824047262813L196.22857142857143,112.51174150952895L198.17142857142855,112.28584213166955L200.11428571428573,112.15030250495388L202.05714285714288,112.0689787289244L204,112.02018446330683L205.94285714285712,111.99090790393618L207.88571428571427,111.97334196831378L209.82857142857145,116.25195622125625L211.77142857142857,114.5299709587059L213.71428571428572,113.4967798011756L215.65714285714284,108.58771129234164L217.60000000000002,105.64227018704126L219.54285714285714,108.16415933817694L221.4857142857143,105.3881390145425L223.42857142857142,108.01168063467767L225.3714285714286,105.296651792443L227.31428571428572,107.95678830141793L229.25714285714287,109.55287020680285L231.2,119.08882697866537L233.14285714285714,116.23209341315133L235.0857142857143,110.2288994595272L237.02857142857144,110.91613690166842L238.97142857142856,115.61763318126899L240.9142857142857,114.14937713471355L242.85714285714286,108.97926969246454L244.8,105.87720522711511L246.74285714285713,104.01596654790535L248.68571428571428,107.18837715469532L250.6285714285714,113.38097733308506L252.57142857142858,117.09653744011891" style="fill: none;" fill="none"></path></g></g></g></g><g opacity="0.2"><g><g><g><path stroke="rgb(255, 112, 67)" stroke-width="2px" d="M23.314285714285713,197.73012239933013L25.25714285714286,69.05540187358858L27.200000000000003,79.77833945751192L29.142857142857142,26.16386373043065L31.085714285714285,-38.17349653244011L33.028571428571425,4.718094658851669L34.97142857142857,15.440979194641159L36.91428571428571,47.6096328020096L38.857142857142854,58.33251733779909L40.8,26.16386373043065L42.74285714285714,36.88674826622011L44.68571428571428,15.440979194641159L46.628571428571426,47.6096328020096L48.57142857142857,101.2241085290909L50.51428571428572,101.2241085290909L52.45714285714286,90.50122399330141L54.400000000000006,69.05540187358858L56.34285714285715,58.33251733779909L58.285714285714285,58.33251733779909L60.22857142857143,69.05540187358858L62.17142857142857,111.94699306488037L64.11428571428571,101.2241085290909L66.05714285714285,101.2241085290909L68,79.77833945751192L69.94285714285714,58.33251733779909L71.88571428571429,90.50122399330141L73.82857142857142,101.2241085290909L75.77142857142857,90.50122399330141L77.71428571428571,90.50122399330141L79.65714285714286,79.77833945751192L81.6,90.50122399330141L83.54285714285714,90.50122399330141L85.48571428571428,101.2241085290909L87.42857142857143,101.2241085290909L89.37142857142857,101.2241085290909L91.3142857142857,111.94699306488037L93.25714285714285,111.94699306488037L95.19999999999999,101.2241085290909L97.14285714285714,111.94699306488037L99.08571428571427,101.2241085290909L101.02857142857144,101.2241085290909L102.97142857142856,101.2241085290909L104.91428571428573,101.2241085290909L106.85714285714286,111.94699306488037L108.80000000000001,90.50122399330141L110.74285714285715,69.05540187358858L112.6857142857143,69.05540187358858L114.62857142857143,69.05540187358858L116.57142857142857,69.05540187358858L118.51428571428572,79.77833945751192L120.45714285714286,90.50122399330141L122.4,101.2241085290909L124.34285714285714,90.50122399330141L126.28571428571429,90.50122399330141L128.22857142857143,90.50122399330141L130.17142857142858,111.94699306488037L132.1142857142857,111.94699306488037L134.05714285714288,111.94699306488037L136,122.66987760066986L137.94285714285712,122.66987760066986L139.88571428571427,122.66987760066986L141.82857142857145,111.94699306488037L143.77142857142857,111.94699306488037L145.71428571428572,101.2241085290909L147.65714285714284,101.2241085290909L149.60000000000002,122.66987760066986L151.54285714285714,122.66987760066986L153.4857142857143,122.66987760066986L155.42857142857142,111.94699306488037L157.3714285714286,111.94699306488037L159.31428571428572,111.94699306488037L161.25714285714287,122.66987760066986L163.2,122.66987760066986L165.14285714285714,111.94699306488037L167.0857142857143,122.66987760066986L169.02857142857144,111.94699306488037L170.97142857142856,122.66987760066986L172.9142857142857,111.94699306488037L174.85714285714286,111.94699306488037L176.8,111.94699306488037L178.74285714285713,111.94699306488037L180.68571428571428,111.94699306488037L182.6285714285714,111.94699306488037L184.57142857142858,111.94699306488037L186.5142857142857,111.94699306488037L188.45714285714286,122.66987760066986L190.39999999999998,111.94699306488037L192.34285714285716,111.94699306488037L194.28571428571428,111.94699306488037L196.22857142857143,111.94699306488037L198.17142857142855,111.94699306488037L200.11428571428573,111.94699306488037L202.05714285714288,111.94699306488037L204,111.94699306488037L205.94285714285712,111.94699306488037L207.88571428571427,111.94699306488037L209.82857142857145,122.66987760066986L211.77142857142857,111.94699306488037L213.71428571428572,111.94699306488037L215.65714285714284,101.2241085290909L217.60000000000002,101.2241085290909L219.54285714285714,111.94699306488037L221.4857142857143,101.2241085290909L223.42857142857142,111.94699306488037L225.3714285714286,101.2241085290909L227.31428571428572,111.94699306488037L229.25714285714287,111.94699306488037L231.2,133.39276213645934L233.14285714285714,111.94699306488037L235.0857142857143,101.2241085290909L237.02857142857144,111.94699306488037L238.97142857142856,122.66987760066986L240.9142857142857,111.94699306488037L242.85714285714286,101.2241085290909L244.8,101.2241085290909L246.74285714285713,101.2241085290909L248.68571428571428,111.94699306488037L250.6285714285714,122.66987760066986L252.57142857142858,122.66987760066986" style="fill: none;" fill="none"></path></g></g></g></g></g></g><g transform="translate(58, 178)" clip-path="url(#clip_1)"><clipPath id="clip_1"><rect width="272" height="22"></rect></clipPath><g><g><line x1="0" y1="0" x2="0" y2="5" style="visibility: inherit;" fill="rgb(0, 0, 0)" stroke="rgb(204, 204, 204)" stroke-width="1px"></line><line x1="19.428571428571427" y1="0" x2="19.428571428571427" y2="5" style="visibility: inherit;" fill="rgb(0, 0, 0)" stroke="rgb(204, 204, 204)" stroke-width="1px"></line><line x1="38.857142857142854" y1="0" x2="38.857142857142854" y2="5" style="visibility: inherit;" fill="rgb(0, 0, 0)" stroke="rgb(204, 204, 204)" stroke-width="1px"></line><line x1="58.285714285714285" y1="0" x2="58.285714285714285" y2="5" style="visibility: inherit;" fill="rgb(0, 0, 0)" stroke="rgb(204, 204, 204)" stroke-width="1px"></line><line x1="77.71428571428571" y1="0" x2="77.71428571428571" y2="5" style="visibility: inherit;" fill="rgb(0, 0, 0)" stroke="rgb(204, 204, 204)" stroke-width="1px"></line><line x1="97.14285714285714" y1="0" x2="97.14285714285714" y2="5" style="visibility: inherit;" fill="rgb(0, 0, 0)" stroke="rgb(204, 204, 204)" stroke-width="1px"></line><line x1="116.57142857142857" y1="0" x2="116.57142857142857" y2="5" style="visibility: inherit;" fill="rgb(0, 0, 0)" stroke="rgb(204, 204, 204)" stroke-width="1px"></line><line x1="136" y1="0" x2="136" y2="5" style="visibility: inherit;" fill="rgb(0, 0, 0)" stroke="rgb(204, 204, 204)" stroke-width="1px"></line><line x1="155.42857142857142" y1="0" x2="155.42857142857142" y2="5" style="visibility: inherit;" fill="rgb(0, 0, 0)" stroke="rgb(204, 204, 204)" stroke-width="1px"></line><line x1="174.85714285714286" y1="0" x2="174.85714285714286" y2="5" style="visibility: inherit;" fill="rgb(0, 0, 0)" stroke="rgb(204, 204, 204)" stroke-width="1px"></line><line x1="194.28571428571428" y1="0" x2="194.28571428571428" y2="5" style="visibility: inherit;" fill="rgb(0, 0, 0)" stroke="rgb(204, 204, 204)" stroke-width="1px"></line><line x1="213.71428571428572" y1="0" x2="213.71428571428572" y2="5" style="visibility: inherit;" fill="rgb(0, 0, 0)" stroke="rgb(204, 204, 204)" stroke-width="1px"></line><line x1="233.14285714285714" y1="0" x2="233.14285714285714" y2="5" style="visibility: inherit;" fill="rgb(0, 0, 0)" stroke="rgb(204, 204, 204)" stroke-width="1px"></line><line x1="252.57142857142858" y1="0" x2="252.57142857142858" y2="5" style="visibility: inherit;" fill="rgb(0, 0, 0)" stroke="rgb(204, 204, 204)" stroke-width="1px"></line><line x1="272" y1="0" x2="272" y2="5" style="visibility: inherit;" fill="rgb(0, 0, 0)" stroke="rgb(204, 204, 204)" stroke-width="1px"></line></g><g transform="translate(0, 8)"><text x="0" y="0" dx="0em" dy="0.95em" style="text-anchor: middle; visibility: hidden; font-family: &quot;Helvetica Neue&quot;, sans-serif; font-size: 12px; font-weight: 200;" fill="rgb(50, 49, 63)" stroke="none" stroke-width="1px">-10</text><text x="19.428571428571427" y="0" dx="0em" dy="0.95em" style="text-anchor: middle; visibility: inherit; font-family: &quot;Helvetica Neue&quot;, sans-serif; font-size: 12px; font-weight: 200;" fill="rgb(50, 49, 63)" stroke="none" stroke-width="1px">0</text><text x="38.857142857142854" y="0" dx="0em" dy="0.95em" style="text-anchor: middle; visibility: hidden; font-family: &quot;Helvetica Neue&quot;, sans-serif; font-size: 12px; font-weight: 200;" fill="rgb(50, 49, 63)" stroke="none" stroke-width="1px">10</text><text x="58.285714285714285" y="0" dx="0em" dy="0.95em" style="text-anchor: middle; visibility: inherit; font-family: &quot;Helvetica Neue&quot;, sans-serif; font-size: 12px; font-weight: 200;" fill="rgb(50, 49, 63)" stroke="none" stroke-width="1px">20</text><text x="77.71428571428571" y="0" dx="0em" dy="0.95em" style="text-anchor: middle; visibility: hidden; font-family: &quot;Helvetica Neue&quot;, sans-serif; font-size: 12px; font-weight: 200;" fill="rgb(50, 49, 63)" stroke="none" stroke-width="1px">30</text><text x="97.14285714285714" y="0" dx="0em" dy="0.95em" style="text-anchor: middle; visibility: inherit; font-family: &quot;Helvetica Neue&quot;, sans-serif; font-size: 12px; font-weight: 200;" fill="rgb(50, 49, 63)" stroke="none" stroke-width="1px">40</text><text x="116.57142857142857" y="0" dx="0em" dy="0.95em" style="text-anchor: middle; visibility: hidden; font-family: &quot;Helvetica Neue&quot;, sans-serif; font-size: 12px; font-weight: 200;" fill="rgb(50, 49, 63)" stroke="none" stroke-width="1px">50</text><text x="136" y="0" dx="0em" dy="0.95em" style="text-anchor: middle; visibility: inherit; font-family: &quot;Helvetica Neue&quot;, sans-serif; font-size: 12px; font-weight: 200;" fill="rgb(50, 49, 63)" stroke="none" stroke-width="1px">60</text><text x="155.42857142857142" y="0" dx="0em" dy="0.95em" style="text-anchor: middle; visibility: hidden; font-family: &quot;Helvetica Neue&quot;, sans-serif; font-size: 12px; font-weight: 200;" fill="rgb(50, 49, 63)" stroke="none" stroke-width="1px">70</text><text x="174.85714285714286" y="0" dx="0em" dy="0.95em" style="text-anchor: middle; visibility: inherit; font-family: &quot;Helvetica Neue&quot;, sans-serif; font-size: 12px; font-weight: 200;" fill="rgb(50, 49, 63)" stroke="none" stroke-width="1px">80</text><text x="194.28571428571428" y="0" dx="0em" dy="0.95em" style="text-anchor: middle; visibility: hidden; font-family: &quot;Helvetica Neue&quot;, sans-serif; font-size: 12px; font-weight: 200;" fill="rgb(50, 49, 63)" stroke="none" stroke-width="1px">90</text><text x="213.71428571428572" y="0" dx="0em" dy="0.95em" style="text-anchor: middle; visibility: inherit; font-family: &quot;Helvetica Neue&quot;, sans-serif; font-size: 12px; font-weight: 200;" fill="rgb(50, 49, 63)" stroke="none" stroke-width="1px">100</text><text x="233.14285714285714" y="0" dx="0em" dy="0.95em" style="text-anchor: middle; visibility: hidden; font-family: &quot;Helvetica Neue&quot;, sans-serif; font-size: 12px; font-weight: 200;" fill="rgb(50, 49, 63)" stroke="none" stroke-width="1px">110</text><text x="252.57142857142858" y="0" dx="0em" dy="0.95em" style="text-anchor: middle; visibility: inherit; font-family: &quot;Helvetica Neue&quot;, sans-serif; font-size: 12px; font-weight: 200;" fill="rgb(50, 49, 63)" stroke="none" stroke-width="1px">120</text><text x="272" y="0" dx="0em" dy="0.95em" style="text-anchor: middle; visibility: hidden; font-family: &quot;Helvetica Neue&quot;, sans-serif; font-size: 12px; font-weight: 200;" fill="rgb(50, 49, 63)" stroke="none" stroke-width="1px">130</text></g><line x1="0" y1="0" x2="272" y2="0" fill="rgb(0, 0, 0)" stroke="rgb(204, 204, 204)" stroke-width="1px"></line></g></g></g></g></svg>