<svg viewBox="0 0 330 200" xmlns="http://www.w3.org/2000/svg"><g><g><g><g><g><line x1="58" y1="178" x2="53" y2="178" style="visibility: inherit;" fill="rgb(0, 0, 0)" stroke="rgb(204, 204, 204)" stroke-width="1px"></line><line x1="58" y1="158.2222222222222" x2="53" y2="158.2222222222222" style="visibility: inherit;" fill="rgb(0, 0, 0)" stroke="rgb(204, 204, 204)" stroke-width="1px"></line><line x1="58" y1="138.4444444444444" x2="53" y2="138.4444444444444" style="visibility: inherit;" fill="rgb(0, 0, 0)" stroke="rgb(204, 204, 204)" stroke-width="1px"></line><line x1="58" y1="118.6666666666666" x2="53" y2="118.6666666666666" style="visibility: inherit;" fill="rgb(0, 0, 0)" stroke="rgb(204, 204, 204)" stroke-width="1px"></line><line x1="58" y1="98.8888888888888" x2="53" y2="98.8888888888888" style="visibility: inherit;" fill="rgb(0, 0, 0)" stroke="rgb(204, 204, 204)" stroke-width="1px"></line><line x1="58" y1="79.11111111111099" x2="53" y2="79.11111111111099" style="visibility: inherit;" fill="rgb(0, 0, 0)" stroke="rgb(204, 204, 204)" stroke-width="1px"></line><line x1="58" y1="59.33333333333319" x2="53" y2="59.33333333333319" style="visibility: inherit;" fill="rgb(0, 0, 0)" stroke="rgb(204, 204, 204)" stroke-width="1px"></line><line x1="58" y1="39.55555555555537" x2="53" y2="39.55555555555537" style="visibility: inherit;" fill="rgb(0, 0, 0)" stroke="rgb(204, 204, 204)" stroke-width="1px"></line><line x1="58" y1="19.7777777777776" x2="53" y2="19.7777777777776" style="visibility: inherit;" fill="rgb(0, 0, 0)" stroke="rgb(204, 204, 204)" stroke-width="1px"></line><line x1="58" y1="0" x2="53" y2="0" style="visibility: inherit;" fill="rgb(0, 0, 0)" stroke="rgb(204, 204, 204)" stroke-width="1px"></line></g><g transform="translate(48, 0)"><text x="0" y="178" dx="0em" dy="0.3em" style="text-anchor: end; visibility: hidden; font-family: &quot;Helvetica Neue&quot;, sans-serif; font-size: 12px; font-weight: 200;" fill="rgb(50, 49, 63)" stroke="none" stroke-width="1px">0.6</text><text x="0" y="158.2222222222222" dx="0em" dy="0.3em" style="text-anchor: end; visibility: inherit; font-family: &quot;Helvetica Neue&quot;, sans-serif; font-size: 12px; font-weight: 200;" fill="rgb(50, 49, 63)" stroke="none" stroke-width="1px">0.61</text><text x="0" y="138.4444444444444" dx="0em" dy="0.3em" style="text-anchor: end; visibility: hidden; font-family: &quot;Helvetica Neue&quot;, sans-serif; font-size: 12px; font-weight: 200;" fill="rgb(50, 49, 63)" stroke="none" stroke-width="1px">0.62</text><text x="0" y="118.6666666666666" dx="0em" dy="0.3em" style="text-anchor: end; visibility: inherit; font-family: &quot;Helvetica Neue&quot;, sans-serif; font-size: 12px; font-weight: 200;" fill="rgb(50, 49, 63)" stroke="none" stroke-width="1px">0.63</text><text x="0" y="98.8888888888888" dx="0em" dy="0.3em" style="text-anchor: end; visibility: hidden; font-family: &quot;Helvetica Neue&quot;, sans-serif; font-size: 12px; font-weight: 200;" fill="rgb(50, 49, 63)" stroke="none" stroke-width="1px">0.64</text><text x="0" y="79.11111111111099" dx="0em" dy="0.3em" style="text-anchor: end; visibility: inherit; font-family: &quot;Helvetica Neue&quot;, sans-serif; font-size: 12px; font-weight: 200;" fill="rgb(50, 49, 63)" stroke="none" stroke-width="1px">0.65</text><text x="0" y="59.33333333333319" dx="0em" dy="0.3em" style="text-anchor: end; visibility: hidden; font-family: &quot;Helvetica Neue&quot;, sans-serif; font-size: 12px; font-weight: 200;" fill="rgb(50, 49, 63)" stroke="none" stroke-width="1px">0.66</text><text x="0" y="39.55555555555537" dx="0em" dy="0.3em" style="text-anchor: end; visibility: inherit; font-family: &quot;Helvetica Neue&quot;, sans-serif; font-size: 12px; font-weight: 200;" fill="rgb(50, 49, 63)" stroke="none" stroke-width="1px">0.67</text><text x="0" y="19.7777777777776" dx="0em" dy="0.3em" style="text-anchor: end; visibility: hidden; font-family: &quot;Helvetica Neue&quot;, sans-serif; font-size: 12px; font-weight: 200;" fill="rgb(50, 49, 63)" stroke="none" stroke-width="1px">0.68</text><text x="0" y="0" dx="0em" dy="0.3em" style="text-anchor: end; visibility: hidden; font-family: &quot;Helvetica Neue&quot;, sans-serif; font-size: 12px; font-weight: 200;" fill="rgb(50, 49, 63)" stroke="none" stroke-width="1px">0.69</text></g><line x1="58" y1="0" x2="58" y2="178" fill="rgb(0, 0, 0)" stroke="rgb(204, 204, 204)" stroke-width="1px"></line></g></g><g transform="translate(58, 0)" clip-path="url(#clip_0)"><clipPath id="clip_0"><rect width="272" height="178"></rect></clipPath><g><g><g><line x1="0" y1="0" x2="0" y2="178" fill="rgb(0, 0, 0)" stroke="rgb(60, 60, 60)" stroke-width="1px" opacity="0.25"></line><line x1="19.428571428571427" y1="0" x2="19.428571428571427" y2="178" fill="rgb(0, 0, 0)" stroke="rgb(60, 60, 60)" stroke-width="1px" opacity="0.25"></line><line x1="38.857142857142854" y1="0" x2="38.857142857142854" y2="178" fill="rgb(0, 0, 0)" stroke="rgb(60, 60, 60)" stroke-width="1px" opacity="0.25"></line><line x1="58.285714285714285" y1="0" x2="58.285714285714285" y2="178" fill="rgb(0, 0, 0)" stroke="rgb(60, 60, 60)" stroke-width="1px" opacity="0.25"></line><line x1="77.71428571428571" y1="0" x2="77.71428571428571" y2="178" fill="rgb(0, 0, 0)" stroke="rgb(60, 60, 60)" stroke-width="1px" opacity="0.25"></line><line x1="97.14285714285714" y1="0" x2="97.14285714285714" y2="178" fill="rgb(0, 0, 0)" stroke="rgb(60, 60, 60)" stroke-width="1px" opacity="0.25"></line><line x1="116.57142857142857" y1="0" x2="116.57142857142857" y2="178" fill="rgb(0, 0, 0)" stroke="rgb(60, 60, 60)" stroke-width="1px" opacity="0.25"></line><line x1="136" y1="0" x2="136" y2="178" fill="rgb(0, 0, 0)" stroke="rgb(60, 60, 60)" stroke-width="1px" opacity="0.25"></line><line x1="155.42857142857142" y1="0" x2="155.42857142857142" y2="178" fill="rgb(0, 0, 0)" stroke="rgb(60, 60, 60)" stroke-width="1px" opacity="0.25"></line><line x1="174.85714285714286" y1="0" x2="174.85714285714286" y2="178" fill="rgb(0, 0, 0)" stroke="rgb(60, 60, 60)" stroke-width="1px" opacity="0.25"></line><line x1="194.28571428571428" y1="0" x2="194.28571428571428" y2="178" fill="rgb(0, 0, 0)" stroke="rgb(60, 60, 60)" stroke-width="1px" opacity="0.25"></line><line x1="213.71428571428572" y1="0" x2="213.71428571428572" y2="178" fill="rgb(0, 0, 0)" stroke="rgb(60, 60, 60)" stroke-width="1px" opacity="0.25"></line><line x1="233.14285714285714" y1="0" x2="233.14285714285714" y2="178" fill="rgb(0, 0, 0)" stroke="rgb(60, 60, 60)" stroke-width="1px" opacity="0.25"></line><line x1="252.57142857142858" y1="0" x2="252.57142857142858" y2="178" fill="rgb(0, 0, 0)" stroke="rgb(60, 60, 60)" stroke-width="1px" opacity="0.25"></line><line x1="272" y1="0" x2="272" y2="178" fill="rgb(0, 0, 0)" stroke="rgb(60, 60, 60)" stroke-width="1px" opacity="0.25"></line></g><g><line x1="0" y1="178" x2="272" y2="178" fill="rgb(0, 0, 0)" stroke="rgb(60, 60, 60)" stroke-width="1px" opacity="0.25"></line><line x1="0" y1="158.2222222222222" x2="272" y2="158.2222222222222" fill="rgb(0, 0, 0)" stroke="rgb(60, 60, 60)" stroke-width="1px" opacity="0.25"></line><line x1="0" y1="138.4444444444444" x2="272" y2="138.4444444444444" fill="rgb(0, 0, 0)" stroke="rgb(60, 60, 60)" stroke-width="1px" opacity="0.25"></line><line x1="0" y1="118.6666666666666" x2="272" y2="118.6666666666666" fill="rgb(0, 0, 0)" stroke="rgb(60, 60, 60)" stroke-width="1px" opacity="0.25"></line><line x1="0" y1="98.8888888888888" x2="272" y2="98.8888888888888" fill="rgb(0, 0, 0)" stroke="rgb(60, 60, 60)" stroke-width="1px" opacity="0.25"></line><line x1="0" y1="79.11111111111099" x2="272" y2="79.11111111111099" fill="rgb(0, 0, 0)" stroke="rgb(60, 60, 60)" stroke-width="1px" opacity="0.25"></line><line x1="0" y1="59.33333333333319" x2="272" y2="59.33333333333319" fill="rgb(0, 0, 0)" stroke="rgb(60, 60, 60)" stroke-width="1px" opacity="0.25"></line><line x1="0" y1="39.55555555555537" x2="272" y2="39.55555555555537" fill="rgb(0, 0, 0)" stroke="rgb(60, 60, 60)" stroke-width="1px" opacity="0.25"></line><line x1="0" y1="19.7777777777776" x2="272" y2="19.7777777777776" fill="rgb(0, 0, 0)" stroke="rgb(60, 60, 60)" stroke-width="1px" opacity="0.25"></line><line x1="0" y1="0" x2="272" y2="0" fill="rgb(0, 0, 0)" stroke="rgb(60, 60, 60)" stroke-width="1px" opacity="0.25"></line></g></g></g><g><g><line x1="0" y1="1364.666666666667" x2="272" y2="1364.666666666667" fill="rgb(0, 0, 0)" stroke="rgb(153, 153, 153)" stroke-width="1.5px"></line></g></g><g><g><line x1="19.428571428571427" y1="0" x2="19.428571428571427" y2="178" fill="rgb(0, 0, 0)" stroke="rgb(153, 153, 153)" stroke-width="1.5px"></line></g></g><g><g><g><g><g><path stroke="rgb(255, 112, 67)" stroke-width="2px" d="M21.37142857142857,149.4055940839979L23.314285714285713,149.40559408399767L25.25714285714286,149.4055940839979L27.200000000000003,149.4055940839979L29.142857142857142,149.4055940839979L31.085714285714285,149.4055940839979L33.028571428571425,119.98772321184606L34.97142857142857,102.87305204330717L36.91428571428571,83.1616112689304L38.857142857142854,81.05209016541997L40.8,79.79457072724566L42.74285714285714,59.9384931074126L44.68571428571428,67.14038090122261L46.628571428571426,80.99441693245865L48.57142857142857,89.2998870590144L50.51428571428572,94.28066916097772L52.45714285714286,87.73517243414057L54.400000000000006,83.80858354778124L56.34285714285715,90.98491921786832L58.285714285714285,76.22683790267735L60.22857142857143,67.3723344515937L62.17142857142857,62.05975669669466L64.11428571428571,49.340726602082555L66.05714285714285,137.02440083093984L68,132.44541219326481L69.94285714285714,91.5721506237333L71.88571428571429,76.57970098040425L73.82857142857142,105.71007611063669L75.77142857142857,142.25124975911564L77.71428571428571,116.51862303815058L79.65714285714286,101.07905064641194L81.6,72.75240116351557L83.54285714285714,55.75641291660759L85.48571428571428,36.02732014019466L87.42857142857143,33.721365074566194L89.37142857142857,32.33779206055934L91.3142857142857,31.507648261288523L93.25714285714285,21.478061875022917L95.19999999999999,24.99181016293238L97.14285714285714,27.100059130668L99.08571428571427,28.365008509505714L101.02857142857144,29.123978136159025L102.97142857142856,29.579359911917095L104.91428571428573,39.384041899641005L106.85714285714286,45.2668510911881L108.80000000000001,39.26508368442899L110.74285714285715,35.664023240613005L112.6857142857143,43.034839895325206L114.62857142857143,28.394376892489788L116.57142857142857,48.204505007148015L118.51428571428572,21.96472303895166L120.45714285714286,25.283806853470963L122.4,55.869615904331454L124.34285714285714,26.563789577358534L126.28571428571429,28.043246776506265L128.22857142857143,28.930921095994535L130.17142857142858,19.932025613086466L132.1142857142857,33.595641318645846L134.05714285714288,32.262357821277845L136,50.52529356426142L137.94285714285712,42.42014916864699L139.88571428571427,28.02556245667961L141.82857142857145,28.92031050409824L143.77142857142857,38.988612253251006L145.71428571428572,35.49814038204093L147.65714285714284,42.93531018001667L149.60000000000002,47.39761205880234L151.54285714285714,40.54354026537169L153.4857142857143,45.96255011001517L155.42857142857142,49.21395601680115L157.3714285714286,51.16479956087274L159.31428571428572,52.335305687315795L161.25714285714287,53.037609363181375L163.2,53.458991568701194L165.14285714285714,53.71182089201295L167.0857142857143,53.86351848599976L169.02857142857144,44.42308412169015L170.97142857142856,48.29027642380632L172.9142857142857,50.6105918050759L174.85714285714286,52.00278103383761L176.8,52.8380945710946L178.74285714285713,53.33928269344899L180.68571428571428,53.6399955668615L182.6285714285714,53.820423290909105L184.57142857142858,53.928679925337434L186.5142857142857,53.99363390599457L188.45714285714286,54.03260629438881L190.39999999999998,54.0559897274254L192.34285714285716,54.07001978724722L194.28571428571428,35.01548482784014L196.22857142857143,42.645716847496146L198.17142857142855,47.22385605928977L200.11428571428573,49.970739586365994L202.05714285714288,51.61886970261172L204,52.60774777235909L205.94285714285712,53.2010746142076L207.88571428571427,53.55707071931673L209.82857142857145,53.770668382382084L211.77142857142857,53.89882698022133L213.71428571428572,53.975722138924766L215.65714285714284,54.021859234146845L217.60000000000002,54.04954149128021L219.54285714285714,54.06615084556029L221.4857142857143,54.07611645812837L223.42857142857142,54.08209582566917L225.3714285714286,54.085683446193485L227.31428571428572,44.556383097806474L229.25714285714287,48.370255809475935L231.2,41.127126515775956L233.14285714285714,46.31270186025782L235.0857142857143,49.42404706694674L237.02857142857144,51.29085419096002L238.97142857142856,52.410938465368005L240.9142857142857,43.55153610931109L242.85714285714286,38.235894695676876L244.8,35.046509847496424L246.74285714285713,33.132878938588306L248.68571428571428,31.984700393243372L250.6285714285714,40.82724618673828L252.57142857142858,46.132773662835035" style="fill: none;" fill="none"></path></g></g></g></g><g opacity="0.2"><g><g><g><path stroke="rgb(255, 112, 67)" stroke-width="2px" d="M21.37142857142857,149.4055940839979L23.314285714285713,149.4055940839979L25.25714285714286,149.4055940839979L27.200000000000003,149.4055940839979L29.142857142857142,149.4055940839979L31.085714285714285,149.4055940839979L33.028571428571425,77.91969717873458L34.97142857142857,77.91969717873458L36.91428571428571,54.09106487698017L38.857142857142854,77.91969717873458L40.8,77.91969717873458L42.74285714285714,30.262432575225745L44.68571428571428,77.91969717873458L46.628571428571426,101.74832948048902L48.57142857142857,101.74832948048902L50.51428571428572,101.74832948048902L52.45714285714286,77.91969717873458L54.400000000000006,77.91969717873458L56.34285714285715,101.74832948048902L58.285714285714285,54.09106487698017L60.22857142857143,54.09106487698017L62.17142857142857,54.09106487698017L64.11428571428571,30.262432575225745L66.05714285714285,268.5488734775119L68,125.57696178224346L69.94285714285714,30.262432575225745L71.88571428571429,54.09106487698017L73.82857142857142,149.4055940839979L75.77142857142857,197.06297657224863L77.71428571428571,77.91969717873458L79.65714285714286,77.91969717873458L81.6,30.262432575225745L83.54285714285714,30.262432575225745L85.48571428571428,6.433682388729409L87.42857142857143,30.262432575225745L89.37142857142857,30.262432575225745L91.3142857142857,30.262432575225745L93.25714285714285,6.433682388729409L95.19999999999999,30.262432575225745L97.14285714285714,30.262432575225745L99.08571428571427,30.262432575225745L101.02857142857144,30.262432575225745L102.97142857142856,30.262432575225745L104.91428571428573,54.09106487698017L106.85714285714286,54.09106487698017L108.80000000000001,30.262432575225745L110.74285714285715,30.262432575225745L112.6857142857143,54.09106487698017L114.62857142857143,6.433682388729409L116.57142857142857,77.91969717873458L118.51428571428572,-17.394949913025016L120.45714285714286,30.262432575225745L122.4,101.74832948048902L124.34285714285714,-17.394949913025016L126.28571428571429,30.262432575225745L128.22857142857143,30.262432575225745L130.17142857142858,6.433682388729409L132.1142857142857,54.09106487698017L134.05714285714288,30.262432575225745L136,77.91969717873458L137.94285714285712,30.262432575225745L139.88571428571427,6.433682388729409L141.82857142857145,30.262432575225745L143.77142857142857,54.09106487698017L145.71428571428572,30.262432575225745L147.65714285714284,54.09106487698017L149.60000000000002,54.09106487698017L151.54285714285714,30.262432575225745L153.4857142857143,54.09106487698017L155.42857142857142,54.09106487698017L157.3714285714286,54.09106487698017L159.31428571428572,54.09106487698017L161.25714285714287,54.09106487698017L163.2,54.09106487698017L165.14285714285714,54.09106487698017L167.0857142857143,54.09106487698017L169.02857142857144,30.262432575225745L170.97142857142856,54.09106487698017L172.9142857142857,54.09106487698017L174.85714285714286,54.09106487698017L176.8,54.09106487698017L178.74285714285713,54.09106487698017L180.68571428571428,54.09106487698017L182.6285714285714,54.09106487698017L184.57142857142858,54.09106487698017L186.5142857142857,54.09106487698017L188.45714285714286,54.09106487698017L190.39999999999998,54.09106487698017L192.34285714285716,54.09106487698017L194.28571428571428,6.433682388729409L196.22857142857143,54.09106487698017L198.17142857142855,54.09106487698017L200.11428571428573,54.09106487698017L202.05714285714288,54.09106487698017L204,54.09106487698017L205.94285714285712,54.09106487698017L207.88571428571427,54.09106487698017L209.82857142857145,54.09106487698017L211.77142857142857,54.09106487698017L213.71428571428572,54.09106487698017L215.65714285714284,54.09106487698017L217.60000000000002,54.09106487698017L219.54285714285714,54.09106487698017L221.4857142857143,54.09106487698017L223.42857142857142,54.09106487698017L225.3714285714286,54.09106487698017L227.31428571428572,30.262432575225745L229.25714285714287,54.09106487698017L231.2,30.262432575225745L233.14285714285714,54.09106487698017L235.0857142857143,54.09106487698017L237.02857142857144,54.09106487698017L238.97142857142856,54.09106487698017L240.9142857142857,30.262432575225745L242.85714285714286,30.262432575225745L244.8,30.262432575225745L246.74285714285713,30.262432575225745L248.68571428571428,30.262432575225745L250.6285714285714,54.09106487698017L252.57142857142858,54.09106487698017" style="fill: none;" fill="none"></path></g></g></g></g></g></g><g transform="translate(58, 178)" clip-path="url(#clip_1)"><clipPath id="clip_1"><rect width="272" height="22"></rect></clipPath><g><g><line x1="0" y1="0" x2="0" y2="5" style="visibility: inherit;" fill="rgb(0, 0, 0)" stroke="rgb(204, 204, 204)" stroke-width="1px"></line><line x1="19.428571428571427" y1="0" x2="19.428571428571427" y2="5" style="visibility: inherit;" fill="rgb(0, 0, 0)" stroke="rgb(204, 204, 204)" stroke-width="1px"></line><line x1="38.857142857142854" y1="0" x2="38.857142857142854" y2="5" style="visibility: inherit;" fill="rgb(0, 0, 0)" stroke="rgb(204, 204, 204)" stroke-width="1px"></line><line x1="58.285714285714285" y1="0" x2="58.285714285714285" y2="5" style="visibility: inherit;" fill="rgb(0, 0, 0)" stroke="rgb(204, 204, 204)" stroke-width="1px"></line><line x1="77.71428571428571" y1="0" x2="77.71428571428571" y2="5" style="visibility: inherit;" fill="rgb(0, 0, 0)" stroke="rgb(204, 204, 204)" stroke-width="1px"></line><line x1="97.14285714285714" y1="0" x2="97.14285714285714" y2="5" style="visibility: inherit;" fill="rgb(0, 0, 0)" stroke="rgb(204, 204, 204)" stroke-width="1px"></line><line x1="116.57142857142857" y1="0" x2="116.57142857142857" y2="5" style="visibility: inherit;" fill="rgb(0, 0, 0)" stroke="rgb(204, 204, 204)" stroke-width="1px"></line><line x1="136" y1="0" x2="136" y2="5" style="visibility: inherit;" fill="rgb(0, 0, 0)" stroke="rgb(204, 204, 204)" stroke-width="1px"></line><line x1="155.42857142857142" y1="0" x2="155.42857142857142" y2="5" style="visibility: inherit;" fill="rgb(0, 0, 0)" stroke="rgb(204, 204, 204)" stroke-width="1px"></line><line x1="174.85714285714286" y1="0" x2="174.85714285714286" y2="5" style="visibility: inherit;" fill="rgb(0, 0, 0)" stroke="rgb(204, 204, 204)" stroke-width="1px"></line><line x1="194.28571428571428" y1="0" x2="194.28571428571428" y2="5" style="visibility: inherit;" fill="rgb(0, 0, 0)" stroke="rgb(204, 204, 204)" stroke-width="1px"></line><line x1="213.71428571428572" y1="0" x2="213.71428571428572" y2="5" style="visibility: inherit;" fill="rgb(0, 0, 0)" stroke="rgb(204, 204, 204)" stroke-width="1px"></line><line x1="233.14285714285714" y1="0" x2="233.14285714285714" y2="5" style="visibility: inherit;" fill="rgb(0, 0, 0)" stroke="rgb(204, 204, 204)" stroke-width="1px"></line><line x1="252.57142857142858" y1="0" x2="252.57142857142858" y2="5" style="visibility: inherit;" fill="rgb(0, 0, 0)" stroke="rgb(204, 204, 204)" stroke-width="1px"></line><line x1="272" y1="0" x2="272" y2="5" style="visibility: inherit;" fill="rgb(0, 0, 0)" stroke="rgb(204, 204, 204)" stroke-width="1px"></line></g><g transform="translate(0, 8)"><text x="0" y="0" dx="0em" dy="0.95em" style="text-anchor: middle; visibility: hidden; font-family: &quot;Helvetica Neue&quot;, sans-serif; font-size: 12px; font-weight: 200;" fill="rgb(50, 49, 63)" stroke="none" stroke-width="1px">-10</text><text x="19.428571428571427" y="0" dx="0em" dy="0.95em" style="text-anchor: middle; visibility: inherit; font-family: &quot;Helvetica Neue&quot;, sans-serif; font-size: 12px; font-weight: 200;" fill="rgb(50, 49, 63)" stroke="none" stroke-width="1px">0</text><text x="38.857142857142854" y="0" dx="0em" dy="0.95em" style="text-anchor: middle; visibility: hidden; font-family: &quot;Helvetica Neue&quot;, sans-serif; font-size: 12px; font-weight: 200;" fill="rgb(50, 49, 63)" stroke="none" stroke-width="1px">10</text><text x="58.285714285714285" y="0" dx="0em" dy="0.95em" style="text-anchor: middle; visibility: inherit; font-family: &quot;Helvetica Neue&quot;, sans-serif; font-size: 12px; font-weight: 200;" fill="rgb(50, 49, 63)" stroke="none" stroke-width="1px">20</text><text x="77.71428571428571" y="0" dx="0em" dy="0.95em" style="text-anchor: middle; visibility: hidden; font-family: &quot;Helvetica Neue&quot;, sans-serif; font-size: 12px; font-weight: 200;" fill="rgb(50, 49, 63)" stroke="none" stroke-width="1px">30</text><text x="97.14285714285714" y="0" dx="0em" dy="0.95em" style="text-anchor: middle; visibility: inherit; font-family: &quot;Helvetica Neue&quot;, sans-serif; font-size: 12px; font-weight: 200;" fill="rgb(50, 49, 63)" stroke="none" stroke-width="1px">40</text><text x="116.57142857142857" y="0" dx="0em" dy="0.95em" style="text-anchor: middle; visibility: hidden; font-family: &quot;Helvetica Neue&quot;, sans-serif; font-size: 12px; font-weight: 200;" fill="rgb(50, 49, 63)" stroke="none" stroke-width="1px">50</text><text x="136" y="0" dx="0em" dy="0.95em" style="text-anchor: middle; visibility: inherit; font-family: &quot;Helvetica Neue&quot;, sans-serif; font-size: 12px; font-weight: 200;" fill="rgb(50, 49, 63)" stroke="none" stroke-width="1px">60</text><text x="155.42857142857142" y="0" dx="0em" dy="0.95em" style="text-anchor: middle; visibility: hidden; font-family: &quot;Helvetica Neue&quot;, sans-serif; font-size: 12px; font-weight: 200;" fill="rgb(50, 49, 63)" stroke="none" stroke-width="1px">70</text><text x="174.85714285714286" y="0" dx="0em" dy="0.95em" style="text-anchor: middle; visibility: inherit; font-family: &quot;Helvetica Neue&quot;, sans-serif; font-size: 12px; font-weight: 200;" fill="rgb(50, 49, 63)" stroke="none" stroke-width="1px">80</text><text x="194.28571428571428" y="0" dx="0em" dy="0.95em" style="text-anchor: middle; visibility: hidden; font-family: &quot;Helvetica Neue&quot;, sans-serif; font-size: 12px; font-weight: 200;" fill="rgb(50, 49, 63)" stroke="none" stroke-width="1px">90</text><text x="213.71428571428572" y="0" dx="0em" dy="0.95em" style="text-anchor: middle; visibility: inherit; font-family: &quot;Helvetica Neue&quot;, sans-serif; font-size: 12px; font-weight: 200;" fill="rgb(50, 49, 63)" stroke="none" stroke-width="1px">100</text><text x="233.14285714285714" y="0" dx="0em" dy="0.95em" style="text-anchor: middle; visibility: hidden; font-family: &quot;Helvetica Neue&quot;, sans-serif; font-size: 12px; font-weight: 200;" fill="rgb(50, 49, 63)" stroke="none" stroke-width="1px">110</text><text x="252.57142857142858" y="0" dx="0em" dy="0.95em" style="text-anchor: middle; visibility: inherit; font-family: &quot;Helvetica Neue&quot;, sans-serif; font-size: 12px; font-weight: 200;" fill="rgb(50, 49, 63)" stroke="none" stroke-width="1px">120</text><text x="272" y="0" dx="0em" dy="0.95em" style="text-anchor: middle; visibility: hidden; font-family: &quot;Helvetica Neue&quot;, sans-serif; font-size: 12px; font-weight: 200;" fill="rgb(50, 49, 63)" stroke="none" stroke-width="1px">130</text></g><line x1="0" y1="0" x2="272" y2="0" fill="rgb(0, 0, 0)" stroke="rgb(204, 204, 204)" stroke-width="1px"></line></g></g></g></g></svg>