<svg viewBox="0 0 330 200" xmlns="http://www.w3.org/2000/svg"><g><g><g><g><g><line x1="58" y1="178" x2="53" y2="178" style="visibility: inherit;" fill="rgb(0, 0, 0)" stroke="rgb(204, 204, 204)" stroke-width="1px"></line><line x1="58" y1="165.28571428571428" x2="53" y2="165.28571428571428" style="visibility: inherit;" fill="rgb(0, 0, 0)" stroke="rgb(204, 204, 204)" stroke-width="1px"></line><line x1="58" y1="152.57142857142856" x2="53" y2="152.57142857142856" style="visibility: inherit;" fill="rgb(0, 0, 0)" stroke="rgb(204, 204, 204)" stroke-width="1px"></line><line x1="58" y1="139.85714285714283" x2="53" y2="139.85714285714283" style="visibility: inherit;" fill="rgb(0, 0, 0)" stroke="rgb(204, 204, 204)" stroke-width="1px"></line><line x1="58" y1="127.14285714285711" x2="53" y2="127.14285714285711" style="visibility: inherit;" fill="rgb(0, 0, 0)" stroke="rgb(204, 204, 204)" stroke-width="1px"></line><line x1="58" y1="114.42857142857139" x2="53" y2="114.42857142857139" style="visibility: inherit;" fill="rgb(0, 0, 0)" stroke="rgb(204, 204, 204)" stroke-width="1px"></line><line x1="58" y1="101.71428571428565" x2="53" y2="101.71428571428565" style="visibility: inherit;" fill="rgb(0, 0, 0)" stroke="rgb(204, 204, 204)" stroke-width="1px"></line><line x1="58" y1="88.99999999999991" x2="53" y2="88.99999999999991" style="visibility: inherit;" fill="rgb(0, 0, 0)" stroke="rgb(204, 204, 204)" stroke-width="1px"></line><line x1="58" y1="76.2857142857142" x2="53" y2="76.2857142857142" style="visibility: inherit;" fill="rgb(0, 0, 0)" stroke="rgb(204, 204, 204)" stroke-width="1px"></line><line x1="58" y1="63.571428571428484" x2="53" y2="63.571428571428484" style="visibility: inherit;" fill="rgb(0, 0, 0)" stroke="rgb(204, 204, 204)" stroke-width="1px"></line><line x1="58" y1="50.85714285714289" x2="53" y2="50.85714285714289" style="visibility: inherit;" fill="rgb(0, 0, 0)" stroke="rgb(204, 204, 204)" stroke-width="1px"></line><line x1="58" y1="38.14285714285717" x2="53" y2="38.14285714285717" style="visibility: inherit;" fill="rgb(0, 0, 0)" stroke="rgb(204, 204, 204)" stroke-width="1px"></line><line x1="58" y1="25.428571428571445" x2="53" y2="25.428571428571445" style="visibility: inherit;" fill="rgb(0, 0, 0)" stroke="rgb(204, 204, 204)" stroke-width="1px"></line><line x1="58" y1="12.714285714285722" x2="53" y2="12.714285714285722" style="visibility: inherit;" fill="rgb(0, 0, 0)" stroke="rgb(204, 204, 204)" stroke-width="1px"></line><line x1="58" y1="0" x2="53" y2="0" style="visibility: inherit;" fill="rgb(0, 0, 0)" stroke="rgb(204, 204, 204)" stroke-width="1px"></line></g><g transform="translate(48, 0)"><text x="0" y="178" dx="0em" dy="0.3em" style="text-anchor: end; visibility: hidden; font-family: &quot;Helvetica Neue&quot;, sans-serif; font-size: 12px; font-weight: 200;" fill="rgb(50, 49, 63)" stroke="none" stroke-width="1px">0.47</text><text x="0" y="165.28571428571428" dx="0em" dy="0.3em" style="text-anchor: end; visibility: inherit; font-family: &quot;Helvetica Neue&quot;, sans-serif; font-size: 12px; font-weight: 200;" fill="rgb(50, 49, 63)" stroke="none" stroke-width="1px">0.48</text><text x="0" y="152.57142857142856" dx="0em" dy="0.3em" style="text-anchor: end; visibility: hidden; font-family: &quot;Helvetica Neue&quot;, sans-serif; font-size: 12px; font-weight: 200;" fill="rgb(50, 49, 63)" stroke="none" stroke-width="1px">0.49</text><text x="0" y="139.85714285714283" dx="0em" dy="0.3em" style="text-anchor: end; visibility: inherit; font-family: &quot;Helvetica Neue&quot;, sans-serif; font-size: 12px; font-weight: 200;" fill="rgb(50, 49, 63)" stroke="none" stroke-width="1px">0.5</text><text x="0" y="127.14285714285711" dx="0em" dy="0.3em" style="text-anchor: end; visibility: hidden; font-family: &quot;Helvetica Neue&quot;, sans-serif; font-size: 12px; font-weight: 200;" fill="rgb(50, 49, 63)" stroke="none" stroke-width="1px">0.51</text><text x="0" y="114.42857142857139" dx="0em" dy="0.3em" style="text-anchor: end; visibility: inherit; font-family: &quot;Helvetica Neue&quot;, sans-serif; font-size: 12px; font-weight: 200;" fill="rgb(50, 49, 63)" stroke="none" stroke-width="1px">0.52</text><text x="0" y="101.71428571428565" dx="0em" dy="0.3em" style="text-anchor: end; visibility: hidden; font-family: &quot;Helvetica Neue&quot;, sans-serif; font-size: 12px; font-weight: 200;" fill="rgb(50, 49, 63)" stroke="none" stroke-width="1px">0.53</text><text x="0" y="88.99999999999991" dx="0em" dy="0.3em" style="text-anchor: end; visibility: inherit; font-family: &quot;Helvetica Neue&quot;, sans-serif; font-size: 12px; font-weight: 200;" fill="rgb(50, 49, 63)" stroke="none" stroke-width="1px">0.54</text><text x="0" y="76.2857142857142" dx="0em" dy="0.3em" style="text-anchor: end; visibility: hidden; font-family: &quot;Helvetica Neue&quot;, sans-serif; font-size: 12px; font-weight: 200;" fill="rgb(50, 49, 63)" stroke="none" stroke-width="1px">0.55</text><text x="0" y="63.571428571428484" dx="0em" dy="0.3em" style="text-anchor: end; visibility: inherit; font-family: &quot;Helvetica Neue&quot;, sans-serif; font-size: 12px; font-weight: 200;" fill="rgb(50, 49, 63)" stroke="none" stroke-width="1px">0.56</text><text x="0" y="50.85714285714289" dx="0em" dy="0.3em" style="text-anchor: end; visibility: hidden; font-family: &quot;Helvetica Neue&quot;, sans-serif; font-size: 12px; font-weight: 200;" fill="rgb(50, 49, 63)" stroke="none" stroke-width="1px">0.57</text><text x="0" y="38.14285714285717" dx="0em" dy="0.3em" style="text-anchor: end; visibility: inherit; font-family: &quot;Helvetica Neue&quot;, sans-serif; font-size: 12px; font-weight: 200;" fill="rgb(50, 49, 63)" stroke="none" stroke-width="1px">0.58</text><text x="0" y="25.428571428571445" dx="0em" dy="0.3em" style="text-anchor: end; visibility: hidden; font-family: &quot;Helvetica Neue&quot;, sans-serif; font-size: 12px; font-weight: 200;" fill="rgb(50, 49, 63)" stroke="none" stroke-width="1px">0.59</text><text x="0" y="12.714285714285722" dx="0em" dy="0.3em" style="text-anchor: end; visibility: inherit; font-family: &quot;Helvetica Neue&quot;, sans-serif; font-size: 12px; font-weight: 200;" fill="rgb(50, 49, 63)" stroke="none" stroke-width="1px">0.6</text><text x="0" y="0" dx="0em" dy="0.3em" style="text-anchor: end; visibility: hidden; font-family: &quot;Helvetica Neue&quot;, sans-serif; font-size: 12px; font-weight: 200;" fill="rgb(50, 49, 63)" stroke="none" stroke-width="1px">0.61</text></g><line x1="58" y1="0" x2="58" y2="178" fill="rgb(0, 0, 0)" stroke="rgb(204, 204, 204)" stroke-width="1px"></line></g></g><g transform="translate(58, 0)" clip-path="url(#clip_0)"><clipPath id="clip_0"><rect width="272" height="178"></rect></clipPath><g><g><g><line x1="0" y1="0" x2="0" y2="178" fill="rgb(0, 0, 0)" stroke="rgb(60, 60, 60)" stroke-width="1px" opacity="0.25"></line><line x1="19.428571428571427" y1="0" x2="19.428571428571427" y2="178" fill="rgb(0, 0, 0)" stroke="rgb(60, 60, 60)" stroke-width="1px" opacity="0.25"></line><line x1="38.857142857142854" y1="0" x2="38.857142857142854" y2="178" fill="rgb(0, 0, 0)" stroke="rgb(60, 60, 60)" stroke-width="1px" opacity="0.25"></line><line x1="58.285714285714285" y1="0" x2="58.285714285714285" y2="178" fill="rgb(0, 0, 0)" stroke="rgb(60, 60, 60)" stroke-width="1px" opacity="0.25"></line><line x1="77.71428571428571" y1="0" x2="77.71428571428571" y2="178" fill="rgb(0, 0, 0)" stroke="rgb(60, 60, 60)" stroke-width="1px" opacity="0.25"></line><line x1="97.14285714285714" y1="0" x2="97.14285714285714" y2="178" fill="rgb(0, 0, 0)" stroke="rgb(60, 60, 60)" stroke-width="1px" opacity="0.25"></line><line x1="116.57142857142857" y1="0" x2="116.57142857142857" y2="178" fill="rgb(0, 0, 0)" stroke="rgb(60, 60, 60)" stroke-width="1px" opacity="0.25"></line><line x1="136" y1="0" x2="136" y2="178" fill="rgb(0, 0, 0)" stroke="rgb(60, 60, 60)" stroke-width="1px" opacity="0.25"></line><line x1="155.42857142857142" y1="0" x2="155.42857142857142" y2="178" fill="rgb(0, 0, 0)" stroke="rgb(60, 60, 60)" stroke-width="1px" opacity="0.25"></line><line x1="174.85714285714286" y1="0" x2="174.85714285714286" y2="178" fill="rgb(0, 0, 0)" stroke="rgb(60, 60, 60)" stroke-width="1px" opacity="0.25"></line><line x1="194.28571428571428" y1="0" x2="194.28571428571428" y2="178" fill="rgb(0, 0, 0)" stroke="rgb(60, 60, 60)" stroke-width="1px" opacity="0.25"></line><line x1="213.71428571428572" y1="0" x2="213.71428571428572" y2="178" fill="rgb(0, 0, 0)" stroke="rgb(60, 60, 60)" stroke-width="1px" opacity="0.25"></line><line x1="233.14285714285714" y1="0" x2="233.14285714285714" y2="178" fill="rgb(0, 0, 0)" stroke="rgb(60, 60, 60)" stroke-width="1px" opacity="0.25"></line><line x1="252.57142857142858" y1="0" x2="252.57142857142858" y2="178" fill="rgb(0, 0, 0)" stroke="rgb(60, 60, 60)" stroke-width="1px" opacity="0.25"></line><line x1="272" y1="0" x2="272" y2="178" fill="rgb(0, 0, 0)" stroke="rgb(60, 60, 60)" stroke-width="1px" opacity="0.25"></line></g><g><line x1="0" y1="178" x2="272" y2="178" fill="rgb(0, 0, 0)" stroke="rgb(60, 60, 60)" stroke-width="1px" opacity="0.25"></line><line x1="0" y1="165.28571428571428" x2="272" y2="165.28571428571428" fill="rgb(0, 0, 0)" stroke="rgb(60, 60, 60)" stroke-width="1px" opacity="0.25"></line><line x1="0" y1="152.57142857142856" x2="272" y2="152.57142857142856" fill="rgb(0, 0, 0)" stroke="rgb(60, 60, 60)" stroke-width="1px" opacity="0.25"></line><line x1="0" y1="139.85714285714283" x2="272" y2="139.85714285714283" fill="rgb(0, 0, 0)" stroke="rgb(60, 60, 60)" stroke-width="1px" opacity="0.25"></line><line x1="0" y1="127.14285714285711" x2="272" y2="127.14285714285711" fill="rgb(0, 0, 0)" stroke="rgb(60, 60, 60)" stroke-width="1px" opacity="0.25"></line><line x1="0" y1="114.42857142857139" x2="272" y2="114.42857142857139" fill="rgb(0, 0, 0)" stroke="rgb(60, 60, 60)" stroke-width="1px" opacity="0.25"></line><line x1="0" y1="101.71428571428565" x2="272" y2="101.71428571428565" fill="rgb(0, 0, 0)" stroke="rgb(60, 60, 60)" stroke-width="1px" opacity="0.25"></line><line x1="0" y1="88.99999999999991" x2="272" y2="88.99999999999991" fill="rgb(0, 0, 0)" stroke="rgb(60, 60, 60)" stroke-width="1px" opacity="0.25"></line><line x1="0" y1="76.2857142857142" x2="272" y2="76.2857142857142" fill="rgb(0, 0, 0)" stroke="rgb(60, 60, 60)" stroke-width="1px" opacity="0.25"></line><line x1="0" y1="63.571428571428484" x2="272" y2="63.571428571428484" fill="rgb(0, 0, 0)" stroke="rgb(60, 60, 60)" stroke-width="1px" opacity="0.25"></line><line x1="0" y1="50.85714285714289" x2="272" y2="50.85714285714289" fill="rgb(0, 0, 0)" stroke="rgb(60, 60, 60)" stroke-width="1px" opacity="0.25"></line><line x1="0" y1="38.14285714285717" x2="272" y2="38.14285714285717" fill="rgb(0, 0, 0)" stroke="rgb(60, 60, 60)" stroke-width="1px" opacity="0.25"></line><line x1="0" y1="25.428571428571445" x2="272" y2="25.428571428571445" fill="rgb(0, 0, 0)" stroke="rgb(60, 60, 60)" stroke-width="1px" opacity="0.25"></line><line x1="0" y1="12.714285714285722" x2="272" y2="12.714285714285722" fill="rgb(0, 0, 0)" stroke="rgb(60, 60, 60)" stroke-width="1px" opacity="0.25"></line><line x1="0" y1="0" x2="272" y2="0" fill="rgb(0, 0, 0)" stroke="rgb(60, 60, 60)" stroke-width="1px" opacity="0.25"></line></g></g></g><g><g><line x1="0" y1="775.5714285714286" x2="272" y2="775.5714285714286" fill="rgb(0, 0, 0)" stroke="rgb(153, 153, 153)" stroke-width="1.5px"></line></g></g><g><g><line x1="19.428571428571427" y1="0" x2="19.428571428571427" y2="178" fill="rgb(0, 0, 0)" stroke="rgb(153, 153, 153)" stroke-width="1.5px"></line></g></g><g><g><g><g><g><path style="fill: none;" stroke="rgb(255, 112, 67)" stroke-width="2px" d="M21.37142857142857,153.67701533862518L23.314285714285713,231.41382172916613L25.25714285714286,255.2108032772909L27.200000000000003,145.0396117545476L29.142857142857142,100.83351517761263L31.085714285714285,30.229605014752735L33.028571428571425,7.097655382138555L34.97142857142857,-17.60477175598038L36.91428571428571,1.3473963371082505L38.857142857142854,-26.335357282242796L40.8,90.31640803379624L42.74285714285714,148.95600570830314L44.68571428571428,101.03027429574814L46.628571428571426,122.10548612648151L48.57142857142857,184.51499791662363L50.51428571428572,166.64681508206897L52.45714285714286,183.5735562869021L54.400000000000006,72.10050652959588L56.34285714285715,82.61995509568021L58.285714285714285,72.34676064044137L60.22857142857143,55.12694383610719L62.17142857142857,44.79529551686207L64.11428571428571,33.06840090880692L66.05714285714285,37.08827378768126L68,11.860331467364546L69.94285714285714,-14.33230486609645L71.88571428571429,41.815582697428454L73.82857142857142,58.92042129492491L75.77142857142857,47.071513613260976L77.71428571428571,62.073972657094345L79.65714285714286,71.0754459607365L81.6,70.9483797462215L83.54285714285714,65.34419076742128L85.48571428571428,61.98167755141222L87.42857142857143,65.49211877108674L89.37142857142857,73.12633251387997L91.3142857142857,66.65096265555344L93.25714285714285,57.23779175308559L95.19999999999999,62.64578724379243L97.14285714285714,60.36263553052288L99.08571428571427,64.52069350154119L101.02857142857144,55.95963029151149L102.97142857142856,50.82299236813027L104.91428571428573,53.26895860860142L106.85714285714286,60.264487345780395L108.80000000000001,58.93385559468467L110.74285714285715,52.60752755128057L112.6857142857143,65.39557770354075L114.62857142857143,56.48456081671088L116.57142857142857,40.082052699414504L118.51428571428572,52.35234379960063L120.45714285714286,59.714518459674125L122.4,53.07592527049954L124.34285714285714,54.620718349600736L126.28571428571429,50.01964520446418L128.22857142857143,74.89874628035909L130.17142857142858,56.658512970324864L132.1142857142857,56.77027096949439L134.05714285714288,51.309376776402644L136,64.61668723832759L137.94285714285712,61.54517553029592L139.88571428571427,54.17431951288391L141.82857142857145,60.80770388762285L143.77142857142857,53.73183652728031L145.71428571428572,55.01426510366764L147.65714285714284,61.31167124209287L149.60000000000002,54.034216939962334L151.54285714285714,60.72364234386987L153.4857142857143,64.7372975862144L155.42857142857142,61.617541739027985L157.3714285714286,59.74568823071624L159.31428571428572,53.0946271331362L161.25714285714287,60.159888459774066L163.2,53.34314727057094L165.14285714285714,60.309000542234955L167.0857142857143,58.96056351264036L169.02857142857144,63.679450287476584L170.97142857142856,66.51078235237831L172.9142857142857,57.1536836061335L174.85714285714286,62.59532234357255L176.8,65.86030558603589L178.74285714285713,56.76339754632802L180.68571428571428,45.7773037299103L182.6285714285714,61.29744341043151L184.57142857142858,48.49773124837236L186.5142857142857,40.817903951136856L188.45714285714286,47.26590555798151L190.39999999999998,51.134706522088294L192.34285714285716,53.45598710055242L194.28571428571428,43.79285746244494L196.22857142857143,37.994979679580524L198.17142857142855,34.51625300986177L200.11428571428573,32.42901700803054L202.05714285714288,31.176675406931935L204,30.425270446272663L205.94285714285712,29.974427469877128L207.88571428571427,57.34366664700457L209.82857142857145,46.12546519031616L211.77142857142857,50.450442301489105L213.71428571428572,47.51747957559999L215.65714285714284,67.86949791043826L217.60000000000002,63.49686193356246L219.54285714285714,55.34533135484408L221.4857142857143,55.98236200020595L223.42857142857142,50.836631394830135L225.3714285714286,47.74919303160456L227.31428571428572,62.48057699144809L229.25714285714287,49.20761139698246L231.2,46.771781032896L233.14285714285714,39.78233382185107L235.0857142857143,41.116614487817145L237.02857142857144,36.38923389480371L238.97142857142856,39.08075453158875L240.9142857142857,51.75156489884564L242.85714285714286,64.88200011179269L244.8,61.70436325437511L246.74285714285713,48.74188315473856L248.68571428571428,40.96439509495667L250.6285714285714,52.881749236866455L252.57142857142858,60.03216172201229" fill="none"></path></g></g></g></g><g opacity="0.2"><g><g><g><path style="fill: none;" stroke="rgb(255, 112, 67)" stroke-width="2px" d="M21.37142857142857,153.67701533862518L23.314285714285713,278.0559055634907L25.25714285714286,278.0559055634907L27.200000000000003,15.478290523801519L29.142857142857142,43.118035486766246L31.085714285714285,-67.44102014814104L34.97142857142857,-53.621147666658686L36.91428571428571,29.298163005283897L38.857142857142854,-67.44102014814104L42.74285714285714,236.59628811904358L44.68571428571428,29.298163005283897L46.628571428571426,153.67701533862518L48.57142857142857,278.0559055634907L50.51428571428572,139.85714285714283L52.45714285714286,208.95650526455466L54.400000000000006,-95.08076511110579L56.34285714285715,98.39752541269573L58.285714285714285,56.93790796824861L60.22857142857143,29.298163005283897L62.17142857142857,29.298163005283897L64.11428571428571,15.478290523801519L66.05714285714285,43.118035486766246L68,-25.98140270369396L69.94285714285714,-53.621147666658686L71.88571428571429,126.03727037566046L73.82857142857142,84.57765293121336L75.77142857142857,29.298163005283897L77.71428571428571,84.57765293121336L79.65714285714286,84.57765293121336L81.6,70.757780449731L83.54285714285714,56.93790796824861L85.48571428571428,56.93790796824861L87.42857142857143,70.757780449731L89.37142857142857,84.57765293121336L91.3142857142857,56.93790796824861L93.25714285714285,43.118035486766246L95.19999999999999,70.757780449731L97.14285714285714,56.93790796824861L99.08571428571427,70.757780449731L101.02857142857144,43.118035486766246L102.97142857142856,43.118035486766246L104.91428571428573,56.93790796824861L106.85714285714286,70.757780449731L108.80000000000001,56.93790796824861L110.74285714285715,43.118035486766246L112.6857142857143,84.57765293121336L114.62857142857143,43.118035486766246L116.57142857142857,15.478290523801519L118.51428571428572,70.757780449731L120.45714285714286,70.757780449731L122.4,43.118035486766246L124.34285714285714,56.93790796824861L126.28571428571429,43.118035486766246L128.22857142857143,112.21739789417809L130.17142857142858,29.298163005283897L132.1142857142857,56.93790796824861L134.05714285714288,43.118035486766246L136,84.57765293121336L137.94285714285712,56.93790796824861L139.88571428571427,43.118035486766246L141.82857142857145,70.757780449731L143.77142857142857,43.118035486766246L145.71428571428572,56.93790796824861L147.65714285714284,70.757780449731L149.60000000000002,43.118035486766246L151.54285714285714,70.757780449731L153.4857142857143,70.757780449731L155.42857142857142,56.93790796824861L157.3714285714286,56.93790796824861L159.31428571428572,43.118035486766246L161.25714285714287,70.757780449731L163.2,43.118035486766246L165.14285714285714,70.757780449731L167.0857142857143,56.93790796824861L169.02857142857144,70.757780449731L170.97142857142856,70.757780449731L172.9142857142857,43.118035486766246L174.85714285714286,70.757780449731L176.8,70.757780449731L178.74285714285713,43.118035486766246L180.68571428571428,29.298163005283897L182.6285714285714,84.57765293121336L184.57142857142858,29.298163005283897L186.5142857142857,29.298163005283897L188.45714285714286,56.93790796824861L190.39999999999998,56.93790796824861L192.34285714285716,56.93790796824861L194.28571428571428,29.298163005283897L196.22857142857143,29.298163005283897L198.17142857142855,29.298163005283897L200.11428571428573,29.298163005283897L202.05714285714288,29.298163005283897L204,29.298163005283897L205.94285714285712,29.298163005283897L207.88571428571427,98.39752541269573L209.82857142857145,29.298163005283897L211.77142857142857,56.93790796824861L213.71428571428572,43.118035486766246L215.65714285714284,98.39752541269573L217.60000000000002,56.93790796824861L219.54285714285714,43.118035486766246L221.4857142857143,56.93790796824861L223.42857142857142,43.118035486766246L225.3714285714286,43.118035486766246L227.31428571428572,84.57765293121336L229.25714285714287,29.298163005283897L231.2,43.118035486766246L233.14285714285714,29.298163005283897L235.0857142857143,43.118035486766246L237.02857142857144,29.298163005283897L238.97142857142856,43.118035486766246L240.9142857142857,70.757780449731L242.85714285714286,84.57765293121336L244.8,56.93790796824861L246.74285714285713,29.298163005283897L248.68571428571428,29.298163005283897L250.6285714285714,70.757780449731L252.57142857142858,70.757780449731" fill="none"></path></g></g></g></g></g></g><g transform="translate(58, 178)" clip-path="url(#clip_1)"><clipPath id="clip_1"><rect width="272" height="22"></rect></clipPath><g><g><line x1="0" y1="0" x2="0" y2="5" style="visibility: inherit;" fill="rgb(0, 0, 0)" stroke="rgb(204, 204, 204)" stroke-width="1px"></line><line x1="19.428571428571427" y1="0" x2="19.428571428571427" y2="5" style="visibility: inherit;" fill="rgb(0, 0, 0)" stroke="rgb(204, 204, 204)" stroke-width="1px"></line><line x1="38.857142857142854" y1="0" x2="38.857142857142854" y2="5" style="visibility: inherit;" fill="rgb(0, 0, 0)" stroke="rgb(204, 204, 204)" stroke-width="1px"></line><line x1="58.285714285714285" y1="0" x2="58.285714285714285" y2="5" style="visibility: inherit;" fill="rgb(0, 0, 0)" stroke="rgb(204, 204, 204)" stroke-width="1px"></line><line x1="77.71428571428571" y1="0" x2="77.71428571428571" y2="5" style="visibility: inherit;" fill="rgb(0, 0, 0)" stroke="rgb(204, 204, 204)" stroke-width="1px"></line><line x1="97.14285714285714" y1="0" x2="97.14285714285714" y2="5" style="visibility: inherit;" fill="rgb(0, 0, 0)" stroke="rgb(204, 204, 204)" stroke-width="1px"></line><line x1="116.57142857142857" y1="0" x2="116.57142857142857" y2="5" style="visibility: inherit;" fill="rgb(0, 0, 0)" stroke="rgb(204, 204, 204)" stroke-width="1px"></line><line x1="136" y1="0" x2="136" y2="5" style="visibility: inherit;" fill="rgb(0, 0, 0)" stroke="rgb(204, 204, 204)" stroke-width="1px"></line><line x1="155.42857142857142" y1="0" x2="155.42857142857142" y2="5" style="visibility: inherit;" fill="rgb(0, 0, 0)" stroke="rgb(204, 204, 204)" stroke-width="1px"></line><line x1="174.85714285714286" y1="0" x2="174.85714285714286" y2="5" style="visibility: inherit;" fill="rgb(0, 0, 0)" stroke="rgb(204, 204, 204)" stroke-width="1px"></line><line x1="194.28571428571428" y1="0" x2="194.28571428571428" y2="5" style="visibility: inherit;" fill="rgb(0, 0, 0)" stroke="rgb(204, 204, 204)" stroke-width="1px"></line><line x1="213.71428571428572" y1="0" x2="213.71428571428572" y2="5" style="visibility: inherit;" fill="rgb(0, 0, 0)" stroke="rgb(204, 204, 204)" stroke-width="1px"></line><line x1="233.14285714285714" y1="0" x2="233.14285714285714" y2="5" style="visibility: inherit;" fill="rgb(0, 0, 0)" stroke="rgb(204, 204, 204)" stroke-width="1px"></line><line x1="252.57142857142858" y1="0" x2="252.57142857142858" y2="5" style="visibility: inherit;" fill="rgb(0, 0, 0)" stroke="rgb(204, 204, 204)" stroke-width="1px"></line><line x1="272" y1="0" x2="272" y2="5" style="visibility: inherit;" fill="rgb(0, 0, 0)" stroke="rgb(204, 204, 204)" stroke-width="1px"></line></g><g transform="translate(0, 8)"><text x="0" y="0" dx="0em" dy="0.95em" style="text-anchor: middle; visibility: hidden; font-family: &quot;Helvetica Neue&quot;, sans-serif; font-size: 12px; font-weight: 200;" fill="rgb(50, 49, 63)" stroke="none" stroke-width="1px">-10</text><text x="19.428571428571427" y="0" dx="0em" dy="0.95em" style="text-anchor: middle; visibility: inherit; font-family: &quot;Helvetica Neue&quot;, sans-serif; font-size: 12px; font-weight: 200;" fill="rgb(50, 49, 63)" stroke="none" stroke-width="1px">0</text><text x="38.857142857142854" y="0" dx="0em" dy="0.95em" style="text-anchor: middle; visibility: hidden; font-family: &quot;Helvetica Neue&quot;, sans-serif; font-size: 12px; font-weight: 200;" fill="rgb(50, 49, 63)" stroke="none" stroke-width="1px">10</text><text x="58.285714285714285" y="0" dx="0em" dy="0.95em" style="text-anchor: middle; visibility: inherit; font-family: &quot;Helvetica Neue&quot;, sans-serif; font-size: 12px; font-weight: 200;" fill="rgb(50, 49, 63)" stroke="none" stroke-width="1px">20</text><text x="77.71428571428571" y="0" dx="0em" dy="0.95em" style="text-anchor: middle; visibility: hidden; font-family: &quot;Helvetica Neue&quot;, sans-serif; font-size: 12px; font-weight: 200;" fill="rgb(50, 49, 63)" stroke="none" stroke-width="1px">30</text><text x="97.14285714285714" y="0" dx="0em" dy="0.95em" style="text-anchor: middle; visibility: inherit; font-family: &quot;Helvetica Neue&quot;, sans-serif; font-size: 12px; font-weight: 200;" fill="rgb(50, 49, 63)" stroke="none" stroke-width="1px">40</text><text x="116.57142857142857" y="0" dx="0em" dy="0.95em" style="text-anchor: middle; visibility: hidden; font-family: &quot;Helvetica Neue&quot;, sans-serif; font-size: 12px; font-weight: 200;" fill="rgb(50, 49, 63)" stroke="none" stroke-width="1px">50</text><text x="136" y="0" dx="0em" dy="0.95em" style="text-anchor: middle; visibility: inherit; font-family: &quot;Helvetica Neue&quot;, sans-serif; font-size: 12px; font-weight: 200;" fill="rgb(50, 49, 63)" stroke="none" stroke-width="1px">60</text><text x="155.42857142857142" y="0" dx="0em" dy="0.95em" style="text-anchor: middle; visibility: hidden; font-family: &quot;Helvetica Neue&quot;, sans-serif; font-size: 12px; font-weight: 200;" fill="rgb(50, 49, 63)" stroke="none" stroke-width="1px">70</text><text x="174.85714285714286" y="0" dx="0em" dy="0.95em" style="text-anchor: middle; visibility: inherit; font-family: &quot;Helvetica Neue&quot;, sans-serif; font-size: 12px; font-weight: 200;" fill="rgb(50, 49, 63)" stroke="none" stroke-width="1px">80</text><text x="194.28571428571428" y="0" dx="0em" dy="0.95em" style="text-anchor: middle; visibility: hidden; font-family: &quot;Helvetica Neue&quot;, sans-serif; font-size: 12px; font-weight: 200;" fill="rgb(50, 49, 63)" stroke="none" stroke-width="1px">90</text><text x="213.71428571428572" y="0" dx="0em" dy="0.95em" style="text-anchor: middle; visibility: inherit; font-family: &quot;Helvetica Neue&quot;, sans-serif; font-size: 12px; font-weight: 200;" fill="rgb(50, 49, 63)" stroke="none" stroke-width="1px">100</text><text x="233.14285714285714" y="0" dx="0em" dy="0.95em" style="text-anchor: middle; visibility: hidden; font-family: &quot;Helvetica Neue&quot;, sans-serif; font-size: 12px; font-weight: 200;" fill="rgb(50, 49, 63)" stroke="none" stroke-width="1px">110</text><text x="252.57142857142858" y="0" dx="0em" dy="0.95em" style="text-anchor: middle; visibility: inherit; font-family: &quot;Helvetica Neue&quot;, sans-serif; font-size: 12px; font-weight: 200;" fill="rgb(50, 49, 63)" stroke="none" stroke-width="1px">120</text><text x="272" y="0" dx="0em" dy="0.95em" style="text-anchor: middle; visibility: hidden; font-family: &quot;Helvetica Neue&quot;, sans-serif; font-size: 12px; font-weight: 200;" fill="rgb(50, 49, 63)" stroke="none" stroke-width="1px">130</text></g><line x1="0" y1="0" x2="272" y2="0" fill="rgb(0, 0, 0)" stroke="rgb(204, 204, 204)" stroke-width="1px"></line></g></g></g></g></svg>