<svg viewBox="0 0 330 200" xmlns="http://www.w3.org/2000/svg"><g><g><g><g><g><line x1="58" y1="178" x2="53" y2="178" style="visibility: inherit;" fill="rgb(0, 0, 0)" stroke="rgb(204, 204, 204)" stroke-width="1px"></line><line x1="58" y1="158.2222222222222" x2="53" y2="158.2222222222222" style="visibility: inherit;" fill="rgb(0, 0, 0)" stroke="rgb(204, 204, 204)" stroke-width="1px"></line><line x1="58" y1="138.4444444444444" x2="53" y2="138.4444444444444" style="visibility: inherit;" fill="rgb(0, 0, 0)" stroke="rgb(204, 204, 204)" stroke-width="1px"></line><line x1="58" y1="118.6666666666666" x2="53" y2="118.6666666666666" style="visibility: inherit;" fill="rgb(0, 0, 0)" stroke="rgb(204, 204, 204)" stroke-width="1px"></line><line x1="58" y1="98.8888888888888" x2="53" y2="98.8888888888888" style="visibility: inherit;" fill="rgb(0, 0, 0)" stroke="rgb(204, 204, 204)" stroke-width="1px"></line><line x1="58" y1="79.11111111111099" x2="53" y2="79.11111111111099" style="visibility: inherit;" fill="rgb(0, 0, 0)" stroke="rgb(204, 204, 204)" stroke-width="1px"></line><line x1="58" y1="59.33333333333319" x2="53" y2="59.33333333333319" style="visibility: inherit;" fill="rgb(0, 0, 0)" stroke="rgb(204, 204, 204)" stroke-width="1px"></line><line x1="58" y1="39.5555555555556" x2="53" y2="39.5555555555556" style="visibility: inherit;" fill="rgb(0, 0, 0)" stroke="rgb(204, 204, 204)" stroke-width="1px"></line><line x1="58" y1="19.7777777777778" x2="53" y2="19.7777777777778" style="visibility: inherit;" fill="rgb(0, 0, 0)" stroke="rgb(204, 204, 204)" stroke-width="1px"></line><line x1="58" y1="0" x2="53" y2="0" style="visibility: inherit;" fill="rgb(0, 0, 0)" stroke="rgb(204, 204, 204)" stroke-width="1px"></line></g><g transform="translate(48, 0)"><text x="0" y="178" dx="0em" dy="0.3em" style="text-anchor: end; visibility: hidden; font-family: &quot;Helvetica Neue&quot;, sans-serif; font-size: 12px; font-weight: 200;" fill="rgb(50, 49, 63)" stroke="none" stroke-width="1px">0.5</text><text x="0" y="158.2222222222222" dx="0em" dy="0.3em" style="text-anchor: end; visibility: inherit; font-family: &quot;Helvetica Neue&quot;, sans-serif; font-size: 12px; font-weight: 200;" fill="rgb(50, 49, 63)" stroke="none" stroke-width="1px">0.51</text><text x="0" y="138.4444444444444" dx="0em" dy="0.3em" style="text-anchor: end; visibility: hidden; font-family: &quot;Helvetica Neue&quot;, sans-serif; font-size: 12px; font-weight: 200;" fill="rgb(50, 49, 63)" stroke="none" stroke-width="1px">0.52</text><text x="0" y="118.6666666666666" dx="0em" dy="0.3em" style="text-anchor: end; visibility: inherit; font-family: &quot;Helvetica Neue&quot;, sans-serif; font-size: 12px; font-weight: 200;" fill="rgb(50, 49, 63)" stroke="none" stroke-width="1px">0.53</text><text x="0" y="98.8888888888888" dx="0em" dy="0.3em" style="text-anchor: end; visibility: hidden; font-family: &quot;Helvetica Neue&quot;, sans-serif; font-size: 12px; font-weight: 200;" fill="rgb(50, 49, 63)" stroke="none" stroke-width="1px">0.54</text><text x="0" y="79.11111111111099" dx="0em" dy="0.3em" style="text-anchor: end; visibility: inherit; font-family: &quot;Helvetica Neue&quot;, sans-serif; font-size: 12px; font-weight: 200;" fill="rgb(50, 49, 63)" stroke="none" stroke-width="1px">0.55</text><text x="0" y="59.33333333333319" dx="0em" dy="0.3em" style="text-anchor: end; visibility: hidden; font-family: &quot;Helvetica Neue&quot;, sans-serif; font-size: 12px; font-weight: 200;" fill="rgb(50, 49, 63)" stroke="none" stroke-width="1px">0.56</text><text x="0" y="39.5555555555556" dx="0em" dy="0.3em" style="text-anchor: end; visibility: inherit; font-family: &quot;Helvetica Neue&quot;, sans-serif; font-size: 12px; font-weight: 200;" fill="rgb(50, 49, 63)" stroke="none" stroke-width="1px">0.57</text><text x="0" y="19.7777777777778" dx="0em" dy="0.3em" style="text-anchor: end; visibility: hidden; font-family: &quot;Helvetica Neue&quot;, sans-serif; font-size: 12px; font-weight: 200;" fill="rgb(50, 49, 63)" stroke="none" stroke-width="1px">0.58</text><text x="0" y="0" dx="0em" dy="0.3em" style="text-anchor: end; visibility: hidden; font-family: &quot;Helvetica Neue&quot;, sans-serif; font-size: 12px; font-weight: 200;" fill="rgb(50, 49, 63)" stroke="none" stroke-width="1px">0.59</text></g><line x1="58" y1="0" x2="58" y2="178" fill="rgb(0, 0, 0)" stroke="rgb(204, 204, 204)" stroke-width="1px"></line></g></g><g transform="translate(58, 0)" clip-path="url(#clip_0)"><clipPath id="clip_0"><rect width="272" height="178"></rect></clipPath><g><g><g><line x1="0" y1="0" x2="0" y2="178" fill="rgb(0, 0, 0)" stroke="rgb(60, 60, 60)" stroke-width="1px" opacity="0.25"></line><line x1="19.428571428571427" y1="0" x2="19.428571428571427" y2="178" fill="rgb(0, 0, 0)" stroke="rgb(60, 60, 60)" stroke-width="1px" opacity="0.25"></line><line x1="38.857142857142854" y1="0" x2="38.857142857142854" y2="178" fill="rgb(0, 0, 0)" stroke="rgb(60, 60, 60)" stroke-width="1px" opacity="0.25"></line><line x1="58.285714285714285" y1="0" x2="58.285714285714285" y2="178" fill="rgb(0, 0, 0)" stroke="rgb(60, 60, 60)" stroke-width="1px" opacity="0.25"></line><line x1="77.71428571428571" y1="0" x2="77.71428571428571" y2="178" fill="rgb(0, 0, 0)" stroke="rgb(60, 60, 60)" stroke-width="1px" opacity="0.25"></line><line x1="97.14285714285714" y1="0" x2="97.14285714285714" y2="178" fill="rgb(0, 0, 0)" stroke="rgb(60, 60, 60)" stroke-width="1px" opacity="0.25"></line><line x1="116.57142857142857" y1="0" x2="116.57142857142857" y2="178" fill="rgb(0, 0, 0)" stroke="rgb(60, 60, 60)" stroke-width="1px" opacity="0.25"></line><line x1="136" y1="0" x2="136" y2="178" fill="rgb(0, 0, 0)" stroke="rgb(60, 60, 60)" stroke-width="1px" opacity="0.25"></line><line x1="155.42857142857142" y1="0" x2="155.42857142857142" y2="178" fill="rgb(0, 0, 0)" stroke="rgb(60, 60, 60)" stroke-width="1px" opacity="0.25"></line><line x1="174.85714285714286" y1="0" x2="174.85714285714286" y2="178" fill="rgb(0, 0, 0)" stroke="rgb(60, 60, 60)" stroke-width="1px" opacity="0.25"></line><line x1="194.28571428571428" y1="0" x2="194.28571428571428" y2="178" fill="rgb(0, 0, 0)" stroke="rgb(60, 60, 60)" stroke-width="1px" opacity="0.25"></line><line x1="213.71428571428572" y1="0" x2="213.71428571428572" y2="178" fill="rgb(0, 0, 0)" stroke="rgb(60, 60, 60)" stroke-width="1px" opacity="0.25"></line><line x1="233.14285714285714" y1="0" x2="233.14285714285714" y2="178" fill="rgb(0, 0, 0)" stroke="rgb(60, 60, 60)" stroke-width="1px" opacity="0.25"></line><line x1="252.57142857142858" y1="0" x2="252.57142857142858" y2="178" fill="rgb(0, 0, 0)" stroke="rgb(60, 60, 60)" stroke-width="1px" opacity="0.25"></line><line x1="272" y1="0" x2="272" y2="178" fill="rgb(0, 0, 0)" stroke="rgb(60, 60, 60)" stroke-width="1px" opacity="0.25"></line></g><g><line x1="0" y1="178" x2="272" y2="178" fill="rgb(0, 0, 0)" stroke="rgb(60, 60, 60)" stroke-width="1px" opacity="0.25"></line><line x1="0" y1="158.2222222222222" x2="272" y2="158.2222222222222" fill="rgb(0, 0, 0)" stroke="rgb(60, 60, 60)" stroke-width="1px" opacity="0.25"></line><line x1="0" y1="138.4444444444444" x2="272" y2="138.4444444444444" fill="rgb(0, 0, 0)" stroke="rgb(60, 60, 60)" stroke-width="1px" opacity="0.25"></line><line x1="0" y1="118.6666666666666" x2="272" y2="118.6666666666666" fill="rgb(0, 0, 0)" stroke="rgb(60, 60, 60)" stroke-width="1px" opacity="0.25"></line><line x1="0" y1="98.8888888888888" x2="272" y2="98.8888888888888" fill="rgb(0, 0, 0)" stroke="rgb(60, 60, 60)" stroke-width="1px" opacity="0.25"></line><line x1="0" y1="79.11111111111099" x2="272" y2="79.11111111111099" fill="rgb(0, 0, 0)" stroke="rgb(60, 60, 60)" stroke-width="1px" opacity="0.25"></line><line x1="0" y1="59.33333333333319" x2="272" y2="59.33333333333319" fill="rgb(0, 0, 0)" stroke="rgb(60, 60, 60)" stroke-width="1px" opacity="0.25"></line><line x1="0" y1="39.5555555555556" x2="272" y2="39.5555555555556" fill="rgb(0, 0, 0)" stroke="rgb(60, 60, 60)" stroke-width="1px" opacity="0.25"></line><line x1="0" y1="19.7777777777778" x2="272" y2="19.7777777777778" fill="rgb(0, 0, 0)" stroke="rgb(60, 60, 60)" stroke-width="1px" opacity="0.25"></line><line x1="0" y1="0" x2="272" y2="0" fill="rgb(0, 0, 0)" stroke="rgb(60, 60, 60)" stroke-width="1px" opacity="0.25"></line></g></g></g><g><g><line x1="0" y1="1166.8888888888891" x2="272" y2="1166.8888888888891" fill="rgb(0, 0, 0)" stroke="rgb(153, 153, 153)" stroke-width="1.5px"></line></g></g><g><g><line x1="19.428571428571427" y1="0" x2="19.428571428571427" y2="178" fill="rgb(0, 0, 0)" stroke="rgb(153, 153, 153)" stroke-width="1.5px"></line></g></g><g><g><g><g><g><path stroke="rgb(255, 112, 67)" stroke-width="2px" d="M21.37142857142857,328.4831148518457L23.314285714285713,32.891287369860265L25.25714285714286,161.76710864962357L27.200000000000003,40.794792961353494L29.142857142857142,109.62840957060318L31.085714285714285,39.096982030225206L33.028571428571425,105.10502369966872L34.97142857142857,47.3018247796721L36.91428571428571,169.60591602593342L38.857142857142854,86.47054415023683L40.8,19.651480545572184L42.74285714285714,5.56894782256424L44.68571428571428,143.5138119666991L46.628571428571426,62.65557386881855L48.57142857142857,31.38735657872573L50.51428571428572,81.44750469896256L52.45714285714286,51.271140838988515L54.400000000000006,136.36745394628784L56.34285714285715,144.42193140894614L58.285714285714285,63.26084203853591L60.22857142857143,126.35595286996508L62.17142857142857,86.81982897699007L64.11428571428571,28.70208898402379L66.05714285714285,140.01599501263192L68,129.41247156268935L69.94285714285714,88.65419104764455L71.88571428571429,38.40214553354491L73.82857142857142,8.250951141895627L75.77142857142857,33.15542103007351L77.71428571428571,5.10292875381262L79.65714285714286,39.865634798341546L81.6,43.525190572722465L83.54285714285714,88.71608473533165L85.48571428571428,64.23642777603825L87.42857142857143,101.14282553381436L89.37142857142857,88.89053636263483L91.3142857142857,107.33625839922368L93.25714285714285,101.20562795174703L95.19999999999999,131.92337683948494L97.14285714285714,150.35402612832812L99.08571428571427,161.41241568586608L101.02857142857144,133.65132233313727L102.97142857142856,134.1927298675273L104.91428571428573,108.72047908482503L106.85714285714286,110.63519215232695L108.80000000000001,85.9869246923247L110.74285714285715,105.59409128361703L112.6857142857143,82.96226417212783L114.62857142857143,77.98219967193118L116.57142857142857,83.59319273818119L118.51428571428572,78.36075681160474L120.45714285714286,109.61742232079801L122.4,111.17335809371447L124.34285714285714,103.50788779119776L126.28571428571429,98.90860560969296L128.22857142857143,104.74806806705088L130.17142857142858,99.65271377520654L132.1142857142857,79.397437667587L134.05714285714288,75.84330376927335L136,73.71082343028543L137.94285714285712,98.22843052566047L139.88571428571427,104.33996301662937L141.82857142857145,90.80881897869885L143.77142857142857,82.69013255594082L145.71428571428572,77.818920702286L147.65714285714284,66.29716182383726L149.60000000000002,67.98313826302383L151.54285714285714,68.99472412653584L153.4857142857143,61.0026438783874L155.42857142857142,56.207395729498145L157.3714285714286,53.33024684016465L159.31428571428572,60.20298927282016L161.25714285714287,55.72760296615776L163.2,53.04237118216068L165.14285714285714,51.4312321117623L167.0857142857143,50.4645486695231L169.02857142857144,58.483570370435444L170.97142857142856,46.09691985847138L172.9142857142857,47.263961317548535L174.85714285714286,39.365154426739224L176.8,43.22490205850943L178.74285714285713,36.94171887131577L180.68571428571428,33.171808958999634L182.6285714285714,30.90986301161007L184.57142857142858,29.55269544317605L186.5142857142857,28.738394902115743L188.45714285714286,36.84884634373515L190.39999999999998,33.11608544245138L192.34285714285716,48.07449243419234L194.28571428571428,48.45050486298109L196.22857142857143,48.676112320254504L198.17142857142855,66.00954032712981L200.11428571428573,67.81056536499935L202.05714285714288,60.2921486214655L204,72.97916210785642L205.94285714285712,71.99233843343545L207.88571428571427,62.801212462527076L209.82857142857145,57.28653687998204L211.77142857142857,45.37869976419941L213.71428571428572,46.833029260985455L215.65714285714284,56.30465872531272L217.60000000000002,53.388604637653344L219.54285714285714,43.039940418802246L221.4857142857143,54.028805420002755L223.42857142857142,52.02309265446749L225.3714285714286,68.01772852765761L227.31428571428572,51.81741475280481L229.25714285714287,50.69625825414877L231.2,58.62259612121072L233.14285714285714,63.37839884144789L235.0857142857143,57.63284870733463L237.02857142857144,45.58648686061093L238.97142857142856,46.95770151883232L240.9142857142857,56.37946208002084L242.85714285714286,53.4334866504784L244.8,51.66590139275293L246.74285714285713,50.60535023811765L248.68571428571428,49.96901954533644L250.6285714285714,49.587221129667626L252.57142857142858,49.35814208026633" style="fill: none;" fill="none"></path></g></g></g></g><g opacity="0.2"><g><g><g><path stroke="rgb(255, 112, 67)" stroke-width="2px" d="M48.57142857142857,-15.478214740753259L50.51428571428572,156.50242058436075L52.45714285714286,6.01936467488602L54.400000000000006,263.990317662557L56.34285714285715,156.50242058436075L58.285714285714285,-58.47337357203176L60.22857142857143,220.9951588312785L62.17142857142857,27.51694409052527L64.11428571428571,-58.47337357203176L66.05714285714285,306.9855354362064L68,113.50726175308226L69.94285714285714,27.51694409052527L71.88571428571429,-36.97579415639248L73.82857142857142,-36.97579415639248L75.77142857142857,70.51210292180376L77.71428571428571,-36.97579415639248L79.65714285714286,92.00968233744301L81.6,49.01452350616452L83.54285714285714,156.50242058436075L85.48571428571428,27.51694409052527L87.42857142857143,156.50242058436075L89.37142857142857,70.51210292180376L91.3142857142857,135.0048411687215L93.25714285714285,92.00968233744301L95.19999999999999,178L97.14285714285714,178L99.08571428571427,178L101.02857142857144,92.00968233744301L102.97142857142856,135.0048411687215L104.91428571428573,70.51210292180376L106.85714285714286,113.50726175308226L108.80000000000001,49.01452350616452L110.74285714285715,135.0048411687215L112.6857142857143,49.01452350616452L114.62857142857143,70.51210292180376L116.57142857142857,92.00968233744301L118.51428571428572,70.51210292180376L120.45714285714286,156.50242058436075L122.4,113.50726175308226L124.34285714285714,92.00968233744301L126.28571428571429,92.00968233744301L128.22857142857143,113.50726175308226L130.17142857142858,92.00968233744301L132.1142857142857,49.01452350616452L134.05714285714288,70.51210292180376L136,70.51210292180376L137.94285714285712,135.0048411687215L139.88571428571427,113.50726175308226L141.82857142857145,70.51210292180376L143.77142857142857,70.51210292180376L145.71428571428572,70.51210292180376L147.65714285714284,49.01452350616452L149.60000000000002,70.51210292180376L151.54285714285714,70.51210292180376L153.4857142857143,49.01452350616452L155.42857142857142,49.01452350616452L157.3714285714286,49.01452350616452L159.31428571428572,70.51210292180376L161.25714285714287,49.01452350616452L163.2,49.01452350616452L165.14285714285714,49.01452350616452L167.0857142857143,49.01452350616452L169.02857142857144,70.51210292180376L170.97142857142856,27.51694409052527L172.9142857142857,49.01452350616452L174.85714285714286,27.51694409052527L176.8,49.01452350616452L178.74285714285713,27.51694409052527L180.68571428571428,27.51694409052527L182.6285714285714,27.51694409052527L184.57142857142858,27.51694409052527L186.5142857142857,27.51694409052527L188.45714285714286,49.01452350616452L190.39999999999998,27.51694409052527L192.34285714285716,70.51210292180376L194.28571428571428,49.01452350616452L196.22857142857143,49.01452350616452L198.17142857142855,92.00968233744301L200.11428571428573,70.51210292180376L202.05714285714288,49.01452350616452L204,92.00968233744301L205.94285714285712,70.51210292180376L207.88571428571427,49.01452350616452L209.82857142857145,49.01452350616452L211.77142857142857,27.51694409052527L213.71428571428572,49.01452350616452L215.65714285714284,70.51210292180376L217.60000000000002,49.01452350616452L219.54285714285714,27.51694409052527L221.4857142857143,70.51210292180376L223.42857142857142,49.01452350616452L225.3714285714286,92.00968233744301L227.31428571428572,27.51694409052527L229.25714285714287,49.01452350616452L231.2,70.51210292180376L233.14285714285714,70.51210292180376L235.0857142857143,49.01452350616452L237.02857142857144,27.51694409052527L238.97142857142856,49.01452350616452L240.9142857142857,70.51210292180376L242.85714285714286,49.01452350616452L244.8,49.01452350616452L246.74285714285713,49.01452350616452L248.68571428571428,49.01452350616452L250.6285714285714,49.01452350616452L252.57142857142858,49.01452350616452" style="fill: none;" fill="none"></path></g></g></g></g></g></g><g transform="translate(58, 178)" clip-path="url(#clip_1)"><clipPath id="clip_1"><rect width="272" height="22"></rect></clipPath><g><g><line x1="0" y1="0" x2="0" y2="5" style="visibility: inherit;" fill="rgb(0, 0, 0)" stroke="rgb(204, 204, 204)" stroke-width="1px"></line><line x1="19.428571428571427" y1="0" x2="19.428571428571427" y2="5" style="visibility: inherit;" fill="rgb(0, 0, 0)" stroke="rgb(204, 204, 204)" stroke-width="1px"></line><line x1="38.857142857142854" y1="0" x2="38.857142857142854" y2="5" style="visibility: inherit;" fill="rgb(0, 0, 0)" stroke="rgb(204, 204, 204)" stroke-width="1px"></line><line x1="58.285714285714285" y1="0" x2="58.285714285714285" y2="5" style="visibility: inherit;" fill="rgb(0, 0, 0)" stroke="rgb(204, 204, 204)" stroke-width="1px"></line><line x1="77.71428571428571" y1="0" x2="77.71428571428571" y2="5" style="visibility: inherit;" fill="rgb(0, 0, 0)" stroke="rgb(204, 204, 204)" stroke-width="1px"></line><line x1="97.14285714285714" y1="0" x2="97.14285714285714" y2="5" style="visibility: inherit;" fill="rgb(0, 0, 0)" stroke="rgb(204, 204, 204)" stroke-width="1px"></line><line x1="116.57142857142857" y1="0" x2="116.57142857142857" y2="5" style="visibility: inherit;" fill="rgb(0, 0, 0)" stroke="rgb(204, 204, 204)" stroke-width="1px"></line><line x1="136" y1="0" x2="136" y2="5" style="visibility: inherit;" fill="rgb(0, 0, 0)" stroke="rgb(204, 204, 204)" stroke-width="1px"></line><line x1="155.42857142857142" y1="0" x2="155.42857142857142" y2="5" style="visibility: inherit;" fill="rgb(0, 0, 0)" stroke="rgb(204, 204, 204)" stroke-width="1px"></line><line x1="174.85714285714286" y1="0" x2="174.85714285714286" y2="5" style="visibility: inherit;" fill="rgb(0, 0, 0)" stroke="rgb(204, 204, 204)" stroke-width="1px"></line><line x1="194.28571428571428" y1="0" x2="194.28571428571428" y2="5" style="visibility: inherit;" fill="rgb(0, 0, 0)" stroke="rgb(204, 204, 204)" stroke-width="1px"></line><line x1="213.71428571428572" y1="0" x2="213.71428571428572" y2="5" style="visibility: inherit;" fill="rgb(0, 0, 0)" stroke="rgb(204, 204, 204)" stroke-width="1px"></line><line x1="233.14285714285714" y1="0" x2="233.14285714285714" y2="5" style="visibility: inherit;" fill="rgb(0, 0, 0)" stroke="rgb(204, 204, 204)" stroke-width="1px"></line><line x1="252.57142857142858" y1="0" x2="252.57142857142858" y2="5" style="visibility: inherit;" fill="rgb(0, 0, 0)" stroke="rgb(204, 204, 204)" stroke-width="1px"></line><line x1="272" y1="0" x2="272" y2="5" style="visibility: inherit;" fill="rgb(0, 0, 0)" stroke="rgb(204, 204, 204)" stroke-width="1px"></line></g><g transform="translate(0, 8)"><text x="0" y="0" dx="0em" dy="0.95em" style="text-anchor: middle; visibility: hidden; font-family: &quot;Helvetica Neue&quot;, sans-serif; font-size: 12px; font-weight: 200;" fill="rgb(50, 49, 63)" stroke="none" stroke-width="1px">-10</text><text x="19.428571428571427" y="0" dx="0em" dy="0.95em" style="text-anchor: middle; visibility: inherit; font-family: &quot;Helvetica Neue&quot;, sans-serif; font-size: 12px; font-weight: 200;" fill="rgb(50, 49, 63)" stroke="none" stroke-width="1px">0</text><text x="38.857142857142854" y="0" dx="0em" dy="0.95em" style="text-anchor: middle; visibility: hidden; font-family: &quot;Helvetica Neue&quot;, sans-serif; font-size: 12px; font-weight: 200;" fill="rgb(50, 49, 63)" stroke="none" stroke-width="1px">10</text><text x="58.285714285714285" y="0" dx="0em" dy="0.95em" style="text-anchor: middle; visibility: inherit; font-family: &quot;Helvetica Neue&quot;, sans-serif; font-size: 12px; font-weight: 200;" fill="rgb(50, 49, 63)" stroke="none" stroke-width="1px">20</text><text x="77.71428571428571" y="0" dx="0em" dy="0.95em" style="text-anchor: middle; visibility: hidden; font-family: &quot;Helvetica Neue&quot;, sans-serif; font-size: 12px; font-weight: 200;" fill="rgb(50, 49, 63)" stroke="none" stroke-width="1px">30</text><text x="97.14285714285714" y="0" dx="0em" dy="0.95em" style="text-anchor: middle; visibility: inherit; font-family: &quot;Helvetica Neue&quot;, sans-serif; font-size: 12px; font-weight: 200;" fill="rgb(50, 49, 63)" stroke="none" stroke-width="1px">40</text><text x="116.57142857142857" y="0" dx="0em" dy="0.95em" style="text-anchor: middle; visibility: hidden; font-family: &quot;Helvetica Neue&quot;, sans-serif; font-size: 12px; font-weight: 200;" fill="rgb(50, 49, 63)" stroke="none" stroke-width="1px">50</text><text x="136" y="0" dx="0em" dy="0.95em" style="text-anchor: middle; visibility: inherit; font-family: &quot;Helvetica Neue&quot;, sans-serif; font-size: 12px; font-weight: 200;" fill="rgb(50, 49, 63)" stroke="none" stroke-width="1px">60</text><text x="155.42857142857142" y="0" dx="0em" dy="0.95em" style="text-anchor: middle; visibility: hidden; font-family: &quot;Helvetica Neue&quot;, sans-serif; font-size: 12px; font-weight: 200;" fill="rgb(50, 49, 63)" stroke="none" stroke-width="1px">70</text><text x="174.85714285714286" y="0" dx="0em" dy="0.95em" style="text-anchor: middle; visibility: inherit; font-family: &quot;Helvetica Neue&quot;, sans-serif; font-size: 12px; font-weight: 200;" fill="rgb(50, 49, 63)" stroke="none" stroke-width="1px">80</text><text x="194.28571428571428" y="0" dx="0em" dy="0.95em" style="text-anchor: middle; visibility: hidden; font-family: &quot;Helvetica Neue&quot;, sans-serif; font-size: 12px; font-weight: 200;" fill="rgb(50, 49, 63)" stroke="none" stroke-width="1px">90</text><text x="213.71428571428572" y="0" dx="0em" dy="0.95em" style="text-anchor: middle; visibility: inherit; font-family: &quot;Helvetica Neue&quot;, sans-serif; font-size: 12px; font-weight: 200;" fill="rgb(50, 49, 63)" stroke="none" stroke-width="1px">100</text><text x="233.14285714285714" y="0" dx="0em" dy="0.95em" style="text-anchor: middle; visibility: hidden; font-family: &quot;Helvetica Neue&quot;, sans-serif; font-size: 12px; font-weight: 200;" fill="rgb(50, 49, 63)" stroke="none" stroke-width="1px">110</text><text x="252.57142857142858" y="0" dx="0em" dy="0.95em" style="text-anchor: middle; visibility: inherit; font-family: &quot;Helvetica Neue&quot;, sans-serif; font-size: 12px; font-weight: 200;" fill="rgb(50, 49, 63)" stroke="none" stroke-width="1px">120</text><text x="272" y="0" dx="0em" dy="0.95em" style="text-anchor: middle; visibility: hidden; font-family: &quot;Helvetica Neue&quot;, sans-serif; font-size: 12px; font-weight: 200;" fill="rgb(50, 49, 63)" stroke="none" stroke-width="1px">130</text></g><line x1="0" y1="0" x2="272" y2="0" fill="rgb(0, 0, 0)" stroke="rgb(204, 204, 204)" stroke-width="1px"></line></g></g></g></g></svg>