<svg viewBox="0 0 330 200" xmlns="http://www.w3.org/2000/svg"><g><g><g><g><g><line x1="58" y1="178" x2="53" y2="178" style="visibility: inherit;" fill="rgb(0, 0, 0)" stroke="rgb(204, 204, 204)" stroke-width="1px"></line><line x1="58" y1="158.2222222222222" x2="53" y2="158.2222222222222" style="visibility: inherit;" fill="rgb(0, 0, 0)" stroke="rgb(204, 204, 204)" stroke-width="1px"></line><line x1="58" y1="138.4444444444444" x2="53" y2="138.4444444444444" style="visibility: inherit;" fill="rgb(0, 0, 0)" stroke="rgb(204, 204, 204)" stroke-width="1px"></line><line x1="58" y1="118.6666666666666" x2="53" y2="118.6666666666666" style="visibility: inherit;" fill="rgb(0, 0, 0)" stroke="rgb(204, 204, 204)" stroke-width="1px"></line><line x1="58" y1="98.88888888888901" x2="53" y2="98.88888888888901" style="visibility: inherit;" fill="rgb(0, 0, 0)" stroke="rgb(204, 204, 204)" stroke-width="1px"></line><line x1="58" y1="79.1111111111112" x2="53" y2="79.1111111111112" style="visibility: inherit;" fill="rgb(0, 0, 0)" stroke="rgb(204, 204, 204)" stroke-width="1px"></line><line x1="58" y1="59.3333333333334" x2="53" y2="59.3333333333334" style="visibility: inherit;" fill="rgb(0, 0, 0)" stroke="rgb(204, 204, 204)" stroke-width="1px"></line><line x1="58" y1="39.5555555555556" x2="53" y2="39.5555555555556" style="visibility: inherit;" fill="rgb(0, 0, 0)" stroke="rgb(204, 204, 204)" stroke-width="1px"></line><line x1="58" y1="19.7777777777778" x2="53" y2="19.7777777777778" style="visibility: inherit;" fill="rgb(0, 0, 0)" stroke="rgb(204, 204, 204)" stroke-width="1px"></line><line x1="58" y1="0" x2="53" y2="0" style="visibility: inherit;" fill="rgb(0, 0, 0)" stroke="rgb(204, 204, 204)" stroke-width="1px"></line></g><g transform="translate(48, 0)"><text x="0" y="178" dx="0em" dy="0.3em" style="text-anchor: end; visibility: hidden; font-family: &quot;Helvetica Neue&quot;, sans-serif; font-size: 12px; font-weight: 200;" fill="rgb(50, 49, 63)" stroke="none" stroke-width="1px">0.53</text><text x="0" y="158.2222222222222" dx="0em" dy="0.3em" style="text-anchor: end; visibility: inherit; font-family: &quot;Helvetica Neue&quot;, sans-serif; font-size: 12px; font-weight: 200;" fill="rgb(50, 49, 63)" stroke="none" stroke-width="1px">0.54</text><text x="0" y="138.4444444444444" dx="0em" dy="0.3em" style="text-anchor: end; visibility: hidden; font-family: &quot;Helvetica Neue&quot;, sans-serif; font-size: 12px; font-weight: 200;" fill="rgb(50, 49, 63)" stroke="none" stroke-width="1px">0.55</text><text x="0" y="118.6666666666666" dx="0em" dy="0.3em" style="text-anchor: end; visibility: inherit; font-family: &quot;Helvetica Neue&quot;, sans-serif; font-size: 12px; font-weight: 200;" fill="rgb(50, 49, 63)" stroke="none" stroke-width="1px">0.56</text><text x="0" y="98.88888888888901" dx="0em" dy="0.3em" style="text-anchor: end; visibility: hidden; font-family: &quot;Helvetica Neue&quot;, sans-serif; font-size: 12px; font-weight: 200;" fill="rgb(50, 49, 63)" stroke="none" stroke-width="1px">0.57</text><text x="0" y="79.1111111111112" dx="0em" dy="0.3em" style="text-anchor: end; visibility: inherit; font-family: &quot;Helvetica Neue&quot;, sans-serif; font-size: 12px; font-weight: 200;" fill="rgb(50, 49, 63)" stroke="none" stroke-width="1px">0.58</text><text x="0" y="59.3333333333334" dx="0em" dy="0.3em" style="text-anchor: end; visibility: hidden; font-family: &quot;Helvetica Neue&quot;, sans-serif; font-size: 12px; font-weight: 200;" fill="rgb(50, 49, 63)" stroke="none" stroke-width="1px">0.59</text><text x="0" y="39.5555555555556" dx="0em" dy="0.3em" style="text-anchor: end; visibility: inherit; font-family: &quot;Helvetica Neue&quot;, sans-serif; font-size: 12px; font-weight: 200;" fill="rgb(50, 49, 63)" stroke="none" stroke-width="1px">0.6</text><text x="0" y="19.7777777777778" dx="0em" dy="0.3em" style="text-anchor: end; visibility: hidden; font-family: &quot;Helvetica Neue&quot;, sans-serif; font-size: 12px; font-weight: 200;" fill="rgb(50, 49, 63)" stroke="none" stroke-width="1px">0.61</text><text x="0" y="0" dx="0em" dy="0.3em" style="text-anchor: end; visibility: hidden; font-family: &quot;Helvetica Neue&quot;, sans-serif; font-size: 12px; font-weight: 200;" fill="rgb(50, 49, 63)" stroke="none" stroke-width="1px">0.62</text></g><line x1="58" y1="0" x2="58" y2="178" fill="rgb(0, 0, 0)" stroke="rgb(204, 204, 204)" stroke-width="1px"></line></g></g><g transform="translate(58, 0)" clip-path="url(#clip_0)"><clipPath id="clip_0"><rect width="272" height="178"></rect></clipPath><g><g><g><line x1="0" y1="0" x2="0" y2="178" fill="rgb(0, 0, 0)" stroke="rgb(60, 60, 60)" stroke-width="1px" opacity="0.25"></line><line x1="19.428571428571427" y1="0" x2="19.428571428571427" y2="178" fill="rgb(0, 0, 0)" stroke="rgb(60, 60, 60)" stroke-width="1px" opacity="0.25"></line><line x1="38.857142857142854" y1="0" x2="38.857142857142854" y2="178" fill="rgb(0, 0, 0)" stroke="rgb(60, 60, 60)" stroke-width="1px" opacity="0.25"></line><line x1="58.285714285714285" y1="0" x2="58.285714285714285" y2="178" fill="rgb(0, 0, 0)" stroke="rgb(60, 60, 60)" stroke-width="1px" opacity="0.25"></line><line x1="77.71428571428571" y1="0" x2="77.71428571428571" y2="178" fill="rgb(0, 0, 0)" stroke="rgb(60, 60, 60)" stroke-width="1px" opacity="0.25"></line><line x1="97.14285714285714" y1="0" x2="97.14285714285714" y2="178" fill="rgb(0, 0, 0)" stroke="rgb(60, 60, 60)" stroke-width="1px" opacity="0.25"></line><line x1="116.57142857142857" y1="0" x2="116.57142857142857" y2="178" fill="rgb(0, 0, 0)" stroke="rgb(60, 60, 60)" stroke-width="1px" opacity="0.25"></line><line x1="136" y1="0" x2="136" y2="178" fill="rgb(0, 0, 0)" stroke="rgb(60, 60, 60)" stroke-width="1px" opacity="0.25"></line><line x1="155.42857142857142" y1="0" x2="155.42857142857142" y2="178" fill="rgb(0, 0, 0)" stroke="rgb(60, 60, 60)" stroke-width="1px" opacity="0.25"></line><line x1="174.85714285714286" y1="0" x2="174.85714285714286" y2="178" fill="rgb(0, 0, 0)" stroke="rgb(60, 60, 60)" stroke-width="1px" opacity="0.25"></line><line x1="194.28571428571428" y1="0" x2="194.28571428571428" y2="178" fill="rgb(0, 0, 0)" stroke="rgb(60, 60, 60)" stroke-width="1px" opacity="0.25"></line><line x1="213.71428571428572" y1="0" x2="213.71428571428572" y2="178" fill="rgb(0, 0, 0)" stroke="rgb(60, 60, 60)" stroke-width="1px" opacity="0.25"></line><line x1="233.14285714285714" y1="0" x2="233.14285714285714" y2="178" fill="rgb(0, 0, 0)" stroke="rgb(60, 60, 60)" stroke-width="1px" opacity="0.25"></line><line x1="252.57142857142858" y1="0" x2="252.57142857142858" y2="178" fill="rgb(0, 0, 0)" stroke="rgb(60, 60, 60)" stroke-width="1px" opacity="0.25"></line><line x1="272" y1="0" x2="272" y2="178" fill="rgb(0, 0, 0)" stroke="rgb(60, 60, 60)" stroke-width="1px" opacity="0.25"></line></g><g><line x1="0" y1="178" x2="272" y2="178" fill="rgb(0, 0, 0)" stroke="rgb(60, 60, 60)" stroke-width="1px" opacity="0.25"></line><line x1="0" y1="158.2222222222222" x2="272" y2="158.2222222222222" fill="rgb(0, 0, 0)" stroke="rgb(60, 60, 60)" stroke-width="1px" opacity="0.25"></line><line x1="0" y1="138.4444444444444" x2="272" y2="138.4444444444444" fill="rgb(0, 0, 0)" stroke="rgb(60, 60, 60)" stroke-width="1px" opacity="0.25"></line><line x1="0" y1="118.6666666666666" x2="272" y2="118.6666666666666" fill="rgb(0, 0, 0)" stroke="rgb(60, 60, 60)" stroke-width="1px" opacity="0.25"></line><line x1="0" y1="98.88888888888901" x2="272" y2="98.88888888888901" fill="rgb(0, 0, 0)" stroke="rgb(60, 60, 60)" stroke-width="1px" opacity="0.25"></line><line x1="0" y1="79.1111111111112" x2="272" y2="79.1111111111112" fill="rgb(0, 0, 0)" stroke="rgb(60, 60, 60)" stroke-width="1px" opacity="0.25"></line><line x1="0" y1="59.3333333333334" x2="272" y2="59.3333333333334" fill="rgb(0, 0, 0)" stroke="rgb(60, 60, 60)" stroke-width="1px" opacity="0.25"></line><line x1="0" y1="39.5555555555556" x2="272" y2="39.5555555555556" fill="rgb(0, 0, 0)" stroke="rgb(60, 60, 60)" stroke-width="1px" opacity="0.25"></line><line x1="0" y1="19.7777777777778" x2="272" y2="19.7777777777778" fill="rgb(0, 0, 0)" stroke="rgb(60, 60, 60)" stroke-width="1px" opacity="0.25"></line><line x1="0" y1="0" x2="272" y2="0" fill="rgb(0, 0, 0)" stroke="rgb(60, 60, 60)" stroke-width="1px" opacity="0.25"></line></g></g></g><g><g><line x1="0" y1="1226.2222222222226" x2="272" y2="1226.2222222222226" fill="rgb(0, 0, 0)" stroke="rgb(153, 153, 153)" stroke-width="1.5px"></line></g></g><g><g><line x1="19.428571428571427" y1="0" x2="19.428571428571427" y2="178" fill="rgb(0, 0, 0)" stroke="rgb(153, 153, 153)" stroke-width="1.5px"></line></g></g><g><g><g><g><g><path stroke="rgb(255, 112, 67)" stroke-width="2px" d="M21.37142857142857,1.8835529751247861L23.314285714285713,75.46160933706497L25.25714285714286,97.98550414174065L27.200000000000003,75.46163100705454L29.142857142857142,63.97304894321384L31.085714285714285,28.042941994990997L33.028571428571425,85.1024446422068L34.97142857142857,127.87725132546285L36.91428571428571,86.48058965874331L38.857142857142854,80.8618022618542L40.8,30.250933669575176L42.74285714285714,28.3177739690137L44.68571428571428,46.02120942212974L46.628571428571426,9.501574400293379L48.57142857142857,15.87536333518571L50.51428571428572,10.277059848218073L52.45714285714286,25.758278842413148L54.400000000000006,25.626375744532567L56.34285714285715,72.6400681786587L58.285714285714285,91.42810508928402L60.22857142857143,93.28228034510538L62.17142857142857,75.55855740466714L64.11428571428571,74.3425479649792L66.05714285714285,83.03094656451732L68,50.571896846746895L69.94285714285714,31.096526076674223L71.88571428571429,47.665355729414955L73.82857142857142,85.8606147999361L75.77142857142857,99.35975111549834L77.71428571428571,88.62327142111636L79.65714285714286,91.59933986401214L81.6,93.38498067710438L83.54285714285714,103.87436616884281L85.48571428571428,110.1679971433174L87.42857142857143,113.94417561259729L89.37142857142857,116.20988265261968L91.3142857142857,108.15130615828396L93.25714285714285,103.31616029360066L95.19999999999999,109.8330734523712L97.14285714285714,104.32522068064405L99.08571428571427,101.02050902231986L101.02857142857144,108.4556826786616L102.97142857142856,112.91678687017664L104.91428571428573,115.59344938426128L106.85714285714286,117.1994468924153L108.80000000000001,118.16304539720093L110.74285714285715,118.74120450003389L112.6857142857143,119.0880999617197L114.62857142857143,91.04228245691937L116.57142857142857,93.05074609075176L118.51428571428572,103.67382491619433L120.45714285714286,110.04767221142677L122.4,104.45397994343004L124.34285714285714,110.51576522775625L126.28571428571429,114.15283639834763L128.22857142857143,125.75307974581213L130.17142857142858,132.7132257542881L132.1142857142857,136.88931335937255L134.05714285714288,139.39496592242313L136,131.48035681514506L137.94285714285712,126.73159135077847L139.88571428571427,133.30033271726666L141.82857142857145,137.24157753715943L143.77142857142857,139.60632442909508L145.71428571428572,131.6071719191487L147.65714285714284,117.38967976807297L149.60000000000002,118.27718512253554L151.54285714285714,118.80968833521297L153.4857142857143,109.71118961771164L155.42857142857142,104.25209038721074L157.3714285714286,119.81263213912592L159.31428571428572,129.14895719027479L161.25714285714287,125.33275157585652L163.2,123.04302820720571L165.14285714285714,149.9231489674414L167.0857142857143,147.21526728726406L169.02857142857144,136.17253763405L170.97142857142856,138.96490048722933L172.9142857142857,131.2223175540292L174.85714285714286,126.57676779410924L176.8,123.78943793815719L178.74285714285713,122.1170400245859L180.68571428571428,121.11360127644318L182.6285714285714,120.51153802755749L184.57142857142858,120.15030007822618L186.5142857142857,119.93355730862739L188.45714285714286,119.80351164686816L190.39999999999998,119.72548424981258L192.34285714285716,119.67866781157913L194.28571428571428,119.65057794863912L196.22857142857143,119.6337240308751L198.17142857142855,119.62361168021678L200.11428571428573,119.61754426982162L202.05714285714288,119.61390382358452L204,119.6117195558423L205.94285714285712,119.61040899519702L207.88571428571427,119.6096226588099L209.82857142857145,119.6091508569776L211.77142857142857,129.02686842098595L213.71428571428572,125.25949831428325L215.65714285714284,122.9990762502615L217.60000000000002,121.64282301184853L219.54285714285714,120.8290710688008L221.4857142857143,120.34081990297203L223.42857142857142,110.62986855836712L225.3714285714286,114.22129839671186L227.31428571428572,116.37615629971884L229.25714285714287,117.6690710415229L231.2,118.44481988660546L233.14285714285714,118.91026919365487L235.0857142857143,119.18953877788465L237.02857142857144,119.35710052842234L238.97142857142856,119.45763757874514L240.9142857142857,119.51795980893876L242.85714285714286,119.55415314705499L244.8,119.57586914992463L246.74285714285713,119.5888987516465L248.68571428571428,119.59671651267958L250.6285714285714,119.60140716929934L252.57142857142858,119.60422156327128" style="fill: none;" fill="none"></path></g></g></g></g><g opacity="0.2"><g><g><g><path stroke="rgb(255, 112, 67)" stroke-width="2px" d="M21.37142857142857,1.8835529751247861L23.314285714285713,119.6084431542291L25.25714285714286,119.6084431542291L27.200000000000003,48.97355620066327L29.142857142857142,48.97355620066327L31.085714285714285,-21.661330752902558L33.028571428571425,166.69844637976757L34.97142857142857,190.24333010779492L36.91428571428571,25.428554587894013L38.857142857142854,72.51855781343251L40.8,-45.20633236567181L42.74285714285714,25.428554587894013L44.68571428571428,72.51855781343251L46.628571428571426,-45.20633236567181L48.57142857142857,25.428554587894013L50.51428571428572,1.8835529751247861L52.45714285714286,48.97355620066327L54.400000000000006,25.428554587894013L56.34285714285715,143.15344476699835L58.285714285714285,119.6084431542291L60.22857142857143,96.06344154145985L62.17142857142857,48.97355620066327L64.11428571428571,72.51855781343251L66.05714285714285,96.06344154145985L68,1.8835529751247861L69.94285714285714,1.8835529751247861L71.88571428571429,72.51855781343251L73.82857142857142,143.15344476699835L75.77142857142857,119.6084431542291L77.71428571428571,72.51855781343251L79.65714285714286,96.06344154145985L81.6,96.06344154145985L83.54285714285714,119.6084431542291L85.48571428571428,119.6084431542291L87.42857142857143,119.6084431542291L89.37142857142857,119.6084431542291L91.3142857142857,96.06344154145985L93.25714285714285,96.06344154145985L95.19999999999999,119.6084431542291L97.14285714285714,96.06344154145985L99.08571428571427,96.06344154145985L101.02857142857144,119.6084431542291L102.97142857142856,119.6084431542291L104.91428571428573,119.6084431542291L106.85714285714286,119.6084431542291L108.80000000000001,119.6084431542291L110.74285714285715,119.6084431542291L112.6857142857143,119.6084431542291L114.62857142857143,48.97355620066327L116.57142857142857,96.06344154145985L118.51428571428572,119.6084431542291L120.45714285714286,119.6084431542291L122.4,96.06344154145985L124.34285714285714,119.6084431542291L126.28571428571429,119.6084431542291L128.22857142857143,143.15344476699835L130.17142857142858,143.15344476699835L132.1142857142857,143.15344476699835L134.05714285714288,143.15344476699835L136,119.6084431542291L137.94285714285712,119.6084431542291L139.88571428571427,143.15344476699835L141.82857142857145,143.15344476699835L143.77142857142857,143.15344476699835L145.71428571428572,119.6084431542291L147.65714285714284,96.06344154145985L149.60000000000002,119.6084431542291L151.54285714285714,119.6084431542291L153.4857142857143,96.06344154145985L155.42857142857142,96.06344154145985L157.3714285714286,143.15344476699835L159.31428571428572,143.15344476699835L161.25714285714287,119.6084431542291L163.2,119.6084431542291L165.14285714285714,190.24333010779492L167.0857142857143,143.15344476699835L169.02857142857144,119.6084431542291L170.97142857142856,143.15344476699835L172.9142857142857,119.6084431542291L174.85714285714286,119.6084431542291L176.8,119.6084431542291L178.74285714285713,119.6084431542291L180.68571428571428,119.6084431542291L182.6285714285714,119.6084431542291L184.57142857142858,119.6084431542291L186.5142857142857,119.6084431542291L188.45714285714286,119.6084431542291L190.39999999999998,119.6084431542291L192.34285714285716,119.6084431542291L194.28571428571428,119.6084431542291L196.22857142857143,119.6084431542291L198.17142857142855,119.6084431542291L200.11428571428573,119.6084431542291L202.05714285714288,119.6084431542291L204,119.6084431542291L205.94285714285712,119.6084431542291L207.88571428571427,119.6084431542291L209.82857142857145,119.6084431542291L211.77142857142857,143.15344476699835L213.71428571428572,119.6084431542291L215.65714285714284,119.6084431542291L217.60000000000002,119.6084431542291L219.54285714285714,119.6084431542291L221.4857142857143,119.6084431542291L223.42857142857142,96.06344154145985L225.3714285714286,119.6084431542291L227.31428571428572,119.6084431542291L229.25714285714287,119.6084431542291L231.2,119.6084431542291L233.14285714285714,119.6084431542291L235.0857142857143,119.6084431542291L237.02857142857144,119.6084431542291L238.97142857142856,119.6084431542291L240.9142857142857,119.6084431542291L242.85714285714286,119.6084431542291L244.8,119.6084431542291L246.74285714285713,119.6084431542291L248.68571428571428,119.6084431542291L250.6285714285714,119.6084431542291L252.57142857142858,119.6084431542291" style="fill: none;" fill="none"></path></g></g></g></g></g></g><g transform="translate(58, 178)" clip-path="url(#clip_1)"><clipPath id="clip_1"><rect width="272" height="22"></rect></clipPath><g><g><line x1="0" y1="0" x2="0" y2="5" style="visibility: inherit;" fill="rgb(0, 0, 0)" stroke="rgb(204, 204, 204)" stroke-width="1px"></line><line x1="19.428571428571427" y1="0" x2="19.428571428571427" y2="5" style="visibility: inherit;" fill="rgb(0, 0, 0)" stroke="rgb(204, 204, 204)" stroke-width="1px"></line><line x1="38.857142857142854" y1="0" x2="38.857142857142854" y2="5" style="visibility: inherit;" fill="rgb(0, 0, 0)" stroke="rgb(204, 204, 204)" stroke-width="1px"></line><line x1="58.285714285714285" y1="0" x2="58.285714285714285" y2="5" style="visibility: inherit;" fill="rgb(0, 0, 0)" stroke="rgb(204, 204, 204)" stroke-width="1px"></line><line x1="77.71428571428571" y1="0" x2="77.71428571428571" y2="5" style="visibility: inherit;" fill="rgb(0, 0, 0)" stroke="rgb(204, 204, 204)" stroke-width="1px"></line><line x1="97.14285714285714" y1="0" x2="97.14285714285714" y2="5" style="visibility: inherit;" fill="rgb(0, 0, 0)" stroke="rgb(204, 204, 204)" stroke-width="1px"></line><line x1="116.57142857142857" y1="0" x2="116.57142857142857" y2="5" style="visibility: inherit;" fill="rgb(0, 0, 0)" stroke="rgb(204, 204, 204)" stroke-width="1px"></line><line x1="136" y1="0" x2="136" y2="5" style="visibility: inherit;" fill="rgb(0, 0, 0)" stroke="rgb(204, 204, 204)" stroke-width="1px"></line><line x1="155.42857142857142" y1="0" x2="155.42857142857142" y2="5" style="visibility: inherit;" fill="rgb(0, 0, 0)" stroke="rgb(204, 204, 204)" stroke-width="1px"></line><line x1="174.85714285714286" y1="0" x2="174.85714285714286" y2="5" style="visibility: inherit;" fill="rgb(0, 0, 0)" stroke="rgb(204, 204, 204)" stroke-width="1px"></line><line x1="194.28571428571428" y1="0" x2="194.28571428571428" y2="5" style="visibility: inherit;" fill="rgb(0, 0, 0)" stroke="rgb(204, 204, 204)" stroke-width="1px"></line><line x1="213.71428571428572" y1="0" x2="213.71428571428572" y2="5" style="visibility: inherit;" fill="rgb(0, 0, 0)" stroke="rgb(204, 204, 204)" stroke-width="1px"></line><line x1="233.14285714285714" y1="0" x2="233.14285714285714" y2="5" style="visibility: inherit;" fill="rgb(0, 0, 0)" stroke="rgb(204, 204, 204)" stroke-width="1px"></line><line x1="252.57142857142858" y1="0" x2="252.57142857142858" y2="5" style="visibility: inherit;" fill="rgb(0, 0, 0)" stroke="rgb(204, 204, 204)" stroke-width="1px"></line><line x1="272" y1="0" x2="272" y2="5" style="visibility: inherit;" fill="rgb(0, 0, 0)" stroke="rgb(204, 204, 204)" stroke-width="1px"></line></g><g transform="translate(0, 8)"><text x="0" y="0" dx="0em" dy="0.95em" style="text-anchor: middle; visibility: hidden; font-family: &quot;Helvetica Neue&quot;, sans-serif; font-size: 12px; font-weight: 200;" fill="rgb(50, 49, 63)" stroke="none" stroke-width="1px">-10</text><text x="19.428571428571427" y="0" dx="0em" dy="0.95em" style="text-anchor: middle; visibility: inherit; font-family: &quot;Helvetica Neue&quot;, sans-serif; font-size: 12px; font-weight: 200;" fill="rgb(50, 49, 63)" stroke="none" stroke-width="1px">0</text><text x="38.857142857142854" y="0" dx="0em" dy="0.95em" style="text-anchor: middle; visibility: hidden; font-family: &quot;Helvetica Neue&quot;, sans-serif; font-size: 12px; font-weight: 200;" fill="rgb(50, 49, 63)" stroke="none" stroke-width="1px">10</text><text x="58.285714285714285" y="0" dx="0em" dy="0.95em" style="text-anchor: middle; visibility: inherit; font-family: &quot;Helvetica Neue&quot;, sans-serif; font-size: 12px; font-weight: 200;" fill="rgb(50, 49, 63)" stroke="none" stroke-width="1px">20</text><text x="77.71428571428571" y="0" dx="0em" dy="0.95em" style="text-anchor: middle; visibility: hidden; font-family: &quot;Helvetica Neue&quot;, sans-serif; font-size: 12px; font-weight: 200;" fill="rgb(50, 49, 63)" stroke="none" stroke-width="1px">30</text><text x="97.14285714285714" y="0" dx="0em" dy="0.95em" style="text-anchor: middle; visibility: inherit; font-family: &quot;Helvetica Neue&quot;, sans-serif; font-size: 12px; font-weight: 200;" fill="rgb(50, 49, 63)" stroke="none" stroke-width="1px">40</text><text x="116.57142857142857" y="0" dx="0em" dy="0.95em" style="text-anchor: middle; visibility: hidden; font-family: &quot;Helvetica Neue&quot;, sans-serif; font-size: 12px; font-weight: 200;" fill="rgb(50, 49, 63)" stroke="none" stroke-width="1px">50</text><text x="136" y="0" dx="0em" dy="0.95em" style="text-anchor: middle; visibility: inherit; font-family: &quot;Helvetica Neue&quot;, sans-serif; font-size: 12px; font-weight: 200;" fill="rgb(50, 49, 63)" stroke="none" stroke-width="1px">60</text><text x="155.42857142857142" y="0" dx="0em" dy="0.95em" style="text-anchor: middle; visibility: hidden; font-family: &quot;Helvetica Neue&quot;, sans-serif; font-size: 12px; font-weight: 200;" fill="rgb(50, 49, 63)" stroke="none" stroke-width="1px">70</text><text x="174.85714285714286" y="0" dx="0em" dy="0.95em" style="text-anchor: middle; visibility: inherit; font-family: &quot;Helvetica Neue&quot;, sans-serif; font-size: 12px; font-weight: 200;" fill="rgb(50, 49, 63)" stroke="none" stroke-width="1px">80</text><text x="194.28571428571428" y="0" dx="0em" dy="0.95em" style="text-anchor: middle; visibility: hidden; font-family: &quot;Helvetica Neue&quot;, sans-serif; font-size: 12px; font-weight: 200;" fill="rgb(50, 49, 63)" stroke="none" stroke-width="1px">90</text><text x="213.71428571428572" y="0" dx="0em" dy="0.95em" style="text-anchor: middle; visibility: inherit; font-family: &quot;Helvetica Neue&quot;, sans-serif; font-size: 12px; font-weight: 200;" fill="rgb(50, 49, 63)" stroke="none" stroke-width="1px">100</text><text x="233.14285714285714" y="0" dx="0em" dy="0.95em" style="text-anchor: middle; visibility: hidden; font-family: &quot;Helvetica Neue&quot;, sans-serif; font-size: 12px; font-weight: 200;" fill="rgb(50, 49, 63)" stroke="none" stroke-width="1px">110</text><text x="252.57142857142858" y="0" dx="0em" dy="0.95em" style="text-anchor: middle; visibility: inherit; font-family: &quot;Helvetica Neue&quot;, sans-serif; font-size: 12px; font-weight: 200;" fill="rgb(50, 49, 63)" stroke="none" stroke-width="1px">120</text><text x="272" y="0" dx="0em" dy="0.95em" style="text-anchor: middle; visibility: hidden; font-family: &quot;Helvetica Neue&quot;, sans-serif; font-size: 12px; font-weight: 200;" fill="rgb(50, 49, 63)" stroke="none" stroke-width="1px">130</text></g><line x1="0" y1="0" x2="272" y2="0" fill="rgb(0, 0, 0)" stroke="rgb(204, 204, 204)" stroke-width="1px"></line></g></g></g></g></svg>