<svg viewBox="0 0 330 200" xmlns="http://www.w3.org/2000/svg"><g><g><g><g><g><line x1="58" y1="178" x2="53" y2="178" style="visibility: inherit;" fill="rgb(0, 0, 0)" stroke="rgb(204, 204, 204)" stroke-width="1px"></line><line x1="58" y1="155.75" x2="53" y2="155.75" style="visibility: inherit;" fill="rgb(0, 0, 0)" stroke="rgb(204, 204, 204)" stroke-width="1px"></line><line x1="58" y1="133.5" x2="53" y2="133.5" style="visibility: inherit;" fill="rgb(0, 0, 0)" stroke="rgb(204, 204, 204)" stroke-width="1px"></line><line x1="58" y1="111.25" x2="53" y2="111.25" style="visibility: inherit;" fill="rgb(0, 0, 0)" stroke="rgb(204, 204, 204)" stroke-width="1px"></line><line x1="58" y1="89" x2="53" y2="89" style="visibility: inherit;" fill="rgb(0, 0, 0)" stroke="rgb(204, 204, 204)" stroke-width="1px"></line><line x1="58" y1="66.75" x2="53" y2="66.75" style="visibility: inherit;" fill="rgb(0, 0, 0)" stroke="rgb(204, 204, 204)" stroke-width="1px"></line><line x1="58" y1="44.5" x2="53" y2="44.5" style="visibility: inherit;" fill="rgb(0, 0, 0)" stroke="rgb(204, 204, 204)" stroke-width="1px"></line><line x1="58" y1="22.25" x2="53" y2="22.25" style="visibility: inherit;" fill="rgb(0, 0, 0)" stroke="rgb(204, 204, 204)" stroke-width="1px"></line><line x1="58" y1="0" x2="53" y2="0" style="visibility: inherit;" fill="rgb(0, 0, 0)" stroke="rgb(204, 204, 204)" stroke-width="1px"></line></g><g transform="translate(48, 0)"><text x="0" y="178" dx="0em" dy="0.3em" style="text-anchor: end; visibility: hidden; font-family: &quot;Helvetica Neue&quot;, sans-serif; font-size: 12px; font-weight: 200;" fill="rgb(50, 49, 63)" stroke="none" stroke-width="1px">0.59</text><text x="0" y="155.75" dx="0em" dy="0.3em" style="text-anchor: end; visibility: inherit; font-family: &quot;Helvetica Neue&quot;, sans-serif; font-size: 12px; font-weight: 200;" fill="rgb(50, 49, 63)" stroke="none" stroke-width="1px">0.6</text><text x="0" y="133.5" dx="0em" dy="0.3em" style="text-anchor: end; visibility: hidden; font-family: &quot;Helvetica Neue&quot;, sans-serif; font-size: 12px; font-weight: 200;" fill="rgb(50, 49, 63)" stroke="none" stroke-width="1px">0.61</text><text x="0" y="111.25" dx="0em" dy="0.3em" style="text-anchor: end; visibility: inherit; font-family: &quot;Helvetica Neue&quot;, sans-serif; font-size: 12px; font-weight: 200;" fill="rgb(50, 49, 63)" stroke="none" stroke-width="1px">0.62</text><text x="0" y="89" dx="0em" dy="0.3em" style="text-anchor: end; visibility: hidden; font-family: &quot;Helvetica Neue&quot;, sans-serif; font-size: 12px; font-weight: 200;" fill="rgb(50, 49, 63)" stroke="none" stroke-width="1px">0.63</text><text x="0" y="66.75" dx="0em" dy="0.3em" style="text-anchor: end; visibility: inherit; font-family: &quot;Helvetica Neue&quot;, sans-serif; font-size: 12px; font-weight: 200;" fill="rgb(50, 49, 63)" stroke="none" stroke-width="1px">0.64</text><text x="0" y="44.5" dx="0em" dy="0.3em" style="text-anchor: end; visibility: hidden; font-family: &quot;Helvetica Neue&quot;, sans-serif; font-size: 12px; font-weight: 200;" fill="rgb(50, 49, 63)" stroke="none" stroke-width="1px">0.65</text><text x="0" y="22.25" dx="0em" dy="0.3em" style="text-anchor: end; visibility: inherit; font-family: &quot;Helvetica Neue&quot;, sans-serif; font-size: 12px; font-weight: 200;" fill="rgb(50, 49, 63)" stroke="none" stroke-width="1px">0.66</text><text x="0" y="0" dx="0em" dy="0.3em" style="text-anchor: end; visibility: hidden; font-family: &quot;Helvetica Neue&quot;, sans-serif; font-size: 12px; font-weight: 200;" fill="rgb(50, 49, 63)" stroke="none" stroke-width="1px">0.67</text></g><line x1="58" y1="0" x2="58" y2="178" fill="rgb(0, 0, 0)" stroke="rgb(204, 204, 204)" stroke-width="1px"></line></g></g><g transform="translate(58, 0)" clip-path="url(#clip_0)"><clipPath id="clip_0"><rect width="272" height="178"></rect></clipPath><g><g><g><line x1="0" y1="0" x2="0" y2="178" fill="rgb(0, 0, 0)" stroke="rgb(60, 60, 60)" stroke-width="1px" opacity="0.25"></line><line x1="19.428571428571427" y1="0" x2="19.428571428571427" y2="178" fill="rgb(0, 0, 0)" stroke="rgb(60, 60, 60)" stroke-width="1px" opacity="0.25"></line><line x1="38.857142857142854" y1="0" x2="38.857142857142854" y2="178" fill="rgb(0, 0, 0)" stroke="rgb(60, 60, 60)" stroke-width="1px" opacity="0.25"></line><line x1="58.285714285714285" y1="0" x2="58.285714285714285" y2="178" fill="rgb(0, 0, 0)" stroke="rgb(60, 60, 60)" stroke-width="1px" opacity="0.25"></line><line x1="77.71428571428571" y1="0" x2="77.71428571428571" y2="178" fill="rgb(0, 0, 0)" stroke="rgb(60, 60, 60)" stroke-width="1px" opacity="0.25"></line><line x1="97.14285714285714" y1="0" x2="97.14285714285714" y2="178" fill="rgb(0, 0, 0)" stroke="rgb(60, 60, 60)" stroke-width="1px" opacity="0.25"></line><line x1="116.57142857142857" y1="0" x2="116.57142857142857" y2="178" fill="rgb(0, 0, 0)" stroke="rgb(60, 60, 60)" stroke-width="1px" opacity="0.25"></line><line x1="136" y1="0" x2="136" y2="178" fill="rgb(0, 0, 0)" stroke="rgb(60, 60, 60)" stroke-width="1px" opacity="0.25"></line><line x1="155.42857142857142" y1="0" x2="155.42857142857142" y2="178" fill="rgb(0, 0, 0)" stroke="rgb(60, 60, 60)" stroke-width="1px" opacity="0.25"></line><line x1="174.85714285714286" y1="0" x2="174.85714285714286" y2="178" fill="rgb(0, 0, 0)" stroke="rgb(60, 60, 60)" stroke-width="1px" opacity="0.25"></line><line x1="194.28571428571428" y1="0" x2="194.28571428571428" y2="178" fill="rgb(0, 0, 0)" stroke="rgb(60, 60, 60)" stroke-width="1px" opacity="0.25"></line><line x1="213.71428571428572" y1="0" x2="213.71428571428572" y2="178" fill="rgb(0, 0, 0)" stroke="rgb(60, 60, 60)" stroke-width="1px" opacity="0.25"></line><line x1="233.14285714285714" y1="0" x2="233.14285714285714" y2="178" fill="rgb(0, 0, 0)" stroke="rgb(60, 60, 60)" stroke-width="1px" opacity="0.25"></line><line x1="252.57142857142858" y1="0" x2="252.57142857142858" y2="178" fill="rgb(0, 0, 0)" stroke="rgb(60, 60, 60)" stroke-width="1px" opacity="0.25"></line><line x1="272" y1="0" x2="272" y2="178" fill="rgb(0, 0, 0)" stroke="rgb(60, 60, 60)" stroke-width="1px" opacity="0.25"></line></g><g><line x1="0" y1="178" x2="272" y2="178" fill="rgb(0, 0, 0)" stroke="rgb(60, 60, 60)" stroke-width="1px" opacity="0.25"></line><line x1="0" y1="155.75" x2="272" y2="155.75" fill="rgb(0, 0, 0)" stroke="rgb(60, 60, 60)" stroke-width="1px" opacity="0.25"></line><line x1="0" y1="133.5" x2="272" y2="133.5" fill="rgb(0, 0, 0)" stroke="rgb(60, 60, 60)" stroke-width="1px" opacity="0.25"></line><line x1="0" y1="111.25" x2="272" y2="111.25" fill="rgb(0, 0, 0)" stroke="rgb(60, 60, 60)" stroke-width="1px" opacity="0.25"></line><line x1="0" y1="89" x2="272" y2="89" fill="rgb(0, 0, 0)" stroke="rgb(60, 60, 60)" stroke-width="1px" opacity="0.25"></line><line x1="0" y1="66.75" x2="272" y2="66.75" fill="rgb(0, 0, 0)" stroke="rgb(60, 60, 60)" stroke-width="1px" opacity="0.25"></line><line x1="0" y1="44.5" x2="272" y2="44.5" fill="rgb(0, 0, 0)" stroke="rgb(60, 60, 60)" stroke-width="1px" opacity="0.25"></line><line x1="0" y1="22.25" x2="272" y2="22.25" fill="rgb(0, 0, 0)" stroke="rgb(60, 60, 60)" stroke-width="1px" opacity="0.25"></line><line x1="0" y1="0" x2="272" y2="0" fill="rgb(0, 0, 0)" stroke="rgb(60, 60, 60)" stroke-width="1px" opacity="0.25"></line></g></g></g><g><g><line x1="0" y1="1490.7499999999986" x2="272" y2="1490.7499999999986" fill="rgb(0, 0, 0)" stroke="rgb(153, 153, 153)" stroke-width="1.5px"></line></g></g><g><g><line x1="19.428571428571427" y1="0" x2="19.428571428571427" y2="178" fill="rgb(0, 0, 0)" stroke="rgb(153, 153, 153)" stroke-width="1.5px"></line></g></g><g><g><g><g><g><path stroke="rgb(255, 112, 67)" stroke-width="2px" d="M21.37142857142857,139.85712391138074L23.314285714285713,139.85712391138048L25.25714285714286,139.85712391138048L27.200000000000003,139.85712391138048L29.142857142857142,139.85712391138048L31.085714285714285,139.85712391138048L33.028571428571425,139.85712391138074L34.97142857142857,139.857123911381L36.91428571428571,139.857123911381L38.857142857142854,150.51682980237823L40.8,124.96981522584109L42.74285714285714,141.55609414477365L44.68571428571428,140.87561730143284L46.628571428571426,193.48564793674703L48.57142857142857,140.223496133472L50.51428571428572,118.88047774121267L52.45714285714286,95.48147641090668L54.400000000000006,145.0224659209488L56.34285714285715,153.55209960440413L58.285714285714285,116.28704772875051L60.22857142857143,104.52437176120233L62.17142857142857,86.87154114260456L64.11428571428571,76.27999147634182L66.05714285714285,133.49681469458926L68,157.23150731121262L69.94285714285714,129.09125754579725L71.88571428571429,122.80234692964493L73.82857142857142,97.83854326310704L75.77142857142857,125.24123634486406L77.71428571428571,152.2780988001081L79.65714285714286,147.30970818558822L81.6,112.54297257983391L83.54285714285714,102.27818421893026L85.48571428571428,74.92880945746792L87.42857142857143,69.11443600997528L89.37142857142857,55.03056117041962L91.3142857142857,57.17548715097364L93.25714285714285,58.462442730810636L95.19999999999999,59.23461607565446L97.14285714285714,70.29317082136878L99.08571428571427,76.92830365933688L101.02857142857144,80.9093833587116L102.97142857142856,104.4884795865874L104.91428571428573,86.8502381843444L106.85714285714286,86.86254407180178L108.80000000000001,76.27467687786857L110.74285714285715,59.326705835788545L112.6857142857143,49.15792321094659L114.62857142857143,32.461402910298176L116.57142857142857,43.633992181716735L118.51428571428572,18.551846615251492L120.45714285714286,56.47870680806744L122.4,79.2348229236862L124.34285714285714,50.50754273813695L126.28571428571429,43.86642535257948L128.22857142857143,39.88175492124776L130.17142857142858,58.681454113946614L132.1142857142857,27.580323774706926L134.05714285714288,19.514843248778732L136,25.270805658969238L137.94285714285712,39.3196338308297L139.88571428571427,58.344181459692024L141.82857142857145,59.16365931126302L143.77142857142857,59.65534602220542L145.71428571428572,38.75985659727888L147.65714285714284,26.222562942322526L149.60000000000002,39.890688200841225L151.54285714285714,37.49631263020629L153.4857142857143,36.05968728782534L155.42857142857142,35.19771208239672L157.3714285714286,34.68052695913974L159.31428571428572,34.3702158851853L161.25714285714287,34.184029240812634L163.2,34.072317254189386L165.14285714285714,34.00529006221524L167.0857142857143,33.965073747030715L169.02857142857144,33.9409439579199L170.97142857142856,33.92646608445361L172.9142857142857,44.51303008611981L174.85714285714286,50.86496848711954L176.8,54.676131527719534L178.74285714285713,46.36757862633334L180.68571428571428,41.38244688550151L182.6285714285714,38.39136784100248L184.57142857142858,36.59672041430309L186.5142857142857,35.519931958283365L188.45714285714286,34.87385888467159L190.39999999999998,34.4862150405047L192.34285714285716,34.25362873400428L194.28571428571428,34.11407695010422L196.22857142857143,44.6255966055102L198.17142857142855,40.33725767300777L200.11428571428573,37.76425431350623L202.05714285714288,36.22045229780534L204,35.294171088384815L205.94285714285712,34.738402362732444L207.88571428571427,34.404941127341175L209.82857142857145,44.800115111852364L211.77142857142857,51.03721950255914L213.71428571428572,54.77948213698319L215.65714285714284,46.42958899189148L217.60000000000002,41.419653104836414L219.54285714285714,38.41369157260331L221.4857142857143,47.20536537900975L223.42857142857142,41.88511893710739L225.3714285714286,38.6929710719661L227.31428571428572,36.77768235288127L229.25714285714287,35.62850912143051L231.2,34.93900518256007L233.14285714285714,34.52530281923765L235.0857142857143,34.27708140124432L237.02857142857144,34.128148550448174L238.97142857142856,34.038788839970465L240.9142857142857,33.985173013683834L242.85714285714286,33.95300351791187L244.8,44.52895254619477L246.74285714285713,40.27927123741844L248.68571428571428,37.72946245215252L250.6285714285714,46.79482790673916L252.57142857142858,41.63879645374513" style="fill: none;" fill="none"></path></g></g></g></g><g opacity="0.2"><g><g><g><path stroke="rgb(255, 112, 67)" stroke-width="2px" d="M21.37142857142857,139.85712391138074L23.314285714285713,139.85712391138074L25.25714285714286,139.85712391138074L27.200000000000003,139.85712391138074L29.142857142857142,139.85712391138074L31.085714285714285,139.85712391138074L33.028571428571425,139.85712391138074L34.97142857142857,139.85712391138074L36.91428571428571,139.85712391138074L38.857142857142854,166.3452507257461L40.8,86.88100290298463L42.74285714285714,166.3452507257461L44.68571428571428,139.85712391138074L46.628571428571426,272.2976253628729L48.57142857142857,60.392876088619275L50.51428571428572,86.88100290298463L52.45714285714286,60.392876088619275L54.400000000000006,219.3213717341422L56.34285714285715,166.3452507257461L58.285714285714285,60.392876088619275L60.22857142857143,86.88100290298463L62.17142857142857,60.392876088619275L64.11428571428571,60.392876088619275L66.05714285714285,219.3213717341422L68,192.83337754011146L69.94285714285714,86.88100290298463L71.88571428571429,113.36899709701537L73.82857142857142,60.392876088619275L75.77142857142857,166.3452507257461L77.71428571428571,192.83337754011146L79.65714285714286,139.85712391138074L81.6,60.392876088619275L83.54285714285714,86.88100290298463L85.48571428571428,33.9047492742539L87.42857142857143,60.392876088619275L89.37142857142857,33.9047492742539L91.3142857142857,60.392876088619275L93.25714285714285,60.392876088619275L95.19999999999999,60.392876088619275L97.14285714285714,86.88100290298463L99.08571428571427,86.88100290298463L101.02857142857144,86.88100290298463L102.97142857142856,139.85712391138074L104.91428571428573,60.392876088619275L106.85714285714286,86.88100290298463L108.80000000000001,60.392876088619275L110.74285714285715,33.9047492742539L112.6857142857143,33.9047492742539L114.62857142857143,7.4166224598885435L116.57142857142857,60.392876088619275L118.51428571428572,-19.07137173414219L120.45714285714286,113.36899709701537L122.4,113.36899709701537L124.34285714285714,7.4166224598885435L126.28571428571429,33.9047492742539L128.22857142857143,33.9047492742539L130.17142857142858,86.88100290298463L132.1142857142857,-19.07137173414219L134.05714285714288,7.4166224598885435L136,33.9047492742539L137.94285714285712,60.392876088619275L139.88571428571427,86.88100290298463L141.82857142857145,60.392876088619275L143.77142857142857,60.392876088619275L145.71428571428572,7.4166224598885435L147.65714285714284,7.4166224598885435L149.60000000000002,60.392876088619275L151.54285714285714,33.9047492742539L153.4857142857143,33.9047492742539L155.42857142857142,33.9047492742539L157.3714285714286,33.9047492742539L159.31428571428572,33.9047492742539L161.25714285714287,33.9047492742539L163.2,33.9047492742539L165.14285714285714,33.9047492742539L167.0857142857143,33.9047492742539L169.02857142857144,33.9047492742539L170.97142857142856,33.9047492742539L172.9142857142857,60.392876088619275L174.85714285714286,60.392876088619275L176.8,60.392876088619275L178.74285714285713,33.9047492742539L180.68571428571428,33.9047492742539L182.6285714285714,33.9047492742539L184.57142857142858,33.9047492742539L186.5142857142857,33.9047492742539L188.45714285714286,33.9047492742539L190.39999999999998,33.9047492742539L192.34285714285716,33.9047492742539L194.28571428571428,33.9047492742539L196.22857142857143,60.392876088619275L198.17142857142855,33.9047492742539L200.11428571428573,33.9047492742539L202.05714285714288,33.9047492742539L204,33.9047492742539L205.94285714285712,33.9047492742539L207.88571428571427,33.9047492742539L209.82857142857145,60.392876088619275L211.77142857142857,60.392876088619275L213.71428571428572,60.392876088619275L215.65714285714284,33.9047492742539L217.60000000000002,33.9047492742539L219.54285714285714,33.9047492742539L221.4857142857143,60.392876088619275L223.42857142857142,33.9047492742539L225.3714285714286,33.9047492742539L227.31428571428572,33.9047492742539L229.25714285714287,33.9047492742539L231.2,33.9047492742539L233.14285714285714,33.9047492742539L235.0857142857143,33.9047492742539L237.02857142857144,33.9047492742539L238.97142857142856,33.9047492742539L240.9142857142857,33.9047492742539L242.85714285714286,33.9047492742539L244.8,60.392876088619275L246.74285714285713,33.9047492742539L248.68571428571428,33.9047492742539L250.6285714285714,60.392876088619275L252.57142857142858,33.9047492742539" style="fill: none;" fill="none"></path></g></g></g></g></g></g><g transform="translate(58, 178)" clip-path="url(#clip_1)"><clipPath id="clip_1"><rect width="272" height="22"></rect></clipPath><g><g><line x1="0" y1="0" x2="0" y2="5" style="visibility: inherit;" fill="rgb(0, 0, 0)" stroke="rgb(204, 204, 204)" stroke-width="1px"></line><line x1="19.428571428571427" y1="0" x2="19.428571428571427" y2="5" style="visibility: inherit;" fill="rgb(0, 0, 0)" stroke="rgb(204, 204, 204)" stroke-width="1px"></line><line x1="38.857142857142854" y1="0" x2="38.857142857142854" y2="5" style="visibility: inherit;" fill="rgb(0, 0, 0)" stroke="rgb(204, 204, 204)" stroke-width="1px"></line><line x1="58.285714285714285" y1="0" x2="58.285714285714285" y2="5" style="visibility: inherit;" fill="rgb(0, 0, 0)" stroke="rgb(204, 204, 204)" stroke-width="1px"></line><line x1="77.71428571428571" y1="0" x2="77.71428571428571" y2="5" style="visibility: inherit;" fill="rgb(0, 0, 0)" stroke="rgb(204, 204, 204)" stroke-width="1px"></line><line x1="97.14285714285714" y1="0" x2="97.14285714285714" y2="5" style="visibility: inherit;" fill="rgb(0, 0, 0)" stroke="rgb(204, 204, 204)" stroke-width="1px"></line><line x1="116.57142857142857" y1="0" x2="116.57142857142857" y2="5" style="visibility: inherit;" fill="rgb(0, 0, 0)" stroke="rgb(204, 204, 204)" stroke-width="1px"></line><line x1="136" y1="0" x2="136" y2="5" style="visibility: inherit;" fill="rgb(0, 0, 0)" stroke="rgb(204, 204, 204)" stroke-width="1px"></line><line x1="155.42857142857142" y1="0" x2="155.42857142857142" y2="5" style="visibility: inherit;" fill="rgb(0, 0, 0)" stroke="rgb(204, 204, 204)" stroke-width="1px"></line><line x1="174.85714285714286" y1="0" x2="174.85714285714286" y2="5" style="visibility: inherit;" fill="rgb(0, 0, 0)" stroke="rgb(204, 204, 204)" stroke-width="1px"></line><line x1="194.28571428571428" y1="0" x2="194.28571428571428" y2="5" style="visibility: inherit;" fill="rgb(0, 0, 0)" stroke="rgb(204, 204, 204)" stroke-width="1px"></line><line x1="213.71428571428572" y1="0" x2="213.71428571428572" y2="5" style="visibility: inherit;" fill="rgb(0, 0, 0)" stroke="rgb(204, 204, 204)" stroke-width="1px"></line><line x1="233.14285714285714" y1="0" x2="233.14285714285714" y2="5" style="visibility: inherit;" fill="rgb(0, 0, 0)" stroke="rgb(204, 204, 204)" stroke-width="1px"></line><line x1="252.57142857142858" y1="0" x2="252.57142857142858" y2="5" style="visibility: inherit;" fill="rgb(0, 0, 0)" stroke="rgb(204, 204, 204)" stroke-width="1px"></line><line x1="272" y1="0" x2="272" y2="5" style="visibility: inherit;" fill="rgb(0, 0, 0)" stroke="rgb(204, 204, 204)" stroke-width="1px"></line></g><g transform="translate(0, 8)"><text x="0" y="0" dx="0em" dy="0.95em" style="text-anchor: middle; visibility: hidden; font-family: &quot;Helvetica Neue&quot;, sans-serif; font-size: 12px; font-weight: 200;" fill="rgb(50, 49, 63)" stroke="none" stroke-width="1px">-10</text><text x="19.428571428571427" y="0" dx="0em" dy="0.95em" style="text-anchor: middle; visibility: inherit; font-family: &quot;Helvetica Neue&quot;, sans-serif; font-size: 12px; font-weight: 200;" fill="rgb(50, 49, 63)" stroke="none" stroke-width="1px">0</text><text x="38.857142857142854" y="0" dx="0em" dy="0.95em" style="text-anchor: middle; visibility: hidden; font-family: &quot;Helvetica Neue&quot;, sans-serif; font-size: 12px; font-weight: 200;" fill="rgb(50, 49, 63)" stroke="none" stroke-width="1px">10</text><text x="58.285714285714285" y="0" dx="0em" dy="0.95em" style="text-anchor: middle; visibility: inherit; font-family: &quot;Helvetica Neue&quot;, sans-serif; font-size: 12px; font-weight: 200;" fill="rgb(50, 49, 63)" stroke="none" stroke-width="1px">20</text><text x="77.71428571428571" y="0" dx="0em" dy="0.95em" style="text-anchor: middle; visibility: hidden; font-family: &quot;Helvetica Neue&quot;, sans-serif; font-size: 12px; font-weight: 200;" fill="rgb(50, 49, 63)" stroke="none" stroke-width="1px">30</text><text x="97.14285714285714" y="0" dx="0em" dy="0.95em" style="text-anchor: middle; visibility: inherit; font-family: &quot;Helvetica Neue&quot;, sans-serif; font-size: 12px; font-weight: 200;" fill="rgb(50, 49, 63)" stroke="none" stroke-width="1px">40</text><text x="116.57142857142857" y="0" dx="0em" dy="0.95em" style="text-anchor: middle; visibility: hidden; font-family: &quot;Helvetica Neue&quot;, sans-serif; font-size: 12px; font-weight: 200;" fill="rgb(50, 49, 63)" stroke="none" stroke-width="1px">50</text><text x="136" y="0" dx="0em" dy="0.95em" style="text-anchor: middle; visibility: inherit; font-family: &quot;Helvetica Neue&quot;, sans-serif; font-size: 12px; font-weight: 200;" fill="rgb(50, 49, 63)" stroke="none" stroke-width="1px">60</text><text x="155.42857142857142" y="0" dx="0em" dy="0.95em" style="text-anchor: middle; visibility: hidden; font-family: &quot;Helvetica Neue&quot;, sans-serif; font-size: 12px; font-weight: 200;" fill="rgb(50, 49, 63)" stroke="none" stroke-width="1px">70</text><text x="174.85714285714286" y="0" dx="0em" dy="0.95em" style="text-anchor: middle; visibility: inherit; font-family: &quot;Helvetica Neue&quot;, sans-serif; font-size: 12px; font-weight: 200;" fill="rgb(50, 49, 63)" stroke="none" stroke-width="1px">80</text><text x="194.28571428571428" y="0" dx="0em" dy="0.95em" style="text-anchor: middle; visibility: hidden; font-family: &quot;Helvetica Neue&quot;, sans-serif; font-size: 12px; font-weight: 200;" fill="rgb(50, 49, 63)" stroke="none" stroke-width="1px">90</text><text x="213.71428571428572" y="0" dx="0em" dy="0.95em" style="text-anchor: middle; visibility: inherit; font-family: &quot;Helvetica Neue&quot;, sans-serif; font-size: 12px; font-weight: 200;" fill="rgb(50, 49, 63)" stroke="none" stroke-width="1px">100</text><text x="233.14285714285714" y="0" dx="0em" dy="0.95em" style="text-anchor: middle; visibility: hidden; font-family: &quot;Helvetica Neue&quot;, sans-serif; font-size: 12px; font-weight: 200;" fill="rgb(50, 49, 63)" stroke="none" stroke-width="1px">110</text><text x="252.57142857142858" y="0" dx="0em" dy="0.95em" style="text-anchor: middle; visibility: inherit; font-family: &quot;Helvetica Neue&quot;, sans-serif; font-size: 12px; font-weight: 200;" fill="rgb(50, 49, 63)" stroke="none" stroke-width="1px">120</text><text x="272" y="0" dx="0em" dy="0.95em" style="text-anchor: middle; visibility: hidden; font-family: &quot;Helvetica Neue&quot;, sans-serif; font-size: 12px; font-weight: 200;" fill="rgb(50, 49, 63)" stroke="none" stroke-width="1px">130</text></g><line x1="0" y1="0" x2="272" y2="0" fill="rgb(0, 0, 0)" stroke="rgb(204, 204, 204)" stroke-width="1px"></line></g></g></g></g></svg>