<svg viewBox="0 0 330 200" xmlns="http://www.w3.org/2000/svg"><g><g><g><g><g><line x1="58" y1="165.28571428571442" x2="53" y2="165.28571428571442" style="visibility: inherit;" fill="rgb(0, 0, 0)" stroke="rgb(204, 204, 204)" stroke-width="1px"></line><line x1="58" y1="152.57142857142867" x2="53" y2="152.57142857142867" style="visibility: inherit;" fill="rgb(0, 0, 0)" stroke="rgb(204, 204, 204)" stroke-width="1px"></line><line x1="58" y1="139.85714285714295" x2="53" y2="139.85714285714295" style="visibility: inherit;" fill="rgb(0, 0, 0)" stroke="rgb(204, 204, 204)" stroke-width="1px"></line><line x1="58" y1="127.1428571428572" x2="53" y2="127.1428571428572" style="visibility: inherit;" fill="rgb(0, 0, 0)" stroke="rgb(204, 204, 204)" stroke-width="1px"></line><line x1="58" y1="114.42857142857147" x2="53" y2="114.42857142857147" style="visibility: inherit;" fill="rgb(0, 0, 0)" stroke="rgb(204, 204, 204)" stroke-width="1px"></line><line x1="58" y1="101.71428571428574" x2="53" y2="101.71428571428574" style="visibility: inherit;" fill="rgb(0, 0, 0)" stroke="rgb(204, 204, 204)" stroke-width="1px"></line><line x1="58" y1="89" x2="53" y2="89" style="visibility: inherit;" fill="rgb(0, 0, 0)" stroke="rgb(204, 204, 204)" stroke-width="1px"></line><line x1="58" y1="76.28571428571428" x2="53" y2="76.28571428571428" style="visibility: inherit;" fill="rgb(0, 0, 0)" stroke="rgb(204, 204, 204)" stroke-width="1px"></line><line x1="58" y1="63.57142857142853" x2="53" y2="63.57142857142853" style="visibility: inherit;" fill="rgb(0, 0, 0)" stroke="rgb(204, 204, 204)" stroke-width="1px"></line><line x1="58" y1="50.85714285714279" x2="53" y2="50.85714285714279" style="visibility: inherit;" fill="rgb(0, 0, 0)" stroke="rgb(204, 204, 204)" stroke-width="1px"></line><line x1="58" y1="38.14285714285705" x2="53" y2="38.14285714285705" style="visibility: inherit;" fill="rgb(0, 0, 0)" stroke="rgb(204, 204, 204)" stroke-width="1px"></line><line x1="58" y1="25.42857142857133" x2="53" y2="25.42857142857133" style="visibility: inherit;" fill="rgb(0, 0, 0)" stroke="rgb(204, 204, 204)" stroke-width="1px"></line><line x1="58" y1="12.714285714285722" x2="53" y2="12.714285714285722" style="visibility: inherit;" fill="rgb(0, 0, 0)" stroke="rgb(204, 204, 204)" stroke-width="1px"></line><line x1="58" y1="0" x2="53" y2="0" style="visibility: inherit;" fill="rgb(0, 0, 0)" stroke="rgb(204, 204, 204)" stroke-width="1px"></line></g><g transform="translate(48, 0)"><text x="0" y="165.28571428571442" dx="0em" dy="0.3em" style="text-anchor: end; visibility: inherit; font-family: &quot;Helvetica Neue&quot;, sans-serif; font-size: 12px; font-weight: 200;" fill="rgb(50, 49, 63)" stroke="none" stroke-width="1px">0.57</text><text x="0" y="152.57142857142867" dx="0em" dy="0.3em" style="text-anchor: end; visibility: hidden; font-family: &quot;Helvetica Neue&quot;, sans-serif; font-size: 12px; font-weight: 200;" fill="rgb(50, 49, 63)" stroke="none" stroke-width="1px">0.58</text><text x="0" y="139.85714285714295" dx="0em" dy="0.3em" style="text-anchor: end; visibility: inherit; font-family: &quot;Helvetica Neue&quot;, sans-serif; font-size: 12px; font-weight: 200;" fill="rgb(50, 49, 63)" stroke="none" stroke-width="1px">0.59</text><text x="0" y="127.1428571428572" dx="0em" dy="0.3em" style="text-anchor: end; visibility: hidden; font-family: &quot;Helvetica Neue&quot;, sans-serif; font-size: 12px; font-weight: 200;" fill="rgb(50, 49, 63)" stroke="none" stroke-width="1px">0.6</text><text x="0" y="114.42857142857147" dx="0em" dy="0.3em" style="text-anchor: end; visibility: inherit; font-family: &quot;Helvetica Neue&quot;, sans-serif; font-size: 12px; font-weight: 200;" fill="rgb(50, 49, 63)" stroke="none" stroke-width="1px">0.61</text><text x="0" y="101.71428571428574" dx="0em" dy="0.3em" style="text-anchor: end; visibility: hidden; font-family: &quot;Helvetica Neue&quot;, sans-serif; font-size: 12px; font-weight: 200;" fill="rgb(50, 49, 63)" stroke="none" stroke-width="1px">0.62</text><text x="0" y="89" dx="0em" dy="0.3em" style="text-anchor: end; visibility: inherit; font-family: &quot;Helvetica Neue&quot;, sans-serif; font-size: 12px; font-weight: 200;" fill="rgb(50, 49, 63)" stroke="none" stroke-width="1px">0.63</text><text x="0" y="76.28571428571428" dx="0em" dy="0.3em" style="text-anchor: end; visibility: hidden; font-family: &quot;Helvetica Neue&quot;, sans-serif; font-size: 12px; font-weight: 200;" fill="rgb(50, 49, 63)" stroke="none" stroke-width="1px">0.64</text><text x="0" y="63.57142857142853" dx="0em" dy="0.3em" style="text-anchor: end; visibility: inherit; font-family: &quot;Helvetica Neue&quot;, sans-serif; font-size: 12px; font-weight: 200;" fill="rgb(50, 49, 63)" stroke="none" stroke-width="1px">0.65</text><text x="0" y="50.85714285714279" dx="0em" dy="0.3em" style="text-anchor: end; visibility: hidden; font-family: &quot;Helvetica Neue&quot;, sans-serif; font-size: 12px; font-weight: 200;" fill="rgb(50, 49, 63)" stroke="none" stroke-width="1px">0.66</text><text x="0" y="38.14285714285705" dx="0em" dy="0.3em" style="text-anchor: end; visibility: inherit; font-family: &quot;Helvetica Neue&quot;, sans-serif; font-size: 12px; font-weight: 200;" fill="rgb(50, 49, 63)" stroke="none" stroke-width="1px">0.67</text><text x="0" y="25.42857142857133" dx="0em" dy="0.3em" style="text-anchor: end; visibility: hidden; font-family: &quot;Helvetica Neue&quot;, sans-serif; font-size: 12px; font-weight: 200;" fill="rgb(50, 49, 63)" stroke="none" stroke-width="1px">0.68</text><text x="0" y="12.714285714285722" dx="0em" dy="0.3em" style="text-anchor: end; visibility: inherit; font-family: &quot;Helvetica Neue&quot;, sans-serif; font-size: 12px; font-weight: 200;" fill="rgb(50, 49, 63)" stroke="none" stroke-width="1px">0.69</text><text x="0" y="0" dx="0em" dy="0.3em" style="text-anchor: end; visibility: hidden; font-family: &quot;Helvetica Neue&quot;, sans-serif; font-size: 12px; font-weight: 200;" fill="rgb(50, 49, 63)" stroke="none" stroke-width="1px">0.7</text></g><line x1="58" y1="0" x2="58" y2="178" fill="rgb(0, 0, 0)" stroke="rgb(204, 204, 204)" stroke-width="1px"></line></g></g><g transform="translate(58, 0)" clip-path="url(#clip_0)"><clipPath id="clip_0"><rect width="272" height="178"></rect></clipPath><g><g><g><line x1="0" y1="0" x2="0" y2="178" fill="rgb(0, 0, 0)" stroke="rgb(60, 60, 60)" stroke-width="1px" opacity="0.25"></line><line x1="19.428571428571427" y1="0" x2="19.428571428571427" y2="178" fill="rgb(0, 0, 0)" stroke="rgb(60, 60, 60)" stroke-width="1px" opacity="0.25"></line><line x1="38.857142857142854" y1="0" x2="38.857142857142854" y2="178" fill="rgb(0, 0, 0)" stroke="rgb(60, 60, 60)" stroke-width="1px" opacity="0.25"></line><line x1="58.285714285714285" y1="0" x2="58.285714285714285" y2="178" fill="rgb(0, 0, 0)" stroke="rgb(60, 60, 60)" stroke-width="1px" opacity="0.25"></line><line x1="77.71428571428571" y1="0" x2="77.71428571428571" y2="178" fill="rgb(0, 0, 0)" stroke="rgb(60, 60, 60)" stroke-width="1px" opacity="0.25"></line><line x1="97.14285714285714" y1="0" x2="97.14285714285714" y2="178" fill="rgb(0, 0, 0)" stroke="rgb(60, 60, 60)" stroke-width="1px" opacity="0.25"></line><line x1="116.57142857142857" y1="0" x2="116.57142857142857" y2="178" fill="rgb(0, 0, 0)" stroke="rgb(60, 60, 60)" stroke-width="1px" opacity="0.25"></line><line x1="136" y1="0" x2="136" y2="178" fill="rgb(0, 0, 0)" stroke="rgb(60, 60, 60)" stroke-width="1px" opacity="0.25"></line><line x1="155.42857142857142" y1="0" x2="155.42857142857142" y2="178" fill="rgb(0, 0, 0)" stroke="rgb(60, 60, 60)" stroke-width="1px" opacity="0.25"></line><line x1="174.85714285714286" y1="0" x2="174.85714285714286" y2="178" fill="rgb(0, 0, 0)" stroke="rgb(60, 60, 60)" stroke-width="1px" opacity="0.25"></line><line x1="194.28571428571428" y1="0" x2="194.28571428571428" y2="178" fill="rgb(0, 0, 0)" stroke="rgb(60, 60, 60)" stroke-width="1px" opacity="0.25"></line><line x1="213.71428571428572" y1="0" x2="213.71428571428572" y2="178" fill="rgb(0, 0, 0)" stroke="rgb(60, 60, 60)" stroke-width="1px" opacity="0.25"></line><line x1="233.14285714285714" y1="0" x2="233.14285714285714" y2="178" fill="rgb(0, 0, 0)" stroke="rgb(60, 60, 60)" stroke-width="1px" opacity="0.25"></line><line x1="252.57142857142858" y1="0" x2="252.57142857142858" y2="178" fill="rgb(0, 0, 0)" stroke="rgb(60, 60, 60)" stroke-width="1px" opacity="0.25"></line><line x1="272" y1="0" x2="272" y2="178" fill="rgb(0, 0, 0)" stroke="rgb(60, 60, 60)" stroke-width="1px" opacity="0.25"></line></g><g><line x1="0" y1="165.28571428571442" x2="272" y2="165.28571428571442" fill="rgb(0, 0, 0)" stroke="rgb(60, 60, 60)" stroke-width="1px" opacity="0.25"></line><line x1="0" y1="152.57142857142867" x2="272" y2="152.57142857142867" fill="rgb(0, 0, 0)" stroke="rgb(60, 60, 60)" stroke-width="1px" opacity="0.25"></line><line x1="0" y1="139.85714285714295" x2="272" y2="139.85714285714295" fill="rgb(0, 0, 0)" stroke="rgb(60, 60, 60)" stroke-width="1px" opacity="0.25"></line><line x1="0" y1="127.1428571428572" x2="272" y2="127.1428571428572" fill="rgb(0, 0, 0)" stroke="rgb(60, 60, 60)" stroke-width="1px" opacity="0.25"></line><line x1="0" y1="114.42857142857147" x2="272" y2="114.42857142857147" fill="rgb(0, 0, 0)" stroke="rgb(60, 60, 60)" stroke-width="1px" opacity="0.25"></line><line x1="0" y1="101.71428571428574" x2="272" y2="101.71428571428574" fill="rgb(0, 0, 0)" stroke="rgb(60, 60, 60)" stroke-width="1px" opacity="0.25"></line><line x1="0" y1="89" x2="272" y2="89" fill="rgb(0, 0, 0)" stroke="rgb(60, 60, 60)" stroke-width="1px" opacity="0.25"></line><line x1="0" y1="76.28571428571428" x2="272" y2="76.28571428571428" fill="rgb(0, 0, 0)" stroke="rgb(60, 60, 60)" stroke-width="1px" opacity="0.25"></line><line x1="0" y1="63.57142857142853" x2="272" y2="63.57142857142853" fill="rgb(0, 0, 0)" stroke="rgb(60, 60, 60)" stroke-width="1px" opacity="0.25"></line><line x1="0" y1="50.85714285714279" x2="272" y2="50.85714285714279" fill="rgb(0, 0, 0)" stroke="rgb(60, 60, 60)" stroke-width="1px" opacity="0.25"></line><line x1="0" y1="38.14285714285705" x2="272" y2="38.14285714285705" fill="rgb(0, 0, 0)" stroke="rgb(60, 60, 60)" stroke-width="1px" opacity="0.25"></line><line x1="0" y1="25.42857142857133" x2="272" y2="25.42857142857133" fill="rgb(0, 0, 0)" stroke="rgb(60, 60, 60)" stroke-width="1px" opacity="0.25"></line><line x1="0" y1="12.714285714285722" x2="272" y2="12.714285714285722" fill="rgb(0, 0, 0)" stroke="rgb(60, 60, 60)" stroke-width="1px" opacity="0.25"></line><line x1="0" y1="0" x2="272" y2="0" fill="rgb(0, 0, 0)" stroke="rgb(60, 60, 60)" stroke-width="1px" opacity="0.25"></line></g></g></g><g><g><line x1="0" y1="890.0000000000007" x2="272" y2="890.0000000000007" fill="rgb(0, 0, 0)" stroke="rgb(153, 153, 153)" stroke-width="1.5px"></line></g></g><g><g><line x1="19.428571428571427" y1="0" x2="19.428571428571427" y2="178" fill="rgb(0, 0, 0)" stroke="rgb(153, 153, 153)" stroke-width="1.5px"></line></g></g><g><g><g><g><g><path stroke="rgb(255, 112, 67)" stroke-width="2px" d="M21.37142857142857,115.45154861041479L23.314285714285713,115.45154861041479L25.25714285714286,115.45154861041479L27.200000000000003,115.45154861041495L29.142857142857142,90.09742522424048L31.085714285714285,63.945028216414954L33.028571428571425,55.07097096885829L34.97142857142857,85.58132058379526L36.91428571428571,162.60780517035445L38.857142857142854,131.86813815897682L40.8,195.6808033785392L42.74285714285714,151.80229413159793L44.68571428571428,207.48250871588334L46.628571428571426,147.24032964196604L48.57142857142857,122.82204274166331L50.51428571428572,96.48382803765388L52.45714285714286,104.07220072476036L54.400000000000006,96.93192133672433L56.34285714285715,98.49423591605441L58.285714285714285,87.73981257468304L60.22857142857143,69.59586036980059L62.17142857142857,158.0870909709165L64.11428571428571,141.0327393433468L66.05714285714285,113.26317624703563L68,84.91019598785621L69.94285714285714,79.5897727408511L71.88571428571429,88.0888602561041L73.82857142857142,145.79917485394918L75.77142857142857,98.5862268331183L77.71428571428571,81.94976511448371L79.65714285714286,66.12222781723135L81.6,62.47136909227984L83.54285714285714,48.58956010915185L85.48571428571428,40.260475143521006L87.42857142857143,35.263024316870656L89.37142857142857,32.264553875862816L91.3142857142857,30.465471631051543L93.25714285714285,29.386022291290658L95.19999999999999,22.89269083244946L97.14285714285714,18.996691966403375L99.08571428571427,16.659092650108988L101.02857142857144,21.102194908871326L102.97142857142856,23.768056262760354L104.91428571428573,31.213204606920442L106.85714285714286,41.525955457724734L108.80000000000001,41.86794412263072L110.74285714285715,36.227505790035224L112.6857142857143,26.997580945955576L114.62857142857143,33.15091941563054L116.57142857142857,42.68858434195599L118.51428571428572,42.56552145314754L120.45714285714286,42.491683719862834L122.4,42.44738107989201L124.34285714285714,42.42079949590959L126.28571428571429,42.40485054552022L128.22857142857143,42.39528117528664L130.17142857142858,36.54390802183855L132.1142857142857,44.72437750560465L134.05714285714288,49.63265919586371L136,46.73196636549247L137.94285714285712,44.99155066726999L139.88571428571427,43.94730124833649L141.82857142857145,43.320751596976464L143.77142857142857,42.944821806160405L145.71428571428572,42.71926393167061L147.65714285714284,42.58392920697679L149.60000000000002,42.502728372160675L151.54285714285714,42.4540078712709L153.4857142857143,36.579144039430474L155.42857142857142,33.0542257403261L157.3714285714286,30.939274760863526L159.31428571428572,35.51593570449245L161.25714285714287,44.10759411519581L163.2,43.41692731709213L165.14285714285714,43.002527238229646L167.0857142857143,42.75388719091225L169.02857142857144,42.60470316252187L170.97142857142856,42.51519274548761L172.9142857142857,42.46148649526711L174.85714285714286,42.42926274513482L176.8,42.40992849505528L178.74285714285713,36.552696413700914L180.68571428571428,38.883988696195104L182.6285714285714,34.43713253438489L184.57142857142858,37.61465036860551L186.5142857142857,39.521161069137804L188.45714285714286,40.66506748945716L190.39999999999998,41.3514113416488L192.34285714285716,41.76321765296373L194.28571428571428,42.01030143975274L196.22857142857143,42.15855171182602L198.17142857142855,42.24750187507007L200.11428571428573,36.45524044170983L202.05714285714288,32.97988358169383L204,36.74030099699081L205.94285714285712,33.15091991486224L207.88571428571427,30.997291265585204L209.82857142857145,35.55074560732561L211.77142857142857,38.28281821236982L213.71428571428572,34.076430244089664L215.65714285714284,37.39822899442822L217.60000000000002,39.391308244631404L219.54285714285714,40.587155794753414L221.4857142857143,41.30466432482643L223.42857142857142,35.88953791156362L225.3714285714286,38.48609359491272L227.31428571428572,34.19839547361556L229.25714285714287,37.47140813214372L231.2,39.43521572726067L233.14285714285714,40.61350028433077L235.0857142857143,35.47483948726631L237.02857142857144,38.23727454033431L238.97142857142856,39.89473557217505L240.9142857142857,40.88921219127943L242.85714285714286,41.4858981627421L244.8,41.843909745619726L246.74285714285713,36.213085164039654L248.68571428571428,32.83459041509161L250.6285714285714,30.80749356572275L252.57142857142858,29.5912354561014" style="fill: none;" fill="none"></path></g></g></g></g><g opacity="0.2"><g><g><g><path stroke="rgb(255, 112, 67)" stroke-width="2px" d="M21.37142857142857,115.45154861041479L23.314285714285713,115.45154861041479L25.25714285714286,115.45154861041479L27.200000000000003,115.45154861041479L29.142857142857142,56.99508173125129L31.085714285714285,27.766848291669533L33.028571428571425,42.380927119936246L34.97142857142857,130.06570322172985L36.91428571428571,276.2069083111628L38.857142857142854,86.22331517083305L40.8,290.8210250309537L42.74285714285714,86.22331517083305L44.68571428571428,290.8210250309537L46.628571428571426,56.99508173125129L48.57142857142857,86.22331517083305L50.51428571428572,56.99508173125129L52.45714285714286,115.45154861041479L54.400000000000006,86.22331517083305L56.34285714285715,100.8374697821481L58.285714285714285,71.60916055951799L60.22857142857143,42.380927119936246L62.17142857142857,290.8210250309537L64.11428571428571,115.45154861041479L66.05714285714285,71.60916055951799L68,42.380927119936246L69.94285714285714,71.60916055951799L71.88571428571429,100.8374697821481L73.82857142857142,232.36455815179016L75.77142857142857,27.766848291669533L77.71428571428571,56.99508173125129L79.65714285714286,42.380927119936246L81.6,56.99508173125129L83.54285714285714,27.766848291669533L85.48571428571428,27.766848291669533L87.42857142857143,27.766848291669533L89.37142857142857,27.766848291669533L91.3142857142857,27.766848291669533L93.25714285714285,27.766848291669533L95.19999999999999,13.152693680354474L97.14285714285714,13.152693680354474L99.08571428571427,13.152693680354474L101.02857142857144,27.766848291669533L102.97142857142856,27.766848291669533L104.91428571428573,42.380927119936246L106.85714285714286,56.99508173125129L108.80000000000001,42.380927119936246L110.74285714285715,27.766848291669533L112.6857142857143,13.152693680354474L114.62857142857143,42.380927119936246L116.57142857142857,56.99508173125129L118.51428571428572,42.380927119936246L120.45714285714286,42.380927119936246L122.4,42.380927119936246L124.34285714285714,42.380927119936246L126.28571428571429,42.380927119936246L128.22857142857143,42.380927119936246L130.17142857142858,27.766848291669533L132.1142857142857,56.99508173125129L134.05714285714288,56.99508173125129L136,42.380927119936246L137.94285714285712,42.380927119936246L139.88571428571427,42.380927119936246L141.82857142857145,42.380927119936246L143.77142857142857,42.380927119936246L145.71428571428572,42.380927119936246L147.65714285714284,42.380927119936246L149.60000000000002,42.380927119936246L151.54285714285714,42.380927119936246L153.4857142857143,27.766848291669533L155.42857142857142,27.766848291669533L157.3714285714286,27.766848291669533L159.31428571428572,42.380927119936246L161.25714285714287,56.99508173125129L163.2,42.380927119936246L165.14285714285714,42.380927119936246L167.0857142857143,42.380927119936246L169.02857142857144,42.380927119936246L170.97142857142856,42.380927119936246L172.9142857142857,42.380927119936246L174.85714285714286,42.380927119936246L176.8,42.380927119936246L178.74285714285713,27.766848291669533L180.68571428571428,42.380927119936246L182.6285714285714,27.766848291669533L184.57142857142858,42.380927119936246L186.5142857142857,42.380927119936246L188.45714285714286,42.380927119936246L190.39999999999998,42.380927119936246L192.34285714285716,42.380927119936246L194.28571428571428,42.380927119936246L196.22857142857143,42.380927119936246L198.17142857142855,42.380927119936246L200.11428571428573,27.766848291669533L202.05714285714288,27.766848291669533L204,42.380927119936246L205.94285714285712,27.766848291669533L207.88571428571427,27.766848291669533L209.82857142857145,42.380927119936246L211.77142857142857,42.380927119936246L213.71428571428572,27.766848291669533L215.65714285714284,42.380927119936246L217.60000000000002,42.380927119936246L219.54285714285714,42.380927119936246L221.4857142857143,42.380927119936246L223.42857142857142,27.766848291669533L225.3714285714286,42.380927119936246L227.31428571428572,27.766848291669533L229.25714285714287,42.380927119936246L231.2,42.380927119936246L233.14285714285714,42.380927119936246L235.0857142857143,27.766848291669533L237.02857142857144,42.380927119936246L238.97142857142856,42.380927119936246L240.9142857142857,42.380927119936246L242.85714285714286,42.380927119936246L244.8,42.380927119936246L246.74285714285713,27.766848291669533L248.68571428571428,27.766848291669533L250.6285714285714,27.766848291669533L252.57142857142858,27.766848291669533" style="fill: none;" fill="none"></path></g></g></g></g></g></g><g transform="translate(58, 178)" clip-path="url(#clip_1)"><clipPath id="clip_1"><rect width="272" height="22"></rect></clipPath><g><g><line x1="0" y1="0" x2="0" y2="5" style="visibility: inherit;" fill="rgb(0, 0, 0)" stroke="rgb(204, 204, 204)" stroke-width="1px"></line><line x1="19.428571428571427" y1="0" x2="19.428571428571427" y2="5" style="visibility: inherit;" fill="rgb(0, 0, 0)" stroke="rgb(204, 204, 204)" stroke-width="1px"></line><line x1="38.857142857142854" y1="0" x2="38.857142857142854" y2="5" style="visibility: inherit;" fill="rgb(0, 0, 0)" stroke="rgb(204, 204, 204)" stroke-width="1px"></line><line x1="58.285714285714285" y1="0" x2="58.285714285714285" y2="5" style="visibility: inherit;" fill="rgb(0, 0, 0)" stroke="rgb(204, 204, 204)" stroke-width="1px"></line><line x1="77.71428571428571" y1="0" x2="77.71428571428571" y2="5" style="visibility: inherit;" fill="rgb(0, 0, 0)" stroke="rgb(204, 204, 204)" stroke-width="1px"></line><line x1="97.14285714285714" y1="0" x2="97.14285714285714" y2="5" style="visibility: inherit;" fill="rgb(0, 0, 0)" stroke="rgb(204, 204, 204)" stroke-width="1px"></line><line x1="116.57142857142857" y1="0" x2="116.57142857142857" y2="5" style="visibility: inherit;" fill="rgb(0, 0, 0)" stroke="rgb(204, 204, 204)" stroke-width="1px"></line><line x1="136" y1="0" x2="136" y2="5" style="visibility: inherit;" fill="rgb(0, 0, 0)" stroke="rgb(204, 204, 204)" stroke-width="1px"></line><line x1="155.42857142857142" y1="0" x2="155.42857142857142" y2="5" style="visibility: inherit;" fill="rgb(0, 0, 0)" stroke="rgb(204, 204, 204)" stroke-width="1px"></line><line x1="174.85714285714286" y1="0" x2="174.85714285714286" y2="5" style="visibility: inherit;" fill="rgb(0, 0, 0)" stroke="rgb(204, 204, 204)" stroke-width="1px"></line><line x1="194.28571428571428" y1="0" x2="194.28571428571428" y2="5" style="visibility: inherit;" fill="rgb(0, 0, 0)" stroke="rgb(204, 204, 204)" stroke-width="1px"></line><line x1="213.71428571428572" y1="0" x2="213.71428571428572" y2="5" style="visibility: inherit;" fill="rgb(0, 0, 0)" stroke="rgb(204, 204, 204)" stroke-width="1px"></line><line x1="233.14285714285714" y1="0" x2="233.14285714285714" y2="5" style="visibility: inherit;" fill="rgb(0, 0, 0)" stroke="rgb(204, 204, 204)" stroke-width="1px"></line><line x1="252.57142857142858" y1="0" x2="252.57142857142858" y2="5" style="visibility: inherit;" fill="rgb(0, 0, 0)" stroke="rgb(204, 204, 204)" stroke-width="1px"></line><line x1="272" y1="0" x2="272" y2="5" style="visibility: inherit;" fill="rgb(0, 0, 0)" stroke="rgb(204, 204, 204)" stroke-width="1px"></line></g><g transform="translate(0, 8)"><text x="0" y="0" dx="0em" dy="0.95em" style="text-anchor: middle; visibility: hidden; font-family: &quot;Helvetica Neue&quot;, sans-serif; font-size: 12px; font-weight: 200;" fill="rgb(50, 49, 63)" stroke="none" stroke-width="1px">-10</text><text x="19.428571428571427" y="0" dx="0em" dy="0.95em" style="text-anchor: middle; visibility: inherit; font-family: &quot;Helvetica Neue&quot;, sans-serif; font-size: 12px; font-weight: 200;" fill="rgb(50, 49, 63)" stroke="none" stroke-width="1px">0</text><text x="38.857142857142854" y="0" dx="0em" dy="0.95em" style="text-anchor: middle; visibility: hidden; font-family: &quot;Helvetica Neue&quot;, sans-serif; font-size: 12px; font-weight: 200;" fill="rgb(50, 49, 63)" stroke="none" stroke-width="1px">10</text><text x="58.285714285714285" y="0" dx="0em" dy="0.95em" style="text-anchor: middle; visibility: inherit; font-family: &quot;Helvetica Neue&quot;, sans-serif; font-size: 12px; font-weight: 200;" fill="rgb(50, 49, 63)" stroke="none" stroke-width="1px">20</text><text x="77.71428571428571" y="0" dx="0em" dy="0.95em" style="text-anchor: middle; visibility: hidden; font-family: &quot;Helvetica Neue&quot;, sans-serif; font-size: 12px; font-weight: 200;" fill="rgb(50, 49, 63)" stroke="none" stroke-width="1px">30</text><text x="97.14285714285714" y="0" dx="0em" dy="0.95em" style="text-anchor: middle; visibility: inherit; font-family: &quot;Helvetica Neue&quot;, sans-serif; font-size: 12px; font-weight: 200;" fill="rgb(50, 49, 63)" stroke="none" stroke-width="1px">40</text><text x="116.57142857142857" y="0" dx="0em" dy="0.95em" style="text-anchor: middle; visibility: hidden; font-family: &quot;Helvetica Neue&quot;, sans-serif; font-size: 12px; font-weight: 200;" fill="rgb(50, 49, 63)" stroke="none" stroke-width="1px">50</text><text x="136" y="0" dx="0em" dy="0.95em" style="text-anchor: middle; visibility: inherit; font-family: &quot;Helvetica Neue&quot;, sans-serif; font-size: 12px; font-weight: 200;" fill="rgb(50, 49, 63)" stroke="none" stroke-width="1px">60</text><text x="155.42857142857142" y="0" dx="0em" dy="0.95em" style="text-anchor: middle; visibility: hidden; font-family: &quot;Helvetica Neue&quot;, sans-serif; font-size: 12px; font-weight: 200;" fill="rgb(50, 49, 63)" stroke="none" stroke-width="1px">70</text><text x="174.85714285714286" y="0" dx="0em" dy="0.95em" style="text-anchor: middle; visibility: inherit; font-family: &quot;Helvetica Neue&quot;, sans-serif; font-size: 12px; font-weight: 200;" fill="rgb(50, 49, 63)" stroke="none" stroke-width="1px">80</text><text x="194.28571428571428" y="0" dx="0em" dy="0.95em" style="text-anchor: middle; visibility: hidden; font-family: &quot;Helvetica Neue&quot;, sans-serif; font-size: 12px; font-weight: 200;" fill="rgb(50, 49, 63)" stroke="none" stroke-width="1px">90</text><text x="213.71428571428572" y="0" dx="0em" dy="0.95em" style="text-anchor: middle; visibility: inherit; font-family: &quot;Helvetica Neue&quot;, sans-serif; font-size: 12px; font-weight: 200;" fill="rgb(50, 49, 63)" stroke="none" stroke-width="1px">100</text><text x="233.14285714285714" y="0" dx="0em" dy="0.95em" style="text-anchor: middle; visibility: hidden; font-family: &quot;Helvetica Neue&quot;, sans-serif; font-size: 12px; font-weight: 200;" fill="rgb(50, 49, 63)" stroke="none" stroke-width="1px">110</text><text x="252.57142857142858" y="0" dx="0em" dy="0.95em" style="text-anchor: middle; visibility: inherit; font-family: &quot;Helvetica Neue&quot;, sans-serif; font-size: 12px; font-weight: 200;" fill="rgb(50, 49, 63)" stroke="none" stroke-width="1px">120</text><text x="272" y="0" dx="0em" dy="0.95em" style="text-anchor: middle; visibility: hidden; font-family: &quot;Helvetica Neue&quot;, sans-serif; font-size: 12px; font-weight: 200;" fill="rgb(50, 49, 63)" stroke="none" stroke-width="1px">130</text></g><line x1="0" y1="0" x2="272" y2="0" fill="rgb(0, 0, 0)" stroke="rgb(204, 204, 204)" stroke-width="1px"></line></g></g></g></g></svg>