<svg viewBox="0 0 330 200" xmlns="http://www.w3.org/2000/svg"><g><g><g><g><g><line x1="58" y1="178" x2="53" y2="178" style="visibility: inherit;" fill="rgb(0, 0, 0)" stroke="rgb(204, 204, 204)" stroke-width="1px"></line><line x1="58" y1="158.2222222222222" x2="53" y2="158.2222222222222" style="visibility: inherit;" fill="rgb(0, 0, 0)" stroke="rgb(204, 204, 204)" stroke-width="1px"></line><line x1="58" y1="138.4444444444444" x2="53" y2="138.4444444444444" style="visibility: inherit;" fill="rgb(0, 0, 0)" stroke="rgb(204, 204, 204)" stroke-width="1px"></line><line x1="58" y1="118.6666666666667" x2="53" y2="118.6666666666667" style="visibility: inherit;" fill="rgb(0, 0, 0)" stroke="rgb(204, 204, 204)" stroke-width="1px"></line><line x1="58" y1="98.8888888888889" x2="53" y2="98.8888888888889" style="visibility: inherit;" fill="rgb(0, 0, 0)" stroke="rgb(204, 204, 204)" stroke-width="1px"></line><line x1="58" y1="79.1111111111111" x2="53" y2="79.1111111111111" style="visibility: inherit;" fill="rgb(0, 0, 0)" stroke="rgb(204, 204, 204)" stroke-width="1px"></line><line x1="58" y1="59.3333333333333" x2="53" y2="59.3333333333333" style="visibility: inherit;" fill="rgb(0, 0, 0)" stroke="rgb(204, 204, 204)" stroke-width="1px"></line><line x1="58" y1="39.555555555555486" x2="53" y2="39.555555555555486" style="visibility: inherit;" fill="rgb(0, 0, 0)" stroke="rgb(204, 204, 204)" stroke-width="1px"></line><line x1="58" y1="19.777777777777686" x2="53" y2="19.777777777777686" style="visibility: inherit;" fill="rgb(0, 0, 0)" stroke="rgb(204, 204, 204)" stroke-width="1px"></line><line x1="58" y1="0" x2="53" y2="0" style="visibility: inherit;" fill="rgb(0, 0, 0)" stroke="rgb(204, 204, 204)" stroke-width="1px"></line></g><g transform="translate(48, 0)"><text x="0" y="178" dx="0em" dy="0.3em" style="text-anchor: end; visibility: hidden; font-family: &quot;Helvetica Neue&quot;, sans-serif; font-size: 12px; font-weight: 200;" fill="rgb(50, 49, 63)" stroke="none" stroke-width="1px">0.52</text><text x="0" y="158.2222222222222" dx="0em" dy="0.3em" style="text-anchor: end; visibility: inherit; font-family: &quot;Helvetica Neue&quot;, sans-serif; font-size: 12px; font-weight: 200;" fill="rgb(50, 49, 63)" stroke="none" stroke-width="1px">0.54</text><text x="0" y="138.4444444444444" dx="0em" dy="0.3em" style="text-anchor: end; visibility: hidden; font-family: &quot;Helvetica Neue&quot;, sans-serif; font-size: 12px; font-weight: 200;" fill="rgb(50, 49, 63)" stroke="none" stroke-width="1px">0.56</text><text x="0" y="118.6666666666667" dx="0em" dy="0.3em" style="text-anchor: end; visibility: inherit; font-family: &quot;Helvetica Neue&quot;, sans-serif; font-size: 12px; font-weight: 200;" fill="rgb(50, 49, 63)" stroke="none" stroke-width="1px">0.58</text><text x="0" y="98.8888888888889" dx="0em" dy="0.3em" style="text-anchor: end; visibility: hidden; font-family: &quot;Helvetica Neue&quot;, sans-serif; font-size: 12px; font-weight: 200;" fill="rgb(50, 49, 63)" stroke="none" stroke-width="1px">0.6</text><text x="0" y="79.1111111111111" dx="0em" dy="0.3em" style="text-anchor: end; visibility: inherit; font-family: &quot;Helvetica Neue&quot;, sans-serif; font-size: 12px; font-weight: 200;" fill="rgb(50, 49, 63)" stroke="none" stroke-width="1px">0.62</text><text x="0" y="59.3333333333333" dx="0em" dy="0.3em" style="text-anchor: end; visibility: hidden; font-family: &quot;Helvetica Neue&quot;, sans-serif; font-size: 12px; font-weight: 200;" fill="rgb(50, 49, 63)" stroke="none" stroke-width="1px">0.64</text><text x="0" y="39.555555555555486" dx="0em" dy="0.3em" style="text-anchor: end; visibility: inherit; font-family: &quot;Helvetica Neue&quot;, sans-serif; font-size: 12px; font-weight: 200;" fill="rgb(50, 49, 63)" stroke="none" stroke-width="1px">0.66</text><text x="0" y="19.777777777777686" dx="0em" dy="0.3em" style="text-anchor: end; visibility: hidden; font-family: &quot;Helvetica Neue&quot;, sans-serif; font-size: 12px; font-weight: 200;" fill="rgb(50, 49, 63)" stroke="none" stroke-width="1px">0.68</text><text x="0" y="0" dx="0em" dy="0.3em" style="text-anchor: end; visibility: hidden; font-family: &quot;Helvetica Neue&quot;, sans-serif; font-size: 12px; font-weight: 200;" fill="rgb(50, 49, 63)" stroke="none" stroke-width="1px">0.7</text></g><line x1="58" y1="0" x2="58" y2="178" fill="rgb(0, 0, 0)" stroke="rgb(204, 204, 204)" stroke-width="1px"></line></g></g><g transform="translate(58, 0)" clip-path="url(#clip_0)"><clipPath id="clip_0"><rect width="272" height="178"></rect></clipPath><g><g><g><line x1="0" y1="0" x2="0" y2="178" fill="rgb(0, 0, 0)" stroke="rgb(60, 60, 60)" stroke-width="1px" opacity="0.25"></line><line x1="19.428571428571427" y1="0" x2="19.428571428571427" y2="178" fill="rgb(0, 0, 0)" stroke="rgb(60, 60, 60)" stroke-width="1px" opacity="0.25"></line><line x1="38.857142857142854" y1="0" x2="38.857142857142854" y2="178" fill="rgb(0, 0, 0)" stroke="rgb(60, 60, 60)" stroke-width="1px" opacity="0.25"></line><line x1="58.285714285714285" y1="0" x2="58.285714285714285" y2="178" fill="rgb(0, 0, 0)" stroke="rgb(60, 60, 60)" stroke-width="1px" opacity="0.25"></line><line x1="77.71428571428571" y1="0" x2="77.71428571428571" y2="178" fill="rgb(0, 0, 0)" stroke="rgb(60, 60, 60)" stroke-width="1px" opacity="0.25"></line><line x1="97.14285714285714" y1="0" x2="97.14285714285714" y2="178" fill="rgb(0, 0, 0)" stroke="rgb(60, 60, 60)" stroke-width="1px" opacity="0.25"></line><line x1="116.57142857142857" y1="0" x2="116.57142857142857" y2="178" fill="rgb(0, 0, 0)" stroke="rgb(60, 60, 60)" stroke-width="1px" opacity="0.25"></line><line x1="136" y1="0" x2="136" y2="178" fill="rgb(0, 0, 0)" stroke="rgb(60, 60, 60)" stroke-width="1px" opacity="0.25"></line><line x1="155.42857142857142" y1="0" x2="155.42857142857142" y2="178" fill="rgb(0, 0, 0)" stroke="rgb(60, 60, 60)" stroke-width="1px" opacity="0.25"></line><line x1="174.85714285714286" y1="0" x2="174.85714285714286" y2="178" fill="rgb(0, 0, 0)" stroke="rgb(60, 60, 60)" stroke-width="1px" opacity="0.25"></line><line x1="194.28571428571428" y1="0" x2="194.28571428571428" y2="178" fill="rgb(0, 0, 0)" stroke="rgb(60, 60, 60)" stroke-width="1px" opacity="0.25"></line><line x1="213.71428571428572" y1="0" x2="213.71428571428572" y2="178" fill="rgb(0, 0, 0)" stroke="rgb(60, 60, 60)" stroke-width="1px" opacity="0.25"></line><line x1="233.14285714285714" y1="0" x2="233.14285714285714" y2="178" fill="rgb(0, 0, 0)" stroke="rgb(60, 60, 60)" stroke-width="1px" opacity="0.25"></line><line x1="252.57142857142858" y1="0" x2="252.57142857142858" y2="178" fill="rgb(0, 0, 0)" stroke="rgb(60, 60, 60)" stroke-width="1px" opacity="0.25"></line><line x1="272" y1="0" x2="272" y2="178" fill="rgb(0, 0, 0)" stroke="rgb(60, 60, 60)" stroke-width="1px" opacity="0.25"></line></g><g><line x1="0" y1="178" x2="272" y2="178" fill="rgb(0, 0, 0)" stroke="rgb(60, 60, 60)" stroke-width="1px" opacity="0.25"></line><line x1="0" y1="158.2222222222222" x2="272" y2="158.2222222222222" fill="rgb(0, 0, 0)" stroke="rgb(60, 60, 60)" stroke-width="1px" opacity="0.25"></line><line x1="0" y1="138.4444444444444" x2="272" y2="138.4444444444444" fill="rgb(0, 0, 0)" stroke="rgb(60, 60, 60)" stroke-width="1px" opacity="0.25"></line><line x1="0" y1="118.6666666666667" x2="272" y2="118.6666666666667" fill="rgb(0, 0, 0)" stroke="rgb(60, 60, 60)" stroke-width="1px" opacity="0.25"></line><line x1="0" y1="98.8888888888889" x2="272" y2="98.8888888888889" fill="rgb(0, 0, 0)" stroke="rgb(60, 60, 60)" stroke-width="1px" opacity="0.25"></line><line x1="0" y1="79.1111111111111" x2="272" y2="79.1111111111111" fill="rgb(0, 0, 0)" stroke="rgb(60, 60, 60)" stroke-width="1px" opacity="0.25"></line><line x1="0" y1="59.3333333333333" x2="272" y2="59.3333333333333" fill="rgb(0, 0, 0)" stroke="rgb(60, 60, 60)" stroke-width="1px" opacity="0.25"></line><line x1="0" y1="39.555555555555486" x2="272" y2="39.555555555555486" fill="rgb(0, 0, 0)" stroke="rgb(60, 60, 60)" stroke-width="1px" opacity="0.25"></line><line x1="0" y1="19.777777777777686" x2="272" y2="19.777777777777686" fill="rgb(0, 0, 0)" stroke="rgb(60, 60, 60)" stroke-width="1px" opacity="0.25"></line><line x1="0" y1="0" x2="272" y2="0" fill="rgb(0, 0, 0)" stroke="rgb(60, 60, 60)" stroke-width="1px" opacity="0.25"></line></g></g></g><g><g><line x1="0" y1="692.2222222222224" x2="272" y2="692.2222222222224" fill="rgb(0, 0, 0)" stroke="rgb(153, 153, 153)" stroke-width="1.5px"></line></g></g><g><g><line x1="19.428571428571427" y1="0" x2="19.428571428571427" y2="178" fill="rgb(0, 0, 0)" stroke="rgb(153, 153, 153)" stroke-width="1.5px"></line></g></g><g><g><g><g><g><path stroke="rgb(255, 112, 67)" stroke-width="2px" d="M21.37142857142857,233.9566345347299L23.314285714285713,151.04672990739346L25.25714285714286,156.43048584731537L27.200000000000003,147.72147275531808L29.142857142857142,143.27933214281416L31.085714285714285,140.84593610374105L33.028571428571425,144.42342133455585L34.97142857142857,121.9734507165323L36.91428571428571,118.49317938084818L38.857142857142854,106.72119817405144L40.8,75.49666667022011L42.74285714285714,71.33773084217506L44.68571428571428,68.84817090533802L46.628571428571426,72.18414432708155L48.57142857142857,79.01016730405163L50.51428571428572,83.10372643474741L52.45714285714286,75.9098021078669L54.400000000000006,71.59422691318045L56.34285714285715,64.18102471719969L58.285714285714285,50.085328916183L60.22857142857143,31.980342352143765L62.17142857142857,25.941511735901457L64.11428571428571,31.966027703901432L66.05714285714285,30.756840339584954L68,34.85518894041127L69.94285714285714,32.49033877707947L71.88571428571429,50.36684913887606L73.82857142857142,61.09274364622779L75.77142857142857,62.704430719663264L77.71428571428571,58.84759787914054L79.65714285714286,56.5334987205199L81.6,50.32117182283112L83.54285714285714,51.41764344604515L85.48571428571428,56.89937016277504L87.42857142857143,60.18840609229591L89.37142857142857,62.1618276138223L91.3142857142857,68.16972418166637L93.25714285714285,66.95061844256301L95.19999999999999,61.395311353148756L97.14285714285714,53.23825988592242L99.08571428571427,43.520185370594106L101.02857142857144,42.513184306808995L102.97142857142856,41.908983668848094L104.91428571428573,46.37033050206949L106.85714285714286,49.047138601507726L108.80000000000001,50.653223460992606L110.74285714285715,56.440718014902146L112.6857142857143,55.0893711088988L114.62857142857143,49.45469575020056L116.57142857142857,41.25004689688896L118.51428571428572,36.32725758494445L120.45714285714286,38.19742763590935L122.4,39.319529666484726L124.34285714285714,44.816658099884506L126.28571428571429,48.11493515992055L128.22857142857143,54.91774503404481L130.17142857142858,58.99943095851786L132.1142857142857,66.27228615130396L134.05714285714288,70.635999266975L136,58.78267264512161L137.94285714285712,51.67067667200986L139.88571428571427,47.40347908814303L141.82857142857145,44.843160537822996L143.77142857142857,48.130836622681585L145.71428571428572,54.92728591169896L147.65714285714284,63.828999123211574L149.60000000000002,69.1700270501191L151.54285714285714,72.37464380626375L153.4857142857143,74.2974138599506L155.42857142857142,75.45107589216258L157.3714285714286,76.14327311148986L159.31428571428572,76.55859144308612L161.25714285714287,71.98393880394156L163.2,74.06299085855724L165.14285714285714,75.31042209132649L167.0857142857143,66.41119355478364L169.02857142857144,65.89550007096014L170.97142857142856,65.58608398066612L172.9142857142857,60.57659068838741L174.85714285714286,62.39473835112241L176.8,63.4856269487634L178.74285714285713,64.14016010734805L180.68571428571428,64.53288000249883L182.6285714285714,64.76851193958932L184.57142857142858,64.90989110184361L186.5142857142857,64.99471859919623L188.45714285714286,65.0456150976077L190.39999999999998,65.07615299665466L192.34285714285716,69.918319374185L194.28571428571428,72.82361920070325L196.22857142857143,69.74295545851194L198.17142857142855,72.71840085129945L200.11428571428573,64.85598081076745L202.05714285714288,64.96237242455051L204,65.0262073928204L205.94285714285712,65.06450837378232L207.88571428571427,65.08748896235939L209.82857142857145,65.10127731550563L211.77142857142857,65.1095503273934L213.71428571428572,65.11451413452613L215.65714285714284,69.94133605690791L217.60000000000002,68.01358557223469L219.54285714285714,66.8569352814309L221.4857142857143,66.16294510694857L223.42857142857142,65.74655100225917L225.3714285714286,65.49671453944556L227.31428571428572,65.34681266175743L229.25714285714287,65.25687153514453L231.2,65.20290685917668L233.14285714285714,69.99437169169822L235.0857142857143,63.22156331500673L237.02857142857144,68.80556556519628L238.97142857142856,72.15596691531007L240.9142857142857,74.16620772537824L242.85714285714286,75.37235221141925L244.8,71.27219526494163L246.74285714285713,63.988257458952816L248.68571428571428,64.44173841346178L250.6285714285714,59.88998334806483L252.57142857142858,61.98277394692886" style="fill: none;" fill="none"></path></g></g></g></g><g opacity="0.2"><g><g><g><path stroke="rgb(255, 112, 67)" stroke-width="2px" d="M21.37142857142857,233.9566345347299L23.314285714285713,101.30078713099161L25.25714285714286,161.59889154964026L27.200000000000003,137.47967335912915L29.142857142857142,137.47967335912915L31.085714285714285,137.47967335912915L33.028571428571425,149.5392824543847L34.97142857142857,89.24117803573607L36.91428571428571,113.36045516861809L38.857142857142854,89.24117803573607L40.8,28.943073617087435L42.74285714285714,65.12195984522499L44.68571428571428,65.12195984522499L46.628571428571426,77.18156894048053L48.57142857142857,89.24117803573607L50.51428571428572,89.24117803573607L52.45714285714286,65.12195984522499L54.400000000000006,65.12195984522499L56.34285714285715,53.06235074996947L58.285714285714285,28.943073617087435L60.22857142857143,4.823855426576358L62.17142857142857,16.883464521831883L64.11428571428571,41.00268271234296L66.05714285714285,28.943073617087435L68,41.00268271234296L69.94285714285714,28.943073617087435L71.88571428571429,77.18156894048053L73.82857142857142,77.18156894048053L75.77142857142857,65.12195984522499L77.71428571428571,53.06235074996947L79.65714285714286,53.06235074996947L81.6,41.00268271234296L83.54285714285714,53.06235074996947L85.48571428571428,65.12195984522499L87.42857142857143,65.12195984522499L89.37142857142857,65.12195984522499L91.3142857142857,77.18156894048053L93.25714285714285,65.12195984522499L95.19999999999999,53.06235074996947L97.14285714285714,41.00268271234296L99.08571428571427,28.943073617087435L101.02857142857144,41.00268271234296L102.97142857142856,41.00268271234296L104.91428571428573,53.06235074996947L106.85714285714286,53.06235074996947L108.80000000000001,53.06235074996947L110.74285714285715,65.12195984522499L112.6857142857143,53.06235074996947L114.62857142857143,41.00268271234296L116.57142857142857,28.943073617087435L118.51428571428572,28.943073617087435L120.45714285714286,41.00268271234296L122.4,41.00268271234296L124.34285714285714,53.06235074996947L126.28571428571429,53.06235074996947L128.22857142857143,65.12195984522499L130.17142857142858,65.12195984522499L132.1142857142857,77.18156894048053L134.05714285714288,77.18156894048053L136,41.00268271234296L137.94285714285712,41.00268271234296L139.88571428571427,41.00268271234296L141.82857142857145,41.00268271234296L143.77142857142857,53.06235074996947L145.71428571428572,65.12195984522499L147.65714285714284,77.18156894048053L149.60000000000002,77.18156894048053L151.54285714285714,77.18156894048053L153.4857142857143,77.18156894048053L155.42857142857142,77.18156894048053L157.3714285714286,77.18156894048053L159.31428571428572,77.18156894048053L161.25714285714287,65.12195984522499L163.2,77.18156894048053L165.14285714285714,77.18156894048053L167.0857142857143,53.06235074996947L169.02857142857144,65.12195984522499L170.97142857142856,65.12195984522499L172.9142857142857,53.06235074996947L174.85714285714286,65.12195984522499L176.8,65.12195984522499L178.74285714285713,65.12195984522499L180.68571428571428,65.12195984522499L182.6285714285714,65.12195984522499L184.57142857142858,65.12195984522499L186.5142857142857,65.12195984522499L188.45714285714286,65.12195984522499L190.39999999999998,65.12195984522499L192.34285714285716,77.18156894048053L194.28571428571428,77.18156894048053L196.22857142857143,65.12195984522499L198.17142857142855,77.18156894048053L200.11428571428573,53.06235074996947L202.05714285714288,65.12195984522499L204,65.12195984522499L205.94285714285712,65.12195984522499L207.88571428571427,65.12195984522499L209.82857142857145,65.12195984522499L211.77142857142857,65.12195984522499L213.71428571428572,65.12195984522499L215.65714285714284,77.18156894048053L217.60000000000002,65.12195984522499L219.54285714285714,65.12195984522499L221.4857142857143,65.12195984522499L223.42857142857142,65.12195984522499L225.3714285714286,65.12195984522499L227.31428571428572,65.12195984522499L229.25714285714287,65.12195984522499L231.2,65.12195984522499L233.14285714285714,77.18156894048053L235.0857142857143,53.06235074996947L237.02857142857144,77.18156894048053L238.97142857142856,77.18156894048053L240.9142857142857,77.18156894048053L242.85714285714286,77.18156894048053L244.8,65.12195984522499L246.74285714285713,53.06235074996947L248.68571428571428,65.12195984522499L250.6285714285714,53.06235074996947L252.57142857142858,65.12195984522499" style="fill: none;" fill="none"></path></g></g></g></g></g></g><g transform="translate(58, 178)" clip-path="url(#clip_1)"><clipPath id="clip_1"><rect width="272" height="22"></rect></clipPath><g><g><line x1="0" y1="0" x2="0" y2="5" style="visibility: inherit;" fill="rgb(0, 0, 0)" stroke="rgb(204, 204, 204)" stroke-width="1px"></line><line x1="19.428571428571427" y1="0" x2="19.428571428571427" y2="5" style="visibility: inherit;" fill="rgb(0, 0, 0)" stroke="rgb(204, 204, 204)" stroke-width="1px"></line><line x1="38.857142857142854" y1="0" x2="38.857142857142854" y2="5" style="visibility: inherit;" fill="rgb(0, 0, 0)" stroke="rgb(204, 204, 204)" stroke-width="1px"></line><line x1="58.285714285714285" y1="0" x2="58.285714285714285" y2="5" style="visibility: inherit;" fill="rgb(0, 0, 0)" stroke="rgb(204, 204, 204)" stroke-width="1px"></line><line x1="77.71428571428571" y1="0" x2="77.71428571428571" y2="5" style="visibility: inherit;" fill="rgb(0, 0, 0)" stroke="rgb(204, 204, 204)" stroke-width="1px"></line><line x1="97.14285714285714" y1="0" x2="97.14285714285714" y2="5" style="visibility: inherit;" fill="rgb(0, 0, 0)" stroke="rgb(204, 204, 204)" stroke-width="1px"></line><line x1="116.57142857142857" y1="0" x2="116.57142857142857" y2="5" style="visibility: inherit;" fill="rgb(0, 0, 0)" stroke="rgb(204, 204, 204)" stroke-width="1px"></line><line x1="136" y1="0" x2="136" y2="5" style="visibility: inherit;" fill="rgb(0, 0, 0)" stroke="rgb(204, 204, 204)" stroke-width="1px"></line><line x1="155.42857142857142" y1="0" x2="155.42857142857142" y2="5" style="visibility: inherit;" fill="rgb(0, 0, 0)" stroke="rgb(204, 204, 204)" stroke-width="1px"></line><line x1="174.85714285714286" y1="0" x2="174.85714285714286" y2="5" style="visibility: inherit;" fill="rgb(0, 0, 0)" stroke="rgb(204, 204, 204)" stroke-width="1px"></line><line x1="194.28571428571428" y1="0" x2="194.28571428571428" y2="5" style="visibility: inherit;" fill="rgb(0, 0, 0)" stroke="rgb(204, 204, 204)" stroke-width="1px"></line><line x1="213.71428571428572" y1="0" x2="213.71428571428572" y2="5" style="visibility: inherit;" fill="rgb(0, 0, 0)" stroke="rgb(204, 204, 204)" stroke-width="1px"></line><line x1="233.14285714285714" y1="0" x2="233.14285714285714" y2="5" style="visibility: inherit;" fill="rgb(0, 0, 0)" stroke="rgb(204, 204, 204)" stroke-width="1px"></line><line x1="252.57142857142858" y1="0" x2="252.57142857142858" y2="5" style="visibility: inherit;" fill="rgb(0, 0, 0)" stroke="rgb(204, 204, 204)" stroke-width="1px"></line><line x1="272" y1="0" x2="272" y2="5" style="visibility: inherit;" fill="rgb(0, 0, 0)" stroke="rgb(204, 204, 204)" stroke-width="1px"></line></g><g transform="translate(0, 8)"><text x="0" y="0" dx="0em" dy="0.95em" style="text-anchor: middle; visibility: hidden; font-family: &quot;Helvetica Neue&quot;, sans-serif; font-size: 12px; font-weight: 200;" fill="rgb(50, 49, 63)" stroke="none" stroke-width="1px">-10</text><text x="19.428571428571427" y="0" dx="0em" dy="0.95em" style="text-anchor: middle; visibility: inherit; font-family: &quot;Helvetica Neue&quot;, sans-serif; font-size: 12px; font-weight: 200;" fill="rgb(50, 49, 63)" stroke="none" stroke-width="1px">0</text><text x="38.857142857142854" y="0" dx="0em" dy="0.95em" style="text-anchor: middle; visibility: hidden; font-family: &quot;Helvetica Neue&quot;, sans-serif; font-size: 12px; font-weight: 200;" fill="rgb(50, 49, 63)" stroke="none" stroke-width="1px">10</text><text x="58.285714285714285" y="0" dx="0em" dy="0.95em" style="text-anchor: middle; visibility: inherit; font-family: &quot;Helvetica Neue&quot;, sans-serif; font-size: 12px; font-weight: 200;" fill="rgb(50, 49, 63)" stroke="none" stroke-width="1px">20</text><text x="77.71428571428571" y="0" dx="0em" dy="0.95em" style="text-anchor: middle; visibility: hidden; font-family: &quot;Helvetica Neue&quot;, sans-serif; font-size: 12px; font-weight: 200;" fill="rgb(50, 49, 63)" stroke="none" stroke-width="1px">30</text><text x="97.14285714285714" y="0" dx="0em" dy="0.95em" style="text-anchor: middle; visibility: inherit; font-family: &quot;Helvetica Neue&quot;, sans-serif; font-size: 12px; font-weight: 200;" fill="rgb(50, 49, 63)" stroke="none" stroke-width="1px">40</text><text x="116.57142857142857" y="0" dx="0em" dy="0.95em" style="text-anchor: middle; visibility: hidden; font-family: &quot;Helvetica Neue&quot;, sans-serif; font-size: 12px; font-weight: 200;" fill="rgb(50, 49, 63)" stroke="none" stroke-width="1px">50</text><text x="136" y="0" dx="0em" dy="0.95em" style="text-anchor: middle; visibility: inherit; font-family: &quot;Helvetica Neue&quot;, sans-serif; font-size: 12px; font-weight: 200;" fill="rgb(50, 49, 63)" stroke="none" stroke-width="1px">60</text><text x="155.42857142857142" y="0" dx="0em" dy="0.95em" style="text-anchor: middle; visibility: hidden; font-family: &quot;Helvetica Neue&quot;, sans-serif; font-size: 12px; font-weight: 200;" fill="rgb(50, 49, 63)" stroke="none" stroke-width="1px">70</text><text x="174.85714285714286" y="0" dx="0em" dy="0.95em" style="text-anchor: middle; visibility: inherit; font-family: &quot;Helvetica Neue&quot;, sans-serif; font-size: 12px; font-weight: 200;" fill="rgb(50, 49, 63)" stroke="none" stroke-width="1px">80</text><text x="194.28571428571428" y="0" dx="0em" dy="0.95em" style="text-anchor: middle; visibility: hidden; font-family: &quot;Helvetica Neue&quot;, sans-serif; font-size: 12px; font-weight: 200;" fill="rgb(50, 49, 63)" stroke="none" stroke-width="1px">90</text><text x="213.71428571428572" y="0" dx="0em" dy="0.95em" style="text-anchor: middle; visibility: inherit; font-family: &quot;Helvetica Neue&quot;, sans-serif; font-size: 12px; font-weight: 200;" fill="rgb(50, 49, 63)" stroke="none" stroke-width="1px">100</text><text x="233.14285714285714" y="0" dx="0em" dy="0.95em" style="text-anchor: middle; visibility: hidden; font-family: &quot;Helvetica Neue&quot;, sans-serif; font-size: 12px; font-weight: 200;" fill="rgb(50, 49, 63)" stroke="none" stroke-width="1px">110</text><text x="252.57142857142858" y="0" dx="0em" dy="0.95em" style="text-anchor: middle; visibility: inherit; font-family: &quot;Helvetica Neue&quot;, sans-serif; font-size: 12px; font-weight: 200;" fill="rgb(50, 49, 63)" stroke="none" stroke-width="1px">120</text><text x="272" y="0" dx="0em" dy="0.95em" style="text-anchor: middle; visibility: hidden; font-family: &quot;Helvetica Neue&quot;, sans-serif; font-size: 12px; font-weight: 200;" fill="rgb(50, 49, 63)" stroke="none" stroke-width="1px">130</text></g><line x1="0" y1="0" x2="272" y2="0" fill="rgb(0, 0, 0)" stroke="rgb(204, 204, 204)" stroke-width="1px"></line></g></g></g></g></svg>